%TF.GenerationSoftware,KiCad,Pcbnew,10.0.3*%
%TF.CreationDate,2026-10-08T13:37:44-07:00*%
%TF.ProjectId,business_card,62757369-6e65-4737-935f-636172642e6b,rev?*%
%TF.SameCoordinates,Original*%
%TF.FileFunction,Legend,Top*%
%TF.FilePolarity,Positive*%
%FSLAX46Y46*%
G04 Gerber Fmt 4.6, Leading zero omitted, Abs format (unit mm)*
G04 Created by KiCad (PCBNEW 10.0.3) date 2026-10-08 13:37:44*
%MOMM*%
%LPD*%
G01*
G04 APERTURE LIST*
%ADD10C,0.200000*%
%ADD11C,0.250000*%
%ADD12C,0.000000*%
G04 APERTURE END LIST*
D10*
X143293482Y-101214838D02*
X143198244Y-101167219D01*
X143198244Y-101167219D02*
X143055387Y-101167219D01*
X143055387Y-101167219D02*
X142912530Y-101214838D01*
X142912530Y-101214838D02*
X142817292Y-101310076D01*
X142817292Y-101310076D02*
X142769673Y-101405314D01*
X142769673Y-101405314D02*
X142722054Y-101595790D01*
X142722054Y-101595790D02*
X142722054Y-101738647D01*
X142722054Y-101738647D02*
X142769673Y-101929123D01*
X142769673Y-101929123D02*
X142817292Y-102024361D01*
X142817292Y-102024361D02*
X142912530Y-102119600D01*
X142912530Y-102119600D02*
X143055387Y-102167219D01*
X143055387Y-102167219D02*
X143150625Y-102167219D01*
X143150625Y-102167219D02*
X143293482Y-102119600D01*
X143293482Y-102119600D02*
X143341101Y-102071980D01*
X143341101Y-102071980D02*
X143341101Y-101738647D01*
X143341101Y-101738647D02*
X143150625Y-101738647D01*
X143769673Y-102167219D02*
X143769673Y-101500552D01*
X143769673Y-101167219D02*
X143722054Y-101214838D01*
X143722054Y-101214838D02*
X143769673Y-101262457D01*
X143769673Y-101262457D02*
X143817292Y-101214838D01*
X143817292Y-101214838D02*
X143769673Y-101167219D01*
X143769673Y-101167219D02*
X143769673Y-101262457D01*
X144103006Y-101500552D02*
X144483958Y-101500552D01*
X144245863Y-101167219D02*
X144245863Y-102024361D01*
X144245863Y-102024361D02*
X144293482Y-102119600D01*
X144293482Y-102119600D02*
X144388720Y-102167219D01*
X144388720Y-102167219D02*
X144483958Y-102167219D01*
X144817292Y-102167219D02*
X144817292Y-101167219D01*
X144817292Y-101643409D02*
X145388720Y-101643409D01*
X145388720Y-102167219D02*
X145388720Y-101167219D01*
X146293482Y-101500552D02*
X146293482Y-102167219D01*
X145864911Y-101500552D02*
X145864911Y-102024361D01*
X145864911Y-102024361D02*
X145912530Y-102119600D01*
X145912530Y-102119600D02*
X146007768Y-102167219D01*
X146007768Y-102167219D02*
X146150625Y-102167219D01*
X146150625Y-102167219D02*
X146245863Y-102119600D01*
X146245863Y-102119600D02*
X146293482Y-102071980D01*
X146769673Y-102167219D02*
X146769673Y-101167219D01*
X146769673Y-101548171D02*
X146864911Y-101500552D01*
X146864911Y-101500552D02*
X147055387Y-101500552D01*
X147055387Y-101500552D02*
X147150625Y-101548171D01*
X147150625Y-101548171D02*
X147198244Y-101595790D01*
X147198244Y-101595790D02*
X147245863Y-101691028D01*
X147245863Y-101691028D02*
X147245863Y-101976742D01*
X147245863Y-101976742D02*
X147198244Y-102071980D01*
X147198244Y-102071980D02*
X147150625Y-102119600D01*
X147150625Y-102119600D02*
X147055387Y-102167219D01*
X147055387Y-102167219D02*
X146864911Y-102167219D01*
X146864911Y-102167219D02*
X146769673Y-102119600D01*
D11*
X122435524Y-75311145D02*
X123387905Y-75311145D01*
X122245048Y-75882574D02*
X122911714Y-73882574D01*
X122911714Y-73882574D02*
X123578381Y-75882574D01*
X125102191Y-75882574D02*
X125102191Y-73882574D01*
X125102191Y-75787336D02*
X124911715Y-75882574D01*
X124911715Y-75882574D02*
X124530762Y-75882574D01*
X124530762Y-75882574D02*
X124340286Y-75787336D01*
X124340286Y-75787336D02*
X124245048Y-75692097D01*
X124245048Y-75692097D02*
X124149810Y-75501621D01*
X124149810Y-75501621D02*
X124149810Y-74930193D01*
X124149810Y-74930193D02*
X124245048Y-74739716D01*
X124245048Y-74739716D02*
X124340286Y-74644478D01*
X124340286Y-74644478D02*
X124530762Y-74549240D01*
X124530762Y-74549240D02*
X124911715Y-74549240D01*
X124911715Y-74549240D02*
X125102191Y-74644478D01*
X126911715Y-75882574D02*
X126911715Y-74834955D01*
X126911715Y-74834955D02*
X126816477Y-74644478D01*
X126816477Y-74644478D02*
X126626001Y-74549240D01*
X126626001Y-74549240D02*
X126245048Y-74549240D01*
X126245048Y-74549240D02*
X126054572Y-74644478D01*
X126911715Y-75787336D02*
X126721239Y-75882574D01*
X126721239Y-75882574D02*
X126245048Y-75882574D01*
X126245048Y-75882574D02*
X126054572Y-75787336D01*
X126054572Y-75787336D02*
X125959334Y-75596859D01*
X125959334Y-75596859D02*
X125959334Y-75406383D01*
X125959334Y-75406383D02*
X126054572Y-75215907D01*
X126054572Y-75215907D02*
X126245048Y-75120669D01*
X126245048Y-75120669D02*
X126721239Y-75120669D01*
X126721239Y-75120669D02*
X126911715Y-75025431D01*
X127864096Y-75882574D02*
X127864096Y-74549240D01*
X127864096Y-74739716D02*
X127959334Y-74644478D01*
X127959334Y-74644478D02*
X128149810Y-74549240D01*
X128149810Y-74549240D02*
X128435525Y-74549240D01*
X128435525Y-74549240D02*
X128626001Y-74644478D01*
X128626001Y-74644478D02*
X128721239Y-74834955D01*
X128721239Y-74834955D02*
X128721239Y-75882574D01*
X128721239Y-74834955D02*
X128816477Y-74644478D01*
X128816477Y-74644478D02*
X129006953Y-74549240D01*
X129006953Y-74549240D02*
X129292667Y-74549240D01*
X129292667Y-74549240D02*
X129483144Y-74644478D01*
X129483144Y-74644478D02*
X129578382Y-74834955D01*
X129578382Y-74834955D02*
X129578382Y-75882574D01*
X132054573Y-75882574D02*
X132054573Y-73882574D01*
X132054573Y-74834955D02*
X133197430Y-74834955D01*
X133197430Y-75882574D02*
X133197430Y-73882574D01*
X135006954Y-75882574D02*
X135006954Y-74834955D01*
X135006954Y-74834955D02*
X134911716Y-74644478D01*
X134911716Y-74644478D02*
X134721240Y-74549240D01*
X134721240Y-74549240D02*
X134340287Y-74549240D01*
X134340287Y-74549240D02*
X134149811Y-74644478D01*
X135006954Y-75787336D02*
X134816478Y-75882574D01*
X134816478Y-75882574D02*
X134340287Y-75882574D01*
X134340287Y-75882574D02*
X134149811Y-75787336D01*
X134149811Y-75787336D02*
X134054573Y-75596859D01*
X134054573Y-75596859D02*
X134054573Y-75406383D01*
X134054573Y-75406383D02*
X134149811Y-75215907D01*
X134149811Y-75215907D02*
X134340287Y-75120669D01*
X134340287Y-75120669D02*
X134816478Y-75120669D01*
X134816478Y-75120669D02*
X135006954Y-75025431D01*
X136816478Y-74549240D02*
X136816478Y-76168288D01*
X136816478Y-76168288D02*
X136721240Y-76358764D01*
X136721240Y-76358764D02*
X136626002Y-76454002D01*
X136626002Y-76454002D02*
X136435525Y-76549240D01*
X136435525Y-76549240D02*
X136149811Y-76549240D01*
X136149811Y-76549240D02*
X135959335Y-76454002D01*
X136816478Y-75787336D02*
X136626002Y-75882574D01*
X136626002Y-75882574D02*
X136245049Y-75882574D01*
X136245049Y-75882574D02*
X136054573Y-75787336D01*
X136054573Y-75787336D02*
X135959335Y-75692097D01*
X135959335Y-75692097D02*
X135864097Y-75501621D01*
X135864097Y-75501621D02*
X135864097Y-74930193D01*
X135864097Y-74930193D02*
X135959335Y-74739716D01*
X135959335Y-74739716D02*
X136054573Y-74644478D01*
X136054573Y-74644478D02*
X136245049Y-74549240D01*
X136245049Y-74549240D02*
X136626002Y-74549240D01*
X136626002Y-74549240D02*
X136816478Y-74644478D01*
X138530764Y-75787336D02*
X138340288Y-75882574D01*
X138340288Y-75882574D02*
X137959335Y-75882574D01*
X137959335Y-75882574D02*
X137768859Y-75787336D01*
X137768859Y-75787336D02*
X137673621Y-75596859D01*
X137673621Y-75596859D02*
X137673621Y-74834955D01*
X137673621Y-74834955D02*
X137768859Y-74644478D01*
X137768859Y-74644478D02*
X137959335Y-74549240D01*
X137959335Y-74549240D02*
X138340288Y-74549240D01*
X138340288Y-74549240D02*
X138530764Y-74644478D01*
X138530764Y-74644478D02*
X138626002Y-74834955D01*
X138626002Y-74834955D02*
X138626002Y-75025431D01*
X138626002Y-75025431D02*
X137673621Y-75215907D01*
X139483145Y-74549240D02*
X139483145Y-75882574D01*
X139483145Y-74739716D02*
X139578383Y-74644478D01*
X139578383Y-74644478D02*
X139768859Y-74549240D01*
X139768859Y-74549240D02*
X140054574Y-74549240D01*
X140054574Y-74549240D02*
X140245050Y-74644478D01*
X140245050Y-74644478D02*
X140340288Y-74834955D01*
X140340288Y-74834955D02*
X140340288Y-75882574D01*
X142149812Y-74549240D02*
X142149812Y-76168288D01*
X142149812Y-76168288D02*
X142054574Y-76358764D01*
X142054574Y-76358764D02*
X141959336Y-76454002D01*
X141959336Y-76454002D02*
X141768859Y-76549240D01*
X141768859Y-76549240D02*
X141483145Y-76549240D01*
X141483145Y-76549240D02*
X141292669Y-76454002D01*
X142149812Y-75787336D02*
X141959336Y-75882574D01*
X141959336Y-75882574D02*
X141578383Y-75882574D01*
X141578383Y-75882574D02*
X141387907Y-75787336D01*
X141387907Y-75787336D02*
X141292669Y-75692097D01*
X141292669Y-75692097D02*
X141197431Y-75501621D01*
X141197431Y-75501621D02*
X141197431Y-74930193D01*
X141197431Y-74930193D02*
X141292669Y-74739716D01*
X141292669Y-74739716D02*
X141387907Y-74644478D01*
X141387907Y-74644478D02*
X141578383Y-74549240D01*
X141578383Y-74549240D02*
X141959336Y-74549240D01*
X141959336Y-74549240D02*
X142149812Y-74644478D01*
X143102193Y-75882574D02*
X143102193Y-74549240D01*
X143102193Y-74930193D02*
X143197431Y-74739716D01*
X143197431Y-74739716D02*
X143292669Y-74644478D01*
X143292669Y-74644478D02*
X143483145Y-74549240D01*
X143483145Y-74549240D02*
X143673622Y-74549240D01*
X145197431Y-74549240D02*
X145197431Y-75882574D01*
X144340288Y-74549240D02*
X144340288Y-75596859D01*
X144340288Y-75596859D02*
X144435526Y-75787336D01*
X144435526Y-75787336D02*
X144626002Y-75882574D01*
X144626002Y-75882574D02*
X144911717Y-75882574D01*
X144911717Y-75882574D02*
X145102193Y-75787336D01*
X145102193Y-75787336D02*
X145197431Y-75692097D01*
X146149812Y-75882574D02*
X146149812Y-73882574D01*
X146149812Y-74644478D02*
X146340288Y-74549240D01*
X146340288Y-74549240D02*
X146721241Y-74549240D01*
X146721241Y-74549240D02*
X146911717Y-74644478D01*
X146911717Y-74644478D02*
X147006955Y-74739716D01*
X147006955Y-74739716D02*
X147102193Y-74930193D01*
X147102193Y-74930193D02*
X147102193Y-75501621D01*
X147102193Y-75501621D02*
X147006955Y-75692097D01*
X147006955Y-75692097D02*
X146911717Y-75787336D01*
X146911717Y-75787336D02*
X146721241Y-75882574D01*
X146721241Y-75882574D02*
X146340288Y-75882574D01*
X146340288Y-75882574D02*
X146149812Y-75787336D01*
X148721241Y-75787336D02*
X148530765Y-75882574D01*
X148530765Y-75882574D02*
X148149812Y-75882574D01*
X148149812Y-75882574D02*
X147959336Y-75787336D01*
X147959336Y-75787336D02*
X147864098Y-75596859D01*
X147864098Y-75596859D02*
X147864098Y-74834955D01*
X147864098Y-74834955D02*
X147959336Y-74644478D01*
X147959336Y-74644478D02*
X148149812Y-74549240D01*
X148149812Y-74549240D02*
X148530765Y-74549240D01*
X148530765Y-74549240D02*
X148721241Y-74644478D01*
X148721241Y-74644478D02*
X148816479Y-74834955D01*
X148816479Y-74834955D02*
X148816479Y-75025431D01*
X148816479Y-75025431D02*
X147864098Y-75215907D01*
X149673622Y-75882574D02*
X149673622Y-74549240D01*
X149673622Y-74930193D02*
X149768860Y-74739716D01*
X149768860Y-74739716D02*
X149864098Y-74644478D01*
X149864098Y-74644478D02*
X150054574Y-74549240D01*
X150054574Y-74549240D02*
X150245051Y-74549240D01*
X122721239Y-79102462D02*
X122721239Y-77102462D01*
X122721239Y-78054843D02*
X123864096Y-78054843D01*
X123864096Y-79102462D02*
X123864096Y-77102462D01*
X125673620Y-79102462D02*
X125673620Y-78054843D01*
X125673620Y-78054843D02*
X125578382Y-77864366D01*
X125578382Y-77864366D02*
X125387906Y-77769128D01*
X125387906Y-77769128D02*
X125006953Y-77769128D01*
X125006953Y-77769128D02*
X124816477Y-77864366D01*
X125673620Y-79007224D02*
X125483144Y-79102462D01*
X125483144Y-79102462D02*
X125006953Y-79102462D01*
X125006953Y-79102462D02*
X124816477Y-79007224D01*
X124816477Y-79007224D02*
X124721239Y-78816747D01*
X124721239Y-78816747D02*
X124721239Y-78626271D01*
X124721239Y-78626271D02*
X124816477Y-78435795D01*
X124816477Y-78435795D02*
X125006953Y-78340557D01*
X125006953Y-78340557D02*
X125483144Y-78340557D01*
X125483144Y-78340557D02*
X125673620Y-78245319D01*
X126626001Y-79102462D02*
X126626001Y-77769128D01*
X126626001Y-78150081D02*
X126721239Y-77959604D01*
X126721239Y-77959604D02*
X126816477Y-77864366D01*
X126816477Y-77864366D02*
X127006953Y-77769128D01*
X127006953Y-77769128D02*
X127197430Y-77769128D01*
X128721239Y-79102462D02*
X128721239Y-77102462D01*
X128721239Y-79007224D02*
X128530763Y-79102462D01*
X128530763Y-79102462D02*
X128149810Y-79102462D01*
X128149810Y-79102462D02*
X127959334Y-79007224D01*
X127959334Y-79007224D02*
X127864096Y-78911985D01*
X127864096Y-78911985D02*
X127768858Y-78721509D01*
X127768858Y-78721509D02*
X127768858Y-78150081D01*
X127768858Y-78150081D02*
X127864096Y-77959604D01*
X127864096Y-77959604D02*
X127959334Y-77864366D01*
X127959334Y-77864366D02*
X128149810Y-77769128D01*
X128149810Y-77769128D02*
X128530763Y-77769128D01*
X128530763Y-77769128D02*
X128721239Y-77864366D01*
X129483144Y-77769128D02*
X129864096Y-79102462D01*
X129864096Y-79102462D02*
X130245049Y-78150081D01*
X130245049Y-78150081D02*
X130626001Y-79102462D01*
X130626001Y-79102462D02*
X131006953Y-77769128D01*
X132626001Y-79102462D02*
X132626001Y-78054843D01*
X132626001Y-78054843D02*
X132530763Y-77864366D01*
X132530763Y-77864366D02*
X132340287Y-77769128D01*
X132340287Y-77769128D02*
X131959334Y-77769128D01*
X131959334Y-77769128D02*
X131768858Y-77864366D01*
X132626001Y-79007224D02*
X132435525Y-79102462D01*
X132435525Y-79102462D02*
X131959334Y-79102462D01*
X131959334Y-79102462D02*
X131768858Y-79007224D01*
X131768858Y-79007224D02*
X131673620Y-78816747D01*
X131673620Y-78816747D02*
X131673620Y-78626271D01*
X131673620Y-78626271D02*
X131768858Y-78435795D01*
X131768858Y-78435795D02*
X131959334Y-78340557D01*
X131959334Y-78340557D02*
X132435525Y-78340557D01*
X132435525Y-78340557D02*
X132626001Y-78245319D01*
X133578382Y-79102462D02*
X133578382Y-77769128D01*
X133578382Y-78150081D02*
X133673620Y-77959604D01*
X133673620Y-77959604D02*
X133768858Y-77864366D01*
X133768858Y-77864366D02*
X133959334Y-77769128D01*
X133959334Y-77769128D02*
X134149811Y-77769128D01*
X135578382Y-79007224D02*
X135387906Y-79102462D01*
X135387906Y-79102462D02*
X135006953Y-79102462D01*
X135006953Y-79102462D02*
X134816477Y-79007224D01*
X134816477Y-79007224D02*
X134721239Y-78816747D01*
X134721239Y-78816747D02*
X134721239Y-78054843D01*
X134721239Y-78054843D02*
X134816477Y-77864366D01*
X134816477Y-77864366D02*
X135006953Y-77769128D01*
X135006953Y-77769128D02*
X135387906Y-77769128D01*
X135387906Y-77769128D02*
X135578382Y-77864366D01*
X135578382Y-77864366D02*
X135673620Y-78054843D01*
X135673620Y-78054843D02*
X135673620Y-78245319D01*
X135673620Y-78245319D02*
X134721239Y-78435795D01*
X138054573Y-78054843D02*
X138721240Y-78054843D01*
X139006954Y-79102462D02*
X138054573Y-79102462D01*
X138054573Y-79102462D02*
X138054573Y-77102462D01*
X138054573Y-77102462D02*
X139006954Y-77102462D01*
X139864097Y-77769128D02*
X139864097Y-79102462D01*
X139864097Y-77959604D02*
X139959335Y-77864366D01*
X139959335Y-77864366D02*
X140149811Y-77769128D01*
X140149811Y-77769128D02*
X140435526Y-77769128D01*
X140435526Y-77769128D02*
X140626002Y-77864366D01*
X140626002Y-77864366D02*
X140721240Y-78054843D01*
X140721240Y-78054843D02*
X140721240Y-79102462D01*
X142530764Y-77769128D02*
X142530764Y-79388176D01*
X142530764Y-79388176D02*
X142435526Y-79578652D01*
X142435526Y-79578652D02*
X142340288Y-79673890D01*
X142340288Y-79673890D02*
X142149811Y-79769128D01*
X142149811Y-79769128D02*
X141864097Y-79769128D01*
X141864097Y-79769128D02*
X141673621Y-79673890D01*
X142530764Y-79007224D02*
X142340288Y-79102462D01*
X142340288Y-79102462D02*
X141959335Y-79102462D01*
X141959335Y-79102462D02*
X141768859Y-79007224D01*
X141768859Y-79007224D02*
X141673621Y-78911985D01*
X141673621Y-78911985D02*
X141578383Y-78721509D01*
X141578383Y-78721509D02*
X141578383Y-78150081D01*
X141578383Y-78150081D02*
X141673621Y-77959604D01*
X141673621Y-77959604D02*
X141768859Y-77864366D01*
X141768859Y-77864366D02*
X141959335Y-77769128D01*
X141959335Y-77769128D02*
X142340288Y-77769128D01*
X142340288Y-77769128D02*
X142530764Y-77864366D01*
X143483145Y-79102462D02*
X143483145Y-77769128D01*
X143483145Y-77102462D02*
X143387907Y-77197700D01*
X143387907Y-77197700D02*
X143483145Y-77292938D01*
X143483145Y-77292938D02*
X143578383Y-77197700D01*
X143578383Y-77197700D02*
X143483145Y-77102462D01*
X143483145Y-77102462D02*
X143483145Y-77292938D01*
X144435526Y-77769128D02*
X144435526Y-79102462D01*
X144435526Y-77959604D02*
X144530764Y-77864366D01*
X144530764Y-77864366D02*
X144721240Y-77769128D01*
X144721240Y-77769128D02*
X145006955Y-77769128D01*
X145006955Y-77769128D02*
X145197431Y-77864366D01*
X145197431Y-77864366D02*
X145292669Y-78054843D01*
X145292669Y-78054843D02*
X145292669Y-79102462D01*
X147006955Y-79007224D02*
X146816479Y-79102462D01*
X146816479Y-79102462D02*
X146435526Y-79102462D01*
X146435526Y-79102462D02*
X146245050Y-79007224D01*
X146245050Y-79007224D02*
X146149812Y-78816747D01*
X146149812Y-78816747D02*
X146149812Y-78054843D01*
X146149812Y-78054843D02*
X146245050Y-77864366D01*
X146245050Y-77864366D02*
X146435526Y-77769128D01*
X146435526Y-77769128D02*
X146816479Y-77769128D01*
X146816479Y-77769128D02*
X147006955Y-77864366D01*
X147006955Y-77864366D02*
X147102193Y-78054843D01*
X147102193Y-78054843D02*
X147102193Y-78245319D01*
X147102193Y-78245319D02*
X146149812Y-78435795D01*
X148721241Y-79007224D02*
X148530765Y-79102462D01*
X148530765Y-79102462D02*
X148149812Y-79102462D01*
X148149812Y-79102462D02*
X147959336Y-79007224D01*
X147959336Y-79007224D02*
X147864098Y-78816747D01*
X147864098Y-78816747D02*
X147864098Y-78054843D01*
X147864098Y-78054843D02*
X147959336Y-77864366D01*
X147959336Y-77864366D02*
X148149812Y-77769128D01*
X148149812Y-77769128D02*
X148530765Y-77769128D01*
X148530765Y-77769128D02*
X148721241Y-77864366D01*
X148721241Y-77864366D02*
X148816479Y-78054843D01*
X148816479Y-78054843D02*
X148816479Y-78245319D01*
X148816479Y-78245319D02*
X147864098Y-78435795D01*
X149673622Y-79102462D02*
X149673622Y-77769128D01*
X149673622Y-78150081D02*
X149768860Y-77959604D01*
X149768860Y-77959604D02*
X149864098Y-77864366D01*
X149864098Y-77864366D02*
X150054574Y-77769128D01*
X150054574Y-77769128D02*
X150245051Y-77769128D01*
X95864093Y-82227112D02*
X96149807Y-82322350D01*
X96149807Y-82322350D02*
X96625998Y-82322350D01*
X96625998Y-82322350D02*
X96816474Y-82227112D01*
X96816474Y-82227112D02*
X96911712Y-82131873D01*
X96911712Y-82131873D02*
X97006950Y-81941397D01*
X97006950Y-81941397D02*
X97006950Y-81750921D01*
X97006950Y-81750921D02*
X96911712Y-81560445D01*
X96911712Y-81560445D02*
X96816474Y-81465207D01*
X96816474Y-81465207D02*
X96625998Y-81369969D01*
X96625998Y-81369969D02*
X96245045Y-81274731D01*
X96245045Y-81274731D02*
X96054569Y-81179492D01*
X96054569Y-81179492D02*
X95959331Y-81084254D01*
X95959331Y-81084254D02*
X95864093Y-80893778D01*
X95864093Y-80893778D02*
X95864093Y-80703302D01*
X95864093Y-80703302D02*
X95959331Y-80512826D01*
X95959331Y-80512826D02*
X96054569Y-80417588D01*
X96054569Y-80417588D02*
X96245045Y-80322350D01*
X96245045Y-80322350D02*
X96721236Y-80322350D01*
X96721236Y-80322350D02*
X97006950Y-80417588D01*
X98721236Y-82227112D02*
X98530760Y-82322350D01*
X98530760Y-82322350D02*
X98149807Y-82322350D01*
X98149807Y-82322350D02*
X97959331Y-82227112D01*
X97959331Y-82227112D02*
X97864093Y-82131873D01*
X97864093Y-82131873D02*
X97768855Y-81941397D01*
X97768855Y-81941397D02*
X97768855Y-81369969D01*
X97768855Y-81369969D02*
X97864093Y-81179492D01*
X97864093Y-81179492D02*
X97959331Y-81084254D01*
X97959331Y-81084254D02*
X98149807Y-80989016D01*
X98149807Y-80989016D02*
X98530760Y-80989016D01*
X98530760Y-80989016D02*
X98721236Y-81084254D01*
X99578379Y-82322350D02*
X99578379Y-80322350D01*
X100435522Y-82322350D02*
X100435522Y-81274731D01*
X100435522Y-81274731D02*
X100340284Y-81084254D01*
X100340284Y-81084254D02*
X100149808Y-80989016D01*
X100149808Y-80989016D02*
X99864093Y-80989016D01*
X99864093Y-80989016D02*
X99673617Y-81084254D01*
X99673617Y-81084254D02*
X99578379Y-81179492D01*
X101197427Y-80989016D02*
X101578379Y-82322350D01*
X101578379Y-82322350D02*
X101959332Y-81369969D01*
X101959332Y-81369969D02*
X102340284Y-82322350D01*
X102340284Y-82322350D02*
X102721236Y-80989016D01*
X104245046Y-82227112D02*
X104054570Y-82322350D01*
X104054570Y-82322350D02*
X103673617Y-82322350D01*
X103673617Y-82322350D02*
X103483141Y-82227112D01*
X103483141Y-82227112D02*
X103387903Y-82036635D01*
X103387903Y-82036635D02*
X103387903Y-81274731D01*
X103387903Y-81274731D02*
X103483141Y-81084254D01*
X103483141Y-81084254D02*
X103673617Y-80989016D01*
X103673617Y-80989016D02*
X104054570Y-80989016D01*
X104054570Y-80989016D02*
X104245046Y-81084254D01*
X104245046Y-81084254D02*
X104340284Y-81274731D01*
X104340284Y-81274731D02*
X104340284Y-81465207D01*
X104340284Y-81465207D02*
X103387903Y-81655683D01*
X105197427Y-82322350D02*
X105197427Y-80989016D01*
X105197427Y-80322350D02*
X105102189Y-80417588D01*
X105102189Y-80417588D02*
X105197427Y-80512826D01*
X105197427Y-80512826D02*
X105292665Y-80417588D01*
X105292665Y-80417588D02*
X105197427Y-80322350D01*
X105197427Y-80322350D02*
X105197427Y-80512826D01*
X105864094Y-80989016D02*
X106625998Y-80989016D01*
X106149808Y-80322350D02*
X106149808Y-82036635D01*
X106149808Y-82036635D02*
X106245046Y-82227112D01*
X106245046Y-82227112D02*
X106435522Y-82322350D01*
X106435522Y-82322350D02*
X106625998Y-82322350D01*
X107102189Y-80989016D02*
X108149808Y-80989016D01*
X108149808Y-80989016D02*
X107102189Y-82322350D01*
X107102189Y-82322350D02*
X108149808Y-82322350D01*
X109673618Y-82227112D02*
X109483142Y-82322350D01*
X109483142Y-82322350D02*
X109102189Y-82322350D01*
X109102189Y-82322350D02*
X108911713Y-82227112D01*
X108911713Y-82227112D02*
X108816475Y-82036635D01*
X108816475Y-82036635D02*
X108816475Y-81274731D01*
X108816475Y-81274731D02*
X108911713Y-81084254D01*
X108911713Y-81084254D02*
X109102189Y-80989016D01*
X109102189Y-80989016D02*
X109483142Y-80989016D01*
X109483142Y-80989016D02*
X109673618Y-81084254D01*
X109673618Y-81084254D02*
X109768856Y-81274731D01*
X109768856Y-81274731D02*
X109768856Y-81465207D01*
X109768856Y-81465207D02*
X108816475Y-81655683D01*
X110625999Y-82322350D02*
X110625999Y-80989016D01*
X110625999Y-81369969D02*
X110721237Y-81179492D01*
X110721237Y-81179492D02*
X110816475Y-81084254D01*
X110816475Y-81084254D02*
X111006951Y-80989016D01*
X111006951Y-80989016D02*
X111197428Y-80989016D01*
X113387904Y-81274731D02*
X114054571Y-81274731D01*
X114340285Y-82322350D02*
X113387904Y-82322350D01*
X113387904Y-82322350D02*
X113387904Y-80322350D01*
X113387904Y-80322350D02*
X114340285Y-80322350D01*
X115197428Y-80989016D02*
X115197428Y-82322350D01*
X115197428Y-81179492D02*
X115292666Y-81084254D01*
X115292666Y-81084254D02*
X115483142Y-80989016D01*
X115483142Y-80989016D02*
X115768857Y-80989016D01*
X115768857Y-80989016D02*
X115959333Y-81084254D01*
X115959333Y-81084254D02*
X116054571Y-81274731D01*
X116054571Y-81274731D02*
X116054571Y-82322350D01*
X117864095Y-80989016D02*
X117864095Y-82608064D01*
X117864095Y-82608064D02*
X117768857Y-82798540D01*
X117768857Y-82798540D02*
X117673619Y-82893778D01*
X117673619Y-82893778D02*
X117483142Y-82989016D01*
X117483142Y-82989016D02*
X117197428Y-82989016D01*
X117197428Y-82989016D02*
X117006952Y-82893778D01*
X117864095Y-82227112D02*
X117673619Y-82322350D01*
X117673619Y-82322350D02*
X117292666Y-82322350D01*
X117292666Y-82322350D02*
X117102190Y-82227112D01*
X117102190Y-82227112D02*
X117006952Y-82131873D01*
X117006952Y-82131873D02*
X116911714Y-81941397D01*
X116911714Y-81941397D02*
X116911714Y-81369969D01*
X116911714Y-81369969D02*
X117006952Y-81179492D01*
X117006952Y-81179492D02*
X117102190Y-81084254D01*
X117102190Y-81084254D02*
X117292666Y-80989016D01*
X117292666Y-80989016D02*
X117673619Y-80989016D01*
X117673619Y-80989016D02*
X117864095Y-81084254D01*
X118816476Y-82322350D02*
X118816476Y-80989016D01*
X118816476Y-80322350D02*
X118721238Y-80417588D01*
X118721238Y-80417588D02*
X118816476Y-80512826D01*
X118816476Y-80512826D02*
X118911714Y-80417588D01*
X118911714Y-80417588D02*
X118816476Y-80322350D01*
X118816476Y-80322350D02*
X118816476Y-80512826D01*
X119768857Y-80989016D02*
X119768857Y-82322350D01*
X119768857Y-81179492D02*
X119864095Y-81084254D01*
X119864095Y-81084254D02*
X120054571Y-80989016D01*
X120054571Y-80989016D02*
X120340286Y-80989016D01*
X120340286Y-80989016D02*
X120530762Y-81084254D01*
X120530762Y-81084254D02*
X120626000Y-81274731D01*
X120626000Y-81274731D02*
X120626000Y-82322350D01*
X122340286Y-82227112D02*
X122149810Y-82322350D01*
X122149810Y-82322350D02*
X121768857Y-82322350D01*
X121768857Y-82322350D02*
X121578381Y-82227112D01*
X121578381Y-82227112D02*
X121483143Y-82036635D01*
X121483143Y-82036635D02*
X121483143Y-81274731D01*
X121483143Y-81274731D02*
X121578381Y-81084254D01*
X121578381Y-81084254D02*
X121768857Y-80989016D01*
X121768857Y-80989016D02*
X122149810Y-80989016D01*
X122149810Y-80989016D02*
X122340286Y-81084254D01*
X122340286Y-81084254D02*
X122435524Y-81274731D01*
X122435524Y-81274731D02*
X122435524Y-81465207D01*
X122435524Y-81465207D02*
X121483143Y-81655683D01*
X124054572Y-82227112D02*
X123864096Y-82322350D01*
X123864096Y-82322350D02*
X123483143Y-82322350D01*
X123483143Y-82322350D02*
X123292667Y-82227112D01*
X123292667Y-82227112D02*
X123197429Y-82036635D01*
X123197429Y-82036635D02*
X123197429Y-81274731D01*
X123197429Y-81274731D02*
X123292667Y-81084254D01*
X123292667Y-81084254D02*
X123483143Y-80989016D01*
X123483143Y-80989016D02*
X123864096Y-80989016D01*
X123864096Y-80989016D02*
X124054572Y-81084254D01*
X124054572Y-81084254D02*
X124149810Y-81274731D01*
X124149810Y-81274731D02*
X124149810Y-81465207D01*
X124149810Y-81465207D02*
X123197429Y-81655683D01*
X125006953Y-82322350D02*
X125006953Y-80989016D01*
X125006953Y-81369969D02*
X125102191Y-81179492D01*
X125102191Y-81179492D02*
X125197429Y-81084254D01*
X125197429Y-81084254D02*
X125387905Y-80989016D01*
X125387905Y-80989016D02*
X125578382Y-80989016D01*
X126245048Y-82322350D02*
X126245048Y-80989016D01*
X126245048Y-80322350D02*
X126149810Y-80417588D01*
X126149810Y-80417588D02*
X126245048Y-80512826D01*
X126245048Y-80512826D02*
X126340286Y-80417588D01*
X126340286Y-80417588D02*
X126245048Y-80322350D01*
X126245048Y-80322350D02*
X126245048Y-80512826D01*
X127197429Y-80989016D02*
X127197429Y-82322350D01*
X127197429Y-81179492D02*
X127292667Y-81084254D01*
X127292667Y-81084254D02*
X127483143Y-80989016D01*
X127483143Y-80989016D02*
X127768858Y-80989016D01*
X127768858Y-80989016D02*
X127959334Y-81084254D01*
X127959334Y-81084254D02*
X128054572Y-81274731D01*
X128054572Y-81274731D02*
X128054572Y-82322350D01*
X129864096Y-80989016D02*
X129864096Y-82608064D01*
X129864096Y-82608064D02*
X129768858Y-82798540D01*
X129768858Y-82798540D02*
X129673620Y-82893778D01*
X129673620Y-82893778D02*
X129483143Y-82989016D01*
X129483143Y-82989016D02*
X129197429Y-82989016D01*
X129197429Y-82989016D02*
X129006953Y-82893778D01*
X129864096Y-82227112D02*
X129673620Y-82322350D01*
X129673620Y-82322350D02*
X129292667Y-82322350D01*
X129292667Y-82322350D02*
X129102191Y-82227112D01*
X129102191Y-82227112D02*
X129006953Y-82131873D01*
X129006953Y-82131873D02*
X128911715Y-81941397D01*
X128911715Y-81941397D02*
X128911715Y-81369969D01*
X128911715Y-81369969D02*
X129006953Y-81179492D01*
X129006953Y-81179492D02*
X129102191Y-81084254D01*
X129102191Y-81084254D02*
X129292667Y-80989016D01*
X129292667Y-80989016D02*
X129673620Y-80989016D01*
X129673620Y-80989016D02*
X129864096Y-81084254D01*
X133292668Y-82322350D02*
X132340287Y-82322350D01*
X132340287Y-82322350D02*
X132340287Y-80322350D01*
X134816478Y-82322350D02*
X134816478Y-81274731D01*
X134816478Y-81274731D02*
X134721240Y-81084254D01*
X134721240Y-81084254D02*
X134530764Y-80989016D01*
X134530764Y-80989016D02*
X134149811Y-80989016D01*
X134149811Y-80989016D02*
X133959335Y-81084254D01*
X134816478Y-82227112D02*
X134626002Y-82322350D01*
X134626002Y-82322350D02*
X134149811Y-82322350D01*
X134149811Y-82322350D02*
X133959335Y-82227112D01*
X133959335Y-82227112D02*
X133864097Y-82036635D01*
X133864097Y-82036635D02*
X133864097Y-81846159D01*
X133864097Y-81846159D02*
X133959335Y-81655683D01*
X133959335Y-81655683D02*
X134149811Y-81560445D01*
X134149811Y-81560445D02*
X134626002Y-81560445D01*
X134626002Y-81560445D02*
X134816478Y-81465207D01*
X135768859Y-82322350D02*
X135768859Y-80322350D01*
X135768859Y-81084254D02*
X135959335Y-80989016D01*
X135959335Y-80989016D02*
X136340288Y-80989016D01*
X136340288Y-80989016D02*
X136530764Y-81084254D01*
X136530764Y-81084254D02*
X136626002Y-81179492D01*
X136626002Y-81179492D02*
X136721240Y-81369969D01*
X136721240Y-81369969D02*
X136721240Y-81941397D01*
X136721240Y-81941397D02*
X136626002Y-82131873D01*
X136626002Y-82131873D02*
X136530764Y-82227112D01*
X136530764Y-82227112D02*
X136340288Y-82322350D01*
X136340288Y-82322350D02*
X135959335Y-82322350D01*
X135959335Y-82322350D02*
X135768859Y-82227112D01*
X137864097Y-82322350D02*
X137673621Y-82227112D01*
X137673621Y-82227112D02*
X137578383Y-82131873D01*
X137578383Y-82131873D02*
X137483145Y-81941397D01*
X137483145Y-81941397D02*
X137483145Y-81369969D01*
X137483145Y-81369969D02*
X137578383Y-81179492D01*
X137578383Y-81179492D02*
X137673621Y-81084254D01*
X137673621Y-81084254D02*
X137864097Y-80989016D01*
X137864097Y-80989016D02*
X138149812Y-80989016D01*
X138149812Y-80989016D02*
X138340288Y-81084254D01*
X138340288Y-81084254D02*
X138435526Y-81179492D01*
X138435526Y-81179492D02*
X138530764Y-81369969D01*
X138530764Y-81369969D02*
X138530764Y-81941397D01*
X138530764Y-81941397D02*
X138435526Y-82131873D01*
X138435526Y-82131873D02*
X138340288Y-82227112D01*
X138340288Y-82227112D02*
X138149812Y-82322350D01*
X138149812Y-82322350D02*
X137864097Y-82322350D01*
X139387907Y-82322350D02*
X139387907Y-80989016D01*
X139387907Y-81369969D02*
X139483145Y-81179492D01*
X139483145Y-81179492D02*
X139578383Y-81084254D01*
X139578383Y-81084254D02*
X139768859Y-80989016D01*
X139768859Y-80989016D02*
X139959336Y-80989016D01*
X141483145Y-82322350D02*
X141483145Y-81274731D01*
X141483145Y-81274731D02*
X141387907Y-81084254D01*
X141387907Y-81084254D02*
X141197431Y-80989016D01*
X141197431Y-80989016D02*
X140816478Y-80989016D01*
X140816478Y-80989016D02*
X140626002Y-81084254D01*
X141483145Y-82227112D02*
X141292669Y-82322350D01*
X141292669Y-82322350D02*
X140816478Y-82322350D01*
X140816478Y-82322350D02*
X140626002Y-82227112D01*
X140626002Y-82227112D02*
X140530764Y-82036635D01*
X140530764Y-82036635D02*
X140530764Y-81846159D01*
X140530764Y-81846159D02*
X140626002Y-81655683D01*
X140626002Y-81655683D02*
X140816478Y-81560445D01*
X140816478Y-81560445D02*
X141292669Y-81560445D01*
X141292669Y-81560445D02*
X141483145Y-81465207D01*
X142149812Y-80989016D02*
X142911716Y-80989016D01*
X142435526Y-80322350D02*
X142435526Y-82036635D01*
X142435526Y-82036635D02*
X142530764Y-82227112D01*
X142530764Y-82227112D02*
X142721240Y-82322350D01*
X142721240Y-82322350D02*
X142911716Y-82322350D01*
X143864097Y-82322350D02*
X143673621Y-82227112D01*
X143673621Y-82227112D02*
X143578383Y-82131873D01*
X143578383Y-82131873D02*
X143483145Y-81941397D01*
X143483145Y-81941397D02*
X143483145Y-81369969D01*
X143483145Y-81369969D02*
X143578383Y-81179492D01*
X143578383Y-81179492D02*
X143673621Y-81084254D01*
X143673621Y-81084254D02*
X143864097Y-80989016D01*
X143864097Y-80989016D02*
X144149812Y-80989016D01*
X144149812Y-80989016D02*
X144340288Y-81084254D01*
X144340288Y-81084254D02*
X144435526Y-81179492D01*
X144435526Y-81179492D02*
X144530764Y-81369969D01*
X144530764Y-81369969D02*
X144530764Y-81941397D01*
X144530764Y-81941397D02*
X144435526Y-82131873D01*
X144435526Y-82131873D02*
X144340288Y-82227112D01*
X144340288Y-82227112D02*
X144149812Y-82322350D01*
X144149812Y-82322350D02*
X143864097Y-82322350D01*
X145387907Y-82322350D02*
X145387907Y-80989016D01*
X145387907Y-81369969D02*
X145483145Y-81179492D01*
X145483145Y-81179492D02*
X145578383Y-81084254D01*
X145578383Y-81084254D02*
X145768859Y-80989016D01*
X145768859Y-80989016D02*
X145959336Y-80989016D01*
X146626002Y-82322350D02*
X146626002Y-80989016D01*
X146626002Y-80322350D02*
X146530764Y-80417588D01*
X146530764Y-80417588D02*
X146626002Y-80512826D01*
X146626002Y-80512826D02*
X146721240Y-80417588D01*
X146721240Y-80417588D02*
X146626002Y-80322350D01*
X146626002Y-80322350D02*
X146626002Y-80512826D01*
X148340288Y-82227112D02*
X148149812Y-82322350D01*
X148149812Y-82322350D02*
X147768859Y-82322350D01*
X147768859Y-82322350D02*
X147578383Y-82227112D01*
X147578383Y-82227112D02*
X147483145Y-82036635D01*
X147483145Y-82036635D02*
X147483145Y-81274731D01*
X147483145Y-81274731D02*
X147578383Y-81084254D01*
X147578383Y-81084254D02*
X147768859Y-80989016D01*
X147768859Y-80989016D02*
X148149812Y-80989016D01*
X148149812Y-80989016D02*
X148340288Y-81084254D01*
X148340288Y-81084254D02*
X148435526Y-81274731D01*
X148435526Y-81274731D02*
X148435526Y-81465207D01*
X148435526Y-81465207D02*
X147483145Y-81655683D01*
X149197431Y-82227112D02*
X149387907Y-82322350D01*
X149387907Y-82322350D02*
X149768859Y-82322350D01*
X149768859Y-82322350D02*
X149959336Y-82227112D01*
X149959336Y-82227112D02*
X150054574Y-82036635D01*
X150054574Y-82036635D02*
X150054574Y-81941397D01*
X150054574Y-81941397D02*
X149959336Y-81750921D01*
X149959336Y-81750921D02*
X149768859Y-81655683D01*
X149768859Y-81655683D02*
X149483145Y-81655683D01*
X149483145Y-81655683D02*
X149292669Y-81560445D01*
X149292669Y-81560445D02*
X149197431Y-81369969D01*
X149197431Y-81369969D02*
X149197431Y-81274731D01*
X149197431Y-81274731D02*
X149292669Y-81084254D01*
X149292669Y-81084254D02*
X149483145Y-80989016D01*
X149483145Y-80989016D02*
X149768859Y-80989016D01*
X149768859Y-80989016D02*
X149959336Y-81084254D01*
X107102189Y-85542238D02*
X107102189Y-84494619D01*
X107102189Y-84494619D02*
X107006951Y-84304142D01*
X107006951Y-84304142D02*
X106816475Y-84208904D01*
X106816475Y-84208904D02*
X106435522Y-84208904D01*
X106435522Y-84208904D02*
X106245046Y-84304142D01*
X107102189Y-85447000D02*
X106911713Y-85542238D01*
X106911713Y-85542238D02*
X106435522Y-85542238D01*
X106435522Y-85542238D02*
X106245046Y-85447000D01*
X106245046Y-85447000D02*
X106149808Y-85256523D01*
X106149808Y-85256523D02*
X106149808Y-85066047D01*
X106149808Y-85066047D02*
X106245046Y-84875571D01*
X106245046Y-84875571D02*
X106435522Y-84780333D01*
X106435522Y-84780333D02*
X106911713Y-84780333D01*
X106911713Y-84780333D02*
X107102189Y-84685095D01*
X108911713Y-85542238D02*
X108911713Y-83542238D01*
X108911713Y-85447000D02*
X108721237Y-85542238D01*
X108721237Y-85542238D02*
X108340284Y-85542238D01*
X108340284Y-85542238D02*
X108149808Y-85447000D01*
X108149808Y-85447000D02*
X108054570Y-85351761D01*
X108054570Y-85351761D02*
X107959332Y-85161285D01*
X107959332Y-85161285D02*
X107959332Y-84589857D01*
X107959332Y-84589857D02*
X108054570Y-84399380D01*
X108054570Y-84399380D02*
X108149808Y-84304142D01*
X108149808Y-84304142D02*
X108340284Y-84208904D01*
X108340284Y-84208904D02*
X108721237Y-84208904D01*
X108721237Y-84208904D02*
X108911713Y-84304142D01*
X110721237Y-85542238D02*
X110721237Y-84494619D01*
X110721237Y-84494619D02*
X110625999Y-84304142D01*
X110625999Y-84304142D02*
X110435523Y-84208904D01*
X110435523Y-84208904D02*
X110054570Y-84208904D01*
X110054570Y-84208904D02*
X109864094Y-84304142D01*
X110721237Y-85447000D02*
X110530761Y-85542238D01*
X110530761Y-85542238D02*
X110054570Y-85542238D01*
X110054570Y-85542238D02*
X109864094Y-85447000D01*
X109864094Y-85447000D02*
X109768856Y-85256523D01*
X109768856Y-85256523D02*
X109768856Y-85066047D01*
X109768856Y-85066047D02*
X109864094Y-84875571D01*
X109864094Y-84875571D02*
X110054570Y-84780333D01*
X110054570Y-84780333D02*
X110530761Y-84780333D01*
X110530761Y-84780333D02*
X110721237Y-84685095D01*
X111673618Y-85542238D02*
X111673618Y-84208904D01*
X111673618Y-84399380D02*
X111768856Y-84304142D01*
X111768856Y-84304142D02*
X111959332Y-84208904D01*
X111959332Y-84208904D02*
X112245047Y-84208904D01*
X112245047Y-84208904D02*
X112435523Y-84304142D01*
X112435523Y-84304142D02*
X112530761Y-84494619D01*
X112530761Y-84494619D02*
X112530761Y-85542238D01*
X112530761Y-84494619D02*
X112625999Y-84304142D01*
X112625999Y-84304142D02*
X112816475Y-84208904D01*
X112816475Y-84208904D02*
X113102189Y-84208904D01*
X113102189Y-84208904D02*
X113292666Y-84304142D01*
X113292666Y-84304142D02*
X113387904Y-84494619D01*
X113387904Y-84494619D02*
X113387904Y-85542238D01*
X114340285Y-85542238D02*
X114340285Y-83542238D01*
X115197428Y-85542238D02*
X115197428Y-84494619D01*
X115197428Y-84494619D02*
X115102190Y-84304142D01*
X115102190Y-84304142D02*
X114911714Y-84208904D01*
X114911714Y-84208904D02*
X114625999Y-84208904D01*
X114625999Y-84208904D02*
X114435523Y-84304142D01*
X114435523Y-84304142D02*
X114340285Y-84399380D01*
X117006952Y-85542238D02*
X117006952Y-84494619D01*
X117006952Y-84494619D02*
X116911714Y-84304142D01*
X116911714Y-84304142D02*
X116721238Y-84208904D01*
X116721238Y-84208904D02*
X116340285Y-84208904D01*
X116340285Y-84208904D02*
X116149809Y-84304142D01*
X117006952Y-85447000D02*
X116816476Y-85542238D01*
X116816476Y-85542238D02*
X116340285Y-85542238D01*
X116340285Y-85542238D02*
X116149809Y-85447000D01*
X116149809Y-85447000D02*
X116054571Y-85256523D01*
X116054571Y-85256523D02*
X116054571Y-85066047D01*
X116054571Y-85066047D02*
X116149809Y-84875571D01*
X116149809Y-84875571D02*
X116340285Y-84780333D01*
X116340285Y-84780333D02*
X116816476Y-84780333D01*
X116816476Y-84780333D02*
X117006952Y-84685095D01*
X118816476Y-84208904D02*
X118816476Y-85827952D01*
X118816476Y-85827952D02*
X118721238Y-86018428D01*
X118721238Y-86018428D02*
X118626000Y-86113666D01*
X118626000Y-86113666D02*
X118435523Y-86208904D01*
X118435523Y-86208904D02*
X118149809Y-86208904D01*
X118149809Y-86208904D02*
X117959333Y-86113666D01*
X118816476Y-85447000D02*
X118626000Y-85542238D01*
X118626000Y-85542238D02*
X118245047Y-85542238D01*
X118245047Y-85542238D02*
X118054571Y-85447000D01*
X118054571Y-85447000D02*
X117959333Y-85351761D01*
X117959333Y-85351761D02*
X117864095Y-85161285D01*
X117864095Y-85161285D02*
X117864095Y-84589857D01*
X117864095Y-84589857D02*
X117959333Y-84399380D01*
X117959333Y-84399380D02*
X118054571Y-84304142D01*
X118054571Y-84304142D02*
X118245047Y-84208904D01*
X118245047Y-84208904D02*
X118626000Y-84208904D01*
X118626000Y-84208904D02*
X118816476Y-84304142D01*
X120530762Y-85447000D02*
X120340286Y-85542238D01*
X120340286Y-85542238D02*
X119959333Y-85542238D01*
X119959333Y-85542238D02*
X119768857Y-85447000D01*
X119768857Y-85447000D02*
X119673619Y-85256523D01*
X119673619Y-85256523D02*
X119673619Y-84494619D01*
X119673619Y-84494619D02*
X119768857Y-84304142D01*
X119768857Y-84304142D02*
X119959333Y-84208904D01*
X119959333Y-84208904D02*
X120340286Y-84208904D01*
X120340286Y-84208904D02*
X120530762Y-84304142D01*
X120530762Y-84304142D02*
X120626000Y-84494619D01*
X120626000Y-84494619D02*
X120626000Y-84685095D01*
X120626000Y-84685095D02*
X119673619Y-84875571D01*
X121483143Y-84208904D02*
X121483143Y-85542238D01*
X121483143Y-84399380D02*
X121578381Y-84304142D01*
X121578381Y-84304142D02*
X121768857Y-84208904D01*
X121768857Y-84208904D02*
X122054572Y-84208904D01*
X122054572Y-84208904D02*
X122245048Y-84304142D01*
X122245048Y-84304142D02*
X122340286Y-84494619D01*
X122340286Y-84494619D02*
X122340286Y-85542238D01*
X124149810Y-84208904D02*
X124149810Y-85827952D01*
X124149810Y-85827952D02*
X124054572Y-86018428D01*
X124054572Y-86018428D02*
X123959334Y-86113666D01*
X123959334Y-86113666D02*
X123768857Y-86208904D01*
X123768857Y-86208904D02*
X123483143Y-86208904D01*
X123483143Y-86208904D02*
X123292667Y-86113666D01*
X124149810Y-85447000D02*
X123959334Y-85542238D01*
X123959334Y-85542238D02*
X123578381Y-85542238D01*
X123578381Y-85542238D02*
X123387905Y-85447000D01*
X123387905Y-85447000D02*
X123292667Y-85351761D01*
X123292667Y-85351761D02*
X123197429Y-85161285D01*
X123197429Y-85161285D02*
X123197429Y-84589857D01*
X123197429Y-84589857D02*
X123292667Y-84399380D01*
X123292667Y-84399380D02*
X123387905Y-84304142D01*
X123387905Y-84304142D02*
X123578381Y-84208904D01*
X123578381Y-84208904D02*
X123959334Y-84208904D01*
X123959334Y-84208904D02*
X124149810Y-84304142D01*
X125102191Y-85542238D02*
X125102191Y-84208904D01*
X125102191Y-84589857D02*
X125197429Y-84399380D01*
X125197429Y-84399380D02*
X125292667Y-84304142D01*
X125292667Y-84304142D02*
X125483143Y-84208904D01*
X125483143Y-84208904D02*
X125673620Y-84208904D01*
X127197429Y-84208904D02*
X127197429Y-85542238D01*
X126340286Y-84208904D02*
X126340286Y-85256523D01*
X126340286Y-85256523D02*
X126435524Y-85447000D01*
X126435524Y-85447000D02*
X126626000Y-85542238D01*
X126626000Y-85542238D02*
X126911715Y-85542238D01*
X126911715Y-85542238D02*
X127102191Y-85447000D01*
X127102191Y-85447000D02*
X127197429Y-85351761D01*
X128149810Y-85542238D02*
X128149810Y-83542238D01*
X128149810Y-84304142D02*
X128340286Y-84208904D01*
X128340286Y-84208904D02*
X128721239Y-84208904D01*
X128721239Y-84208904D02*
X128911715Y-84304142D01*
X128911715Y-84304142D02*
X129006953Y-84399380D01*
X129006953Y-84399380D02*
X129102191Y-84589857D01*
X129102191Y-84589857D02*
X129102191Y-85161285D01*
X129102191Y-85161285D02*
X129006953Y-85351761D01*
X129006953Y-85351761D02*
X128911715Y-85447000D01*
X128911715Y-85447000D02*
X128721239Y-85542238D01*
X128721239Y-85542238D02*
X128340286Y-85542238D01*
X128340286Y-85542238D02*
X128149810Y-85447000D01*
X130721239Y-85447000D02*
X130530763Y-85542238D01*
X130530763Y-85542238D02*
X130149810Y-85542238D01*
X130149810Y-85542238D02*
X129959334Y-85447000D01*
X129959334Y-85447000D02*
X129864096Y-85256523D01*
X129864096Y-85256523D02*
X129864096Y-84494619D01*
X129864096Y-84494619D02*
X129959334Y-84304142D01*
X129959334Y-84304142D02*
X130149810Y-84208904D01*
X130149810Y-84208904D02*
X130530763Y-84208904D01*
X130530763Y-84208904D02*
X130721239Y-84304142D01*
X130721239Y-84304142D02*
X130816477Y-84494619D01*
X130816477Y-84494619D02*
X130816477Y-84685095D01*
X130816477Y-84685095D02*
X129864096Y-84875571D01*
X131673620Y-85542238D02*
X131673620Y-84208904D01*
X131673620Y-84589857D02*
X131768858Y-84399380D01*
X131768858Y-84399380D02*
X131864096Y-84304142D01*
X131864096Y-84304142D02*
X132054572Y-84208904D01*
X132054572Y-84208904D02*
X132245049Y-84208904D01*
X134149810Y-84589857D02*
X134054572Y-84494619D01*
X134054572Y-84494619D02*
X133864096Y-84399380D01*
X133864096Y-84399380D02*
X133673620Y-84399380D01*
X133673620Y-84399380D02*
X133483144Y-84494619D01*
X133483144Y-84494619D02*
X133387905Y-84589857D01*
X133387905Y-84589857D02*
X133292667Y-84780333D01*
X133292667Y-84780333D02*
X133292667Y-84970809D01*
X133292667Y-84970809D02*
X133387905Y-85161285D01*
X133387905Y-85161285D02*
X133483144Y-85256523D01*
X133483144Y-85256523D02*
X133673620Y-85351761D01*
X133673620Y-85351761D02*
X133864096Y-85351761D01*
X133864096Y-85351761D02*
X134054572Y-85256523D01*
X134054572Y-85256523D02*
X134149810Y-85161285D01*
X134149810Y-84399380D02*
X134149810Y-85161285D01*
X134149810Y-85161285D02*
X134245048Y-85256523D01*
X134245048Y-85256523D02*
X134340286Y-85256523D01*
X134340286Y-85256523D02*
X134530763Y-85161285D01*
X134530763Y-85161285D02*
X134626001Y-84970809D01*
X134626001Y-84970809D02*
X134626001Y-84494619D01*
X134626001Y-84494619D02*
X134435525Y-84208904D01*
X134435525Y-84208904D02*
X134149810Y-84018428D01*
X134149810Y-84018428D02*
X133768858Y-83923190D01*
X133768858Y-83923190D02*
X133387905Y-84018428D01*
X133387905Y-84018428D02*
X133102191Y-84208904D01*
X133102191Y-84208904D02*
X132911715Y-84494619D01*
X132911715Y-84494619D02*
X132816477Y-84875571D01*
X132816477Y-84875571D02*
X132911715Y-85256523D01*
X132911715Y-85256523D02*
X133102191Y-85542238D01*
X133102191Y-85542238D02*
X133387905Y-85732714D01*
X133387905Y-85732714D02*
X133768858Y-85827952D01*
X133768858Y-85827952D02*
X134149810Y-85732714D01*
X134149810Y-85732714D02*
X134435525Y-85542238D01*
X136340287Y-84208904D02*
X136340287Y-85827952D01*
X136340287Y-85827952D02*
X136245049Y-86018428D01*
X136245049Y-86018428D02*
X136149811Y-86113666D01*
X136149811Y-86113666D02*
X135959334Y-86208904D01*
X135959334Y-86208904D02*
X135673620Y-86208904D01*
X135673620Y-86208904D02*
X135483144Y-86113666D01*
X136340287Y-85447000D02*
X136149811Y-85542238D01*
X136149811Y-85542238D02*
X135768858Y-85542238D01*
X135768858Y-85542238D02*
X135578382Y-85447000D01*
X135578382Y-85447000D02*
X135483144Y-85351761D01*
X135483144Y-85351761D02*
X135387906Y-85161285D01*
X135387906Y-85161285D02*
X135387906Y-84589857D01*
X135387906Y-84589857D02*
X135483144Y-84399380D01*
X135483144Y-84399380D02*
X135578382Y-84304142D01*
X135578382Y-84304142D02*
X135768858Y-84208904D01*
X135768858Y-84208904D02*
X136149811Y-84208904D01*
X136149811Y-84208904D02*
X136340287Y-84304142D01*
X137292668Y-85542238D02*
X137292668Y-84208904D01*
X137292668Y-84399380D02*
X137387906Y-84304142D01*
X137387906Y-84304142D02*
X137578382Y-84208904D01*
X137578382Y-84208904D02*
X137864097Y-84208904D01*
X137864097Y-84208904D02*
X138054573Y-84304142D01*
X138054573Y-84304142D02*
X138149811Y-84494619D01*
X138149811Y-84494619D02*
X138149811Y-85542238D01*
X138149811Y-84494619D02*
X138245049Y-84304142D01*
X138245049Y-84304142D02*
X138435525Y-84208904D01*
X138435525Y-84208904D02*
X138721239Y-84208904D01*
X138721239Y-84208904D02*
X138911716Y-84304142D01*
X138911716Y-84304142D02*
X139006954Y-84494619D01*
X139006954Y-84494619D02*
X139006954Y-85542238D01*
X140816478Y-85542238D02*
X140816478Y-84494619D01*
X140816478Y-84494619D02*
X140721240Y-84304142D01*
X140721240Y-84304142D02*
X140530764Y-84208904D01*
X140530764Y-84208904D02*
X140149811Y-84208904D01*
X140149811Y-84208904D02*
X139959335Y-84304142D01*
X140816478Y-85447000D02*
X140626002Y-85542238D01*
X140626002Y-85542238D02*
X140149811Y-85542238D01*
X140149811Y-85542238D02*
X139959335Y-85447000D01*
X139959335Y-85447000D02*
X139864097Y-85256523D01*
X139864097Y-85256523D02*
X139864097Y-85066047D01*
X139864097Y-85066047D02*
X139959335Y-84875571D01*
X139959335Y-84875571D02*
X140149811Y-84780333D01*
X140149811Y-84780333D02*
X140626002Y-84780333D01*
X140626002Y-84780333D02*
X140816478Y-84685095D01*
X141768859Y-85542238D02*
X141768859Y-84208904D01*
X141768859Y-83542238D02*
X141673621Y-83637476D01*
X141673621Y-83637476D02*
X141768859Y-83732714D01*
X141768859Y-83732714D02*
X141864097Y-83637476D01*
X141864097Y-83637476D02*
X141768859Y-83542238D01*
X141768859Y-83542238D02*
X141768859Y-83732714D01*
X143006954Y-85542238D02*
X142816478Y-85447000D01*
X142816478Y-85447000D02*
X142721240Y-85256523D01*
X142721240Y-85256523D02*
X142721240Y-83542238D01*
X143768859Y-85351761D02*
X143864097Y-85447000D01*
X143864097Y-85447000D02*
X143768859Y-85542238D01*
X143768859Y-85542238D02*
X143673621Y-85447000D01*
X143673621Y-85447000D02*
X143768859Y-85351761D01*
X143768859Y-85351761D02*
X143768859Y-85542238D01*
X145578383Y-85447000D02*
X145387907Y-85542238D01*
X145387907Y-85542238D02*
X145006954Y-85542238D01*
X145006954Y-85542238D02*
X144816478Y-85447000D01*
X144816478Y-85447000D02*
X144721240Y-85351761D01*
X144721240Y-85351761D02*
X144626002Y-85161285D01*
X144626002Y-85161285D02*
X144626002Y-84589857D01*
X144626002Y-84589857D02*
X144721240Y-84399380D01*
X144721240Y-84399380D02*
X144816478Y-84304142D01*
X144816478Y-84304142D02*
X145006954Y-84208904D01*
X145006954Y-84208904D02*
X145387907Y-84208904D01*
X145387907Y-84208904D02*
X145578383Y-84304142D01*
X146721240Y-85542238D02*
X146530764Y-85447000D01*
X146530764Y-85447000D02*
X146435526Y-85351761D01*
X146435526Y-85351761D02*
X146340288Y-85161285D01*
X146340288Y-85161285D02*
X146340288Y-84589857D01*
X146340288Y-84589857D02*
X146435526Y-84399380D01*
X146435526Y-84399380D02*
X146530764Y-84304142D01*
X146530764Y-84304142D02*
X146721240Y-84208904D01*
X146721240Y-84208904D02*
X147006955Y-84208904D01*
X147006955Y-84208904D02*
X147197431Y-84304142D01*
X147197431Y-84304142D02*
X147292669Y-84399380D01*
X147292669Y-84399380D02*
X147387907Y-84589857D01*
X147387907Y-84589857D02*
X147387907Y-85161285D01*
X147387907Y-85161285D02*
X147292669Y-85351761D01*
X147292669Y-85351761D02*
X147197431Y-85447000D01*
X147197431Y-85447000D02*
X147006955Y-85542238D01*
X147006955Y-85542238D02*
X146721240Y-85542238D01*
X148245050Y-85542238D02*
X148245050Y-84208904D01*
X148245050Y-84399380D02*
X148340288Y-84304142D01*
X148340288Y-84304142D02*
X148530764Y-84208904D01*
X148530764Y-84208904D02*
X148816479Y-84208904D01*
X148816479Y-84208904D02*
X149006955Y-84304142D01*
X149006955Y-84304142D02*
X149102193Y-84494619D01*
X149102193Y-84494619D02*
X149102193Y-85542238D01*
X149102193Y-84494619D02*
X149197431Y-84304142D01*
X149197431Y-84304142D02*
X149387907Y-84208904D01*
X149387907Y-84208904D02*
X149673621Y-84208904D01*
X149673621Y-84208904D02*
X149864098Y-84304142D01*
X149864098Y-84304142D02*
X149959336Y-84494619D01*
X149959336Y-84494619D02*
X149959336Y-85542238D01*
D12*
%TO.C,G\u002A\u002A\u002A*%
G36*
X134791154Y-110069519D02*
G01*
X134791154Y-110448077D01*
X134412596Y-110448077D01*
X134034038Y-110448077D01*
X134034038Y-110069519D01*
X134034038Y-109690961D01*
X134412596Y-109690961D01*
X134791154Y-109690961D01*
X134791154Y-110069519D01*
G37*
G36*
X136305385Y-113855096D02*
G01*
X136305385Y-114233654D01*
X135548269Y-114233654D01*
X134791154Y-114233654D01*
X134791154Y-113855096D01*
X134791154Y-113476538D01*
X135548269Y-113476538D01*
X136305385Y-113476538D01*
X136305385Y-113855096D01*
G37*
G36*
X137062500Y-117640673D02*
G01*
X137062500Y-118019231D01*
X136683942Y-118019231D01*
X136305385Y-118019231D01*
X136305385Y-117640673D01*
X136305385Y-117262115D01*
X136683942Y-117262115D01*
X137062500Y-117262115D01*
X137062500Y-117640673D01*
G37*
G36*
X137819615Y-106283942D02*
G01*
X137819615Y-107419615D01*
X136683942Y-107419615D01*
X135548269Y-107419615D01*
X135548269Y-106283942D01*
X135548269Y-105148269D01*
X136683942Y-105148269D01*
X137819615Y-105148269D01*
X137819615Y-106283942D01*
G37*
G36*
X137819615Y-122940481D02*
G01*
X137819615Y-124076154D01*
X136683942Y-124076154D01*
X135548269Y-124076154D01*
X135548269Y-122940481D01*
X135548269Y-121804808D01*
X136683942Y-121804808D01*
X137819615Y-121804808D01*
X137819615Y-122940481D01*
G37*
G36*
X139333846Y-110069519D02*
G01*
X139333846Y-110448077D01*
X138955288Y-110448077D01*
X138576731Y-110448077D01*
X138576731Y-110069519D01*
X138576731Y-109690961D01*
X138955288Y-109690961D01*
X139333846Y-109690961D01*
X139333846Y-110069519D01*
G37*
G36*
X139333846Y-111583750D02*
G01*
X139333846Y-111962308D01*
X138955288Y-111962308D01*
X138576731Y-111962308D01*
X138576731Y-111583750D01*
X138576731Y-111205192D01*
X138955288Y-111205192D01*
X139333846Y-111205192D01*
X139333846Y-111583750D01*
G37*
G36*
X140848077Y-105526827D02*
G01*
X140848077Y-106662500D01*
X140469519Y-106662500D01*
X140090961Y-106662500D01*
X140090961Y-105526827D01*
X140090961Y-104391154D01*
X140469519Y-104391154D01*
X140848077Y-104391154D01*
X140848077Y-105526827D01*
G37*
G36*
X142362308Y-113097981D02*
G01*
X142362308Y-113476538D01*
X141983750Y-113476538D01*
X141605192Y-113476538D01*
X141605192Y-113097981D01*
X141605192Y-112719423D01*
X141983750Y-112719423D01*
X142362308Y-112719423D01*
X142362308Y-113097981D01*
G37*
G36*
X143876538Y-118397788D02*
G01*
X143876538Y-118776346D01*
X143497981Y-118776346D01*
X143119423Y-118776346D01*
X143119423Y-118397788D01*
X143119423Y-118019231D01*
X143497981Y-118019231D01*
X143876538Y-118019231D01*
X143876538Y-118397788D01*
G37*
G36*
X144633654Y-109312404D02*
G01*
X144633654Y-109690961D01*
X144255096Y-109690961D01*
X143876538Y-109690961D01*
X143876538Y-109312404D01*
X143876538Y-108933846D01*
X144255096Y-108933846D01*
X144633654Y-108933846D01*
X144633654Y-109312404D01*
G37*
G36*
X148419231Y-104391154D02*
G01*
X148419231Y-105148269D01*
X148040673Y-105148269D01*
X147662115Y-105148269D01*
X147662115Y-104391154D01*
X147662115Y-103634038D01*
X148040673Y-103634038D01*
X148419231Y-103634038D01*
X148419231Y-104391154D01*
G37*
G36*
X148419231Y-108555288D02*
G01*
X148419231Y-108933846D01*
X148040673Y-108933846D01*
X147662115Y-108933846D01*
X147662115Y-108555288D01*
X147662115Y-108176731D01*
X148040673Y-108176731D01*
X148419231Y-108176731D01*
X148419231Y-108555288D01*
G37*
G36*
X148419231Y-118397788D02*
G01*
X148419231Y-118776346D01*
X148040673Y-118776346D01*
X147662115Y-118776346D01*
X147662115Y-118397788D01*
X147662115Y-118019231D01*
X148040673Y-118019231D01*
X148419231Y-118019231D01*
X148419231Y-118397788D01*
G37*
G36*
X151447692Y-120669135D02*
G01*
X151447692Y-121047692D01*
X151069135Y-121047692D01*
X150690577Y-121047692D01*
X150690577Y-120669135D01*
X150690577Y-120290577D01*
X151069135Y-120290577D01*
X151447692Y-120290577D01*
X151447692Y-120669135D01*
G37*
G36*
X153719038Y-112340865D02*
G01*
X153719038Y-112719423D01*
X153340481Y-112719423D01*
X152961923Y-112719423D01*
X152961923Y-112340865D01*
X152961923Y-111962308D01*
X153340481Y-111962308D01*
X153719038Y-111962308D01*
X153719038Y-112340865D01*
G37*
G36*
X154476154Y-106283942D02*
G01*
X154476154Y-107419615D01*
X153340481Y-107419615D01*
X152204808Y-107419615D01*
X152204808Y-106283942D01*
X152204808Y-105148269D01*
X153340481Y-105148269D01*
X154476154Y-105148269D01*
X154476154Y-106283942D01*
G37*
G36*
X155233269Y-121426250D02*
G01*
X155233269Y-121804808D01*
X154854711Y-121804808D01*
X154476154Y-121804808D01*
X154476154Y-121426250D01*
X154476154Y-121047692D01*
X154854711Y-121047692D01*
X155233269Y-121047692D01*
X155233269Y-121426250D01*
G37*
G36*
X155990385Y-115369327D02*
G01*
X155990385Y-115747885D01*
X155611827Y-115747885D01*
X155233269Y-115747885D01*
X155233269Y-115369327D01*
X155233269Y-114990769D01*
X155611827Y-114990769D01*
X155990385Y-114990769D01*
X155990385Y-115369327D01*
G37*
G36*
X155990385Y-124454711D02*
G01*
X155990385Y-124833269D01*
X155611827Y-124833269D01*
X155233269Y-124833269D01*
X155233269Y-124454711D01*
X155233269Y-124076154D01*
X155611827Y-124076154D01*
X155990385Y-124076154D01*
X155990385Y-124454711D01*
G37*
G36*
X140090961Y-112719423D02*
G01*
X140090961Y-113476538D01*
X139333846Y-113476538D01*
X138576731Y-113476538D01*
X138576731Y-113097981D01*
X138576731Y-112719423D01*
X138955288Y-112719423D01*
X139333846Y-112719423D01*
X139333846Y-112340865D01*
X139333846Y-111962308D01*
X139712404Y-111962308D01*
X140090961Y-111962308D01*
X140090961Y-112719423D01*
G37*
G36*
X146147885Y-110069519D02*
G01*
X146147885Y-110448077D01*
X145769327Y-110448077D01*
X145390769Y-110448077D01*
X145390769Y-110826635D01*
X145390769Y-111205192D01*
X145012211Y-111205192D01*
X144633654Y-111205192D01*
X144633654Y-110448077D01*
X144633654Y-109690961D01*
X145390769Y-109690961D01*
X146147885Y-109690961D01*
X146147885Y-110069519D01*
G37*
G36*
X147662115Y-107798173D02*
G01*
X147662115Y-108176731D01*
X147283558Y-108176731D01*
X146905000Y-108176731D01*
X146905000Y-108555288D01*
X146905000Y-108933846D01*
X146526442Y-108933846D01*
X146147885Y-108933846D01*
X146147885Y-108176731D01*
X146147885Y-107419615D01*
X146905000Y-107419615D01*
X147662115Y-107419615D01*
X147662115Y-107798173D01*
G37*
G36*
X146147885Y-124454711D02*
G01*
X146147885Y-124833269D01*
X145012211Y-124833269D01*
X143876538Y-124833269D01*
X143876538Y-125211827D01*
X143876538Y-125590385D01*
X143497981Y-125590385D01*
X143119423Y-125590385D01*
X143119423Y-125211827D01*
X143119423Y-124833269D01*
X143497981Y-124833269D01*
X143876538Y-124833269D01*
X143876538Y-124454711D01*
X143876538Y-124076154D01*
X145012211Y-124076154D01*
X146147885Y-124076154D01*
X146147885Y-124454711D01*
G37*
G36*
X139333846Y-106283942D02*
G01*
X139333846Y-108933846D01*
X136683942Y-108933846D01*
X134034038Y-108933846D01*
X134034038Y-108176731D01*
X134791154Y-108176731D01*
X136683942Y-108176731D01*
X138576731Y-108176731D01*
X138576731Y-106283942D01*
X138576731Y-104391154D01*
X136683942Y-104391154D01*
X134791154Y-104391154D01*
X134791154Y-106283942D01*
X134791154Y-108176731D01*
X134034038Y-108176731D01*
X134034038Y-106283942D01*
X134034038Y-103634038D01*
X136683942Y-103634038D01*
X139333846Y-103634038D01*
X139333846Y-106283942D01*
G37*
G36*
X139333846Y-122940481D02*
G01*
X139333846Y-125590385D01*
X136683942Y-125590385D01*
X134034038Y-125590385D01*
X134034038Y-124833269D01*
X134791154Y-124833269D01*
X136683942Y-124833269D01*
X138576731Y-124833269D01*
X138576731Y-122940481D01*
X138576731Y-121047692D01*
X136683942Y-121047692D01*
X134791154Y-121047692D01*
X134791154Y-122940481D01*
X134791154Y-124833269D01*
X134034038Y-124833269D01*
X134034038Y-122940481D01*
X134034038Y-120290577D01*
X136683942Y-120290577D01*
X139333846Y-120290577D01*
X139333846Y-122940481D01*
G37*
G36*
X155990385Y-106283942D02*
G01*
X155990385Y-108933846D01*
X153340481Y-108933846D01*
X150690577Y-108933846D01*
X150690577Y-108176731D01*
X151447692Y-108176731D01*
X153340481Y-108176731D01*
X155233269Y-108176731D01*
X155233269Y-106283942D01*
X155233269Y-104391154D01*
X153340481Y-104391154D01*
X151447692Y-104391154D01*
X151447692Y-106283942D01*
X151447692Y-108176731D01*
X150690577Y-108176731D01*
X150690577Y-106283942D01*
X150690577Y-103634038D01*
X153340481Y-103634038D01*
X155990385Y-103634038D01*
X155990385Y-106283942D01*
G37*
G36*
X143876538Y-110826635D02*
G01*
X143876538Y-111205192D01*
X143497981Y-111205192D01*
X143119423Y-111205192D01*
X143119423Y-111583750D01*
X143119423Y-111962308D01*
X143497981Y-111962308D01*
X143876538Y-111962308D01*
X143876538Y-112340865D01*
X143876538Y-112719423D01*
X143119423Y-112719423D01*
X142362308Y-112719423D01*
X142362308Y-112340865D01*
X142362308Y-111962308D01*
X141983750Y-111962308D01*
X141605192Y-111962308D01*
X141605192Y-112340865D01*
X141605192Y-112719423D01*
X141226635Y-112719423D01*
X140848077Y-112719423D01*
X140848077Y-112340865D01*
X140848077Y-111962308D01*
X141226635Y-111962308D01*
X141605192Y-111962308D01*
X141605192Y-111583750D01*
X141605192Y-111205192D01*
X142362308Y-111205192D01*
X143119423Y-111205192D01*
X143119423Y-110826635D01*
X143119423Y-110448077D01*
X143497981Y-110448077D01*
X143876538Y-110448077D01*
X143876538Y-110826635D01*
G37*
G36*
X135548269Y-110826635D02*
G01*
X135548269Y-111205192D01*
X135926827Y-111205192D01*
X136305385Y-111205192D01*
X136305385Y-110826635D01*
X136305385Y-110448077D01*
X137062500Y-110448077D01*
X137819615Y-110448077D01*
X137819615Y-111962308D01*
X137819615Y-113476538D01*
X137441058Y-113476538D01*
X137062500Y-113476538D01*
X137062500Y-113097981D01*
X137062500Y-112719423D01*
X135548269Y-112719423D01*
X134034038Y-112719423D01*
X134034038Y-112340865D01*
X134034038Y-111962308D01*
X134412596Y-111962308D01*
X134791154Y-111962308D01*
X136305385Y-111962308D01*
X136683942Y-111962308D01*
X137062500Y-111962308D01*
X137062500Y-111583750D01*
X137062500Y-111205192D01*
X136683942Y-111205192D01*
X136305385Y-111205192D01*
X136305385Y-111583750D01*
X136305385Y-111962308D01*
X134791154Y-111962308D01*
X134791154Y-111583750D01*
X134791154Y-111205192D01*
X134791154Y-110448077D01*
X135169711Y-110448077D01*
X135548269Y-110448077D01*
X135548269Y-110826635D01*
G37*
G36*
X151447692Y-110069519D02*
G01*
X151447692Y-110448077D01*
X152204808Y-110448077D01*
X152961923Y-110448077D01*
X152961923Y-110069519D01*
X152961923Y-109690961D01*
X154097596Y-109690961D01*
X155233269Y-109690961D01*
X155233269Y-110448077D01*
X155233269Y-111205192D01*
X154476154Y-111205192D01*
X153719038Y-111205192D01*
X153719038Y-110826635D01*
X153719038Y-110448077D01*
X153340481Y-110448077D01*
X152961923Y-110448077D01*
X152961923Y-111205192D01*
X152961923Y-111962308D01*
X152583365Y-111962308D01*
X152204808Y-111962308D01*
X152204808Y-111583750D01*
X152204808Y-111205192D01*
X151826250Y-111205192D01*
X151447692Y-111205192D01*
X151447692Y-110826635D01*
X151447692Y-110448077D01*
X151069135Y-110448077D01*
X150690577Y-110448077D01*
X150690577Y-110826635D01*
X150690577Y-111205192D01*
X150312019Y-111205192D01*
X149933461Y-111205192D01*
X149933461Y-110448077D01*
X149933461Y-109690961D01*
X150690577Y-109690961D01*
X151447692Y-109690961D01*
X151447692Y-110069519D01*
G37*
G36*
X146147885Y-104391154D02*
G01*
X146147885Y-105148269D01*
X145769327Y-105148269D01*
X145390769Y-105148269D01*
X145390769Y-105526827D01*
X145390769Y-105905385D01*
X145769327Y-105905385D01*
X146147885Y-105905385D01*
X146147885Y-105526827D01*
X146147885Y-105148269D01*
X146526442Y-105148269D01*
X146905000Y-105148269D01*
X146905000Y-105526827D01*
X146905000Y-105905385D01*
X146526442Y-105905385D01*
X146147885Y-105905385D01*
X146147885Y-106662500D01*
X146147885Y-107419615D01*
X145769327Y-107419615D01*
X145390769Y-107419615D01*
X145390769Y-108176731D01*
X145390769Y-108933846D01*
X145012211Y-108933846D01*
X144633654Y-108933846D01*
X144633654Y-108555288D01*
X144633654Y-108176731D01*
X144255096Y-108176731D01*
X143876538Y-108176731D01*
X143876538Y-108555288D01*
X143876538Y-108933846D01*
X143497981Y-108933846D01*
X143119423Y-108933846D01*
X143119423Y-108555288D01*
X143119423Y-108176731D01*
X142740865Y-108176731D01*
X142362308Y-108176731D01*
X142362308Y-108933846D01*
X142362308Y-109690961D01*
X142740865Y-109690961D01*
X143119423Y-109690961D01*
X143119423Y-110069519D01*
X143119423Y-110448077D01*
X141983750Y-110448077D01*
X140848077Y-110448077D01*
X140848077Y-110826635D01*
X140848077Y-111205192D01*
X140469519Y-111205192D01*
X140090961Y-111205192D01*
X140090961Y-109690961D01*
X140090961Y-108176731D01*
X140469519Y-108176731D01*
X140848077Y-108176731D01*
X140848077Y-108933846D01*
X140848077Y-109690961D01*
X141226635Y-109690961D01*
X141605192Y-109690961D01*
X141605192Y-108933846D01*
X141605192Y-108176731D01*
X141983750Y-108176731D01*
X142362308Y-108176731D01*
X142362308Y-107798173D01*
X142362308Y-107419615D01*
X142740865Y-107419615D01*
X143119423Y-107419615D01*
X143119423Y-107041058D01*
X143119423Y-106662500D01*
X142740865Y-106662500D01*
X142362308Y-106662500D01*
X142362308Y-107041058D01*
X142362308Y-107419615D01*
X141983750Y-107419615D01*
X141605192Y-107419615D01*
X141605192Y-107041058D01*
X141605192Y-106662500D01*
X141605192Y-105905385D01*
X141983750Y-105905385D01*
X142362308Y-105905385D01*
X142362308Y-105148269D01*
X143119423Y-105148269D01*
X143497981Y-105148269D01*
X143876538Y-105148269D01*
X143876538Y-105905385D01*
X143876538Y-106662500D01*
X144255096Y-106662500D01*
X144633654Y-106662500D01*
X144633654Y-105905385D01*
X144633654Y-105148269D01*
X145012211Y-105148269D01*
X145390769Y-105148269D01*
X145390769Y-104769711D01*
X145390769Y-104391154D01*
X144255096Y-104391154D01*
X143119423Y-104391154D01*
X143119423Y-104769711D01*
X143119423Y-105148269D01*
X142362308Y-105148269D01*
X142362308Y-104769711D01*
X142362308Y-104391154D01*
X142740865Y-104391154D01*
X143119423Y-104391154D01*
X143119423Y-104012596D01*
X143119423Y-103634038D01*
X144633654Y-103634038D01*
X146147885Y-103634038D01*
X146147885Y-104391154D01*
G37*
G36*
X149933461Y-107419615D02*
G01*
X149933461Y-109690961D01*
X149554904Y-109690961D01*
X149176346Y-109690961D01*
X149176346Y-110448077D01*
X149176346Y-111205192D01*
X148419231Y-111205192D01*
X147662115Y-111205192D01*
X147662115Y-111583750D01*
X147662115Y-111962308D01*
X147283558Y-111962308D01*
X146905000Y-111962308D01*
X146905000Y-112340865D01*
X146905000Y-112719423D01*
X146147885Y-112719423D01*
X145390769Y-112719423D01*
X145390769Y-113476538D01*
X145390769Y-114233654D01*
X146147885Y-114233654D01*
X146905000Y-114233654D01*
X146905000Y-113855096D01*
X146905000Y-113476538D01*
X147662115Y-113476538D01*
X148419231Y-113476538D01*
X148419231Y-113855096D01*
X148419231Y-114233654D01*
X147662115Y-114233654D01*
X146905000Y-114233654D01*
X146905000Y-114990769D01*
X146905000Y-115747885D01*
X147283558Y-115747885D01*
X147662115Y-115747885D01*
X147662115Y-115369327D01*
X147662115Y-114990769D01*
X148419231Y-114990769D01*
X149176346Y-114990769D01*
X149176346Y-113476538D01*
X149176346Y-111962308D01*
X149933461Y-111962308D01*
X150690577Y-111962308D01*
X150690577Y-112340865D01*
X150690577Y-112719423D01*
X150312019Y-112719423D01*
X149933461Y-112719423D01*
X149933461Y-113476538D01*
X149933461Y-114233654D01*
X150312019Y-114233654D01*
X150690577Y-114233654D01*
X150690577Y-113476538D01*
X150690577Y-112719423D01*
X151447692Y-112719423D01*
X152204808Y-112719423D01*
X152204808Y-113097981D01*
X152204808Y-113476538D01*
X152583365Y-113476538D01*
X152961923Y-113476538D01*
X152961923Y-113855096D01*
X152961923Y-114233654D01*
X153719038Y-114233654D01*
X154476154Y-114233654D01*
X154476154Y-113855096D01*
X154476154Y-113476538D01*
X154854711Y-113476538D01*
X155233269Y-113476538D01*
X155233269Y-113097981D01*
X155233269Y-112719423D01*
X155611827Y-112719423D01*
X155990385Y-112719423D01*
X155990385Y-113476538D01*
X155990385Y-114233654D01*
X155233269Y-114233654D01*
X154476154Y-114233654D01*
X154476154Y-115369327D01*
X154476154Y-116505000D01*
X155233269Y-116505000D01*
X155990385Y-116505000D01*
X155990385Y-117262115D01*
X155990385Y-118019231D01*
X155611827Y-118019231D01*
X155233269Y-118019231D01*
X155233269Y-117640673D01*
X155233269Y-117262115D01*
X154476154Y-117262115D01*
X153719038Y-117262115D01*
X153719038Y-117640673D01*
X153719038Y-118019231D01*
X152961923Y-118019231D01*
X152204808Y-118019231D01*
X152204808Y-117640673D01*
X152204808Y-117262115D01*
X152961923Y-117262115D01*
X153340481Y-117262115D01*
X153719038Y-117262115D01*
X153719038Y-116883558D01*
X153719038Y-116505000D01*
X153340481Y-116505000D01*
X152961923Y-116505000D01*
X152961923Y-116883558D01*
X152961923Y-117262115D01*
X152204808Y-117262115D01*
X151447692Y-117262115D01*
X150690577Y-117262115D01*
X150690577Y-116883558D01*
X150690577Y-116505000D01*
X150312019Y-116505000D01*
X149933461Y-116505000D01*
X149933461Y-116126442D01*
X149933461Y-115747885D01*
X150312019Y-115747885D01*
X150690577Y-115747885D01*
X150690577Y-116126442D01*
X150690577Y-116505000D01*
X151069135Y-116505000D01*
X151447692Y-116505000D01*
X151447692Y-116126442D01*
X152204808Y-116126442D01*
X152204808Y-116505000D01*
X152583365Y-116505000D01*
X152961923Y-116505000D01*
X152961923Y-116126442D01*
X152961923Y-115747885D01*
X153340481Y-115747885D01*
X153719038Y-115747885D01*
X153719038Y-115369327D01*
X153719038Y-114990769D01*
X153340481Y-114990769D01*
X152961923Y-114990769D01*
X152961923Y-115369327D01*
X152961923Y-115747885D01*
X152583365Y-115747885D01*
X152204808Y-115747885D01*
X152204808Y-116126442D01*
X151447692Y-116126442D01*
X151447692Y-115747885D01*
X151447692Y-114990769D01*
X151826250Y-114990769D01*
X152204808Y-114990769D01*
X152204808Y-114612211D01*
X152204808Y-114233654D01*
X151447692Y-114233654D01*
X150690577Y-114233654D01*
X150690577Y-114612211D01*
X150690577Y-114990769D01*
X149933461Y-114990769D01*
X149176346Y-114990769D01*
X149176346Y-116505000D01*
X149176346Y-118019231D01*
X148797788Y-118019231D01*
X148419231Y-118019231D01*
X148419231Y-117640673D01*
X148419231Y-117262115D01*
X148040673Y-117262115D01*
X147662115Y-117262115D01*
X147662115Y-117640673D01*
X147662115Y-118019231D01*
X147283558Y-118019231D01*
X146905000Y-118019231D01*
X146905000Y-118397788D01*
X146905000Y-118776346D01*
X147283558Y-118776346D01*
X147662115Y-118776346D01*
X147662115Y-119154904D01*
X147662115Y-119533461D01*
X148040673Y-119533461D01*
X148419231Y-119533461D01*
X148419231Y-119154904D01*
X148419231Y-118776346D01*
X148797788Y-118776346D01*
X149176346Y-118776346D01*
X149176346Y-118397788D01*
X149176346Y-118019231D01*
X149554904Y-118019231D01*
X149933461Y-118019231D01*
X149933461Y-118397788D01*
X149933461Y-118776346D01*
X150312019Y-118776346D01*
X150690577Y-118776346D01*
X150690577Y-118397788D01*
X150690577Y-118019231D01*
X151069135Y-118019231D01*
X151447692Y-118019231D01*
X151447692Y-118397788D01*
X151447692Y-118776346D01*
X152204808Y-118776346D01*
X152961923Y-118776346D01*
X152961923Y-119154904D01*
X152961923Y-119533461D01*
X153340481Y-119533461D01*
X153719038Y-119533461D01*
X153719038Y-119154904D01*
X153719038Y-118776346D01*
X154854711Y-118776346D01*
X155990385Y-118776346D01*
X155990385Y-119154904D01*
X155990385Y-119533461D01*
X154854711Y-119533461D01*
X153719038Y-119533461D01*
X153719038Y-119912019D01*
X153719038Y-120290577D01*
X154097596Y-120290577D01*
X154476154Y-120290577D01*
X154476154Y-120669135D01*
X154476154Y-121047692D01*
X153719038Y-121047692D01*
X152961923Y-121047692D01*
X152961923Y-121426250D01*
X152961923Y-121804808D01*
X153340481Y-121804808D01*
X153719038Y-121804808D01*
X153719038Y-122183365D01*
X153719038Y-122561923D01*
X154476154Y-122561923D01*
X155233269Y-122561923D01*
X155233269Y-123319038D01*
X155233269Y-124076154D01*
X154854711Y-124076154D01*
X154476154Y-124076154D01*
X154476154Y-124833269D01*
X154476154Y-125590385D01*
X154097596Y-125590385D01*
X153719038Y-125590385D01*
X153719038Y-125211827D01*
X153719038Y-124833269D01*
X153340481Y-124833269D01*
X152961923Y-124833269D01*
X152961923Y-125211827D01*
X152961923Y-125590385D01*
X151826250Y-125590385D01*
X150690577Y-125590385D01*
X150690577Y-124833269D01*
X152204808Y-124833269D01*
X152583365Y-124833269D01*
X152961923Y-124833269D01*
X152961923Y-124454711D01*
X152961923Y-124076154D01*
X152583365Y-124076154D01*
X152204808Y-124076154D01*
X152204808Y-124454711D01*
X152204808Y-124833269D01*
X150690577Y-124833269D01*
X150690577Y-124454711D01*
X150690577Y-124076154D01*
X149554904Y-124076154D01*
X148419231Y-124076154D01*
X148419231Y-124454711D01*
X148419231Y-124833269D01*
X148797788Y-124833269D01*
X149176346Y-124833269D01*
X149176346Y-125211827D01*
X149176346Y-125590385D01*
X148419231Y-125590385D01*
X147662115Y-125590385D01*
X147662115Y-124833269D01*
X147662115Y-124076154D01*
X148040673Y-124076154D01*
X148419231Y-124076154D01*
X148419231Y-123697596D01*
X148419231Y-123319038D01*
X150690577Y-123319038D01*
X151826250Y-123319038D01*
X152961923Y-123319038D01*
X152961923Y-122940481D01*
X152961923Y-122561923D01*
X151826250Y-122561923D01*
X150690577Y-122561923D01*
X150690577Y-122940481D01*
X150690577Y-123319038D01*
X148419231Y-123319038D01*
X148040673Y-123319038D01*
X147662115Y-123319038D01*
X147662115Y-123697596D01*
X147662115Y-124076154D01*
X147283558Y-124076154D01*
X146905000Y-124076154D01*
X146905000Y-123697596D01*
X146905000Y-123319038D01*
X146526442Y-123319038D01*
X146147885Y-123319038D01*
X146147885Y-122940481D01*
X146147885Y-122561923D01*
X145769327Y-122561923D01*
X145390769Y-122561923D01*
X145390769Y-122183365D01*
X145390769Y-121804808D01*
X146147885Y-121804808D01*
X146905000Y-121804808D01*
X146905000Y-122183365D01*
X146905000Y-122561923D01*
X147662115Y-122561923D01*
X148419231Y-122561923D01*
X148419231Y-121804808D01*
X149933461Y-121804808D01*
X151069135Y-121804808D01*
X152204808Y-121804808D01*
X152204808Y-120669135D01*
X152204808Y-119533461D01*
X151069135Y-119533461D01*
X149933461Y-119533461D01*
X149933461Y-120669135D01*
X149933461Y-121804808D01*
X148419231Y-121804808D01*
X148419231Y-121426250D01*
X148419231Y-120669135D01*
X148419231Y-120290577D01*
X148797788Y-120290577D01*
X149176346Y-120290577D01*
X149176346Y-119912019D01*
X149176346Y-119533461D01*
X148797788Y-119533461D01*
X148419231Y-119533461D01*
X148419231Y-119912019D01*
X148419231Y-120290577D01*
X148040673Y-120290577D01*
X147662115Y-120290577D01*
X147662115Y-119912019D01*
X147662115Y-119533461D01*
X147283558Y-119533461D01*
X146905000Y-119533461D01*
X146905000Y-120290577D01*
X146905000Y-121047692D01*
X145769327Y-121047692D01*
X144633654Y-121047692D01*
X144633654Y-122183365D01*
X144633654Y-123319038D01*
X143876538Y-123319038D01*
X143119423Y-123319038D01*
X143119423Y-122940481D01*
X143119423Y-122561923D01*
X142740865Y-122561923D01*
X142362308Y-122561923D01*
X142362308Y-123697596D01*
X142362308Y-124833269D01*
X141605192Y-124833269D01*
X140848077Y-124833269D01*
X140848077Y-125211827D01*
X140848077Y-125590385D01*
X140469519Y-125590385D01*
X140090961Y-125590385D01*
X140090961Y-125211827D01*
X140090961Y-124833269D01*
X140469519Y-124833269D01*
X140848077Y-124833269D01*
X140848077Y-124454711D01*
X140848077Y-124076154D01*
X141226635Y-124076154D01*
X141605192Y-124076154D01*
X141605192Y-123697596D01*
X141605192Y-123319038D01*
X141226635Y-123319038D01*
X140848077Y-123319038D01*
X140848077Y-122183365D01*
X140848077Y-121047692D01*
X141983750Y-121047692D01*
X143119423Y-121047692D01*
X143119423Y-121804808D01*
X143119423Y-122561923D01*
X143497981Y-122561923D01*
X143876538Y-122561923D01*
X143876538Y-121426250D01*
X143876538Y-120290577D01*
X143497981Y-120290577D01*
X143119423Y-120290577D01*
X143119423Y-119912019D01*
X143119423Y-119533461D01*
X143876538Y-119533461D01*
X144633654Y-119533461D01*
X144633654Y-119912019D01*
X144633654Y-120290577D01*
X145390769Y-120290577D01*
X146147885Y-120290577D01*
X146147885Y-119533461D01*
X146147885Y-118776346D01*
X145390769Y-118776346D01*
X144633654Y-118776346D01*
X144633654Y-118397788D01*
X144633654Y-118019231D01*
X144255096Y-118019231D01*
X143876538Y-118019231D01*
X143876538Y-117640673D01*
X143876538Y-117262115D01*
X144633654Y-117262115D01*
X145390769Y-117262115D01*
X145390769Y-117640673D01*
X145390769Y-118019231D01*
X145769327Y-118019231D01*
X146147885Y-118019231D01*
X146147885Y-117262115D01*
X146147885Y-116505000D01*
X146526442Y-116505000D01*
X146905000Y-116505000D01*
X146905000Y-116883558D01*
X146905000Y-117262115D01*
X147283558Y-117262115D01*
X147662115Y-117262115D01*
X147662115Y-116883558D01*
X147662115Y-116505000D01*
X148040673Y-116505000D01*
X148419231Y-116505000D01*
X148419231Y-116126442D01*
X148419231Y-115747885D01*
X148040673Y-115747885D01*
X147662115Y-115747885D01*
X147662115Y-116126442D01*
X147662115Y-116505000D01*
X147283558Y-116505000D01*
X146905000Y-116505000D01*
X146905000Y-116126442D01*
X146905000Y-115747885D01*
X146526442Y-115747885D01*
X146147885Y-115747885D01*
X146147885Y-116126442D01*
X146147885Y-116505000D01*
X145390769Y-116505000D01*
X144633654Y-116505000D01*
X144633654Y-116126442D01*
X144633654Y-115747885D01*
X145390769Y-115747885D01*
X145769327Y-115747885D01*
X146147885Y-115747885D01*
X146147885Y-115369327D01*
X146147885Y-114990769D01*
X145769327Y-114990769D01*
X145390769Y-114990769D01*
X145390769Y-115369327D01*
X145390769Y-115747885D01*
X144633654Y-115747885D01*
X144255096Y-115747885D01*
X143876538Y-115747885D01*
X143876538Y-116505000D01*
X143876538Y-117262115D01*
X143497981Y-117262115D01*
X143119423Y-117262115D01*
X143119423Y-116883558D01*
X143119423Y-116505000D01*
X142740865Y-116505000D01*
X142362308Y-116505000D01*
X142362308Y-117640673D01*
X142362308Y-118776346D01*
X142740865Y-118776346D01*
X143119423Y-118776346D01*
X143119423Y-119154904D01*
X143119423Y-119533461D01*
X142740865Y-119533461D01*
X142362308Y-119533461D01*
X142362308Y-119912019D01*
X142362308Y-120290577D01*
X141983750Y-120290577D01*
X141605192Y-120290577D01*
X141605192Y-119912019D01*
X141605192Y-119533461D01*
X141226635Y-119533461D01*
X140848077Y-119533461D01*
X140848077Y-119912019D01*
X140848077Y-120290577D01*
X140469519Y-120290577D01*
X140090961Y-120290577D01*
X140090961Y-119912019D01*
X140090961Y-119533461D01*
X140469519Y-119533461D01*
X140848077Y-119533461D01*
X140848077Y-119154904D01*
X140848077Y-118776346D01*
X140090961Y-118776346D01*
X139333846Y-118776346D01*
X139333846Y-119154904D01*
X139333846Y-119533461D01*
X138955288Y-119533461D01*
X138576731Y-119533461D01*
X138576731Y-119154904D01*
X138576731Y-118776346D01*
X138955288Y-118776346D01*
X139333846Y-118776346D01*
X139333846Y-118397788D01*
X139333846Y-118019231D01*
X140090961Y-118019231D01*
X140469519Y-118019231D01*
X140848077Y-118019231D01*
X140848077Y-118397788D01*
X140848077Y-118776346D01*
X141226635Y-118776346D01*
X141605192Y-118776346D01*
X141605192Y-117640673D01*
X141605192Y-116505000D01*
X140848077Y-116505000D01*
X140090961Y-116505000D01*
X140090961Y-117262115D01*
X140090961Y-118019231D01*
X139333846Y-118019231D01*
X138955288Y-118019231D01*
X138576731Y-118019231D01*
X138576731Y-118397788D01*
X138576731Y-118776346D01*
X138198173Y-118776346D01*
X137819615Y-118776346D01*
X137819615Y-119154904D01*
X137819615Y-119533461D01*
X137062500Y-119533461D01*
X136305385Y-119533461D01*
X136305385Y-119154904D01*
X136305385Y-118776346D01*
X135926827Y-118776346D01*
X135548269Y-118776346D01*
X135548269Y-118397788D01*
X135548269Y-118019231D01*
X135926827Y-118019231D01*
X136305385Y-118019231D01*
X136305385Y-118397788D01*
X136305385Y-118776346D01*
X137062500Y-118776346D01*
X137819615Y-118776346D01*
X137819615Y-118397788D01*
X137819615Y-117640673D01*
X137819615Y-117262115D01*
X138576731Y-117262115D01*
X138955288Y-117262115D01*
X139333846Y-117262115D01*
X139333846Y-116883558D01*
X139333846Y-116505000D01*
X138955288Y-116505000D01*
X138576731Y-116505000D01*
X138576731Y-116883558D01*
X138576731Y-117262115D01*
X137819615Y-117262115D01*
X137819615Y-116883558D01*
X137819615Y-116505000D01*
X136683942Y-116505000D01*
X135548269Y-116505000D01*
X135548269Y-117262115D01*
X135548269Y-118019231D01*
X135169711Y-118019231D01*
X134791154Y-118019231D01*
X134791154Y-118776346D01*
X134791154Y-119533461D01*
X134412596Y-119533461D01*
X134034038Y-119533461D01*
X134034038Y-117640673D01*
X134034038Y-116505000D01*
X134791154Y-116505000D01*
X135169711Y-116505000D01*
X135548269Y-116505000D01*
X135548269Y-116126442D01*
X135548269Y-115747885D01*
X135169711Y-115747885D01*
X134791154Y-115747885D01*
X134791154Y-116126442D01*
X134791154Y-116505000D01*
X134034038Y-116505000D01*
X134034038Y-116126442D01*
X134034038Y-115747885D01*
X134412596Y-115747885D01*
X134791154Y-115747885D01*
X134791154Y-115369327D01*
X134791154Y-114990769D01*
X135548269Y-114990769D01*
X136305385Y-114990769D01*
X136305385Y-114612211D01*
X136305385Y-114233654D01*
X136683942Y-114233654D01*
X137062500Y-114233654D01*
X137062500Y-114612211D01*
X137062500Y-114990769D01*
X136683942Y-114990769D01*
X136305385Y-114990769D01*
X136305385Y-115369327D01*
X136305385Y-115747885D01*
X137062500Y-115747885D01*
X137819615Y-115747885D01*
X137819615Y-116126442D01*
X137819615Y-116505000D01*
X138198173Y-116505000D01*
X138576731Y-116505000D01*
X138576731Y-116126442D01*
X138576731Y-115747885D01*
X139333846Y-115747885D01*
X140090961Y-115747885D01*
X140090961Y-115369327D01*
X140090961Y-114990769D01*
X139333846Y-114990769D01*
X138576731Y-114990769D01*
X138576731Y-114612211D01*
X138576731Y-114233654D01*
X139333846Y-114233654D01*
X140090961Y-114233654D01*
X140090961Y-114612211D01*
X140090961Y-114990769D01*
X140848077Y-114990769D01*
X141605192Y-114990769D01*
X141605192Y-114612211D01*
X141605192Y-114233654D01*
X141983750Y-114233654D01*
X142362308Y-114233654D01*
X142362308Y-113855096D01*
X142362308Y-113476538D01*
X142740865Y-113476538D01*
X143119423Y-113476538D01*
X143119423Y-114233654D01*
X143119423Y-114990769D01*
X143497981Y-114990769D01*
X143876538Y-114990769D01*
X143876538Y-113855096D01*
X143876538Y-112719423D01*
X144255096Y-112719423D01*
X144633654Y-112719423D01*
X144633654Y-112340865D01*
X144633654Y-111962308D01*
X145769327Y-111962308D01*
X146905000Y-111962308D01*
X146905000Y-110826635D01*
X146905000Y-109690961D01*
X147283558Y-109690961D01*
X147662115Y-109690961D01*
X147662115Y-110069519D01*
X147662115Y-110448077D01*
X148040673Y-110448077D01*
X148419231Y-110448077D01*
X148419231Y-109690961D01*
X148419231Y-108933846D01*
X148797788Y-108933846D01*
X149176346Y-108933846D01*
X149176346Y-108176731D01*
X149176346Y-107419615D01*
X148419231Y-107419615D01*
X147662115Y-107419615D01*
X147662115Y-107041058D01*
X147662115Y-106662500D01*
X147283558Y-106662500D01*
X146905000Y-106662500D01*
X146905000Y-106283942D01*
X146905000Y-105905385D01*
X147283558Y-105905385D01*
X147662115Y-105905385D01*
X147662115Y-106283942D01*
X147662115Y-106662500D01*
X148419231Y-106662500D01*
X149176346Y-106662500D01*
X149176346Y-105905385D01*
X149176346Y-105148269D01*
X149554904Y-105148269D01*
X149933461Y-105148269D01*
X149933461Y-107419615D01*
G37*
%TD*%
M02*
