%TF.GenerationSoftware,KiCad,Pcbnew,10.0.3*%
%TF.CreationDate,2026-10-08T13:37:44-07:00*%
%TF.ProjectId,business_card,62757369-6e65-4737-935f-636172642e6b,rev?*%
%TF.SameCoordinates,Original*%
%TF.FileFunction,Copper,L3,Inr*%
%TF.FilePolarity,Positive*%
%FSLAX46Y46*%
G04 Gerber Fmt 4.6, Leading zero omitted, Abs format (unit mm)*
G04 Created by KiCad (PCBNEW 10.0.3) date 2026-10-08 13:37:44*
%MOMM*%
%LPD*%
G01*
G04 APERTURE LIST*
%TA.AperFunction,ComponentPad*%
%ADD10O,1.750000X1.150000*%
%TD*%
%TA.AperFunction,ViaPad*%
%ADD11C,0.450000*%
%TD*%
%TA.AperFunction,Conductor*%
%ADD12C,0.150000*%
%TD*%
G04 APERTURE END LIST*
D10*
%TO.N,GND*%
%TO.C,J1*%
X61450000Y-81320000D03*
X61450000Y-72680000D03*
X57650000Y-81320000D03*
X57650000Y-72680000D03*
%TD*%
D11*
%TO.N,GND*%
X61500000Y-82500000D03*
X131100000Y-68700000D03*
X119300000Y-82800000D03*
X91800000Y-89700000D03*
X119700000Y-71300000D03*
X117000000Y-115400000D03*
X57700000Y-71700000D03*
X154388979Y-89863711D03*
X65900000Y-75200000D03*
X123400000Y-95400000D03*
X106300000Y-108100000D03*
X91937500Y-103500000D03*
X130300000Y-71200000D03*
X103000000Y-107600000D03*
X118900000Y-85200000D03*
X65500000Y-80200000D03*
X59100000Y-81300000D03*
X119700000Y-85200000D03*
X62600000Y-79700000D03*
X154500000Y-82700000D03*
X82300000Y-76300000D03*
X141900000Y-82800000D03*
X57700000Y-82500000D03*
X99600000Y-89900000D03*
X148795944Y-90395944D03*
X118400000Y-110800000D03*
X60000000Y-81300000D03*
X130300000Y-82800000D03*
X120100000Y-82800000D03*
X56637500Y-108500000D03*
X61500000Y-71800000D03*
X78000000Y-90600000D03*
X61500000Y-73500000D03*
X99200000Y-79000000D03*
X56637500Y-106100000D03*
X60100000Y-72700000D03*
X131100000Y-85200000D03*
X106410000Y-94400000D03*
X57700000Y-80200000D03*
X115050000Y-108950000D03*
X56937500Y-105000000D03*
X142700000Y-71200000D03*
X88700000Y-69100000D03*
X56100000Y-81300000D03*
X151688979Y-88563711D03*
X131100000Y-82800000D03*
X100200000Y-77700000D03*
X154500000Y-85300000D03*
X59000000Y-72700000D03*
X57400000Y-91000000D03*
X60300000Y-74200000D03*
X153600000Y-71200000D03*
X111500000Y-72500000D03*
X104800000Y-113000000D03*
X113000000Y-111300000D03*
X141900000Y-85200000D03*
X127400000Y-88400000D03*
X118900000Y-71300000D03*
X62700000Y-72700000D03*
X141900000Y-68700000D03*
X101800000Y-111000000D03*
X80600000Y-83400000D03*
X118900000Y-68700000D03*
X142700000Y-85200000D03*
X154400000Y-71200000D03*
X101800000Y-109900000D03*
X56637500Y-107300000D03*
X130300000Y-68700000D03*
X130000000Y-89600000D03*
X130300000Y-85200000D03*
X154400000Y-68700000D03*
X131100000Y-71200000D03*
X105800000Y-87700000D03*
X65000000Y-77000000D03*
X153700000Y-85300000D03*
X153700000Y-82700000D03*
X141900000Y-71200000D03*
X57937500Y-104900000D03*
X147500000Y-95600000D03*
X60200000Y-79800000D03*
X92700000Y-87500000D03*
X112900000Y-115000000D03*
X65900000Y-78700000D03*
X89000000Y-91200000D03*
X81900000Y-79300000D03*
X65500000Y-73700000D03*
X58537500Y-104900000D03*
X111600000Y-80500000D03*
X80700000Y-76500000D03*
X99300000Y-70900000D03*
X58237500Y-109700000D03*
X62900000Y-81300000D03*
X104200000Y-105900000D03*
X153600000Y-68700000D03*
X142700000Y-82800000D03*
X57700000Y-73700000D03*
X56400000Y-72700000D03*
X56637500Y-106700000D03*
X62600000Y-74200000D03*
X88100000Y-78100000D03*
X100500000Y-73900000D03*
X56937500Y-109600000D03*
X119700000Y-68700000D03*
X142700000Y-68700000D03*
%TO.N,Net-(LED4-G)*%
X123300000Y-71300000D03*
X120600000Y-90700000D03*
%TO.N,+5V*%
X118200000Y-116400000D03*
X128500000Y-89400000D03*
X60600000Y-75200000D03*
X116900000Y-112400000D03*
X158600000Y-107900000D03*
X57400000Y-85500000D03*
X151900000Y-92180000D03*
X63500000Y-80900000D03*
X108700000Y-80500000D03*
X154688979Y-91463711D03*
X107700000Y-90700000D03*
X97800000Y-70900000D03*
X151200000Y-91200000D03*
X84200000Y-77600000D03*
X114500000Y-110200000D03*
X152788979Y-89563711D03*
X90600000Y-89600000D03*
X63500000Y-73100000D03*
X85600000Y-84300000D03*
X124384763Y-90531179D03*
X62600000Y-78600000D03*
X62600000Y-75300000D03*
X126900000Y-91200000D03*
X78000000Y-71300000D03*
X60600000Y-78700000D03*
X127700000Y-91900000D03*
X82555528Y-79044472D03*
X87300000Y-82600000D03*
X60600000Y-75700000D03*
X60600000Y-78200000D03*
X108700000Y-72500000D03*
X112300000Y-100600000D03*
X103200000Y-88000000D03*
%TO.N,RTC_CLK*%
X82100000Y-81900000D03*
%TO.N,I2C.SCL*%
X106300000Y-105000000D03*
X91600000Y-87300000D03*
X124740000Y-90061179D03*
X149300000Y-90000000D03*
X84968628Y-82631372D03*
%TO.N,I2C.SDA*%
X90500000Y-88400000D03*
X124500000Y-89400000D03*
X149400000Y-88900000D03*
X105700000Y-104500000D03*
X85500000Y-82000000D03*
%TO.N,Net-(LED4-E)*%
X123300000Y-85300000D03*
X121800000Y-89100000D03*
%TO.N,Net-(LED4-D)*%
X122400000Y-88300000D03*
X121400000Y-85300000D03*
%TO.N,Net-(LED4-C-Pad4)*%
X120100000Y-95600000D03*
X117600000Y-85400000D03*
%TO.N,Net-(LED4-DP)*%
X119900000Y-91400000D03*
X115700000Y-85400000D03*
%TO.N,Net-(LED4-B)*%
X115700000Y-71300000D03*
X120800000Y-96300000D03*
%TO.N,Net-(LED4-A)*%
X117600000Y-71300000D03*
X121500000Y-97000000D03*
%TO.N,Net-(LED4-F)*%
X121400000Y-71300000D03*
X121300000Y-90000000D03*
%TO.N,Net-(LED1-D)*%
X152200000Y-98000000D03*
X156100000Y-85200000D03*
%TO.N,Net-(LED2-B)*%
X138700000Y-71200000D03*
X144700000Y-96300000D03*
%TO.N,Net-(LED3-F)*%
X127000000Y-98700000D03*
X132800000Y-71200000D03*
%TO.N,Net-(LED3-B)*%
X127100000Y-71200000D03*
X130200000Y-95900000D03*
%TO.N,Net-(LED2-E)*%
X146300000Y-85200000D03*
X144900000Y-90600000D03*
%TO.N,Net-(LED2-D)*%
X144400000Y-85200000D03*
X144200000Y-91300000D03*
%TO.N,Net-(LED2-C-Pad4)*%
X140600000Y-85200000D03*
X144100000Y-95400000D03*
%TO.N,Net-(LED2-DP)*%
X147100000Y-88300000D03*
X138700000Y-85200000D03*
%TO.N,Net-(LED2-A)*%
X140600000Y-71200000D03*
X145500000Y-96800000D03*
%TO.N,Net-(LED2-F)*%
X145600000Y-89800000D03*
X144400000Y-71200000D03*
%TO.N,Net-(LED2-G)*%
X146400000Y-89100000D03*
X146300000Y-71200000D03*
%TO.N,+BATT*%
X90837500Y-106900000D03*
X90837500Y-105900000D03*
X90837500Y-107400000D03*
X106950000Y-106550000D03*
X105400000Y-111300000D03*
X90837500Y-108400000D03*
X90837500Y-107900000D03*
X112400000Y-113000000D03*
X90837500Y-106400000D03*
X90837500Y-108900000D03*
%TO.N,Net-(LED3-E)*%
X127700000Y-98000000D03*
X134700000Y-85200000D03*
%TO.N,Net-(LED1-E)*%
X151500000Y-98700000D03*
X158000000Y-85200000D03*
%TO.N,Net-(LED1-C-Pad4)*%
X152300000Y-85200000D03*
X152900000Y-97300000D03*
%TO.N,Net-(LED1-DP)*%
X146300000Y-97600000D03*
X150300000Y-85300000D03*
%TO.N,Net-(LED1-B)*%
X150400000Y-71200000D03*
X153600000Y-96600000D03*
%TO.N,Net-(LED1-A)*%
X154300000Y-95900000D03*
X152300000Y-71200000D03*
%TO.N,Net-(LED1-F)*%
X156100000Y-71200000D03*
X150800000Y-99400000D03*
%TO.N,Net-(LED1-G)*%
X147000000Y-98400000D03*
X158000000Y-71200000D03*
%TO.N,Net-(LED3-D)*%
X128400000Y-97300000D03*
X132800000Y-85200000D03*
%TO.N,Net-(LED3-C-Pad4)*%
X129000000Y-85200000D03*
X128900000Y-96700000D03*
%TO.N,Net-(LED3-DP)*%
X122200000Y-97700000D03*
X127100000Y-85300000D03*
%TO.N,Net-(LED3-A)*%
X129000000Y-71200000D03*
X130500000Y-95200000D03*
%TO.N,Net-(LED3-G)*%
X134700000Y-71200000D03*
X122900000Y-98400000D03*
%TO.N,/MCU/MODE*%
X87200000Y-77500000D03*
X98710000Y-91810000D03*
%TD*%
%TO.N,I2C.SCL*%
D12*
X128061179Y-90061179D02*
X124740000Y-90061179D01*
X130280000Y-92280000D02*
X128061179Y-90061179D01*
X147520000Y-92280000D02*
X130280000Y-92280000D01*
X149300000Y-90500000D02*
X147520000Y-92280000D01*
X149300000Y-90000000D02*
X149300000Y-90500000D01*
%TO.N,I2C.SDA*%
X127795980Y-89400000D02*
X124500000Y-89400000D01*
X148921888Y-89478112D02*
X146400000Y-92000000D01*
X146400000Y-92000000D02*
X130395980Y-92000000D01*
X149400000Y-89000000D02*
X148950000Y-89450000D01*
X149400000Y-88900000D02*
X149400000Y-89000000D01*
X130395980Y-92000000D02*
X127795980Y-89400000D01*
X115260000Y-94940000D02*
X105700000Y-104500000D01*
X117360000Y-94940000D02*
X115260000Y-94940000D01*
X124500000Y-89400000D02*
X122900000Y-89400000D01*
X122900000Y-89400000D02*
X117360000Y-94940000D01*
X90500000Y-87337402D02*
X90500000Y-88400000D01*
X85500000Y-82000000D02*
X85500000Y-82337402D01*
X85500000Y-82337402D02*
X90500000Y-87337402D01*
%TO.N,I2C.SCL*%
X95200000Y-96100000D02*
X95200000Y-90900000D01*
X116080000Y-95220000D02*
X106300000Y-105000000D01*
X122798821Y-90101179D02*
X117680000Y-95220000D01*
X104100000Y-105000000D02*
X95200000Y-96100000D01*
X124740000Y-90061179D02*
X124780000Y-90101179D01*
X106300000Y-105000000D02*
X104100000Y-105000000D01*
X124780000Y-90101179D02*
X122798821Y-90101179D01*
X117680000Y-95220000D02*
X116080000Y-95220000D01*
X95200000Y-90900000D02*
X91600000Y-87300000D01*
%TD*%
%TA.AperFunction,Conductor*%
%TO.N,+BATT*%
G36*
X99781606Y-101081661D02*
G01*
X99816627Y-101106243D01*
X103943944Y-105233560D01*
X104022663Y-105266165D01*
X104053006Y-105284171D01*
X104056681Y-105287133D01*
X104061816Y-105291271D01*
X104101661Y-105348666D01*
X104104150Y-105418491D01*
X104068505Y-105478568D01*
X104061781Y-105484829D01*
X104039280Y-105501466D01*
X103938737Y-105559514D01*
X103938728Y-105559521D01*
X103859521Y-105638728D01*
X103859514Y-105638737D01*
X103803499Y-105735758D01*
X103803498Y-105735759D01*
X103803494Y-105735770D01*
X103775908Y-105838728D01*
X103774500Y-105843982D01*
X103774500Y-105956018D01*
X103801003Y-106054927D01*
X103803497Y-106064236D01*
X103803498Y-106064239D01*
X103811798Y-106078615D01*
X103859515Y-106161263D01*
X103938737Y-106240485D01*
X104035763Y-106296503D01*
X104143982Y-106325500D01*
X104143984Y-106325500D01*
X104256016Y-106325500D01*
X104256018Y-106325500D01*
X104364237Y-106296503D01*
X104461263Y-106240485D01*
X104540485Y-106161263D01*
X104596503Y-106064237D01*
X104625500Y-105956018D01*
X104625500Y-105843982D01*
X104596503Y-105735763D01*
X104540485Y-105638737D01*
X104461263Y-105559515D01*
X104385547Y-105515800D01*
X104374082Y-105504277D01*
X104361530Y-105497726D01*
X104357809Y-105493987D01*
X104350004Y-105485802D01*
X104343878Y-105473920D01*
X104339852Y-105469874D01*
X104334765Y-105460960D01*
X104332692Y-105452224D01*
X104317986Y-105423701D01*
X104320263Y-105399843D01*
X104318634Y-105392978D01*
X104321769Y-105384063D01*
X104324625Y-105354147D01*
X104338497Y-105336505D01*
X104341817Y-105327067D01*
X104352390Y-105318837D01*
X104367811Y-105299226D01*
X104368382Y-105298820D01*
X104389143Y-105290230D01*
X104396954Y-105284152D01*
X104405763Y-105283355D01*
X104419713Y-105277584D01*
X104421935Y-105277210D01*
X104442462Y-105275500D01*
X105904560Y-105275500D01*
X105939492Y-105280521D01*
X105964736Y-105287934D01*
X106017482Y-105319230D01*
X106038737Y-105340485D01*
X106135763Y-105396503D01*
X106243982Y-105425500D01*
X106243984Y-105425500D01*
X106356016Y-105425500D01*
X106356018Y-105425500D01*
X106464237Y-105396503D01*
X106561263Y-105340485D01*
X106640485Y-105261263D01*
X106696503Y-105164237D01*
X106725500Y-105056018D01*
X106725500Y-105033306D01*
X106730522Y-104998373D01*
X106737934Y-104973128D01*
X106769228Y-104920386D01*
X110583367Y-101106247D01*
X110644688Y-101072764D01*
X110714380Y-101077748D01*
X110764760Y-101112729D01*
X110766632Y-101114889D01*
X110784223Y-101132843D01*
X110784224Y-101132844D01*
X110784226Y-101132845D01*
X110864036Y-101177488D01*
X110864040Y-101177490D01*
X110931079Y-101197175D01*
X110988977Y-101205500D01*
X113370500Y-101205500D01*
X113437539Y-101225185D01*
X113483294Y-101277989D01*
X113494500Y-101329500D01*
X113494500Y-110893390D01*
X113474815Y-110960429D01*
X113422011Y-111006184D01*
X113352853Y-111016128D01*
X113289297Y-110987103D01*
X113282819Y-110981071D01*
X113261265Y-110959517D01*
X113261263Y-110959515D01*
X113191276Y-110919108D01*
X113164239Y-110903498D01*
X113164238Y-110903497D01*
X113164237Y-110903497D01*
X113056018Y-110874500D01*
X113056017Y-110874500D01*
X112943982Y-110874500D01*
X112835770Y-110903494D01*
X112835759Y-110903498D01*
X112835758Y-110903499D01*
X112738737Y-110959514D01*
X112738728Y-110959521D01*
X112659521Y-111038728D01*
X112659514Y-111038737D01*
X112603499Y-111135758D01*
X112603498Y-111135759D01*
X112603494Y-111135770D01*
X112576840Y-111235250D01*
X112574500Y-111243982D01*
X112574500Y-111356018D01*
X112603497Y-111464237D01*
X112659515Y-111561263D01*
X112738737Y-111640485D01*
X112835763Y-111696503D01*
X112943982Y-111725500D01*
X112943984Y-111725500D01*
X113056016Y-111725500D01*
X113056018Y-111725500D01*
X113164237Y-111696503D01*
X113261263Y-111640485D01*
X113282819Y-111618929D01*
X113344142Y-111585444D01*
X113413834Y-111590428D01*
X113469767Y-111632300D01*
X113494184Y-111697764D01*
X113494500Y-111706610D01*
X113494500Y-114715929D01*
X113474815Y-114782968D01*
X113422011Y-114828723D01*
X113352853Y-114838667D01*
X113289297Y-114809642D01*
X113263113Y-114777930D01*
X113240485Y-114738737D01*
X113161263Y-114659515D01*
X113096579Y-114622169D01*
X113064239Y-114603498D01*
X113064238Y-114603497D01*
X113064237Y-114603497D01*
X112956018Y-114574500D01*
X112956017Y-114574500D01*
X112843982Y-114574500D01*
X112735770Y-114603494D01*
X112735759Y-114603498D01*
X112735758Y-114603499D01*
X112638737Y-114659514D01*
X112638728Y-114659521D01*
X112559521Y-114738728D01*
X112559514Y-114738737D01*
X112503499Y-114835758D01*
X112503498Y-114835759D01*
X112503494Y-114835770D01*
X112474500Y-114943982D01*
X112474500Y-115056018D01*
X112503497Y-115164237D01*
X112559515Y-115261263D01*
X112638737Y-115340485D01*
X112735763Y-115396503D01*
X112843982Y-115425500D01*
X112843984Y-115425500D01*
X112956016Y-115425500D01*
X112956018Y-115425500D01*
X113064237Y-115396503D01*
X113161263Y-115340485D01*
X113240485Y-115261263D01*
X113263113Y-115222069D01*
X113313680Y-115173854D01*
X113382287Y-115160631D01*
X113447152Y-115186599D01*
X113487680Y-115243513D01*
X113494500Y-115284070D01*
X113494500Y-128075500D01*
X113474815Y-128142539D01*
X113422011Y-128188294D01*
X113370500Y-128199500D01*
X56010445Y-128199500D01*
X56003482Y-128199304D01*
X55996530Y-128198913D01*
X55989610Y-128198329D01*
X55909657Y-128189321D01*
X55895948Y-128186992D01*
X55887350Y-128185029D01*
X55882441Y-128183909D01*
X55869085Y-128180060D01*
X55803039Y-128156949D01*
X55790201Y-128151632D01*
X55777729Y-128145627D01*
X55765549Y-128138896D01*
X55706294Y-128101663D01*
X55694953Y-128093616D01*
X55684124Y-128084980D01*
X55673757Y-128075715D01*
X55624283Y-128026241D01*
X55615018Y-128015874D01*
X55606382Y-128005045D01*
X55598335Y-127993704D01*
X55561099Y-127934444D01*
X55554376Y-127922280D01*
X55548371Y-127909810D01*
X55543052Y-127896969D01*
X55519934Y-127830899D01*
X55516087Y-127817550D01*
X55513004Y-127804039D01*
X55510678Y-127790344D01*
X55501667Y-127710365D01*
X55501085Y-127703451D01*
X55500695Y-127696498D01*
X55500500Y-127689554D01*
X55500500Y-109543982D01*
X56512000Y-109543982D01*
X56512000Y-109656018D01*
X56540997Y-109764237D01*
X56597015Y-109861263D01*
X56676237Y-109940485D01*
X56773263Y-109996503D01*
X56881482Y-110025500D01*
X56881484Y-110025500D01*
X56993516Y-110025500D01*
X56993518Y-110025500D01*
X57101737Y-109996503D01*
X57198763Y-109940485D01*
X57277985Y-109861263D01*
X57334003Y-109764237D01*
X57363000Y-109656018D01*
X57363000Y-109543982D01*
X57334003Y-109435763D01*
X57277985Y-109338737D01*
X57198763Y-109259515D01*
X57134079Y-109222169D01*
X57101739Y-109203498D01*
X57101738Y-109203497D01*
X57101737Y-109203497D01*
X56993518Y-109174500D01*
X56993517Y-109174500D01*
X56881482Y-109174500D01*
X56773270Y-109203494D01*
X56773259Y-109203498D01*
X56773258Y-109203499D01*
X56676237Y-109259514D01*
X56676228Y-109259521D01*
X56597021Y-109338728D01*
X56597014Y-109338737D01*
X56540999Y-109435758D01*
X56540998Y-109435759D01*
X56540994Y-109435770D01*
X56522847Y-109503499D01*
X56512000Y-109543982D01*
X55500500Y-109543982D01*
X55500500Y-108443982D01*
X56212000Y-108443982D01*
X56212000Y-108556018D01*
X56240997Y-108664237D01*
X56297015Y-108761263D01*
X56376237Y-108840485D01*
X56473263Y-108896503D01*
X56581482Y-108925500D01*
X56581484Y-108925500D01*
X56693516Y-108925500D01*
X56693518Y-108925500D01*
X56801737Y-108896503D01*
X56898763Y-108840485D01*
X56977985Y-108761263D01*
X57034003Y-108664237D01*
X57063000Y-108556018D01*
X57063000Y-108443982D01*
X57034003Y-108335763D01*
X56977985Y-108238737D01*
X56898763Y-108159515D01*
X56834079Y-108122169D01*
X56801739Y-108103498D01*
X56801738Y-108103497D01*
X56801737Y-108103497D01*
X56693518Y-108074500D01*
X56693517Y-108074500D01*
X56581482Y-108074500D01*
X56473270Y-108103494D01*
X56473259Y-108103498D01*
X56473258Y-108103499D01*
X56376237Y-108159514D01*
X56376228Y-108159521D01*
X56297021Y-108238728D01*
X56297014Y-108238737D01*
X56240999Y-108335758D01*
X56240998Y-108335759D01*
X56240994Y-108335770D01*
X56215612Y-108430500D01*
X56212000Y-108443982D01*
X55500500Y-108443982D01*
X55500500Y-106043982D01*
X56212000Y-106043982D01*
X56212000Y-106156018D01*
X56215613Y-106169500D01*
X56219069Y-106182401D01*
X56219070Y-106182403D01*
X56240996Y-106264234D01*
X56240997Y-106264237D01*
X56274671Y-106322562D01*
X56287788Y-106355328D01*
X56292223Y-106373610D01*
X56290698Y-106437769D01*
X56287764Y-106447764D01*
X56276171Y-106474838D01*
X56240999Y-106535757D01*
X56240998Y-106535759D01*
X56240994Y-106535770D01*
X56212000Y-106643982D01*
X56212000Y-106756017D01*
X56240997Y-106864236D01*
X56240998Y-106864239D01*
X56241000Y-106864242D01*
X56274671Y-106922562D01*
X56287788Y-106955328D01*
X56292223Y-106973610D01*
X56290698Y-107037769D01*
X56287764Y-107047764D01*
X56276171Y-107074838D01*
X56240999Y-107135757D01*
X56240998Y-107135759D01*
X56240994Y-107135770D01*
X56222847Y-107203499D01*
X56212000Y-107243982D01*
X56212000Y-107356018D01*
X56240997Y-107464237D01*
X56297015Y-107561263D01*
X56376237Y-107640485D01*
X56473263Y-107696503D01*
X56581482Y-107725500D01*
X56581484Y-107725500D01*
X56693516Y-107725500D01*
X56693518Y-107725500D01*
X56801737Y-107696503D01*
X56898763Y-107640485D01*
X56977985Y-107561263D01*
X57034003Y-107464237D01*
X57063000Y-107356018D01*
X57063000Y-107243982D01*
X57034003Y-107135763D01*
X57034000Y-107135757D01*
X57000328Y-107077436D01*
X57000327Y-107077435D01*
X56987211Y-107044675D01*
X56982774Y-107026385D01*
X56984302Y-106962219D01*
X56987237Y-106952223D01*
X56998826Y-106925165D01*
X57034000Y-106864242D01*
X57033999Y-106864242D01*
X57034003Y-106864237D01*
X57063000Y-106756018D01*
X57063000Y-106643982D01*
X57034003Y-106535763D01*
X57034000Y-106535757D01*
X57000328Y-106477436D01*
X57000327Y-106477435D01*
X56987211Y-106444675D01*
X56982774Y-106426385D01*
X56984302Y-106362219D01*
X56987237Y-106352223D01*
X56998826Y-106325165D01*
X57034000Y-106264242D01*
X57033999Y-106264242D01*
X57034003Y-106264237D01*
X57063000Y-106156018D01*
X57063000Y-106043982D01*
X57034003Y-105935763D01*
X56977985Y-105838737D01*
X56898763Y-105759515D01*
X56834079Y-105722169D01*
X56801739Y-105703498D01*
X56801738Y-105703497D01*
X56801737Y-105703497D01*
X56693518Y-105674500D01*
X56693517Y-105674500D01*
X56581482Y-105674500D01*
X56473270Y-105703494D01*
X56473259Y-105703498D01*
X56473258Y-105703499D01*
X56376237Y-105759514D01*
X56376228Y-105759521D01*
X56297021Y-105838728D01*
X56297014Y-105838737D01*
X56240999Y-105935758D01*
X56240998Y-105935759D01*
X56240994Y-105935770D01*
X56212444Y-106042322D01*
X56212444Y-106042324D01*
X56212000Y-106043982D01*
X55500500Y-106043982D01*
X55500500Y-101329500D01*
X55520185Y-101262461D01*
X55572989Y-101216706D01*
X55624500Y-101205500D01*
X63344991Y-101205500D01*
X63412030Y-101225185D01*
X63457785Y-101277989D01*
X63467729Y-101347147D01*
X63454053Y-101388504D01*
X63183571Y-101888454D01*
X63136731Y-101988119D01*
X62894728Y-102503040D01*
X62686469Y-103020277D01*
X62673859Y-103042018D01*
X62668763Y-103050805D01*
X62659078Y-103063071D01*
X62602087Y-103103487D01*
X62602085Y-103103487D01*
X62602085Y-103103488D01*
X62602083Y-103103488D01*
X62589669Y-103107758D01*
X62549340Y-103114500D01*
X59229108Y-103114500D01*
X59101808Y-103148609D01*
X59101806Y-103148610D01*
X58987696Y-103214493D01*
X58987682Y-103214502D01*
X58987677Y-103214506D01*
X58894506Y-103307677D01*
X58894502Y-103307682D01*
X58894493Y-103307696D01*
X58828610Y-103421806D01*
X58828609Y-103421808D01*
X58794500Y-103549108D01*
X58794500Y-104348923D01*
X58794499Y-104348927D01*
X58794500Y-104348930D01*
X58789475Y-104383864D01*
X58785564Y-104397181D01*
X58747787Y-104455957D01*
X58684238Y-104484978D01*
X58675823Y-104486188D01*
X58626082Y-104483225D01*
X58593519Y-104474500D01*
X58593518Y-104474500D01*
X58481482Y-104474500D01*
X58373270Y-104503494D01*
X58373259Y-104503498D01*
X58373255Y-104503500D01*
X58314938Y-104537168D01*
X58314938Y-104537169D01*
X58314936Y-104537169D01*
X58314934Y-104537171D01*
X58282172Y-104550287D01*
X58263892Y-104554722D01*
X58199725Y-104553196D01*
X58189728Y-104550261D01*
X58162659Y-104538670D01*
X58115876Y-104511660D01*
X58109344Y-104506647D01*
X58094131Y-104500346D01*
X58085969Y-104499272D01*
X58084159Y-104498787D01*
X57993518Y-104474500D01*
X57993517Y-104474500D01*
X57881482Y-104474500D01*
X57773270Y-104503494D01*
X57773259Y-104503498D01*
X57773258Y-104503499D01*
X57676237Y-104559514D01*
X57676228Y-104559521D01*
X57597021Y-104638728D01*
X57597014Y-104638737D01*
X57540999Y-104735757D01*
X57540994Y-104735768D01*
X57540994Y-104735769D01*
X57540993Y-104735771D01*
X57539175Y-104742558D01*
X57539173Y-104742560D01*
X57539174Y-104742562D01*
X57531801Y-104759779D01*
X57525280Y-104775006D01*
X57519394Y-104784662D01*
X57467692Y-104831659D01*
X57398789Y-104843244D01*
X57334567Y-104815741D01*
X57328649Y-104810855D01*
X57300215Y-104777240D01*
X57290134Y-104759780D01*
X57280193Y-104742562D01*
X57277987Y-104738740D01*
X57277983Y-104738735D01*
X57198765Y-104659517D01*
X57198763Y-104659515D01*
X57134079Y-104622169D01*
X57101739Y-104603498D01*
X57101738Y-104603497D01*
X57101737Y-104603497D01*
X56993518Y-104574500D01*
X56993517Y-104574500D01*
X56881482Y-104574500D01*
X56773270Y-104603494D01*
X56773259Y-104603498D01*
X56773258Y-104603499D01*
X56676237Y-104659514D01*
X56676228Y-104659521D01*
X56597021Y-104738728D01*
X56597014Y-104738737D01*
X56540999Y-104835758D01*
X56540998Y-104835759D01*
X56540994Y-104835770D01*
X56518323Y-104920384D01*
X56512000Y-104943982D01*
X56512000Y-105056018D01*
X56540997Y-105164237D01*
X56597015Y-105261263D01*
X56676237Y-105340485D01*
X56773263Y-105396503D01*
X56881482Y-105425500D01*
X56881484Y-105425500D01*
X56993516Y-105425500D01*
X56993518Y-105425500D01*
X57101737Y-105396503D01*
X57198763Y-105340485D01*
X57277985Y-105261263D01*
X57334003Y-105164237D01*
X57335822Y-105157446D01*
X57349713Y-105125002D01*
X57351080Y-105122759D01*
X57355599Y-105115344D01*
X57407293Y-105068345D01*
X57476195Y-105056753D01*
X57540424Y-105084251D01*
X57546342Y-105089137D01*
X57574783Y-105122756D01*
X57597015Y-105161263D01*
X57676237Y-105240485D01*
X57773263Y-105296503D01*
X57881482Y-105325500D01*
X57881484Y-105325500D01*
X57993516Y-105325500D01*
X57993518Y-105325500D01*
X58101737Y-105296503D01*
X58160071Y-105262822D01*
X58192823Y-105249711D01*
X58211114Y-105245274D01*
X58275273Y-105246800D01*
X58285270Y-105249736D01*
X58312327Y-105261321D01*
X58373263Y-105296503D01*
X58481482Y-105325500D01*
X58481484Y-105325500D01*
X58593516Y-105325500D01*
X58593518Y-105325500D01*
X58621187Y-105318085D01*
X58656228Y-105313896D01*
X58670102Y-105314226D01*
X58736654Y-105335499D01*
X58781137Y-105389368D01*
X58784484Y-105397182D01*
X58794500Y-105446005D01*
X58794500Y-105610891D01*
X58827960Y-105735770D01*
X58828609Y-105738189D01*
X58840921Y-105759514D01*
X58840922Y-105759515D01*
X58858780Y-105790446D01*
X58894500Y-105852314D01*
X58987686Y-105945500D01*
X59101814Y-106011392D01*
X59229108Y-106045500D01*
X59757671Y-106045500D01*
X59792606Y-106050523D01*
X59807604Y-106054927D01*
X59866355Y-106092672D01*
X59866379Y-106092700D01*
X59866382Y-106092702D01*
X59866383Y-106092704D01*
X59867542Y-106094041D01*
X59895018Y-106148902D01*
X59896663Y-106156460D01*
X59899500Y-106182831D01*
X59899500Y-108412670D01*
X59899499Y-108412676D01*
X59899500Y-108412679D01*
X59894475Y-108447614D01*
X59890070Y-108462612D01*
X59852327Y-108521355D01*
X59852292Y-108521385D01*
X59852291Y-108521387D01*
X59852289Y-108521387D01*
X59850958Y-108522542D01*
X59796097Y-108550018D01*
X59788539Y-108551663D01*
X59762168Y-108554500D01*
X59229108Y-108554500D01*
X59101808Y-108588609D01*
X59101806Y-108588610D01*
X58987696Y-108654493D01*
X58987682Y-108654502D01*
X58987677Y-108654506D01*
X58894506Y-108747677D01*
X58894502Y-108747682D01*
X58894493Y-108747696D01*
X58828610Y-108861806D01*
X58828609Y-108861808D01*
X58794500Y-108989108D01*
X58794500Y-109338060D01*
X58794499Y-109338062D01*
X58794500Y-109338063D01*
X58790647Y-109364856D01*
X58789476Y-109372998D01*
X58786289Y-109383851D01*
X58748514Y-109442628D01*
X58684957Y-109471651D01*
X58615807Y-109461710D01*
X58608829Y-109458523D01*
X58572657Y-109433409D01*
X58498765Y-109359517D01*
X58498763Y-109359515D01*
X58434079Y-109322169D01*
X58401739Y-109303498D01*
X58401738Y-109303497D01*
X58401737Y-109303497D01*
X58293518Y-109274500D01*
X58293517Y-109274500D01*
X58181482Y-109274500D01*
X58073270Y-109303494D01*
X58073259Y-109303498D01*
X58073258Y-109303499D01*
X57976237Y-109359514D01*
X57976228Y-109359521D01*
X57897021Y-109438728D01*
X57897014Y-109438737D01*
X57840999Y-109535758D01*
X57840998Y-109535759D01*
X57840994Y-109535770D01*
X57813408Y-109638728D01*
X57812000Y-109643982D01*
X57812000Y-109756018D01*
X57840997Y-109864237D01*
X57897015Y-109961263D01*
X57976237Y-110040485D01*
X58073263Y-110096503D01*
X58181482Y-110125500D01*
X58181484Y-110125500D01*
X58293516Y-110125500D01*
X58293518Y-110125500D01*
X58401737Y-110096503D01*
X58498763Y-110040485D01*
X58570217Y-109969030D01*
X58598457Y-109947889D01*
X58608391Y-109942465D01*
X58676661Y-109927612D01*
X58742126Y-109952026D01*
X58783999Y-110007958D01*
X58784001Y-110007962D01*
X58786682Y-110015150D01*
X58794500Y-110058484D01*
X58794500Y-110919108D01*
X58794500Y-111050892D01*
X58811554Y-111114539D01*
X58828608Y-111178187D01*
X58861554Y-111235250D01*
X58894500Y-111292314D01*
X58987686Y-111385500D01*
X59101814Y-111451392D01*
X59229108Y-111485500D01*
X62546957Y-111485500D01*
X62581892Y-111490523D01*
X62596890Y-111494927D01*
X62655662Y-111532695D01*
X62664264Y-111542621D01*
X62685582Y-111577517D01*
X62733490Y-111696503D01*
X62894727Y-112096959D01*
X63159121Y-112659521D01*
X63183579Y-112711560D01*
X63369936Y-113056017D01*
X63506716Y-113308838D01*
X63507412Y-113309993D01*
X63507866Y-113310701D01*
X63526230Y-113340486D01*
X63560766Y-113396502D01*
X63863092Y-113886861D01*
X63863092Y-113886862D01*
X63863097Y-113886869D01*
X64251600Y-114443841D01*
X64670973Y-114977955D01*
X65119876Y-115487502D01*
X65119888Y-115487514D01*
X65263347Y-115632884D01*
X65263348Y-115632885D01*
X65596864Y-115970845D01*
X65596931Y-115970909D01*
X65597215Y-115971163D01*
X66100424Y-116426450D01*
X66100432Y-116426457D01*
X66628951Y-116852862D01*
X66628964Y-116852872D01*
X67180722Y-117248693D01*
X67180734Y-117248701D01*
X67754015Y-117612708D01*
X68345308Y-117942795D01*
X68345310Y-117942797D01*
X68347101Y-117943797D01*
X68347960Y-117944205D01*
X68957678Y-118240673D01*
X68957683Y-118240675D01*
X68957693Y-118240680D01*
X69375357Y-118415303D01*
X69375358Y-118415303D01*
X69584200Y-118502619D01*
X70222588Y-118728034D01*
X70224089Y-118728593D01*
X70874295Y-118917579D01*
X70877098Y-118918393D01*
X70877136Y-118918404D01*
X70878784Y-118918883D01*
X70881722Y-118919429D01*
X71538399Y-119070618D01*
X72207724Y-119185318D01*
X72882464Y-119261989D01*
X73560459Y-119300386D01*
X73560470Y-119300386D01*
X74239530Y-119300386D01*
X74239541Y-119300386D01*
X74917536Y-119261989D01*
X75592276Y-119185318D01*
X76261601Y-119070618D01*
X76923369Y-118918257D01*
X77045264Y-118882827D01*
X77575459Y-118728724D01*
X77575459Y-118728723D01*
X77578829Y-118727744D01*
X77578843Y-118727740D01*
X77582832Y-118726580D01*
X77586869Y-118724694D01*
X78215800Y-118502619D01*
X78842326Y-118240671D01*
X79246595Y-118044099D01*
X79453024Y-117943726D01*
X79453025Y-117943724D01*
X79453040Y-117943718D01*
X80045985Y-117612708D01*
X80619266Y-117248701D01*
X81171048Y-116852863D01*
X81699566Y-116426458D01*
X82203128Y-115970852D01*
X82680124Y-115487502D01*
X83129027Y-114977955D01*
X83179490Y-114913684D01*
X83222210Y-114859278D01*
X83344498Y-114703530D01*
X83548400Y-114443841D01*
X83936903Y-113886869D01*
X84293292Y-113308822D01*
X84490676Y-112943982D01*
X104374500Y-112943982D01*
X104374500Y-113056018D01*
X104403497Y-113164237D01*
X104459515Y-113261263D01*
X104538737Y-113340485D01*
X104635763Y-113396503D01*
X104743982Y-113425500D01*
X104743984Y-113425500D01*
X104856016Y-113425500D01*
X104856018Y-113425500D01*
X104964237Y-113396503D01*
X105061263Y-113340485D01*
X105140485Y-113261263D01*
X105196503Y-113164237D01*
X105225500Y-113056018D01*
X105225500Y-112943982D01*
X105196503Y-112835763D01*
X105140485Y-112738737D01*
X105061263Y-112659515D01*
X104996579Y-112622169D01*
X104964239Y-112603498D01*
X104964238Y-112603497D01*
X104964237Y-112603497D01*
X104856018Y-112574500D01*
X104856017Y-112574500D01*
X104743982Y-112574500D01*
X104635770Y-112603494D01*
X104635759Y-112603498D01*
X104635758Y-112603499D01*
X104538737Y-112659514D01*
X104538728Y-112659521D01*
X104459521Y-112738728D01*
X104459514Y-112738737D01*
X104403499Y-112835758D01*
X104403498Y-112835759D01*
X104403494Y-112835770D01*
X104374500Y-112943982D01*
X84490676Y-112943982D01*
X84616427Y-112711548D01*
X84905273Y-112096959D01*
X85113532Y-111579716D01*
X85131231Y-111549200D01*
X85140925Y-111536923D01*
X85197913Y-111496511D01*
X85205734Y-111493822D01*
X85210342Y-111492238D01*
X85250660Y-111485500D01*
X88570890Y-111485500D01*
X88570892Y-111485500D01*
X88698186Y-111451392D01*
X88812314Y-111385500D01*
X88905500Y-111292314D01*
X88971392Y-111178186D01*
X89005500Y-111050892D01*
X89005500Y-110943982D01*
X101374500Y-110943982D01*
X101374500Y-111056018D01*
X101403497Y-111164237D01*
X101459515Y-111261263D01*
X101538737Y-111340485D01*
X101635763Y-111396503D01*
X101743982Y-111425500D01*
X101743984Y-111425500D01*
X101856016Y-111425500D01*
X101856018Y-111425500D01*
X101964237Y-111396503D01*
X102061263Y-111340485D01*
X102140485Y-111261263D01*
X102196503Y-111164237D01*
X102225500Y-111056018D01*
X102225500Y-110943982D01*
X102196503Y-110835763D01*
X102140485Y-110738737D01*
X102061263Y-110659515D01*
X101996579Y-110622169D01*
X101964239Y-110603498D01*
X101964238Y-110603497D01*
X101964237Y-110603497D01*
X101856018Y-110574500D01*
X101856017Y-110574500D01*
X101743982Y-110574500D01*
X101635770Y-110603494D01*
X101635759Y-110603498D01*
X101635758Y-110603499D01*
X101538737Y-110659514D01*
X101538728Y-110659521D01*
X101459521Y-110738728D01*
X101459514Y-110738737D01*
X101403499Y-110835758D01*
X101403498Y-110835759D01*
X101403494Y-110835770D01*
X101385347Y-110903499D01*
X101374500Y-110943982D01*
X89005500Y-110943982D01*
X89005500Y-109843982D01*
X101374500Y-109843982D01*
X101374500Y-109956018D01*
X101403497Y-110064237D01*
X101459515Y-110161263D01*
X101538737Y-110240485D01*
X101635763Y-110296503D01*
X101743982Y-110325500D01*
X101743984Y-110325500D01*
X101856016Y-110325500D01*
X101856018Y-110325500D01*
X101964237Y-110296503D01*
X102061263Y-110240485D01*
X102140485Y-110161263D01*
X102196503Y-110064237D01*
X102225500Y-109956018D01*
X102225500Y-109843982D01*
X102196503Y-109735763D01*
X102140485Y-109638737D01*
X102061263Y-109559515D01*
X101996579Y-109522169D01*
X101964239Y-109503498D01*
X101964238Y-109503497D01*
X101964237Y-109503497D01*
X101856018Y-109474500D01*
X101856017Y-109474500D01*
X101743982Y-109474500D01*
X101635770Y-109503494D01*
X101635759Y-109503498D01*
X101635758Y-109503499D01*
X101538737Y-109559514D01*
X101538728Y-109559521D01*
X101459521Y-109638728D01*
X101459514Y-109638737D01*
X101403499Y-109735758D01*
X101403498Y-109735759D01*
X101403494Y-109735770D01*
X101374500Y-109843982D01*
X89005500Y-109843982D01*
X89005500Y-108989108D01*
X88971392Y-108861814D01*
X88971387Y-108861806D01*
X88959076Y-108840482D01*
X88905500Y-108747686D01*
X88812314Y-108654500D01*
X88755250Y-108621554D01*
X88698187Y-108588608D01*
X88634539Y-108571554D01*
X88570892Y-108554500D01*
X88570891Y-108554500D01*
X88042330Y-108554500D01*
X88042325Y-108554499D01*
X88042323Y-108554500D01*
X88007389Y-108549475D01*
X87992390Y-108545070D01*
X87933644Y-108507327D01*
X87933615Y-108507293D01*
X87933614Y-108507293D01*
X87933613Y-108507291D01*
X87932457Y-108505958D01*
X87904977Y-108451083D01*
X87903332Y-108443521D01*
X87900500Y-108417168D01*
X87900500Y-108043982D01*
X105874500Y-108043982D01*
X105874500Y-108156018D01*
X105903497Y-108264237D01*
X105959515Y-108361263D01*
X106038737Y-108440485D01*
X106135763Y-108496503D01*
X106243982Y-108525500D01*
X106243984Y-108525500D01*
X106356016Y-108525500D01*
X106356018Y-108525500D01*
X106464237Y-108496503D01*
X106561263Y-108440485D01*
X106640485Y-108361263D01*
X106696503Y-108264237D01*
X106725500Y-108156018D01*
X106725500Y-108043982D01*
X106696503Y-107935763D01*
X106640485Y-107838737D01*
X106561263Y-107759515D01*
X106496579Y-107722169D01*
X106464239Y-107703498D01*
X106464238Y-107703497D01*
X106464237Y-107703497D01*
X106356018Y-107674500D01*
X106356017Y-107674500D01*
X106243982Y-107674500D01*
X106135770Y-107703494D01*
X106135759Y-107703498D01*
X106135758Y-107703499D01*
X106038737Y-107759514D01*
X106038728Y-107759521D01*
X105959521Y-107838728D01*
X105959514Y-107838737D01*
X105903499Y-107935758D01*
X105903498Y-107935759D01*
X105903494Y-107935770D01*
X105879452Y-108025499D01*
X105874500Y-108043982D01*
X87900500Y-108043982D01*
X87900500Y-107543982D01*
X102574500Y-107543982D01*
X102574500Y-107656018D01*
X102603497Y-107764237D01*
X102659515Y-107861263D01*
X102738737Y-107940485D01*
X102835763Y-107996503D01*
X102943982Y-108025500D01*
X102943984Y-108025500D01*
X103056016Y-108025500D01*
X103056018Y-108025500D01*
X103164237Y-107996503D01*
X103261263Y-107940485D01*
X103340485Y-107861263D01*
X103396503Y-107764237D01*
X103425500Y-107656018D01*
X103425500Y-107543982D01*
X103396503Y-107435763D01*
X103340485Y-107338737D01*
X103261263Y-107259515D01*
X103196579Y-107222169D01*
X103164239Y-107203498D01*
X103164238Y-107203497D01*
X103164237Y-107203497D01*
X103056018Y-107174500D01*
X103056017Y-107174500D01*
X102943982Y-107174500D01*
X102835770Y-107203494D01*
X102835759Y-107203498D01*
X102835758Y-107203499D01*
X102738737Y-107259514D01*
X102738728Y-107259521D01*
X102659521Y-107338728D01*
X102659514Y-107338737D01*
X102603499Y-107435758D01*
X102603498Y-107435759D01*
X102603494Y-107435770D01*
X102574500Y-107543982D01*
X87900500Y-107543982D01*
X87900500Y-106187329D01*
X87903844Y-106164074D01*
X87905523Y-106152393D01*
X87909927Y-106137395D01*
X87947672Y-106078644D01*
X87947700Y-106078619D01*
X87947699Y-106078619D01*
X87949041Y-106077456D01*
X88003920Y-106049977D01*
X88011479Y-106048333D01*
X88037832Y-106045500D01*
X88570890Y-106045500D01*
X88570892Y-106045500D01*
X88698186Y-106011392D01*
X88812314Y-105945500D01*
X88905500Y-105852314D01*
X88971392Y-105738186D01*
X89005500Y-105610892D01*
X89005500Y-103549108D01*
X88977332Y-103443982D01*
X91512000Y-103443982D01*
X91512000Y-103556018D01*
X91540997Y-103664237D01*
X91597015Y-103761263D01*
X91676237Y-103840485D01*
X91773263Y-103896503D01*
X91881482Y-103925500D01*
X91881484Y-103925500D01*
X91993516Y-103925500D01*
X91993518Y-103925500D01*
X92101737Y-103896503D01*
X92198763Y-103840485D01*
X92277985Y-103761263D01*
X92334003Y-103664237D01*
X92363000Y-103556018D01*
X92363000Y-103443982D01*
X92334003Y-103335763D01*
X92277985Y-103238737D01*
X92198763Y-103159515D01*
X92104462Y-103105070D01*
X92101739Y-103103498D01*
X92101738Y-103103497D01*
X92101737Y-103103497D01*
X91993518Y-103074500D01*
X91993517Y-103074500D01*
X91881482Y-103074500D01*
X91773270Y-103103494D01*
X91773259Y-103103498D01*
X91773258Y-103103499D01*
X91676237Y-103159514D01*
X91676228Y-103159521D01*
X91597021Y-103238728D01*
X91597014Y-103238737D01*
X91540999Y-103335758D01*
X91540998Y-103335759D01*
X91540994Y-103335770D01*
X91517942Y-103421806D01*
X91512000Y-103443982D01*
X88977332Y-103443982D01*
X88971392Y-103421814D01*
X88971387Y-103421806D01*
X88921710Y-103335763D01*
X88905500Y-103307686D01*
X88812314Y-103214500D01*
X88755250Y-103181554D01*
X88698187Y-103148608D01*
X88634539Y-103131554D01*
X88570892Y-103114500D01*
X88570891Y-103114500D01*
X85253044Y-103114500D01*
X85253039Y-103114499D01*
X85253037Y-103114500D01*
X85218103Y-103109475D01*
X85203104Y-103105070D01*
X85144337Y-103067304D01*
X85140634Y-103063031D01*
X85135733Y-103057375D01*
X85114417Y-103022482D01*
X84905273Y-102503041D01*
X84616427Y-101888452D01*
X84345947Y-101388504D01*
X84331360Y-101320174D01*
X84356031Y-101254805D01*
X84412126Y-101213151D01*
X84455009Y-101205500D01*
X99411026Y-101205500D01*
X99411476Y-101205491D01*
X99418358Y-101205369D01*
X99427204Y-101205053D01*
X99491683Y-101192227D01*
X99557147Y-101167810D01*
X99580116Y-101157603D01*
X99648704Y-101099387D01*
X99712553Y-101071012D01*
X99781606Y-101081661D01*
G37*
%TD.AperFunction*%
%TD*%
%TA.AperFunction,Conductor*%
%TO.N,+5V*%
G36*
X160006922Y-67501280D02*
G01*
X160023878Y-67503190D01*
X160097268Y-67511458D01*
X160124333Y-67517636D01*
X160203539Y-67545351D01*
X160228549Y-67557395D01*
X160299606Y-67602043D01*
X160321313Y-67619355D01*
X160380644Y-67678686D01*
X160397957Y-67700395D01*
X160442602Y-67771447D01*
X160454649Y-67796464D01*
X160482362Y-67875662D01*
X160488541Y-67902734D01*
X160498720Y-67993076D01*
X160499500Y-68006959D01*
X160499500Y-127693040D01*
X160498720Y-127706923D01*
X160488541Y-127797265D01*
X160482362Y-127824337D01*
X160454649Y-127903535D01*
X160442602Y-127928552D01*
X160397957Y-127999604D01*
X160380644Y-128021313D01*
X160321313Y-128080644D01*
X160299604Y-128097957D01*
X160228552Y-128142602D01*
X160203535Y-128154649D01*
X160124337Y-128182362D01*
X160097265Y-128188541D01*
X160006923Y-128198720D01*
X159993040Y-128199500D01*
X113824000Y-128199500D01*
X113756961Y-128179815D01*
X113711206Y-128127011D01*
X113700000Y-128075500D01*
X113700000Y-115343982D01*
X116574500Y-115343982D01*
X116574500Y-115456018D01*
X116603497Y-115564237D01*
X116659515Y-115661263D01*
X116738737Y-115740485D01*
X116835763Y-115796503D01*
X116943982Y-115825500D01*
X116943984Y-115825500D01*
X117056016Y-115825500D01*
X117056018Y-115825500D01*
X117164237Y-115796503D01*
X117261263Y-115740485D01*
X117340485Y-115661263D01*
X117396503Y-115564237D01*
X117425500Y-115456018D01*
X117425500Y-115343982D01*
X117396503Y-115235763D01*
X117340485Y-115138737D01*
X117261263Y-115059515D01*
X117164237Y-115003497D01*
X117056018Y-114974500D01*
X116943982Y-114974500D01*
X116835763Y-115003497D01*
X116835760Y-115003498D01*
X116738740Y-115059513D01*
X116738734Y-115059517D01*
X116659517Y-115138734D01*
X116659513Y-115138740D01*
X116603498Y-115235760D01*
X116603497Y-115235763D01*
X116574500Y-115343982D01*
X113700000Y-115343982D01*
X113700000Y-110743982D01*
X117974500Y-110743982D01*
X117974500Y-110856018D01*
X118003497Y-110964237D01*
X118059515Y-111061263D01*
X118138737Y-111140485D01*
X118235763Y-111196503D01*
X118343982Y-111225500D01*
X118343984Y-111225500D01*
X118456016Y-111225500D01*
X118456018Y-111225500D01*
X118564237Y-111196503D01*
X118661263Y-111140485D01*
X118740485Y-111061263D01*
X118796503Y-110964237D01*
X118825500Y-110856018D01*
X118825500Y-110743982D01*
X118796503Y-110635763D01*
X118740485Y-110538737D01*
X118661263Y-110459515D01*
X118564237Y-110403497D01*
X118456018Y-110374500D01*
X118343982Y-110374500D01*
X118235763Y-110403497D01*
X118235760Y-110403498D01*
X118138740Y-110459513D01*
X118138734Y-110459517D01*
X118059517Y-110538734D01*
X118059513Y-110538740D01*
X118003498Y-110635760D01*
X118003497Y-110635763D01*
X117974500Y-110743982D01*
X113700000Y-110743982D01*
X113700000Y-108893982D01*
X114624500Y-108893982D01*
X114624500Y-109006018D01*
X114653497Y-109114237D01*
X114709515Y-109211263D01*
X114788737Y-109290485D01*
X114885763Y-109346503D01*
X114993982Y-109375500D01*
X114993984Y-109375500D01*
X115106016Y-109375500D01*
X115106018Y-109375500D01*
X115214237Y-109346503D01*
X115311263Y-109290485D01*
X115390485Y-109211263D01*
X115446503Y-109114237D01*
X115475500Y-109006018D01*
X115475500Y-108893982D01*
X115446503Y-108785763D01*
X115390485Y-108688737D01*
X115311263Y-108609515D01*
X115232839Y-108564237D01*
X115214239Y-108553498D01*
X115214238Y-108553497D01*
X115214237Y-108553497D01*
X115106018Y-108524500D01*
X114993982Y-108524500D01*
X114885763Y-108553497D01*
X114885760Y-108553498D01*
X114788740Y-108609513D01*
X114788734Y-108609517D01*
X114709517Y-108688734D01*
X114709513Y-108688740D01*
X114653498Y-108785760D01*
X114653497Y-108785763D01*
X114624500Y-108893982D01*
X113700000Y-108893982D01*
X113700000Y-101000000D01*
X110988977Y-101000000D01*
X110921938Y-100980315D01*
X110876183Y-100927511D01*
X110866239Y-100858353D01*
X110895264Y-100794797D01*
X110901296Y-100788319D01*
X111321276Y-100368339D01*
X112345633Y-99343982D01*
X150374500Y-99343982D01*
X150374500Y-99456018D01*
X150403497Y-99564237D01*
X150459515Y-99661263D01*
X150538737Y-99740485D01*
X150635763Y-99796503D01*
X150743982Y-99825500D01*
X150743984Y-99825500D01*
X150856016Y-99825500D01*
X150856018Y-99825500D01*
X150964237Y-99796503D01*
X151061263Y-99740485D01*
X151140485Y-99661263D01*
X151196503Y-99564237D01*
X151225500Y-99456018D01*
X151225500Y-99343982D01*
X151201117Y-99252983D01*
X151202780Y-99183136D01*
X151241942Y-99125273D01*
X151306171Y-99097769D01*
X151352981Y-99101116D01*
X151443982Y-99125500D01*
X151443985Y-99125500D01*
X151556016Y-99125500D01*
X151556018Y-99125500D01*
X151664237Y-99096503D01*
X151761263Y-99040485D01*
X151840485Y-98961263D01*
X151896503Y-98864237D01*
X151925500Y-98756018D01*
X151925500Y-98643982D01*
X151901117Y-98552983D01*
X151902780Y-98483136D01*
X151941942Y-98425273D01*
X152006171Y-98397769D01*
X152052981Y-98401116D01*
X152143982Y-98425500D01*
X152143985Y-98425500D01*
X152256016Y-98425500D01*
X152256018Y-98425500D01*
X152364237Y-98396503D01*
X152461263Y-98340485D01*
X152540485Y-98261263D01*
X152596503Y-98164237D01*
X152625500Y-98056018D01*
X152625500Y-97943982D01*
X152601117Y-97852983D01*
X152602780Y-97783136D01*
X152641942Y-97725273D01*
X152706171Y-97697769D01*
X152752981Y-97701116D01*
X152843982Y-97725500D01*
X152843985Y-97725500D01*
X152956016Y-97725500D01*
X152956018Y-97725500D01*
X153064237Y-97696503D01*
X153161263Y-97640485D01*
X153240485Y-97561263D01*
X153296503Y-97464237D01*
X153325500Y-97356018D01*
X153325500Y-97243982D01*
X153301117Y-97152983D01*
X153302780Y-97083136D01*
X153341942Y-97025273D01*
X153406171Y-96997769D01*
X153452981Y-97001116D01*
X153543982Y-97025500D01*
X153543985Y-97025500D01*
X153656016Y-97025500D01*
X153656018Y-97025500D01*
X153764237Y-96996503D01*
X153861263Y-96940485D01*
X153940485Y-96861263D01*
X153996503Y-96764237D01*
X154025500Y-96656018D01*
X154025500Y-96543982D01*
X154001117Y-96452983D01*
X154002780Y-96383136D01*
X154041942Y-96325273D01*
X154106171Y-96297769D01*
X154152981Y-96301116D01*
X154243982Y-96325500D01*
X154243985Y-96325500D01*
X154356016Y-96325500D01*
X154356018Y-96325500D01*
X154464237Y-96296503D01*
X154561263Y-96240485D01*
X154640485Y-96161263D01*
X154696503Y-96064237D01*
X154725500Y-95956018D01*
X154725500Y-95843982D01*
X154696503Y-95735763D01*
X154640485Y-95638737D01*
X154561263Y-95559515D01*
X154496579Y-95522169D01*
X154464239Y-95503498D01*
X154464238Y-95503497D01*
X154464237Y-95503497D01*
X154356018Y-95474500D01*
X154243982Y-95474500D01*
X154135763Y-95503497D01*
X154135760Y-95503498D01*
X154038740Y-95559513D01*
X154038734Y-95559517D01*
X153959517Y-95638734D01*
X153959513Y-95638740D01*
X153903498Y-95735760D01*
X153903497Y-95735763D01*
X153874500Y-95843982D01*
X153874500Y-95956018D01*
X153875437Y-95959515D01*
X153898882Y-96047014D01*
X153897219Y-96116864D01*
X153858056Y-96174726D01*
X153793827Y-96202230D01*
X153747014Y-96198882D01*
X153715511Y-96190441D01*
X153656018Y-96174500D01*
X153543982Y-96174500D01*
X153435763Y-96203497D01*
X153435760Y-96203498D01*
X153338740Y-96259513D01*
X153338734Y-96259517D01*
X153259517Y-96338734D01*
X153259513Y-96338740D01*
X153203498Y-96435760D01*
X153203497Y-96435763D01*
X153174500Y-96543982D01*
X153174500Y-96656018D01*
X153183303Y-96688872D01*
X153198882Y-96747014D01*
X153197219Y-96816864D01*
X153158056Y-96874726D01*
X153093827Y-96902230D01*
X153047014Y-96898882D01*
X153015511Y-96890441D01*
X152956018Y-96874500D01*
X152843982Y-96874500D01*
X152735763Y-96903497D01*
X152735760Y-96903498D01*
X152638740Y-96959513D01*
X152638734Y-96959517D01*
X152559517Y-97038734D01*
X152559513Y-97038740D01*
X152503498Y-97135760D01*
X152503497Y-97135763D01*
X152474500Y-97243982D01*
X152474500Y-97356018D01*
X152475437Y-97359515D01*
X152498882Y-97447014D01*
X152497219Y-97516864D01*
X152458056Y-97574726D01*
X152393827Y-97602230D01*
X152347014Y-97598882D01*
X152315511Y-97590441D01*
X152256018Y-97574500D01*
X152143982Y-97574500D01*
X152035763Y-97603497D01*
X152035760Y-97603498D01*
X151938740Y-97659513D01*
X151938734Y-97659517D01*
X151859517Y-97738734D01*
X151859513Y-97738740D01*
X151803498Y-97835760D01*
X151803497Y-97835763D01*
X151774500Y-97943982D01*
X151774500Y-98056018D01*
X151775437Y-98059515D01*
X151798882Y-98147014D01*
X151797219Y-98216864D01*
X151758056Y-98274726D01*
X151693827Y-98302230D01*
X151647014Y-98298882D01*
X151615511Y-98290441D01*
X151556018Y-98274500D01*
X151443982Y-98274500D01*
X151335763Y-98303497D01*
X151335760Y-98303498D01*
X151238740Y-98359513D01*
X151238734Y-98359517D01*
X151159517Y-98438734D01*
X151159513Y-98438740D01*
X151103498Y-98535760D01*
X151103497Y-98535763D01*
X151074500Y-98643982D01*
X151074500Y-98756017D01*
X151098882Y-98847014D01*
X151097219Y-98916864D01*
X151058056Y-98974726D01*
X150993827Y-99002230D01*
X150947014Y-98998882D01*
X150915511Y-98990441D01*
X150856018Y-98974500D01*
X150743982Y-98974500D01*
X150635763Y-99003497D01*
X150635760Y-99003498D01*
X150538740Y-99059513D01*
X150538734Y-99059517D01*
X150459517Y-99138734D01*
X150459513Y-99138740D01*
X150403498Y-99235760D01*
X150403497Y-99235763D01*
X150374500Y-99343982D01*
X112345633Y-99343982D01*
X116145634Y-95543982D01*
X119674500Y-95543982D01*
X119674500Y-95656018D01*
X119703497Y-95764237D01*
X119759515Y-95861263D01*
X119838737Y-95940485D01*
X119935763Y-95996503D01*
X120043982Y-96025500D01*
X120043984Y-96025500D01*
X120156015Y-96025500D01*
X120156018Y-96025500D01*
X120247016Y-96001117D01*
X120316863Y-96002780D01*
X120374726Y-96041942D01*
X120402230Y-96106170D01*
X120398882Y-96152984D01*
X120374500Y-96243980D01*
X120374500Y-96243981D01*
X120374500Y-96243982D01*
X120374500Y-96356018D01*
X120402233Y-96459517D01*
X120403497Y-96464236D01*
X120403498Y-96464239D01*
X120420581Y-96493827D01*
X120459515Y-96561263D01*
X120538737Y-96640485D01*
X120635763Y-96696503D01*
X120743982Y-96725500D01*
X120743984Y-96725500D01*
X120856015Y-96725500D01*
X120856018Y-96725500D01*
X120947016Y-96701117D01*
X121016863Y-96702780D01*
X121074726Y-96741942D01*
X121102230Y-96806170D01*
X121098882Y-96852984D01*
X121074500Y-96943980D01*
X121074500Y-96943982D01*
X121074500Y-97056018D01*
X121103497Y-97164237D01*
X121159515Y-97261263D01*
X121238737Y-97340485D01*
X121335763Y-97396503D01*
X121443982Y-97425500D01*
X121443984Y-97425500D01*
X121556015Y-97425500D01*
X121556018Y-97425500D01*
X121647016Y-97401117D01*
X121716863Y-97402780D01*
X121774726Y-97441942D01*
X121802230Y-97506170D01*
X121798882Y-97552984D01*
X121774500Y-97643980D01*
X121774500Y-97643982D01*
X121774500Y-97756018D01*
X121803497Y-97864237D01*
X121859515Y-97961263D01*
X121938737Y-98040485D01*
X122035763Y-98096503D01*
X122143982Y-98125500D01*
X122143984Y-98125500D01*
X122256015Y-98125500D01*
X122256018Y-98125500D01*
X122347016Y-98101117D01*
X122416863Y-98102780D01*
X122474726Y-98141942D01*
X122502230Y-98206170D01*
X122498882Y-98252984D01*
X122474500Y-98343980D01*
X122474500Y-98343982D01*
X122474500Y-98456018D01*
X122503497Y-98564237D01*
X122559515Y-98661263D01*
X122638737Y-98740485D01*
X122735763Y-98796503D01*
X122843982Y-98825500D01*
X122843984Y-98825500D01*
X122956016Y-98825500D01*
X122956018Y-98825500D01*
X123064237Y-98796503D01*
X123161263Y-98740485D01*
X123240485Y-98661263D01*
X123250462Y-98643982D01*
X126574500Y-98643982D01*
X126574500Y-98756018D01*
X126603497Y-98864237D01*
X126659515Y-98961263D01*
X126738737Y-99040485D01*
X126835763Y-99096503D01*
X126943982Y-99125500D01*
X126943984Y-99125500D01*
X127056016Y-99125500D01*
X127056018Y-99125500D01*
X127164237Y-99096503D01*
X127261263Y-99040485D01*
X127340485Y-98961263D01*
X127396503Y-98864237D01*
X127425500Y-98756018D01*
X127425500Y-98643982D01*
X127401117Y-98552983D01*
X127402780Y-98483136D01*
X127441942Y-98425273D01*
X127506171Y-98397769D01*
X127552981Y-98401116D01*
X127643982Y-98425500D01*
X127643985Y-98425500D01*
X127756016Y-98425500D01*
X127756018Y-98425500D01*
X127864237Y-98396503D01*
X127961263Y-98340485D01*
X128040485Y-98261263D01*
X128096503Y-98164237D01*
X128125500Y-98056018D01*
X128125500Y-97943982D01*
X128101117Y-97852983D01*
X128102780Y-97783136D01*
X128141942Y-97725273D01*
X128206171Y-97697769D01*
X128252981Y-97701116D01*
X128343982Y-97725500D01*
X128343985Y-97725500D01*
X128456016Y-97725500D01*
X128456018Y-97725500D01*
X128564237Y-97696503D01*
X128661263Y-97640485D01*
X128740485Y-97561263D01*
X128750462Y-97543982D01*
X145874500Y-97543982D01*
X145874500Y-97656018D01*
X145903497Y-97764237D01*
X145959515Y-97861263D01*
X146038737Y-97940485D01*
X146135763Y-97996503D01*
X146243982Y-98025500D01*
X146243984Y-98025500D01*
X146356016Y-98025500D01*
X146356018Y-98025500D01*
X146464237Y-97996503D01*
X146479557Y-97987657D01*
X146547456Y-97971184D01*
X146613484Y-97994036D01*
X146656675Y-98048956D01*
X146663318Y-98118509D01*
X146648945Y-98157044D01*
X146603498Y-98235760D01*
X146603497Y-98235763D01*
X146574500Y-98343982D01*
X146574500Y-98456018D01*
X146603497Y-98564237D01*
X146659515Y-98661263D01*
X146738737Y-98740485D01*
X146835763Y-98796503D01*
X146943982Y-98825500D01*
X146943984Y-98825500D01*
X147056016Y-98825500D01*
X147056018Y-98825500D01*
X147164237Y-98796503D01*
X147261263Y-98740485D01*
X147340485Y-98661263D01*
X147396503Y-98564237D01*
X147425500Y-98456018D01*
X147425500Y-98343982D01*
X147396503Y-98235763D01*
X147340485Y-98138737D01*
X147261263Y-98059515D01*
X147196579Y-98022169D01*
X147164239Y-98003498D01*
X147164238Y-98003497D01*
X147164237Y-98003497D01*
X147056018Y-97974500D01*
X146943982Y-97974500D01*
X146835763Y-98003497D01*
X146835756Y-98003500D01*
X146820437Y-98012344D01*
X146752536Y-98028814D01*
X146686510Y-98005960D01*
X146643322Y-97951037D01*
X146636683Y-97881483D01*
X146651050Y-97842962D01*
X146696503Y-97764237D01*
X146725500Y-97656018D01*
X146725500Y-97543982D01*
X146696503Y-97435763D01*
X146640485Y-97338737D01*
X146561263Y-97259515D01*
X146464237Y-97203497D01*
X146356018Y-97174500D01*
X146243982Y-97174500D01*
X146135763Y-97203497D01*
X146135760Y-97203498D01*
X146038740Y-97259513D01*
X146038734Y-97259517D01*
X145959517Y-97338734D01*
X145959513Y-97338740D01*
X145903498Y-97435760D01*
X145903497Y-97435763D01*
X145874500Y-97543982D01*
X128750462Y-97543982D01*
X128796503Y-97464237D01*
X128825500Y-97356018D01*
X128825500Y-97249500D01*
X128845185Y-97182461D01*
X128897989Y-97136706D01*
X128949500Y-97125500D01*
X128956016Y-97125500D01*
X128956018Y-97125500D01*
X129064237Y-97096503D01*
X129161263Y-97040485D01*
X129240485Y-96961263D01*
X129296503Y-96864237D01*
X129325500Y-96756018D01*
X129325500Y-96643982D01*
X129296503Y-96535763D01*
X129240485Y-96438737D01*
X129161263Y-96359515D01*
X129064237Y-96303497D01*
X128956018Y-96274500D01*
X128843982Y-96274500D01*
X128735763Y-96303497D01*
X128735760Y-96303498D01*
X128638740Y-96359513D01*
X128638734Y-96359517D01*
X128559517Y-96438734D01*
X128559513Y-96438740D01*
X128503498Y-96535760D01*
X128503497Y-96535763D01*
X128474500Y-96643982D01*
X128474500Y-96750500D01*
X128454815Y-96817539D01*
X128402011Y-96863294D01*
X128350500Y-96874500D01*
X128343982Y-96874500D01*
X128235763Y-96903497D01*
X128235760Y-96903498D01*
X128138740Y-96959513D01*
X128138734Y-96959517D01*
X128059517Y-97038734D01*
X128059513Y-97038740D01*
X128003498Y-97135760D01*
X128003497Y-97135763D01*
X127974500Y-97243982D01*
X127974500Y-97356018D01*
X127975437Y-97359515D01*
X127998882Y-97447014D01*
X127997219Y-97516864D01*
X127958056Y-97574726D01*
X127893827Y-97602230D01*
X127847014Y-97598882D01*
X127815511Y-97590441D01*
X127756018Y-97574500D01*
X127643982Y-97574500D01*
X127535763Y-97603497D01*
X127535760Y-97603498D01*
X127438740Y-97659513D01*
X127438734Y-97659517D01*
X127359517Y-97738734D01*
X127359513Y-97738740D01*
X127303498Y-97835760D01*
X127303497Y-97835763D01*
X127274500Y-97943982D01*
X127274500Y-98056018D01*
X127275437Y-98059515D01*
X127298882Y-98147014D01*
X127297219Y-98216864D01*
X127258056Y-98274726D01*
X127193827Y-98302230D01*
X127147014Y-98298882D01*
X127115511Y-98290441D01*
X127056018Y-98274500D01*
X126943982Y-98274500D01*
X126835763Y-98303497D01*
X126835760Y-98303498D01*
X126738740Y-98359513D01*
X126738734Y-98359517D01*
X126659517Y-98438734D01*
X126659513Y-98438740D01*
X126603498Y-98535760D01*
X126603497Y-98535763D01*
X126574500Y-98643982D01*
X123250462Y-98643982D01*
X123296503Y-98564237D01*
X123325500Y-98456018D01*
X123325500Y-98343982D01*
X123296503Y-98235763D01*
X123240485Y-98138737D01*
X123161263Y-98059515D01*
X123096579Y-98022169D01*
X123064239Y-98003498D01*
X123064238Y-98003497D01*
X123064237Y-98003497D01*
X122956018Y-97974500D01*
X122843982Y-97974500D01*
X122843980Y-97974500D01*
X122752984Y-97998882D01*
X122683135Y-97997219D01*
X122625272Y-97958056D01*
X122597769Y-97893827D01*
X122601116Y-97847018D01*
X122625500Y-97756018D01*
X122625500Y-97643982D01*
X122596503Y-97535763D01*
X122540485Y-97438737D01*
X122461263Y-97359515D01*
X122364237Y-97303497D01*
X122256018Y-97274500D01*
X122143982Y-97274500D01*
X122143980Y-97274500D01*
X122052984Y-97298882D01*
X121983135Y-97297219D01*
X121925272Y-97258056D01*
X121897769Y-97193827D01*
X121901116Y-97147018D01*
X121925500Y-97056018D01*
X121925500Y-96943982D01*
X121896503Y-96835763D01*
X121840485Y-96738737D01*
X121761263Y-96659515D01*
X121664237Y-96603497D01*
X121556018Y-96574500D01*
X121443982Y-96574500D01*
X121443980Y-96574500D01*
X121352984Y-96598882D01*
X121283135Y-96597219D01*
X121225272Y-96558056D01*
X121197769Y-96493827D01*
X121201116Y-96447018D01*
X121225500Y-96356018D01*
X121225500Y-96243982D01*
X121196503Y-96135763D01*
X121140485Y-96038737D01*
X121061263Y-95959515D01*
X120964237Y-95903497D01*
X120856018Y-95874500D01*
X120743982Y-95874500D01*
X120743980Y-95874500D01*
X120652984Y-95898882D01*
X120583135Y-95897219D01*
X120525272Y-95858056D01*
X120519245Y-95843982D01*
X129774500Y-95843982D01*
X129774500Y-95956018D01*
X129803497Y-96064237D01*
X129859515Y-96161263D01*
X129938737Y-96240485D01*
X130035763Y-96296503D01*
X130143982Y-96325500D01*
X130143984Y-96325500D01*
X130256016Y-96325500D01*
X130256018Y-96325500D01*
X130364237Y-96296503D01*
X130455206Y-96243982D01*
X144274500Y-96243982D01*
X144274500Y-96356018D01*
X144302233Y-96459517D01*
X144303497Y-96464236D01*
X144303498Y-96464239D01*
X144320581Y-96493827D01*
X144359515Y-96561263D01*
X144438737Y-96640485D01*
X144535763Y-96696503D01*
X144643982Y-96725500D01*
X144643984Y-96725500D01*
X144756016Y-96725500D01*
X144756018Y-96725500D01*
X144864237Y-96696503D01*
X144888500Y-96682494D01*
X144956398Y-96666021D01*
X145022425Y-96688872D01*
X145065617Y-96743793D01*
X145074500Y-96789881D01*
X145074500Y-96856018D01*
X145103497Y-96964237D01*
X145159515Y-97061263D01*
X145238737Y-97140485D01*
X145335763Y-97196503D01*
X145443982Y-97225500D01*
X145443984Y-97225500D01*
X145556016Y-97225500D01*
X145556018Y-97225500D01*
X145664237Y-97196503D01*
X145761263Y-97140485D01*
X145840485Y-97061263D01*
X145896503Y-96964237D01*
X145925500Y-96856018D01*
X145925500Y-96743982D01*
X145896503Y-96635763D01*
X145840485Y-96538737D01*
X145761263Y-96459515D01*
X145664237Y-96403497D01*
X145556018Y-96374500D01*
X145443982Y-96374500D01*
X145335763Y-96403497D01*
X145335756Y-96403500D01*
X145311499Y-96417505D01*
X145243599Y-96433978D01*
X145177572Y-96411125D01*
X145134382Y-96356204D01*
X145125500Y-96310118D01*
X145125500Y-96243983D01*
X145125500Y-96243982D01*
X145096503Y-96135763D01*
X145040485Y-96038737D01*
X144961263Y-95959515D01*
X144864237Y-95903497D01*
X144756018Y-95874500D01*
X144643982Y-95874500D01*
X144543624Y-95901390D01*
X144543622Y-95901391D01*
X144535763Y-95903497D01*
X144438737Y-95959515D01*
X144391697Y-96006554D01*
X144391691Y-96006559D01*
X144359518Y-96038733D01*
X144359513Y-96038740D01*
X144303498Y-96135760D01*
X144303497Y-96135763D01*
X144274500Y-96243982D01*
X130455206Y-96243982D01*
X130461263Y-96240485D01*
X130540485Y-96161263D01*
X130596503Y-96064237D01*
X130625500Y-95956018D01*
X130625500Y-95843982D01*
X130597827Y-95740704D01*
X130599490Y-95670858D01*
X130638652Y-95612995D01*
X130657747Y-95601518D01*
X130657198Y-95600567D01*
X130664237Y-95596503D01*
X130761263Y-95540485D01*
X130840485Y-95461263D01*
X130896503Y-95364237D01*
X130901930Y-95343982D01*
X143674500Y-95343982D01*
X143674500Y-95456018D01*
X143703497Y-95564237D01*
X143759515Y-95661263D01*
X143838737Y-95740485D01*
X143935763Y-95796503D01*
X144043982Y-95825500D01*
X144043984Y-95825500D01*
X144156016Y-95825500D01*
X144156018Y-95825500D01*
X144264237Y-95796503D01*
X144361263Y-95740485D01*
X144440485Y-95661263D01*
X144496503Y-95564237D01*
X144501930Y-95543982D01*
X147074500Y-95543982D01*
X147074500Y-95656018D01*
X147103497Y-95764237D01*
X147159515Y-95861263D01*
X147238737Y-95940485D01*
X147335763Y-95996503D01*
X147443982Y-96025500D01*
X147443984Y-96025500D01*
X147556016Y-96025500D01*
X147556018Y-96025500D01*
X147664237Y-95996503D01*
X147761263Y-95940485D01*
X147840485Y-95861263D01*
X147896503Y-95764237D01*
X147925500Y-95656018D01*
X147925500Y-95543982D01*
X147896503Y-95435763D01*
X147840485Y-95338737D01*
X147761263Y-95259515D01*
X147664237Y-95203497D01*
X147556018Y-95174500D01*
X147443982Y-95174500D01*
X147335763Y-95203497D01*
X147335760Y-95203498D01*
X147238740Y-95259513D01*
X147238734Y-95259517D01*
X147159517Y-95338734D01*
X147159513Y-95338740D01*
X147103498Y-95435760D01*
X147103497Y-95435763D01*
X147074500Y-95543982D01*
X144501930Y-95543982D01*
X144525500Y-95456018D01*
X144525500Y-95343982D01*
X144496503Y-95235763D01*
X144440485Y-95138737D01*
X144361263Y-95059515D01*
X144264237Y-95003497D01*
X144156018Y-94974500D01*
X144043982Y-94974500D01*
X143935763Y-95003497D01*
X143935760Y-95003498D01*
X143838740Y-95059513D01*
X143838734Y-95059517D01*
X143759517Y-95138734D01*
X143759513Y-95138740D01*
X143703498Y-95235760D01*
X143703497Y-95235763D01*
X143674500Y-95343982D01*
X130901930Y-95343982D01*
X130925500Y-95256018D01*
X130925500Y-95143982D01*
X130896503Y-95035763D01*
X130840485Y-94938737D01*
X130761263Y-94859515D01*
X130664237Y-94803497D01*
X130556018Y-94774500D01*
X130443982Y-94774500D01*
X130335763Y-94803497D01*
X130335760Y-94803498D01*
X130238740Y-94859513D01*
X130238734Y-94859517D01*
X130159517Y-94938734D01*
X130159513Y-94938740D01*
X130103498Y-95035760D01*
X130103497Y-95035763D01*
X130074500Y-95143982D01*
X130074500Y-95256018D01*
X130087292Y-95303760D01*
X130102172Y-95359292D01*
X130100509Y-95429142D01*
X130061346Y-95487004D01*
X130042256Y-95498487D01*
X130042802Y-95499433D01*
X129938740Y-95559513D01*
X129938734Y-95559517D01*
X129859517Y-95638734D01*
X129859513Y-95638740D01*
X129803498Y-95735760D01*
X129803497Y-95735763D01*
X129774500Y-95843982D01*
X120519245Y-95843982D01*
X120497769Y-95793827D01*
X120501116Y-95747018D01*
X120525500Y-95656018D01*
X120525500Y-95543982D01*
X120496503Y-95435763D01*
X120443513Y-95343982D01*
X122974500Y-95343982D01*
X122974500Y-95456018D01*
X123003497Y-95564237D01*
X123059515Y-95661263D01*
X123138737Y-95740485D01*
X123235763Y-95796503D01*
X123343982Y-95825500D01*
X123343984Y-95825500D01*
X123456016Y-95825500D01*
X123456018Y-95825500D01*
X123564237Y-95796503D01*
X123661263Y-95740485D01*
X123740485Y-95661263D01*
X123796503Y-95564237D01*
X123825500Y-95456018D01*
X123825500Y-95343982D01*
X123796503Y-95235763D01*
X123740485Y-95138737D01*
X123661263Y-95059515D01*
X123564237Y-95003497D01*
X123456018Y-94974500D01*
X123343982Y-94974500D01*
X123235763Y-95003497D01*
X123235760Y-95003498D01*
X123138740Y-95059513D01*
X123138734Y-95059517D01*
X123059517Y-95138734D01*
X123059513Y-95138740D01*
X123003498Y-95235760D01*
X123003497Y-95235763D01*
X122974500Y-95343982D01*
X120443513Y-95343982D01*
X120440485Y-95338737D01*
X120361263Y-95259515D01*
X120264237Y-95203497D01*
X120156018Y-95174500D01*
X120043982Y-95174500D01*
X119935763Y-95203497D01*
X119935760Y-95203498D01*
X119838740Y-95259513D01*
X119838734Y-95259517D01*
X119759517Y-95338734D01*
X119759513Y-95338740D01*
X119703498Y-95435760D01*
X119703497Y-95435763D01*
X119674500Y-95543982D01*
X116145634Y-95543982D01*
X116157797Y-95531819D01*
X116219120Y-95498334D01*
X116245478Y-95495500D01*
X117734799Y-95495500D01*
X117734800Y-95495500D01*
X117836058Y-95453557D01*
X117913557Y-95376058D01*
X117913556Y-95376058D01*
X122876618Y-90412998D01*
X122937941Y-90379513D01*
X122964299Y-90376679D01*
X124404084Y-90376679D01*
X124471123Y-90396364D01*
X124478313Y-90401419D01*
X124478736Y-90401663D01*
X124478737Y-90401664D01*
X124575763Y-90457682D01*
X124683982Y-90486679D01*
X124683984Y-90486679D01*
X124796016Y-90486679D01*
X124796018Y-90486679D01*
X124904237Y-90457682D01*
X125001263Y-90401664D01*
X125029929Y-90372998D01*
X125091252Y-90339513D01*
X125117610Y-90336679D01*
X127895702Y-90336679D01*
X127962741Y-90356364D01*
X127983382Y-90372997D01*
X129066401Y-91456017D01*
X130123942Y-92513558D01*
X130123944Y-92513560D01*
X130202257Y-92545997D01*
X130225200Y-92555500D01*
X130225202Y-92555500D01*
X147574799Y-92555500D01*
X147574800Y-92555500D01*
X147676058Y-92513557D01*
X147753557Y-92436058D01*
X147753556Y-92436058D01*
X147812125Y-92377489D01*
X149533557Y-90656059D01*
X149546629Y-90624500D01*
X149575500Y-90554800D01*
X149575500Y-90377610D01*
X149595185Y-90310571D01*
X149611819Y-90289929D01*
X149612604Y-90289144D01*
X149640485Y-90261263D01*
X149696503Y-90164237D01*
X149725500Y-90056018D01*
X149725500Y-89943982D01*
X149696503Y-89835763D01*
X149680297Y-89807693D01*
X153963479Y-89807693D01*
X153963479Y-89919729D01*
X153984051Y-89996503D01*
X153992476Y-90027947D01*
X153992477Y-90027950D01*
X153999714Y-90040485D01*
X154048494Y-90124974D01*
X154127716Y-90204196D01*
X154224742Y-90260214D01*
X154332961Y-90289211D01*
X154332963Y-90289211D01*
X154444995Y-90289211D01*
X154444997Y-90289211D01*
X154553216Y-90260214D01*
X154650242Y-90204196D01*
X154729464Y-90124974D01*
X154785482Y-90027948D01*
X154814479Y-89919729D01*
X154814479Y-89807693D01*
X154785482Y-89699474D01*
X154729464Y-89602448D01*
X154650242Y-89523226D01*
X154553216Y-89467208D01*
X154444997Y-89438211D01*
X154332961Y-89438211D01*
X154224742Y-89467208D01*
X154224739Y-89467209D01*
X154127719Y-89523224D01*
X154127713Y-89523228D01*
X154048496Y-89602445D01*
X154048492Y-89602451D01*
X153992477Y-89699471D01*
X153992476Y-89699474D01*
X153963479Y-89807693D01*
X149680297Y-89807693D01*
X149640485Y-89738737D01*
X149561263Y-89659515D01*
X149464237Y-89603497D01*
X149464235Y-89603496D01*
X149464234Y-89603496D01*
X149452344Y-89600310D01*
X149447161Y-89597151D01*
X149441106Y-89596718D01*
X149417675Y-89579177D01*
X149392684Y-89563944D01*
X149390031Y-89558482D01*
X149385173Y-89554846D01*
X149374947Y-89527429D01*
X149362156Y-89501097D01*
X149362876Y-89495068D01*
X149360756Y-89489382D01*
X149366977Y-89460783D01*
X149370453Y-89431721D01*
X149374647Y-89425523D01*
X149375608Y-89421109D01*
X149396756Y-89392857D01*
X149443586Y-89346028D01*
X149499171Y-89313937D01*
X149564237Y-89296503D01*
X149661263Y-89240485D01*
X149740485Y-89161263D01*
X149796503Y-89064237D01*
X149825500Y-88956018D01*
X149825500Y-88843982D01*
X149796503Y-88735763D01*
X149740485Y-88638737D01*
X149661263Y-88559515D01*
X149571505Y-88507693D01*
X151263479Y-88507693D01*
X151263479Y-88619729D01*
X151292146Y-88726714D01*
X151292476Y-88727947D01*
X151292477Y-88727950D01*
X151299714Y-88740485D01*
X151348494Y-88824974D01*
X151427716Y-88904196D01*
X151524742Y-88960214D01*
X151632961Y-88989211D01*
X151632963Y-88989211D01*
X151744995Y-88989211D01*
X151744997Y-88989211D01*
X151853216Y-88960214D01*
X151950242Y-88904196D01*
X152029464Y-88824974D01*
X152085482Y-88727948D01*
X152114479Y-88619729D01*
X152114479Y-88507693D01*
X152085482Y-88399474D01*
X152029464Y-88302448D01*
X151950242Y-88223226D01*
X151853216Y-88167208D01*
X151744997Y-88138211D01*
X151632961Y-88138211D01*
X151524742Y-88167208D01*
X151524739Y-88167209D01*
X151427719Y-88223224D01*
X151427713Y-88223228D01*
X151348496Y-88302445D01*
X151348492Y-88302451D01*
X151292477Y-88399471D01*
X151292476Y-88399474D01*
X151263479Y-88507693D01*
X149571505Y-88507693D01*
X149564237Y-88503497D01*
X149456018Y-88474500D01*
X149343982Y-88474500D01*
X149235763Y-88503497D01*
X149235760Y-88503498D01*
X149138740Y-88559513D01*
X149138734Y-88559517D01*
X149059517Y-88638734D01*
X149059513Y-88638740D01*
X149003498Y-88735760D01*
X149003497Y-88735763D01*
X148974500Y-88843982D01*
X148974500Y-88956018D01*
X148974501Y-88956021D01*
X148975561Y-88964072D01*
X148973491Y-88964344D01*
X148976758Y-88973101D01*
X148971746Y-88996138D01*
X148971185Y-89019705D01*
X148964086Y-89031350D01*
X148961906Y-89041374D01*
X148940755Y-89069628D01*
X148765830Y-89244554D01*
X148765829Y-89244555D01*
X146322204Y-91688181D01*
X146260881Y-91721666D01*
X146234523Y-91724500D01*
X144661014Y-91724500D01*
X144593975Y-91704815D01*
X144548220Y-91652011D01*
X144538276Y-91582853D01*
X144553627Y-91538500D01*
X144596503Y-91464237D01*
X144625500Y-91356018D01*
X144625500Y-91243982D01*
X144601117Y-91152983D01*
X144602780Y-91083136D01*
X144641942Y-91025273D01*
X144706171Y-90997769D01*
X144752981Y-91001116D01*
X144843982Y-91025500D01*
X144843985Y-91025500D01*
X144956016Y-91025500D01*
X144956018Y-91025500D01*
X145064237Y-90996503D01*
X145161263Y-90940485D01*
X145240485Y-90861263D01*
X145296503Y-90764237D01*
X145325500Y-90656018D01*
X145325500Y-90543982D01*
X145296503Y-90435763D01*
X145251053Y-90357041D01*
X145234581Y-90289144D01*
X145257433Y-90223117D01*
X145312354Y-90179927D01*
X145381908Y-90173285D01*
X145420441Y-90187657D01*
X145435763Y-90196503D01*
X145543982Y-90225500D01*
X145543984Y-90225500D01*
X145656016Y-90225500D01*
X145656018Y-90225500D01*
X145764237Y-90196503D01*
X145861263Y-90140485D01*
X145940485Y-90061263D01*
X145996503Y-89964237D01*
X146025500Y-89856018D01*
X146025500Y-89743982D01*
X145996503Y-89635763D01*
X145987657Y-89620441D01*
X145971184Y-89552540D01*
X145994037Y-89486514D01*
X146048958Y-89443323D01*
X146118512Y-89436682D01*
X146157039Y-89451051D01*
X146235763Y-89496503D01*
X146343982Y-89525500D01*
X146343984Y-89525500D01*
X146456016Y-89525500D01*
X146456018Y-89525500D01*
X146564237Y-89496503D01*
X146661263Y-89440485D01*
X146740485Y-89361263D01*
X146796503Y-89264237D01*
X146825500Y-89156018D01*
X146825500Y-89043982D01*
X146796503Y-88935763D01*
X146751053Y-88857041D01*
X146734581Y-88789144D01*
X146757433Y-88723117D01*
X146812354Y-88679927D01*
X146881908Y-88673285D01*
X146920441Y-88687657D01*
X146935763Y-88696503D01*
X147043982Y-88725500D01*
X147043984Y-88725500D01*
X147156016Y-88725500D01*
X147156018Y-88725500D01*
X147264237Y-88696503D01*
X147361263Y-88640485D01*
X147440485Y-88561263D01*
X147496503Y-88464237D01*
X147525500Y-88356018D01*
X147525500Y-88243982D01*
X147496503Y-88135763D01*
X147440485Y-88038737D01*
X147361263Y-87959515D01*
X147293161Y-87920196D01*
X147264239Y-87903498D01*
X147264238Y-87903497D01*
X147264237Y-87903497D01*
X147156018Y-87874500D01*
X147043982Y-87874500D01*
X146935763Y-87903497D01*
X146935760Y-87903498D01*
X146838740Y-87959513D01*
X146838734Y-87959517D01*
X146759517Y-88038734D01*
X146759513Y-88038740D01*
X146703498Y-88135760D01*
X146703497Y-88135763D01*
X146674500Y-88243982D01*
X146674500Y-88356018D01*
X146701295Y-88456017D01*
X146703497Y-88464236D01*
X146703498Y-88464239D01*
X146748945Y-88542955D01*
X146765418Y-88610855D01*
X146742566Y-88676882D01*
X146687644Y-88720073D01*
X146618091Y-88726714D01*
X146579560Y-88712343D01*
X146564241Y-88703499D01*
X146564239Y-88703498D01*
X146564237Y-88703497D01*
X146456018Y-88674500D01*
X146343982Y-88674500D01*
X146235763Y-88703497D01*
X146235760Y-88703498D01*
X146138740Y-88759513D01*
X146138734Y-88759517D01*
X146059517Y-88838734D01*
X146059513Y-88838740D01*
X146003498Y-88935760D01*
X146003497Y-88935763D01*
X145974500Y-89043982D01*
X145974500Y-89156018D01*
X146002233Y-89259517D01*
X146003497Y-89264236D01*
X146003499Y-89264241D01*
X146012343Y-89279560D01*
X146028814Y-89347460D01*
X146005961Y-89413487D01*
X145951039Y-89456676D01*
X145881486Y-89463317D01*
X145842955Y-89448945D01*
X145833217Y-89443323D01*
X145764237Y-89403497D01*
X145656018Y-89374500D01*
X145543982Y-89374500D01*
X145435763Y-89403497D01*
X145435760Y-89403498D01*
X145338740Y-89459513D01*
X145338734Y-89459517D01*
X145259517Y-89538734D01*
X145259513Y-89538740D01*
X145203498Y-89635760D01*
X145203497Y-89635763D01*
X145174500Y-89743982D01*
X145174500Y-89856018D01*
X145201295Y-89956017D01*
X145203497Y-89964236D01*
X145203498Y-89964239D01*
X145210567Y-89976482D01*
X145247519Y-90040486D01*
X145248945Y-90042955D01*
X145265418Y-90110855D01*
X145242566Y-90176882D01*
X145187644Y-90220073D01*
X145118091Y-90226714D01*
X145079560Y-90212343D01*
X145064241Y-90203499D01*
X145064239Y-90203498D01*
X145064237Y-90203497D01*
X144956018Y-90174500D01*
X144843982Y-90174500D01*
X144735763Y-90203497D01*
X144735760Y-90203498D01*
X144638740Y-90259513D01*
X144638734Y-90259517D01*
X144559517Y-90338734D01*
X144559513Y-90338740D01*
X144503498Y-90435760D01*
X144503497Y-90435763D01*
X144474500Y-90543982D01*
X144474500Y-90656018D01*
X144490441Y-90715511D01*
X144498882Y-90747014D01*
X144497219Y-90816864D01*
X144458056Y-90874726D01*
X144393827Y-90902230D01*
X144347014Y-90898882D01*
X144315511Y-90890441D01*
X144256018Y-90874500D01*
X144143982Y-90874500D01*
X144035763Y-90903497D01*
X144035760Y-90903498D01*
X143938740Y-90959513D01*
X143938734Y-90959517D01*
X143859517Y-91038734D01*
X143859513Y-91038740D01*
X143803498Y-91135760D01*
X143803497Y-91135763D01*
X143774500Y-91243982D01*
X143774500Y-91356018D01*
X143801295Y-91456017D01*
X143803497Y-91464236D01*
X143803498Y-91464239D01*
X143846373Y-91538500D01*
X143862846Y-91606400D01*
X143839994Y-91672427D01*
X143785072Y-91715618D01*
X143738986Y-91724500D01*
X130561458Y-91724500D01*
X130494419Y-91704815D01*
X130473777Y-91688181D01*
X129441612Y-90656016D01*
X128329577Y-89543982D01*
X129574500Y-89543982D01*
X129574500Y-89656018D01*
X129601295Y-89756017D01*
X129603497Y-89764236D01*
X129603498Y-89764239D01*
X129622126Y-89796503D01*
X129659515Y-89861263D01*
X129738737Y-89940485D01*
X129835763Y-89996503D01*
X129943982Y-90025500D01*
X129943984Y-90025500D01*
X130056016Y-90025500D01*
X130056018Y-90025500D01*
X130164237Y-89996503D01*
X130261263Y-89940485D01*
X130340485Y-89861263D01*
X130396503Y-89764237D01*
X130425500Y-89656018D01*
X130425500Y-89543982D01*
X130396503Y-89435763D01*
X130340485Y-89338737D01*
X130261263Y-89259515D01*
X130164237Y-89203497D01*
X130056018Y-89174500D01*
X129943982Y-89174500D01*
X129835763Y-89203497D01*
X129835760Y-89203498D01*
X129738740Y-89259513D01*
X129738734Y-89259517D01*
X129659517Y-89338734D01*
X129659513Y-89338740D01*
X129603498Y-89435760D01*
X129603497Y-89435763D01*
X129574500Y-89543982D01*
X128329577Y-89543982D01*
X127952038Y-89166443D01*
X127850780Y-89124500D01*
X124877610Y-89124500D01*
X124810571Y-89104815D01*
X124789929Y-89088181D01*
X124761265Y-89059517D01*
X124761263Y-89059515D01*
X124664237Y-89003497D01*
X124556018Y-88974500D01*
X124443982Y-88974500D01*
X124335763Y-89003497D01*
X124335760Y-89003498D01*
X124238740Y-89059513D01*
X124238734Y-89059517D01*
X124210071Y-89088181D01*
X124148748Y-89121666D01*
X124122390Y-89124500D01*
X122845198Y-89124500D01*
X122773599Y-89154158D01*
X122743939Y-89166443D01*
X121928276Y-89982106D01*
X121866953Y-90015591D01*
X121797261Y-90010607D01*
X121741328Y-89968735D01*
X121720821Y-89926520D01*
X121696503Y-89835763D01*
X121640485Y-89738737D01*
X121637527Y-89735779D01*
X121635830Y-89732672D01*
X121635538Y-89732291D01*
X121635597Y-89732245D01*
X121604042Y-89674456D01*
X121609026Y-89604764D01*
X121650898Y-89548831D01*
X121716362Y-89524414D01*
X121741397Y-89525159D01*
X121743977Y-89525498D01*
X121743982Y-89525500D01*
X121743987Y-89525500D01*
X121856016Y-89525500D01*
X121856018Y-89525500D01*
X121964237Y-89496503D01*
X122061263Y-89440485D01*
X122140485Y-89361263D01*
X122196503Y-89264237D01*
X122225500Y-89156018D01*
X122225500Y-89043982D01*
X122196503Y-88935763D01*
X122175581Y-88899525D01*
X122159108Y-88831625D01*
X122181961Y-88765598D01*
X122236882Y-88722407D01*
X122306435Y-88715766D01*
X122315036Y-88717744D01*
X122343982Y-88725500D01*
X122343985Y-88725500D01*
X122456016Y-88725500D01*
X122456018Y-88725500D01*
X122564237Y-88696503D01*
X122661263Y-88640485D01*
X122740485Y-88561263D01*
X122796503Y-88464237D01*
X122825500Y-88356018D01*
X122825500Y-88343982D01*
X126974500Y-88343982D01*
X126974500Y-88456018D01*
X127003497Y-88564237D01*
X127059515Y-88661263D01*
X127138737Y-88740485D01*
X127235763Y-88796503D01*
X127343982Y-88825500D01*
X127343984Y-88825500D01*
X127456016Y-88825500D01*
X127456018Y-88825500D01*
X127564237Y-88796503D01*
X127661263Y-88740485D01*
X127740485Y-88661263D01*
X127796503Y-88564237D01*
X127825500Y-88456018D01*
X127825500Y-88343982D01*
X127796503Y-88235763D01*
X127740485Y-88138737D01*
X127661263Y-88059515D01*
X127564237Y-88003497D01*
X127456018Y-87974500D01*
X127343982Y-87974500D01*
X127235763Y-88003497D01*
X127235760Y-88003498D01*
X127138740Y-88059513D01*
X127138734Y-88059517D01*
X127059517Y-88138734D01*
X127059513Y-88138740D01*
X127003498Y-88235760D01*
X127003497Y-88235763D01*
X126974500Y-88343982D01*
X122825500Y-88343982D01*
X122825500Y-88243982D01*
X122796503Y-88135763D01*
X122740485Y-88038737D01*
X122661263Y-87959515D01*
X122593161Y-87920196D01*
X122564239Y-87903498D01*
X122564238Y-87903497D01*
X122564237Y-87903497D01*
X122456018Y-87874500D01*
X122343982Y-87874500D01*
X122235763Y-87903497D01*
X122235760Y-87903498D01*
X122138740Y-87959513D01*
X122138734Y-87959517D01*
X122059517Y-88038734D01*
X122059513Y-88038740D01*
X122003498Y-88135760D01*
X122003497Y-88135763D01*
X121974500Y-88243982D01*
X121974500Y-88356018D01*
X122001295Y-88456017D01*
X122003497Y-88464236D01*
X122003497Y-88464237D01*
X122024419Y-88500475D01*
X122040891Y-88568375D01*
X122018038Y-88634402D01*
X121963116Y-88677592D01*
X121893563Y-88684233D01*
X121884939Y-88682249D01*
X121856019Y-88674500D01*
X121856018Y-88674500D01*
X121743982Y-88674500D01*
X121635763Y-88703497D01*
X121635760Y-88703498D01*
X121538740Y-88759513D01*
X121538734Y-88759517D01*
X121459517Y-88838734D01*
X121459513Y-88838740D01*
X121403498Y-88935760D01*
X121403497Y-88935763D01*
X121374500Y-89043982D01*
X121374500Y-89156018D01*
X121403497Y-89264237D01*
X121459515Y-89361263D01*
X121459517Y-89361265D01*
X121462472Y-89364220D01*
X121464167Y-89367325D01*
X121464462Y-89367709D01*
X121464402Y-89367754D01*
X121495957Y-89425543D01*
X121490973Y-89495235D01*
X121449101Y-89551168D01*
X121383637Y-89575585D01*
X121358612Y-89574841D01*
X121356021Y-89574500D01*
X121356018Y-89574500D01*
X121243982Y-89574500D01*
X121135763Y-89603497D01*
X121135760Y-89603498D01*
X121038740Y-89659513D01*
X121038734Y-89659517D01*
X120959517Y-89738734D01*
X120959513Y-89738740D01*
X120903498Y-89835760D01*
X120903497Y-89835763D01*
X120874500Y-89943982D01*
X120874500Y-90056018D01*
X120875906Y-90061265D01*
X120898882Y-90147014D01*
X120897219Y-90216864D01*
X120858056Y-90274726D01*
X120793827Y-90302230D01*
X120747014Y-90298882D01*
X120713600Y-90289929D01*
X120656018Y-90274500D01*
X120543982Y-90274500D01*
X120435763Y-90303497D01*
X120435760Y-90303498D01*
X120338740Y-90359513D01*
X120338734Y-90359517D01*
X120259517Y-90438734D01*
X120259513Y-90438740D01*
X120203498Y-90535760D01*
X120203497Y-90535763D01*
X120174500Y-90643982D01*
X120174500Y-90756018D01*
X120182910Y-90787406D01*
X120198882Y-90847014D01*
X120197219Y-90916864D01*
X120158056Y-90974726D01*
X120093827Y-91002230D01*
X120047014Y-90998882D01*
X120015511Y-90990441D01*
X119956018Y-90974500D01*
X119843982Y-90974500D01*
X119735763Y-91003497D01*
X119735760Y-91003498D01*
X119638740Y-91059513D01*
X119638734Y-91059517D01*
X119559517Y-91138734D01*
X119559513Y-91138740D01*
X119503498Y-91235760D01*
X119503497Y-91235763D01*
X119474500Y-91343982D01*
X119474500Y-91456018D01*
X119503497Y-91564237D01*
X119559515Y-91661263D01*
X119638737Y-91740485D01*
X119735763Y-91796503D01*
X119826521Y-91820821D01*
X119886179Y-91857185D01*
X119916709Y-91920031D01*
X119908415Y-91989407D01*
X119882107Y-92028276D01*
X117282204Y-94628181D01*
X117220881Y-94661666D01*
X117194523Y-94664500D01*
X115314800Y-94664500D01*
X115205200Y-94664500D01*
X115205198Y-94664500D01*
X115205196Y-94664501D01*
X115103944Y-94706439D01*
X115103942Y-94706441D01*
X108846704Y-100963681D01*
X108785381Y-100997166D01*
X108759023Y-101000000D01*
X100540978Y-101000000D01*
X100473939Y-100980315D01*
X100453297Y-100963681D01*
X95511819Y-96022203D01*
X95478334Y-95960880D01*
X95475500Y-95934522D01*
X95475500Y-94343982D01*
X105984500Y-94343982D01*
X105984500Y-94456018D01*
X106013497Y-94564237D01*
X106069515Y-94661263D01*
X106148737Y-94740485D01*
X106245763Y-94796503D01*
X106353982Y-94825500D01*
X106353984Y-94825500D01*
X106466016Y-94825500D01*
X106466018Y-94825500D01*
X106574237Y-94796503D01*
X106671263Y-94740485D01*
X106750485Y-94661263D01*
X106806503Y-94564237D01*
X106835500Y-94456018D01*
X106835500Y-94343982D01*
X106806503Y-94235763D01*
X106750485Y-94138737D01*
X106671263Y-94059515D01*
X106574237Y-94003497D01*
X106466018Y-93974500D01*
X106353982Y-93974500D01*
X106245763Y-94003497D01*
X106245760Y-94003498D01*
X106148740Y-94059513D01*
X106148734Y-94059517D01*
X106069517Y-94138734D01*
X106069513Y-94138740D01*
X106013498Y-94235760D01*
X106013497Y-94235763D01*
X105984500Y-94343982D01*
X95475500Y-94343982D01*
X95475500Y-91753982D01*
X98284500Y-91753982D01*
X98284500Y-91866018D01*
X98313497Y-91974237D01*
X98369515Y-92071263D01*
X98448737Y-92150485D01*
X98545763Y-92206503D01*
X98653982Y-92235500D01*
X98653984Y-92235500D01*
X98766016Y-92235500D01*
X98766018Y-92235500D01*
X98874237Y-92206503D01*
X98971263Y-92150485D01*
X99050485Y-92071263D01*
X99106503Y-91974237D01*
X99135500Y-91866018D01*
X99135500Y-91753982D01*
X99106503Y-91645763D01*
X99050485Y-91548737D01*
X98971263Y-91469515D01*
X98874237Y-91413497D01*
X98766018Y-91384500D01*
X98653982Y-91384500D01*
X98545763Y-91413497D01*
X98545760Y-91413498D01*
X98448740Y-91469513D01*
X98448734Y-91469517D01*
X98369517Y-91548734D01*
X98369513Y-91548740D01*
X98313498Y-91645760D01*
X98313497Y-91645763D01*
X98284500Y-91753982D01*
X95475500Y-91753982D01*
X95475500Y-90845201D01*
X95475500Y-90845200D01*
X95433557Y-90743942D01*
X95356058Y-90666443D01*
X94533597Y-89843982D01*
X99174500Y-89843982D01*
X99174500Y-89956018D01*
X99203497Y-90064237D01*
X99259515Y-90161263D01*
X99338737Y-90240485D01*
X99435763Y-90296503D01*
X99543982Y-90325500D01*
X99543984Y-90325500D01*
X99656016Y-90325500D01*
X99656018Y-90325500D01*
X99764237Y-90296503D01*
X99861263Y-90240485D01*
X99940485Y-90161263D01*
X99996503Y-90064237D01*
X100025500Y-89956018D01*
X100025500Y-89843982D01*
X99996503Y-89735763D01*
X99940485Y-89638737D01*
X99861263Y-89559515D01*
X99764237Y-89503497D01*
X99656018Y-89474500D01*
X99543982Y-89474500D01*
X99435763Y-89503497D01*
X99435760Y-89503498D01*
X99338740Y-89559513D01*
X99338734Y-89559517D01*
X99259517Y-89638734D01*
X99259513Y-89638740D01*
X99203498Y-89735760D01*
X99203497Y-89735763D01*
X99174500Y-89843982D01*
X94533597Y-89843982D01*
X92796759Y-88107144D01*
X92763274Y-88045821D01*
X92768258Y-87976129D01*
X92810130Y-87920196D01*
X92852344Y-87899689D01*
X92864237Y-87896503D01*
X92961263Y-87840485D01*
X93040485Y-87761263D01*
X93096503Y-87664237D01*
X93101930Y-87643982D01*
X105374500Y-87643982D01*
X105374500Y-87756018D01*
X105403497Y-87864237D01*
X105459515Y-87961263D01*
X105538737Y-88040485D01*
X105635763Y-88096503D01*
X105743982Y-88125500D01*
X105743984Y-88125500D01*
X105856016Y-88125500D01*
X105856018Y-88125500D01*
X105964237Y-88096503D01*
X106061263Y-88040485D01*
X106140485Y-87961263D01*
X106196503Y-87864237D01*
X106225500Y-87756018D01*
X106225500Y-87643982D01*
X106196503Y-87535763D01*
X106140485Y-87438737D01*
X106061263Y-87359515D01*
X105996579Y-87322169D01*
X105964239Y-87303498D01*
X105964238Y-87303497D01*
X105964237Y-87303497D01*
X105856018Y-87274500D01*
X105743982Y-87274500D01*
X105635763Y-87303497D01*
X105635760Y-87303498D01*
X105538740Y-87359513D01*
X105538734Y-87359517D01*
X105459517Y-87438734D01*
X105459513Y-87438740D01*
X105403498Y-87535760D01*
X105403497Y-87535763D01*
X105374500Y-87643982D01*
X93101930Y-87643982D01*
X93125500Y-87556018D01*
X93125500Y-87443982D01*
X93096503Y-87335763D01*
X93040485Y-87238737D01*
X92961263Y-87159515D01*
X92864237Y-87103497D01*
X92756018Y-87074500D01*
X92643982Y-87074500D01*
X92535763Y-87103497D01*
X92535760Y-87103498D01*
X92438740Y-87159513D01*
X92438734Y-87159517D01*
X92359517Y-87238734D01*
X92359513Y-87238740D01*
X92303498Y-87335760D01*
X92303496Y-87335764D01*
X92300310Y-87347656D01*
X92297150Y-87352838D01*
X92296718Y-87358893D01*
X92279177Y-87382323D01*
X92263943Y-87407316D01*
X92258482Y-87409968D01*
X92254846Y-87414826D01*
X92227426Y-87425052D01*
X92201095Y-87437843D01*
X92195068Y-87437122D01*
X92189382Y-87439243D01*
X92160785Y-87433022D01*
X92131720Y-87429546D01*
X92125522Y-87425351D01*
X92121109Y-87424391D01*
X92092855Y-87403240D01*
X92061819Y-87372204D01*
X92028334Y-87310881D01*
X92025500Y-87284523D01*
X92025500Y-87243984D01*
X92025500Y-87243982D01*
X91996503Y-87135763D01*
X91940485Y-87038737D01*
X91861263Y-86959515D01*
X91764237Y-86903497D01*
X91656018Y-86874500D01*
X91543982Y-86874500D01*
X91435763Y-86903497D01*
X91435760Y-86903498D01*
X91338740Y-86959513D01*
X91338734Y-86959517D01*
X91259517Y-87038734D01*
X91259513Y-87038740D01*
X91203498Y-87135760D01*
X91203497Y-87135763D01*
X91174500Y-87243982D01*
X91174500Y-87356018D01*
X91203497Y-87464237D01*
X91259515Y-87561263D01*
X91338737Y-87640485D01*
X91435763Y-87696503D01*
X91543982Y-87725500D01*
X91584523Y-87725500D01*
X91651562Y-87745185D01*
X91672204Y-87761819D01*
X94888181Y-90977796D01*
X94921666Y-91039119D01*
X94924500Y-91065477D01*
X94924500Y-96154800D01*
X94961441Y-96243982D01*
X94961441Y-96243983D01*
X94961442Y-96243985D01*
X94966441Y-96256056D01*
X94966442Y-96256057D01*
X99498703Y-100788319D01*
X99532188Y-100849642D01*
X99527204Y-100919334D01*
X99485332Y-100975267D01*
X99419868Y-100999684D01*
X99411022Y-101000000D01*
X84182991Y-101000000D01*
X84115952Y-100980315D01*
X84077440Y-100941076D01*
X83936907Y-100713138D01*
X83936907Y-100713137D01*
X83696401Y-100368339D01*
X83548400Y-100156159D01*
X83129027Y-99622045D01*
X82680124Y-99112498D01*
X82368281Y-98796501D01*
X82203127Y-98629146D01*
X82203118Y-98629138D01*
X81699575Y-98173549D01*
X81699567Y-98173542D01*
X81171048Y-97747137D01*
X81171035Y-97747127D01*
X80619277Y-97351306D01*
X80619262Y-97351296D01*
X80045985Y-96987292D01*
X79820227Y-96861263D01*
X79453040Y-96656282D01*
X79453038Y-96656281D01*
X79453029Y-96656276D01*
X79453024Y-96656273D01*
X78842321Y-96359326D01*
X78215801Y-96097381D01*
X77575466Y-95871278D01*
X77575459Y-95871275D01*
X76923386Y-95681747D01*
X76834415Y-95661263D01*
X76261601Y-95529382D01*
X76261588Y-95529379D01*
X75592310Y-95414687D01*
X75592263Y-95414680D01*
X74917555Y-95338013D01*
X74917549Y-95338012D01*
X74917536Y-95338011D01*
X74424569Y-95310092D01*
X74239545Y-95299614D01*
X74239541Y-95299614D01*
X73560459Y-95299614D01*
X73560454Y-95299614D01*
X73329173Y-95312712D01*
X72882464Y-95338011D01*
X72882452Y-95338012D01*
X72882444Y-95338013D01*
X72207736Y-95414680D01*
X72207689Y-95414687D01*
X71538412Y-95529379D01*
X71538411Y-95529379D01*
X70876613Y-95681747D01*
X70224540Y-95871275D01*
X70224533Y-95871278D01*
X69584198Y-96097381D01*
X68957678Y-96359326D01*
X68346975Y-96656273D01*
X68346970Y-96656276D01*
X67754014Y-96987292D01*
X67180737Y-97351296D01*
X67180722Y-97351306D01*
X66628964Y-97747127D01*
X66628951Y-97747137D01*
X66100432Y-98173542D01*
X66100424Y-98173549D01*
X65596881Y-98629138D01*
X65596872Y-98629146D01*
X65119871Y-99112503D01*
X65119864Y-99112511D01*
X64670972Y-99622046D01*
X64670958Y-99622063D01*
X64251616Y-100156138D01*
X64251593Y-100156169D01*
X63863092Y-100713137D01*
X63863092Y-100713138D01*
X63722560Y-100941076D01*
X63670622Y-100987811D01*
X63617009Y-101000000D01*
X55624500Y-101000000D01*
X55557461Y-100980315D01*
X55511706Y-100927511D01*
X55500500Y-100876000D01*
X55500500Y-90943982D01*
X56974500Y-90943982D01*
X56974500Y-91056018D01*
X57003497Y-91164237D01*
X57059515Y-91261263D01*
X57138737Y-91340485D01*
X57235763Y-91396503D01*
X57343982Y-91425500D01*
X57343984Y-91425500D01*
X57456016Y-91425500D01*
X57456018Y-91425500D01*
X57564237Y-91396503D01*
X57661263Y-91340485D01*
X57740485Y-91261263D01*
X57796503Y-91164237D01*
X57801930Y-91143982D01*
X88574500Y-91143982D01*
X88574500Y-91256018D01*
X88603497Y-91364237D01*
X88659515Y-91461263D01*
X88738737Y-91540485D01*
X88835763Y-91596503D01*
X88943982Y-91625500D01*
X88943984Y-91625500D01*
X89056016Y-91625500D01*
X89056018Y-91625500D01*
X89164237Y-91596503D01*
X89261263Y-91540485D01*
X89340485Y-91461263D01*
X89396503Y-91364237D01*
X89425500Y-91256018D01*
X89425500Y-91143982D01*
X89396503Y-91035763D01*
X89340485Y-90938737D01*
X89261263Y-90859515D01*
X89164237Y-90803497D01*
X89056018Y-90774500D01*
X88943982Y-90774500D01*
X88835763Y-90803497D01*
X88835760Y-90803498D01*
X88738740Y-90859513D01*
X88738734Y-90859517D01*
X88659517Y-90938734D01*
X88659513Y-90938740D01*
X88603498Y-91035760D01*
X88603497Y-91035763D01*
X88574500Y-91143982D01*
X57801930Y-91143982D01*
X57825500Y-91056018D01*
X57825500Y-90943982D01*
X57796503Y-90835763D01*
X57740485Y-90738737D01*
X57661263Y-90659515D01*
X57564237Y-90603497D01*
X57456018Y-90574500D01*
X57343982Y-90574500D01*
X57235763Y-90603497D01*
X57235760Y-90603498D01*
X57138740Y-90659513D01*
X57138734Y-90659517D01*
X57059517Y-90738734D01*
X57059513Y-90738740D01*
X57003498Y-90835760D01*
X57003497Y-90835763D01*
X56974500Y-90943982D01*
X55500500Y-90943982D01*
X55500500Y-90543982D01*
X77574500Y-90543982D01*
X77574500Y-90656018D01*
X77603497Y-90764237D01*
X77659515Y-90861263D01*
X77738737Y-90940485D01*
X77835763Y-90996503D01*
X77943982Y-91025500D01*
X77943984Y-91025500D01*
X78056016Y-91025500D01*
X78056018Y-91025500D01*
X78164237Y-90996503D01*
X78261263Y-90940485D01*
X78340485Y-90861263D01*
X78396503Y-90764237D01*
X78425500Y-90656018D01*
X78425500Y-90543982D01*
X78396503Y-90435763D01*
X78340485Y-90338737D01*
X78261263Y-90259515D01*
X78179559Y-90212343D01*
X78164239Y-90203498D01*
X78164238Y-90203497D01*
X78164237Y-90203497D01*
X78056018Y-90174500D01*
X77943982Y-90174500D01*
X77835763Y-90203497D01*
X77835760Y-90203498D01*
X77738740Y-90259513D01*
X77738734Y-90259517D01*
X77659517Y-90338734D01*
X77659513Y-90338740D01*
X77603498Y-90435760D01*
X77603497Y-90435763D01*
X77574500Y-90543982D01*
X55500500Y-90543982D01*
X55500500Y-89643982D01*
X91374500Y-89643982D01*
X91374500Y-89756018D01*
X91403497Y-89864237D01*
X91459515Y-89961263D01*
X91538737Y-90040485D01*
X91635763Y-90096503D01*
X91743982Y-90125500D01*
X91743984Y-90125500D01*
X91856016Y-90125500D01*
X91856018Y-90125500D01*
X91964237Y-90096503D01*
X92061263Y-90040485D01*
X92140485Y-89961263D01*
X92196503Y-89864237D01*
X92225500Y-89756018D01*
X92225500Y-89643982D01*
X92196503Y-89535763D01*
X92140485Y-89438737D01*
X92061263Y-89359515D01*
X91964237Y-89303497D01*
X91856018Y-89274500D01*
X91743982Y-89274500D01*
X91635763Y-89303497D01*
X91635760Y-89303498D01*
X91538740Y-89359513D01*
X91538734Y-89359517D01*
X91459517Y-89438734D01*
X91459513Y-89438740D01*
X91403498Y-89535760D01*
X91403497Y-89535763D01*
X91374500Y-89643982D01*
X55500500Y-89643982D01*
X55500500Y-83343982D01*
X80174500Y-83343982D01*
X80174500Y-83456018D01*
X80203497Y-83564237D01*
X80259515Y-83661263D01*
X80338737Y-83740485D01*
X80435763Y-83796503D01*
X80543982Y-83825500D01*
X80543984Y-83825500D01*
X80656016Y-83825500D01*
X80656018Y-83825500D01*
X80764237Y-83796503D01*
X80861263Y-83740485D01*
X80940485Y-83661263D01*
X80996503Y-83564237D01*
X81025500Y-83456018D01*
X81025500Y-83343982D01*
X80996503Y-83235763D01*
X80940485Y-83138737D01*
X80861263Y-83059515D01*
X80764237Y-83003497D01*
X80656018Y-82974500D01*
X80543982Y-82974500D01*
X80435763Y-83003497D01*
X80435760Y-83003498D01*
X80338740Y-83059513D01*
X80338734Y-83059517D01*
X80259517Y-83138734D01*
X80259513Y-83138740D01*
X80203498Y-83235760D01*
X80203497Y-83235763D01*
X80174500Y-83343982D01*
X55500500Y-83343982D01*
X55500500Y-81575409D01*
X55520185Y-81508370D01*
X55572989Y-81462615D01*
X55642147Y-81452671D01*
X55705703Y-81481696D01*
X55731884Y-81513406D01*
X55759515Y-81561263D01*
X55838737Y-81640485D01*
X55935763Y-81696503D01*
X56043982Y-81725500D01*
X56043984Y-81725500D01*
X56156016Y-81725500D01*
X56156018Y-81725500D01*
X56264237Y-81696503D01*
X56361263Y-81640485D01*
X56429510Y-81572237D01*
X56490829Y-81538755D01*
X56560521Y-81543739D01*
X56616455Y-81585610D01*
X56631749Y-81612468D01*
X56662759Y-81687333D01*
X56662764Y-81687343D01*
X56747629Y-81814351D01*
X56747632Y-81814355D01*
X56855644Y-81922367D01*
X56855648Y-81922370D01*
X56982656Y-82007235D01*
X56982662Y-82007238D01*
X56982663Y-82007239D01*
X57123795Y-82065698D01*
X57198109Y-82080480D01*
X57255128Y-82091822D01*
X57317039Y-82124207D01*
X57351613Y-82184922D01*
X57347874Y-82254692D01*
X57338325Y-82275438D01*
X57303497Y-82335762D01*
X57303497Y-82335763D01*
X57274500Y-82443982D01*
X57274500Y-82556018D01*
X57299365Y-82648814D01*
X57303497Y-82664236D01*
X57303498Y-82664239D01*
X57316864Y-82687389D01*
X57359515Y-82761263D01*
X57438737Y-82840485D01*
X57535763Y-82896503D01*
X57643982Y-82925500D01*
X57643984Y-82925500D01*
X57756016Y-82925500D01*
X57756018Y-82925500D01*
X57864237Y-82896503D01*
X57961263Y-82840485D01*
X58040485Y-82761263D01*
X58096503Y-82664237D01*
X58125500Y-82556018D01*
X58125500Y-82443982D01*
X58096503Y-82335763D01*
X58051371Y-82257593D01*
X58034900Y-82189698D01*
X58057752Y-82123671D01*
X58112673Y-82080480D01*
X58134562Y-82073981D01*
X58176205Y-82065698D01*
X58317337Y-82007239D01*
X58444352Y-81922370D01*
X58552370Y-81814352D01*
X58637239Y-81687337D01*
X58638959Y-81683183D01*
X58682798Y-81628779D01*
X58749091Y-81606711D01*
X58816791Y-81623988D01*
X58832055Y-81635845D01*
X58832291Y-81635538D01*
X58838731Y-81640479D01*
X58838737Y-81640485D01*
X58935763Y-81696503D01*
X59043982Y-81725500D01*
X59043984Y-81725500D01*
X59156016Y-81725500D01*
X59156018Y-81725500D01*
X59264237Y-81696503D01*
X59361263Y-81640485D01*
X59440485Y-81561263D01*
X59442613Y-81557576D01*
X59445220Y-81555090D01*
X59445433Y-81554814D01*
X59445476Y-81554847D01*
X59493179Y-81509362D01*
X59561786Y-81496138D01*
X59626651Y-81522106D01*
X59657386Y-81557576D01*
X59659515Y-81561263D01*
X59738737Y-81640485D01*
X59835763Y-81696503D01*
X59943982Y-81725500D01*
X59943984Y-81725500D01*
X60056016Y-81725500D01*
X60056018Y-81725500D01*
X60164237Y-81696503D01*
X60261263Y-81640485D01*
X60261271Y-81640476D01*
X60267709Y-81635538D01*
X60269087Y-81637334D01*
X60320100Y-81609470D01*
X60389793Y-81614444D01*
X60445733Y-81656306D01*
X60461036Y-81683174D01*
X60462758Y-81687332D01*
X60462764Y-81687343D01*
X60547629Y-81814351D01*
X60547632Y-81814355D01*
X60655644Y-81922367D01*
X60655648Y-81922370D01*
X60782656Y-82007235D01*
X60782662Y-82007238D01*
X60782663Y-82007239D01*
X60923795Y-82065698D01*
X60998109Y-82080480D01*
X61055128Y-82091822D01*
X61117039Y-82124207D01*
X61151613Y-82184922D01*
X61147874Y-82254692D01*
X61138325Y-82275438D01*
X61103497Y-82335762D01*
X61103497Y-82335763D01*
X61074500Y-82443982D01*
X61074500Y-82556018D01*
X61099365Y-82648814D01*
X61103497Y-82664236D01*
X61103498Y-82664239D01*
X61116864Y-82687389D01*
X61159515Y-82761263D01*
X61238737Y-82840485D01*
X61335763Y-82896503D01*
X61443982Y-82925500D01*
X61443984Y-82925500D01*
X61556016Y-82925500D01*
X61556018Y-82925500D01*
X61664237Y-82896503D01*
X61761263Y-82840485D01*
X61840485Y-82761263D01*
X61896503Y-82664237D01*
X61920319Y-82575354D01*
X84543128Y-82575354D01*
X84543128Y-82687390D01*
X84572125Y-82795609D01*
X84628143Y-82892635D01*
X84707365Y-82971857D01*
X84804391Y-83027875D01*
X84912610Y-83056872D01*
X84912612Y-83056872D01*
X85024644Y-83056872D01*
X85024646Y-83056872D01*
X85132865Y-83027875D01*
X85229891Y-82971857D01*
X85309113Y-82892635D01*
X85358803Y-82806568D01*
X85409370Y-82758353D01*
X85477977Y-82745130D01*
X85542842Y-82771098D01*
X85553871Y-82780888D01*
X90188181Y-87415198D01*
X90221666Y-87476521D01*
X90224500Y-87502879D01*
X90224500Y-88022390D01*
X90204815Y-88089429D01*
X90188181Y-88110071D01*
X90159517Y-88138734D01*
X90159513Y-88138740D01*
X90103498Y-88235760D01*
X90103497Y-88235763D01*
X90074500Y-88343982D01*
X90074500Y-88456018D01*
X90103497Y-88564237D01*
X90159515Y-88661263D01*
X90238737Y-88740485D01*
X90335763Y-88796503D01*
X90443982Y-88825500D01*
X90443984Y-88825500D01*
X90556016Y-88825500D01*
X90556018Y-88825500D01*
X90664237Y-88796503D01*
X90761263Y-88740485D01*
X90840485Y-88661263D01*
X90896503Y-88564237D01*
X90925500Y-88456018D01*
X90925500Y-88343982D01*
X90896503Y-88235763D01*
X90840485Y-88138737D01*
X90811819Y-88110071D01*
X90778334Y-88048748D01*
X90775500Y-88022390D01*
X90775500Y-87282603D01*
X90775500Y-87282602D01*
X90766319Y-87260438D01*
X90733558Y-87181344D01*
X88896196Y-85343982D01*
X115274500Y-85343982D01*
X115274500Y-85456018D01*
X115303497Y-85564237D01*
X115359515Y-85661263D01*
X115438737Y-85740485D01*
X115535763Y-85796503D01*
X115643982Y-85825500D01*
X115643984Y-85825500D01*
X115756016Y-85825500D01*
X115756018Y-85825500D01*
X115864237Y-85796503D01*
X115961263Y-85740485D01*
X116040485Y-85661263D01*
X116096503Y-85564237D01*
X116125500Y-85456018D01*
X116125500Y-85343982D01*
X117174500Y-85343982D01*
X117174500Y-85456018D01*
X117203497Y-85564237D01*
X117259515Y-85661263D01*
X117338737Y-85740485D01*
X117435763Y-85796503D01*
X117543982Y-85825500D01*
X117543984Y-85825500D01*
X117656016Y-85825500D01*
X117656018Y-85825500D01*
X117764237Y-85796503D01*
X117861263Y-85740485D01*
X117940485Y-85661263D01*
X117996503Y-85564237D01*
X118025500Y-85456018D01*
X118025500Y-85343982D01*
X117996503Y-85235763D01*
X117943513Y-85143982D01*
X118474500Y-85143982D01*
X118474500Y-85256018D01*
X118503497Y-85364237D01*
X118559515Y-85461263D01*
X118638737Y-85540485D01*
X118735763Y-85596503D01*
X118843982Y-85625500D01*
X118843984Y-85625500D01*
X118956016Y-85625500D01*
X118956018Y-85625500D01*
X119064237Y-85596503D01*
X119161263Y-85540485D01*
X119212319Y-85489429D01*
X119273642Y-85455944D01*
X119343334Y-85460928D01*
X119387681Y-85489429D01*
X119438737Y-85540485D01*
X119535763Y-85596503D01*
X119643982Y-85625500D01*
X119643984Y-85625500D01*
X119756016Y-85625500D01*
X119756018Y-85625500D01*
X119864237Y-85596503D01*
X119961263Y-85540485D01*
X120040485Y-85461263D01*
X120096503Y-85364237D01*
X120125500Y-85256018D01*
X120125500Y-85243982D01*
X120974500Y-85243982D01*
X120974500Y-85356018D01*
X121003497Y-85464237D01*
X121059515Y-85561263D01*
X121138737Y-85640485D01*
X121235763Y-85696503D01*
X121343982Y-85725500D01*
X121343984Y-85725500D01*
X121456016Y-85725500D01*
X121456018Y-85725500D01*
X121564237Y-85696503D01*
X121661263Y-85640485D01*
X121740485Y-85561263D01*
X121796503Y-85464237D01*
X121825500Y-85356018D01*
X121825500Y-85243982D01*
X122874500Y-85243982D01*
X122874500Y-85356018D01*
X122903497Y-85464237D01*
X122959515Y-85561263D01*
X123038737Y-85640485D01*
X123135763Y-85696503D01*
X123243982Y-85725500D01*
X123243984Y-85725500D01*
X123356016Y-85725500D01*
X123356018Y-85725500D01*
X123464237Y-85696503D01*
X123561263Y-85640485D01*
X123640485Y-85561263D01*
X123696503Y-85464237D01*
X123725500Y-85356018D01*
X123725500Y-85243982D01*
X126674500Y-85243982D01*
X126674500Y-85356018D01*
X126703497Y-85464237D01*
X126759515Y-85561263D01*
X126838737Y-85640485D01*
X126935763Y-85696503D01*
X127043982Y-85725500D01*
X127043984Y-85725500D01*
X127156016Y-85725500D01*
X127156018Y-85725500D01*
X127264237Y-85696503D01*
X127361263Y-85640485D01*
X127440485Y-85561263D01*
X127496503Y-85464237D01*
X127525500Y-85356018D01*
X127525500Y-85243982D01*
X127498705Y-85143982D01*
X128574500Y-85143982D01*
X128574500Y-85256018D01*
X128603497Y-85364237D01*
X128659515Y-85461263D01*
X128738737Y-85540485D01*
X128835763Y-85596503D01*
X128943982Y-85625500D01*
X128943984Y-85625500D01*
X129056016Y-85625500D01*
X129056018Y-85625500D01*
X129164237Y-85596503D01*
X129261263Y-85540485D01*
X129340485Y-85461263D01*
X129396503Y-85364237D01*
X129425500Y-85256018D01*
X129425500Y-85143982D01*
X129874500Y-85143982D01*
X129874500Y-85256018D01*
X129903497Y-85364237D01*
X129959515Y-85461263D01*
X130038737Y-85540485D01*
X130135763Y-85596503D01*
X130243982Y-85625500D01*
X130243984Y-85625500D01*
X130356016Y-85625500D01*
X130356018Y-85625500D01*
X130464237Y-85596503D01*
X130561263Y-85540485D01*
X130612319Y-85489429D01*
X130673642Y-85455944D01*
X130743334Y-85460928D01*
X130787681Y-85489429D01*
X130838737Y-85540485D01*
X130935763Y-85596503D01*
X131043982Y-85625500D01*
X131043984Y-85625500D01*
X131156016Y-85625500D01*
X131156018Y-85625500D01*
X131264237Y-85596503D01*
X131361263Y-85540485D01*
X131440485Y-85461263D01*
X131496503Y-85364237D01*
X131525500Y-85256018D01*
X131525500Y-85143982D01*
X132374500Y-85143982D01*
X132374500Y-85256018D01*
X132403497Y-85364237D01*
X132459515Y-85461263D01*
X132538737Y-85540485D01*
X132635763Y-85596503D01*
X132743982Y-85625500D01*
X132743984Y-85625500D01*
X132856016Y-85625500D01*
X132856018Y-85625500D01*
X132964237Y-85596503D01*
X133061263Y-85540485D01*
X133140485Y-85461263D01*
X133196503Y-85364237D01*
X133225500Y-85256018D01*
X133225500Y-85143982D01*
X134274500Y-85143982D01*
X134274500Y-85256018D01*
X134303497Y-85364237D01*
X134359515Y-85461263D01*
X134438737Y-85540485D01*
X134535763Y-85596503D01*
X134643982Y-85625500D01*
X134643984Y-85625500D01*
X134756016Y-85625500D01*
X134756018Y-85625500D01*
X134864237Y-85596503D01*
X134961263Y-85540485D01*
X135040485Y-85461263D01*
X135096503Y-85364237D01*
X135125500Y-85256018D01*
X135125500Y-85143982D01*
X138274500Y-85143982D01*
X138274500Y-85256018D01*
X138303497Y-85364237D01*
X138359515Y-85461263D01*
X138438737Y-85540485D01*
X138535763Y-85596503D01*
X138643982Y-85625500D01*
X138643984Y-85625500D01*
X138756016Y-85625500D01*
X138756018Y-85625500D01*
X138864237Y-85596503D01*
X138961263Y-85540485D01*
X139040485Y-85461263D01*
X139096503Y-85364237D01*
X139125500Y-85256018D01*
X139125500Y-85143982D01*
X140174500Y-85143982D01*
X140174500Y-85256018D01*
X140203497Y-85364237D01*
X140259515Y-85461263D01*
X140338737Y-85540485D01*
X140435763Y-85596503D01*
X140543982Y-85625500D01*
X140543984Y-85625500D01*
X140656016Y-85625500D01*
X140656018Y-85625500D01*
X140764237Y-85596503D01*
X140861263Y-85540485D01*
X140940485Y-85461263D01*
X140996503Y-85364237D01*
X141025500Y-85256018D01*
X141025500Y-85143982D01*
X141474500Y-85143982D01*
X141474500Y-85256018D01*
X141503497Y-85364237D01*
X141559515Y-85461263D01*
X141638737Y-85540485D01*
X141735763Y-85596503D01*
X141843982Y-85625500D01*
X141843984Y-85625500D01*
X141956016Y-85625500D01*
X141956018Y-85625500D01*
X142064237Y-85596503D01*
X142161263Y-85540485D01*
X142212319Y-85489429D01*
X142273642Y-85455944D01*
X142343334Y-85460928D01*
X142387681Y-85489429D01*
X142438737Y-85540485D01*
X142535763Y-85596503D01*
X142643982Y-85625500D01*
X142643984Y-85625500D01*
X142756016Y-85625500D01*
X142756018Y-85625500D01*
X142864237Y-85596503D01*
X142961263Y-85540485D01*
X143040485Y-85461263D01*
X143096503Y-85364237D01*
X143125500Y-85256018D01*
X143125500Y-85143982D01*
X143974500Y-85143982D01*
X143974500Y-85256018D01*
X144003497Y-85364237D01*
X144059515Y-85461263D01*
X144138737Y-85540485D01*
X144235763Y-85596503D01*
X144343982Y-85625500D01*
X144343984Y-85625500D01*
X144456016Y-85625500D01*
X144456018Y-85625500D01*
X144564237Y-85596503D01*
X144661263Y-85540485D01*
X144740485Y-85461263D01*
X144796503Y-85364237D01*
X144825500Y-85256018D01*
X144825500Y-85143982D01*
X145874500Y-85143982D01*
X145874500Y-85256018D01*
X145903497Y-85364237D01*
X145959515Y-85461263D01*
X146038737Y-85540485D01*
X146135763Y-85596503D01*
X146243982Y-85625500D01*
X146243984Y-85625500D01*
X146356016Y-85625500D01*
X146356018Y-85625500D01*
X146464237Y-85596503D01*
X146561263Y-85540485D01*
X146640485Y-85461263D01*
X146696503Y-85364237D01*
X146725500Y-85256018D01*
X146725500Y-85243982D01*
X149874500Y-85243982D01*
X149874500Y-85356018D01*
X149903497Y-85464237D01*
X149959515Y-85561263D01*
X150038737Y-85640485D01*
X150135763Y-85696503D01*
X150243982Y-85725500D01*
X150243984Y-85725500D01*
X150356016Y-85725500D01*
X150356018Y-85725500D01*
X150464237Y-85696503D01*
X150561263Y-85640485D01*
X150640485Y-85561263D01*
X150696503Y-85464237D01*
X150725500Y-85356018D01*
X150725500Y-85243982D01*
X150698705Y-85143982D01*
X151874500Y-85143982D01*
X151874500Y-85256018D01*
X151903497Y-85364237D01*
X151959515Y-85461263D01*
X152038737Y-85540485D01*
X152135763Y-85596503D01*
X152243982Y-85625500D01*
X152243984Y-85625500D01*
X152356016Y-85625500D01*
X152356018Y-85625500D01*
X152464237Y-85596503D01*
X152561263Y-85540485D01*
X152640485Y-85461263D01*
X152696503Y-85364237D01*
X152725500Y-85256018D01*
X152725500Y-85243982D01*
X153274500Y-85243982D01*
X153274500Y-85356018D01*
X153303497Y-85464237D01*
X153359515Y-85561263D01*
X153438737Y-85640485D01*
X153535763Y-85696503D01*
X153643982Y-85725500D01*
X153643984Y-85725500D01*
X153756016Y-85725500D01*
X153756018Y-85725500D01*
X153864237Y-85696503D01*
X153961263Y-85640485D01*
X154012319Y-85589429D01*
X154073642Y-85555944D01*
X154143334Y-85560928D01*
X154187681Y-85589429D01*
X154238737Y-85640485D01*
X154335763Y-85696503D01*
X154443982Y-85725500D01*
X154443984Y-85725500D01*
X154556016Y-85725500D01*
X154556018Y-85725500D01*
X154664237Y-85696503D01*
X154761263Y-85640485D01*
X154840485Y-85561263D01*
X154896503Y-85464237D01*
X154925500Y-85356018D01*
X154925500Y-85243982D01*
X154898705Y-85143982D01*
X155674500Y-85143982D01*
X155674500Y-85256018D01*
X155703497Y-85364237D01*
X155759515Y-85461263D01*
X155838737Y-85540485D01*
X155935763Y-85596503D01*
X156043982Y-85625500D01*
X156043984Y-85625500D01*
X156156016Y-85625500D01*
X156156018Y-85625500D01*
X156264237Y-85596503D01*
X156361263Y-85540485D01*
X156440485Y-85461263D01*
X156496503Y-85364237D01*
X156525500Y-85256018D01*
X156525500Y-85143982D01*
X157574500Y-85143982D01*
X157574500Y-85256018D01*
X157603497Y-85364237D01*
X157659515Y-85461263D01*
X157738737Y-85540485D01*
X157835763Y-85596503D01*
X157943982Y-85625500D01*
X157943984Y-85625500D01*
X158056016Y-85625500D01*
X158056018Y-85625500D01*
X158164237Y-85596503D01*
X158261263Y-85540485D01*
X158340485Y-85461263D01*
X158396503Y-85364237D01*
X158425500Y-85256018D01*
X158425500Y-85143982D01*
X158396503Y-85035763D01*
X158340485Y-84938737D01*
X158261263Y-84859515D01*
X158164237Y-84803497D01*
X158056018Y-84774500D01*
X157943982Y-84774500D01*
X157835763Y-84803497D01*
X157835760Y-84803498D01*
X157738740Y-84859513D01*
X157738734Y-84859517D01*
X157659517Y-84938734D01*
X157659513Y-84938740D01*
X157603498Y-85035760D01*
X157603497Y-85035763D01*
X157574500Y-85143982D01*
X156525500Y-85143982D01*
X156496503Y-85035763D01*
X156440485Y-84938737D01*
X156361263Y-84859515D01*
X156264237Y-84803497D01*
X156156018Y-84774500D01*
X156043982Y-84774500D01*
X155935763Y-84803497D01*
X155935760Y-84803498D01*
X155838740Y-84859513D01*
X155838734Y-84859517D01*
X155759517Y-84938734D01*
X155759513Y-84938740D01*
X155703498Y-85035760D01*
X155703497Y-85035763D01*
X155674500Y-85143982D01*
X154898705Y-85143982D01*
X154896503Y-85135763D01*
X154840485Y-85038737D01*
X154761263Y-84959515D01*
X154664237Y-84903497D01*
X154556018Y-84874500D01*
X154443982Y-84874500D01*
X154335763Y-84903497D01*
X154335760Y-84903498D01*
X154238740Y-84959513D01*
X154238734Y-84959517D01*
X154187681Y-85010571D01*
X154126358Y-85044056D01*
X154056666Y-85039072D01*
X154012319Y-85010571D01*
X153961265Y-84959517D01*
X153961263Y-84959515D01*
X153864237Y-84903497D01*
X153756018Y-84874500D01*
X153643982Y-84874500D01*
X153535763Y-84903497D01*
X153535760Y-84903498D01*
X153438740Y-84959513D01*
X153438734Y-84959517D01*
X153359517Y-85038734D01*
X153359513Y-85038740D01*
X153303498Y-85135760D01*
X153303497Y-85135763D01*
X153274500Y-85243982D01*
X152725500Y-85243982D01*
X152725500Y-85143982D01*
X152696503Y-85035763D01*
X152640485Y-84938737D01*
X152561263Y-84859515D01*
X152464237Y-84803497D01*
X152356018Y-84774500D01*
X152243982Y-84774500D01*
X152135763Y-84803497D01*
X152135760Y-84803498D01*
X152038740Y-84859513D01*
X152038734Y-84859517D01*
X151959517Y-84938734D01*
X151959513Y-84938740D01*
X151903498Y-85035760D01*
X151903497Y-85035763D01*
X151874500Y-85143982D01*
X150698705Y-85143982D01*
X150696503Y-85135763D01*
X150640485Y-85038737D01*
X150561263Y-84959515D01*
X150464237Y-84903497D01*
X150356018Y-84874500D01*
X150243982Y-84874500D01*
X150135763Y-84903497D01*
X150135760Y-84903498D01*
X150038740Y-84959513D01*
X150038734Y-84959517D01*
X149959517Y-85038734D01*
X149959513Y-85038740D01*
X149903498Y-85135760D01*
X149903497Y-85135763D01*
X149874500Y-85243982D01*
X146725500Y-85243982D01*
X146725500Y-85143982D01*
X146696503Y-85035763D01*
X146640485Y-84938737D01*
X146561263Y-84859515D01*
X146464237Y-84803497D01*
X146356018Y-84774500D01*
X146243982Y-84774500D01*
X146135763Y-84803497D01*
X146135760Y-84803498D01*
X146038740Y-84859513D01*
X146038734Y-84859517D01*
X145959517Y-84938734D01*
X145959513Y-84938740D01*
X145903498Y-85035760D01*
X145903497Y-85035763D01*
X145874500Y-85143982D01*
X144825500Y-85143982D01*
X144796503Y-85035763D01*
X144740485Y-84938737D01*
X144661263Y-84859515D01*
X144564237Y-84803497D01*
X144456018Y-84774500D01*
X144343982Y-84774500D01*
X144235763Y-84803497D01*
X144235760Y-84803498D01*
X144138740Y-84859513D01*
X144138734Y-84859517D01*
X144059517Y-84938734D01*
X144059513Y-84938740D01*
X144003498Y-85035760D01*
X144003497Y-85035763D01*
X143974500Y-85143982D01*
X143125500Y-85143982D01*
X143096503Y-85035763D01*
X143040485Y-84938737D01*
X142961263Y-84859515D01*
X142864237Y-84803497D01*
X142756018Y-84774500D01*
X142643982Y-84774500D01*
X142535763Y-84803497D01*
X142535760Y-84803498D01*
X142438740Y-84859513D01*
X142438734Y-84859517D01*
X142387681Y-84910571D01*
X142326358Y-84944056D01*
X142256666Y-84939072D01*
X142212319Y-84910571D01*
X142161265Y-84859517D01*
X142161263Y-84859515D01*
X142064237Y-84803497D01*
X141956018Y-84774500D01*
X141843982Y-84774500D01*
X141735763Y-84803497D01*
X141735760Y-84803498D01*
X141638740Y-84859513D01*
X141638734Y-84859517D01*
X141559517Y-84938734D01*
X141559513Y-84938740D01*
X141503498Y-85035760D01*
X141503497Y-85035763D01*
X141474500Y-85143982D01*
X141025500Y-85143982D01*
X140996503Y-85035763D01*
X140940485Y-84938737D01*
X140861263Y-84859515D01*
X140764237Y-84803497D01*
X140656018Y-84774500D01*
X140543982Y-84774500D01*
X140435763Y-84803497D01*
X140435760Y-84803498D01*
X140338740Y-84859513D01*
X140338734Y-84859517D01*
X140259517Y-84938734D01*
X140259513Y-84938740D01*
X140203498Y-85035760D01*
X140203497Y-85035763D01*
X140174500Y-85143982D01*
X139125500Y-85143982D01*
X139096503Y-85035763D01*
X139040485Y-84938737D01*
X138961263Y-84859515D01*
X138864237Y-84803497D01*
X138756018Y-84774500D01*
X138643982Y-84774500D01*
X138535763Y-84803497D01*
X138535760Y-84803498D01*
X138438740Y-84859513D01*
X138438734Y-84859517D01*
X138359517Y-84938734D01*
X138359513Y-84938740D01*
X138303498Y-85035760D01*
X138303497Y-85035763D01*
X138274500Y-85143982D01*
X135125500Y-85143982D01*
X135096503Y-85035763D01*
X135040485Y-84938737D01*
X134961263Y-84859515D01*
X134864237Y-84803497D01*
X134756018Y-84774500D01*
X134643982Y-84774500D01*
X134535763Y-84803497D01*
X134535760Y-84803498D01*
X134438740Y-84859513D01*
X134438734Y-84859517D01*
X134359517Y-84938734D01*
X134359513Y-84938740D01*
X134303498Y-85035760D01*
X134303497Y-85035763D01*
X134274500Y-85143982D01*
X133225500Y-85143982D01*
X133196503Y-85035763D01*
X133140485Y-84938737D01*
X133061263Y-84859515D01*
X132964237Y-84803497D01*
X132856018Y-84774500D01*
X132743982Y-84774500D01*
X132635763Y-84803497D01*
X132635760Y-84803498D01*
X132538740Y-84859513D01*
X132538734Y-84859517D01*
X132459517Y-84938734D01*
X132459513Y-84938740D01*
X132403498Y-85035760D01*
X132403497Y-85035763D01*
X132374500Y-85143982D01*
X131525500Y-85143982D01*
X131496503Y-85035763D01*
X131440485Y-84938737D01*
X131361263Y-84859515D01*
X131264237Y-84803497D01*
X131156018Y-84774500D01*
X131043982Y-84774500D01*
X130935763Y-84803497D01*
X130935760Y-84803498D01*
X130838740Y-84859513D01*
X130838734Y-84859517D01*
X130787681Y-84910571D01*
X130726358Y-84944056D01*
X130656666Y-84939072D01*
X130612319Y-84910571D01*
X130561265Y-84859517D01*
X130561263Y-84859515D01*
X130464237Y-84803497D01*
X130356018Y-84774500D01*
X130243982Y-84774500D01*
X130135763Y-84803497D01*
X130135760Y-84803498D01*
X130038740Y-84859513D01*
X130038734Y-84859517D01*
X129959517Y-84938734D01*
X129959513Y-84938740D01*
X129903498Y-85035760D01*
X129903497Y-85035763D01*
X129874500Y-85143982D01*
X129425500Y-85143982D01*
X129396503Y-85035763D01*
X129340485Y-84938737D01*
X129261263Y-84859515D01*
X129164237Y-84803497D01*
X129056018Y-84774500D01*
X128943982Y-84774500D01*
X128835763Y-84803497D01*
X128835760Y-84803498D01*
X128738740Y-84859513D01*
X128738734Y-84859517D01*
X128659517Y-84938734D01*
X128659513Y-84938740D01*
X128603498Y-85035760D01*
X128603497Y-85035763D01*
X128574500Y-85143982D01*
X127498705Y-85143982D01*
X127496503Y-85135763D01*
X127440485Y-85038737D01*
X127361263Y-84959515D01*
X127264237Y-84903497D01*
X127156018Y-84874500D01*
X127043982Y-84874500D01*
X126935763Y-84903497D01*
X126935760Y-84903498D01*
X126838740Y-84959513D01*
X126838734Y-84959517D01*
X126759517Y-85038734D01*
X126759513Y-85038740D01*
X126703498Y-85135760D01*
X126703497Y-85135763D01*
X126674500Y-85243982D01*
X123725500Y-85243982D01*
X123696503Y-85135763D01*
X123640485Y-85038737D01*
X123561263Y-84959515D01*
X123464237Y-84903497D01*
X123356018Y-84874500D01*
X123243982Y-84874500D01*
X123135763Y-84903497D01*
X123135760Y-84903498D01*
X123038740Y-84959513D01*
X123038734Y-84959517D01*
X122959517Y-85038734D01*
X122959513Y-85038740D01*
X122903498Y-85135760D01*
X122903497Y-85135763D01*
X122874500Y-85243982D01*
X121825500Y-85243982D01*
X121796503Y-85135763D01*
X121740485Y-85038737D01*
X121661263Y-84959515D01*
X121564237Y-84903497D01*
X121456018Y-84874500D01*
X121343982Y-84874500D01*
X121235763Y-84903497D01*
X121235760Y-84903498D01*
X121138740Y-84959513D01*
X121138734Y-84959517D01*
X121059517Y-85038734D01*
X121059513Y-85038740D01*
X121003498Y-85135760D01*
X121003497Y-85135763D01*
X120974500Y-85243982D01*
X120125500Y-85243982D01*
X120125500Y-85143982D01*
X120096503Y-85035763D01*
X120040485Y-84938737D01*
X119961263Y-84859515D01*
X119864237Y-84803497D01*
X119756018Y-84774500D01*
X119643982Y-84774500D01*
X119535763Y-84803497D01*
X119535760Y-84803498D01*
X119438740Y-84859513D01*
X119438734Y-84859517D01*
X119387681Y-84910571D01*
X119326358Y-84944056D01*
X119256666Y-84939072D01*
X119212319Y-84910571D01*
X119161265Y-84859517D01*
X119161263Y-84859515D01*
X119064237Y-84803497D01*
X118956018Y-84774500D01*
X118843982Y-84774500D01*
X118735763Y-84803497D01*
X118735760Y-84803498D01*
X118638740Y-84859513D01*
X118638734Y-84859517D01*
X118559517Y-84938734D01*
X118559513Y-84938740D01*
X118503498Y-85035760D01*
X118503497Y-85035763D01*
X118474500Y-85143982D01*
X117943513Y-85143982D01*
X117940485Y-85138737D01*
X117861263Y-85059515D01*
X117764237Y-85003497D01*
X117656018Y-84974500D01*
X117543982Y-84974500D01*
X117435763Y-85003497D01*
X117435760Y-85003498D01*
X117338740Y-85059513D01*
X117338734Y-85059517D01*
X117259517Y-85138734D01*
X117259513Y-85138740D01*
X117203498Y-85235760D01*
X117203497Y-85235763D01*
X117174500Y-85343982D01*
X116125500Y-85343982D01*
X116096503Y-85235763D01*
X116040485Y-85138737D01*
X115961263Y-85059515D01*
X115864237Y-85003497D01*
X115756018Y-84974500D01*
X115643982Y-84974500D01*
X115535763Y-85003497D01*
X115535760Y-85003498D01*
X115438740Y-85059513D01*
X115438734Y-85059517D01*
X115359517Y-85138734D01*
X115359513Y-85138740D01*
X115303498Y-85235760D01*
X115303497Y-85235763D01*
X115274500Y-85343982D01*
X88896196Y-85343982D01*
X86296195Y-82743982D01*
X118874500Y-82743982D01*
X118874500Y-82856018D01*
X118903497Y-82964237D01*
X118959515Y-83061263D01*
X119038737Y-83140485D01*
X119135763Y-83196503D01*
X119243982Y-83225500D01*
X119243984Y-83225500D01*
X119356016Y-83225500D01*
X119356018Y-83225500D01*
X119464237Y-83196503D01*
X119561263Y-83140485D01*
X119612319Y-83089429D01*
X119673642Y-83055944D01*
X119743334Y-83060928D01*
X119787681Y-83089429D01*
X119838737Y-83140485D01*
X119935763Y-83196503D01*
X120043982Y-83225500D01*
X120043984Y-83225500D01*
X120156016Y-83225500D01*
X120156018Y-83225500D01*
X120264237Y-83196503D01*
X120361263Y-83140485D01*
X120440485Y-83061263D01*
X120496503Y-82964237D01*
X120525500Y-82856018D01*
X120525500Y-82743982D01*
X129874500Y-82743982D01*
X129874500Y-82856018D01*
X129903497Y-82964237D01*
X129959515Y-83061263D01*
X130038737Y-83140485D01*
X130135763Y-83196503D01*
X130243982Y-83225500D01*
X130243984Y-83225500D01*
X130356016Y-83225500D01*
X130356018Y-83225500D01*
X130464237Y-83196503D01*
X130561263Y-83140485D01*
X130612319Y-83089429D01*
X130673642Y-83055944D01*
X130743334Y-83060928D01*
X130787681Y-83089429D01*
X130838737Y-83140485D01*
X130935763Y-83196503D01*
X131043982Y-83225500D01*
X131043984Y-83225500D01*
X131156016Y-83225500D01*
X131156018Y-83225500D01*
X131264237Y-83196503D01*
X131361263Y-83140485D01*
X131440485Y-83061263D01*
X131496503Y-82964237D01*
X131525500Y-82856018D01*
X131525500Y-82743982D01*
X141474500Y-82743982D01*
X141474500Y-82856018D01*
X141503497Y-82964237D01*
X141559515Y-83061263D01*
X141638737Y-83140485D01*
X141735763Y-83196503D01*
X141843982Y-83225500D01*
X141843984Y-83225500D01*
X141956016Y-83225500D01*
X141956018Y-83225500D01*
X142064237Y-83196503D01*
X142161263Y-83140485D01*
X142212319Y-83089429D01*
X142273642Y-83055944D01*
X142343334Y-83060928D01*
X142387681Y-83089429D01*
X142438737Y-83140485D01*
X142535763Y-83196503D01*
X142643982Y-83225500D01*
X142643984Y-83225500D01*
X142756016Y-83225500D01*
X142756018Y-83225500D01*
X142864237Y-83196503D01*
X142961263Y-83140485D01*
X143040485Y-83061263D01*
X143096503Y-82964237D01*
X143125500Y-82856018D01*
X143125500Y-82743982D01*
X143098705Y-82643982D01*
X153274500Y-82643982D01*
X153274500Y-82756018D01*
X153303497Y-82864237D01*
X153359515Y-82961263D01*
X153438737Y-83040485D01*
X153535763Y-83096503D01*
X153643982Y-83125500D01*
X153643984Y-83125500D01*
X153756016Y-83125500D01*
X153756018Y-83125500D01*
X153864237Y-83096503D01*
X153961263Y-83040485D01*
X154012319Y-82989429D01*
X154073642Y-82955944D01*
X154143334Y-82960928D01*
X154187681Y-82989429D01*
X154238737Y-83040485D01*
X154335763Y-83096503D01*
X154443982Y-83125500D01*
X154443984Y-83125500D01*
X154556016Y-83125500D01*
X154556018Y-83125500D01*
X154664237Y-83096503D01*
X154761263Y-83040485D01*
X154840485Y-82961263D01*
X154896503Y-82864237D01*
X154925500Y-82756018D01*
X154925500Y-82643982D01*
X154896503Y-82535763D01*
X154840485Y-82438737D01*
X154761263Y-82359515D01*
X154664237Y-82303497D01*
X154556018Y-82274500D01*
X154443982Y-82274500D01*
X154335763Y-82303497D01*
X154335760Y-82303498D01*
X154238740Y-82359513D01*
X154238734Y-82359517D01*
X154187681Y-82410571D01*
X154126358Y-82444056D01*
X154056666Y-82439072D01*
X154012319Y-82410571D01*
X153961265Y-82359517D01*
X153961263Y-82359515D01*
X153864237Y-82303497D01*
X153756018Y-82274500D01*
X153643982Y-82274500D01*
X153535763Y-82303497D01*
X153535760Y-82303498D01*
X153438740Y-82359513D01*
X153438734Y-82359517D01*
X153359517Y-82438734D01*
X153359513Y-82438740D01*
X153303498Y-82535760D01*
X153303497Y-82535763D01*
X153274500Y-82643982D01*
X143098705Y-82643982D01*
X143096503Y-82635763D01*
X143040485Y-82538737D01*
X142961263Y-82459515D01*
X142864237Y-82403497D01*
X142756018Y-82374500D01*
X142643982Y-82374500D01*
X142535763Y-82403497D01*
X142535760Y-82403498D01*
X142438740Y-82459513D01*
X142438734Y-82459517D01*
X142387681Y-82510571D01*
X142326358Y-82544056D01*
X142256666Y-82539072D01*
X142212319Y-82510571D01*
X142161265Y-82459517D01*
X142161263Y-82459515D01*
X142064237Y-82403497D01*
X141956018Y-82374500D01*
X141843982Y-82374500D01*
X141735763Y-82403497D01*
X141735760Y-82403498D01*
X141638740Y-82459513D01*
X141638734Y-82459517D01*
X141559517Y-82538734D01*
X141559513Y-82538740D01*
X141503498Y-82635760D01*
X141503497Y-82635763D01*
X141474500Y-82743982D01*
X131525500Y-82743982D01*
X131496503Y-82635763D01*
X131440485Y-82538737D01*
X131361263Y-82459515D01*
X131264237Y-82403497D01*
X131156018Y-82374500D01*
X131043982Y-82374500D01*
X130935763Y-82403497D01*
X130935760Y-82403498D01*
X130838740Y-82459513D01*
X130838734Y-82459517D01*
X130787681Y-82510571D01*
X130726358Y-82544056D01*
X130656666Y-82539072D01*
X130612319Y-82510571D01*
X130561265Y-82459517D01*
X130561263Y-82459515D01*
X130464237Y-82403497D01*
X130356018Y-82374500D01*
X130243982Y-82374500D01*
X130135763Y-82403497D01*
X130135760Y-82403498D01*
X130038740Y-82459513D01*
X130038734Y-82459517D01*
X129959517Y-82538734D01*
X129959513Y-82538740D01*
X129903498Y-82635760D01*
X129903497Y-82635763D01*
X129874500Y-82743982D01*
X120525500Y-82743982D01*
X120496503Y-82635763D01*
X120440485Y-82538737D01*
X120361263Y-82459515D01*
X120264237Y-82403497D01*
X120156018Y-82374500D01*
X120043982Y-82374500D01*
X119935763Y-82403497D01*
X119935760Y-82403498D01*
X119838740Y-82459513D01*
X119838734Y-82459517D01*
X119787681Y-82510571D01*
X119726358Y-82544056D01*
X119656666Y-82539072D01*
X119612319Y-82510571D01*
X119561265Y-82459517D01*
X119561263Y-82459515D01*
X119464237Y-82403497D01*
X119356018Y-82374500D01*
X119243982Y-82374500D01*
X119135763Y-82403497D01*
X119135760Y-82403498D01*
X119038740Y-82459513D01*
X119038734Y-82459517D01*
X118959517Y-82538734D01*
X118959513Y-82538740D01*
X118903498Y-82635760D01*
X118903497Y-82635763D01*
X118874500Y-82743982D01*
X86296195Y-82743982D01*
X85897878Y-82345665D01*
X85864394Y-82284343D01*
X85869378Y-82214651D01*
X85878169Y-82195992D01*
X85896503Y-82164237D01*
X85925500Y-82056018D01*
X85925500Y-81943982D01*
X85896503Y-81835763D01*
X85840485Y-81738737D01*
X85761263Y-81659515D01*
X85664237Y-81603497D01*
X85556018Y-81574500D01*
X85443982Y-81574500D01*
X85335763Y-81603497D01*
X85335760Y-81603498D01*
X85238740Y-81659513D01*
X85238734Y-81659517D01*
X85159517Y-81738734D01*
X85159513Y-81738740D01*
X85103498Y-81835760D01*
X85103497Y-81835763D01*
X85074500Y-81943982D01*
X85074500Y-82056016D01*
X85075561Y-82064074D01*
X85072475Y-82064480D01*
X85071173Y-82119605D01*
X85032022Y-82177476D01*
X84967799Y-82204992D01*
X84953054Y-82205872D01*
X84912610Y-82205872D01*
X84804391Y-82234869D01*
X84804388Y-82234870D01*
X84707368Y-82290885D01*
X84707362Y-82290889D01*
X84628145Y-82370106D01*
X84628141Y-82370112D01*
X84572126Y-82467132D01*
X84572125Y-82467135D01*
X84543128Y-82575354D01*
X61920319Y-82575354D01*
X61925500Y-82556018D01*
X61925500Y-82443982D01*
X61896503Y-82335763D01*
X61851371Y-82257593D01*
X61834900Y-82189698D01*
X61857752Y-82123671D01*
X61912673Y-82080480D01*
X61934562Y-82073981D01*
X61976205Y-82065698D01*
X62117337Y-82007239D01*
X62244352Y-81922370D01*
X62322740Y-81843982D01*
X81674500Y-81843982D01*
X81674500Y-81956018D01*
X81703454Y-82064074D01*
X81703497Y-82064236D01*
X81703498Y-82064239D01*
X81712875Y-82080480D01*
X81759515Y-82161263D01*
X81838737Y-82240485D01*
X81935763Y-82296503D01*
X82043982Y-82325500D01*
X82043984Y-82325500D01*
X82156016Y-82325500D01*
X82156018Y-82325500D01*
X82264237Y-82296503D01*
X82361263Y-82240485D01*
X82440485Y-82161263D01*
X82496503Y-82064237D01*
X82525500Y-81956018D01*
X82525500Y-81843982D01*
X82496503Y-81735763D01*
X82440485Y-81638737D01*
X82361263Y-81559515D01*
X82281407Y-81513410D01*
X82264239Y-81503498D01*
X82264238Y-81503497D01*
X82264237Y-81503497D01*
X82156018Y-81474500D01*
X82043982Y-81474500D01*
X81935763Y-81503497D01*
X81935760Y-81503498D01*
X81838740Y-81559513D01*
X81838734Y-81559517D01*
X81759517Y-81638734D01*
X81759513Y-81638740D01*
X81703498Y-81735760D01*
X81703497Y-81735763D01*
X81674500Y-81843982D01*
X62322740Y-81843982D01*
X62352370Y-81814352D01*
X62437239Y-81687337D01*
X62438959Y-81683183D01*
X62482798Y-81628779D01*
X62549091Y-81606711D01*
X62616791Y-81623988D01*
X62632055Y-81635845D01*
X62632291Y-81635538D01*
X62638731Y-81640479D01*
X62638737Y-81640485D01*
X62735763Y-81696503D01*
X62843982Y-81725500D01*
X62843984Y-81725500D01*
X62956016Y-81725500D01*
X62956018Y-81725500D01*
X63064237Y-81696503D01*
X63161263Y-81640485D01*
X63240485Y-81561263D01*
X63296503Y-81464237D01*
X63325500Y-81356018D01*
X63325500Y-81243982D01*
X63296503Y-81135763D01*
X63240485Y-81038737D01*
X63161263Y-80959515D01*
X63064237Y-80903497D01*
X62956018Y-80874500D01*
X62843982Y-80874500D01*
X62735763Y-80903497D01*
X62735760Y-80903498D01*
X62638740Y-80959513D01*
X62638737Y-80959515D01*
X62627530Y-80970722D01*
X62566206Y-81004205D01*
X62496514Y-80999218D01*
X62440582Y-80957346D01*
X62436749Y-80951929D01*
X62352370Y-80825648D01*
X62352367Y-80825644D01*
X62244355Y-80717632D01*
X62244351Y-80717629D01*
X62117343Y-80632764D01*
X62117334Y-80632759D01*
X61976205Y-80574302D01*
X61976197Y-80574300D01*
X61826384Y-80544500D01*
X61826380Y-80544500D01*
X61073620Y-80544500D01*
X61073615Y-80544500D01*
X60923802Y-80574300D01*
X60923794Y-80574302D01*
X60782665Y-80632759D01*
X60782656Y-80632764D01*
X60655648Y-80717629D01*
X60655644Y-80717632D01*
X60547632Y-80825644D01*
X60547629Y-80825648D01*
X60463250Y-80951929D01*
X60409637Y-80996734D01*
X60340312Y-81005441D01*
X60277285Y-80975286D01*
X60272467Y-80970719D01*
X60261265Y-80959517D01*
X60261263Y-80959515D01*
X60164237Y-80903497D01*
X60056018Y-80874500D01*
X59943982Y-80874500D01*
X59835763Y-80903497D01*
X59835760Y-80903498D01*
X59738740Y-80959513D01*
X59738734Y-80959517D01*
X59659517Y-81038734D01*
X59659513Y-81038740D01*
X59657385Y-81042426D01*
X59654776Y-81044913D01*
X59654567Y-81045186D01*
X59654524Y-81045153D01*
X59606816Y-81090640D01*
X59538209Y-81103860D01*
X59473345Y-81077890D01*
X59442615Y-81042426D01*
X59440911Y-81039475D01*
X59440485Y-81038737D01*
X59361263Y-80959515D01*
X59264237Y-80903497D01*
X59156018Y-80874500D01*
X59043982Y-80874500D01*
X58935763Y-80903497D01*
X58935760Y-80903498D01*
X58838740Y-80959513D01*
X58838737Y-80959515D01*
X58827530Y-80970722D01*
X58766206Y-81004205D01*
X58696514Y-80999218D01*
X58640582Y-80957346D01*
X58636749Y-80951929D01*
X58552370Y-80825648D01*
X58552367Y-80825644D01*
X58444355Y-80717632D01*
X58444351Y-80717629D01*
X58317343Y-80632764D01*
X58317334Y-80632759D01*
X58176205Y-80574302D01*
X58176202Y-80574301D01*
X58165639Y-80572200D01*
X58103729Y-80539813D01*
X58069156Y-80479097D01*
X58072897Y-80409327D01*
X58082443Y-80388589D01*
X58096503Y-80364237D01*
X58125500Y-80256018D01*
X58125500Y-80143982D01*
X58096503Y-80035763D01*
X58040485Y-79938737D01*
X57961263Y-79859515D01*
X57864237Y-79803497D01*
X57756018Y-79774500D01*
X57643982Y-79774500D01*
X57535763Y-79803497D01*
X57535760Y-79803498D01*
X57438740Y-79859513D01*
X57438734Y-79859517D01*
X57359517Y-79938734D01*
X57359513Y-79938740D01*
X57303498Y-80035760D01*
X57303497Y-80035763D01*
X57274500Y-80143982D01*
X57274500Y-80256018D01*
X57295868Y-80335763D01*
X57303497Y-80364236D01*
X57303498Y-80364239D01*
X57307252Y-80370741D01*
X57323725Y-80438642D01*
X57300872Y-80504668D01*
X57245951Y-80547859D01*
X57224057Y-80554358D01*
X57123800Y-80574300D01*
X57123794Y-80574302D01*
X56982665Y-80632759D01*
X56982656Y-80632764D01*
X56855648Y-80717629D01*
X56855644Y-80717632D01*
X56747632Y-80825644D01*
X56747629Y-80825648D01*
X56662764Y-80952656D01*
X56662759Y-80952666D01*
X56643465Y-80999247D01*
X56599624Y-81053650D01*
X56533330Y-81075715D01*
X56465630Y-81058436D01*
X56441223Y-81039475D01*
X56361265Y-80959517D01*
X56361263Y-80959515D01*
X56264237Y-80903497D01*
X56156018Y-80874500D01*
X56043982Y-80874500D01*
X55935763Y-80903497D01*
X55935760Y-80903498D01*
X55838740Y-80959513D01*
X55838734Y-80959517D01*
X55759517Y-81038734D01*
X55759513Y-81038740D01*
X55731887Y-81086590D01*
X55681320Y-81134806D01*
X55612713Y-81148029D01*
X55547848Y-81122060D01*
X55507320Y-81065146D01*
X55500500Y-81024590D01*
X55500500Y-79743982D01*
X59774500Y-79743982D01*
X59774500Y-79856018D01*
X59803497Y-79964237D01*
X59859515Y-80061263D01*
X59938737Y-80140485D01*
X60035763Y-80196503D01*
X60143982Y-80225500D01*
X60143984Y-80225500D01*
X60256016Y-80225500D01*
X60256018Y-80225500D01*
X60364237Y-80196503D01*
X60455206Y-80143982D01*
X65074500Y-80143982D01*
X65074500Y-80256018D01*
X65103497Y-80364237D01*
X65159515Y-80461263D01*
X65238737Y-80540485D01*
X65335763Y-80596503D01*
X65443982Y-80625500D01*
X65443984Y-80625500D01*
X65556016Y-80625500D01*
X65556018Y-80625500D01*
X65664237Y-80596503D01*
X65761263Y-80540485D01*
X65840485Y-80461263D01*
X65850462Y-80443982D01*
X111174500Y-80443982D01*
X111174500Y-80556018D01*
X111203497Y-80664237D01*
X111259515Y-80761263D01*
X111338737Y-80840485D01*
X111435763Y-80896503D01*
X111543982Y-80925500D01*
X111543984Y-80925500D01*
X111656016Y-80925500D01*
X111656018Y-80925500D01*
X111764237Y-80896503D01*
X111861263Y-80840485D01*
X111940485Y-80761263D01*
X111996503Y-80664237D01*
X112025500Y-80556018D01*
X112025500Y-80443982D01*
X111996503Y-80335763D01*
X111940485Y-80238737D01*
X111861263Y-80159515D01*
X111764237Y-80103497D01*
X111656018Y-80074500D01*
X111543982Y-80074500D01*
X111435763Y-80103497D01*
X111435760Y-80103498D01*
X111338740Y-80159513D01*
X111338734Y-80159517D01*
X111259517Y-80238734D01*
X111259513Y-80238740D01*
X111203498Y-80335760D01*
X111203497Y-80335763D01*
X111174500Y-80443982D01*
X65850462Y-80443982D01*
X65896503Y-80364237D01*
X65925500Y-80256018D01*
X65925500Y-80143982D01*
X65896503Y-80035763D01*
X65840485Y-79938737D01*
X65761263Y-79859515D01*
X65664237Y-79803497D01*
X65556018Y-79774500D01*
X65443982Y-79774500D01*
X65335763Y-79803497D01*
X65335760Y-79803498D01*
X65238740Y-79859513D01*
X65238734Y-79859517D01*
X65159517Y-79938734D01*
X65159513Y-79938740D01*
X65103498Y-80035760D01*
X65103497Y-80035763D01*
X65074500Y-80143982D01*
X60455206Y-80143982D01*
X60461263Y-80140485D01*
X60540485Y-80061263D01*
X60596503Y-79964237D01*
X60625500Y-79856018D01*
X60625500Y-79743982D01*
X60598705Y-79643982D01*
X62174500Y-79643982D01*
X62174500Y-79756018D01*
X62203497Y-79864237D01*
X62259515Y-79961263D01*
X62338737Y-80040485D01*
X62435763Y-80096503D01*
X62543982Y-80125500D01*
X62543984Y-80125500D01*
X62656016Y-80125500D01*
X62656018Y-80125500D01*
X62764237Y-80096503D01*
X62861263Y-80040485D01*
X62940485Y-79961263D01*
X62996503Y-79864237D01*
X63025500Y-79756018D01*
X63025500Y-79643982D01*
X62996503Y-79535763D01*
X62940485Y-79438737D01*
X62861263Y-79359515D01*
X62764237Y-79303497D01*
X62656018Y-79274500D01*
X62543982Y-79274500D01*
X62435763Y-79303497D01*
X62435760Y-79303498D01*
X62338740Y-79359513D01*
X62338734Y-79359517D01*
X62259517Y-79438734D01*
X62259513Y-79438740D01*
X62203498Y-79535760D01*
X62203497Y-79535763D01*
X62174500Y-79643982D01*
X60598705Y-79643982D01*
X60596503Y-79635763D01*
X60540485Y-79538737D01*
X60461263Y-79459515D01*
X60364237Y-79403497D01*
X60256018Y-79374500D01*
X60143982Y-79374500D01*
X60035763Y-79403497D01*
X60035760Y-79403498D01*
X59938740Y-79459513D01*
X59938734Y-79459517D01*
X59859517Y-79538734D01*
X59859513Y-79538740D01*
X59803498Y-79635760D01*
X59803497Y-79635763D01*
X59774500Y-79743982D01*
X55500500Y-79743982D01*
X55500500Y-79243982D01*
X81474500Y-79243982D01*
X81474500Y-79356018D01*
X81503497Y-79464237D01*
X81559515Y-79561263D01*
X81638737Y-79640485D01*
X81735763Y-79696503D01*
X81843982Y-79725500D01*
X81843984Y-79725500D01*
X81956016Y-79725500D01*
X81956018Y-79725500D01*
X82064237Y-79696503D01*
X82161263Y-79640485D01*
X82240485Y-79561263D01*
X82296503Y-79464237D01*
X82325500Y-79356018D01*
X82325500Y-79243982D01*
X82296503Y-79135763D01*
X82240485Y-79038737D01*
X82161263Y-78959515D01*
X82134359Y-78943982D01*
X98774500Y-78943982D01*
X98774500Y-79056018D01*
X98803497Y-79164237D01*
X98859515Y-79261263D01*
X98938737Y-79340485D01*
X99035763Y-79396503D01*
X99143982Y-79425500D01*
X99143984Y-79425500D01*
X99256016Y-79425500D01*
X99256018Y-79425500D01*
X99364237Y-79396503D01*
X99461263Y-79340485D01*
X99540485Y-79261263D01*
X99596503Y-79164237D01*
X99625500Y-79056018D01*
X99625500Y-78943982D01*
X99596503Y-78835763D01*
X99540485Y-78738737D01*
X99461263Y-78659515D01*
X99364237Y-78603497D01*
X99256018Y-78574500D01*
X99143982Y-78574500D01*
X99035763Y-78603497D01*
X99035760Y-78603498D01*
X98938740Y-78659513D01*
X98938734Y-78659517D01*
X98859517Y-78738734D01*
X98859513Y-78738740D01*
X98803498Y-78835760D01*
X98803497Y-78835763D01*
X98774500Y-78943982D01*
X82134359Y-78943982D01*
X82064237Y-78903497D01*
X81956018Y-78874500D01*
X81843982Y-78874500D01*
X81735763Y-78903497D01*
X81735760Y-78903498D01*
X81638740Y-78959513D01*
X81638734Y-78959517D01*
X81559517Y-79038734D01*
X81559513Y-79038740D01*
X81503498Y-79135760D01*
X81503497Y-79135763D01*
X81474500Y-79243982D01*
X55500500Y-79243982D01*
X55500500Y-78643982D01*
X65474500Y-78643982D01*
X65474500Y-78756018D01*
X65503497Y-78864237D01*
X65559515Y-78961263D01*
X65638737Y-79040485D01*
X65735763Y-79096503D01*
X65843982Y-79125500D01*
X65843984Y-79125500D01*
X65956016Y-79125500D01*
X65956018Y-79125500D01*
X66064237Y-79096503D01*
X66161263Y-79040485D01*
X66240485Y-78961263D01*
X66296503Y-78864237D01*
X66325500Y-78756018D01*
X66325500Y-78643982D01*
X66296503Y-78535763D01*
X66240485Y-78438737D01*
X66161263Y-78359515D01*
X66064237Y-78303497D01*
X65956018Y-78274500D01*
X65843982Y-78274500D01*
X65735763Y-78303497D01*
X65735760Y-78303498D01*
X65638740Y-78359513D01*
X65638734Y-78359517D01*
X65559517Y-78438734D01*
X65559513Y-78438740D01*
X65503498Y-78535760D01*
X65503497Y-78535763D01*
X65474500Y-78643982D01*
X55500500Y-78643982D01*
X55500500Y-78043982D01*
X87674500Y-78043982D01*
X87674500Y-78156018D01*
X87703497Y-78264237D01*
X87759515Y-78361263D01*
X87838737Y-78440485D01*
X87935763Y-78496503D01*
X88043982Y-78525500D01*
X88043984Y-78525500D01*
X88156016Y-78525500D01*
X88156018Y-78525500D01*
X88264237Y-78496503D01*
X88361263Y-78440485D01*
X88440485Y-78361263D01*
X88496503Y-78264237D01*
X88525500Y-78156018D01*
X88525500Y-78043982D01*
X88496503Y-77935763D01*
X88440485Y-77838737D01*
X88361263Y-77759515D01*
X88264237Y-77703497D01*
X88156018Y-77674500D01*
X88043982Y-77674500D01*
X87935763Y-77703497D01*
X87935760Y-77703498D01*
X87838740Y-77759513D01*
X87838733Y-77759518D01*
X87806559Y-77791691D01*
X87806554Y-77791697D01*
X87759515Y-77838737D01*
X87703497Y-77935763D01*
X87701391Y-77943622D01*
X87701390Y-77943624D01*
X87675438Y-78040482D01*
X87674500Y-78043982D01*
X55500500Y-78043982D01*
X55500500Y-77443982D01*
X86774500Y-77443982D01*
X86774500Y-77556018D01*
X86803497Y-77664237D01*
X86859515Y-77761263D01*
X86938737Y-77840485D01*
X87035763Y-77896503D01*
X87143982Y-77925500D01*
X87143984Y-77925500D01*
X87256016Y-77925500D01*
X87256018Y-77925500D01*
X87364237Y-77896503D01*
X87461263Y-77840485D01*
X87540485Y-77761263D01*
X87596503Y-77664237D01*
X87601930Y-77643982D01*
X99774500Y-77643982D01*
X99774500Y-77756018D01*
X99803497Y-77864237D01*
X99859515Y-77961263D01*
X99938737Y-78040485D01*
X100035763Y-78096503D01*
X100143982Y-78125500D01*
X100143984Y-78125500D01*
X100256016Y-78125500D01*
X100256018Y-78125500D01*
X100364237Y-78096503D01*
X100461263Y-78040485D01*
X100540485Y-77961263D01*
X100596503Y-77864237D01*
X100625500Y-77756018D01*
X100625500Y-77643982D01*
X100596503Y-77535763D01*
X100540485Y-77438737D01*
X100461263Y-77359515D01*
X100364237Y-77303497D01*
X100256018Y-77274500D01*
X100143982Y-77274500D01*
X100035763Y-77303497D01*
X100035760Y-77303498D01*
X99938740Y-77359513D01*
X99938734Y-77359517D01*
X99859517Y-77438734D01*
X99859513Y-77438740D01*
X99803498Y-77535760D01*
X99803497Y-77535763D01*
X99774500Y-77643982D01*
X87601930Y-77643982D01*
X87625500Y-77556018D01*
X87625500Y-77443982D01*
X87596503Y-77335763D01*
X87540485Y-77238737D01*
X87461263Y-77159515D01*
X87364237Y-77103497D01*
X87256018Y-77074500D01*
X87143982Y-77074500D01*
X87035763Y-77103497D01*
X87035760Y-77103498D01*
X86938740Y-77159513D01*
X86938734Y-77159517D01*
X86859517Y-77238734D01*
X86859513Y-77238740D01*
X86803498Y-77335760D01*
X86803497Y-77335763D01*
X86774500Y-77443982D01*
X55500500Y-77443982D01*
X55500500Y-76943982D01*
X64574500Y-76943982D01*
X64574500Y-77056018D01*
X64603497Y-77164237D01*
X64659515Y-77261263D01*
X64738737Y-77340485D01*
X64835763Y-77396503D01*
X64943982Y-77425500D01*
X64943984Y-77425500D01*
X65056016Y-77425500D01*
X65056018Y-77425500D01*
X65164237Y-77396503D01*
X65261263Y-77340485D01*
X65340485Y-77261263D01*
X65396503Y-77164237D01*
X65425500Y-77056018D01*
X65425500Y-76943982D01*
X65396503Y-76835763D01*
X65340485Y-76738737D01*
X65261263Y-76659515D01*
X65164237Y-76603497D01*
X65056018Y-76574500D01*
X64943982Y-76574500D01*
X64835763Y-76603497D01*
X64835760Y-76603498D01*
X64738740Y-76659513D01*
X64738734Y-76659517D01*
X64659517Y-76738734D01*
X64659513Y-76738740D01*
X64603498Y-76835760D01*
X64603497Y-76835763D01*
X64574500Y-76943982D01*
X55500500Y-76943982D01*
X55500500Y-76443982D01*
X80274500Y-76443982D01*
X80274500Y-76556018D01*
X80303497Y-76664237D01*
X80359515Y-76761263D01*
X80438737Y-76840485D01*
X80535763Y-76896503D01*
X80643982Y-76925500D01*
X80643984Y-76925500D01*
X80756016Y-76925500D01*
X80756018Y-76925500D01*
X80864237Y-76896503D01*
X80961263Y-76840485D01*
X81040485Y-76761263D01*
X81096503Y-76664237D01*
X81125500Y-76556018D01*
X81125500Y-76443982D01*
X81096503Y-76335763D01*
X81043513Y-76243982D01*
X81874500Y-76243982D01*
X81874500Y-76356018D01*
X81903497Y-76464237D01*
X81959515Y-76561263D01*
X82038737Y-76640485D01*
X82135763Y-76696503D01*
X82243982Y-76725500D01*
X82243984Y-76725500D01*
X82356016Y-76725500D01*
X82356018Y-76725500D01*
X82464237Y-76696503D01*
X82561263Y-76640485D01*
X82640485Y-76561263D01*
X82696503Y-76464237D01*
X82725500Y-76356018D01*
X82725500Y-76243982D01*
X82696503Y-76135763D01*
X82640485Y-76038737D01*
X82561263Y-75959515D01*
X82464237Y-75903497D01*
X82356018Y-75874500D01*
X82243982Y-75874500D01*
X82135763Y-75903497D01*
X82135760Y-75903498D01*
X82038740Y-75959513D01*
X82038734Y-75959517D01*
X81959517Y-76038734D01*
X81959513Y-76038740D01*
X81903498Y-76135760D01*
X81903497Y-76135763D01*
X81874500Y-76243982D01*
X81043513Y-76243982D01*
X81040485Y-76238737D01*
X80961263Y-76159515D01*
X80864237Y-76103497D01*
X80756018Y-76074500D01*
X80643982Y-76074500D01*
X80535763Y-76103497D01*
X80535760Y-76103498D01*
X80438740Y-76159513D01*
X80438734Y-76159517D01*
X80359517Y-76238734D01*
X80359513Y-76238740D01*
X80303498Y-76335760D01*
X80303497Y-76335763D01*
X80274500Y-76443982D01*
X55500500Y-76443982D01*
X55500500Y-75143982D01*
X65474500Y-75143982D01*
X65474500Y-75256018D01*
X65503497Y-75364237D01*
X65559515Y-75461263D01*
X65638737Y-75540485D01*
X65735763Y-75596503D01*
X65843982Y-75625500D01*
X65843984Y-75625500D01*
X65956016Y-75625500D01*
X65956018Y-75625500D01*
X66064237Y-75596503D01*
X66161263Y-75540485D01*
X66240485Y-75461263D01*
X66296503Y-75364237D01*
X66325500Y-75256018D01*
X66325500Y-75143982D01*
X66296503Y-75035763D01*
X66240485Y-74938737D01*
X66161263Y-74859515D01*
X66064237Y-74803497D01*
X65956018Y-74774500D01*
X65843982Y-74774500D01*
X65735763Y-74803497D01*
X65735760Y-74803498D01*
X65638740Y-74859513D01*
X65638734Y-74859517D01*
X65559517Y-74938734D01*
X65559513Y-74938740D01*
X65503498Y-75035760D01*
X65503497Y-75035763D01*
X65474500Y-75143982D01*
X55500500Y-75143982D01*
X55500500Y-74143982D01*
X59874500Y-74143982D01*
X59874500Y-74256018D01*
X59903497Y-74364237D01*
X59959515Y-74461263D01*
X60038737Y-74540485D01*
X60135763Y-74596503D01*
X60243982Y-74625500D01*
X60243984Y-74625500D01*
X60356016Y-74625500D01*
X60356018Y-74625500D01*
X60464237Y-74596503D01*
X60561263Y-74540485D01*
X60640485Y-74461263D01*
X60696503Y-74364237D01*
X60725500Y-74256018D01*
X60725500Y-74143982D01*
X62174500Y-74143982D01*
X62174500Y-74256018D01*
X62203497Y-74364237D01*
X62259515Y-74461263D01*
X62338737Y-74540485D01*
X62435763Y-74596503D01*
X62543982Y-74625500D01*
X62543984Y-74625500D01*
X62656016Y-74625500D01*
X62656018Y-74625500D01*
X62764237Y-74596503D01*
X62861263Y-74540485D01*
X62940485Y-74461263D01*
X62996503Y-74364237D01*
X63025500Y-74256018D01*
X63025500Y-74143982D01*
X62996503Y-74035763D01*
X62940485Y-73938737D01*
X62861263Y-73859515D01*
X62796579Y-73822169D01*
X62764239Y-73803498D01*
X62764238Y-73803497D01*
X62764237Y-73803497D01*
X62656018Y-73774500D01*
X62543982Y-73774500D01*
X62435763Y-73803497D01*
X62435760Y-73803498D01*
X62338740Y-73859513D01*
X62338734Y-73859517D01*
X62259517Y-73938734D01*
X62259513Y-73938740D01*
X62203498Y-74035760D01*
X62203497Y-74035763D01*
X62174500Y-74143982D01*
X60725500Y-74143982D01*
X60696503Y-74035763D01*
X60640485Y-73938737D01*
X60561263Y-73859515D01*
X60496579Y-73822169D01*
X60464239Y-73803498D01*
X60464238Y-73803497D01*
X60464237Y-73803497D01*
X60356018Y-73774500D01*
X60243982Y-73774500D01*
X60135763Y-73803497D01*
X60135760Y-73803498D01*
X60038740Y-73859513D01*
X60038734Y-73859517D01*
X59959517Y-73938734D01*
X59959513Y-73938740D01*
X59903498Y-74035760D01*
X59903497Y-74035763D01*
X59874500Y-74143982D01*
X55500500Y-74143982D01*
X55500500Y-72643982D01*
X55974500Y-72643982D01*
X55974500Y-72756018D01*
X56003497Y-72864237D01*
X56059515Y-72961263D01*
X56138737Y-73040485D01*
X56235763Y-73096503D01*
X56343982Y-73125500D01*
X56343984Y-73125500D01*
X56456016Y-73125500D01*
X56456018Y-73125500D01*
X56564237Y-73096503D01*
X56564244Y-73096498D01*
X56571751Y-73093391D01*
X56572965Y-73096323D01*
X56626333Y-73083364D01*
X56692365Y-73106201D01*
X56723563Y-73138334D01*
X56747629Y-73174351D01*
X56747632Y-73174355D01*
X56855644Y-73282367D01*
X56855648Y-73282370D01*
X56982656Y-73367235D01*
X56982662Y-73367238D01*
X56982663Y-73367239D01*
X57123795Y-73425698D01*
X57162702Y-73433437D01*
X57192553Y-73439375D01*
X57254464Y-73471759D01*
X57289038Y-73532475D01*
X57288137Y-73593083D01*
X57274500Y-73643977D01*
X57274500Y-73643982D01*
X57274500Y-73756018D01*
X57303497Y-73864237D01*
X57359515Y-73961263D01*
X57438737Y-74040485D01*
X57535763Y-74096503D01*
X57643982Y-74125500D01*
X57643984Y-74125500D01*
X57756016Y-74125500D01*
X57756018Y-74125500D01*
X57864237Y-74096503D01*
X57961263Y-74040485D01*
X58040485Y-73961263D01*
X58096503Y-73864237D01*
X58125500Y-73756018D01*
X58125500Y-73643982D01*
X58106064Y-73571445D01*
X58107727Y-73501599D01*
X58146889Y-73443736D01*
X58178387Y-73424794D01*
X58317330Y-73367242D01*
X58317330Y-73367241D01*
X58317337Y-73367239D01*
X58444352Y-73282370D01*
X58552370Y-73174352D01*
X58604275Y-73096671D01*
X58657887Y-73051866D01*
X58727212Y-73043159D01*
X58769376Y-73058174D01*
X58835763Y-73096503D01*
X58943982Y-73125500D01*
X58943984Y-73125500D01*
X59056016Y-73125500D01*
X59056018Y-73125500D01*
X59164237Y-73096503D01*
X59261263Y-73040485D01*
X59340485Y-72961263D01*
X59396503Y-72864237D01*
X59425500Y-72756018D01*
X59425500Y-72643982D01*
X59674500Y-72643982D01*
X59674500Y-72756018D01*
X59703497Y-72864237D01*
X59759515Y-72961263D01*
X59838737Y-73040485D01*
X59935763Y-73096503D01*
X60043982Y-73125500D01*
X60043984Y-73125500D01*
X60156016Y-73125500D01*
X60156018Y-73125500D01*
X60264237Y-73096503D01*
X60330623Y-73058174D01*
X60398522Y-73041701D01*
X60464549Y-73064553D01*
X60495722Y-73096667D01*
X60523565Y-73138336D01*
X60547631Y-73174354D01*
X60655644Y-73282367D01*
X60655648Y-73282370D01*
X60782656Y-73367235D01*
X60782662Y-73367238D01*
X60782663Y-73367239D01*
X60923795Y-73425698D01*
X60974691Y-73435822D01*
X61036602Y-73468206D01*
X61071176Y-73528922D01*
X61073395Y-73547963D01*
X61073439Y-73547958D01*
X61074500Y-73556017D01*
X61074500Y-73556018D01*
X61103497Y-73664237D01*
X61159515Y-73761263D01*
X61238737Y-73840485D01*
X61335763Y-73896503D01*
X61443982Y-73925500D01*
X61443984Y-73925500D01*
X61556016Y-73925500D01*
X61556018Y-73925500D01*
X61664237Y-73896503D01*
X61761263Y-73840485D01*
X61840485Y-73761263D01*
X61896503Y-73664237D01*
X61901930Y-73643982D01*
X65074500Y-73643982D01*
X65074500Y-73756018D01*
X65103497Y-73864237D01*
X65159515Y-73961263D01*
X65238737Y-74040485D01*
X65335763Y-74096503D01*
X65443982Y-74125500D01*
X65443984Y-74125500D01*
X65556016Y-74125500D01*
X65556018Y-74125500D01*
X65664237Y-74096503D01*
X65761263Y-74040485D01*
X65840485Y-73961263D01*
X65896503Y-73864237D01*
X65901930Y-73843982D01*
X100074500Y-73843982D01*
X100074500Y-73956018D01*
X100103497Y-74064237D01*
X100159515Y-74161263D01*
X100238737Y-74240485D01*
X100335763Y-74296503D01*
X100443982Y-74325500D01*
X100443984Y-74325500D01*
X100556016Y-74325500D01*
X100556018Y-74325500D01*
X100664237Y-74296503D01*
X100761263Y-74240485D01*
X100840485Y-74161263D01*
X100896503Y-74064237D01*
X100925500Y-73956018D01*
X100925500Y-73843982D01*
X100896503Y-73735763D01*
X100840485Y-73638737D01*
X100761263Y-73559515D01*
X100696579Y-73522169D01*
X100664239Y-73503498D01*
X100664238Y-73503497D01*
X100664237Y-73503497D01*
X100556018Y-73474500D01*
X100443982Y-73474500D01*
X100335763Y-73503497D01*
X100335760Y-73503498D01*
X100238740Y-73559513D01*
X100238734Y-73559517D01*
X100159517Y-73638734D01*
X100159513Y-73638740D01*
X100103498Y-73735760D01*
X100103497Y-73735763D01*
X100074500Y-73843982D01*
X65901930Y-73843982D01*
X65925500Y-73756018D01*
X65925500Y-73643982D01*
X65896503Y-73535763D01*
X65840485Y-73438737D01*
X65761263Y-73359515D01*
X65664237Y-73303497D01*
X65556018Y-73274500D01*
X65443982Y-73274500D01*
X65335763Y-73303497D01*
X65335760Y-73303498D01*
X65238740Y-73359513D01*
X65238734Y-73359517D01*
X65159517Y-73438734D01*
X65159513Y-73438740D01*
X65103498Y-73535760D01*
X65103497Y-73535763D01*
X65074500Y-73643982D01*
X61901930Y-73643982D01*
X61925500Y-73556018D01*
X61925500Y-73519689D01*
X61927059Y-73509952D01*
X61938009Y-73486951D01*
X61945185Y-73462515D01*
X61952775Y-73455937D01*
X61957094Y-73446867D01*
X61978741Y-73433437D01*
X61997989Y-73416760D01*
X62002027Y-73415002D01*
X62117337Y-73367239D01*
X62244352Y-73282370D01*
X62352370Y-73174352D01*
X62376437Y-73138334D01*
X62430047Y-73093530D01*
X62499371Y-73084821D01*
X62527630Y-73094883D01*
X62528249Y-73093391D01*
X62535758Y-73096500D01*
X62535763Y-73096503D01*
X62643982Y-73125500D01*
X62643984Y-73125500D01*
X62756016Y-73125500D01*
X62756018Y-73125500D01*
X62864237Y-73096503D01*
X62961263Y-73040485D01*
X63040485Y-72961263D01*
X63096503Y-72864237D01*
X63125500Y-72756018D01*
X63125500Y-72643982D01*
X63096503Y-72535763D01*
X63043513Y-72443982D01*
X111074500Y-72443982D01*
X111074500Y-72556018D01*
X111103497Y-72664237D01*
X111159515Y-72761263D01*
X111238737Y-72840485D01*
X111335763Y-72896503D01*
X111443982Y-72925500D01*
X111443984Y-72925500D01*
X111556016Y-72925500D01*
X111556018Y-72925500D01*
X111664237Y-72896503D01*
X111761263Y-72840485D01*
X111840485Y-72761263D01*
X111896503Y-72664237D01*
X111925500Y-72556018D01*
X111925500Y-72443982D01*
X111896503Y-72335763D01*
X111840485Y-72238737D01*
X111761263Y-72159515D01*
X111664237Y-72103497D01*
X111556018Y-72074500D01*
X111443982Y-72074500D01*
X111335763Y-72103497D01*
X111335760Y-72103498D01*
X111238740Y-72159513D01*
X111238734Y-72159517D01*
X111159517Y-72238734D01*
X111159513Y-72238740D01*
X111103498Y-72335760D01*
X111103497Y-72335763D01*
X111074500Y-72443982D01*
X63043513Y-72443982D01*
X63040485Y-72438737D01*
X62961263Y-72359515D01*
X62880113Y-72312663D01*
X62864239Y-72303498D01*
X62864238Y-72303497D01*
X62864237Y-72303497D01*
X62756018Y-72274500D01*
X62643982Y-72274500D01*
X62643980Y-72274500D01*
X62532833Y-72304281D01*
X62462983Y-72302618D01*
X62405121Y-72263455D01*
X62397639Y-72253397D01*
X62352370Y-72185648D01*
X62352367Y-72185644D01*
X62244355Y-72077632D01*
X62244351Y-72077629D01*
X62117343Y-71992764D01*
X62117333Y-71992759D01*
X62002047Y-71945006D01*
X61947644Y-71901165D01*
X61925579Y-71834871D01*
X61925500Y-71830445D01*
X61925500Y-71743984D01*
X61925500Y-71743982D01*
X61896503Y-71635763D01*
X61840485Y-71538737D01*
X61761263Y-71459515D01*
X61664237Y-71403497D01*
X61556018Y-71374500D01*
X61443982Y-71374500D01*
X61335763Y-71403497D01*
X61335760Y-71403498D01*
X61238740Y-71459513D01*
X61238734Y-71459517D01*
X61159517Y-71538734D01*
X61159513Y-71538740D01*
X61103498Y-71635760D01*
X61103497Y-71635763D01*
X61074500Y-71743982D01*
X61074500Y-71802560D01*
X61054815Y-71869599D01*
X61002011Y-71915354D01*
X60974693Y-71924177D01*
X60923799Y-71934301D01*
X60923794Y-71934302D01*
X60782665Y-71992759D01*
X60782656Y-71992764D01*
X60655648Y-72077629D01*
X60655644Y-72077632D01*
X60547632Y-72185644D01*
X60547629Y-72185648D01*
X60476438Y-72292193D01*
X60422826Y-72336998D01*
X60353501Y-72345705D01*
X60311337Y-72330690D01*
X60264237Y-72303497D01*
X60156018Y-72274500D01*
X60043982Y-72274500D01*
X59935763Y-72303497D01*
X59935760Y-72303498D01*
X59838740Y-72359513D01*
X59838734Y-72359517D01*
X59759517Y-72438734D01*
X59759513Y-72438740D01*
X59703498Y-72535760D01*
X59703497Y-72535763D01*
X59674500Y-72643982D01*
X59425500Y-72643982D01*
X59396503Y-72535763D01*
X59340485Y-72438737D01*
X59261263Y-72359515D01*
X59180113Y-72312663D01*
X59164239Y-72303498D01*
X59164238Y-72303497D01*
X59164237Y-72303497D01*
X59056018Y-72274500D01*
X58943982Y-72274500D01*
X58835763Y-72303497D01*
X58835762Y-72303497D01*
X58788663Y-72330690D01*
X58720763Y-72347162D01*
X58654736Y-72324309D01*
X58623562Y-72292193D01*
X58552370Y-72185648D01*
X58552367Y-72185644D01*
X58444355Y-72077632D01*
X58444351Y-72077629D01*
X58317343Y-71992764D01*
X58317333Y-71992759D01*
X58188033Y-71939201D01*
X58133630Y-71895360D01*
X58111565Y-71829066D01*
X58115711Y-71792549D01*
X58125500Y-71756018D01*
X58125500Y-71643982D01*
X58096503Y-71535763D01*
X58040485Y-71438737D01*
X57961263Y-71359515D01*
X57864237Y-71303497D01*
X57756018Y-71274500D01*
X57643982Y-71274500D01*
X57535763Y-71303497D01*
X57535760Y-71303498D01*
X57438740Y-71359513D01*
X57438734Y-71359517D01*
X57359517Y-71438734D01*
X57359513Y-71438740D01*
X57303498Y-71535760D01*
X57303497Y-71535763D01*
X57274500Y-71643982D01*
X57274500Y-71756019D01*
X57277962Y-71768939D01*
X57276299Y-71838789D01*
X57237135Y-71896651D01*
X57182379Y-71922648D01*
X57123800Y-71934300D01*
X57123794Y-71934302D01*
X56982665Y-71992759D01*
X56982656Y-71992764D01*
X56855648Y-72077629D01*
X56855644Y-72077632D01*
X56747632Y-72185644D01*
X56747629Y-72185648D01*
X56702360Y-72253398D01*
X56648747Y-72298203D01*
X56579422Y-72306910D01*
X56567165Y-72304282D01*
X56564238Y-72303497D01*
X56564237Y-72303497D01*
X56456018Y-72274500D01*
X56343982Y-72274500D01*
X56235763Y-72303497D01*
X56235760Y-72303498D01*
X56138740Y-72359513D01*
X56138734Y-72359517D01*
X56059517Y-72438734D01*
X56059513Y-72438740D01*
X56003498Y-72535760D01*
X56003497Y-72535763D01*
X55974500Y-72643982D01*
X55500500Y-72643982D01*
X55500500Y-70843982D01*
X98874500Y-70843982D01*
X98874500Y-70956018D01*
X98903497Y-71064237D01*
X98959515Y-71161263D01*
X99038737Y-71240485D01*
X99135763Y-71296503D01*
X99243982Y-71325500D01*
X99243984Y-71325500D01*
X99356016Y-71325500D01*
X99356018Y-71325500D01*
X99464237Y-71296503D01*
X99555206Y-71243982D01*
X115274500Y-71243982D01*
X115274500Y-71356018D01*
X115303497Y-71464237D01*
X115359515Y-71561263D01*
X115438737Y-71640485D01*
X115535763Y-71696503D01*
X115643982Y-71725500D01*
X115643984Y-71725500D01*
X115756016Y-71725500D01*
X115756018Y-71725500D01*
X115864237Y-71696503D01*
X115961263Y-71640485D01*
X116040485Y-71561263D01*
X116096503Y-71464237D01*
X116125500Y-71356018D01*
X116125500Y-71243982D01*
X117174500Y-71243982D01*
X117174500Y-71356018D01*
X117203497Y-71464237D01*
X117259515Y-71561263D01*
X117338737Y-71640485D01*
X117435763Y-71696503D01*
X117543982Y-71725500D01*
X117543984Y-71725500D01*
X117656016Y-71725500D01*
X117656018Y-71725500D01*
X117764237Y-71696503D01*
X117861263Y-71640485D01*
X117940485Y-71561263D01*
X117996503Y-71464237D01*
X118025500Y-71356018D01*
X118025500Y-71243982D01*
X118474500Y-71243982D01*
X118474500Y-71356018D01*
X118503497Y-71464237D01*
X118559515Y-71561263D01*
X118638737Y-71640485D01*
X118735763Y-71696503D01*
X118843982Y-71725500D01*
X118843984Y-71725500D01*
X118956016Y-71725500D01*
X118956018Y-71725500D01*
X119064237Y-71696503D01*
X119161263Y-71640485D01*
X119212319Y-71589429D01*
X119273642Y-71555944D01*
X119343334Y-71560928D01*
X119387681Y-71589429D01*
X119438737Y-71640485D01*
X119535763Y-71696503D01*
X119643982Y-71725500D01*
X119643984Y-71725500D01*
X119756016Y-71725500D01*
X119756018Y-71725500D01*
X119864237Y-71696503D01*
X119961263Y-71640485D01*
X120040485Y-71561263D01*
X120096503Y-71464237D01*
X120125500Y-71356018D01*
X120125500Y-71243982D01*
X120974500Y-71243982D01*
X120974500Y-71356018D01*
X121003497Y-71464237D01*
X121059515Y-71561263D01*
X121138737Y-71640485D01*
X121235763Y-71696503D01*
X121343982Y-71725500D01*
X121343984Y-71725500D01*
X121456016Y-71725500D01*
X121456018Y-71725500D01*
X121564237Y-71696503D01*
X121661263Y-71640485D01*
X121740485Y-71561263D01*
X121796503Y-71464237D01*
X121825500Y-71356018D01*
X121825500Y-71243982D01*
X122874500Y-71243982D01*
X122874500Y-71356018D01*
X122903497Y-71464237D01*
X122959515Y-71561263D01*
X123038737Y-71640485D01*
X123135763Y-71696503D01*
X123243982Y-71725500D01*
X123243984Y-71725500D01*
X123356016Y-71725500D01*
X123356018Y-71725500D01*
X123464237Y-71696503D01*
X123561263Y-71640485D01*
X123640485Y-71561263D01*
X123696503Y-71464237D01*
X123725500Y-71356018D01*
X123725500Y-71243982D01*
X123698705Y-71143982D01*
X126674500Y-71143982D01*
X126674500Y-71256018D01*
X126703497Y-71364237D01*
X126759515Y-71461263D01*
X126838737Y-71540485D01*
X126935763Y-71596503D01*
X127043982Y-71625500D01*
X127043984Y-71625500D01*
X127156016Y-71625500D01*
X127156018Y-71625500D01*
X127264237Y-71596503D01*
X127361263Y-71540485D01*
X127440485Y-71461263D01*
X127496503Y-71364237D01*
X127525500Y-71256018D01*
X127525500Y-71143982D01*
X128574500Y-71143982D01*
X128574500Y-71256018D01*
X128603497Y-71364237D01*
X128659515Y-71461263D01*
X128738737Y-71540485D01*
X128835763Y-71596503D01*
X128943982Y-71625500D01*
X128943984Y-71625500D01*
X129056016Y-71625500D01*
X129056018Y-71625500D01*
X129164237Y-71596503D01*
X129261263Y-71540485D01*
X129340485Y-71461263D01*
X129396503Y-71364237D01*
X129425500Y-71256018D01*
X129425500Y-71143982D01*
X129874500Y-71143982D01*
X129874500Y-71256018D01*
X129903497Y-71364237D01*
X129959515Y-71461263D01*
X130038737Y-71540485D01*
X130135763Y-71596503D01*
X130243982Y-71625500D01*
X130243984Y-71625500D01*
X130356016Y-71625500D01*
X130356018Y-71625500D01*
X130464237Y-71596503D01*
X130561263Y-71540485D01*
X130612319Y-71489429D01*
X130673642Y-71455944D01*
X130743334Y-71460928D01*
X130787681Y-71489429D01*
X130838737Y-71540485D01*
X130935763Y-71596503D01*
X131043982Y-71625500D01*
X131043984Y-71625500D01*
X131156016Y-71625500D01*
X131156018Y-71625500D01*
X131264237Y-71596503D01*
X131361263Y-71540485D01*
X131440485Y-71461263D01*
X131496503Y-71364237D01*
X131525500Y-71256018D01*
X131525500Y-71143982D01*
X132374500Y-71143982D01*
X132374500Y-71256018D01*
X132403497Y-71364237D01*
X132459515Y-71461263D01*
X132538737Y-71540485D01*
X132635763Y-71596503D01*
X132743982Y-71625500D01*
X132743984Y-71625500D01*
X132856016Y-71625500D01*
X132856018Y-71625500D01*
X132964237Y-71596503D01*
X133061263Y-71540485D01*
X133140485Y-71461263D01*
X133196503Y-71364237D01*
X133225500Y-71256018D01*
X133225500Y-71143982D01*
X134274500Y-71143982D01*
X134274500Y-71256018D01*
X134303497Y-71364237D01*
X134359515Y-71461263D01*
X134438737Y-71540485D01*
X134535763Y-71596503D01*
X134643982Y-71625500D01*
X134643984Y-71625500D01*
X134756016Y-71625500D01*
X134756018Y-71625500D01*
X134864237Y-71596503D01*
X134961263Y-71540485D01*
X135040485Y-71461263D01*
X135096503Y-71364237D01*
X135125500Y-71256018D01*
X135125500Y-71143982D01*
X138274500Y-71143982D01*
X138274500Y-71256018D01*
X138303497Y-71364237D01*
X138359515Y-71461263D01*
X138438737Y-71540485D01*
X138535763Y-71596503D01*
X138643982Y-71625500D01*
X138643984Y-71625500D01*
X138756016Y-71625500D01*
X138756018Y-71625500D01*
X138864237Y-71596503D01*
X138961263Y-71540485D01*
X139040485Y-71461263D01*
X139096503Y-71364237D01*
X139125500Y-71256018D01*
X139125500Y-71143982D01*
X140174500Y-71143982D01*
X140174500Y-71256018D01*
X140203497Y-71364237D01*
X140259515Y-71461263D01*
X140338737Y-71540485D01*
X140435763Y-71596503D01*
X140543982Y-71625500D01*
X140543984Y-71625500D01*
X140656016Y-71625500D01*
X140656018Y-71625500D01*
X140764237Y-71596503D01*
X140861263Y-71540485D01*
X140940485Y-71461263D01*
X140996503Y-71364237D01*
X141025500Y-71256018D01*
X141025500Y-71143982D01*
X141474500Y-71143982D01*
X141474500Y-71256018D01*
X141503497Y-71364237D01*
X141559515Y-71461263D01*
X141638737Y-71540485D01*
X141735763Y-71596503D01*
X141843982Y-71625500D01*
X141843984Y-71625500D01*
X141956016Y-71625500D01*
X141956018Y-71625500D01*
X142064237Y-71596503D01*
X142161263Y-71540485D01*
X142212319Y-71489429D01*
X142273642Y-71455944D01*
X142343334Y-71460928D01*
X142387681Y-71489429D01*
X142438737Y-71540485D01*
X142535763Y-71596503D01*
X142643982Y-71625500D01*
X142643984Y-71625500D01*
X142756016Y-71625500D01*
X142756018Y-71625500D01*
X142864237Y-71596503D01*
X142961263Y-71540485D01*
X143040485Y-71461263D01*
X143096503Y-71364237D01*
X143125500Y-71256018D01*
X143125500Y-71143982D01*
X143974500Y-71143982D01*
X143974500Y-71256018D01*
X144003497Y-71364237D01*
X144059515Y-71461263D01*
X144138737Y-71540485D01*
X144235763Y-71596503D01*
X144343982Y-71625500D01*
X144343984Y-71625500D01*
X144456016Y-71625500D01*
X144456018Y-71625500D01*
X144564237Y-71596503D01*
X144661263Y-71540485D01*
X144740485Y-71461263D01*
X144796503Y-71364237D01*
X144825500Y-71256018D01*
X144825500Y-71143982D01*
X145874500Y-71143982D01*
X145874500Y-71256018D01*
X145903497Y-71364237D01*
X145959515Y-71461263D01*
X146038737Y-71540485D01*
X146135763Y-71596503D01*
X146243982Y-71625500D01*
X146243984Y-71625500D01*
X146356016Y-71625500D01*
X146356018Y-71625500D01*
X146464237Y-71596503D01*
X146561263Y-71540485D01*
X146640485Y-71461263D01*
X146696503Y-71364237D01*
X146725500Y-71256018D01*
X146725500Y-71143982D01*
X149974500Y-71143982D01*
X149974500Y-71256018D01*
X150003497Y-71364237D01*
X150059515Y-71461263D01*
X150138737Y-71540485D01*
X150235763Y-71596503D01*
X150343982Y-71625500D01*
X150343984Y-71625500D01*
X150456016Y-71625500D01*
X150456018Y-71625500D01*
X150564237Y-71596503D01*
X150661263Y-71540485D01*
X150740485Y-71461263D01*
X150796503Y-71364237D01*
X150825500Y-71256018D01*
X150825500Y-71143982D01*
X151874500Y-71143982D01*
X151874500Y-71256018D01*
X151903497Y-71364237D01*
X151959515Y-71461263D01*
X152038737Y-71540485D01*
X152135763Y-71596503D01*
X152243982Y-71625500D01*
X152243984Y-71625500D01*
X152356016Y-71625500D01*
X152356018Y-71625500D01*
X152464237Y-71596503D01*
X152561263Y-71540485D01*
X152640485Y-71461263D01*
X152696503Y-71364237D01*
X152725500Y-71256018D01*
X152725500Y-71143982D01*
X153174500Y-71143982D01*
X153174500Y-71256018D01*
X153203497Y-71364237D01*
X153259515Y-71461263D01*
X153338737Y-71540485D01*
X153435763Y-71596503D01*
X153543982Y-71625500D01*
X153543984Y-71625500D01*
X153656016Y-71625500D01*
X153656018Y-71625500D01*
X153764237Y-71596503D01*
X153861263Y-71540485D01*
X153912319Y-71489429D01*
X153973642Y-71455944D01*
X154043334Y-71460928D01*
X154087681Y-71489429D01*
X154138737Y-71540485D01*
X154235763Y-71596503D01*
X154343982Y-71625500D01*
X154343984Y-71625500D01*
X154456016Y-71625500D01*
X154456018Y-71625500D01*
X154564237Y-71596503D01*
X154661263Y-71540485D01*
X154740485Y-71461263D01*
X154796503Y-71364237D01*
X154825500Y-71256018D01*
X154825500Y-71143982D01*
X155674500Y-71143982D01*
X155674500Y-71256018D01*
X155703497Y-71364237D01*
X155759515Y-71461263D01*
X155838737Y-71540485D01*
X155935763Y-71596503D01*
X156043982Y-71625500D01*
X156043984Y-71625500D01*
X156156016Y-71625500D01*
X156156018Y-71625500D01*
X156264237Y-71596503D01*
X156361263Y-71540485D01*
X156440485Y-71461263D01*
X156496503Y-71364237D01*
X156525500Y-71256018D01*
X156525500Y-71143982D01*
X157574500Y-71143982D01*
X157574500Y-71256018D01*
X157603497Y-71364237D01*
X157659515Y-71461263D01*
X157738737Y-71540485D01*
X157835763Y-71596503D01*
X157943982Y-71625500D01*
X157943984Y-71625500D01*
X158056016Y-71625500D01*
X158056018Y-71625500D01*
X158164237Y-71596503D01*
X158261263Y-71540485D01*
X158340485Y-71461263D01*
X158396503Y-71364237D01*
X158425500Y-71256018D01*
X158425500Y-71143982D01*
X158396503Y-71035763D01*
X158340485Y-70938737D01*
X158261263Y-70859515D01*
X158164237Y-70803497D01*
X158056018Y-70774500D01*
X157943982Y-70774500D01*
X157835763Y-70803497D01*
X157835760Y-70803498D01*
X157738740Y-70859513D01*
X157738734Y-70859517D01*
X157659517Y-70938734D01*
X157659513Y-70938740D01*
X157603498Y-71035760D01*
X157603497Y-71035763D01*
X157574500Y-71143982D01*
X156525500Y-71143982D01*
X156496503Y-71035763D01*
X156440485Y-70938737D01*
X156361263Y-70859515D01*
X156264237Y-70803497D01*
X156156018Y-70774500D01*
X156043982Y-70774500D01*
X155935763Y-70803497D01*
X155935760Y-70803498D01*
X155838740Y-70859513D01*
X155838734Y-70859517D01*
X155759517Y-70938734D01*
X155759513Y-70938740D01*
X155703498Y-71035760D01*
X155703497Y-71035763D01*
X155674500Y-71143982D01*
X154825500Y-71143982D01*
X154796503Y-71035763D01*
X154740485Y-70938737D01*
X154661263Y-70859515D01*
X154564237Y-70803497D01*
X154456018Y-70774500D01*
X154343982Y-70774500D01*
X154235763Y-70803497D01*
X154235760Y-70803498D01*
X154138740Y-70859513D01*
X154138734Y-70859517D01*
X154087681Y-70910571D01*
X154026358Y-70944056D01*
X153956666Y-70939072D01*
X153912319Y-70910571D01*
X153861265Y-70859517D01*
X153861263Y-70859515D01*
X153764237Y-70803497D01*
X153656018Y-70774500D01*
X153543982Y-70774500D01*
X153435763Y-70803497D01*
X153435760Y-70803498D01*
X153338740Y-70859513D01*
X153338734Y-70859517D01*
X153259517Y-70938734D01*
X153259513Y-70938740D01*
X153203498Y-71035760D01*
X153203497Y-71035763D01*
X153174500Y-71143982D01*
X152725500Y-71143982D01*
X152696503Y-71035763D01*
X152640485Y-70938737D01*
X152561263Y-70859515D01*
X152464237Y-70803497D01*
X152356018Y-70774500D01*
X152243982Y-70774500D01*
X152135763Y-70803497D01*
X152135760Y-70803498D01*
X152038740Y-70859513D01*
X152038734Y-70859517D01*
X151959517Y-70938734D01*
X151959513Y-70938740D01*
X151903498Y-71035760D01*
X151903497Y-71035763D01*
X151874500Y-71143982D01*
X150825500Y-71143982D01*
X150796503Y-71035763D01*
X150740485Y-70938737D01*
X150661263Y-70859515D01*
X150564237Y-70803497D01*
X150456018Y-70774500D01*
X150343982Y-70774500D01*
X150235763Y-70803497D01*
X150235760Y-70803498D01*
X150138740Y-70859513D01*
X150138734Y-70859517D01*
X150059517Y-70938734D01*
X150059513Y-70938740D01*
X150003498Y-71035760D01*
X150003497Y-71035763D01*
X149974500Y-71143982D01*
X146725500Y-71143982D01*
X146696503Y-71035763D01*
X146640485Y-70938737D01*
X146561263Y-70859515D01*
X146464237Y-70803497D01*
X146356018Y-70774500D01*
X146243982Y-70774500D01*
X146135763Y-70803497D01*
X146135760Y-70803498D01*
X146038740Y-70859513D01*
X146038734Y-70859517D01*
X145959517Y-70938734D01*
X145959513Y-70938740D01*
X145903498Y-71035760D01*
X145903497Y-71035763D01*
X145874500Y-71143982D01*
X144825500Y-71143982D01*
X144796503Y-71035763D01*
X144740485Y-70938737D01*
X144661263Y-70859515D01*
X144564237Y-70803497D01*
X144456018Y-70774500D01*
X144343982Y-70774500D01*
X144235763Y-70803497D01*
X144235760Y-70803498D01*
X144138740Y-70859513D01*
X144138734Y-70859517D01*
X144059517Y-70938734D01*
X144059513Y-70938740D01*
X144003498Y-71035760D01*
X144003497Y-71035763D01*
X143974500Y-71143982D01*
X143125500Y-71143982D01*
X143096503Y-71035763D01*
X143040485Y-70938737D01*
X142961263Y-70859515D01*
X142864237Y-70803497D01*
X142756018Y-70774500D01*
X142643982Y-70774500D01*
X142535763Y-70803497D01*
X142535760Y-70803498D01*
X142438740Y-70859513D01*
X142438734Y-70859517D01*
X142387681Y-70910571D01*
X142326358Y-70944056D01*
X142256666Y-70939072D01*
X142212319Y-70910571D01*
X142161265Y-70859517D01*
X142161263Y-70859515D01*
X142064237Y-70803497D01*
X141956018Y-70774500D01*
X141843982Y-70774500D01*
X141735763Y-70803497D01*
X141735760Y-70803498D01*
X141638740Y-70859513D01*
X141638734Y-70859517D01*
X141559517Y-70938734D01*
X141559513Y-70938740D01*
X141503498Y-71035760D01*
X141503497Y-71035763D01*
X141474500Y-71143982D01*
X141025500Y-71143982D01*
X140996503Y-71035763D01*
X140940485Y-70938737D01*
X140861263Y-70859515D01*
X140764237Y-70803497D01*
X140656018Y-70774500D01*
X140543982Y-70774500D01*
X140435763Y-70803497D01*
X140435760Y-70803498D01*
X140338740Y-70859513D01*
X140338734Y-70859517D01*
X140259517Y-70938734D01*
X140259513Y-70938740D01*
X140203498Y-71035760D01*
X140203497Y-71035763D01*
X140174500Y-71143982D01*
X139125500Y-71143982D01*
X139096503Y-71035763D01*
X139040485Y-70938737D01*
X138961263Y-70859515D01*
X138864237Y-70803497D01*
X138756018Y-70774500D01*
X138643982Y-70774500D01*
X138535763Y-70803497D01*
X138535760Y-70803498D01*
X138438740Y-70859513D01*
X138438734Y-70859517D01*
X138359517Y-70938734D01*
X138359513Y-70938740D01*
X138303498Y-71035760D01*
X138303497Y-71035763D01*
X138274500Y-71143982D01*
X135125500Y-71143982D01*
X135096503Y-71035763D01*
X135040485Y-70938737D01*
X134961263Y-70859515D01*
X134864237Y-70803497D01*
X134756018Y-70774500D01*
X134643982Y-70774500D01*
X134535763Y-70803497D01*
X134535760Y-70803498D01*
X134438740Y-70859513D01*
X134438734Y-70859517D01*
X134359517Y-70938734D01*
X134359513Y-70938740D01*
X134303498Y-71035760D01*
X134303497Y-71035763D01*
X134274500Y-71143982D01*
X133225500Y-71143982D01*
X133196503Y-71035763D01*
X133140485Y-70938737D01*
X133061263Y-70859515D01*
X132964237Y-70803497D01*
X132856018Y-70774500D01*
X132743982Y-70774500D01*
X132635763Y-70803497D01*
X132635760Y-70803498D01*
X132538740Y-70859513D01*
X132538734Y-70859517D01*
X132459517Y-70938734D01*
X132459513Y-70938740D01*
X132403498Y-71035760D01*
X132403497Y-71035763D01*
X132374500Y-71143982D01*
X131525500Y-71143982D01*
X131496503Y-71035763D01*
X131440485Y-70938737D01*
X131361263Y-70859515D01*
X131264237Y-70803497D01*
X131156018Y-70774500D01*
X131043982Y-70774500D01*
X130935763Y-70803497D01*
X130935760Y-70803498D01*
X130838740Y-70859513D01*
X130838734Y-70859517D01*
X130787681Y-70910571D01*
X130726358Y-70944056D01*
X130656666Y-70939072D01*
X130612319Y-70910571D01*
X130561265Y-70859517D01*
X130561263Y-70859515D01*
X130464237Y-70803497D01*
X130356018Y-70774500D01*
X130243982Y-70774500D01*
X130135763Y-70803497D01*
X130135760Y-70803498D01*
X130038740Y-70859513D01*
X130038734Y-70859517D01*
X129959517Y-70938734D01*
X129959513Y-70938740D01*
X129903498Y-71035760D01*
X129903497Y-71035763D01*
X129874500Y-71143982D01*
X129425500Y-71143982D01*
X129396503Y-71035763D01*
X129340485Y-70938737D01*
X129261263Y-70859515D01*
X129164237Y-70803497D01*
X129056018Y-70774500D01*
X128943982Y-70774500D01*
X128835763Y-70803497D01*
X128835760Y-70803498D01*
X128738740Y-70859513D01*
X128738734Y-70859517D01*
X128659517Y-70938734D01*
X128659513Y-70938740D01*
X128603498Y-71035760D01*
X128603497Y-71035763D01*
X128574500Y-71143982D01*
X127525500Y-71143982D01*
X127496503Y-71035763D01*
X127440485Y-70938737D01*
X127361263Y-70859515D01*
X127264237Y-70803497D01*
X127156018Y-70774500D01*
X127043982Y-70774500D01*
X126935763Y-70803497D01*
X126935760Y-70803498D01*
X126838740Y-70859513D01*
X126838734Y-70859517D01*
X126759517Y-70938734D01*
X126759513Y-70938740D01*
X126703498Y-71035760D01*
X126703497Y-71035763D01*
X126674500Y-71143982D01*
X123698705Y-71143982D01*
X123696503Y-71135763D01*
X123640485Y-71038737D01*
X123561263Y-70959515D01*
X123464237Y-70903497D01*
X123356018Y-70874500D01*
X123243982Y-70874500D01*
X123135763Y-70903497D01*
X123135760Y-70903498D01*
X123038740Y-70959513D01*
X123038734Y-70959517D01*
X122959517Y-71038734D01*
X122959513Y-71038740D01*
X122903498Y-71135760D01*
X122903497Y-71135763D01*
X122874500Y-71243982D01*
X121825500Y-71243982D01*
X121796503Y-71135763D01*
X121740485Y-71038737D01*
X121661263Y-70959515D01*
X121564237Y-70903497D01*
X121456018Y-70874500D01*
X121343982Y-70874500D01*
X121235763Y-70903497D01*
X121235760Y-70903498D01*
X121138740Y-70959513D01*
X121138734Y-70959517D01*
X121059517Y-71038734D01*
X121059513Y-71038740D01*
X121003498Y-71135760D01*
X121003497Y-71135763D01*
X120974500Y-71243982D01*
X120125500Y-71243982D01*
X120096503Y-71135763D01*
X120040485Y-71038737D01*
X119961263Y-70959515D01*
X119864237Y-70903497D01*
X119756018Y-70874500D01*
X119643982Y-70874500D01*
X119535763Y-70903497D01*
X119535760Y-70903498D01*
X119438740Y-70959513D01*
X119438734Y-70959517D01*
X119387681Y-71010571D01*
X119326358Y-71044056D01*
X119256666Y-71039072D01*
X119212319Y-71010571D01*
X119161265Y-70959517D01*
X119161263Y-70959515D01*
X119064237Y-70903497D01*
X118956018Y-70874500D01*
X118843982Y-70874500D01*
X118735763Y-70903497D01*
X118735760Y-70903498D01*
X118638740Y-70959513D01*
X118638734Y-70959517D01*
X118559517Y-71038734D01*
X118559513Y-71038740D01*
X118503498Y-71135760D01*
X118503497Y-71135763D01*
X118474500Y-71243982D01*
X118025500Y-71243982D01*
X117996503Y-71135763D01*
X117940485Y-71038737D01*
X117861263Y-70959515D01*
X117764237Y-70903497D01*
X117656018Y-70874500D01*
X117543982Y-70874500D01*
X117435763Y-70903497D01*
X117435760Y-70903498D01*
X117338740Y-70959513D01*
X117338734Y-70959517D01*
X117259517Y-71038734D01*
X117259513Y-71038740D01*
X117203498Y-71135760D01*
X117203497Y-71135763D01*
X117174500Y-71243982D01*
X116125500Y-71243982D01*
X116096503Y-71135763D01*
X116040485Y-71038737D01*
X115961263Y-70959515D01*
X115864237Y-70903497D01*
X115756018Y-70874500D01*
X115643982Y-70874500D01*
X115535763Y-70903497D01*
X115535760Y-70903498D01*
X115438740Y-70959513D01*
X115438734Y-70959517D01*
X115359517Y-71038734D01*
X115359513Y-71038740D01*
X115303498Y-71135760D01*
X115303497Y-71135763D01*
X115274500Y-71243982D01*
X99555206Y-71243982D01*
X99561263Y-71240485D01*
X99640485Y-71161263D01*
X99696503Y-71064237D01*
X99725500Y-70956018D01*
X99725500Y-70843982D01*
X99696503Y-70735763D01*
X99640485Y-70638737D01*
X99561263Y-70559515D01*
X99464237Y-70503497D01*
X99356018Y-70474500D01*
X99243982Y-70474500D01*
X99135763Y-70503497D01*
X99135760Y-70503498D01*
X99038740Y-70559513D01*
X99038734Y-70559517D01*
X98959517Y-70638734D01*
X98959513Y-70638740D01*
X98903498Y-70735760D01*
X98903497Y-70735763D01*
X98874500Y-70843982D01*
X55500500Y-70843982D01*
X55500500Y-69043982D01*
X88274500Y-69043982D01*
X88274500Y-69156018D01*
X88303497Y-69264237D01*
X88359515Y-69361263D01*
X88438737Y-69440485D01*
X88535763Y-69496503D01*
X88643982Y-69525500D01*
X88643984Y-69525500D01*
X88756016Y-69525500D01*
X88756018Y-69525500D01*
X88864237Y-69496503D01*
X88961263Y-69440485D01*
X89040485Y-69361263D01*
X89096503Y-69264237D01*
X89125500Y-69156018D01*
X89125500Y-69043982D01*
X89096503Y-68935763D01*
X89040485Y-68838737D01*
X88961263Y-68759515D01*
X88864237Y-68703497D01*
X88756018Y-68674500D01*
X88643982Y-68674500D01*
X88535763Y-68703497D01*
X88535760Y-68703498D01*
X88438740Y-68759513D01*
X88438734Y-68759517D01*
X88359517Y-68838734D01*
X88359513Y-68838740D01*
X88303498Y-68935760D01*
X88303497Y-68935763D01*
X88274500Y-69043982D01*
X55500500Y-69043982D01*
X55500500Y-68643982D01*
X118474500Y-68643982D01*
X118474500Y-68756018D01*
X118503497Y-68864237D01*
X118559515Y-68961263D01*
X118638737Y-69040485D01*
X118735763Y-69096503D01*
X118843982Y-69125500D01*
X118843984Y-69125500D01*
X118956016Y-69125500D01*
X118956018Y-69125500D01*
X119064237Y-69096503D01*
X119161263Y-69040485D01*
X119212319Y-68989429D01*
X119273642Y-68955944D01*
X119343334Y-68960928D01*
X119387681Y-68989429D01*
X119438737Y-69040485D01*
X119535763Y-69096503D01*
X119643982Y-69125500D01*
X119643984Y-69125500D01*
X119756016Y-69125500D01*
X119756018Y-69125500D01*
X119864237Y-69096503D01*
X119961263Y-69040485D01*
X120040485Y-68961263D01*
X120096503Y-68864237D01*
X120125500Y-68756018D01*
X120125500Y-68643982D01*
X129874500Y-68643982D01*
X129874500Y-68756018D01*
X129903497Y-68864237D01*
X129959515Y-68961263D01*
X130038737Y-69040485D01*
X130135763Y-69096503D01*
X130243982Y-69125500D01*
X130243984Y-69125500D01*
X130356016Y-69125500D01*
X130356018Y-69125500D01*
X130464237Y-69096503D01*
X130561263Y-69040485D01*
X130612319Y-68989429D01*
X130673642Y-68955944D01*
X130743334Y-68960928D01*
X130787681Y-68989429D01*
X130838737Y-69040485D01*
X130935763Y-69096503D01*
X131043982Y-69125500D01*
X131043984Y-69125500D01*
X131156016Y-69125500D01*
X131156018Y-69125500D01*
X131264237Y-69096503D01*
X131361263Y-69040485D01*
X131440485Y-68961263D01*
X131496503Y-68864237D01*
X131525500Y-68756018D01*
X131525500Y-68643982D01*
X141474500Y-68643982D01*
X141474500Y-68756018D01*
X141503497Y-68864237D01*
X141559515Y-68961263D01*
X141638737Y-69040485D01*
X141735763Y-69096503D01*
X141843982Y-69125500D01*
X141843984Y-69125500D01*
X141956016Y-69125500D01*
X141956018Y-69125500D01*
X142064237Y-69096503D01*
X142161263Y-69040485D01*
X142212319Y-68989429D01*
X142273642Y-68955944D01*
X142343334Y-68960928D01*
X142387681Y-68989429D01*
X142438737Y-69040485D01*
X142535763Y-69096503D01*
X142643982Y-69125500D01*
X142643984Y-69125500D01*
X142756016Y-69125500D01*
X142756018Y-69125500D01*
X142864237Y-69096503D01*
X142961263Y-69040485D01*
X143040485Y-68961263D01*
X143096503Y-68864237D01*
X143125500Y-68756018D01*
X143125500Y-68643982D01*
X153174500Y-68643982D01*
X153174500Y-68756018D01*
X153203497Y-68864237D01*
X153259515Y-68961263D01*
X153338737Y-69040485D01*
X153435763Y-69096503D01*
X153543982Y-69125500D01*
X153543984Y-69125500D01*
X153656016Y-69125500D01*
X153656018Y-69125500D01*
X153764237Y-69096503D01*
X153861263Y-69040485D01*
X153912319Y-68989429D01*
X153973642Y-68955944D01*
X154043334Y-68960928D01*
X154087681Y-68989429D01*
X154138737Y-69040485D01*
X154235763Y-69096503D01*
X154343982Y-69125500D01*
X154343984Y-69125500D01*
X154456016Y-69125500D01*
X154456018Y-69125500D01*
X154564237Y-69096503D01*
X154661263Y-69040485D01*
X154740485Y-68961263D01*
X154796503Y-68864237D01*
X154825500Y-68756018D01*
X154825500Y-68643982D01*
X154796503Y-68535763D01*
X154740485Y-68438737D01*
X154661263Y-68359515D01*
X154564237Y-68303497D01*
X154456018Y-68274500D01*
X154343982Y-68274500D01*
X154235763Y-68303497D01*
X154235760Y-68303498D01*
X154138740Y-68359513D01*
X154138734Y-68359517D01*
X154087681Y-68410571D01*
X154026358Y-68444056D01*
X153956666Y-68439072D01*
X153912319Y-68410571D01*
X153861265Y-68359517D01*
X153861263Y-68359515D01*
X153764237Y-68303497D01*
X153656018Y-68274500D01*
X153543982Y-68274500D01*
X153435763Y-68303497D01*
X153435760Y-68303498D01*
X153338740Y-68359513D01*
X153338734Y-68359517D01*
X153259517Y-68438734D01*
X153259513Y-68438740D01*
X153203498Y-68535760D01*
X153203497Y-68535763D01*
X153174500Y-68643982D01*
X143125500Y-68643982D01*
X143096503Y-68535763D01*
X143040485Y-68438737D01*
X142961263Y-68359515D01*
X142864237Y-68303497D01*
X142756018Y-68274500D01*
X142643982Y-68274500D01*
X142535763Y-68303497D01*
X142535760Y-68303498D01*
X142438740Y-68359513D01*
X142438734Y-68359517D01*
X142387681Y-68410571D01*
X142326358Y-68444056D01*
X142256666Y-68439072D01*
X142212319Y-68410571D01*
X142161265Y-68359517D01*
X142161263Y-68359515D01*
X142064237Y-68303497D01*
X141956018Y-68274500D01*
X141843982Y-68274500D01*
X141735763Y-68303497D01*
X141735760Y-68303498D01*
X141638740Y-68359513D01*
X141638734Y-68359517D01*
X141559517Y-68438734D01*
X141559513Y-68438740D01*
X141503498Y-68535760D01*
X141503497Y-68535763D01*
X141474500Y-68643982D01*
X131525500Y-68643982D01*
X131496503Y-68535763D01*
X131440485Y-68438737D01*
X131361263Y-68359515D01*
X131264237Y-68303497D01*
X131156018Y-68274500D01*
X131043982Y-68274500D01*
X130935763Y-68303497D01*
X130935760Y-68303498D01*
X130838740Y-68359513D01*
X130838734Y-68359517D01*
X130787681Y-68410571D01*
X130726358Y-68444056D01*
X130656666Y-68439072D01*
X130612319Y-68410571D01*
X130561265Y-68359517D01*
X130561263Y-68359515D01*
X130464237Y-68303497D01*
X130356018Y-68274500D01*
X130243982Y-68274500D01*
X130135763Y-68303497D01*
X130135760Y-68303498D01*
X130038740Y-68359513D01*
X130038734Y-68359517D01*
X129959517Y-68438734D01*
X129959513Y-68438740D01*
X129903498Y-68535760D01*
X129903497Y-68535763D01*
X129874500Y-68643982D01*
X120125500Y-68643982D01*
X120096503Y-68535763D01*
X120040485Y-68438737D01*
X119961263Y-68359515D01*
X119864237Y-68303497D01*
X119756018Y-68274500D01*
X119643982Y-68274500D01*
X119535763Y-68303497D01*
X119535760Y-68303498D01*
X119438740Y-68359513D01*
X119438734Y-68359517D01*
X119387681Y-68410571D01*
X119326358Y-68444056D01*
X119256666Y-68439072D01*
X119212319Y-68410571D01*
X119161265Y-68359517D01*
X119161263Y-68359515D01*
X119064237Y-68303497D01*
X118956018Y-68274500D01*
X118843982Y-68274500D01*
X118735763Y-68303497D01*
X118735760Y-68303498D01*
X118638740Y-68359513D01*
X118638734Y-68359517D01*
X118559517Y-68438734D01*
X118559513Y-68438740D01*
X118503498Y-68535760D01*
X118503497Y-68535763D01*
X118474500Y-68643982D01*
X55500500Y-68643982D01*
X55500500Y-68006959D01*
X55501280Y-67993077D01*
X55501320Y-67992717D01*
X55511459Y-67902727D01*
X55517635Y-67875668D01*
X55545353Y-67796457D01*
X55557393Y-67771453D01*
X55602046Y-67700389D01*
X55619351Y-67678690D01*
X55678690Y-67619351D01*
X55700389Y-67602046D01*
X55771453Y-67557393D01*
X55796457Y-67545353D01*
X55875668Y-67517635D01*
X55902729Y-67511459D01*
X55978753Y-67502893D01*
X55993078Y-67501280D01*
X56006960Y-67500500D01*
X56065892Y-67500500D01*
X159934108Y-67500500D01*
X159993040Y-67500500D01*
X160006922Y-67501280D01*
G37*
%TD.AperFunction*%
%TD*%
M02*
