%TF.GenerationSoftware,KiCad,Pcbnew,10.0.3*%
%TF.CreationDate,2026-10-08T13:37:44-07:00*%
%TF.ProjectId,business_card,62757369-6e65-4737-935f-636172642e6b,rev?*%
%TF.SameCoordinates,Original*%
%TF.FileFunction,Copper,L2,Inr*%
%TF.FilePolarity,Positive*%
%FSLAX46Y46*%
G04 Gerber Fmt 4.6, Leading zero omitted, Abs format (unit mm)*
G04 Created by KiCad (PCBNEW 10.0.3) date 2026-10-08 13:37:44*
%MOMM*%
%LPD*%
G01*
G04 APERTURE LIST*
%TA.AperFunction,ComponentPad*%
%ADD10O,1.750000X1.150000*%
%TD*%
%TA.AperFunction,ViaPad*%
%ADD11C,0.450000*%
%TD*%
G04 APERTURE END LIST*
D10*
%TO.N,GND*%
%TO.C,J1*%
X61450000Y-81320000D03*
X61450000Y-72680000D03*
X57650000Y-81320000D03*
X57650000Y-72680000D03*
%TD*%
D11*
%TO.N,GND*%
X61500000Y-82500000D03*
X131100000Y-68700000D03*
X119300000Y-82800000D03*
X91800000Y-89700000D03*
X119700000Y-71300000D03*
X117000000Y-115400000D03*
X57700000Y-71700000D03*
X154388979Y-89863711D03*
X65900000Y-75200000D03*
X123400000Y-95400000D03*
X106300000Y-108100000D03*
X91937500Y-103500000D03*
X130300000Y-71200000D03*
X103000000Y-107600000D03*
X118900000Y-85200000D03*
X65500000Y-80200000D03*
X59100000Y-81300000D03*
X119700000Y-85200000D03*
X62600000Y-79700000D03*
X154500000Y-82700000D03*
X82300000Y-76300000D03*
X141900000Y-82800000D03*
X57700000Y-82500000D03*
X99600000Y-89900000D03*
X148795944Y-90395944D03*
X118400000Y-110800000D03*
X60000000Y-81300000D03*
X130300000Y-82800000D03*
X120100000Y-82800000D03*
X56637500Y-108500000D03*
X61500000Y-71800000D03*
X78000000Y-90600000D03*
X61500000Y-73500000D03*
X99200000Y-79000000D03*
X56637500Y-106100000D03*
X60100000Y-72700000D03*
X131100000Y-85200000D03*
X106410000Y-94400000D03*
X57700000Y-80200000D03*
X115050000Y-108950000D03*
X56937500Y-105000000D03*
X142700000Y-71200000D03*
X88700000Y-69100000D03*
X56100000Y-81300000D03*
X151688979Y-88563711D03*
X131100000Y-82800000D03*
X100200000Y-77700000D03*
X154500000Y-85300000D03*
X59000000Y-72700000D03*
X57400000Y-91000000D03*
X60300000Y-74200000D03*
X153600000Y-71200000D03*
X111500000Y-72500000D03*
X104800000Y-113000000D03*
X113000000Y-111300000D03*
X141900000Y-85200000D03*
X127400000Y-88400000D03*
X118900000Y-71300000D03*
X62700000Y-72700000D03*
X141900000Y-68700000D03*
X101800000Y-111000000D03*
X80600000Y-83400000D03*
X118900000Y-68700000D03*
X142700000Y-85200000D03*
X154400000Y-71200000D03*
X101800000Y-109900000D03*
X56637500Y-107300000D03*
X130300000Y-68700000D03*
X130000000Y-89600000D03*
X130300000Y-85200000D03*
X154400000Y-68700000D03*
X131100000Y-71200000D03*
X105800000Y-87700000D03*
X65000000Y-77000000D03*
X153700000Y-85300000D03*
X153700000Y-82700000D03*
X141900000Y-71200000D03*
X57937500Y-104900000D03*
X147500000Y-95600000D03*
X60200000Y-79800000D03*
X92700000Y-87500000D03*
X112900000Y-115000000D03*
X65900000Y-78700000D03*
X89000000Y-91200000D03*
X81900000Y-79300000D03*
X65500000Y-73700000D03*
X58537500Y-104900000D03*
X111600000Y-80500000D03*
X80700000Y-76500000D03*
X99300000Y-70900000D03*
X58237500Y-109700000D03*
X62900000Y-81300000D03*
X104200000Y-105900000D03*
X153600000Y-68700000D03*
X142700000Y-82800000D03*
X57700000Y-73700000D03*
X56400000Y-72700000D03*
X56637500Y-106700000D03*
X62600000Y-74200000D03*
X88100000Y-78100000D03*
X100500000Y-73900000D03*
X56937500Y-109600000D03*
X119700000Y-68700000D03*
X142700000Y-68700000D03*
%TO.N,Net-(LED4-G)*%
X123300000Y-71300000D03*
X120600000Y-90700000D03*
%TO.N,+5V*%
X118200000Y-116400000D03*
X128500000Y-89400000D03*
X60600000Y-75200000D03*
X116900000Y-112400000D03*
X158600000Y-107900000D03*
X57400000Y-85500000D03*
X151900000Y-92180000D03*
X63500000Y-80900000D03*
X108700000Y-80500000D03*
X154688979Y-91463711D03*
X107700000Y-90700000D03*
X97800000Y-70900000D03*
X151200000Y-91200000D03*
X84200000Y-77600000D03*
X114500000Y-110200000D03*
X152788979Y-89563711D03*
X90600000Y-89600000D03*
X63500000Y-73100000D03*
X85600000Y-84300000D03*
X124384763Y-90531179D03*
X62600000Y-78600000D03*
X62600000Y-75300000D03*
X126900000Y-91200000D03*
X78000000Y-71300000D03*
X60600000Y-78700000D03*
X127700000Y-91900000D03*
X82555528Y-79044472D03*
X87300000Y-82600000D03*
X60600000Y-75700000D03*
X60600000Y-78200000D03*
X108700000Y-72500000D03*
X112300000Y-100600000D03*
X103200000Y-88000000D03*
%TO.N,RTC_CLK*%
X82100000Y-81900000D03*
%TO.N,I2C.SCL*%
X106300000Y-105000000D03*
X91600000Y-87300000D03*
X124740000Y-90061179D03*
X149300000Y-90000000D03*
X84968628Y-82631372D03*
%TO.N,I2C.SDA*%
X90500000Y-88400000D03*
X124500000Y-89400000D03*
X149400000Y-88900000D03*
X105700000Y-104500000D03*
X85500000Y-82000000D03*
%TO.N,Net-(LED4-E)*%
X123300000Y-85300000D03*
X121800000Y-89100000D03*
%TO.N,Net-(LED4-D)*%
X122400000Y-88300000D03*
X121400000Y-85300000D03*
%TO.N,Net-(LED4-C-Pad4)*%
X120100000Y-95600000D03*
X117600000Y-85400000D03*
%TO.N,Net-(LED4-DP)*%
X119900000Y-91400000D03*
X115700000Y-85400000D03*
%TO.N,Net-(LED4-B)*%
X115700000Y-71300000D03*
X120800000Y-96300000D03*
%TO.N,Net-(LED4-A)*%
X117600000Y-71300000D03*
X121500000Y-97000000D03*
%TO.N,Net-(LED4-F)*%
X121400000Y-71300000D03*
X121300000Y-90000000D03*
%TO.N,Net-(LED1-D)*%
X152200000Y-98000000D03*
X156100000Y-85200000D03*
%TO.N,Net-(LED2-B)*%
X138700000Y-71200000D03*
X144700000Y-96300000D03*
%TO.N,Net-(LED3-F)*%
X127000000Y-98700000D03*
X132800000Y-71200000D03*
%TO.N,Net-(LED3-B)*%
X127100000Y-71200000D03*
X130200000Y-95900000D03*
%TO.N,Net-(LED2-E)*%
X146300000Y-85200000D03*
X144900000Y-90600000D03*
%TO.N,Net-(LED2-D)*%
X144400000Y-85200000D03*
X144200000Y-91300000D03*
%TO.N,Net-(LED2-C-Pad4)*%
X140600000Y-85200000D03*
X144100000Y-95400000D03*
%TO.N,Net-(LED2-DP)*%
X147100000Y-88300000D03*
X138700000Y-85200000D03*
%TO.N,Net-(LED2-A)*%
X140600000Y-71200000D03*
X145500000Y-96800000D03*
%TO.N,Net-(LED2-F)*%
X145600000Y-89800000D03*
X144400000Y-71200000D03*
%TO.N,Net-(LED2-G)*%
X146400000Y-89100000D03*
X146300000Y-71200000D03*
%TO.N,+BATT*%
X90837500Y-106900000D03*
X90837500Y-105900000D03*
X90837500Y-107400000D03*
X106950000Y-106550000D03*
X105400000Y-111300000D03*
X90837500Y-108400000D03*
X90837500Y-107900000D03*
X112400000Y-113000000D03*
X90837500Y-106400000D03*
X90837500Y-108900000D03*
%TO.N,Net-(LED3-E)*%
X127700000Y-98000000D03*
X134700000Y-85200000D03*
%TO.N,Net-(LED1-E)*%
X151500000Y-98700000D03*
X158000000Y-85200000D03*
%TO.N,Net-(LED1-C-Pad4)*%
X152300000Y-85200000D03*
X152900000Y-97300000D03*
%TO.N,Net-(LED1-DP)*%
X146300000Y-97600000D03*
X150300000Y-85300000D03*
%TO.N,Net-(LED1-B)*%
X150400000Y-71200000D03*
X153600000Y-96600000D03*
%TO.N,Net-(LED1-A)*%
X154300000Y-95900000D03*
X152300000Y-71200000D03*
%TO.N,Net-(LED1-F)*%
X156100000Y-71200000D03*
X150800000Y-99400000D03*
%TO.N,Net-(LED1-G)*%
X147000000Y-98400000D03*
X158000000Y-71200000D03*
%TO.N,Net-(LED3-D)*%
X128400000Y-97300000D03*
X132800000Y-85200000D03*
%TO.N,Net-(LED3-C-Pad4)*%
X129000000Y-85200000D03*
X128900000Y-96700000D03*
%TO.N,Net-(LED3-DP)*%
X122200000Y-97700000D03*
X127100000Y-85300000D03*
%TO.N,Net-(LED3-A)*%
X129000000Y-71200000D03*
X130500000Y-95200000D03*
%TO.N,Net-(LED3-G)*%
X134700000Y-71200000D03*
X122900000Y-98400000D03*
%TO.N,/MCU/MODE*%
X87200000Y-77500000D03*
X98710000Y-91810000D03*
%TD*%
%TA.AperFunction,Conductor*%
%TO.N,GND*%
G36*
X160006922Y-67501280D02*
G01*
X160023878Y-67503190D01*
X160097268Y-67511458D01*
X160124333Y-67517636D01*
X160203539Y-67545351D01*
X160228549Y-67557395D01*
X160299606Y-67602043D01*
X160321313Y-67619355D01*
X160380644Y-67678686D01*
X160397957Y-67700395D01*
X160442602Y-67771447D01*
X160454649Y-67796464D01*
X160482362Y-67875662D01*
X160488541Y-67902734D01*
X160498720Y-67993076D01*
X160499500Y-68006959D01*
X160499500Y-127693040D01*
X160498720Y-127706923D01*
X160488541Y-127797265D01*
X160482362Y-127824337D01*
X160454649Y-127903535D01*
X160442602Y-127928552D01*
X160397957Y-127999604D01*
X160380644Y-128021313D01*
X160321313Y-128080644D01*
X160299604Y-128097957D01*
X160228552Y-128142602D01*
X160203535Y-128154649D01*
X160124337Y-128182362D01*
X160097265Y-128188541D01*
X160006923Y-128198720D01*
X159993040Y-128199500D01*
X56006960Y-128199500D01*
X55993077Y-128198720D01*
X55902734Y-128188541D01*
X55875662Y-128182362D01*
X55796464Y-128154649D01*
X55771447Y-128142602D01*
X55700395Y-128097957D01*
X55678686Y-128080644D01*
X55619355Y-128021313D01*
X55602042Y-127999604D01*
X55557397Y-127928552D01*
X55545351Y-127903539D01*
X55517636Y-127824333D01*
X55511458Y-127797268D01*
X55501280Y-127706922D01*
X55500500Y-127693040D01*
X55500500Y-103549108D01*
X58794500Y-103549108D01*
X58794500Y-105610891D01*
X58828608Y-105738187D01*
X58849200Y-105773852D01*
X58894500Y-105852314D01*
X58987686Y-105945500D01*
X59101814Y-106011392D01*
X59229108Y-106045500D01*
X59775500Y-106045500D01*
X59842539Y-106065185D01*
X59888294Y-106117989D01*
X59899500Y-106169500D01*
X59899500Y-108430500D01*
X59879815Y-108497539D01*
X59827011Y-108543294D01*
X59775500Y-108554500D01*
X59229108Y-108554500D01*
X59101812Y-108588608D01*
X58987686Y-108654500D01*
X58987683Y-108654502D01*
X58894502Y-108747683D01*
X58894500Y-108747686D01*
X58828608Y-108861812D01*
X58794500Y-108989108D01*
X58794500Y-111050891D01*
X58828608Y-111178187D01*
X58828609Y-111178188D01*
X58894500Y-111292314D01*
X58987686Y-111385500D01*
X59101814Y-111451392D01*
X59229108Y-111485500D01*
X62564786Y-111485500D01*
X62631825Y-111505185D01*
X62677580Y-111557989D01*
X62679812Y-111563186D01*
X62894727Y-112096959D01*
X63183573Y-112711548D01*
X63369936Y-113056017D01*
X63506712Y-113308829D01*
X63506714Y-113308832D01*
X63560766Y-113396502D01*
X63863097Y-113886869D01*
X64251600Y-114443841D01*
X64670973Y-114977955D01*
X65119876Y-115487502D01*
X65263348Y-115632885D01*
X65596872Y-115970853D01*
X65596881Y-115970861D01*
X66100424Y-116426450D01*
X66100432Y-116426457D01*
X66628951Y-116852862D01*
X66628964Y-116852872D01*
X67180722Y-117248693D01*
X67180734Y-117248701D01*
X67754015Y-117612708D01*
X68346960Y-117943718D01*
X68346968Y-117943721D01*
X68346970Y-117943723D01*
X68346975Y-117943726D01*
X68957678Y-118240673D01*
X69375358Y-118415303D01*
X69584200Y-118502619D01*
X70224536Y-118728722D01*
X70224540Y-118728724D01*
X70876613Y-118918252D01*
X70876616Y-118918252D01*
X70876631Y-118918257D01*
X71538399Y-119070618D01*
X72207724Y-119185318D01*
X72882464Y-119261989D01*
X73560459Y-119300386D01*
X73560470Y-119300386D01*
X74239530Y-119300386D01*
X74239541Y-119300386D01*
X74917536Y-119261989D01*
X75592276Y-119185318D01*
X76261601Y-119070618D01*
X76923369Y-118918257D01*
X77045264Y-118882827D01*
X77575459Y-118728724D01*
X77575460Y-118728723D01*
X77575465Y-118728722D01*
X78215800Y-118502619D01*
X78842326Y-118240671D01*
X79453040Y-117943718D01*
X80045985Y-117612708D01*
X80619266Y-117248701D01*
X81171048Y-116852863D01*
X81699566Y-116426458D01*
X81702869Y-116423470D01*
X81790724Y-116343982D01*
X117774500Y-116343982D01*
X117774500Y-116456018D01*
X117803497Y-116564237D01*
X117859515Y-116661263D01*
X117938737Y-116740485D01*
X118035763Y-116796503D01*
X118143982Y-116825500D01*
X118143984Y-116825500D01*
X118256016Y-116825500D01*
X118256018Y-116825500D01*
X118364237Y-116796503D01*
X118461263Y-116740485D01*
X118540485Y-116661263D01*
X118596503Y-116564237D01*
X118625500Y-116456018D01*
X118625500Y-116343982D01*
X118596503Y-116235763D01*
X118540485Y-116138737D01*
X118461263Y-116059515D01*
X118364237Y-116003497D01*
X118256018Y-115974500D01*
X118143982Y-115974500D01*
X118035763Y-116003497D01*
X118035760Y-116003498D01*
X117938740Y-116059513D01*
X117938734Y-116059517D01*
X117859517Y-116138734D01*
X117859513Y-116138740D01*
X117803498Y-116235760D01*
X117803497Y-116235763D01*
X117774500Y-116343982D01*
X81790724Y-116343982D01*
X81901335Y-116243905D01*
X82203118Y-115970861D01*
X82203127Y-115970853D01*
X82203128Y-115970852D01*
X82680124Y-115487502D01*
X83129027Y-114977955D01*
X83548400Y-114443841D01*
X83936903Y-113886869D01*
X84293292Y-113308822D01*
X84490676Y-112943982D01*
X111974500Y-112943982D01*
X111974500Y-113056018D01*
X112003497Y-113164237D01*
X112059515Y-113261263D01*
X112138737Y-113340485D01*
X112235763Y-113396503D01*
X112343982Y-113425500D01*
X112343984Y-113425500D01*
X112456016Y-113425500D01*
X112456018Y-113425500D01*
X112564237Y-113396503D01*
X112661263Y-113340485D01*
X112740485Y-113261263D01*
X112796503Y-113164237D01*
X112825500Y-113056018D01*
X112825500Y-112943982D01*
X112796503Y-112835763D01*
X112740485Y-112738737D01*
X112661263Y-112659515D01*
X112564237Y-112603497D01*
X112456018Y-112574500D01*
X112343982Y-112574500D01*
X112235763Y-112603497D01*
X112235760Y-112603498D01*
X112138740Y-112659513D01*
X112138734Y-112659517D01*
X112059517Y-112738734D01*
X112059513Y-112738740D01*
X112003498Y-112835760D01*
X112003497Y-112835763D01*
X111974500Y-112943982D01*
X84490676Y-112943982D01*
X84616427Y-112711548D01*
X84789177Y-112343982D01*
X116474500Y-112343982D01*
X116474500Y-112456018D01*
X116503497Y-112564237D01*
X116559515Y-112661263D01*
X116638737Y-112740485D01*
X116735763Y-112796503D01*
X116843982Y-112825500D01*
X116843984Y-112825500D01*
X116956016Y-112825500D01*
X116956018Y-112825500D01*
X117064237Y-112796503D01*
X117161263Y-112740485D01*
X117240485Y-112661263D01*
X117296503Y-112564237D01*
X117325500Y-112456018D01*
X117325500Y-112343982D01*
X117296503Y-112235763D01*
X117240485Y-112138737D01*
X117161263Y-112059515D01*
X117064237Y-112003497D01*
X116956018Y-111974500D01*
X116843982Y-111974500D01*
X116735763Y-112003497D01*
X116735760Y-112003498D01*
X116638740Y-112059513D01*
X116638734Y-112059517D01*
X116559517Y-112138734D01*
X116559513Y-112138740D01*
X116503498Y-112235760D01*
X116503497Y-112235763D01*
X116474500Y-112343982D01*
X84789177Y-112343982D01*
X84905273Y-112096959D01*
X85120188Y-111563186D01*
X85163487Y-111508351D01*
X85229559Y-111485629D01*
X85235214Y-111485500D01*
X88570890Y-111485500D01*
X88570892Y-111485500D01*
X88698186Y-111451392D01*
X88812314Y-111385500D01*
X88905500Y-111292314D01*
X88933405Y-111243982D01*
X104974500Y-111243982D01*
X104974500Y-111356018D01*
X105003497Y-111464237D01*
X105059515Y-111561263D01*
X105138737Y-111640485D01*
X105235763Y-111696503D01*
X105343982Y-111725500D01*
X105343984Y-111725500D01*
X105456016Y-111725500D01*
X105456018Y-111725500D01*
X105564237Y-111696503D01*
X105661263Y-111640485D01*
X105740485Y-111561263D01*
X105796503Y-111464237D01*
X105825500Y-111356018D01*
X105825500Y-111243982D01*
X105796503Y-111135763D01*
X105740485Y-111038737D01*
X105661263Y-110959515D01*
X105564237Y-110903497D01*
X105456018Y-110874500D01*
X105343982Y-110874500D01*
X105235763Y-110903497D01*
X105235760Y-110903498D01*
X105138740Y-110959513D01*
X105138734Y-110959517D01*
X105059517Y-111038734D01*
X105059513Y-111038740D01*
X105003498Y-111135760D01*
X105003497Y-111135763D01*
X104974500Y-111243982D01*
X88933405Y-111243982D01*
X88971392Y-111178186D01*
X89005500Y-111050892D01*
X89005500Y-110143982D01*
X114074500Y-110143982D01*
X114074500Y-110256018D01*
X114103497Y-110364237D01*
X114159515Y-110461263D01*
X114238737Y-110540485D01*
X114335763Y-110596503D01*
X114443982Y-110625500D01*
X114443984Y-110625500D01*
X114556016Y-110625500D01*
X114556018Y-110625500D01*
X114664237Y-110596503D01*
X114761263Y-110540485D01*
X114840485Y-110461263D01*
X114896503Y-110364237D01*
X114925500Y-110256018D01*
X114925500Y-110143982D01*
X114896503Y-110035763D01*
X114840485Y-109938737D01*
X114761263Y-109859515D01*
X114664237Y-109803497D01*
X114556018Y-109774500D01*
X114443982Y-109774500D01*
X114335763Y-109803497D01*
X114335760Y-109803498D01*
X114238740Y-109859513D01*
X114238734Y-109859517D01*
X114159517Y-109938734D01*
X114159513Y-109938740D01*
X114103498Y-110035760D01*
X114103497Y-110035763D01*
X114074500Y-110143982D01*
X89005500Y-110143982D01*
X89005500Y-108989108D01*
X88971392Y-108861814D01*
X88905500Y-108747686D01*
X88812314Y-108654500D01*
X88755250Y-108621554D01*
X88698187Y-108588608D01*
X88607231Y-108564237D01*
X88570892Y-108554500D01*
X88570891Y-108554500D01*
X88024500Y-108554500D01*
X87957461Y-108534815D01*
X87911706Y-108482011D01*
X87900500Y-108430500D01*
X87900500Y-106169500D01*
X87920185Y-106102461D01*
X87972989Y-106056706D01*
X88024500Y-106045500D01*
X88570890Y-106045500D01*
X88570892Y-106045500D01*
X88698186Y-106011392D01*
X88812314Y-105945500D01*
X88905500Y-105852314D01*
X88910310Y-105843982D01*
X90412000Y-105843982D01*
X90412000Y-105956018D01*
X90435977Y-106045500D01*
X90440997Y-106064236D01*
X90440997Y-106064237D01*
X90454717Y-106088001D01*
X90471188Y-106155902D01*
X90454717Y-106211999D01*
X90440997Y-106235762D01*
X90440997Y-106235763D01*
X90412000Y-106343982D01*
X90412000Y-106456018D01*
X90422173Y-106493982D01*
X90440997Y-106564236D01*
X90440997Y-106564237D01*
X90454717Y-106588001D01*
X90471188Y-106655902D01*
X90454717Y-106711999D01*
X90440997Y-106735762D01*
X90440997Y-106735763D01*
X90412000Y-106843982D01*
X90412000Y-106956017D01*
X90440997Y-107064236D01*
X90440997Y-107064237D01*
X90454717Y-107088001D01*
X90471188Y-107155902D01*
X90454717Y-107211999D01*
X90440997Y-107235762D01*
X90440997Y-107235763D01*
X90412000Y-107343982D01*
X90412000Y-107456018D01*
X90439733Y-107559517D01*
X90440997Y-107564236D01*
X90440997Y-107564237D01*
X90454717Y-107588001D01*
X90471188Y-107655902D01*
X90454717Y-107711999D01*
X90440997Y-107735762D01*
X90440997Y-107735763D01*
X90412000Y-107843982D01*
X90412000Y-107956017D01*
X90440997Y-108064236D01*
X90440997Y-108064237D01*
X90454717Y-108088001D01*
X90471188Y-108155902D01*
X90454717Y-108211999D01*
X90440997Y-108235762D01*
X90440997Y-108235763D01*
X90412000Y-108343982D01*
X90412000Y-108456018D01*
X90435386Y-108543294D01*
X90440997Y-108564236D01*
X90440997Y-108564237D01*
X90454717Y-108588001D01*
X90471188Y-108655902D01*
X90454717Y-108711999D01*
X90440997Y-108735762D01*
X90440997Y-108735763D01*
X90412000Y-108843982D01*
X90412000Y-108956018D01*
X90440997Y-109064237D01*
X90497015Y-109161263D01*
X90576237Y-109240485D01*
X90673263Y-109296503D01*
X90781482Y-109325500D01*
X90781484Y-109325500D01*
X90893516Y-109325500D01*
X90893518Y-109325500D01*
X91001737Y-109296503D01*
X91098763Y-109240485D01*
X91177985Y-109161263D01*
X91234003Y-109064237D01*
X91263000Y-108956018D01*
X91263000Y-108843982D01*
X91234003Y-108735763D01*
X91220283Y-108711999D01*
X91203810Y-108644103D01*
X91220283Y-108588000D01*
X91234003Y-108564237D01*
X91263000Y-108456018D01*
X91263000Y-108343982D01*
X91234003Y-108235763D01*
X91220283Y-108211999D01*
X91203810Y-108144103D01*
X91220283Y-108088000D01*
X91234003Y-108064237D01*
X91263000Y-107956018D01*
X91263000Y-107843982D01*
X158174500Y-107843982D01*
X158174500Y-107956018D01*
X158203497Y-108064237D01*
X158259515Y-108161263D01*
X158338737Y-108240485D01*
X158435763Y-108296503D01*
X158543982Y-108325500D01*
X158543984Y-108325500D01*
X158656016Y-108325500D01*
X158656018Y-108325500D01*
X158764237Y-108296503D01*
X158861263Y-108240485D01*
X158940485Y-108161263D01*
X158996503Y-108064237D01*
X159025500Y-107956018D01*
X159025500Y-107843982D01*
X158996503Y-107735763D01*
X158940485Y-107638737D01*
X158861263Y-107559515D01*
X158764237Y-107503497D01*
X158656018Y-107474500D01*
X158543982Y-107474500D01*
X158435763Y-107503497D01*
X158435760Y-107503498D01*
X158338740Y-107559513D01*
X158338734Y-107559517D01*
X158259517Y-107638734D01*
X158259513Y-107638740D01*
X158203498Y-107735760D01*
X158203497Y-107735763D01*
X158174500Y-107843982D01*
X91263000Y-107843982D01*
X91234003Y-107735763D01*
X91213604Y-107700432D01*
X91209543Y-107687709D01*
X91209025Y-107665599D01*
X91203810Y-107644103D01*
X91208174Y-107629239D01*
X91207908Y-107617859D01*
X91214863Y-107606458D01*
X91220283Y-107588000D01*
X91234003Y-107564237D01*
X91263000Y-107456018D01*
X91263000Y-107343982D01*
X91234003Y-107235763D01*
X91220283Y-107211999D01*
X91203810Y-107144103D01*
X91220283Y-107088000D01*
X91234003Y-107064237D01*
X91263000Y-106956018D01*
X91263000Y-106843982D01*
X91234003Y-106735763D01*
X91220283Y-106711999D01*
X91203810Y-106644103D01*
X91210248Y-106610148D01*
X91214172Y-106598583D01*
X91234003Y-106564237D01*
X91252828Y-106493982D01*
X106524500Y-106493982D01*
X106524500Y-106606018D01*
X106553497Y-106714237D01*
X106609515Y-106811263D01*
X106688737Y-106890485D01*
X106785763Y-106946503D01*
X106893982Y-106975500D01*
X106893984Y-106975500D01*
X107006016Y-106975500D01*
X107006018Y-106975500D01*
X107114237Y-106946503D01*
X107211263Y-106890485D01*
X107290485Y-106811263D01*
X107346503Y-106714237D01*
X107375500Y-106606018D01*
X107375500Y-106493982D01*
X107346503Y-106385763D01*
X107290485Y-106288737D01*
X107211263Y-106209515D01*
X107114237Y-106153497D01*
X107006018Y-106124500D01*
X106893982Y-106124500D01*
X106785763Y-106153497D01*
X106785760Y-106153498D01*
X106688740Y-106209513D01*
X106688734Y-106209517D01*
X106609517Y-106288734D01*
X106609513Y-106288740D01*
X106553498Y-106385760D01*
X106553497Y-106385763D01*
X106524500Y-106493982D01*
X91252828Y-106493982D01*
X91263000Y-106456018D01*
X91263000Y-106343982D01*
X91234003Y-106235763D01*
X91220283Y-106211999D01*
X91203810Y-106144103D01*
X91220283Y-106088000D01*
X91234003Y-106064237D01*
X91263000Y-105956018D01*
X91263000Y-105843982D01*
X91234003Y-105735763D01*
X91177985Y-105638737D01*
X91098763Y-105559515D01*
X91001737Y-105503497D01*
X90893518Y-105474500D01*
X90781482Y-105474500D01*
X90673263Y-105503497D01*
X90673260Y-105503498D01*
X90576240Y-105559513D01*
X90576234Y-105559517D01*
X90497017Y-105638734D01*
X90497013Y-105638740D01*
X90440998Y-105735760D01*
X90440997Y-105735763D01*
X90412000Y-105843982D01*
X88910310Y-105843982D01*
X88971392Y-105738186D01*
X89005500Y-105610892D01*
X89005500Y-104443982D01*
X105274500Y-104443982D01*
X105274500Y-104556018D01*
X105303497Y-104664237D01*
X105359515Y-104761263D01*
X105438737Y-104840485D01*
X105535763Y-104896503D01*
X105643982Y-104925500D01*
X105643984Y-104925500D01*
X105750500Y-104925500D01*
X105817539Y-104945185D01*
X105863294Y-104997989D01*
X105874500Y-105049500D01*
X105874500Y-105056018D01*
X105903497Y-105164237D01*
X105959515Y-105261263D01*
X106038737Y-105340485D01*
X106135763Y-105396503D01*
X106243982Y-105425500D01*
X106243984Y-105425500D01*
X106356016Y-105425500D01*
X106356018Y-105425500D01*
X106464237Y-105396503D01*
X106561263Y-105340485D01*
X106640485Y-105261263D01*
X106696503Y-105164237D01*
X106725500Y-105056018D01*
X106725500Y-104943982D01*
X106696503Y-104835763D01*
X106640485Y-104738737D01*
X106561263Y-104659515D01*
X106464237Y-104603497D01*
X106356018Y-104574500D01*
X106249500Y-104574500D01*
X106182461Y-104554815D01*
X106136706Y-104502011D01*
X106125500Y-104450500D01*
X106125500Y-104443984D01*
X106125500Y-104443982D01*
X106096503Y-104335763D01*
X106040485Y-104238737D01*
X105961263Y-104159515D01*
X105864237Y-104103497D01*
X105756018Y-104074500D01*
X105643982Y-104074500D01*
X105535763Y-104103497D01*
X105535760Y-104103498D01*
X105438740Y-104159513D01*
X105438734Y-104159517D01*
X105359517Y-104238734D01*
X105359513Y-104238740D01*
X105303498Y-104335760D01*
X105303497Y-104335763D01*
X105274500Y-104443982D01*
X89005500Y-104443982D01*
X89005500Y-103549108D01*
X88971392Y-103421814D01*
X88905500Y-103307686D01*
X88812314Y-103214500D01*
X88755250Y-103181554D01*
X88698187Y-103148608D01*
X88634539Y-103131554D01*
X88570892Y-103114500D01*
X88570891Y-103114500D01*
X85235214Y-103114500D01*
X85168175Y-103094815D01*
X85122420Y-103042011D01*
X85120188Y-103036814D01*
X85119884Y-103036059D01*
X84905273Y-102503041D01*
X84616427Y-101888452D01*
X84293292Y-101291178D01*
X83936903Y-100713131D01*
X83818917Y-100543982D01*
X111874500Y-100543982D01*
X111874500Y-100656018D01*
X111903497Y-100764237D01*
X111959515Y-100861263D01*
X112038737Y-100940485D01*
X112135763Y-100996503D01*
X112243982Y-101025500D01*
X112243984Y-101025500D01*
X112356016Y-101025500D01*
X112356018Y-101025500D01*
X112464237Y-100996503D01*
X112561263Y-100940485D01*
X112640485Y-100861263D01*
X112696503Y-100764237D01*
X112725500Y-100656018D01*
X112725500Y-100543982D01*
X112696503Y-100435763D01*
X112640485Y-100338737D01*
X112561263Y-100259515D01*
X112464237Y-100203497D01*
X112356018Y-100174500D01*
X112243982Y-100174500D01*
X112135763Y-100203497D01*
X112135760Y-100203498D01*
X112038740Y-100259513D01*
X112038734Y-100259517D01*
X111959517Y-100338734D01*
X111959513Y-100338740D01*
X111903498Y-100435760D01*
X111903497Y-100435763D01*
X111874500Y-100543982D01*
X83818917Y-100543982D01*
X83548400Y-100156159D01*
X83129027Y-99622045D01*
X82884058Y-99343982D01*
X150374500Y-99343982D01*
X150374500Y-99456018D01*
X150403497Y-99564237D01*
X150459515Y-99661263D01*
X150538737Y-99740485D01*
X150635763Y-99796503D01*
X150743982Y-99825500D01*
X150743984Y-99825500D01*
X150856016Y-99825500D01*
X150856018Y-99825500D01*
X150964237Y-99796503D01*
X151061263Y-99740485D01*
X151140485Y-99661263D01*
X151196503Y-99564237D01*
X151225500Y-99456018D01*
X151225500Y-99343982D01*
X151201117Y-99252983D01*
X151202780Y-99183136D01*
X151241942Y-99125273D01*
X151306171Y-99097769D01*
X151352981Y-99101116D01*
X151443982Y-99125500D01*
X151443985Y-99125500D01*
X151556016Y-99125500D01*
X151556018Y-99125500D01*
X151664237Y-99096503D01*
X151761263Y-99040485D01*
X151840485Y-98961263D01*
X151896503Y-98864237D01*
X151925500Y-98756018D01*
X151925500Y-98643982D01*
X151901117Y-98552983D01*
X151902780Y-98483136D01*
X151941942Y-98425273D01*
X152006171Y-98397769D01*
X152052981Y-98401116D01*
X152143982Y-98425500D01*
X152143985Y-98425500D01*
X152256016Y-98425500D01*
X152256018Y-98425500D01*
X152364237Y-98396503D01*
X152461263Y-98340485D01*
X152540485Y-98261263D01*
X152596503Y-98164237D01*
X152625500Y-98056018D01*
X152625500Y-97943982D01*
X152601117Y-97852983D01*
X152602780Y-97783136D01*
X152641942Y-97725273D01*
X152706171Y-97697769D01*
X152752981Y-97701116D01*
X152843982Y-97725500D01*
X152843985Y-97725500D01*
X152956016Y-97725500D01*
X152956018Y-97725500D01*
X153064237Y-97696503D01*
X153161263Y-97640485D01*
X153240485Y-97561263D01*
X153296503Y-97464237D01*
X153325500Y-97356018D01*
X153325500Y-97243982D01*
X153301117Y-97152983D01*
X153302780Y-97083136D01*
X153341942Y-97025273D01*
X153406171Y-96997769D01*
X153452981Y-97001116D01*
X153543982Y-97025500D01*
X153543985Y-97025500D01*
X153656016Y-97025500D01*
X153656018Y-97025500D01*
X153764237Y-96996503D01*
X153861263Y-96940485D01*
X153940485Y-96861263D01*
X153996503Y-96764237D01*
X154025500Y-96656018D01*
X154025500Y-96543982D01*
X154001117Y-96452983D01*
X154002780Y-96383136D01*
X154041942Y-96325273D01*
X154106171Y-96297769D01*
X154152981Y-96301116D01*
X154243982Y-96325500D01*
X154243985Y-96325500D01*
X154356016Y-96325500D01*
X154356018Y-96325500D01*
X154464237Y-96296503D01*
X154561263Y-96240485D01*
X154640485Y-96161263D01*
X154696503Y-96064237D01*
X154725500Y-95956018D01*
X154725500Y-95843982D01*
X154696503Y-95735763D01*
X154640485Y-95638737D01*
X154561263Y-95559515D01*
X154464237Y-95503497D01*
X154356018Y-95474500D01*
X154243982Y-95474500D01*
X154135763Y-95503497D01*
X154135760Y-95503498D01*
X154038740Y-95559513D01*
X154038734Y-95559517D01*
X153959517Y-95638734D01*
X153959513Y-95638740D01*
X153903498Y-95735760D01*
X153903497Y-95735763D01*
X153874500Y-95843982D01*
X153874500Y-95956018D01*
X153875437Y-95959515D01*
X153898882Y-96047014D01*
X153897219Y-96116864D01*
X153858056Y-96174726D01*
X153793827Y-96202230D01*
X153747014Y-96198882D01*
X153715511Y-96190441D01*
X153656018Y-96174500D01*
X153543982Y-96174500D01*
X153435763Y-96203497D01*
X153435760Y-96203498D01*
X153338740Y-96259513D01*
X153338734Y-96259517D01*
X153259517Y-96338734D01*
X153259513Y-96338740D01*
X153203498Y-96435760D01*
X153203497Y-96435763D01*
X153174500Y-96543982D01*
X153174500Y-96656018D01*
X153183303Y-96688872D01*
X153198882Y-96747014D01*
X153197219Y-96816864D01*
X153158056Y-96874726D01*
X153093827Y-96902230D01*
X153047014Y-96898882D01*
X153015511Y-96890441D01*
X152956018Y-96874500D01*
X152843982Y-96874500D01*
X152735763Y-96903497D01*
X152735760Y-96903498D01*
X152638740Y-96959513D01*
X152638734Y-96959517D01*
X152559517Y-97038734D01*
X152559513Y-97038740D01*
X152503498Y-97135760D01*
X152503497Y-97135763D01*
X152474500Y-97243982D01*
X152474500Y-97356018D01*
X152475437Y-97359515D01*
X152498882Y-97447014D01*
X152497219Y-97516864D01*
X152458056Y-97574726D01*
X152393827Y-97602230D01*
X152347014Y-97598882D01*
X152315511Y-97590441D01*
X152256018Y-97574500D01*
X152143982Y-97574500D01*
X152035763Y-97603497D01*
X152035760Y-97603498D01*
X151938740Y-97659513D01*
X151938734Y-97659517D01*
X151859517Y-97738734D01*
X151859513Y-97738740D01*
X151803498Y-97835760D01*
X151803497Y-97835763D01*
X151774500Y-97943982D01*
X151774500Y-98056018D01*
X151775437Y-98059515D01*
X151798882Y-98147014D01*
X151797219Y-98216864D01*
X151758056Y-98274726D01*
X151693827Y-98302230D01*
X151647014Y-98298882D01*
X151615511Y-98290441D01*
X151556018Y-98274500D01*
X151443982Y-98274500D01*
X151335763Y-98303497D01*
X151335760Y-98303498D01*
X151238740Y-98359513D01*
X151238734Y-98359517D01*
X151159517Y-98438734D01*
X151159513Y-98438740D01*
X151103498Y-98535760D01*
X151103497Y-98535763D01*
X151074500Y-98643982D01*
X151074500Y-98756017D01*
X151098882Y-98847014D01*
X151097219Y-98916864D01*
X151058056Y-98974726D01*
X150993827Y-99002230D01*
X150947014Y-98998882D01*
X150915511Y-98990441D01*
X150856018Y-98974500D01*
X150743982Y-98974500D01*
X150635763Y-99003497D01*
X150635760Y-99003498D01*
X150538740Y-99059513D01*
X150538734Y-99059517D01*
X150459517Y-99138734D01*
X150459513Y-99138740D01*
X150403498Y-99235760D01*
X150403497Y-99235763D01*
X150374500Y-99343982D01*
X82884058Y-99343982D01*
X82703243Y-99138740D01*
X82680135Y-99112510D01*
X82680128Y-99112503D01*
X82680124Y-99112498D01*
X82368281Y-98796501D01*
X82203127Y-98629146D01*
X82203118Y-98629138D01*
X81699575Y-98173549D01*
X81699567Y-98173542D01*
X81171048Y-97747137D01*
X81171035Y-97747127D01*
X80619277Y-97351306D01*
X80619262Y-97351296D01*
X80045985Y-96987292D01*
X79820227Y-96861263D01*
X79453040Y-96656282D01*
X79453038Y-96656281D01*
X79453029Y-96656276D01*
X79453024Y-96656273D01*
X78842321Y-96359326D01*
X78215801Y-96097381D01*
X77575466Y-95871278D01*
X77575459Y-95871275D01*
X76923386Y-95681747D01*
X76923369Y-95681743D01*
X76325015Y-95543982D01*
X119674500Y-95543982D01*
X119674500Y-95656018D01*
X119703497Y-95764237D01*
X119759515Y-95861263D01*
X119838737Y-95940485D01*
X119935763Y-95996503D01*
X120043982Y-96025500D01*
X120043984Y-96025500D01*
X120156015Y-96025500D01*
X120156018Y-96025500D01*
X120247016Y-96001117D01*
X120316863Y-96002780D01*
X120374726Y-96041942D01*
X120402230Y-96106170D01*
X120398882Y-96152984D01*
X120374500Y-96243980D01*
X120374500Y-96243982D01*
X120374500Y-96356018D01*
X120402233Y-96459517D01*
X120403497Y-96464236D01*
X120403498Y-96464239D01*
X120420581Y-96493827D01*
X120459515Y-96561263D01*
X120538737Y-96640485D01*
X120635763Y-96696503D01*
X120743982Y-96725500D01*
X120743984Y-96725500D01*
X120856015Y-96725500D01*
X120856018Y-96725500D01*
X120947016Y-96701117D01*
X121016863Y-96702780D01*
X121074726Y-96741942D01*
X121102230Y-96806170D01*
X121098882Y-96852984D01*
X121074500Y-96943980D01*
X121074500Y-96943982D01*
X121074500Y-97056018D01*
X121103497Y-97164237D01*
X121159515Y-97261263D01*
X121238737Y-97340485D01*
X121335763Y-97396503D01*
X121443982Y-97425500D01*
X121443984Y-97425500D01*
X121556015Y-97425500D01*
X121556018Y-97425500D01*
X121647016Y-97401117D01*
X121716863Y-97402780D01*
X121774726Y-97441942D01*
X121802230Y-97506170D01*
X121798882Y-97552984D01*
X121774500Y-97643980D01*
X121774500Y-97643982D01*
X121774500Y-97756018D01*
X121803497Y-97864237D01*
X121859515Y-97961263D01*
X121938737Y-98040485D01*
X122035763Y-98096503D01*
X122143982Y-98125500D01*
X122143984Y-98125500D01*
X122256015Y-98125500D01*
X122256018Y-98125500D01*
X122347016Y-98101117D01*
X122416863Y-98102780D01*
X122474726Y-98141942D01*
X122502230Y-98206170D01*
X122498882Y-98252984D01*
X122474500Y-98343980D01*
X122474500Y-98343982D01*
X122474500Y-98456018D01*
X122503497Y-98564237D01*
X122559515Y-98661263D01*
X122638737Y-98740485D01*
X122735763Y-98796503D01*
X122843982Y-98825500D01*
X122843984Y-98825500D01*
X122956016Y-98825500D01*
X122956018Y-98825500D01*
X123064237Y-98796503D01*
X123161263Y-98740485D01*
X123240485Y-98661263D01*
X123250462Y-98643982D01*
X126574500Y-98643982D01*
X126574500Y-98756018D01*
X126603497Y-98864237D01*
X126659515Y-98961263D01*
X126738737Y-99040485D01*
X126835763Y-99096503D01*
X126943982Y-99125500D01*
X126943984Y-99125500D01*
X127056016Y-99125500D01*
X127056018Y-99125500D01*
X127164237Y-99096503D01*
X127261263Y-99040485D01*
X127340485Y-98961263D01*
X127396503Y-98864237D01*
X127425500Y-98756018D01*
X127425500Y-98643982D01*
X127401117Y-98552983D01*
X127402780Y-98483136D01*
X127441942Y-98425273D01*
X127506171Y-98397769D01*
X127552981Y-98401116D01*
X127643982Y-98425500D01*
X127643985Y-98425500D01*
X127756016Y-98425500D01*
X127756018Y-98425500D01*
X127864237Y-98396503D01*
X127961263Y-98340485D01*
X128040485Y-98261263D01*
X128096503Y-98164237D01*
X128125500Y-98056018D01*
X128125500Y-97943982D01*
X128101117Y-97852983D01*
X128102780Y-97783136D01*
X128141942Y-97725273D01*
X128206171Y-97697769D01*
X128252981Y-97701116D01*
X128343982Y-97725500D01*
X128343985Y-97725500D01*
X128456016Y-97725500D01*
X128456018Y-97725500D01*
X128564237Y-97696503D01*
X128661263Y-97640485D01*
X128740485Y-97561263D01*
X128750462Y-97543982D01*
X145874500Y-97543982D01*
X145874500Y-97656018D01*
X145903497Y-97764237D01*
X145959515Y-97861263D01*
X146038737Y-97940485D01*
X146135763Y-97996503D01*
X146243982Y-98025500D01*
X146243984Y-98025500D01*
X146356016Y-98025500D01*
X146356018Y-98025500D01*
X146464237Y-97996503D01*
X146479557Y-97987657D01*
X146547456Y-97971184D01*
X146613484Y-97994036D01*
X146656675Y-98048956D01*
X146663318Y-98118509D01*
X146648945Y-98157044D01*
X146603498Y-98235760D01*
X146603497Y-98235763D01*
X146574500Y-98343982D01*
X146574500Y-98456018D01*
X146603497Y-98564237D01*
X146659515Y-98661263D01*
X146738737Y-98740485D01*
X146835763Y-98796503D01*
X146943982Y-98825500D01*
X146943984Y-98825500D01*
X147056016Y-98825500D01*
X147056018Y-98825500D01*
X147164237Y-98796503D01*
X147261263Y-98740485D01*
X147340485Y-98661263D01*
X147396503Y-98564237D01*
X147425500Y-98456018D01*
X147425500Y-98343982D01*
X147396503Y-98235763D01*
X147340485Y-98138737D01*
X147261263Y-98059515D01*
X147196579Y-98022169D01*
X147164239Y-98003498D01*
X147164238Y-98003497D01*
X147164237Y-98003497D01*
X147056018Y-97974500D01*
X146943982Y-97974500D01*
X146835763Y-98003497D01*
X146835756Y-98003500D01*
X146820437Y-98012344D01*
X146752536Y-98028814D01*
X146686510Y-98005960D01*
X146643322Y-97951037D01*
X146636683Y-97881483D01*
X146651050Y-97842962D01*
X146696503Y-97764237D01*
X146725500Y-97656018D01*
X146725500Y-97543982D01*
X146696503Y-97435763D01*
X146640485Y-97338737D01*
X146561263Y-97259515D01*
X146464237Y-97203497D01*
X146356018Y-97174500D01*
X146243982Y-97174500D01*
X146135763Y-97203497D01*
X146135760Y-97203498D01*
X146038740Y-97259513D01*
X146038734Y-97259517D01*
X145959517Y-97338734D01*
X145959513Y-97338740D01*
X145903498Y-97435760D01*
X145903497Y-97435763D01*
X145874500Y-97543982D01*
X128750462Y-97543982D01*
X128796503Y-97464237D01*
X128825500Y-97356018D01*
X128825500Y-97249500D01*
X128845185Y-97182461D01*
X128897989Y-97136706D01*
X128949500Y-97125500D01*
X128956016Y-97125500D01*
X128956018Y-97125500D01*
X129064237Y-97096503D01*
X129161263Y-97040485D01*
X129240485Y-96961263D01*
X129296503Y-96864237D01*
X129325500Y-96756018D01*
X129325500Y-96643982D01*
X129296503Y-96535763D01*
X129240485Y-96438737D01*
X129161263Y-96359515D01*
X129064237Y-96303497D01*
X128956018Y-96274500D01*
X128843982Y-96274500D01*
X128735763Y-96303497D01*
X128735760Y-96303498D01*
X128638740Y-96359513D01*
X128638734Y-96359517D01*
X128559517Y-96438734D01*
X128559513Y-96438740D01*
X128503498Y-96535760D01*
X128503497Y-96535763D01*
X128474500Y-96643982D01*
X128474500Y-96750500D01*
X128454815Y-96817539D01*
X128402011Y-96863294D01*
X128350500Y-96874500D01*
X128343982Y-96874500D01*
X128235763Y-96903497D01*
X128235760Y-96903498D01*
X128138740Y-96959513D01*
X128138734Y-96959517D01*
X128059517Y-97038734D01*
X128059513Y-97038740D01*
X128003498Y-97135760D01*
X128003497Y-97135763D01*
X127974500Y-97243982D01*
X127974500Y-97356018D01*
X127975437Y-97359515D01*
X127998882Y-97447014D01*
X127997219Y-97516864D01*
X127958056Y-97574726D01*
X127893827Y-97602230D01*
X127847014Y-97598882D01*
X127815511Y-97590441D01*
X127756018Y-97574500D01*
X127643982Y-97574500D01*
X127535763Y-97603497D01*
X127535760Y-97603498D01*
X127438740Y-97659513D01*
X127438734Y-97659517D01*
X127359517Y-97738734D01*
X127359513Y-97738740D01*
X127303498Y-97835760D01*
X127303497Y-97835763D01*
X127274500Y-97943982D01*
X127274500Y-98056018D01*
X127275437Y-98059515D01*
X127298882Y-98147014D01*
X127297219Y-98216864D01*
X127258056Y-98274726D01*
X127193827Y-98302230D01*
X127147014Y-98298882D01*
X127115511Y-98290441D01*
X127056018Y-98274500D01*
X126943982Y-98274500D01*
X126835763Y-98303497D01*
X126835760Y-98303498D01*
X126738740Y-98359513D01*
X126738734Y-98359517D01*
X126659517Y-98438734D01*
X126659513Y-98438740D01*
X126603498Y-98535760D01*
X126603497Y-98535763D01*
X126574500Y-98643982D01*
X123250462Y-98643982D01*
X123296503Y-98564237D01*
X123325500Y-98456018D01*
X123325500Y-98343982D01*
X123296503Y-98235763D01*
X123240485Y-98138737D01*
X123161263Y-98059515D01*
X123096579Y-98022169D01*
X123064239Y-98003498D01*
X123064238Y-98003497D01*
X123064237Y-98003497D01*
X122956018Y-97974500D01*
X122843982Y-97974500D01*
X122843980Y-97974500D01*
X122752984Y-97998882D01*
X122683135Y-97997219D01*
X122625272Y-97958056D01*
X122597769Y-97893827D01*
X122601116Y-97847018D01*
X122625500Y-97756018D01*
X122625500Y-97643982D01*
X122596503Y-97535763D01*
X122540485Y-97438737D01*
X122461263Y-97359515D01*
X122364237Y-97303497D01*
X122256018Y-97274500D01*
X122143982Y-97274500D01*
X122143980Y-97274500D01*
X122052984Y-97298882D01*
X121983135Y-97297219D01*
X121925272Y-97258056D01*
X121897769Y-97193827D01*
X121901116Y-97147018D01*
X121925500Y-97056018D01*
X121925500Y-96943982D01*
X121896503Y-96835763D01*
X121840485Y-96738737D01*
X121761263Y-96659515D01*
X121664237Y-96603497D01*
X121556018Y-96574500D01*
X121443982Y-96574500D01*
X121443980Y-96574500D01*
X121352984Y-96598882D01*
X121283135Y-96597219D01*
X121225272Y-96558056D01*
X121197769Y-96493827D01*
X121201116Y-96447018D01*
X121225500Y-96356018D01*
X121225500Y-96243982D01*
X121196503Y-96135763D01*
X121140485Y-96038737D01*
X121061263Y-95959515D01*
X120964237Y-95903497D01*
X120856018Y-95874500D01*
X120743982Y-95874500D01*
X120743980Y-95874500D01*
X120652984Y-95898882D01*
X120583135Y-95897219D01*
X120525272Y-95858056D01*
X120519245Y-95843982D01*
X129774500Y-95843982D01*
X129774500Y-95956018D01*
X129803497Y-96064237D01*
X129859515Y-96161263D01*
X129938737Y-96240485D01*
X130035763Y-96296503D01*
X130143982Y-96325500D01*
X130143984Y-96325500D01*
X130256016Y-96325500D01*
X130256018Y-96325500D01*
X130364237Y-96296503D01*
X130455206Y-96243982D01*
X144274500Y-96243982D01*
X144274500Y-96356018D01*
X144302233Y-96459517D01*
X144303497Y-96464236D01*
X144303498Y-96464239D01*
X144320581Y-96493827D01*
X144359515Y-96561263D01*
X144438737Y-96640485D01*
X144535763Y-96696503D01*
X144643982Y-96725500D01*
X144643984Y-96725500D01*
X144756016Y-96725500D01*
X144756018Y-96725500D01*
X144864237Y-96696503D01*
X144888500Y-96682494D01*
X144956398Y-96666021D01*
X145022425Y-96688872D01*
X145065617Y-96743793D01*
X145074500Y-96789881D01*
X145074500Y-96856018D01*
X145103497Y-96964237D01*
X145159515Y-97061263D01*
X145238737Y-97140485D01*
X145335763Y-97196503D01*
X145443982Y-97225500D01*
X145443984Y-97225500D01*
X145556016Y-97225500D01*
X145556018Y-97225500D01*
X145664237Y-97196503D01*
X145761263Y-97140485D01*
X145840485Y-97061263D01*
X145896503Y-96964237D01*
X145925500Y-96856018D01*
X145925500Y-96743982D01*
X145896503Y-96635763D01*
X145840485Y-96538737D01*
X145761263Y-96459515D01*
X145664237Y-96403497D01*
X145556018Y-96374500D01*
X145443982Y-96374500D01*
X145335763Y-96403497D01*
X145335756Y-96403500D01*
X145311499Y-96417505D01*
X145243599Y-96433978D01*
X145177572Y-96411125D01*
X145134382Y-96356204D01*
X145125500Y-96310118D01*
X145125500Y-96243984D01*
X145125500Y-96243982D01*
X145096503Y-96135763D01*
X145040485Y-96038737D01*
X144961263Y-95959515D01*
X144864237Y-95903497D01*
X144756018Y-95874500D01*
X144643982Y-95874500D01*
X144543624Y-95901390D01*
X144543622Y-95901391D01*
X144535763Y-95903497D01*
X144438737Y-95959515D01*
X144391697Y-96006554D01*
X144391691Y-96006559D01*
X144359518Y-96038733D01*
X144359513Y-96038740D01*
X144303498Y-96135760D01*
X144303497Y-96135763D01*
X144274500Y-96243982D01*
X130455206Y-96243982D01*
X130461263Y-96240485D01*
X130540485Y-96161263D01*
X130596503Y-96064237D01*
X130625500Y-95956018D01*
X130625500Y-95843982D01*
X130597827Y-95740704D01*
X130599490Y-95670858D01*
X130638652Y-95612995D01*
X130657747Y-95601518D01*
X130657198Y-95600567D01*
X130664237Y-95596503D01*
X130761263Y-95540485D01*
X130840485Y-95461263D01*
X130896503Y-95364237D01*
X130901930Y-95343982D01*
X143674500Y-95343982D01*
X143674500Y-95456018D01*
X143703497Y-95564237D01*
X143759515Y-95661263D01*
X143838737Y-95740485D01*
X143935763Y-95796503D01*
X144043982Y-95825500D01*
X144043984Y-95825500D01*
X144156016Y-95825500D01*
X144156018Y-95825500D01*
X144264237Y-95796503D01*
X144361263Y-95740485D01*
X144440485Y-95661263D01*
X144496503Y-95564237D01*
X144525500Y-95456018D01*
X144525500Y-95343982D01*
X144496503Y-95235763D01*
X144440485Y-95138737D01*
X144361263Y-95059515D01*
X144264237Y-95003497D01*
X144156018Y-94974500D01*
X144043982Y-94974500D01*
X143935763Y-95003497D01*
X143935760Y-95003498D01*
X143838740Y-95059513D01*
X143838734Y-95059517D01*
X143759517Y-95138734D01*
X143759513Y-95138740D01*
X143703498Y-95235760D01*
X143703497Y-95235763D01*
X143674500Y-95343982D01*
X130901930Y-95343982D01*
X130925500Y-95256018D01*
X130925500Y-95143982D01*
X130896503Y-95035763D01*
X130840485Y-94938737D01*
X130761263Y-94859515D01*
X130664237Y-94803497D01*
X130556018Y-94774500D01*
X130443982Y-94774500D01*
X130335763Y-94803497D01*
X130335760Y-94803498D01*
X130238740Y-94859513D01*
X130238734Y-94859517D01*
X130159517Y-94938734D01*
X130159513Y-94938740D01*
X130103498Y-95035760D01*
X130103497Y-95035763D01*
X130074500Y-95143982D01*
X130074500Y-95256018D01*
X130087292Y-95303760D01*
X130102172Y-95359292D01*
X130100509Y-95429142D01*
X130061346Y-95487004D01*
X130042256Y-95498487D01*
X130042802Y-95499433D01*
X129938740Y-95559513D01*
X129938734Y-95559517D01*
X129859517Y-95638734D01*
X129859513Y-95638740D01*
X129803498Y-95735760D01*
X129803497Y-95735763D01*
X129774500Y-95843982D01*
X120519245Y-95843982D01*
X120497769Y-95793827D01*
X120501116Y-95747018D01*
X120525500Y-95656018D01*
X120525500Y-95543982D01*
X120496503Y-95435763D01*
X120440485Y-95338737D01*
X120361263Y-95259515D01*
X120264237Y-95203497D01*
X120156018Y-95174500D01*
X120043982Y-95174500D01*
X119935763Y-95203497D01*
X119935760Y-95203498D01*
X119838740Y-95259513D01*
X119838734Y-95259517D01*
X119759517Y-95338734D01*
X119759513Y-95338740D01*
X119703498Y-95435760D01*
X119703497Y-95435763D01*
X119674500Y-95543982D01*
X76325015Y-95543982D01*
X76261601Y-95529382D01*
X76261588Y-95529379D01*
X75592310Y-95414687D01*
X75592263Y-95414680D01*
X74917555Y-95338013D01*
X74917549Y-95338012D01*
X74917536Y-95338011D01*
X74424569Y-95310092D01*
X74239545Y-95299614D01*
X74239541Y-95299614D01*
X73560459Y-95299614D01*
X73560454Y-95299614D01*
X73329173Y-95312712D01*
X72882464Y-95338011D01*
X72882452Y-95338012D01*
X72882444Y-95338013D01*
X72207736Y-95414680D01*
X72207689Y-95414687D01*
X71538412Y-95529379D01*
X71538411Y-95529379D01*
X70876613Y-95681747D01*
X70224540Y-95871275D01*
X70224533Y-95871278D01*
X69584198Y-96097381D01*
X68957678Y-96359326D01*
X68346975Y-96656273D01*
X68346970Y-96656276D01*
X67754014Y-96987292D01*
X67180737Y-97351296D01*
X67180722Y-97351306D01*
X66628964Y-97747127D01*
X66628951Y-97747137D01*
X66100432Y-98173542D01*
X66100424Y-98173549D01*
X65596881Y-98629138D01*
X65596872Y-98629146D01*
X65119871Y-99112503D01*
X65119864Y-99112511D01*
X64670972Y-99622046D01*
X64670958Y-99622063D01*
X64251616Y-100156138D01*
X64251606Y-100156152D01*
X64251593Y-100156169D01*
X63863097Y-100713130D01*
X63506714Y-101291167D01*
X63506712Y-101291170D01*
X63183572Y-101888453D01*
X63136731Y-101988119D01*
X62894727Y-102503041D01*
X62681774Y-103031940D01*
X62679812Y-103036814D01*
X62636513Y-103091649D01*
X62570441Y-103114371D01*
X62564786Y-103114500D01*
X59229108Y-103114500D01*
X59101812Y-103148608D01*
X58987686Y-103214500D01*
X58987683Y-103214502D01*
X58894502Y-103307683D01*
X58894500Y-103307686D01*
X58828608Y-103421812D01*
X58794500Y-103549108D01*
X55500500Y-103549108D01*
X55500500Y-91753982D01*
X98284500Y-91753982D01*
X98284500Y-91866018D01*
X98313497Y-91974237D01*
X98369515Y-92071263D01*
X98448737Y-92150485D01*
X98545763Y-92206503D01*
X98653982Y-92235500D01*
X98653984Y-92235500D01*
X98766016Y-92235500D01*
X98766018Y-92235500D01*
X98874237Y-92206503D01*
X98971263Y-92150485D01*
X99050485Y-92071263D01*
X99106503Y-91974237D01*
X99135500Y-91866018D01*
X99135500Y-91753982D01*
X99106503Y-91645763D01*
X99050485Y-91548737D01*
X98971263Y-91469515D01*
X98925757Y-91443242D01*
X98874239Y-91413498D01*
X98874238Y-91413497D01*
X98874237Y-91413497D01*
X98766018Y-91384500D01*
X98653982Y-91384500D01*
X98545763Y-91413497D01*
X98545760Y-91413498D01*
X98448740Y-91469513D01*
X98448734Y-91469517D01*
X98369517Y-91548734D01*
X98369513Y-91548740D01*
X98313498Y-91645760D01*
X98313497Y-91645763D01*
X98284500Y-91753982D01*
X55500500Y-91753982D01*
X55500500Y-91343982D01*
X119474500Y-91343982D01*
X119474500Y-91456018D01*
X119503497Y-91564237D01*
X119559515Y-91661263D01*
X119638737Y-91740485D01*
X119735763Y-91796503D01*
X119843982Y-91825500D01*
X119843984Y-91825500D01*
X119956016Y-91825500D01*
X119956018Y-91825500D01*
X120064237Y-91796503D01*
X120161263Y-91740485D01*
X120240485Y-91661263D01*
X120296503Y-91564237D01*
X120325500Y-91456018D01*
X120325500Y-91343982D01*
X120301117Y-91252983D01*
X120302780Y-91183136D01*
X120329280Y-91143982D01*
X126474500Y-91143982D01*
X126474500Y-91256018D01*
X126503497Y-91364237D01*
X126559515Y-91461263D01*
X126638737Y-91540485D01*
X126735763Y-91596503D01*
X126843982Y-91625500D01*
X126843984Y-91625500D01*
X126956016Y-91625500D01*
X126956018Y-91625500D01*
X127064237Y-91596503D01*
X127142959Y-91551052D01*
X127210854Y-91534581D01*
X127276881Y-91557433D01*
X127320072Y-91612354D01*
X127326714Y-91681907D01*
X127312344Y-91720437D01*
X127303500Y-91735756D01*
X127303497Y-91735763D01*
X127274500Y-91843982D01*
X127274500Y-91956018D01*
X127279383Y-91974239D01*
X127303497Y-92064236D01*
X127303498Y-92064239D01*
X127322169Y-92096579D01*
X127359515Y-92161263D01*
X127438737Y-92240485D01*
X127535763Y-92296503D01*
X127643982Y-92325500D01*
X127643984Y-92325500D01*
X127756016Y-92325500D01*
X127756018Y-92325500D01*
X127864237Y-92296503D01*
X127961263Y-92240485D01*
X128040485Y-92161263D01*
X128062009Y-92123982D01*
X151474500Y-92123982D01*
X151474500Y-92236018D01*
X151503497Y-92344237D01*
X151559515Y-92441263D01*
X151638737Y-92520485D01*
X151735763Y-92576503D01*
X151843982Y-92605500D01*
X151843984Y-92605500D01*
X151956016Y-92605500D01*
X151956018Y-92605500D01*
X152064237Y-92576503D01*
X152161263Y-92520485D01*
X152240485Y-92441263D01*
X152296503Y-92344237D01*
X152325500Y-92236018D01*
X152325500Y-92123982D01*
X152296503Y-92015763D01*
X152240485Y-91918737D01*
X152161263Y-91839515D01*
X152064237Y-91783497D01*
X151956018Y-91754500D01*
X151843982Y-91754500D01*
X151735763Y-91783497D01*
X151735760Y-91783498D01*
X151638740Y-91839513D01*
X151638734Y-91839517D01*
X151559517Y-91918734D01*
X151559513Y-91918740D01*
X151503498Y-92015760D01*
X151503497Y-92015763D01*
X151474500Y-92123982D01*
X128062009Y-92123982D01*
X128096503Y-92064237D01*
X128125500Y-91956018D01*
X128125500Y-91843982D01*
X128096503Y-91735763D01*
X128040485Y-91638737D01*
X127961263Y-91559515D01*
X127864237Y-91503497D01*
X127756018Y-91474500D01*
X127643982Y-91474500D01*
X127535763Y-91503497D01*
X127535760Y-91503498D01*
X127457044Y-91548945D01*
X127389143Y-91565418D01*
X127323117Y-91542565D01*
X127279926Y-91487644D01*
X127273285Y-91418090D01*
X127275173Y-91409824D01*
X127279398Y-91393863D01*
X127296503Y-91364237D01*
X127325500Y-91256018D01*
X127325500Y-91243982D01*
X143774500Y-91243982D01*
X143774500Y-91356018D01*
X143803497Y-91464237D01*
X143859515Y-91561263D01*
X143938737Y-91640485D01*
X144035763Y-91696503D01*
X144143982Y-91725500D01*
X144143984Y-91725500D01*
X144256016Y-91725500D01*
X144256018Y-91725500D01*
X144364237Y-91696503D01*
X144461263Y-91640485D01*
X144540485Y-91561263D01*
X144596503Y-91464237D01*
X144625500Y-91356018D01*
X144625500Y-91243982D01*
X144601117Y-91152983D01*
X144601331Y-91143982D01*
X150774500Y-91143982D01*
X150774500Y-91256018D01*
X150803497Y-91364237D01*
X150859515Y-91461263D01*
X150938737Y-91540485D01*
X151035763Y-91596503D01*
X151143982Y-91625500D01*
X151143984Y-91625500D01*
X151256016Y-91625500D01*
X151256018Y-91625500D01*
X151364237Y-91596503D01*
X151461263Y-91540485D01*
X151540485Y-91461263D01*
X151571414Y-91407693D01*
X154263479Y-91407693D01*
X154263479Y-91519729D01*
X154284051Y-91596503D01*
X154292476Y-91627947D01*
X154292477Y-91627950D01*
X154299714Y-91640485D01*
X154348494Y-91724974D01*
X154427716Y-91804196D01*
X154524742Y-91860214D01*
X154632961Y-91889211D01*
X154632963Y-91889211D01*
X154744995Y-91889211D01*
X154744997Y-91889211D01*
X154853216Y-91860214D01*
X154950242Y-91804196D01*
X155029464Y-91724974D01*
X155085482Y-91627948D01*
X155114479Y-91519729D01*
X155114479Y-91407693D01*
X155085482Y-91299474D01*
X155029464Y-91202448D01*
X154950242Y-91123226D01*
X154853216Y-91067208D01*
X154744997Y-91038211D01*
X154632961Y-91038211D01*
X154524742Y-91067208D01*
X154524739Y-91067209D01*
X154427719Y-91123224D01*
X154427713Y-91123228D01*
X154348496Y-91202445D01*
X154348492Y-91202451D01*
X154292477Y-91299471D01*
X154292476Y-91299474D01*
X154263479Y-91407693D01*
X151571414Y-91407693D01*
X151596503Y-91364237D01*
X151625500Y-91256018D01*
X151625500Y-91143982D01*
X151596503Y-91035763D01*
X151540485Y-90938737D01*
X151461263Y-90859515D01*
X151364237Y-90803497D01*
X151256018Y-90774500D01*
X151143982Y-90774500D01*
X151035763Y-90803497D01*
X151035760Y-90803498D01*
X150938740Y-90859513D01*
X150938734Y-90859517D01*
X150859517Y-90938734D01*
X150859513Y-90938740D01*
X150803498Y-91035760D01*
X150803497Y-91035763D01*
X150774500Y-91143982D01*
X144601331Y-91143982D01*
X144602780Y-91083136D01*
X144641942Y-91025273D01*
X144706171Y-90997769D01*
X144752981Y-91001116D01*
X144843982Y-91025500D01*
X144843985Y-91025500D01*
X144956016Y-91025500D01*
X144956018Y-91025500D01*
X145064237Y-90996503D01*
X145161263Y-90940485D01*
X145240485Y-90861263D01*
X145296503Y-90764237D01*
X145325500Y-90656018D01*
X145325500Y-90543982D01*
X145296503Y-90435763D01*
X145251053Y-90357041D01*
X145234581Y-90289144D01*
X145257433Y-90223117D01*
X145312354Y-90179927D01*
X145381908Y-90173285D01*
X145420441Y-90187657D01*
X145425705Y-90190696D01*
X145435763Y-90196503D01*
X145543982Y-90225500D01*
X145543984Y-90225500D01*
X145656016Y-90225500D01*
X145656018Y-90225500D01*
X145764237Y-90196503D01*
X145861263Y-90140485D01*
X145940485Y-90061263D01*
X145996503Y-89964237D01*
X146001930Y-89943982D01*
X148874500Y-89943982D01*
X148874500Y-90056018D01*
X148903497Y-90164237D01*
X148959515Y-90261263D01*
X149038737Y-90340485D01*
X149135763Y-90396503D01*
X149243982Y-90425500D01*
X149243984Y-90425500D01*
X149356016Y-90425500D01*
X149356018Y-90425500D01*
X149464237Y-90396503D01*
X149561263Y-90340485D01*
X149640485Y-90261263D01*
X149696503Y-90164237D01*
X149725500Y-90056018D01*
X149725500Y-89943982D01*
X149696503Y-89835763D01*
X149640485Y-89738737D01*
X149561263Y-89659515D01*
X149464237Y-89603497D01*
X149356018Y-89574500D01*
X149243982Y-89574500D01*
X149135763Y-89603497D01*
X149135760Y-89603498D01*
X149038740Y-89659513D01*
X149038734Y-89659517D01*
X148959517Y-89738734D01*
X148959513Y-89738740D01*
X148903498Y-89835760D01*
X148903497Y-89835763D01*
X148874500Y-89943982D01*
X146001930Y-89943982D01*
X146025500Y-89856018D01*
X146025500Y-89743982D01*
X145996503Y-89635763D01*
X145987657Y-89620441D01*
X145971184Y-89552540D01*
X145994037Y-89486514D01*
X146048958Y-89443323D01*
X146118512Y-89436682D01*
X146157039Y-89451051D01*
X146235763Y-89496503D01*
X146343982Y-89525500D01*
X146343984Y-89525500D01*
X146456016Y-89525500D01*
X146456018Y-89525500D01*
X146522475Y-89507693D01*
X152363479Y-89507693D01*
X152363479Y-89619729D01*
X152390533Y-89720694D01*
X152392476Y-89727947D01*
X152392477Y-89727950D01*
X152399714Y-89740485D01*
X152448494Y-89824974D01*
X152527716Y-89904196D01*
X152624742Y-89960214D01*
X152732961Y-89989211D01*
X152732963Y-89989211D01*
X152844995Y-89989211D01*
X152844997Y-89989211D01*
X152953216Y-89960214D01*
X153050242Y-89904196D01*
X153129464Y-89824974D01*
X153185482Y-89727948D01*
X153214479Y-89619729D01*
X153214479Y-89507693D01*
X153185482Y-89399474D01*
X153129464Y-89302448D01*
X153050242Y-89223226D01*
X152953216Y-89167208D01*
X152844997Y-89138211D01*
X152732961Y-89138211D01*
X152624742Y-89167208D01*
X152624739Y-89167209D01*
X152527719Y-89223224D01*
X152527713Y-89223228D01*
X152448496Y-89302445D01*
X152448492Y-89302451D01*
X152392477Y-89399471D01*
X152392476Y-89399474D01*
X152363479Y-89507693D01*
X146522475Y-89507693D01*
X146564237Y-89496503D01*
X146661263Y-89440485D01*
X146740485Y-89361263D01*
X146796503Y-89264237D01*
X146825500Y-89156018D01*
X146825500Y-89043982D01*
X146796503Y-88935763D01*
X146751053Y-88857041D01*
X146747885Y-88843982D01*
X148974500Y-88843982D01*
X148974500Y-88956018D01*
X149003497Y-89064237D01*
X149059515Y-89161263D01*
X149138737Y-89240485D01*
X149235763Y-89296503D01*
X149343982Y-89325500D01*
X149343984Y-89325500D01*
X149456016Y-89325500D01*
X149456018Y-89325500D01*
X149564237Y-89296503D01*
X149661263Y-89240485D01*
X149740485Y-89161263D01*
X149796503Y-89064237D01*
X149825500Y-88956018D01*
X149825500Y-88843982D01*
X149796503Y-88735763D01*
X149740485Y-88638737D01*
X149661263Y-88559515D01*
X149564237Y-88503497D01*
X149456018Y-88474500D01*
X149343982Y-88474500D01*
X149235763Y-88503497D01*
X149235760Y-88503498D01*
X149138740Y-88559513D01*
X149138734Y-88559517D01*
X149059517Y-88638734D01*
X149059513Y-88638740D01*
X149003498Y-88735760D01*
X149003497Y-88735763D01*
X148974500Y-88843982D01*
X146747885Y-88843982D01*
X146734581Y-88789144D01*
X146757433Y-88723117D01*
X146812354Y-88679927D01*
X146881908Y-88673285D01*
X146920441Y-88687657D01*
X146935763Y-88696503D01*
X147043982Y-88725500D01*
X147043984Y-88725500D01*
X147156016Y-88725500D01*
X147156018Y-88725500D01*
X147264237Y-88696503D01*
X147361263Y-88640485D01*
X147440485Y-88561263D01*
X147496503Y-88464237D01*
X147525500Y-88356018D01*
X147525500Y-88243982D01*
X147496503Y-88135763D01*
X147440485Y-88038737D01*
X147361263Y-87959515D01*
X147264237Y-87903497D01*
X147156018Y-87874500D01*
X147043982Y-87874500D01*
X146935763Y-87903497D01*
X146935760Y-87903498D01*
X146838740Y-87959513D01*
X146838734Y-87959517D01*
X146759517Y-88038734D01*
X146759513Y-88038740D01*
X146703498Y-88135760D01*
X146703497Y-88135763D01*
X146674500Y-88243982D01*
X146674500Y-88356018D01*
X146701295Y-88456017D01*
X146703497Y-88464236D01*
X146703498Y-88464239D01*
X146748945Y-88542955D01*
X146765418Y-88610855D01*
X146742566Y-88676882D01*
X146687644Y-88720073D01*
X146618091Y-88726714D01*
X146579560Y-88712343D01*
X146564241Y-88703499D01*
X146564239Y-88703498D01*
X146564237Y-88703497D01*
X146456018Y-88674500D01*
X146343982Y-88674500D01*
X146235763Y-88703497D01*
X146235760Y-88703498D01*
X146138740Y-88759513D01*
X146138734Y-88759517D01*
X146059517Y-88838734D01*
X146059513Y-88838740D01*
X146003498Y-88935760D01*
X146003497Y-88935763D01*
X145974500Y-89043982D01*
X145974500Y-89156018D01*
X146002233Y-89259517D01*
X146003497Y-89264236D01*
X146003499Y-89264241D01*
X146012343Y-89279560D01*
X146028814Y-89347460D01*
X146005961Y-89413487D01*
X145951039Y-89456676D01*
X145881486Y-89463317D01*
X145842955Y-89448945D01*
X145833217Y-89443323D01*
X145764237Y-89403497D01*
X145656018Y-89374500D01*
X145543982Y-89374500D01*
X145435763Y-89403497D01*
X145435760Y-89403498D01*
X145338740Y-89459513D01*
X145338734Y-89459517D01*
X145259517Y-89538734D01*
X145259513Y-89538740D01*
X145203498Y-89635760D01*
X145203497Y-89635763D01*
X145174500Y-89743982D01*
X145174500Y-89856018D01*
X145198071Y-89943984D01*
X145203497Y-89964236D01*
X145203498Y-89964239D01*
X145248945Y-90042955D01*
X145265418Y-90110855D01*
X145242566Y-90176882D01*
X145187644Y-90220073D01*
X145118091Y-90226714D01*
X145079560Y-90212343D01*
X145064241Y-90203499D01*
X145064239Y-90203498D01*
X145064237Y-90203497D01*
X144956018Y-90174500D01*
X144843982Y-90174500D01*
X144735763Y-90203497D01*
X144735760Y-90203498D01*
X144638740Y-90259513D01*
X144638734Y-90259517D01*
X144559517Y-90338734D01*
X144559513Y-90338740D01*
X144503498Y-90435760D01*
X144503497Y-90435763D01*
X144474500Y-90543982D01*
X144474500Y-90656017D01*
X144498882Y-90747014D01*
X144497219Y-90816864D01*
X144458056Y-90874726D01*
X144393827Y-90902230D01*
X144347014Y-90898882D01*
X144315511Y-90890441D01*
X144256018Y-90874500D01*
X144143982Y-90874500D01*
X144035763Y-90903497D01*
X144035760Y-90903498D01*
X143938740Y-90959513D01*
X143938734Y-90959517D01*
X143859517Y-91038734D01*
X143859513Y-91038740D01*
X143803498Y-91135760D01*
X143803497Y-91135763D01*
X143774500Y-91243982D01*
X127325500Y-91243982D01*
X127325500Y-91143982D01*
X127296503Y-91035763D01*
X127240485Y-90938737D01*
X127161263Y-90859515D01*
X127064237Y-90803497D01*
X126956018Y-90774500D01*
X126843982Y-90774500D01*
X126735763Y-90803497D01*
X126735760Y-90803498D01*
X126638740Y-90859513D01*
X126638734Y-90859517D01*
X126559517Y-90938734D01*
X126559513Y-90938740D01*
X126503498Y-91035760D01*
X126503497Y-91035763D01*
X126474500Y-91143982D01*
X120329280Y-91143982D01*
X120341942Y-91125273D01*
X120406171Y-91097769D01*
X120452981Y-91101116D01*
X120543982Y-91125500D01*
X120543985Y-91125500D01*
X120656016Y-91125500D01*
X120656018Y-91125500D01*
X120764237Y-91096503D01*
X120861263Y-91040485D01*
X120940485Y-90961263D01*
X120996503Y-90864237D01*
X121025500Y-90756018D01*
X121025500Y-90643982D01*
X121001117Y-90552983D01*
X121002780Y-90483136D01*
X121008178Y-90475161D01*
X123959263Y-90475161D01*
X123959263Y-90587197D01*
X123988260Y-90695416D01*
X124044278Y-90792442D01*
X124123500Y-90871664D01*
X124220526Y-90927682D01*
X124328745Y-90956679D01*
X124328747Y-90956679D01*
X124440779Y-90956679D01*
X124440781Y-90956679D01*
X124549000Y-90927682D01*
X124646026Y-90871664D01*
X124725248Y-90792442D01*
X124781266Y-90695416D01*
X124810263Y-90587197D01*
X124810263Y-90578010D01*
X124829948Y-90510971D01*
X124882752Y-90465216D01*
X124902169Y-90458235D01*
X124904237Y-90457682D01*
X125001263Y-90401664D01*
X125080485Y-90322442D01*
X125136503Y-90225416D01*
X125165500Y-90117197D01*
X125165500Y-90005161D01*
X125136503Y-89896942D01*
X125080485Y-89799916D01*
X125001263Y-89720694D01*
X125001261Y-89720693D01*
X125001259Y-89720691D01*
X124956632Y-89694926D01*
X124908416Y-89644359D01*
X124895194Y-89575751D01*
X124898852Y-89555467D01*
X124925500Y-89456018D01*
X124925500Y-89343982D01*
X128074500Y-89343982D01*
X128074500Y-89456018D01*
X128103497Y-89564237D01*
X128159515Y-89661263D01*
X128238737Y-89740485D01*
X128335763Y-89796503D01*
X128443982Y-89825500D01*
X128443984Y-89825500D01*
X128556016Y-89825500D01*
X128556018Y-89825500D01*
X128664237Y-89796503D01*
X128761263Y-89740485D01*
X128840485Y-89661263D01*
X128896503Y-89564237D01*
X128925500Y-89456018D01*
X128925500Y-89343982D01*
X128896503Y-89235763D01*
X128840485Y-89138737D01*
X128761263Y-89059515D01*
X128664237Y-89003497D01*
X128556018Y-88974500D01*
X128443982Y-88974500D01*
X128335763Y-89003497D01*
X128335760Y-89003498D01*
X128238740Y-89059513D01*
X128238734Y-89059517D01*
X128159517Y-89138734D01*
X128159513Y-89138740D01*
X128103498Y-89235760D01*
X128103497Y-89235763D01*
X128074500Y-89343982D01*
X124925500Y-89343982D01*
X124896503Y-89235763D01*
X124840485Y-89138737D01*
X124761263Y-89059515D01*
X124664237Y-89003497D01*
X124556018Y-88974500D01*
X124443982Y-88974500D01*
X124335763Y-89003497D01*
X124335760Y-89003498D01*
X124238740Y-89059513D01*
X124238734Y-89059517D01*
X124159517Y-89138734D01*
X124159513Y-89138740D01*
X124103498Y-89235760D01*
X124103497Y-89235763D01*
X124074500Y-89343982D01*
X124074500Y-89456018D01*
X124103497Y-89564237D01*
X124159515Y-89661263D01*
X124238737Y-89740485D01*
X124279875Y-89764236D01*
X124283367Y-89766252D01*
X124300690Y-89784420D01*
X124320764Y-89799502D01*
X124324389Y-89809274D01*
X124331583Y-89816819D01*
X124336334Y-89841473D01*
X124345066Y-89865009D01*
X124343667Y-89879520D01*
X124344806Y-89885426D01*
X124342487Y-89900209D01*
X124341879Y-89902980D01*
X124314500Y-90005161D01*
X124314500Y-90027788D01*
X124311620Y-90040917D01*
X124301023Y-90060242D01*
X124294815Y-90081386D01*
X124284555Y-90090275D01*
X124278028Y-90102181D01*
X124258665Y-90112709D01*
X124242011Y-90127141D01*
X124222596Y-90134121D01*
X124220527Y-90134675D01*
X124220522Y-90134677D01*
X124123503Y-90190691D01*
X124123497Y-90190696D01*
X124044280Y-90269913D01*
X124044276Y-90269919D01*
X123988261Y-90366939D01*
X123988260Y-90366942D01*
X123959263Y-90475161D01*
X121008178Y-90475161D01*
X121041942Y-90425273D01*
X121106171Y-90397769D01*
X121152981Y-90401116D01*
X121243982Y-90425500D01*
X121243985Y-90425500D01*
X121356016Y-90425500D01*
X121356018Y-90425500D01*
X121464237Y-90396503D01*
X121561263Y-90340485D01*
X121640485Y-90261263D01*
X121696503Y-90164237D01*
X121725500Y-90056018D01*
X121725500Y-89943982D01*
X121696503Y-89835763D01*
X121640485Y-89738737D01*
X121637527Y-89735779D01*
X121635830Y-89732672D01*
X121635538Y-89732291D01*
X121635597Y-89732245D01*
X121604042Y-89674456D01*
X121609026Y-89604764D01*
X121650898Y-89548831D01*
X121716362Y-89524414D01*
X121741397Y-89525159D01*
X121743977Y-89525498D01*
X121743982Y-89525500D01*
X121743987Y-89525500D01*
X121856016Y-89525500D01*
X121856018Y-89525500D01*
X121964237Y-89496503D01*
X122061263Y-89440485D01*
X122140485Y-89361263D01*
X122196503Y-89264237D01*
X122225500Y-89156018D01*
X122225500Y-89043982D01*
X122196503Y-88935763D01*
X122175581Y-88899525D01*
X122159108Y-88831625D01*
X122181961Y-88765598D01*
X122236882Y-88722407D01*
X122306435Y-88715766D01*
X122315036Y-88717744D01*
X122343982Y-88725500D01*
X122343985Y-88725500D01*
X122456016Y-88725500D01*
X122456018Y-88725500D01*
X122564237Y-88696503D01*
X122661263Y-88640485D01*
X122740485Y-88561263D01*
X122796503Y-88464237D01*
X122825500Y-88356018D01*
X122825500Y-88243982D01*
X122796503Y-88135763D01*
X122740485Y-88038737D01*
X122661263Y-87959515D01*
X122564237Y-87903497D01*
X122456018Y-87874500D01*
X122343982Y-87874500D01*
X122235763Y-87903497D01*
X122235760Y-87903498D01*
X122138740Y-87959513D01*
X122138734Y-87959517D01*
X122059517Y-88038734D01*
X122059513Y-88038740D01*
X122003498Y-88135760D01*
X122003497Y-88135763D01*
X121974500Y-88243982D01*
X121974500Y-88356018D01*
X122001295Y-88456017D01*
X122003497Y-88464236D01*
X122003497Y-88464237D01*
X122024419Y-88500475D01*
X122040891Y-88568375D01*
X122018038Y-88634402D01*
X121963116Y-88677592D01*
X121893563Y-88684233D01*
X121884939Y-88682249D01*
X121856019Y-88674500D01*
X121856018Y-88674500D01*
X121743982Y-88674500D01*
X121635763Y-88703497D01*
X121635760Y-88703498D01*
X121538740Y-88759513D01*
X121538734Y-88759517D01*
X121459517Y-88838734D01*
X121459513Y-88838740D01*
X121403498Y-88935760D01*
X121403497Y-88935763D01*
X121374500Y-89043982D01*
X121374500Y-89156018D01*
X121403497Y-89264237D01*
X121459515Y-89361263D01*
X121459517Y-89361265D01*
X121462472Y-89364220D01*
X121464167Y-89367325D01*
X121464462Y-89367709D01*
X121464402Y-89367754D01*
X121495957Y-89425543D01*
X121490973Y-89495235D01*
X121449101Y-89551168D01*
X121383637Y-89575585D01*
X121358612Y-89574841D01*
X121356021Y-89574500D01*
X121356018Y-89574500D01*
X121243982Y-89574500D01*
X121135763Y-89603497D01*
X121135760Y-89603498D01*
X121038740Y-89659513D01*
X121038734Y-89659517D01*
X120959517Y-89738734D01*
X120959513Y-89738740D01*
X120903498Y-89835760D01*
X120903497Y-89835763D01*
X120874500Y-89943982D01*
X120874500Y-90056018D01*
X120875906Y-90061265D01*
X120898882Y-90147014D01*
X120897219Y-90216864D01*
X120858056Y-90274726D01*
X120793827Y-90302230D01*
X120747014Y-90298882D01*
X120715511Y-90290441D01*
X120656018Y-90274500D01*
X120543982Y-90274500D01*
X120435763Y-90303497D01*
X120435760Y-90303498D01*
X120338740Y-90359513D01*
X120338734Y-90359517D01*
X120259517Y-90438734D01*
X120259513Y-90438740D01*
X120203498Y-90535760D01*
X120203497Y-90535763D01*
X120174500Y-90643982D01*
X120174500Y-90756017D01*
X120198882Y-90847014D01*
X120197219Y-90916864D01*
X120158056Y-90974726D01*
X120093827Y-91002230D01*
X120047014Y-90998882D01*
X120015511Y-90990441D01*
X119956018Y-90974500D01*
X119843982Y-90974500D01*
X119735763Y-91003497D01*
X119735760Y-91003498D01*
X119638740Y-91059513D01*
X119638734Y-91059517D01*
X119559517Y-91138734D01*
X119559513Y-91138740D01*
X119503498Y-91235760D01*
X119503497Y-91235763D01*
X119474500Y-91343982D01*
X55500500Y-91343982D01*
X55500500Y-90643982D01*
X107274500Y-90643982D01*
X107274500Y-90756018D01*
X107302233Y-90859517D01*
X107303497Y-90864236D01*
X107303498Y-90864239D01*
X107309422Y-90874500D01*
X107359515Y-90961263D01*
X107438737Y-91040485D01*
X107535763Y-91096503D01*
X107643982Y-91125500D01*
X107643984Y-91125500D01*
X107756016Y-91125500D01*
X107756018Y-91125500D01*
X107864237Y-91096503D01*
X107961263Y-91040485D01*
X108040485Y-90961263D01*
X108096503Y-90864237D01*
X108125500Y-90756018D01*
X108125500Y-90643982D01*
X108096503Y-90535763D01*
X108040485Y-90438737D01*
X107961263Y-90359515D01*
X107864237Y-90303497D01*
X107756018Y-90274500D01*
X107643982Y-90274500D01*
X107535763Y-90303497D01*
X107535760Y-90303498D01*
X107438740Y-90359513D01*
X107438734Y-90359517D01*
X107359517Y-90438734D01*
X107359513Y-90438740D01*
X107303498Y-90535760D01*
X107303497Y-90535763D01*
X107274500Y-90643982D01*
X55500500Y-90643982D01*
X55500500Y-89543982D01*
X90174500Y-89543982D01*
X90174500Y-89656018D01*
X90203497Y-89764237D01*
X90259515Y-89861263D01*
X90338737Y-89940485D01*
X90435763Y-89996503D01*
X90543982Y-90025500D01*
X90543984Y-90025500D01*
X90656016Y-90025500D01*
X90656018Y-90025500D01*
X90764237Y-89996503D01*
X90861263Y-89940485D01*
X90940485Y-89861263D01*
X90996503Y-89764237D01*
X91025500Y-89656018D01*
X91025500Y-89543982D01*
X90996503Y-89435763D01*
X90940485Y-89338737D01*
X90861263Y-89259515D01*
X90764237Y-89203497D01*
X90656018Y-89174500D01*
X90543982Y-89174500D01*
X90435763Y-89203497D01*
X90435760Y-89203498D01*
X90338740Y-89259513D01*
X90338734Y-89259517D01*
X90259517Y-89338734D01*
X90259513Y-89338740D01*
X90203498Y-89435760D01*
X90203497Y-89435763D01*
X90174500Y-89543982D01*
X55500500Y-89543982D01*
X55500500Y-88343982D01*
X90074500Y-88343982D01*
X90074500Y-88456018D01*
X90103497Y-88564237D01*
X90159515Y-88661263D01*
X90238737Y-88740485D01*
X90335763Y-88796503D01*
X90443982Y-88825500D01*
X90443984Y-88825500D01*
X90556016Y-88825500D01*
X90556018Y-88825500D01*
X90664237Y-88796503D01*
X90761263Y-88740485D01*
X90840485Y-88661263D01*
X90896503Y-88564237D01*
X90925500Y-88456018D01*
X90925500Y-88343982D01*
X90896503Y-88235763D01*
X90840485Y-88138737D01*
X90761263Y-88059515D01*
X90664237Y-88003497D01*
X90556018Y-87974500D01*
X90443982Y-87974500D01*
X90335763Y-88003497D01*
X90335760Y-88003498D01*
X90238740Y-88059513D01*
X90238734Y-88059517D01*
X90159517Y-88138734D01*
X90159513Y-88138740D01*
X90103498Y-88235760D01*
X90103497Y-88235763D01*
X90074500Y-88343982D01*
X55500500Y-88343982D01*
X55500500Y-87943982D01*
X102774500Y-87943982D01*
X102774500Y-88056018D01*
X102803497Y-88164237D01*
X102859515Y-88261263D01*
X102938737Y-88340485D01*
X103035763Y-88396503D01*
X103143982Y-88425500D01*
X103143984Y-88425500D01*
X103256016Y-88425500D01*
X103256018Y-88425500D01*
X103364237Y-88396503D01*
X103461263Y-88340485D01*
X103540485Y-88261263D01*
X103596503Y-88164237D01*
X103625500Y-88056018D01*
X103625500Y-87943982D01*
X103596503Y-87835763D01*
X103540485Y-87738737D01*
X103461263Y-87659515D01*
X103364237Y-87603497D01*
X103256018Y-87574500D01*
X103143982Y-87574500D01*
X103035763Y-87603497D01*
X103035760Y-87603498D01*
X102938740Y-87659513D01*
X102938734Y-87659517D01*
X102859517Y-87738734D01*
X102859513Y-87738740D01*
X102803498Y-87835760D01*
X102803497Y-87835763D01*
X102774500Y-87943982D01*
X55500500Y-87943982D01*
X55500500Y-87243982D01*
X91174500Y-87243982D01*
X91174500Y-87356018D01*
X91203497Y-87464237D01*
X91259515Y-87561263D01*
X91338737Y-87640485D01*
X91435763Y-87696503D01*
X91543982Y-87725500D01*
X91543984Y-87725500D01*
X91656016Y-87725500D01*
X91656018Y-87725500D01*
X91764237Y-87696503D01*
X91861263Y-87640485D01*
X91940485Y-87561263D01*
X91996503Y-87464237D01*
X92025500Y-87356018D01*
X92025500Y-87243982D01*
X91996503Y-87135763D01*
X91940485Y-87038737D01*
X91861263Y-86959515D01*
X91764237Y-86903497D01*
X91656018Y-86874500D01*
X91543982Y-86874500D01*
X91435763Y-86903497D01*
X91435760Y-86903498D01*
X91338740Y-86959513D01*
X91338734Y-86959517D01*
X91259517Y-87038734D01*
X91259513Y-87038740D01*
X91203498Y-87135760D01*
X91203497Y-87135763D01*
X91174500Y-87243982D01*
X55500500Y-87243982D01*
X55500500Y-85443982D01*
X56974500Y-85443982D01*
X56974500Y-85556018D01*
X57003497Y-85664237D01*
X57059515Y-85761263D01*
X57138737Y-85840485D01*
X57235763Y-85896503D01*
X57343982Y-85925500D01*
X57343984Y-85925500D01*
X57456016Y-85925500D01*
X57456018Y-85925500D01*
X57564237Y-85896503D01*
X57661263Y-85840485D01*
X57740485Y-85761263D01*
X57796503Y-85664237D01*
X57825500Y-85556018D01*
X57825500Y-85443982D01*
X57798705Y-85343982D01*
X115274500Y-85343982D01*
X115274500Y-85456018D01*
X115303497Y-85564237D01*
X115359515Y-85661263D01*
X115438737Y-85740485D01*
X115535763Y-85796503D01*
X115643982Y-85825500D01*
X115643984Y-85825500D01*
X115756016Y-85825500D01*
X115756018Y-85825500D01*
X115864237Y-85796503D01*
X115961263Y-85740485D01*
X116040485Y-85661263D01*
X116096503Y-85564237D01*
X116125500Y-85456018D01*
X116125500Y-85343982D01*
X117174500Y-85343982D01*
X117174500Y-85456018D01*
X117203497Y-85564237D01*
X117259515Y-85661263D01*
X117338737Y-85740485D01*
X117435763Y-85796503D01*
X117543982Y-85825500D01*
X117543984Y-85825500D01*
X117656016Y-85825500D01*
X117656018Y-85825500D01*
X117764237Y-85796503D01*
X117861263Y-85740485D01*
X117940485Y-85661263D01*
X117996503Y-85564237D01*
X118025500Y-85456018D01*
X118025500Y-85343982D01*
X117998705Y-85243982D01*
X120974500Y-85243982D01*
X120974500Y-85356018D01*
X121003497Y-85464237D01*
X121059515Y-85561263D01*
X121138737Y-85640485D01*
X121235763Y-85696503D01*
X121343982Y-85725500D01*
X121343984Y-85725500D01*
X121456016Y-85725500D01*
X121456018Y-85725500D01*
X121564237Y-85696503D01*
X121661263Y-85640485D01*
X121740485Y-85561263D01*
X121796503Y-85464237D01*
X121825500Y-85356018D01*
X121825500Y-85243982D01*
X122874500Y-85243982D01*
X122874500Y-85356018D01*
X122903497Y-85464237D01*
X122959515Y-85561263D01*
X123038737Y-85640485D01*
X123135763Y-85696503D01*
X123243982Y-85725500D01*
X123243984Y-85725500D01*
X123356016Y-85725500D01*
X123356018Y-85725500D01*
X123464237Y-85696503D01*
X123561263Y-85640485D01*
X123640485Y-85561263D01*
X123696503Y-85464237D01*
X123725500Y-85356018D01*
X123725500Y-85243982D01*
X126674500Y-85243982D01*
X126674500Y-85356018D01*
X126703497Y-85464237D01*
X126759515Y-85561263D01*
X126838737Y-85640485D01*
X126935763Y-85696503D01*
X127043982Y-85725500D01*
X127043984Y-85725500D01*
X127156016Y-85725500D01*
X127156018Y-85725500D01*
X127264237Y-85696503D01*
X127361263Y-85640485D01*
X127440485Y-85561263D01*
X127496503Y-85464237D01*
X127525500Y-85356018D01*
X127525500Y-85243982D01*
X127498705Y-85143982D01*
X128574500Y-85143982D01*
X128574500Y-85256018D01*
X128601295Y-85356017D01*
X128603497Y-85364236D01*
X128603498Y-85364239D01*
X128622169Y-85396579D01*
X128659515Y-85461263D01*
X128738737Y-85540485D01*
X128835763Y-85596503D01*
X128943982Y-85625500D01*
X128943984Y-85625500D01*
X129056016Y-85625500D01*
X129056018Y-85625500D01*
X129164237Y-85596503D01*
X129261263Y-85540485D01*
X129340485Y-85461263D01*
X129396503Y-85364237D01*
X129425500Y-85256018D01*
X129425500Y-85143982D01*
X132374500Y-85143982D01*
X132374500Y-85256018D01*
X132401295Y-85356017D01*
X132403497Y-85364236D01*
X132403498Y-85364239D01*
X132422169Y-85396579D01*
X132459515Y-85461263D01*
X132538737Y-85540485D01*
X132635763Y-85596503D01*
X132743982Y-85625500D01*
X132743984Y-85625500D01*
X132856016Y-85625500D01*
X132856018Y-85625500D01*
X132964237Y-85596503D01*
X133061263Y-85540485D01*
X133140485Y-85461263D01*
X133196503Y-85364237D01*
X133225500Y-85256018D01*
X133225500Y-85143982D01*
X134274500Y-85143982D01*
X134274500Y-85256018D01*
X134301295Y-85356017D01*
X134303497Y-85364236D01*
X134303498Y-85364239D01*
X134322169Y-85396579D01*
X134359515Y-85461263D01*
X134438737Y-85540485D01*
X134535763Y-85596503D01*
X134643982Y-85625500D01*
X134643984Y-85625500D01*
X134756016Y-85625500D01*
X134756018Y-85625500D01*
X134864237Y-85596503D01*
X134961263Y-85540485D01*
X135040485Y-85461263D01*
X135096503Y-85364237D01*
X135125500Y-85256018D01*
X135125500Y-85143982D01*
X138274500Y-85143982D01*
X138274500Y-85256018D01*
X138301295Y-85356017D01*
X138303497Y-85364236D01*
X138303498Y-85364239D01*
X138322169Y-85396579D01*
X138359515Y-85461263D01*
X138438737Y-85540485D01*
X138535763Y-85596503D01*
X138643982Y-85625500D01*
X138643984Y-85625500D01*
X138756016Y-85625500D01*
X138756018Y-85625500D01*
X138864237Y-85596503D01*
X138961263Y-85540485D01*
X139040485Y-85461263D01*
X139096503Y-85364237D01*
X139125500Y-85256018D01*
X139125500Y-85143982D01*
X140174500Y-85143982D01*
X140174500Y-85256018D01*
X140201295Y-85356017D01*
X140203497Y-85364236D01*
X140203498Y-85364239D01*
X140222169Y-85396579D01*
X140259515Y-85461263D01*
X140338737Y-85540485D01*
X140435763Y-85596503D01*
X140543982Y-85625500D01*
X140543984Y-85625500D01*
X140656016Y-85625500D01*
X140656018Y-85625500D01*
X140764237Y-85596503D01*
X140861263Y-85540485D01*
X140940485Y-85461263D01*
X140996503Y-85364237D01*
X141025500Y-85256018D01*
X141025500Y-85143982D01*
X143974500Y-85143982D01*
X143974500Y-85256018D01*
X144001295Y-85356017D01*
X144003497Y-85364236D01*
X144003498Y-85364239D01*
X144022169Y-85396579D01*
X144059515Y-85461263D01*
X144138737Y-85540485D01*
X144235763Y-85596503D01*
X144343982Y-85625500D01*
X144343984Y-85625500D01*
X144456016Y-85625500D01*
X144456018Y-85625500D01*
X144564237Y-85596503D01*
X144661263Y-85540485D01*
X144740485Y-85461263D01*
X144796503Y-85364237D01*
X144825500Y-85256018D01*
X144825500Y-85143982D01*
X145874500Y-85143982D01*
X145874500Y-85256018D01*
X145901295Y-85356017D01*
X145903497Y-85364236D01*
X145903498Y-85364239D01*
X145922169Y-85396579D01*
X145959515Y-85461263D01*
X146038737Y-85540485D01*
X146135763Y-85596503D01*
X146243982Y-85625500D01*
X146243984Y-85625500D01*
X146356016Y-85625500D01*
X146356018Y-85625500D01*
X146464237Y-85596503D01*
X146561263Y-85540485D01*
X146640485Y-85461263D01*
X146696503Y-85364237D01*
X146725500Y-85256018D01*
X146725500Y-85243982D01*
X149874500Y-85243982D01*
X149874500Y-85356018D01*
X149903497Y-85464237D01*
X149959515Y-85561263D01*
X150038737Y-85640485D01*
X150135763Y-85696503D01*
X150243982Y-85725500D01*
X150243984Y-85725500D01*
X150356016Y-85725500D01*
X150356018Y-85725500D01*
X150464237Y-85696503D01*
X150561263Y-85640485D01*
X150640485Y-85561263D01*
X150696503Y-85464237D01*
X150725500Y-85356018D01*
X150725500Y-85243982D01*
X150698705Y-85143982D01*
X151874500Y-85143982D01*
X151874500Y-85256018D01*
X151901295Y-85356017D01*
X151903497Y-85364236D01*
X151903498Y-85364239D01*
X151922169Y-85396579D01*
X151959515Y-85461263D01*
X152038737Y-85540485D01*
X152135763Y-85596503D01*
X152243982Y-85625500D01*
X152243984Y-85625500D01*
X152356016Y-85625500D01*
X152356018Y-85625500D01*
X152464237Y-85596503D01*
X152561263Y-85540485D01*
X152640485Y-85461263D01*
X152696503Y-85364237D01*
X152725500Y-85256018D01*
X152725500Y-85143982D01*
X155674500Y-85143982D01*
X155674500Y-85256018D01*
X155701295Y-85356017D01*
X155703497Y-85364236D01*
X155703498Y-85364239D01*
X155722169Y-85396579D01*
X155759515Y-85461263D01*
X155838737Y-85540485D01*
X155935763Y-85596503D01*
X156043982Y-85625500D01*
X156043984Y-85625500D01*
X156156016Y-85625500D01*
X156156018Y-85625500D01*
X156264237Y-85596503D01*
X156361263Y-85540485D01*
X156440485Y-85461263D01*
X156496503Y-85364237D01*
X156525500Y-85256018D01*
X156525500Y-85143982D01*
X157574500Y-85143982D01*
X157574500Y-85256018D01*
X157601295Y-85356017D01*
X157603497Y-85364236D01*
X157603498Y-85364239D01*
X157622169Y-85396579D01*
X157659515Y-85461263D01*
X157738737Y-85540485D01*
X157835763Y-85596503D01*
X157943982Y-85625500D01*
X157943984Y-85625500D01*
X158056016Y-85625500D01*
X158056018Y-85625500D01*
X158164237Y-85596503D01*
X158261263Y-85540485D01*
X158340485Y-85461263D01*
X158396503Y-85364237D01*
X158425500Y-85256018D01*
X158425500Y-85143982D01*
X158396503Y-85035763D01*
X158340485Y-84938737D01*
X158261263Y-84859515D01*
X158164237Y-84803497D01*
X158056018Y-84774500D01*
X157943982Y-84774500D01*
X157835763Y-84803497D01*
X157835760Y-84803498D01*
X157738740Y-84859513D01*
X157738734Y-84859517D01*
X157659517Y-84938734D01*
X157659513Y-84938740D01*
X157603498Y-85035760D01*
X157603497Y-85035763D01*
X157574500Y-85143982D01*
X156525500Y-85143982D01*
X156496503Y-85035763D01*
X156440485Y-84938737D01*
X156361263Y-84859515D01*
X156264237Y-84803497D01*
X156156018Y-84774500D01*
X156043982Y-84774500D01*
X155935763Y-84803497D01*
X155935760Y-84803498D01*
X155838740Y-84859513D01*
X155838734Y-84859517D01*
X155759517Y-84938734D01*
X155759513Y-84938740D01*
X155703498Y-85035760D01*
X155703497Y-85035763D01*
X155674500Y-85143982D01*
X152725500Y-85143982D01*
X152696503Y-85035763D01*
X152640485Y-84938737D01*
X152561263Y-84859515D01*
X152464237Y-84803497D01*
X152356018Y-84774500D01*
X152243982Y-84774500D01*
X152135763Y-84803497D01*
X152135760Y-84803498D01*
X152038740Y-84859513D01*
X152038734Y-84859517D01*
X151959517Y-84938734D01*
X151959513Y-84938740D01*
X151903498Y-85035760D01*
X151903497Y-85035763D01*
X151874500Y-85143982D01*
X150698705Y-85143982D01*
X150696503Y-85135763D01*
X150640485Y-85038737D01*
X150561263Y-84959515D01*
X150464237Y-84903497D01*
X150356018Y-84874500D01*
X150243982Y-84874500D01*
X150135763Y-84903497D01*
X150135760Y-84903498D01*
X150038740Y-84959513D01*
X150038734Y-84959517D01*
X149959517Y-85038734D01*
X149959513Y-85038740D01*
X149903498Y-85135760D01*
X149903497Y-85135763D01*
X149874500Y-85243982D01*
X146725500Y-85243982D01*
X146725500Y-85143982D01*
X146696503Y-85035763D01*
X146640485Y-84938737D01*
X146561263Y-84859515D01*
X146464237Y-84803497D01*
X146356018Y-84774500D01*
X146243982Y-84774500D01*
X146135763Y-84803497D01*
X146135760Y-84803498D01*
X146038740Y-84859513D01*
X146038734Y-84859517D01*
X145959517Y-84938734D01*
X145959513Y-84938740D01*
X145903498Y-85035760D01*
X145903497Y-85035763D01*
X145874500Y-85143982D01*
X144825500Y-85143982D01*
X144796503Y-85035763D01*
X144740485Y-84938737D01*
X144661263Y-84859515D01*
X144564237Y-84803497D01*
X144456018Y-84774500D01*
X144343982Y-84774500D01*
X144235763Y-84803497D01*
X144235760Y-84803498D01*
X144138740Y-84859513D01*
X144138734Y-84859517D01*
X144059517Y-84938734D01*
X144059513Y-84938740D01*
X144003498Y-85035760D01*
X144003497Y-85035763D01*
X143974500Y-85143982D01*
X141025500Y-85143982D01*
X140996503Y-85035763D01*
X140940485Y-84938737D01*
X140861263Y-84859515D01*
X140764237Y-84803497D01*
X140656018Y-84774500D01*
X140543982Y-84774500D01*
X140435763Y-84803497D01*
X140435760Y-84803498D01*
X140338740Y-84859513D01*
X140338734Y-84859517D01*
X140259517Y-84938734D01*
X140259513Y-84938740D01*
X140203498Y-85035760D01*
X140203497Y-85035763D01*
X140174500Y-85143982D01*
X139125500Y-85143982D01*
X139096503Y-85035763D01*
X139040485Y-84938737D01*
X138961263Y-84859515D01*
X138864237Y-84803497D01*
X138756018Y-84774500D01*
X138643982Y-84774500D01*
X138535763Y-84803497D01*
X138535760Y-84803498D01*
X138438740Y-84859513D01*
X138438734Y-84859517D01*
X138359517Y-84938734D01*
X138359513Y-84938740D01*
X138303498Y-85035760D01*
X138303497Y-85035763D01*
X138274500Y-85143982D01*
X135125500Y-85143982D01*
X135096503Y-85035763D01*
X135040485Y-84938737D01*
X134961263Y-84859515D01*
X134864237Y-84803497D01*
X134756018Y-84774500D01*
X134643982Y-84774500D01*
X134535763Y-84803497D01*
X134535760Y-84803498D01*
X134438740Y-84859513D01*
X134438734Y-84859517D01*
X134359517Y-84938734D01*
X134359513Y-84938740D01*
X134303498Y-85035760D01*
X134303497Y-85035763D01*
X134274500Y-85143982D01*
X133225500Y-85143982D01*
X133196503Y-85035763D01*
X133140485Y-84938737D01*
X133061263Y-84859515D01*
X132964237Y-84803497D01*
X132856018Y-84774500D01*
X132743982Y-84774500D01*
X132635763Y-84803497D01*
X132635760Y-84803498D01*
X132538740Y-84859513D01*
X132538734Y-84859517D01*
X132459517Y-84938734D01*
X132459513Y-84938740D01*
X132403498Y-85035760D01*
X132403497Y-85035763D01*
X132374500Y-85143982D01*
X129425500Y-85143982D01*
X129396503Y-85035763D01*
X129340485Y-84938737D01*
X129261263Y-84859515D01*
X129164237Y-84803497D01*
X129056018Y-84774500D01*
X128943982Y-84774500D01*
X128835763Y-84803497D01*
X128835760Y-84803498D01*
X128738740Y-84859513D01*
X128738734Y-84859517D01*
X128659517Y-84938734D01*
X128659513Y-84938740D01*
X128603498Y-85035760D01*
X128603497Y-85035763D01*
X128574500Y-85143982D01*
X127498705Y-85143982D01*
X127496503Y-85135763D01*
X127440485Y-85038737D01*
X127361263Y-84959515D01*
X127264237Y-84903497D01*
X127156018Y-84874500D01*
X127043982Y-84874500D01*
X126935763Y-84903497D01*
X126935760Y-84903498D01*
X126838740Y-84959513D01*
X126838734Y-84959517D01*
X126759517Y-85038734D01*
X126759513Y-85038740D01*
X126703498Y-85135760D01*
X126703497Y-85135763D01*
X126674500Y-85243982D01*
X123725500Y-85243982D01*
X123696503Y-85135763D01*
X123640485Y-85038737D01*
X123561263Y-84959515D01*
X123464237Y-84903497D01*
X123356018Y-84874500D01*
X123243982Y-84874500D01*
X123135763Y-84903497D01*
X123135760Y-84903498D01*
X123038740Y-84959513D01*
X123038734Y-84959517D01*
X122959517Y-85038734D01*
X122959513Y-85038740D01*
X122903498Y-85135760D01*
X122903497Y-85135763D01*
X122874500Y-85243982D01*
X121825500Y-85243982D01*
X121796503Y-85135763D01*
X121740485Y-85038737D01*
X121661263Y-84959515D01*
X121564237Y-84903497D01*
X121456018Y-84874500D01*
X121343982Y-84874500D01*
X121235763Y-84903497D01*
X121235760Y-84903498D01*
X121138740Y-84959513D01*
X121138734Y-84959517D01*
X121059517Y-85038734D01*
X121059513Y-85038740D01*
X121003498Y-85135760D01*
X121003497Y-85135763D01*
X120974500Y-85243982D01*
X117998705Y-85243982D01*
X117996503Y-85235763D01*
X117940485Y-85138737D01*
X117861263Y-85059515D01*
X117764237Y-85003497D01*
X117656018Y-84974500D01*
X117543982Y-84974500D01*
X117435763Y-85003497D01*
X117435760Y-85003498D01*
X117338740Y-85059513D01*
X117338734Y-85059517D01*
X117259517Y-85138734D01*
X117259513Y-85138740D01*
X117203498Y-85235760D01*
X117203497Y-85235763D01*
X117174500Y-85343982D01*
X116125500Y-85343982D01*
X116096503Y-85235763D01*
X116040485Y-85138737D01*
X115961263Y-85059515D01*
X115864237Y-85003497D01*
X115756018Y-84974500D01*
X115643982Y-84974500D01*
X115535763Y-85003497D01*
X115535760Y-85003498D01*
X115438740Y-85059513D01*
X115438734Y-85059517D01*
X115359517Y-85138734D01*
X115359513Y-85138740D01*
X115303498Y-85235760D01*
X115303497Y-85235763D01*
X115274500Y-85343982D01*
X57798705Y-85343982D01*
X57796503Y-85335763D01*
X57740485Y-85238737D01*
X57661263Y-85159515D01*
X57564237Y-85103497D01*
X57456018Y-85074500D01*
X57343982Y-85074500D01*
X57235763Y-85103497D01*
X57235760Y-85103498D01*
X57138740Y-85159513D01*
X57138734Y-85159517D01*
X57059517Y-85238734D01*
X57059513Y-85238740D01*
X57003498Y-85335760D01*
X57003497Y-85335763D01*
X56974500Y-85443982D01*
X55500500Y-85443982D01*
X55500500Y-84243982D01*
X85174500Y-84243982D01*
X85174500Y-84356018D01*
X85203497Y-84464237D01*
X85259515Y-84561263D01*
X85338737Y-84640485D01*
X85435763Y-84696503D01*
X85543982Y-84725500D01*
X85543984Y-84725500D01*
X85656016Y-84725500D01*
X85656018Y-84725500D01*
X85764237Y-84696503D01*
X85861263Y-84640485D01*
X85940485Y-84561263D01*
X85996503Y-84464237D01*
X86025500Y-84356018D01*
X86025500Y-84243982D01*
X85996503Y-84135763D01*
X85940485Y-84038737D01*
X85861263Y-83959515D01*
X85764237Y-83903497D01*
X85656018Y-83874500D01*
X85543982Y-83874500D01*
X85435763Y-83903497D01*
X85435760Y-83903498D01*
X85338740Y-83959513D01*
X85338734Y-83959517D01*
X85259517Y-84038734D01*
X85259513Y-84038740D01*
X85203498Y-84135760D01*
X85203497Y-84135763D01*
X85174500Y-84243982D01*
X55500500Y-84243982D01*
X55500500Y-82575354D01*
X84543128Y-82575354D01*
X84543128Y-82687390D01*
X84572125Y-82795609D01*
X84628143Y-82892635D01*
X84707365Y-82971857D01*
X84804391Y-83027875D01*
X84912610Y-83056872D01*
X84912612Y-83056872D01*
X85024644Y-83056872D01*
X85024646Y-83056872D01*
X85132865Y-83027875D01*
X85229891Y-82971857D01*
X85309113Y-82892635D01*
X85365131Y-82795609D01*
X85394128Y-82687390D01*
X85394128Y-82575354D01*
X85394127Y-82575352D01*
X85393067Y-82567298D01*
X85396152Y-82566891D01*
X85396216Y-82564209D01*
X85391591Y-82547421D01*
X85392664Y-82543982D01*
X86874500Y-82543982D01*
X86874500Y-82656018D01*
X86903497Y-82764237D01*
X86959515Y-82861263D01*
X87038737Y-82940485D01*
X87135763Y-82996503D01*
X87243982Y-83025500D01*
X87243984Y-83025500D01*
X87356016Y-83025500D01*
X87356018Y-83025500D01*
X87464237Y-82996503D01*
X87561263Y-82940485D01*
X87640485Y-82861263D01*
X87696503Y-82764237D01*
X87725500Y-82656018D01*
X87725500Y-82543982D01*
X87696503Y-82435763D01*
X87640485Y-82338737D01*
X87561263Y-82259515D01*
X87468351Y-82205872D01*
X87464239Y-82203498D01*
X87464238Y-82203497D01*
X87464237Y-82203497D01*
X87356018Y-82174500D01*
X87243982Y-82174500D01*
X87135763Y-82203497D01*
X87135760Y-82203498D01*
X87038740Y-82259513D01*
X87038734Y-82259517D01*
X86959517Y-82338734D01*
X86959513Y-82338740D01*
X86903498Y-82435760D01*
X86903497Y-82435763D01*
X86874500Y-82543982D01*
X85392664Y-82543982D01*
X85397024Y-82530003D01*
X85397455Y-82511767D01*
X85407211Y-82497346D01*
X85412397Y-82480721D01*
X85426383Y-82469006D01*
X85436606Y-82453896D01*
X85452772Y-82446903D01*
X85465961Y-82435858D01*
X85489839Y-82430872D01*
X85499987Y-82426484D01*
X85507753Y-82425500D01*
X85556018Y-82425500D01*
X85664237Y-82396503D01*
X85761263Y-82340485D01*
X85840485Y-82261263D01*
X85896503Y-82164237D01*
X85925500Y-82056018D01*
X85925500Y-81943982D01*
X85896503Y-81835763D01*
X85840485Y-81738737D01*
X85761263Y-81659515D01*
X85664237Y-81603497D01*
X85556018Y-81574500D01*
X85443982Y-81574500D01*
X85335763Y-81603497D01*
X85335760Y-81603498D01*
X85238740Y-81659513D01*
X85238734Y-81659517D01*
X85159517Y-81738734D01*
X85159513Y-81738740D01*
X85103498Y-81835760D01*
X85103497Y-81835763D01*
X85074500Y-81943982D01*
X85074500Y-82056016D01*
X85075561Y-82064074D01*
X85072475Y-82064480D01*
X85071173Y-82119605D01*
X85032022Y-82177476D01*
X84967799Y-82204992D01*
X84953054Y-82205872D01*
X84912610Y-82205872D01*
X84804391Y-82234869D01*
X84804388Y-82234870D01*
X84707368Y-82290885D01*
X84707362Y-82290889D01*
X84628145Y-82370106D01*
X84628141Y-82370112D01*
X84572126Y-82467132D01*
X84572125Y-82467135D01*
X84543128Y-82575354D01*
X55500500Y-82575354D01*
X55500500Y-81070000D01*
X56301196Y-81070000D01*
X57140382Y-81070000D01*
X57089936Y-81120446D01*
X57047149Y-81194555D01*
X57025000Y-81277213D01*
X57025000Y-81362787D01*
X57047149Y-81445445D01*
X57089936Y-81519554D01*
X57140382Y-81570000D01*
X56301196Y-81570000D01*
X56301469Y-81571726D01*
X56353760Y-81732659D01*
X56430578Y-81883423D01*
X56530038Y-82020316D01*
X56530038Y-82020317D01*
X56649682Y-82139961D01*
X56786576Y-82239421D01*
X56937340Y-82316239D01*
X57098273Y-82368530D01*
X57265391Y-82395000D01*
X57400000Y-82395000D01*
X57400000Y-81645000D01*
X57900000Y-81645000D01*
X57900000Y-82395000D01*
X58034609Y-82395000D01*
X58201726Y-82368530D01*
X58362659Y-82316239D01*
X58513423Y-82239421D01*
X58650316Y-82139961D01*
X58650317Y-82139961D01*
X58769961Y-82020317D01*
X58769961Y-82020316D01*
X58869421Y-81883423D01*
X58946239Y-81732659D01*
X58998530Y-81571726D01*
X58998804Y-81570000D01*
X58159618Y-81570000D01*
X58210064Y-81519554D01*
X58252851Y-81445445D01*
X58275000Y-81362787D01*
X58275000Y-81277213D01*
X58252851Y-81194555D01*
X58210064Y-81120446D01*
X58159618Y-81070000D01*
X58998804Y-81070000D01*
X60101196Y-81070000D01*
X60940382Y-81070000D01*
X60889936Y-81120446D01*
X60847149Y-81194555D01*
X60825000Y-81277213D01*
X60825000Y-81362787D01*
X60847149Y-81445445D01*
X60889936Y-81519554D01*
X60940382Y-81570000D01*
X60101196Y-81570000D01*
X60101469Y-81571726D01*
X60153760Y-81732659D01*
X60230578Y-81883423D01*
X60330038Y-82020316D01*
X60330038Y-82020317D01*
X60449682Y-82139961D01*
X60586576Y-82239421D01*
X60737340Y-82316239D01*
X60898273Y-82368530D01*
X61065391Y-82395000D01*
X61200000Y-82395000D01*
X61200000Y-81645000D01*
X61700000Y-81645000D01*
X61700000Y-82395000D01*
X61834609Y-82395000D01*
X62001726Y-82368530D01*
X62162659Y-82316239D01*
X62313423Y-82239421D01*
X62450316Y-82139961D01*
X62450317Y-82139961D01*
X62569961Y-82020317D01*
X62569961Y-82020316D01*
X62669421Y-81883423D01*
X62689518Y-81843982D01*
X81674500Y-81843982D01*
X81674500Y-81956018D01*
X81703497Y-82064237D01*
X81759515Y-82161263D01*
X81838737Y-82240485D01*
X81935763Y-82296503D01*
X82043982Y-82325500D01*
X82043984Y-82325500D01*
X82156016Y-82325500D01*
X82156018Y-82325500D01*
X82264237Y-82296503D01*
X82361263Y-82240485D01*
X82440485Y-82161263D01*
X82496503Y-82064237D01*
X82525500Y-81956018D01*
X82525500Y-81843982D01*
X82496503Y-81735763D01*
X82440485Y-81638737D01*
X82361263Y-81559515D01*
X82264237Y-81503497D01*
X82156018Y-81474500D01*
X82043982Y-81474500D01*
X81935763Y-81503497D01*
X81935760Y-81503498D01*
X81838740Y-81559513D01*
X81838734Y-81559517D01*
X81759517Y-81638734D01*
X81759513Y-81638740D01*
X81703498Y-81735760D01*
X81703497Y-81735763D01*
X81674500Y-81843982D01*
X62689518Y-81843982D01*
X62722343Y-81779560D01*
X62746239Y-81732659D01*
X62798530Y-81571726D01*
X62798804Y-81570000D01*
X61959618Y-81570000D01*
X62010064Y-81519554D01*
X62052851Y-81445445D01*
X62075000Y-81362787D01*
X62075000Y-81277213D01*
X62052851Y-81194555D01*
X62010064Y-81120446D01*
X61959618Y-81070000D01*
X62798804Y-81070000D01*
X62798530Y-81068273D01*
X62746239Y-80907340D01*
X62738500Y-80892150D01*
X62713957Y-80843982D01*
X63074500Y-80843982D01*
X63074500Y-80956018D01*
X63103497Y-81064237D01*
X63159515Y-81161263D01*
X63238737Y-81240485D01*
X63335763Y-81296503D01*
X63443982Y-81325500D01*
X63443984Y-81325500D01*
X63556016Y-81325500D01*
X63556018Y-81325500D01*
X63664237Y-81296503D01*
X63761263Y-81240485D01*
X63840485Y-81161263D01*
X63896503Y-81064237D01*
X63925500Y-80956018D01*
X63925500Y-80843982D01*
X63896503Y-80735763D01*
X63840485Y-80638737D01*
X63761263Y-80559515D01*
X63664237Y-80503497D01*
X63556018Y-80474500D01*
X63443982Y-80474500D01*
X63335763Y-80503497D01*
X63335760Y-80503498D01*
X63238740Y-80559513D01*
X63238734Y-80559517D01*
X63159517Y-80638734D01*
X63159513Y-80638740D01*
X63103498Y-80735760D01*
X63103497Y-80735763D01*
X63074500Y-80843982D01*
X62713957Y-80843982D01*
X62669421Y-80756576D01*
X62569961Y-80619683D01*
X62569961Y-80619682D01*
X62450317Y-80500038D01*
X62373163Y-80443982D01*
X108274500Y-80443982D01*
X108274500Y-80556018D01*
X108303497Y-80664237D01*
X108359515Y-80761263D01*
X108438737Y-80840485D01*
X108535763Y-80896503D01*
X108643982Y-80925500D01*
X108643984Y-80925500D01*
X108756016Y-80925500D01*
X108756018Y-80925500D01*
X108864237Y-80896503D01*
X108961263Y-80840485D01*
X109040485Y-80761263D01*
X109096503Y-80664237D01*
X109125500Y-80556018D01*
X109125500Y-80443982D01*
X109096503Y-80335763D01*
X109040485Y-80238737D01*
X108961263Y-80159515D01*
X108864237Y-80103497D01*
X108756018Y-80074500D01*
X108643982Y-80074500D01*
X108535763Y-80103497D01*
X108535760Y-80103498D01*
X108438740Y-80159513D01*
X108438734Y-80159517D01*
X108359517Y-80238734D01*
X108359513Y-80238740D01*
X108303498Y-80335760D01*
X108303497Y-80335763D01*
X108274500Y-80443982D01*
X62373163Y-80443982D01*
X62313423Y-80400578D01*
X62162659Y-80323760D01*
X62001726Y-80271469D01*
X61834609Y-80245000D01*
X61700000Y-80245000D01*
X61700000Y-80995000D01*
X61200000Y-80995000D01*
X61200000Y-80245000D01*
X61065391Y-80245000D01*
X60898273Y-80271469D01*
X60737340Y-80323760D01*
X60586576Y-80400578D01*
X60449683Y-80500038D01*
X60449682Y-80500038D01*
X60330038Y-80619682D01*
X60330038Y-80619683D01*
X60230578Y-80756576D01*
X60153760Y-80907340D01*
X60101469Y-81068273D01*
X60101196Y-81070000D01*
X58998804Y-81070000D01*
X58998530Y-81068273D01*
X58946239Y-80907340D01*
X58869421Y-80756576D01*
X58769961Y-80619683D01*
X58769961Y-80619682D01*
X58650317Y-80500038D01*
X58513423Y-80400578D01*
X58362659Y-80323760D01*
X58201726Y-80271469D01*
X58034609Y-80245000D01*
X57900000Y-80245000D01*
X57900000Y-80995000D01*
X57400000Y-80995000D01*
X57400000Y-80245000D01*
X57265391Y-80245000D01*
X57098273Y-80271469D01*
X56937340Y-80323760D01*
X56786576Y-80400578D01*
X56649683Y-80500038D01*
X56649682Y-80500038D01*
X56530038Y-80619682D01*
X56530038Y-80619683D01*
X56430578Y-80756576D01*
X56353760Y-80907340D01*
X56301469Y-81068273D01*
X56301196Y-81070000D01*
X55500500Y-81070000D01*
X55500500Y-78143982D01*
X60174500Y-78143982D01*
X60174500Y-78256018D01*
X60196665Y-78338737D01*
X60203497Y-78364236D01*
X60203497Y-78364237D01*
X60217217Y-78388001D01*
X60233688Y-78455902D01*
X60217217Y-78511999D01*
X60203497Y-78535762D01*
X60203497Y-78535763D01*
X60174500Y-78643982D01*
X60174500Y-78756018D01*
X60203497Y-78864237D01*
X60259515Y-78961263D01*
X60338737Y-79040485D01*
X60435763Y-79096503D01*
X60543982Y-79125500D01*
X60543984Y-79125500D01*
X60656016Y-79125500D01*
X60656018Y-79125500D01*
X60764237Y-79096503D01*
X60861263Y-79040485D01*
X60940485Y-78961263D01*
X60996503Y-78864237D01*
X61025500Y-78756018D01*
X61025500Y-78643982D01*
X60998705Y-78543982D01*
X62174500Y-78543982D01*
X62174500Y-78656018D01*
X62203497Y-78764237D01*
X62259515Y-78861263D01*
X62338737Y-78940485D01*
X62435763Y-78996503D01*
X62543982Y-79025500D01*
X62543984Y-79025500D01*
X62656016Y-79025500D01*
X62656018Y-79025500D01*
X62764237Y-78996503D01*
X62778178Y-78988454D01*
X82130028Y-78988454D01*
X82130028Y-79100490D01*
X82159025Y-79208709D01*
X82215043Y-79305735D01*
X82294265Y-79384957D01*
X82391291Y-79440975D01*
X82499510Y-79469972D01*
X82499512Y-79469972D01*
X82611544Y-79469972D01*
X82611546Y-79469972D01*
X82719765Y-79440975D01*
X82816791Y-79384957D01*
X82896013Y-79305735D01*
X82952031Y-79208709D01*
X82981028Y-79100490D01*
X82981028Y-78988454D01*
X82952031Y-78880235D01*
X82896013Y-78783209D01*
X82816791Y-78703987D01*
X82719765Y-78647969D01*
X82611546Y-78618972D01*
X82499510Y-78618972D01*
X82391291Y-78647969D01*
X82391288Y-78647970D01*
X82294268Y-78703985D01*
X82294262Y-78703989D01*
X82215045Y-78783206D01*
X82215041Y-78783212D01*
X82159026Y-78880232D01*
X82159025Y-78880235D01*
X82130028Y-78988454D01*
X62778178Y-78988454D01*
X62861263Y-78940485D01*
X62940485Y-78861263D01*
X62996503Y-78764237D01*
X63025500Y-78656018D01*
X63025500Y-78543982D01*
X62996503Y-78435763D01*
X62940485Y-78338737D01*
X62861263Y-78259515D01*
X62764237Y-78203497D01*
X62656018Y-78174500D01*
X62543982Y-78174500D01*
X62435763Y-78203497D01*
X62435760Y-78203498D01*
X62338740Y-78259513D01*
X62338734Y-78259517D01*
X62259517Y-78338734D01*
X62259513Y-78338740D01*
X62203498Y-78435760D01*
X62203497Y-78435763D01*
X62174500Y-78543982D01*
X60998705Y-78543982D01*
X60996503Y-78535763D01*
X60978461Y-78504514D01*
X60975220Y-78496502D01*
X60972592Y-78469996D01*
X60966310Y-78444103D01*
X60969087Y-78434643D01*
X60968327Y-78426973D01*
X60975409Y-78413110D01*
X60982783Y-78388000D01*
X60996503Y-78364237D01*
X61025500Y-78256018D01*
X61025500Y-78143982D01*
X60996503Y-78035763D01*
X60940485Y-77938737D01*
X60861263Y-77859515D01*
X60764237Y-77803497D01*
X60656018Y-77774500D01*
X60543982Y-77774500D01*
X60435763Y-77803497D01*
X60435760Y-77803498D01*
X60338740Y-77859513D01*
X60338734Y-77859517D01*
X60259517Y-77938734D01*
X60259513Y-77938740D01*
X60203498Y-78035760D01*
X60203497Y-78035763D01*
X60174500Y-78143982D01*
X55500500Y-78143982D01*
X55500500Y-77543982D01*
X83774500Y-77543982D01*
X83774500Y-77656018D01*
X83803497Y-77764237D01*
X83859515Y-77861263D01*
X83938737Y-77940485D01*
X84035763Y-77996503D01*
X84143982Y-78025500D01*
X84143984Y-78025500D01*
X84256016Y-78025500D01*
X84256018Y-78025500D01*
X84364237Y-77996503D01*
X84461263Y-77940485D01*
X84540485Y-77861263D01*
X84596503Y-77764237D01*
X84625500Y-77656018D01*
X84625500Y-77543982D01*
X84598705Y-77443982D01*
X86774500Y-77443982D01*
X86774500Y-77556018D01*
X86803497Y-77664237D01*
X86859515Y-77761263D01*
X86938737Y-77840485D01*
X87035763Y-77896503D01*
X87143982Y-77925500D01*
X87143984Y-77925500D01*
X87256016Y-77925500D01*
X87256018Y-77925500D01*
X87364237Y-77896503D01*
X87461263Y-77840485D01*
X87540485Y-77761263D01*
X87596503Y-77664237D01*
X87625500Y-77556018D01*
X87625500Y-77443982D01*
X87596503Y-77335763D01*
X87540485Y-77238737D01*
X87461263Y-77159515D01*
X87364237Y-77103497D01*
X87256018Y-77074500D01*
X87143982Y-77074500D01*
X87035763Y-77103497D01*
X87035760Y-77103498D01*
X86938740Y-77159513D01*
X86938734Y-77159517D01*
X86859517Y-77238734D01*
X86859513Y-77238740D01*
X86803498Y-77335760D01*
X86803497Y-77335763D01*
X86774500Y-77443982D01*
X84598705Y-77443982D01*
X84596503Y-77435763D01*
X84540485Y-77338737D01*
X84461263Y-77259515D01*
X84364237Y-77203497D01*
X84256018Y-77174500D01*
X84143982Y-77174500D01*
X84035763Y-77203497D01*
X84035760Y-77203498D01*
X83938740Y-77259513D01*
X83938734Y-77259517D01*
X83859517Y-77338734D01*
X83859513Y-77338740D01*
X83803498Y-77435760D01*
X83803497Y-77435763D01*
X83774500Y-77543982D01*
X55500500Y-77543982D01*
X55500500Y-75143982D01*
X60174500Y-75143982D01*
X60174500Y-75256018D01*
X60201295Y-75356017D01*
X60203497Y-75364236D01*
X60203497Y-75364237D01*
X60217217Y-75388001D01*
X60233688Y-75455902D01*
X60217217Y-75511999D01*
X60203497Y-75535762D01*
X60203497Y-75535763D01*
X60174500Y-75643982D01*
X60174500Y-75756018D01*
X60203497Y-75864237D01*
X60259515Y-75961263D01*
X60338737Y-76040485D01*
X60435763Y-76096503D01*
X60543982Y-76125500D01*
X60543984Y-76125500D01*
X60656016Y-76125500D01*
X60656018Y-76125500D01*
X60764237Y-76096503D01*
X60861263Y-76040485D01*
X60940485Y-75961263D01*
X60996503Y-75864237D01*
X61025500Y-75756018D01*
X61025500Y-75643982D01*
X60996503Y-75535763D01*
X60982783Y-75511999D01*
X60966310Y-75444103D01*
X60970672Y-75416892D01*
X60974888Y-75401674D01*
X60996503Y-75364237D01*
X61025500Y-75256018D01*
X61025500Y-75243982D01*
X62174500Y-75243982D01*
X62174500Y-75356018D01*
X62203497Y-75464237D01*
X62259515Y-75561263D01*
X62338737Y-75640485D01*
X62435763Y-75696503D01*
X62543982Y-75725500D01*
X62543984Y-75725500D01*
X62656016Y-75725500D01*
X62656018Y-75725500D01*
X62764237Y-75696503D01*
X62861263Y-75640485D01*
X62940485Y-75561263D01*
X62996503Y-75464237D01*
X63025500Y-75356018D01*
X63025500Y-75243982D01*
X62996503Y-75135763D01*
X62940485Y-75038737D01*
X62861263Y-74959515D01*
X62764237Y-74903497D01*
X62656018Y-74874500D01*
X62543982Y-74874500D01*
X62435763Y-74903497D01*
X62435760Y-74903498D01*
X62338740Y-74959513D01*
X62338734Y-74959517D01*
X62259517Y-75038734D01*
X62259513Y-75038740D01*
X62203498Y-75135760D01*
X62203497Y-75135763D01*
X62174500Y-75243982D01*
X61025500Y-75243982D01*
X61025500Y-75143982D01*
X60996503Y-75035763D01*
X60940485Y-74938737D01*
X60861263Y-74859515D01*
X60764237Y-74803497D01*
X60656018Y-74774500D01*
X60543982Y-74774500D01*
X60435763Y-74803497D01*
X60435760Y-74803498D01*
X60338740Y-74859513D01*
X60338734Y-74859517D01*
X60259517Y-74938734D01*
X60259513Y-74938740D01*
X60203498Y-75035760D01*
X60203497Y-75035763D01*
X60174500Y-75143982D01*
X55500500Y-75143982D01*
X55500500Y-72430000D01*
X56301196Y-72430000D01*
X57140382Y-72430000D01*
X57089936Y-72480446D01*
X57047149Y-72554555D01*
X57025000Y-72637213D01*
X57025000Y-72722787D01*
X57047149Y-72805445D01*
X57089936Y-72879554D01*
X57140382Y-72930000D01*
X56301196Y-72930000D01*
X56301469Y-72931726D01*
X56353760Y-73092659D01*
X56430578Y-73243423D01*
X56530038Y-73380316D01*
X56530038Y-73380317D01*
X56649682Y-73499961D01*
X56786576Y-73599421D01*
X56937340Y-73676239D01*
X57098273Y-73728530D01*
X57265391Y-73755000D01*
X57400000Y-73755000D01*
X57400000Y-73005000D01*
X57900000Y-73005000D01*
X57900000Y-73755000D01*
X58034609Y-73755000D01*
X58201726Y-73728530D01*
X58362659Y-73676239D01*
X58513423Y-73599421D01*
X58650316Y-73499961D01*
X58650317Y-73499961D01*
X58769961Y-73380317D01*
X58769961Y-73380316D01*
X58869421Y-73243423D01*
X58946239Y-73092659D01*
X58998530Y-72931726D01*
X58998804Y-72930000D01*
X58159618Y-72930000D01*
X58210064Y-72879554D01*
X58252851Y-72805445D01*
X58275000Y-72722787D01*
X58275000Y-72637213D01*
X58252851Y-72554555D01*
X58210064Y-72480446D01*
X58159618Y-72430000D01*
X58998804Y-72430000D01*
X60101196Y-72430000D01*
X60940382Y-72430000D01*
X60889936Y-72480446D01*
X60847149Y-72554555D01*
X60825000Y-72637213D01*
X60825000Y-72722787D01*
X60847149Y-72805445D01*
X60889936Y-72879554D01*
X60940382Y-72930000D01*
X60101196Y-72930000D01*
X60101469Y-72931726D01*
X60153760Y-73092659D01*
X60230578Y-73243423D01*
X60330038Y-73380316D01*
X60330038Y-73380317D01*
X60449682Y-73499961D01*
X60586576Y-73599421D01*
X60737340Y-73676239D01*
X60898273Y-73728530D01*
X61065391Y-73755000D01*
X61200000Y-73755000D01*
X61200000Y-73005000D01*
X61700000Y-73005000D01*
X61700000Y-73755000D01*
X61834609Y-73755000D01*
X62001726Y-73728530D01*
X62162659Y-73676239D01*
X62313423Y-73599421D01*
X62450316Y-73499961D01*
X62450317Y-73499961D01*
X62569961Y-73380317D01*
X62569961Y-73380316D01*
X62669421Y-73243423D01*
X62746239Y-73092659D01*
X62762056Y-73043982D01*
X63074500Y-73043982D01*
X63074500Y-73156018D01*
X63103497Y-73264237D01*
X63159515Y-73361263D01*
X63238737Y-73440485D01*
X63335763Y-73496503D01*
X63443982Y-73525500D01*
X63443984Y-73525500D01*
X63556016Y-73525500D01*
X63556018Y-73525500D01*
X63664237Y-73496503D01*
X63761263Y-73440485D01*
X63840485Y-73361263D01*
X63896503Y-73264237D01*
X63925500Y-73156018D01*
X63925500Y-73043982D01*
X63896503Y-72935763D01*
X63840485Y-72838737D01*
X63761263Y-72759515D01*
X63664237Y-72703497D01*
X63556018Y-72674500D01*
X63443982Y-72674500D01*
X63335763Y-72703497D01*
X63335760Y-72703498D01*
X63238740Y-72759513D01*
X63238734Y-72759517D01*
X63159517Y-72838734D01*
X63159513Y-72838740D01*
X63103498Y-72935760D01*
X63103497Y-72935763D01*
X63074500Y-73043982D01*
X62762056Y-73043982D01*
X62777147Y-72997537D01*
X62777147Y-72997536D01*
X62798531Y-72931724D01*
X62798804Y-72930000D01*
X61959618Y-72930000D01*
X62010064Y-72879554D01*
X62052851Y-72805445D01*
X62075000Y-72722787D01*
X62075000Y-72637213D01*
X62052851Y-72554555D01*
X62010064Y-72480446D01*
X61973600Y-72443982D01*
X108274500Y-72443982D01*
X108274500Y-72556018D01*
X108303497Y-72664237D01*
X108359515Y-72761263D01*
X108438737Y-72840485D01*
X108535763Y-72896503D01*
X108643982Y-72925500D01*
X108643984Y-72925500D01*
X108756016Y-72925500D01*
X108756018Y-72925500D01*
X108864237Y-72896503D01*
X108961263Y-72840485D01*
X109040485Y-72761263D01*
X109096503Y-72664237D01*
X109125500Y-72556018D01*
X109125500Y-72443982D01*
X109096503Y-72335763D01*
X109040485Y-72238737D01*
X108961263Y-72159515D01*
X108896579Y-72122169D01*
X108864239Y-72103498D01*
X108864238Y-72103497D01*
X108864237Y-72103497D01*
X108756018Y-72074500D01*
X108643982Y-72074500D01*
X108535763Y-72103497D01*
X108535760Y-72103498D01*
X108438740Y-72159513D01*
X108438734Y-72159517D01*
X108359517Y-72238734D01*
X108359513Y-72238740D01*
X108303498Y-72335760D01*
X108303497Y-72335763D01*
X108274500Y-72443982D01*
X61973600Y-72443982D01*
X61959618Y-72430000D01*
X62798804Y-72430000D01*
X62798530Y-72428272D01*
X62746239Y-72267340D01*
X62669421Y-72116576D01*
X62569961Y-71979683D01*
X62569961Y-71979682D01*
X62450317Y-71860038D01*
X62313423Y-71760578D01*
X62162659Y-71683760D01*
X62001726Y-71631469D01*
X61834609Y-71605000D01*
X61700000Y-71605000D01*
X61700000Y-72355000D01*
X61200000Y-72355000D01*
X61200000Y-71605000D01*
X61065391Y-71605000D01*
X60898273Y-71631469D01*
X60737340Y-71683760D01*
X60586576Y-71760578D01*
X60449683Y-71860038D01*
X60449682Y-71860038D01*
X60330038Y-71979682D01*
X60330038Y-71979683D01*
X60230578Y-72116576D01*
X60153760Y-72267340D01*
X60101469Y-72428273D01*
X60101196Y-72430000D01*
X58998804Y-72430000D01*
X58998530Y-72428273D01*
X58946239Y-72267340D01*
X58869421Y-72116576D01*
X58769961Y-71979683D01*
X58769961Y-71979682D01*
X58650317Y-71860038D01*
X58513423Y-71760578D01*
X58362659Y-71683760D01*
X58201726Y-71631469D01*
X58034609Y-71605000D01*
X57900000Y-71605000D01*
X57900000Y-72355000D01*
X57400000Y-72355000D01*
X57400000Y-71605000D01*
X57265391Y-71605000D01*
X57098273Y-71631469D01*
X56937340Y-71683760D01*
X56786576Y-71760578D01*
X56649683Y-71860038D01*
X56649682Y-71860038D01*
X56530038Y-71979682D01*
X56530038Y-71979683D01*
X56430578Y-72116576D01*
X56353760Y-72267340D01*
X56301469Y-72428273D01*
X56301196Y-72430000D01*
X55500500Y-72430000D01*
X55500500Y-71243982D01*
X77574500Y-71243982D01*
X77574500Y-71356018D01*
X77603497Y-71464237D01*
X77659515Y-71561263D01*
X77738737Y-71640485D01*
X77835763Y-71696503D01*
X77943982Y-71725500D01*
X77943984Y-71725500D01*
X78056016Y-71725500D01*
X78056018Y-71725500D01*
X78164237Y-71696503D01*
X78261263Y-71640485D01*
X78340485Y-71561263D01*
X78396503Y-71464237D01*
X78425500Y-71356018D01*
X78425500Y-71243982D01*
X78396503Y-71135763D01*
X78340485Y-71038737D01*
X78261263Y-70959515D01*
X78164237Y-70903497D01*
X78056018Y-70874500D01*
X77943982Y-70874500D01*
X77835763Y-70903497D01*
X77835760Y-70903498D01*
X77738740Y-70959513D01*
X77738734Y-70959517D01*
X77659517Y-71038734D01*
X77659513Y-71038740D01*
X77603498Y-71135760D01*
X77603497Y-71135763D01*
X77574500Y-71243982D01*
X55500500Y-71243982D01*
X55500500Y-70843982D01*
X97374500Y-70843982D01*
X97374500Y-70956018D01*
X97403497Y-71064237D01*
X97459515Y-71161263D01*
X97538737Y-71240485D01*
X97635763Y-71296503D01*
X97743982Y-71325500D01*
X97743984Y-71325500D01*
X97856016Y-71325500D01*
X97856018Y-71325500D01*
X97964237Y-71296503D01*
X98055206Y-71243982D01*
X115274500Y-71243982D01*
X115274500Y-71356018D01*
X115303497Y-71464237D01*
X115359515Y-71561263D01*
X115438737Y-71640485D01*
X115535763Y-71696503D01*
X115643982Y-71725500D01*
X115643984Y-71725500D01*
X115756016Y-71725500D01*
X115756018Y-71725500D01*
X115864237Y-71696503D01*
X115961263Y-71640485D01*
X116040485Y-71561263D01*
X116096503Y-71464237D01*
X116125500Y-71356018D01*
X116125500Y-71243982D01*
X117174500Y-71243982D01*
X117174500Y-71356018D01*
X117203497Y-71464237D01*
X117259515Y-71561263D01*
X117338737Y-71640485D01*
X117435763Y-71696503D01*
X117543982Y-71725500D01*
X117543984Y-71725500D01*
X117656016Y-71725500D01*
X117656018Y-71725500D01*
X117764237Y-71696503D01*
X117861263Y-71640485D01*
X117940485Y-71561263D01*
X117996503Y-71464237D01*
X118025500Y-71356018D01*
X118025500Y-71243982D01*
X120974500Y-71243982D01*
X120974500Y-71356018D01*
X121003497Y-71464237D01*
X121059515Y-71561263D01*
X121138737Y-71640485D01*
X121235763Y-71696503D01*
X121343982Y-71725500D01*
X121343984Y-71725500D01*
X121456016Y-71725500D01*
X121456018Y-71725500D01*
X121564237Y-71696503D01*
X121661263Y-71640485D01*
X121740485Y-71561263D01*
X121796503Y-71464237D01*
X121825500Y-71356018D01*
X121825500Y-71243982D01*
X122874500Y-71243982D01*
X122874500Y-71356018D01*
X122903497Y-71464237D01*
X122959515Y-71561263D01*
X123038737Y-71640485D01*
X123135763Y-71696503D01*
X123243982Y-71725500D01*
X123243984Y-71725500D01*
X123356016Y-71725500D01*
X123356018Y-71725500D01*
X123464237Y-71696503D01*
X123561263Y-71640485D01*
X123640485Y-71561263D01*
X123696503Y-71464237D01*
X123725500Y-71356018D01*
X123725500Y-71243982D01*
X123698705Y-71143982D01*
X126674500Y-71143982D01*
X126674500Y-71256018D01*
X126703497Y-71364237D01*
X126759515Y-71461263D01*
X126838737Y-71540485D01*
X126935763Y-71596503D01*
X127043982Y-71625500D01*
X127043984Y-71625500D01*
X127156016Y-71625500D01*
X127156018Y-71625500D01*
X127264237Y-71596503D01*
X127361263Y-71540485D01*
X127440485Y-71461263D01*
X127496503Y-71364237D01*
X127525500Y-71256018D01*
X127525500Y-71143982D01*
X128574500Y-71143982D01*
X128574500Y-71256018D01*
X128603497Y-71364237D01*
X128659515Y-71461263D01*
X128738737Y-71540485D01*
X128835763Y-71596503D01*
X128943982Y-71625500D01*
X128943984Y-71625500D01*
X129056016Y-71625500D01*
X129056018Y-71625500D01*
X129164237Y-71596503D01*
X129261263Y-71540485D01*
X129340485Y-71461263D01*
X129396503Y-71364237D01*
X129425500Y-71256018D01*
X129425500Y-71143982D01*
X132374500Y-71143982D01*
X132374500Y-71256018D01*
X132403497Y-71364237D01*
X132459515Y-71461263D01*
X132538737Y-71540485D01*
X132635763Y-71596503D01*
X132743982Y-71625500D01*
X132743984Y-71625500D01*
X132856016Y-71625500D01*
X132856018Y-71625500D01*
X132964237Y-71596503D01*
X133061263Y-71540485D01*
X133140485Y-71461263D01*
X133196503Y-71364237D01*
X133225500Y-71256018D01*
X133225500Y-71143982D01*
X134274500Y-71143982D01*
X134274500Y-71256018D01*
X134303497Y-71364237D01*
X134359515Y-71461263D01*
X134438737Y-71540485D01*
X134535763Y-71596503D01*
X134643982Y-71625500D01*
X134643984Y-71625500D01*
X134756016Y-71625500D01*
X134756018Y-71625500D01*
X134864237Y-71596503D01*
X134961263Y-71540485D01*
X135040485Y-71461263D01*
X135096503Y-71364237D01*
X135125500Y-71256018D01*
X135125500Y-71143982D01*
X138274500Y-71143982D01*
X138274500Y-71256018D01*
X138303497Y-71364237D01*
X138359515Y-71461263D01*
X138438737Y-71540485D01*
X138535763Y-71596503D01*
X138643982Y-71625500D01*
X138643984Y-71625500D01*
X138756016Y-71625500D01*
X138756018Y-71625500D01*
X138864237Y-71596503D01*
X138961263Y-71540485D01*
X139040485Y-71461263D01*
X139096503Y-71364237D01*
X139125500Y-71256018D01*
X139125500Y-71143982D01*
X140174500Y-71143982D01*
X140174500Y-71256018D01*
X140203497Y-71364237D01*
X140259515Y-71461263D01*
X140338737Y-71540485D01*
X140435763Y-71596503D01*
X140543982Y-71625500D01*
X140543984Y-71625500D01*
X140656016Y-71625500D01*
X140656018Y-71625500D01*
X140764237Y-71596503D01*
X140861263Y-71540485D01*
X140940485Y-71461263D01*
X140996503Y-71364237D01*
X141025500Y-71256018D01*
X141025500Y-71143982D01*
X143974500Y-71143982D01*
X143974500Y-71256018D01*
X144003497Y-71364237D01*
X144059515Y-71461263D01*
X144138737Y-71540485D01*
X144235763Y-71596503D01*
X144343982Y-71625500D01*
X144343984Y-71625500D01*
X144456016Y-71625500D01*
X144456018Y-71625500D01*
X144564237Y-71596503D01*
X144661263Y-71540485D01*
X144740485Y-71461263D01*
X144796503Y-71364237D01*
X144825500Y-71256018D01*
X144825500Y-71143982D01*
X145874500Y-71143982D01*
X145874500Y-71256018D01*
X145903497Y-71364237D01*
X145959515Y-71461263D01*
X146038737Y-71540485D01*
X146135763Y-71596503D01*
X146243982Y-71625500D01*
X146243984Y-71625500D01*
X146356016Y-71625500D01*
X146356018Y-71625500D01*
X146464237Y-71596503D01*
X146561263Y-71540485D01*
X146640485Y-71461263D01*
X146696503Y-71364237D01*
X146725500Y-71256018D01*
X146725500Y-71143982D01*
X149974500Y-71143982D01*
X149974500Y-71256018D01*
X150003497Y-71364237D01*
X150059515Y-71461263D01*
X150138737Y-71540485D01*
X150235763Y-71596503D01*
X150343982Y-71625500D01*
X150343984Y-71625500D01*
X150456016Y-71625500D01*
X150456018Y-71625500D01*
X150564237Y-71596503D01*
X150661263Y-71540485D01*
X150740485Y-71461263D01*
X150796503Y-71364237D01*
X150825500Y-71256018D01*
X150825500Y-71143982D01*
X151874500Y-71143982D01*
X151874500Y-71256018D01*
X151903497Y-71364237D01*
X151959515Y-71461263D01*
X152038737Y-71540485D01*
X152135763Y-71596503D01*
X152243982Y-71625500D01*
X152243984Y-71625500D01*
X152356016Y-71625500D01*
X152356018Y-71625500D01*
X152464237Y-71596503D01*
X152561263Y-71540485D01*
X152640485Y-71461263D01*
X152696503Y-71364237D01*
X152725500Y-71256018D01*
X152725500Y-71143982D01*
X155674500Y-71143982D01*
X155674500Y-71256018D01*
X155703497Y-71364237D01*
X155759515Y-71461263D01*
X155838737Y-71540485D01*
X155935763Y-71596503D01*
X156043982Y-71625500D01*
X156043984Y-71625500D01*
X156156016Y-71625500D01*
X156156018Y-71625500D01*
X156264237Y-71596503D01*
X156361263Y-71540485D01*
X156440485Y-71461263D01*
X156496503Y-71364237D01*
X156525500Y-71256018D01*
X156525500Y-71143982D01*
X157574500Y-71143982D01*
X157574500Y-71256018D01*
X157603497Y-71364237D01*
X157659515Y-71461263D01*
X157738737Y-71540485D01*
X157835763Y-71596503D01*
X157943982Y-71625500D01*
X157943984Y-71625500D01*
X158056016Y-71625500D01*
X158056018Y-71625500D01*
X158164237Y-71596503D01*
X158261263Y-71540485D01*
X158340485Y-71461263D01*
X158396503Y-71364237D01*
X158425500Y-71256018D01*
X158425500Y-71143982D01*
X158396503Y-71035763D01*
X158340485Y-70938737D01*
X158261263Y-70859515D01*
X158164237Y-70803497D01*
X158056018Y-70774500D01*
X157943982Y-70774500D01*
X157835763Y-70803497D01*
X157835760Y-70803498D01*
X157738740Y-70859513D01*
X157738734Y-70859517D01*
X157659517Y-70938734D01*
X157659513Y-70938740D01*
X157603498Y-71035760D01*
X157603497Y-71035763D01*
X157574500Y-71143982D01*
X156525500Y-71143982D01*
X156496503Y-71035763D01*
X156440485Y-70938737D01*
X156361263Y-70859515D01*
X156264237Y-70803497D01*
X156156018Y-70774500D01*
X156043982Y-70774500D01*
X155935763Y-70803497D01*
X155935760Y-70803498D01*
X155838740Y-70859513D01*
X155838734Y-70859517D01*
X155759517Y-70938734D01*
X155759513Y-70938740D01*
X155703498Y-71035760D01*
X155703497Y-71035763D01*
X155674500Y-71143982D01*
X152725500Y-71143982D01*
X152696503Y-71035763D01*
X152640485Y-70938737D01*
X152561263Y-70859515D01*
X152464237Y-70803497D01*
X152356018Y-70774500D01*
X152243982Y-70774500D01*
X152135763Y-70803497D01*
X152135760Y-70803498D01*
X152038740Y-70859513D01*
X152038734Y-70859517D01*
X151959517Y-70938734D01*
X151959513Y-70938740D01*
X151903498Y-71035760D01*
X151903497Y-71035763D01*
X151874500Y-71143982D01*
X150825500Y-71143982D01*
X150796503Y-71035763D01*
X150740485Y-70938737D01*
X150661263Y-70859515D01*
X150564237Y-70803497D01*
X150456018Y-70774500D01*
X150343982Y-70774500D01*
X150235763Y-70803497D01*
X150235760Y-70803498D01*
X150138740Y-70859513D01*
X150138734Y-70859517D01*
X150059517Y-70938734D01*
X150059513Y-70938740D01*
X150003498Y-71035760D01*
X150003497Y-71035763D01*
X149974500Y-71143982D01*
X146725500Y-71143982D01*
X146696503Y-71035763D01*
X146640485Y-70938737D01*
X146561263Y-70859515D01*
X146464237Y-70803497D01*
X146356018Y-70774500D01*
X146243982Y-70774500D01*
X146135763Y-70803497D01*
X146135760Y-70803498D01*
X146038740Y-70859513D01*
X146038734Y-70859517D01*
X145959517Y-70938734D01*
X145959513Y-70938740D01*
X145903498Y-71035760D01*
X145903497Y-71035763D01*
X145874500Y-71143982D01*
X144825500Y-71143982D01*
X144796503Y-71035763D01*
X144740485Y-70938737D01*
X144661263Y-70859515D01*
X144564237Y-70803497D01*
X144456018Y-70774500D01*
X144343982Y-70774500D01*
X144235763Y-70803497D01*
X144235760Y-70803498D01*
X144138740Y-70859513D01*
X144138734Y-70859517D01*
X144059517Y-70938734D01*
X144059513Y-70938740D01*
X144003498Y-71035760D01*
X144003497Y-71035763D01*
X143974500Y-71143982D01*
X141025500Y-71143982D01*
X140996503Y-71035763D01*
X140940485Y-70938737D01*
X140861263Y-70859515D01*
X140764237Y-70803497D01*
X140656018Y-70774500D01*
X140543982Y-70774500D01*
X140435763Y-70803497D01*
X140435760Y-70803498D01*
X140338740Y-70859513D01*
X140338734Y-70859517D01*
X140259517Y-70938734D01*
X140259513Y-70938740D01*
X140203498Y-71035760D01*
X140203497Y-71035763D01*
X140174500Y-71143982D01*
X139125500Y-71143982D01*
X139096503Y-71035763D01*
X139040485Y-70938737D01*
X138961263Y-70859515D01*
X138864237Y-70803497D01*
X138756018Y-70774500D01*
X138643982Y-70774500D01*
X138535763Y-70803497D01*
X138535760Y-70803498D01*
X138438740Y-70859513D01*
X138438734Y-70859517D01*
X138359517Y-70938734D01*
X138359513Y-70938740D01*
X138303498Y-71035760D01*
X138303497Y-71035763D01*
X138274500Y-71143982D01*
X135125500Y-71143982D01*
X135096503Y-71035763D01*
X135040485Y-70938737D01*
X134961263Y-70859515D01*
X134864237Y-70803497D01*
X134756018Y-70774500D01*
X134643982Y-70774500D01*
X134535763Y-70803497D01*
X134535760Y-70803498D01*
X134438740Y-70859513D01*
X134438734Y-70859517D01*
X134359517Y-70938734D01*
X134359513Y-70938740D01*
X134303498Y-71035760D01*
X134303497Y-71035763D01*
X134274500Y-71143982D01*
X133225500Y-71143982D01*
X133196503Y-71035763D01*
X133140485Y-70938737D01*
X133061263Y-70859515D01*
X132964237Y-70803497D01*
X132856018Y-70774500D01*
X132743982Y-70774500D01*
X132635763Y-70803497D01*
X132635760Y-70803498D01*
X132538740Y-70859513D01*
X132538734Y-70859517D01*
X132459517Y-70938734D01*
X132459513Y-70938740D01*
X132403498Y-71035760D01*
X132403497Y-71035763D01*
X132374500Y-71143982D01*
X129425500Y-71143982D01*
X129396503Y-71035763D01*
X129340485Y-70938737D01*
X129261263Y-70859515D01*
X129164237Y-70803497D01*
X129056018Y-70774500D01*
X128943982Y-70774500D01*
X128835763Y-70803497D01*
X128835760Y-70803498D01*
X128738740Y-70859513D01*
X128738734Y-70859517D01*
X128659517Y-70938734D01*
X128659513Y-70938740D01*
X128603498Y-71035760D01*
X128603497Y-71035763D01*
X128574500Y-71143982D01*
X127525500Y-71143982D01*
X127496503Y-71035763D01*
X127440485Y-70938737D01*
X127361263Y-70859515D01*
X127264237Y-70803497D01*
X127156018Y-70774500D01*
X127043982Y-70774500D01*
X126935763Y-70803497D01*
X126935760Y-70803498D01*
X126838740Y-70859513D01*
X126838734Y-70859517D01*
X126759517Y-70938734D01*
X126759513Y-70938740D01*
X126703498Y-71035760D01*
X126703497Y-71035763D01*
X126674500Y-71143982D01*
X123698705Y-71143982D01*
X123696503Y-71135763D01*
X123640485Y-71038737D01*
X123561263Y-70959515D01*
X123464237Y-70903497D01*
X123356018Y-70874500D01*
X123243982Y-70874500D01*
X123135763Y-70903497D01*
X123135760Y-70903498D01*
X123038740Y-70959513D01*
X123038734Y-70959517D01*
X122959517Y-71038734D01*
X122959513Y-71038740D01*
X122903498Y-71135760D01*
X122903497Y-71135763D01*
X122874500Y-71243982D01*
X121825500Y-71243982D01*
X121796503Y-71135763D01*
X121740485Y-71038737D01*
X121661263Y-70959515D01*
X121564237Y-70903497D01*
X121456018Y-70874500D01*
X121343982Y-70874500D01*
X121235763Y-70903497D01*
X121235760Y-70903498D01*
X121138740Y-70959513D01*
X121138734Y-70959517D01*
X121059517Y-71038734D01*
X121059513Y-71038740D01*
X121003498Y-71135760D01*
X121003497Y-71135763D01*
X120974500Y-71243982D01*
X118025500Y-71243982D01*
X117996503Y-71135763D01*
X117940485Y-71038737D01*
X117861263Y-70959515D01*
X117764237Y-70903497D01*
X117656018Y-70874500D01*
X117543982Y-70874500D01*
X117435763Y-70903497D01*
X117435760Y-70903498D01*
X117338740Y-70959513D01*
X117338734Y-70959517D01*
X117259517Y-71038734D01*
X117259513Y-71038740D01*
X117203498Y-71135760D01*
X117203497Y-71135763D01*
X117174500Y-71243982D01*
X116125500Y-71243982D01*
X116096503Y-71135763D01*
X116040485Y-71038737D01*
X115961263Y-70959515D01*
X115864237Y-70903497D01*
X115756018Y-70874500D01*
X115643982Y-70874500D01*
X115535763Y-70903497D01*
X115535760Y-70903498D01*
X115438740Y-70959513D01*
X115438734Y-70959517D01*
X115359517Y-71038734D01*
X115359513Y-71038740D01*
X115303498Y-71135760D01*
X115303497Y-71135763D01*
X115274500Y-71243982D01*
X98055206Y-71243982D01*
X98061263Y-71240485D01*
X98140485Y-71161263D01*
X98196503Y-71064237D01*
X98225500Y-70956018D01*
X98225500Y-70843982D01*
X98196503Y-70735763D01*
X98140485Y-70638737D01*
X98061263Y-70559515D01*
X97964237Y-70503497D01*
X97856018Y-70474500D01*
X97743982Y-70474500D01*
X97635763Y-70503497D01*
X97635760Y-70503498D01*
X97538740Y-70559513D01*
X97538734Y-70559517D01*
X97459517Y-70638734D01*
X97459513Y-70638740D01*
X97403498Y-70735760D01*
X97403497Y-70735763D01*
X97374500Y-70843982D01*
X55500500Y-70843982D01*
X55500500Y-68006959D01*
X55501280Y-67993077D01*
X55501320Y-67992717D01*
X55511459Y-67902727D01*
X55517635Y-67875668D01*
X55545353Y-67796457D01*
X55557393Y-67771453D01*
X55602046Y-67700389D01*
X55619351Y-67678690D01*
X55678690Y-67619351D01*
X55700389Y-67602046D01*
X55771453Y-67557393D01*
X55796457Y-67545353D01*
X55875668Y-67517635D01*
X55902729Y-67511459D01*
X55978753Y-67502893D01*
X55993078Y-67501280D01*
X56006960Y-67500500D01*
X56065892Y-67500500D01*
X159934108Y-67500500D01*
X159993040Y-67500500D01*
X160006922Y-67501280D01*
G37*
%TD.AperFunction*%
%TD*%
M02*
