%TF.GenerationSoftware,KiCad,Pcbnew,10.0.3*%
%TF.CreationDate,2026-10-06T22:22:36-07:00*%
%TF.ProjectId,business_card,62757369-6e65-4737-935f-636172642e6b,rev?*%
%TF.SameCoordinates,Original*%
%TF.FileFunction,Copper,L2,Inr*%
%TF.FilePolarity,Positive*%
%FSLAX46Y46*%
G04 Gerber Fmt 4.6, Leading zero omitted, Abs format (unit mm)*
G04 Created by KiCad (PCBNEW 10.0.3) date 2026-10-06 22:22:36*
%MOMM*%
%LPD*%
G01*
G04 APERTURE LIST*
%TA.AperFunction,ComponentPad*%
%ADD10O,1.750000X1.150000*%
%TD*%
%TA.AperFunction,ViaPad*%
%ADD11C,0.350000*%
%TD*%
G04 APERTURE END LIST*
D10*
%TO.N,GND*%
%TO.C,J1*%
X61450000Y-81320000D03*
X61450000Y-72680000D03*
X57650000Y-81320000D03*
X57650000Y-72680000D03*
%TD*%
D11*
%TO.N,GND*%
X61500000Y-82500000D03*
X131100000Y-68700000D03*
X119300000Y-85200000D03*
X119300000Y-82800000D03*
X91800000Y-89700000D03*
X119700000Y-71200000D03*
X117000000Y-115400000D03*
X57700000Y-71700000D03*
X154100000Y-85300000D03*
X142300000Y-85200000D03*
X154388979Y-89863711D03*
X65900000Y-75200000D03*
X130700000Y-68700000D03*
X123400000Y-95400000D03*
X106300000Y-108100000D03*
X91937500Y-103500000D03*
X130300000Y-71200000D03*
X142300000Y-82800000D03*
X103000000Y-107600000D03*
X118900000Y-85200000D03*
X131500000Y-68700000D03*
X65500000Y-80200000D03*
X59100000Y-81300000D03*
X119700000Y-85200000D03*
X62600000Y-79700000D03*
X119300000Y-68800000D03*
X154500000Y-82700000D03*
X82300000Y-76300000D03*
X141900000Y-82800000D03*
X143100000Y-82800000D03*
X57637500Y-109700000D03*
X57700000Y-82500000D03*
X99600000Y-89900000D03*
X154000000Y-68700000D03*
X148600000Y-90500000D03*
X118400000Y-110800000D03*
X56637500Y-107900000D03*
X120100000Y-71200000D03*
X60000000Y-81300000D03*
X130300000Y-82800000D03*
X118900000Y-82800000D03*
X154900000Y-85300000D03*
X120100000Y-82800000D03*
X142300000Y-71200000D03*
X56637500Y-108500000D03*
X143100000Y-68700000D03*
X61500000Y-71800000D03*
X56637500Y-105500000D03*
X78000000Y-90600000D03*
X61500000Y-73500000D03*
X99200000Y-79000000D03*
X131500000Y-82800000D03*
X56637500Y-106100000D03*
X60100000Y-72700000D03*
X131100000Y-85200000D03*
X106410000Y-94400000D03*
X57700000Y-80200000D03*
X115050000Y-108950000D03*
X56937500Y-105000000D03*
X142700000Y-71200000D03*
X88700000Y-69100000D03*
X154000000Y-71200000D03*
X56100000Y-81300000D03*
X151688979Y-88563711D03*
X131100000Y-82800000D03*
X100200000Y-77700000D03*
X154500000Y-85300000D03*
X59000000Y-72700000D03*
X57400000Y-91000000D03*
X60300000Y-74200000D03*
X153600000Y-71200000D03*
X130700000Y-82800000D03*
X143100000Y-85200000D03*
X111500000Y-72500000D03*
X119700000Y-82800000D03*
X56637500Y-109100000D03*
X104800000Y-113000000D03*
X113000000Y-111300000D03*
X141900000Y-85200000D03*
X127400000Y-88400000D03*
X118900000Y-71200000D03*
X62700000Y-72700000D03*
X141900000Y-68700000D03*
X101800000Y-111000000D03*
X154100000Y-82700000D03*
X130700000Y-85200000D03*
X80600000Y-83400000D03*
X131500000Y-71200000D03*
X118900000Y-68800000D03*
X142700000Y-85200000D03*
X154400000Y-71200000D03*
X57437500Y-104900000D03*
X101800000Y-109900000D03*
X56637500Y-107300000D03*
X130300000Y-68700000D03*
X142300000Y-68700000D03*
X130000000Y-89600000D03*
X130300000Y-85200000D03*
X131500000Y-85200000D03*
X154400000Y-68700000D03*
X130696999Y-71197048D03*
X131100000Y-71200000D03*
X105800000Y-87700000D03*
X65000000Y-77000000D03*
X119300000Y-71200000D03*
X154900000Y-82700000D03*
X153700000Y-85300000D03*
X153700000Y-82700000D03*
X141900000Y-71200000D03*
X57937500Y-104900000D03*
X147600000Y-95400000D03*
X60200000Y-79800000D03*
X92700000Y-87500000D03*
X112900000Y-115000000D03*
X65900000Y-78700000D03*
X120100000Y-85200000D03*
X89000000Y-91200000D03*
X81900000Y-79300000D03*
X65500000Y-73700000D03*
X58537500Y-104900000D03*
X154800000Y-68700000D03*
X120100000Y-68800000D03*
X111600000Y-80500000D03*
X80700000Y-76500000D03*
X99300000Y-70900000D03*
X58237500Y-109700000D03*
X143100000Y-71200000D03*
X62900000Y-81300000D03*
X154800000Y-71200000D03*
X104200000Y-105900000D03*
X153600000Y-68700000D03*
X142700000Y-82800000D03*
X57700000Y-73700000D03*
X56400000Y-72700000D03*
X56637500Y-106700000D03*
X62600000Y-74200000D03*
X87900000Y-78300000D03*
X100500000Y-73900000D03*
X56937500Y-109600000D03*
X119700000Y-68800000D03*
X142700000Y-68700000D03*
%TO.N,Net-(LED4-G)*%
X123300000Y-71200000D03*
X120600000Y-90700000D03*
%TO.N,+5V*%
X118200000Y-116400000D03*
X128500000Y-89400000D03*
X60600000Y-75200000D03*
X116900000Y-112400000D03*
X158600000Y-107900000D03*
X57400000Y-85500000D03*
X151900000Y-92180000D03*
X63500000Y-80900000D03*
X108700000Y-80500000D03*
X154688979Y-91463711D03*
X107700000Y-90700000D03*
X97800000Y-70900000D03*
X151200000Y-91200000D03*
X84200000Y-77600000D03*
X114500000Y-110200000D03*
X152788979Y-89563711D03*
X90600000Y-89600000D03*
X63500000Y-73100000D03*
X86500000Y-84300000D03*
X124201248Y-90598754D03*
X62600000Y-78600000D03*
X62600000Y-75300000D03*
X126900000Y-91200000D03*
X78000000Y-71300000D03*
X60600000Y-78700000D03*
X127700000Y-91900000D03*
X82753346Y-78853346D03*
X87139376Y-83439376D03*
X60600000Y-75700000D03*
X60600000Y-78200000D03*
X108700000Y-72500000D03*
X112300000Y-100600000D03*
X103200000Y-88000000D03*
%TO.N,RTC_CLK*%
X82100000Y-81900000D03*
%TO.N,I2C.SCL*%
X106300000Y-105000000D03*
X91600000Y-87300000D03*
X124740000Y-90061179D03*
X149100000Y-90200000D03*
X84968628Y-82631372D03*
%TO.N,I2C.SDA*%
X90500000Y-88400000D03*
X124740000Y-89581176D03*
X149500000Y-89800000D03*
X105700000Y-104500000D03*
X85500000Y-82000000D03*
%TO.N,Net-(LED4-E)*%
X123300000Y-85200000D03*
X122000000Y-89300000D03*
%TO.N,Net-(LED4-D)*%
X122700000Y-88600000D03*
X121400000Y-85200000D03*
%TO.N,Net-(LED4-C-Pad4)*%
X120100000Y-95600000D03*
X117600000Y-85200000D03*
%TO.N,Net-(LED4-DP)*%
X119900000Y-91400000D03*
X115700000Y-85200000D03*
%TO.N,Net-(LED4-B)*%
X115700000Y-71200000D03*
X120800000Y-96300000D03*
%TO.N,Net-(LED4-A)*%
X117600000Y-71200000D03*
X121500000Y-97000000D03*
%TO.N,Net-(LED4-F)*%
X121400000Y-71200000D03*
X121300000Y-90000000D03*
%TO.N,Net-(LED1-D)*%
X152200000Y-98000000D03*
X156100000Y-85200000D03*
%TO.N,Net-(LED2-B)*%
X138700000Y-71200000D03*
X144800000Y-96100000D03*
%TO.N,Net-(LED3-F)*%
X127000000Y-98700000D03*
X132800000Y-71200000D03*
%TO.N,Net-(LED3-B)*%
X127100000Y-71200000D03*
X129800000Y-95900000D03*
%TO.N,Net-(LED2-E)*%
X146300000Y-85200000D03*
X144900000Y-90800000D03*
%TO.N,Net-(LED2-D)*%
X144400000Y-85200000D03*
X144200000Y-91500000D03*
%TO.N,Net-(LED2-C-Pad4)*%
X140600000Y-85200000D03*
X144100000Y-95400000D03*
%TO.N,Net-(LED2-DP)*%
X147100000Y-88500000D03*
X138700000Y-85200000D03*
%TO.N,Net-(LED2-A)*%
X140600000Y-71200000D03*
X145500000Y-96800000D03*
%TO.N,Net-(LED2-F)*%
X145600000Y-90000000D03*
X144400000Y-71200000D03*
%TO.N,Net-(LED2-G)*%
X146400000Y-89300000D03*
X146300000Y-71200000D03*
%TO.N,+BATT*%
X90837500Y-106900000D03*
X90837500Y-105900000D03*
X90837500Y-107400000D03*
X106950000Y-106550000D03*
X105400000Y-111300000D03*
X90837500Y-108400000D03*
X90837500Y-107900000D03*
X112400000Y-113000000D03*
X90837500Y-106400000D03*
X90837500Y-108900000D03*
%TO.N,Net-(LED3-E)*%
X127700000Y-98000000D03*
X134700000Y-85200000D03*
%TO.N,Net-(LED1-E)*%
X151500000Y-98700000D03*
X158000000Y-85200000D03*
%TO.N,Net-(LED1-C-Pad4)*%
X152300000Y-85200000D03*
X152900000Y-97300000D03*
%TO.N,Net-(LED1-DP)*%
X146300000Y-97600000D03*
X150300000Y-85300000D03*
%TO.N,Net-(LED1-B)*%
X150400000Y-71200000D03*
X153600000Y-96600000D03*
%TO.N,Net-(LED1-A)*%
X154300000Y-95900000D03*
X152300000Y-71200000D03*
%TO.N,Net-(LED1-F)*%
X156100000Y-71200000D03*
X150800000Y-99400000D03*
%TO.N,Net-(LED1-G)*%
X147000000Y-98400000D03*
X158000000Y-71200000D03*
%TO.N,Net-(LED3-D)*%
X128400000Y-97300000D03*
X132800000Y-85200000D03*
%TO.N,Net-(LED3-C-Pad4)*%
X129000000Y-85200000D03*
X129100000Y-96600000D03*
%TO.N,Net-(LED3-DP)*%
X122200000Y-97700000D03*
X127100000Y-85300000D03*
%TO.N,Net-(LED3-A)*%
X129000000Y-71200000D03*
X130500000Y-95200000D03*
%TO.N,Net-(LED3-G)*%
X134700000Y-71200000D03*
X122900000Y-98400000D03*
%TO.N,/MCU/MODE*%
X87200000Y-77500000D03*
X98710000Y-91810000D03*
%TD*%
%TA.AperFunction,Conductor*%
%TO.N,GND*%
G36*
X160006922Y-67501280D02*
G01*
X160023878Y-67503190D01*
X160097268Y-67511458D01*
X160124333Y-67517636D01*
X160203539Y-67545351D01*
X160228549Y-67557395D01*
X160299606Y-67602043D01*
X160321313Y-67619355D01*
X160380644Y-67678686D01*
X160397957Y-67700395D01*
X160442602Y-67771447D01*
X160454649Y-67796464D01*
X160482362Y-67875662D01*
X160488541Y-67902734D01*
X160498720Y-67993076D01*
X160499500Y-68006959D01*
X160499500Y-127693040D01*
X160498720Y-127706923D01*
X160488541Y-127797265D01*
X160482362Y-127824337D01*
X160454649Y-127903535D01*
X160442602Y-127928552D01*
X160397957Y-127999604D01*
X160380644Y-128021313D01*
X160321313Y-128080644D01*
X160299604Y-128097957D01*
X160228552Y-128142602D01*
X160203535Y-128154649D01*
X160124337Y-128182362D01*
X160097265Y-128188541D01*
X160006923Y-128198720D01*
X159993040Y-128199500D01*
X56006960Y-128199500D01*
X55993077Y-128198720D01*
X55902734Y-128188541D01*
X55875662Y-128182362D01*
X55796464Y-128154649D01*
X55771447Y-128142602D01*
X55700395Y-128097957D01*
X55678686Y-128080644D01*
X55619355Y-128021313D01*
X55602042Y-127999604D01*
X55557397Y-127928552D01*
X55545351Y-127903539D01*
X55517636Y-127824333D01*
X55511458Y-127797268D01*
X55501280Y-127706922D01*
X55500500Y-127693040D01*
X55500500Y-103549108D01*
X58794500Y-103549108D01*
X58794500Y-105610891D01*
X58828608Y-105738187D01*
X58838350Y-105755060D01*
X58894500Y-105852314D01*
X58987686Y-105945500D01*
X59101814Y-106011392D01*
X59229108Y-106045500D01*
X59775500Y-106045500D01*
X59842539Y-106065185D01*
X59888294Y-106117989D01*
X59899500Y-106169500D01*
X59899500Y-108430500D01*
X59879815Y-108497539D01*
X59827011Y-108543294D01*
X59775500Y-108554500D01*
X59229108Y-108554500D01*
X59101812Y-108588608D01*
X58987686Y-108654500D01*
X58987683Y-108654502D01*
X58894502Y-108747683D01*
X58894500Y-108747686D01*
X58828608Y-108861812D01*
X58805131Y-108949432D01*
X58794500Y-108989108D01*
X58794500Y-110919108D01*
X58794500Y-111050892D01*
X58811554Y-111114539D01*
X58828608Y-111178187D01*
X58829908Y-111180438D01*
X58894500Y-111292314D01*
X58987686Y-111385500D01*
X59101814Y-111451392D01*
X59229108Y-111485500D01*
X62564786Y-111485500D01*
X62631825Y-111505185D01*
X62677580Y-111557989D01*
X62679812Y-111563186D01*
X62894727Y-112096959D01*
X63183573Y-112711548D01*
X63366375Y-113049435D01*
X63506712Y-113308829D01*
X63506714Y-113308832D01*
X63756285Y-113713624D01*
X63863097Y-113886869D01*
X64251600Y-114443841D01*
X64670973Y-114977955D01*
X65119876Y-115487502D01*
X65263348Y-115632885D01*
X65596872Y-115970853D01*
X65596881Y-115970861D01*
X66100424Y-116426450D01*
X66100432Y-116426457D01*
X66628951Y-116852862D01*
X66628964Y-116852872D01*
X67180722Y-117248693D01*
X67180734Y-117248701D01*
X67754015Y-117612708D01*
X68346960Y-117943718D01*
X68346968Y-117943721D01*
X68346970Y-117943723D01*
X68346975Y-117943726D01*
X68957678Y-118240673D01*
X69375358Y-118415303D01*
X69584200Y-118502619D01*
X70224536Y-118728722D01*
X70224540Y-118728724D01*
X70876613Y-118918252D01*
X70876616Y-118918252D01*
X70876631Y-118918257D01*
X71538399Y-119070618D01*
X72207724Y-119185318D01*
X72882464Y-119261989D01*
X73560459Y-119300386D01*
X73560470Y-119300386D01*
X74239530Y-119300386D01*
X74239541Y-119300386D01*
X74917536Y-119261989D01*
X75592276Y-119185318D01*
X76261601Y-119070618D01*
X76923369Y-118918257D01*
X77045264Y-118882827D01*
X77575459Y-118728724D01*
X77575460Y-118728723D01*
X77575465Y-118728722D01*
X78215800Y-118502619D01*
X78842326Y-118240671D01*
X79453040Y-117943718D01*
X80045985Y-117612708D01*
X80619266Y-117248701D01*
X81171048Y-116852863D01*
X81699566Y-116426458D01*
X81702869Y-116423470D01*
X81783448Y-116350565D01*
X117824500Y-116350565D01*
X117824500Y-116449435D01*
X117850090Y-116544938D01*
X117899525Y-116630562D01*
X117969438Y-116700475D01*
X118055062Y-116749910D01*
X118150565Y-116775500D01*
X118150567Y-116775500D01*
X118249432Y-116775500D01*
X118249435Y-116775500D01*
X118344938Y-116749910D01*
X118430562Y-116700475D01*
X118500475Y-116630562D01*
X118549910Y-116544938D01*
X118575500Y-116449435D01*
X118575500Y-116350565D01*
X118549910Y-116255062D01*
X118500475Y-116169438D01*
X118430562Y-116099525D01*
X118344938Y-116050090D01*
X118249435Y-116024500D01*
X118150565Y-116024500D01*
X118055062Y-116050090D01*
X118055060Y-116050091D01*
X118055059Y-116050091D01*
X117969436Y-116099526D01*
X117899526Y-116169436D01*
X117850091Y-116255059D01*
X117850091Y-116255060D01*
X117850090Y-116255062D01*
X117824500Y-116350565D01*
X81783448Y-116350565D01*
X81894059Y-116250488D01*
X82203118Y-115970861D01*
X82203127Y-115970853D01*
X82203128Y-115970852D01*
X82680124Y-115487502D01*
X83129027Y-114977955D01*
X83548400Y-114443841D01*
X83936903Y-113886869D01*
X84293292Y-113308822D01*
X84487115Y-112950565D01*
X112024500Y-112950565D01*
X112024500Y-113049435D01*
X112050090Y-113144938D01*
X112099525Y-113230562D01*
X112169438Y-113300475D01*
X112255062Y-113349910D01*
X112350565Y-113375500D01*
X112350567Y-113375500D01*
X112449432Y-113375500D01*
X112449435Y-113375500D01*
X112544938Y-113349910D01*
X112630562Y-113300475D01*
X112700475Y-113230562D01*
X112749910Y-113144938D01*
X112775500Y-113049435D01*
X112775500Y-112950565D01*
X112749910Y-112855062D01*
X112700475Y-112769438D01*
X112630562Y-112699525D01*
X112544938Y-112650090D01*
X112449435Y-112624500D01*
X112350565Y-112624500D01*
X112255062Y-112650090D01*
X112255060Y-112650091D01*
X112255059Y-112650091D01*
X112169436Y-112699526D01*
X112099526Y-112769436D01*
X112050091Y-112855059D01*
X112050091Y-112855060D01*
X112050090Y-112855062D01*
X112024500Y-112950565D01*
X84487115Y-112950565D01*
X84616427Y-112711548D01*
X84786083Y-112350565D01*
X116524500Y-112350565D01*
X116524500Y-112449435D01*
X116550090Y-112544938D01*
X116599525Y-112630562D01*
X116669438Y-112700475D01*
X116755062Y-112749910D01*
X116850565Y-112775500D01*
X116850567Y-112775500D01*
X116949432Y-112775500D01*
X116949435Y-112775500D01*
X117044938Y-112749910D01*
X117130562Y-112700475D01*
X117200475Y-112630562D01*
X117249910Y-112544938D01*
X117275500Y-112449435D01*
X117275500Y-112350565D01*
X117249910Y-112255062D01*
X117200475Y-112169438D01*
X117130562Y-112099525D01*
X117044938Y-112050090D01*
X116949435Y-112024500D01*
X116850565Y-112024500D01*
X116755062Y-112050090D01*
X116755060Y-112050091D01*
X116755059Y-112050091D01*
X116669436Y-112099526D01*
X116599526Y-112169436D01*
X116550091Y-112255059D01*
X116550091Y-112255060D01*
X116550090Y-112255062D01*
X116524500Y-112350565D01*
X84786083Y-112350565D01*
X84814691Y-112289695D01*
X84871210Y-112169436D01*
X84905273Y-112096959D01*
X85120188Y-111563186D01*
X85163487Y-111508351D01*
X85229559Y-111485629D01*
X85235214Y-111485500D01*
X88570890Y-111485500D01*
X88570892Y-111485500D01*
X88698186Y-111451392D01*
X88812314Y-111385500D01*
X88905500Y-111292314D01*
X88929604Y-111250565D01*
X105024500Y-111250565D01*
X105024500Y-111349435D01*
X105050090Y-111444938D01*
X105099525Y-111530562D01*
X105169438Y-111600475D01*
X105255062Y-111649910D01*
X105350565Y-111675500D01*
X105350567Y-111675500D01*
X105449432Y-111675500D01*
X105449435Y-111675500D01*
X105544938Y-111649910D01*
X105630562Y-111600475D01*
X105700475Y-111530562D01*
X105749910Y-111444938D01*
X105775500Y-111349435D01*
X105775500Y-111250565D01*
X105749910Y-111155062D01*
X105700475Y-111069438D01*
X105630562Y-110999525D01*
X105544938Y-110950090D01*
X105449435Y-110924500D01*
X105350565Y-110924500D01*
X105255062Y-110950090D01*
X105255060Y-110950091D01*
X105255059Y-110950091D01*
X105169436Y-110999526D01*
X105099526Y-111069436D01*
X105050091Y-111155059D01*
X105050091Y-111155060D01*
X105050090Y-111155062D01*
X105024500Y-111250565D01*
X88929604Y-111250565D01*
X88971392Y-111178186D01*
X89005500Y-111050892D01*
X89005500Y-110150565D01*
X114124500Y-110150565D01*
X114124500Y-110249435D01*
X114150090Y-110344938D01*
X114199525Y-110430562D01*
X114269438Y-110500475D01*
X114355062Y-110549910D01*
X114450565Y-110575500D01*
X114450567Y-110575500D01*
X114549432Y-110575500D01*
X114549435Y-110575500D01*
X114644938Y-110549910D01*
X114730562Y-110500475D01*
X114800475Y-110430562D01*
X114849910Y-110344938D01*
X114875500Y-110249435D01*
X114875500Y-110150565D01*
X114849910Y-110055062D01*
X114800475Y-109969438D01*
X114730562Y-109899525D01*
X114644938Y-109850090D01*
X114549435Y-109824500D01*
X114450565Y-109824500D01*
X114355062Y-109850090D01*
X114355060Y-109850091D01*
X114355059Y-109850091D01*
X114269436Y-109899526D01*
X114199526Y-109969436D01*
X114150091Y-110055059D01*
X114150091Y-110055060D01*
X114150090Y-110055062D01*
X114124500Y-110150565D01*
X89005500Y-110150565D01*
X89005500Y-108989108D01*
X88971392Y-108861814D01*
X88905500Y-108747686D01*
X88812314Y-108654500D01*
X88755250Y-108621554D01*
X88698187Y-108588608D01*
X88634539Y-108571554D01*
X88570892Y-108554500D01*
X88570891Y-108554500D01*
X88024500Y-108554500D01*
X87957461Y-108534815D01*
X87911706Y-108482011D01*
X87900500Y-108430500D01*
X87900500Y-106169500D01*
X87920185Y-106102461D01*
X87972989Y-106056706D01*
X88024500Y-106045500D01*
X88570890Y-106045500D01*
X88570892Y-106045500D01*
X88698186Y-106011392D01*
X88812314Y-105945500D01*
X88905500Y-105852314D01*
X88906510Y-105850565D01*
X90462000Y-105850565D01*
X90462000Y-105949435D01*
X90487590Y-106044938D01*
X90487591Y-106044939D01*
X90487591Y-106044940D01*
X90512452Y-106088000D01*
X90528925Y-106155900D01*
X90512452Y-106212000D01*
X90487591Y-106255059D01*
X90487591Y-106255060D01*
X90487590Y-106255062D01*
X90462000Y-106350565D01*
X90462000Y-106449435D01*
X90487590Y-106544938D01*
X90487591Y-106544939D01*
X90487591Y-106544940D01*
X90512452Y-106588000D01*
X90528925Y-106655900D01*
X90512452Y-106712000D01*
X90487591Y-106755059D01*
X90487591Y-106755060D01*
X90487590Y-106755062D01*
X90462000Y-106850565D01*
X90462000Y-106949435D01*
X90487590Y-107044938D01*
X90487591Y-107044939D01*
X90487591Y-107044940D01*
X90512452Y-107088000D01*
X90528925Y-107155900D01*
X90512452Y-107212000D01*
X90487591Y-107255059D01*
X90487591Y-107255060D01*
X90487590Y-107255062D01*
X90462000Y-107350565D01*
X90462000Y-107449435D01*
X90487590Y-107544938D01*
X90487591Y-107544939D01*
X90487591Y-107544940D01*
X90512452Y-107588000D01*
X90528925Y-107655900D01*
X90512452Y-107712000D01*
X90487591Y-107755059D01*
X90487591Y-107755060D01*
X90487590Y-107755062D01*
X90462000Y-107850565D01*
X90462000Y-107949435D01*
X90487590Y-108044938D01*
X90487591Y-108044939D01*
X90487591Y-108044940D01*
X90512452Y-108088000D01*
X90528925Y-108155900D01*
X90512452Y-108212000D01*
X90487591Y-108255059D01*
X90487591Y-108255060D01*
X90487590Y-108255062D01*
X90462000Y-108350565D01*
X90462000Y-108449435D01*
X90487590Y-108544938D01*
X90487591Y-108544939D01*
X90487591Y-108544940D01*
X90512452Y-108588000D01*
X90528925Y-108655900D01*
X90512452Y-108712000D01*
X90487591Y-108755059D01*
X90487591Y-108755060D01*
X90487590Y-108755062D01*
X90462000Y-108850565D01*
X90462000Y-108949435D01*
X90487590Y-109044938D01*
X90537025Y-109130562D01*
X90606938Y-109200475D01*
X90692562Y-109249910D01*
X90788065Y-109275500D01*
X90788067Y-109275500D01*
X90886932Y-109275500D01*
X90886935Y-109275500D01*
X90982438Y-109249910D01*
X91068062Y-109200475D01*
X91137975Y-109130562D01*
X91187410Y-109044938D01*
X91213000Y-108949435D01*
X91213000Y-108850565D01*
X91187410Y-108755062D01*
X91162547Y-108711998D01*
X91146074Y-108644102D01*
X91162546Y-108588002D01*
X91187410Y-108544938D01*
X91213000Y-108449435D01*
X91213000Y-108350565D01*
X91187410Y-108255062D01*
X91162547Y-108211998D01*
X91146074Y-108144102D01*
X91162546Y-108088002D01*
X91187410Y-108044938D01*
X91213000Y-107949435D01*
X91213000Y-107850565D01*
X158224500Y-107850565D01*
X158224500Y-107949435D01*
X158250090Y-108044938D01*
X158299525Y-108130562D01*
X158369438Y-108200475D01*
X158455062Y-108249910D01*
X158550565Y-108275500D01*
X158550567Y-108275500D01*
X158649432Y-108275500D01*
X158649435Y-108275500D01*
X158744938Y-108249910D01*
X158830562Y-108200475D01*
X158900475Y-108130562D01*
X158949910Y-108044938D01*
X158975500Y-107949435D01*
X158975500Y-107850565D01*
X158949910Y-107755062D01*
X158900475Y-107669438D01*
X158830562Y-107599525D01*
X158744938Y-107550090D01*
X158649435Y-107524500D01*
X158550565Y-107524500D01*
X158455062Y-107550090D01*
X158455060Y-107550091D01*
X158455059Y-107550091D01*
X158369436Y-107599526D01*
X158299526Y-107669436D01*
X158250091Y-107755059D01*
X158250091Y-107755060D01*
X158250090Y-107755062D01*
X158224500Y-107850565D01*
X91213000Y-107850565D01*
X91187410Y-107755062D01*
X91156690Y-107701855D01*
X91152841Y-107690808D01*
X91151662Y-107667136D01*
X91146074Y-107644102D01*
X91149871Y-107631167D01*
X91149367Y-107621024D01*
X91156492Y-107608621D01*
X91162546Y-107588002D01*
X91187410Y-107544938D01*
X91213000Y-107449435D01*
X91213000Y-107350565D01*
X91187410Y-107255062D01*
X91162547Y-107211998D01*
X91146074Y-107144102D01*
X91162546Y-107088002D01*
X91187410Y-107044938D01*
X91213000Y-106949435D01*
X91213000Y-106850565D01*
X91187410Y-106755062D01*
X91162547Y-106711998D01*
X91146074Y-106644102D01*
X91154031Y-106605925D01*
X91157565Y-106596630D01*
X91187410Y-106544938D01*
X91199300Y-106500565D01*
X106574500Y-106500565D01*
X106574500Y-106599435D01*
X106600090Y-106694938D01*
X106649525Y-106780562D01*
X106719438Y-106850475D01*
X106805062Y-106899910D01*
X106900565Y-106925500D01*
X106900567Y-106925500D01*
X106999432Y-106925500D01*
X106999435Y-106925500D01*
X107094938Y-106899910D01*
X107180562Y-106850475D01*
X107250475Y-106780562D01*
X107299910Y-106694938D01*
X107325500Y-106599435D01*
X107325500Y-106500565D01*
X107299910Y-106405062D01*
X107250475Y-106319438D01*
X107180562Y-106249525D01*
X107094938Y-106200090D01*
X106999435Y-106174500D01*
X106900565Y-106174500D01*
X106805062Y-106200090D01*
X106805060Y-106200091D01*
X106805059Y-106200091D01*
X106719436Y-106249526D01*
X106649526Y-106319436D01*
X106600091Y-106405059D01*
X106600091Y-106405060D01*
X106600090Y-106405062D01*
X106574500Y-106500565D01*
X91199300Y-106500565D01*
X91213000Y-106449435D01*
X91213000Y-106350565D01*
X91187410Y-106255062D01*
X91162547Y-106211998D01*
X91146074Y-106144102D01*
X91162546Y-106088002D01*
X91187410Y-106044938D01*
X91213000Y-105949435D01*
X91213000Y-105850565D01*
X91187410Y-105755062D01*
X91137975Y-105669438D01*
X91068062Y-105599525D01*
X90982438Y-105550090D01*
X90886935Y-105524500D01*
X90788065Y-105524500D01*
X90692562Y-105550090D01*
X90692560Y-105550091D01*
X90692559Y-105550091D01*
X90606936Y-105599526D01*
X90537026Y-105669436D01*
X90487591Y-105755059D01*
X90487591Y-105755060D01*
X90487590Y-105755062D01*
X90462000Y-105850565D01*
X88906510Y-105850565D01*
X88971392Y-105738186D01*
X89005500Y-105610892D01*
X89005500Y-104450565D01*
X105324500Y-104450565D01*
X105324500Y-104549435D01*
X105350090Y-104644938D01*
X105350091Y-104644939D01*
X105350091Y-104644940D01*
X105353065Y-104650091D01*
X105399525Y-104730562D01*
X105469438Y-104800475D01*
X105555062Y-104849910D01*
X105650565Y-104875500D01*
X105650567Y-104875500D01*
X105749432Y-104875500D01*
X105749435Y-104875500D01*
X105768408Y-104870416D01*
X105838256Y-104872079D01*
X105896119Y-104911241D01*
X105923623Y-104975470D01*
X105924500Y-104990191D01*
X105924500Y-105049435D01*
X105950090Y-105144938D01*
X105999525Y-105230562D01*
X106069438Y-105300475D01*
X106155062Y-105349910D01*
X106250565Y-105375500D01*
X106250567Y-105375500D01*
X106349432Y-105375500D01*
X106349435Y-105375500D01*
X106444938Y-105349910D01*
X106530562Y-105300475D01*
X106600475Y-105230562D01*
X106649910Y-105144938D01*
X106675500Y-105049435D01*
X106675500Y-104950565D01*
X106649910Y-104855062D01*
X106600475Y-104769438D01*
X106530562Y-104699525D01*
X106444938Y-104650090D01*
X106349435Y-104624500D01*
X106250565Y-104624500D01*
X106231590Y-104629584D01*
X106161740Y-104627919D01*
X106103879Y-104588754D01*
X106076376Y-104524525D01*
X106075500Y-104509808D01*
X106075500Y-104450567D01*
X106075500Y-104450565D01*
X106049910Y-104355062D01*
X106000475Y-104269438D01*
X105930562Y-104199525D01*
X105844938Y-104150090D01*
X105749435Y-104124500D01*
X105650565Y-104124500D01*
X105555062Y-104150090D01*
X105555060Y-104150091D01*
X105555059Y-104150091D01*
X105469436Y-104199526D01*
X105399526Y-104269436D01*
X105350091Y-104355059D01*
X105350091Y-104355060D01*
X105350090Y-104355062D01*
X105324500Y-104450565D01*
X89005500Y-104450565D01*
X89005500Y-103549108D01*
X88971392Y-103421814D01*
X88905500Y-103307686D01*
X88812314Y-103214500D01*
X88755250Y-103181554D01*
X88698187Y-103148608D01*
X88634539Y-103131554D01*
X88570892Y-103114500D01*
X88570891Y-103114500D01*
X85235214Y-103114500D01*
X85168175Y-103094815D01*
X85122420Y-103042011D01*
X85120188Y-103036814D01*
X85119884Y-103036059D01*
X84905273Y-102503041D01*
X84616427Y-101888452D01*
X84293292Y-101291178D01*
X84052407Y-100900473D01*
X83936902Y-100713129D01*
X83867325Y-100613381D01*
X83867323Y-100613379D01*
X83823510Y-100550567D01*
X83823509Y-100550565D01*
X111924500Y-100550565D01*
X111924500Y-100649435D01*
X111950090Y-100744938D01*
X111999525Y-100830562D01*
X112069438Y-100900475D01*
X112155062Y-100949910D01*
X112250565Y-100975500D01*
X112250567Y-100975500D01*
X112349432Y-100975500D01*
X112349435Y-100975500D01*
X112444938Y-100949910D01*
X112530562Y-100900475D01*
X112600475Y-100830562D01*
X112649910Y-100744938D01*
X112675500Y-100649435D01*
X112675500Y-100550565D01*
X112649910Y-100455062D01*
X112600475Y-100369438D01*
X112530562Y-100299525D01*
X112444938Y-100250090D01*
X112349435Y-100224500D01*
X112250565Y-100224500D01*
X112155062Y-100250090D01*
X112155060Y-100250091D01*
X112155059Y-100250091D01*
X112069436Y-100299526D01*
X111999526Y-100369436D01*
X111950091Y-100455059D01*
X111950091Y-100455060D01*
X111950090Y-100455062D01*
X111924500Y-100550565D01*
X83823509Y-100550565D01*
X83548400Y-100156159D01*
X83129027Y-99622045D01*
X82889857Y-99350565D01*
X150424500Y-99350565D01*
X150424500Y-99449435D01*
X150450090Y-99544938D01*
X150499525Y-99630562D01*
X150569438Y-99700475D01*
X150655062Y-99749910D01*
X150750565Y-99775500D01*
X150750567Y-99775500D01*
X150849432Y-99775500D01*
X150849435Y-99775500D01*
X150944938Y-99749910D01*
X151030562Y-99700475D01*
X151100475Y-99630562D01*
X151149910Y-99544938D01*
X151175500Y-99449435D01*
X151175500Y-99350565D01*
X151149910Y-99255062D01*
X151100475Y-99169438D01*
X151030562Y-99099525D01*
X150944938Y-99050090D01*
X150849435Y-99024500D01*
X150750565Y-99024500D01*
X150655062Y-99050090D01*
X150655060Y-99050091D01*
X150655059Y-99050091D01*
X150569436Y-99099526D01*
X150499526Y-99169436D01*
X150450091Y-99255059D01*
X150450091Y-99255060D01*
X150450090Y-99255062D01*
X150424500Y-99350565D01*
X82889857Y-99350565D01*
X82680124Y-99112498D01*
X82347556Y-98775500D01*
X82203127Y-98629146D01*
X82203118Y-98629138D01*
X81895223Y-98350565D01*
X122524500Y-98350565D01*
X122524500Y-98449435D01*
X122550090Y-98544938D01*
X122550091Y-98544939D01*
X122550091Y-98544940D01*
X122563337Y-98567882D01*
X122599525Y-98630562D01*
X122669438Y-98700475D01*
X122755062Y-98749910D01*
X122850565Y-98775500D01*
X122850567Y-98775500D01*
X122949432Y-98775500D01*
X122949435Y-98775500D01*
X123044938Y-98749910D01*
X123130562Y-98700475D01*
X123180472Y-98650565D01*
X126624500Y-98650565D01*
X126624500Y-98749435D01*
X126650090Y-98844938D01*
X126699525Y-98930562D01*
X126769438Y-99000475D01*
X126855062Y-99049910D01*
X126950565Y-99075500D01*
X126950567Y-99075500D01*
X127049432Y-99075500D01*
X127049435Y-99075500D01*
X127144938Y-99049910D01*
X127230562Y-99000475D01*
X127300475Y-98930562D01*
X127349910Y-98844938D01*
X127375500Y-98749435D01*
X127375500Y-98650565D01*
X127349910Y-98555062D01*
X127300475Y-98469438D01*
X127230562Y-98399525D01*
X127144938Y-98350090D01*
X127049435Y-98324500D01*
X126950565Y-98324500D01*
X126855062Y-98350090D01*
X126855060Y-98350091D01*
X126855059Y-98350091D01*
X126769436Y-98399526D01*
X126699526Y-98469436D01*
X126650091Y-98555059D01*
X126650091Y-98555060D01*
X126650090Y-98555062D01*
X126624500Y-98650565D01*
X123180472Y-98650565D01*
X123200475Y-98630562D01*
X123249910Y-98544938D01*
X123275500Y-98449435D01*
X123275500Y-98350565D01*
X123249910Y-98255062D01*
X123200475Y-98169438D01*
X123130562Y-98099525D01*
X123044938Y-98050090D01*
X122949435Y-98024500D01*
X122850565Y-98024500D01*
X122755062Y-98050090D01*
X122755060Y-98050091D01*
X122755059Y-98050091D01*
X122684575Y-98090785D01*
X122684573Y-98090786D01*
X122669438Y-98099525D01*
X122599525Y-98169438D01*
X122590786Y-98184573D01*
X122590785Y-98184575D01*
X122550091Y-98255059D01*
X122550091Y-98255060D01*
X122550090Y-98255062D01*
X122524500Y-98350565D01*
X81895223Y-98350565D01*
X81699575Y-98173549D01*
X81699567Y-98173542D01*
X81171048Y-97747137D01*
X81171035Y-97747127D01*
X81036432Y-97650565D01*
X121824500Y-97650565D01*
X121824500Y-97749435D01*
X121850090Y-97844938D01*
X121899525Y-97930562D01*
X121969438Y-98000475D01*
X122055062Y-98049910D01*
X122150565Y-98075500D01*
X122150567Y-98075500D01*
X122249432Y-98075500D01*
X122249435Y-98075500D01*
X122344938Y-98049910D01*
X122430562Y-98000475D01*
X122480472Y-97950565D01*
X127324500Y-97950565D01*
X127324500Y-98049435D01*
X127350090Y-98144938D01*
X127350091Y-98144939D01*
X127350091Y-98144940D01*
X127368330Y-98176530D01*
X127399525Y-98230562D01*
X127469438Y-98300475D01*
X127555062Y-98349910D01*
X127650565Y-98375500D01*
X127650567Y-98375500D01*
X127749432Y-98375500D01*
X127749435Y-98375500D01*
X127842494Y-98350565D01*
X146624500Y-98350565D01*
X146624500Y-98449435D01*
X146650090Y-98544938D01*
X146650091Y-98544939D01*
X146650091Y-98544940D01*
X146663337Y-98567882D01*
X146699525Y-98630562D01*
X146769438Y-98700475D01*
X146855062Y-98749910D01*
X146950565Y-98775500D01*
X146950567Y-98775500D01*
X147049432Y-98775500D01*
X147049435Y-98775500D01*
X147144938Y-98749910D01*
X147230562Y-98700475D01*
X147280472Y-98650565D01*
X151124500Y-98650565D01*
X151124500Y-98749435D01*
X151150090Y-98844938D01*
X151199525Y-98930562D01*
X151269438Y-99000475D01*
X151355062Y-99049910D01*
X151450565Y-99075500D01*
X151450567Y-99075500D01*
X151549432Y-99075500D01*
X151549435Y-99075500D01*
X151644938Y-99049910D01*
X151730562Y-99000475D01*
X151800475Y-98930562D01*
X151849910Y-98844938D01*
X151875500Y-98749435D01*
X151875500Y-98650565D01*
X151849910Y-98555062D01*
X151800475Y-98469438D01*
X151730562Y-98399525D01*
X151644938Y-98350090D01*
X151549435Y-98324500D01*
X151450565Y-98324500D01*
X151355062Y-98350090D01*
X151355060Y-98350091D01*
X151355059Y-98350091D01*
X151269436Y-98399526D01*
X151199526Y-98469436D01*
X151150091Y-98555059D01*
X151150091Y-98555060D01*
X151150090Y-98555062D01*
X151124500Y-98650565D01*
X147280472Y-98650565D01*
X147300475Y-98630562D01*
X147349910Y-98544938D01*
X147375500Y-98449435D01*
X147375500Y-98350565D01*
X147349910Y-98255062D01*
X147300475Y-98169438D01*
X147230562Y-98099525D01*
X147144938Y-98050090D01*
X147049435Y-98024500D01*
X146950565Y-98024500D01*
X146855062Y-98050090D01*
X146855060Y-98050091D01*
X146855059Y-98050091D01*
X146769436Y-98099526D01*
X146699526Y-98169436D01*
X146650091Y-98255059D01*
X146650091Y-98255060D01*
X146650090Y-98255062D01*
X146624500Y-98350565D01*
X127842494Y-98350565D01*
X127844938Y-98349910D01*
X127930562Y-98300475D01*
X128000475Y-98230562D01*
X128049910Y-98144938D01*
X128075500Y-98049435D01*
X128075500Y-97950565D01*
X128049910Y-97855062D01*
X128000475Y-97769438D01*
X127930562Y-97699525D01*
X127844938Y-97650090D01*
X127749435Y-97624500D01*
X127650565Y-97624500D01*
X127555062Y-97650090D01*
X127555060Y-97650091D01*
X127555059Y-97650091D01*
X127469436Y-97699526D01*
X127399526Y-97769436D01*
X127350091Y-97855059D01*
X127350091Y-97855060D01*
X127350090Y-97855062D01*
X127324500Y-97950565D01*
X122480472Y-97950565D01*
X122500475Y-97930562D01*
X122549910Y-97844938D01*
X122575500Y-97749435D01*
X122575500Y-97650565D01*
X122549910Y-97555062D01*
X122500475Y-97469438D01*
X122430562Y-97399525D01*
X122344938Y-97350090D01*
X122249435Y-97324500D01*
X122150565Y-97324500D01*
X122055062Y-97350090D01*
X122055060Y-97350091D01*
X122055059Y-97350091D01*
X121984575Y-97390785D01*
X121984573Y-97390786D01*
X121969438Y-97399525D01*
X121899525Y-97469438D01*
X121890786Y-97484573D01*
X121890785Y-97484575D01*
X121850091Y-97555059D01*
X121850091Y-97555060D01*
X121850090Y-97555062D01*
X121824500Y-97650565D01*
X81036432Y-97650565D01*
X80619277Y-97351306D01*
X80619262Y-97351296D01*
X80045985Y-96987292D01*
X79980195Y-96950565D01*
X121124500Y-96950565D01*
X121124500Y-97049435D01*
X121150090Y-97144938D01*
X121150091Y-97144939D01*
X121150091Y-97144940D01*
X121155933Y-97155059D01*
X121199525Y-97230562D01*
X121269438Y-97300475D01*
X121355062Y-97349910D01*
X121450565Y-97375500D01*
X121450567Y-97375500D01*
X121549432Y-97375500D01*
X121549435Y-97375500D01*
X121644938Y-97349910D01*
X121730562Y-97300475D01*
X121780472Y-97250565D01*
X128024500Y-97250565D01*
X128024500Y-97349435D01*
X128050090Y-97444938D01*
X128099525Y-97530562D01*
X128169438Y-97600475D01*
X128255062Y-97649910D01*
X128350565Y-97675500D01*
X128350567Y-97675500D01*
X128449432Y-97675500D01*
X128449435Y-97675500D01*
X128544938Y-97649910D01*
X128630562Y-97600475D01*
X128680472Y-97550565D01*
X145924500Y-97550565D01*
X145924500Y-97649435D01*
X145950090Y-97744938D01*
X145950091Y-97744939D01*
X145950091Y-97744940D01*
X145952686Y-97749435D01*
X145999525Y-97830562D01*
X146069438Y-97900475D01*
X146155062Y-97949910D01*
X146250565Y-97975500D01*
X146250567Y-97975500D01*
X146349432Y-97975500D01*
X146349435Y-97975500D01*
X146442494Y-97950565D01*
X151824500Y-97950565D01*
X151824500Y-98049435D01*
X151850090Y-98144938D01*
X151850091Y-98144939D01*
X151850091Y-98144940D01*
X151868330Y-98176530D01*
X151899525Y-98230562D01*
X151969438Y-98300475D01*
X152055062Y-98349910D01*
X152150565Y-98375500D01*
X152150567Y-98375500D01*
X152249432Y-98375500D01*
X152249435Y-98375500D01*
X152344938Y-98349910D01*
X152430562Y-98300475D01*
X152500475Y-98230562D01*
X152549910Y-98144938D01*
X152575500Y-98049435D01*
X152575500Y-97950565D01*
X152549910Y-97855062D01*
X152500475Y-97769438D01*
X152430562Y-97699525D01*
X152344938Y-97650090D01*
X152249435Y-97624500D01*
X152150565Y-97624500D01*
X152055062Y-97650090D01*
X152055060Y-97650091D01*
X152055059Y-97650091D01*
X151969436Y-97699526D01*
X151899526Y-97769436D01*
X151850091Y-97855059D01*
X151850091Y-97855060D01*
X151850090Y-97855062D01*
X151824500Y-97950565D01*
X146442494Y-97950565D01*
X146444938Y-97949910D01*
X146530562Y-97900475D01*
X146600475Y-97830562D01*
X146649910Y-97744938D01*
X146675500Y-97649435D01*
X146675500Y-97550565D01*
X146649910Y-97455062D01*
X146600475Y-97369438D01*
X146530562Y-97299525D01*
X146445761Y-97250565D01*
X152524500Y-97250565D01*
X152524500Y-97349435D01*
X152550090Y-97444938D01*
X152599525Y-97530562D01*
X152669438Y-97600475D01*
X152755062Y-97649910D01*
X152850565Y-97675500D01*
X152850567Y-97675500D01*
X152949432Y-97675500D01*
X152949435Y-97675500D01*
X153044938Y-97649910D01*
X153130562Y-97600475D01*
X153200475Y-97530562D01*
X153249910Y-97444938D01*
X153275500Y-97349435D01*
X153275500Y-97250565D01*
X153249910Y-97155062D01*
X153200475Y-97069438D01*
X153130562Y-96999525D01*
X153044938Y-96950090D01*
X152949435Y-96924500D01*
X152850565Y-96924500D01*
X152755062Y-96950090D01*
X152755060Y-96950091D01*
X152755059Y-96950091D01*
X152669436Y-96999526D01*
X152599526Y-97069436D01*
X152550091Y-97155059D01*
X152550091Y-97155060D01*
X152550090Y-97155062D01*
X152524500Y-97250565D01*
X146445761Y-97250565D01*
X146444938Y-97250090D01*
X146349435Y-97224500D01*
X146250565Y-97224500D01*
X146155062Y-97250090D01*
X146155060Y-97250091D01*
X146155059Y-97250091D01*
X146069436Y-97299526D01*
X145999526Y-97369436D01*
X145950091Y-97455059D01*
X145950091Y-97455060D01*
X145950090Y-97455062D01*
X145924500Y-97550565D01*
X128680472Y-97550565D01*
X128700475Y-97530562D01*
X128749910Y-97444938D01*
X128775500Y-97349435D01*
X128775500Y-97250565D01*
X128749910Y-97155062D01*
X128700475Y-97069438D01*
X128630562Y-96999525D01*
X128544938Y-96950090D01*
X128449435Y-96924500D01*
X128350565Y-96924500D01*
X128255062Y-96950090D01*
X128255060Y-96950091D01*
X128255059Y-96950091D01*
X128169436Y-96999526D01*
X128099526Y-97069436D01*
X128050091Y-97155059D01*
X128050091Y-97155060D01*
X128050090Y-97155062D01*
X128024500Y-97250565D01*
X121780472Y-97250565D01*
X121800475Y-97230562D01*
X121849910Y-97144938D01*
X121875500Y-97049435D01*
X121875500Y-96950565D01*
X121849910Y-96855062D01*
X121800475Y-96769438D01*
X121730562Y-96699525D01*
X121644938Y-96650090D01*
X121549435Y-96624500D01*
X121450565Y-96624500D01*
X121355062Y-96650090D01*
X121355060Y-96650091D01*
X121355059Y-96650091D01*
X121284575Y-96690785D01*
X121284573Y-96690786D01*
X121269438Y-96699525D01*
X121199525Y-96769438D01*
X121190786Y-96784573D01*
X121190785Y-96784575D01*
X121150091Y-96855059D01*
X121150091Y-96855060D01*
X121150090Y-96855062D01*
X121124500Y-96950565D01*
X79980195Y-96950565D01*
X79799039Y-96849435D01*
X79453040Y-96656282D01*
X79453038Y-96656281D01*
X79453029Y-96656276D01*
X79453024Y-96656273D01*
X78842321Y-96359326D01*
X78582186Y-96250565D01*
X120424500Y-96250565D01*
X120424500Y-96349435D01*
X120450090Y-96444938D01*
X120450091Y-96444939D01*
X120450091Y-96444940D01*
X120453065Y-96450091D01*
X120499525Y-96530562D01*
X120569438Y-96600475D01*
X120655062Y-96649910D01*
X120750565Y-96675500D01*
X120750567Y-96675500D01*
X120849432Y-96675500D01*
X120849435Y-96675500D01*
X120944938Y-96649910D01*
X121030562Y-96600475D01*
X121080472Y-96550565D01*
X128724500Y-96550565D01*
X128724500Y-96649435D01*
X128750090Y-96744938D01*
X128799525Y-96830562D01*
X128869438Y-96900475D01*
X128955062Y-96949910D01*
X129050565Y-96975500D01*
X129050567Y-96975500D01*
X129149432Y-96975500D01*
X129149435Y-96975500D01*
X129244938Y-96949910D01*
X129330562Y-96900475D01*
X129400475Y-96830562D01*
X129446661Y-96750565D01*
X145124500Y-96750565D01*
X145124500Y-96849435D01*
X145150090Y-96944938D01*
X145150091Y-96944939D01*
X145150091Y-96944940D01*
X145153065Y-96950091D01*
X145199525Y-97030562D01*
X145269438Y-97100475D01*
X145355062Y-97149910D01*
X145450565Y-97175500D01*
X145450567Y-97175500D01*
X145549432Y-97175500D01*
X145549435Y-97175500D01*
X145644938Y-97149910D01*
X145730562Y-97100475D01*
X145800475Y-97030562D01*
X145849910Y-96944938D01*
X145875500Y-96849435D01*
X145875500Y-96750565D01*
X145849910Y-96655062D01*
X145800475Y-96569438D01*
X145781602Y-96550565D01*
X153224500Y-96550565D01*
X153224500Y-96649435D01*
X153250090Y-96744938D01*
X153299525Y-96830562D01*
X153369438Y-96900475D01*
X153455062Y-96949910D01*
X153550565Y-96975500D01*
X153550567Y-96975500D01*
X153649432Y-96975500D01*
X153649435Y-96975500D01*
X153744938Y-96949910D01*
X153830562Y-96900475D01*
X153900475Y-96830562D01*
X153949910Y-96744938D01*
X153975500Y-96649435D01*
X153975500Y-96550565D01*
X153949910Y-96455062D01*
X153900475Y-96369438D01*
X153830562Y-96299525D01*
X153744938Y-96250090D01*
X153649435Y-96224500D01*
X153550565Y-96224500D01*
X153455062Y-96250090D01*
X153455060Y-96250091D01*
X153455059Y-96250091D01*
X153369436Y-96299526D01*
X153299526Y-96369436D01*
X153250091Y-96455059D01*
X153250091Y-96455060D01*
X153250090Y-96455062D01*
X153224500Y-96550565D01*
X145781602Y-96550565D01*
X145730562Y-96499525D01*
X145644938Y-96450090D01*
X145549435Y-96424500D01*
X145450565Y-96424500D01*
X145355062Y-96450090D01*
X145355060Y-96450091D01*
X145355059Y-96450091D01*
X145284575Y-96490785D01*
X145284573Y-96490786D01*
X145269438Y-96499525D01*
X145199525Y-96569438D01*
X145190786Y-96584573D01*
X145190785Y-96584575D01*
X145150091Y-96655059D01*
X145150091Y-96655060D01*
X145150090Y-96655062D01*
X145124500Y-96750565D01*
X129446661Y-96750565D01*
X129449910Y-96744938D01*
X129475500Y-96649435D01*
X129475500Y-96550565D01*
X129449910Y-96455062D01*
X129400475Y-96369438D01*
X129330562Y-96299525D01*
X129244938Y-96250090D01*
X129149435Y-96224500D01*
X129050565Y-96224500D01*
X128955062Y-96250090D01*
X128955060Y-96250091D01*
X128955059Y-96250091D01*
X128869436Y-96299526D01*
X128799526Y-96369436D01*
X128750091Y-96455059D01*
X128750091Y-96455060D01*
X128750090Y-96455062D01*
X128724500Y-96550565D01*
X121080472Y-96550565D01*
X121100475Y-96530562D01*
X121149910Y-96444938D01*
X121175500Y-96349435D01*
X121175500Y-96250565D01*
X121149910Y-96155062D01*
X121100475Y-96069438D01*
X121030562Y-95999525D01*
X120944938Y-95950090D01*
X120849435Y-95924500D01*
X120750565Y-95924500D01*
X120655062Y-95950090D01*
X120655060Y-95950091D01*
X120655059Y-95950091D01*
X120584575Y-95990785D01*
X120584573Y-95990786D01*
X120569438Y-95999525D01*
X120499525Y-96069438D01*
X120490786Y-96084573D01*
X120490785Y-96084575D01*
X120450091Y-96155059D01*
X120450091Y-96155060D01*
X120450090Y-96155062D01*
X120424500Y-96250565D01*
X78582186Y-96250565D01*
X78215801Y-96097381D01*
X77575466Y-95871278D01*
X77575459Y-95871275D01*
X76923386Y-95681747D01*
X76923369Y-95681743D01*
X76353608Y-95550565D01*
X119724500Y-95550565D01*
X119724500Y-95649435D01*
X119750090Y-95744938D01*
X119750091Y-95744939D01*
X119750091Y-95744940D01*
X119753065Y-95750091D01*
X119799525Y-95830562D01*
X119869438Y-95900475D01*
X119955062Y-95949910D01*
X120050565Y-95975500D01*
X120050567Y-95975500D01*
X120149432Y-95975500D01*
X120149435Y-95975500D01*
X120244938Y-95949910D01*
X120330562Y-95900475D01*
X120380472Y-95850565D01*
X129424500Y-95850565D01*
X129424500Y-95949435D01*
X129450090Y-96044938D01*
X129499525Y-96130562D01*
X129569438Y-96200475D01*
X129655062Y-96249910D01*
X129750565Y-96275500D01*
X129750567Y-96275500D01*
X129849432Y-96275500D01*
X129849435Y-96275500D01*
X129944938Y-96249910D01*
X130030562Y-96200475D01*
X130100475Y-96130562D01*
X130146661Y-96050565D01*
X144424500Y-96050565D01*
X144424500Y-96149435D01*
X144450090Y-96244938D01*
X144450091Y-96244939D01*
X144450091Y-96244940D01*
X144453065Y-96250091D01*
X144499525Y-96330562D01*
X144569438Y-96400475D01*
X144655062Y-96449910D01*
X144750565Y-96475500D01*
X144750567Y-96475500D01*
X144849432Y-96475500D01*
X144849435Y-96475500D01*
X144944938Y-96449910D01*
X145030562Y-96400475D01*
X145100475Y-96330562D01*
X145149910Y-96244938D01*
X145175500Y-96149435D01*
X145175500Y-96050565D01*
X145149910Y-95955062D01*
X145100475Y-95869438D01*
X145081602Y-95850565D01*
X153924500Y-95850565D01*
X153924500Y-95949435D01*
X153950090Y-96044938D01*
X153999525Y-96130562D01*
X154069438Y-96200475D01*
X154155062Y-96249910D01*
X154250565Y-96275500D01*
X154250567Y-96275500D01*
X154349432Y-96275500D01*
X154349435Y-96275500D01*
X154444938Y-96249910D01*
X154530562Y-96200475D01*
X154600475Y-96130562D01*
X154649910Y-96044938D01*
X154675500Y-95949435D01*
X154675500Y-95850565D01*
X154649910Y-95755062D01*
X154600475Y-95669438D01*
X154530562Y-95599525D01*
X154444938Y-95550090D01*
X154349435Y-95524500D01*
X154250565Y-95524500D01*
X154155062Y-95550090D01*
X154155060Y-95550091D01*
X154155059Y-95550091D01*
X154069436Y-95599526D01*
X153999526Y-95669436D01*
X153950091Y-95755059D01*
X153950091Y-95755060D01*
X153950090Y-95755062D01*
X153924500Y-95850565D01*
X145081602Y-95850565D01*
X145030562Y-95799525D01*
X144944938Y-95750090D01*
X144849435Y-95724500D01*
X144750565Y-95724500D01*
X144655062Y-95750090D01*
X144655060Y-95750091D01*
X144655059Y-95750091D01*
X144584575Y-95790785D01*
X144584573Y-95790786D01*
X144569438Y-95799525D01*
X144499525Y-95869438D01*
X144490786Y-95884573D01*
X144490785Y-95884575D01*
X144450091Y-95955059D01*
X144450091Y-95955060D01*
X144450090Y-95955062D01*
X144424500Y-96050565D01*
X130146661Y-96050565D01*
X130149910Y-96044938D01*
X130175500Y-95949435D01*
X130175500Y-95850565D01*
X130149910Y-95755062D01*
X130100475Y-95669438D01*
X130030562Y-95599525D01*
X129944938Y-95550090D01*
X129849435Y-95524500D01*
X129750565Y-95524500D01*
X129655062Y-95550090D01*
X129655060Y-95550091D01*
X129655059Y-95550091D01*
X129569436Y-95599526D01*
X129499526Y-95669436D01*
X129450091Y-95755059D01*
X129450091Y-95755060D01*
X129450090Y-95755062D01*
X129424500Y-95850565D01*
X120380472Y-95850565D01*
X120400475Y-95830562D01*
X120449910Y-95744938D01*
X120475500Y-95649435D01*
X120475500Y-95550565D01*
X120449910Y-95455062D01*
X120400475Y-95369438D01*
X120330562Y-95299525D01*
X120244938Y-95250090D01*
X120149435Y-95224500D01*
X120050565Y-95224500D01*
X119955062Y-95250090D01*
X119955060Y-95250091D01*
X119955059Y-95250091D01*
X119869436Y-95299526D01*
X119799526Y-95369436D01*
X119750091Y-95455059D01*
X119750091Y-95455060D01*
X119750090Y-95455062D01*
X119724500Y-95550565D01*
X76353608Y-95550565D01*
X76261601Y-95529382D01*
X76261588Y-95529379D01*
X75592310Y-95414687D01*
X75592263Y-95414680D01*
X74917555Y-95338013D01*
X74917549Y-95338012D01*
X74917536Y-95338011D01*
X74424569Y-95310092D01*
X74239545Y-95299614D01*
X74239541Y-95299614D01*
X73560459Y-95299614D01*
X73560454Y-95299614D01*
X73329173Y-95312712D01*
X72882464Y-95338011D01*
X72882452Y-95338012D01*
X72882444Y-95338013D01*
X72207736Y-95414680D01*
X72207689Y-95414687D01*
X71538412Y-95529379D01*
X71538411Y-95529379D01*
X70876613Y-95681747D01*
X70224540Y-95871275D01*
X70224533Y-95871278D01*
X69584198Y-96097381D01*
X68957678Y-96359326D01*
X68346975Y-96656273D01*
X68346970Y-96656276D01*
X67754014Y-96987292D01*
X67180737Y-97351296D01*
X67180722Y-97351306D01*
X66628964Y-97747127D01*
X66628951Y-97747137D01*
X66100432Y-98173542D01*
X66100424Y-98173549D01*
X65596881Y-98629138D01*
X65596872Y-98629146D01*
X65119871Y-99112503D01*
X65119864Y-99112511D01*
X64670972Y-99622046D01*
X64670958Y-99622063D01*
X64251616Y-100156138D01*
X64251606Y-100156152D01*
X64251593Y-100156169D01*
X63863097Y-100713130D01*
X63506714Y-101291167D01*
X63506712Y-101291170D01*
X63183572Y-101888453D01*
X63136731Y-101988119D01*
X62894727Y-102503041D01*
X62681774Y-103031940D01*
X62679812Y-103036814D01*
X62636513Y-103091649D01*
X62570441Y-103114371D01*
X62564786Y-103114500D01*
X59229108Y-103114500D01*
X59101812Y-103148608D01*
X58987686Y-103214500D01*
X58987683Y-103214502D01*
X58894502Y-103307683D01*
X58894500Y-103307686D01*
X58828608Y-103421812D01*
X58794500Y-103549108D01*
X55500500Y-103549108D01*
X55500500Y-95150565D01*
X130124500Y-95150565D01*
X130124500Y-95249435D01*
X130150090Y-95344938D01*
X130199525Y-95430562D01*
X130269438Y-95500475D01*
X130355062Y-95549910D01*
X130450565Y-95575500D01*
X130450567Y-95575500D01*
X130549432Y-95575500D01*
X130549435Y-95575500D01*
X130644938Y-95549910D01*
X130730562Y-95500475D01*
X130800475Y-95430562D01*
X130846661Y-95350565D01*
X143724500Y-95350565D01*
X143724500Y-95449435D01*
X143750090Y-95544938D01*
X143750091Y-95544939D01*
X143750091Y-95544940D01*
X143753065Y-95550091D01*
X143799525Y-95630562D01*
X143869438Y-95700475D01*
X143955062Y-95749910D01*
X144050565Y-95775500D01*
X144050567Y-95775500D01*
X144149432Y-95775500D01*
X144149435Y-95775500D01*
X144244938Y-95749910D01*
X144330562Y-95700475D01*
X144400475Y-95630562D01*
X144449910Y-95544938D01*
X144475500Y-95449435D01*
X144475500Y-95350565D01*
X144449910Y-95255062D01*
X144400475Y-95169438D01*
X144330562Y-95099525D01*
X144244938Y-95050090D01*
X144149435Y-95024500D01*
X144050565Y-95024500D01*
X143955062Y-95050090D01*
X143955060Y-95050091D01*
X143955059Y-95050091D01*
X143869436Y-95099526D01*
X143799526Y-95169436D01*
X143750091Y-95255059D01*
X143750091Y-95255060D01*
X143750090Y-95255062D01*
X143724500Y-95350565D01*
X130846661Y-95350565D01*
X130849910Y-95344938D01*
X130875500Y-95249435D01*
X130875500Y-95150565D01*
X130849910Y-95055062D01*
X130800475Y-94969438D01*
X130730562Y-94899525D01*
X130644938Y-94850090D01*
X130549435Y-94824500D01*
X130450565Y-94824500D01*
X130355062Y-94850090D01*
X130355060Y-94850091D01*
X130355059Y-94850091D01*
X130269436Y-94899526D01*
X130199526Y-94969436D01*
X130150091Y-95055059D01*
X130150091Y-95055060D01*
X130150090Y-95055062D01*
X130124500Y-95150565D01*
X55500500Y-95150565D01*
X55500500Y-91760565D01*
X98334500Y-91760565D01*
X98334500Y-91859435D01*
X98360090Y-91954938D01*
X98409525Y-92040562D01*
X98479438Y-92110475D01*
X98565062Y-92159910D01*
X98660565Y-92185500D01*
X98660567Y-92185500D01*
X98759432Y-92185500D01*
X98759435Y-92185500D01*
X98854938Y-92159910D01*
X98940562Y-92110475D01*
X99010475Y-92040562D01*
X99059910Y-91954938D01*
X99085500Y-91859435D01*
X99085500Y-91850565D01*
X127324500Y-91850565D01*
X127324500Y-91949435D01*
X127350090Y-92044938D01*
X127399525Y-92130562D01*
X127469438Y-92200475D01*
X127555062Y-92249910D01*
X127650565Y-92275500D01*
X127650567Y-92275500D01*
X127749432Y-92275500D01*
X127749435Y-92275500D01*
X127844938Y-92249910D01*
X127930562Y-92200475D01*
X128000472Y-92130565D01*
X151524500Y-92130565D01*
X151524500Y-92229435D01*
X151550090Y-92324938D01*
X151599525Y-92410562D01*
X151669438Y-92480475D01*
X151755062Y-92529910D01*
X151850565Y-92555500D01*
X151850567Y-92555500D01*
X151949432Y-92555500D01*
X151949435Y-92555500D01*
X152044938Y-92529910D01*
X152130562Y-92480475D01*
X152200475Y-92410562D01*
X152249910Y-92324938D01*
X152275500Y-92229435D01*
X152275500Y-92130565D01*
X152249910Y-92035062D01*
X152200475Y-91949438D01*
X152130562Y-91879525D01*
X152044938Y-91830090D01*
X151949435Y-91804500D01*
X151850565Y-91804500D01*
X151755062Y-91830090D01*
X151755060Y-91830091D01*
X151755059Y-91830091D01*
X151669436Y-91879526D01*
X151599526Y-91949436D01*
X151550091Y-92035059D01*
X151550091Y-92035060D01*
X151550090Y-92035062D01*
X151524500Y-92130565D01*
X128000472Y-92130565D01*
X128000475Y-92130562D01*
X128049910Y-92044938D01*
X128075500Y-91949435D01*
X128075500Y-91850565D01*
X128049910Y-91755062D01*
X128000475Y-91669438D01*
X127930562Y-91599525D01*
X127844938Y-91550090D01*
X127749435Y-91524500D01*
X127650565Y-91524500D01*
X127555062Y-91550090D01*
X127555060Y-91550091D01*
X127555059Y-91550091D01*
X127469436Y-91599526D01*
X127399526Y-91669436D01*
X127350091Y-91755059D01*
X127350091Y-91755060D01*
X127350090Y-91755062D01*
X127324500Y-91850565D01*
X99085500Y-91850565D01*
X99085500Y-91760565D01*
X99059910Y-91665062D01*
X99010475Y-91579438D01*
X98940562Y-91509525D01*
X98854938Y-91460090D01*
X98759435Y-91434500D01*
X98660565Y-91434500D01*
X98565062Y-91460090D01*
X98565060Y-91460091D01*
X98565059Y-91460091D01*
X98479436Y-91509526D01*
X98409526Y-91579436D01*
X98360091Y-91665059D01*
X98360091Y-91665060D01*
X98360090Y-91665062D01*
X98334500Y-91760565D01*
X55500500Y-91760565D01*
X55500500Y-91350565D01*
X119524500Y-91350565D01*
X119524500Y-91449435D01*
X119550090Y-91544938D01*
X119550091Y-91544939D01*
X119550091Y-91544940D01*
X119553065Y-91550091D01*
X119599525Y-91630562D01*
X119669438Y-91700475D01*
X119755062Y-91749910D01*
X119850565Y-91775500D01*
X119850567Y-91775500D01*
X119949432Y-91775500D01*
X119949435Y-91775500D01*
X120044938Y-91749910D01*
X120130562Y-91700475D01*
X120200475Y-91630562D01*
X120249910Y-91544938D01*
X120275500Y-91449435D01*
X120275500Y-91350565D01*
X120249910Y-91255062D01*
X120200475Y-91169438D01*
X120181602Y-91150565D01*
X126524500Y-91150565D01*
X126524500Y-91249435D01*
X126550090Y-91344938D01*
X126599525Y-91430562D01*
X126669438Y-91500475D01*
X126755062Y-91549910D01*
X126850565Y-91575500D01*
X126850567Y-91575500D01*
X126949432Y-91575500D01*
X126949435Y-91575500D01*
X127044938Y-91549910D01*
X127130562Y-91500475D01*
X127180472Y-91450565D01*
X143824500Y-91450565D01*
X143824500Y-91549435D01*
X143850090Y-91644938D01*
X143899525Y-91730562D01*
X143969438Y-91800475D01*
X144055062Y-91849910D01*
X144150565Y-91875500D01*
X144150567Y-91875500D01*
X144249432Y-91875500D01*
X144249435Y-91875500D01*
X144344938Y-91849910D01*
X144430562Y-91800475D01*
X144500475Y-91730562D01*
X144549910Y-91644938D01*
X144575500Y-91549435D01*
X144575500Y-91450565D01*
X144549910Y-91355062D01*
X144500475Y-91269438D01*
X144430562Y-91199525D01*
X144344938Y-91150090D01*
X144249435Y-91124500D01*
X144150565Y-91124500D01*
X144055062Y-91150090D01*
X144055060Y-91150091D01*
X144055059Y-91150091D01*
X143969436Y-91199526D01*
X143899526Y-91269436D01*
X143850091Y-91355059D01*
X143850091Y-91355060D01*
X143850090Y-91355062D01*
X143824500Y-91450565D01*
X127180472Y-91450565D01*
X127200475Y-91430562D01*
X127249910Y-91344938D01*
X127275500Y-91249435D01*
X127275500Y-91150565D01*
X127249910Y-91055062D01*
X127200475Y-90969438D01*
X127130562Y-90899525D01*
X127044938Y-90850090D01*
X126949435Y-90824500D01*
X126850565Y-90824500D01*
X126755062Y-90850090D01*
X126755060Y-90850091D01*
X126755059Y-90850091D01*
X126669436Y-90899526D01*
X126599526Y-90969436D01*
X126550091Y-91055059D01*
X126550091Y-91055060D01*
X126550090Y-91055062D01*
X126524500Y-91150565D01*
X120181602Y-91150565D01*
X120130562Y-91099525D01*
X120044938Y-91050090D01*
X119949435Y-91024500D01*
X119850565Y-91024500D01*
X119755062Y-91050090D01*
X119755060Y-91050091D01*
X119755059Y-91050091D01*
X119669436Y-91099526D01*
X119599526Y-91169436D01*
X119550091Y-91255059D01*
X119550091Y-91255060D01*
X119550090Y-91255062D01*
X119524500Y-91350565D01*
X55500500Y-91350565D01*
X55500500Y-90650565D01*
X107324500Y-90650565D01*
X107324500Y-90749435D01*
X107350090Y-90844938D01*
X107350091Y-90844939D01*
X107350091Y-90844940D01*
X107353065Y-90850091D01*
X107399525Y-90930562D01*
X107469438Y-91000475D01*
X107555062Y-91049910D01*
X107650565Y-91075500D01*
X107650567Y-91075500D01*
X107749432Y-91075500D01*
X107749435Y-91075500D01*
X107844938Y-91049910D01*
X107930562Y-91000475D01*
X108000475Y-90930562D01*
X108049910Y-90844938D01*
X108075500Y-90749435D01*
X108075500Y-90650565D01*
X120224500Y-90650565D01*
X120224500Y-90749435D01*
X120250090Y-90844938D01*
X120250091Y-90844939D01*
X120250091Y-90844940D01*
X120253065Y-90850091D01*
X120299525Y-90930562D01*
X120369438Y-91000475D01*
X120455062Y-91049910D01*
X120550565Y-91075500D01*
X120550567Y-91075500D01*
X120649432Y-91075500D01*
X120649435Y-91075500D01*
X120744938Y-91049910D01*
X120830562Y-91000475D01*
X120900475Y-90930562D01*
X120949910Y-90844938D01*
X120975500Y-90749435D01*
X120975500Y-90650565D01*
X120949910Y-90555062D01*
X120946594Y-90549319D01*
X123825748Y-90549319D01*
X123825748Y-90648189D01*
X123851338Y-90743692D01*
X123900773Y-90829316D01*
X123970686Y-90899229D01*
X124056310Y-90948664D01*
X124151813Y-90974254D01*
X124151815Y-90974254D01*
X124250680Y-90974254D01*
X124250683Y-90974254D01*
X124346186Y-90948664D01*
X124431810Y-90899229D01*
X124501723Y-90829316D01*
X124547190Y-90750565D01*
X144524500Y-90750565D01*
X144524500Y-90849435D01*
X144550090Y-90944938D01*
X144599525Y-91030562D01*
X144669438Y-91100475D01*
X144755062Y-91149910D01*
X144850565Y-91175500D01*
X144850567Y-91175500D01*
X144949432Y-91175500D01*
X144949435Y-91175500D01*
X145042494Y-91150565D01*
X150824500Y-91150565D01*
X150824500Y-91249435D01*
X150850090Y-91344938D01*
X150899525Y-91430562D01*
X150969438Y-91500475D01*
X151055062Y-91549910D01*
X151150565Y-91575500D01*
X151150567Y-91575500D01*
X151249432Y-91575500D01*
X151249435Y-91575500D01*
X151344938Y-91549910D01*
X151430562Y-91500475D01*
X151500475Y-91430562D01*
X151509878Y-91414276D01*
X154313479Y-91414276D01*
X154313479Y-91513146D01*
X154339069Y-91608649D01*
X154388504Y-91694273D01*
X154458417Y-91764186D01*
X154544041Y-91813621D01*
X154639544Y-91839211D01*
X154639546Y-91839211D01*
X154738411Y-91839211D01*
X154738414Y-91839211D01*
X154833917Y-91813621D01*
X154919541Y-91764186D01*
X154989454Y-91694273D01*
X155038889Y-91608649D01*
X155064479Y-91513146D01*
X155064479Y-91414276D01*
X155038889Y-91318773D01*
X154989454Y-91233149D01*
X154919541Y-91163236D01*
X154833917Y-91113801D01*
X154738414Y-91088211D01*
X154639544Y-91088211D01*
X154544041Y-91113801D01*
X154544039Y-91113802D01*
X154544038Y-91113802D01*
X154458415Y-91163237D01*
X154388505Y-91233147D01*
X154339070Y-91318770D01*
X154339070Y-91318771D01*
X154339069Y-91318773D01*
X154313479Y-91414276D01*
X151509878Y-91414276D01*
X151549910Y-91344938D01*
X151575500Y-91249435D01*
X151575500Y-91150565D01*
X151549910Y-91055062D01*
X151500475Y-90969438D01*
X151430562Y-90899525D01*
X151344938Y-90850090D01*
X151249435Y-90824500D01*
X151150565Y-90824500D01*
X151055062Y-90850090D01*
X151055060Y-90850091D01*
X151055059Y-90850091D01*
X150969436Y-90899526D01*
X150899526Y-90969436D01*
X150850091Y-91055059D01*
X150850091Y-91055060D01*
X150850090Y-91055062D01*
X150824500Y-91150565D01*
X145042494Y-91150565D01*
X145044938Y-91149910D01*
X145130562Y-91100475D01*
X145200475Y-91030562D01*
X145249910Y-90944938D01*
X145275500Y-90849435D01*
X145275500Y-90750565D01*
X145249910Y-90655062D01*
X145200475Y-90569438D01*
X145130562Y-90499525D01*
X145044938Y-90450090D01*
X144949435Y-90424500D01*
X144850565Y-90424500D01*
X144755062Y-90450090D01*
X144755060Y-90450091D01*
X144755059Y-90450091D01*
X144669436Y-90499526D01*
X144599526Y-90569436D01*
X144550091Y-90655059D01*
X144550091Y-90655060D01*
X144550090Y-90655062D01*
X144524500Y-90750565D01*
X124547190Y-90750565D01*
X124551158Y-90743692D01*
X124576748Y-90648189D01*
X124576748Y-90560679D01*
X124596433Y-90493640D01*
X124649237Y-90447885D01*
X124700748Y-90436679D01*
X124789432Y-90436679D01*
X124789435Y-90436679D01*
X124884938Y-90411089D01*
X124970562Y-90361654D01*
X125040475Y-90291741D01*
X125089910Y-90206117D01*
X125115500Y-90110614D01*
X125115500Y-90011744D01*
X125099107Y-89950565D01*
X145224500Y-89950565D01*
X145224500Y-90049435D01*
X145250090Y-90144938D01*
X145250091Y-90144939D01*
X145250091Y-90144940D01*
X145253339Y-90150565D01*
X145299525Y-90230562D01*
X145369438Y-90300475D01*
X145455062Y-90349910D01*
X145550565Y-90375500D01*
X145550567Y-90375500D01*
X145649432Y-90375500D01*
X145649435Y-90375500D01*
X145744938Y-90349910D01*
X145830562Y-90300475D01*
X145900475Y-90230562D01*
X145946661Y-90150565D01*
X148724500Y-90150565D01*
X148724500Y-90249435D01*
X148750090Y-90344938D01*
X148750091Y-90344939D01*
X148750091Y-90344940D01*
X148753065Y-90350091D01*
X148799525Y-90430562D01*
X148869438Y-90500475D01*
X148955062Y-90549910D01*
X149050565Y-90575500D01*
X149050567Y-90575500D01*
X149149432Y-90575500D01*
X149149435Y-90575500D01*
X149244938Y-90549910D01*
X149330562Y-90500475D01*
X149400475Y-90430562D01*
X149449910Y-90344938D01*
X149472596Y-90260272D01*
X149508958Y-90200616D01*
X149560271Y-90172596D01*
X149644938Y-90149910D01*
X149730562Y-90100475D01*
X149800475Y-90030562D01*
X149849910Y-89944938D01*
X149875500Y-89849435D01*
X149875500Y-89750565D01*
X149849910Y-89655062D01*
X149800475Y-89569438D01*
X149745313Y-89514276D01*
X152413479Y-89514276D01*
X152413479Y-89613146D01*
X152439069Y-89708649D01*
X152488504Y-89794273D01*
X152558417Y-89864186D01*
X152644041Y-89913621D01*
X152739544Y-89939211D01*
X152739546Y-89939211D01*
X152838411Y-89939211D01*
X152838414Y-89939211D01*
X152933917Y-89913621D01*
X153019541Y-89864186D01*
X153089454Y-89794273D01*
X153138889Y-89708649D01*
X153164479Y-89613146D01*
X153164479Y-89514276D01*
X153138889Y-89418773D01*
X153089454Y-89333149D01*
X153019541Y-89263236D01*
X152933917Y-89213801D01*
X152838414Y-89188211D01*
X152739544Y-89188211D01*
X152644041Y-89213801D01*
X152644039Y-89213802D01*
X152644038Y-89213802D01*
X152558415Y-89263237D01*
X152488505Y-89333147D01*
X152439070Y-89418770D01*
X152439070Y-89418771D01*
X152439069Y-89418773D01*
X152413479Y-89514276D01*
X149745313Y-89514276D01*
X149730562Y-89499525D01*
X149644938Y-89450090D01*
X149549435Y-89424500D01*
X149450565Y-89424500D01*
X149355062Y-89450090D01*
X149355060Y-89450091D01*
X149355059Y-89450091D01*
X149269436Y-89499526D01*
X149199526Y-89569436D01*
X149150091Y-89655059D01*
X149150090Y-89655060D01*
X149127405Y-89739724D01*
X149091039Y-89799384D01*
X149039724Y-89827404D01*
X149027938Y-89830563D01*
X148955060Y-89850090D01*
X148955059Y-89850091D01*
X148869436Y-89899526D01*
X148799526Y-89969436D01*
X148750091Y-90055059D01*
X148750091Y-90055060D01*
X148750090Y-90055062D01*
X148724500Y-90150565D01*
X145946661Y-90150565D01*
X145949910Y-90144938D01*
X145975500Y-90049435D01*
X145975500Y-89950565D01*
X145949910Y-89855062D01*
X145900475Y-89769438D01*
X145830562Y-89699525D01*
X145744938Y-89650090D01*
X145649435Y-89624500D01*
X145550565Y-89624500D01*
X145455062Y-89650090D01*
X145455060Y-89650091D01*
X145455059Y-89650091D01*
X145369436Y-89699526D01*
X145299526Y-89769436D01*
X145250091Y-89855059D01*
X145250091Y-89855060D01*
X145250090Y-89855062D01*
X145224500Y-89950565D01*
X125099107Y-89950565D01*
X125089910Y-89916241D01*
X125066062Y-89874935D01*
X125062619Y-89866070D01*
X125060432Y-89840359D01*
X125054347Y-89815278D01*
X125057410Y-89804843D01*
X125056697Y-89796451D01*
X125063845Y-89782929D01*
X125070819Y-89759179D01*
X125089910Y-89726114D01*
X125115500Y-89630611D01*
X125115500Y-89531741D01*
X125089910Y-89436238D01*
X125040475Y-89350614D01*
X125040426Y-89350565D01*
X128124500Y-89350565D01*
X128124500Y-89449435D01*
X128150090Y-89544938D01*
X128199525Y-89630562D01*
X128269438Y-89700475D01*
X128355062Y-89749910D01*
X128450565Y-89775500D01*
X128450567Y-89775500D01*
X128549432Y-89775500D01*
X128549435Y-89775500D01*
X128644938Y-89749910D01*
X128730562Y-89700475D01*
X128800475Y-89630562D01*
X128849910Y-89544938D01*
X128875500Y-89449435D01*
X128875500Y-89350565D01*
X128849910Y-89255062D01*
X128847314Y-89250565D01*
X146024500Y-89250565D01*
X146024500Y-89349435D01*
X146050090Y-89444938D01*
X146050091Y-89444939D01*
X146050091Y-89444940D01*
X146053065Y-89450091D01*
X146099525Y-89530562D01*
X146169438Y-89600475D01*
X146255062Y-89649910D01*
X146350565Y-89675500D01*
X146350567Y-89675500D01*
X146449432Y-89675500D01*
X146449435Y-89675500D01*
X146544938Y-89649910D01*
X146630562Y-89600475D01*
X146700475Y-89530562D01*
X146749910Y-89444938D01*
X146775500Y-89349435D01*
X146775500Y-89250565D01*
X146749910Y-89155062D01*
X146700475Y-89069438D01*
X146630562Y-88999525D01*
X146544938Y-88950090D01*
X146449435Y-88924500D01*
X146350565Y-88924500D01*
X146255062Y-88950090D01*
X146255060Y-88950091D01*
X146255059Y-88950091D01*
X146169436Y-88999526D01*
X146099526Y-89069436D01*
X146050091Y-89155059D01*
X146050091Y-89155060D01*
X146050090Y-89155062D01*
X146024500Y-89250565D01*
X128847314Y-89250565D01*
X128800475Y-89169438D01*
X128730562Y-89099525D01*
X128644938Y-89050090D01*
X128549435Y-89024500D01*
X128450565Y-89024500D01*
X128355062Y-89050090D01*
X128355060Y-89050091D01*
X128355059Y-89050091D01*
X128269436Y-89099526D01*
X128199526Y-89169436D01*
X128150091Y-89255059D01*
X128150091Y-89255060D01*
X128150090Y-89255062D01*
X128124500Y-89350565D01*
X125040426Y-89350565D01*
X124970562Y-89280701D01*
X124884938Y-89231266D01*
X124789435Y-89205676D01*
X124690565Y-89205676D01*
X124595062Y-89231266D01*
X124595060Y-89231267D01*
X124595059Y-89231267D01*
X124509436Y-89280702D01*
X124439526Y-89350612D01*
X124390091Y-89436235D01*
X124390091Y-89436236D01*
X124390090Y-89436238D01*
X124364500Y-89531741D01*
X124364500Y-89630611D01*
X124390090Y-89726114D01*
X124390091Y-89726115D01*
X124390091Y-89726116D01*
X124409179Y-89759177D01*
X124425652Y-89827077D01*
X124409180Y-89883176D01*
X124390090Y-89916240D01*
X124390090Y-89916241D01*
X124364500Y-90011744D01*
X124364500Y-90011746D01*
X124364500Y-90099254D01*
X124344815Y-90166293D01*
X124292011Y-90212048D01*
X124240500Y-90223254D01*
X124151813Y-90223254D01*
X124056310Y-90248844D01*
X124056308Y-90248845D01*
X124056307Y-90248845D01*
X123970684Y-90298280D01*
X123900774Y-90368190D01*
X123851339Y-90453813D01*
X123851339Y-90453814D01*
X123851338Y-90453816D01*
X123825748Y-90549319D01*
X120946594Y-90549319D01*
X120900475Y-90469438D01*
X120900109Y-90469072D01*
X120897447Y-90463728D01*
X120891953Y-90432936D01*
X120886761Y-90411536D01*
X120868093Y-90413319D01*
X120829562Y-90398947D01*
X120744938Y-90350090D01*
X120649435Y-90324500D01*
X120550565Y-90324500D01*
X120455062Y-90350090D01*
X120455060Y-90350091D01*
X120455059Y-90350091D01*
X120369436Y-90399526D01*
X120299526Y-90469436D01*
X120250091Y-90555059D01*
X120250091Y-90555060D01*
X120250090Y-90555062D01*
X120224500Y-90650565D01*
X108075500Y-90650565D01*
X108049910Y-90555062D01*
X108000475Y-90469438D01*
X107930562Y-90399525D01*
X107844938Y-90350090D01*
X107749435Y-90324500D01*
X107650565Y-90324500D01*
X107555062Y-90350090D01*
X107555060Y-90350091D01*
X107555059Y-90350091D01*
X107469436Y-90399526D01*
X107399526Y-90469436D01*
X107350091Y-90555059D01*
X107350091Y-90555060D01*
X107350090Y-90555062D01*
X107324500Y-90650565D01*
X55500500Y-90650565D01*
X55500500Y-89550565D01*
X90224500Y-89550565D01*
X90224500Y-89649435D01*
X90250090Y-89744938D01*
X90250091Y-89744939D01*
X90250091Y-89744940D01*
X90253339Y-89750565D01*
X90299525Y-89830562D01*
X90369438Y-89900475D01*
X90455062Y-89949910D01*
X90550565Y-89975500D01*
X90550567Y-89975500D01*
X90649432Y-89975500D01*
X90649435Y-89975500D01*
X90742494Y-89950565D01*
X120924500Y-89950565D01*
X120924500Y-90049435D01*
X120950090Y-90144938D01*
X120950091Y-90144939D01*
X120950091Y-90144940D01*
X120953339Y-90150565D01*
X120998947Y-90229561D01*
X121013237Y-90288462D01*
X121031905Y-90286680D01*
X121036630Y-90288442D01*
X121039339Y-90288351D01*
X121044278Y-90291294D01*
X121070432Y-90301049D01*
X121155062Y-90349910D01*
X121250565Y-90375500D01*
X121250567Y-90375500D01*
X121349432Y-90375500D01*
X121349435Y-90375500D01*
X121444938Y-90349910D01*
X121530562Y-90300475D01*
X121600475Y-90230562D01*
X121649910Y-90144938D01*
X121675500Y-90049435D01*
X121675500Y-89950565D01*
X121649910Y-89855062D01*
X121600475Y-89769438D01*
X121530562Y-89699525D01*
X121444938Y-89650090D01*
X121349435Y-89624500D01*
X121250565Y-89624500D01*
X121155062Y-89650090D01*
X121155060Y-89650091D01*
X121155059Y-89650091D01*
X121069436Y-89699526D01*
X120999526Y-89769436D01*
X120950091Y-89855059D01*
X120950091Y-89855060D01*
X120950090Y-89855062D01*
X120924500Y-89950565D01*
X90742494Y-89950565D01*
X90744938Y-89949910D01*
X90830562Y-89900475D01*
X90900475Y-89830562D01*
X90949910Y-89744938D01*
X90975500Y-89649435D01*
X90975500Y-89550565D01*
X90949910Y-89455062D01*
X90900475Y-89369438D01*
X90830562Y-89299525D01*
X90745761Y-89250565D01*
X121624500Y-89250565D01*
X121624500Y-89349435D01*
X121650090Y-89444938D01*
X121650091Y-89444939D01*
X121650091Y-89444940D01*
X121653065Y-89450091D01*
X121699525Y-89530562D01*
X121769438Y-89600475D01*
X121855062Y-89649910D01*
X121950565Y-89675500D01*
X121950567Y-89675500D01*
X122049432Y-89675500D01*
X122049435Y-89675500D01*
X122144938Y-89649910D01*
X122230562Y-89600475D01*
X122300475Y-89530562D01*
X122349910Y-89444938D01*
X122375500Y-89349435D01*
X122375500Y-89250565D01*
X122349910Y-89155062D01*
X122300475Y-89069438D01*
X122230562Y-88999525D01*
X122144938Y-88950090D01*
X122049435Y-88924500D01*
X121950565Y-88924500D01*
X121855062Y-88950090D01*
X121855060Y-88950091D01*
X121855059Y-88950091D01*
X121769436Y-88999526D01*
X121699526Y-89069436D01*
X121650091Y-89155059D01*
X121650091Y-89155060D01*
X121650090Y-89155062D01*
X121624500Y-89250565D01*
X90745761Y-89250565D01*
X90744938Y-89250090D01*
X90649435Y-89224500D01*
X90550565Y-89224500D01*
X90455062Y-89250090D01*
X90455060Y-89250091D01*
X90455059Y-89250091D01*
X90369436Y-89299526D01*
X90299526Y-89369436D01*
X90250091Y-89455059D01*
X90250091Y-89455060D01*
X90250090Y-89455062D01*
X90224500Y-89550565D01*
X55500500Y-89550565D01*
X55500500Y-88350565D01*
X90124500Y-88350565D01*
X90124500Y-88449435D01*
X90150090Y-88544938D01*
X90150091Y-88544939D01*
X90150091Y-88544940D01*
X90152686Y-88549435D01*
X90199525Y-88630562D01*
X90269438Y-88700475D01*
X90355062Y-88749910D01*
X90450565Y-88775500D01*
X90450567Y-88775500D01*
X90549432Y-88775500D01*
X90549435Y-88775500D01*
X90644938Y-88749910D01*
X90730562Y-88700475D01*
X90800475Y-88630562D01*
X90846661Y-88550565D01*
X122324500Y-88550565D01*
X122324500Y-88649435D01*
X122350090Y-88744938D01*
X122350091Y-88744939D01*
X122350091Y-88744940D01*
X122367735Y-88775500D01*
X122399525Y-88830562D01*
X122469438Y-88900475D01*
X122555062Y-88949910D01*
X122650565Y-88975500D01*
X122650567Y-88975500D01*
X122749432Y-88975500D01*
X122749435Y-88975500D01*
X122844938Y-88949910D01*
X122930562Y-88900475D01*
X123000475Y-88830562D01*
X123049910Y-88744938D01*
X123075500Y-88649435D01*
X123075500Y-88550565D01*
X123049910Y-88455062D01*
X123047314Y-88450565D01*
X146724500Y-88450565D01*
X146724500Y-88549435D01*
X146750090Y-88644938D01*
X146750091Y-88644939D01*
X146750091Y-88644940D01*
X146752686Y-88649435D01*
X146799525Y-88730562D01*
X146869438Y-88800475D01*
X146955062Y-88849910D01*
X147050565Y-88875500D01*
X147050567Y-88875500D01*
X147149432Y-88875500D01*
X147149435Y-88875500D01*
X147244938Y-88849910D01*
X147330562Y-88800475D01*
X147400475Y-88730562D01*
X147449910Y-88644938D01*
X147475500Y-88549435D01*
X147475500Y-88450565D01*
X147449910Y-88355062D01*
X147400475Y-88269438D01*
X147330562Y-88199525D01*
X147244938Y-88150090D01*
X147149435Y-88124500D01*
X147050565Y-88124500D01*
X146955062Y-88150090D01*
X146955060Y-88150091D01*
X146955059Y-88150091D01*
X146869436Y-88199526D01*
X146799526Y-88269436D01*
X146750091Y-88355059D01*
X146750091Y-88355060D01*
X146750090Y-88355062D01*
X146724500Y-88450565D01*
X123047314Y-88450565D01*
X123000475Y-88369438D01*
X122930562Y-88299525D01*
X122844938Y-88250090D01*
X122749435Y-88224500D01*
X122650565Y-88224500D01*
X122555062Y-88250090D01*
X122555060Y-88250091D01*
X122555059Y-88250091D01*
X122469436Y-88299526D01*
X122399526Y-88369436D01*
X122350091Y-88455059D01*
X122350091Y-88455060D01*
X122350090Y-88455062D01*
X122324500Y-88550565D01*
X90846661Y-88550565D01*
X90849910Y-88544938D01*
X90875500Y-88449435D01*
X90875500Y-88350565D01*
X90849910Y-88255062D01*
X90800475Y-88169438D01*
X90730562Y-88099525D01*
X90644938Y-88050090D01*
X90549435Y-88024500D01*
X90450565Y-88024500D01*
X90355062Y-88050090D01*
X90355060Y-88050091D01*
X90355059Y-88050091D01*
X90269436Y-88099526D01*
X90199526Y-88169436D01*
X90150091Y-88255059D01*
X90150091Y-88255060D01*
X90150090Y-88255062D01*
X90124500Y-88350565D01*
X55500500Y-88350565D01*
X55500500Y-87950565D01*
X102824500Y-87950565D01*
X102824500Y-88049435D01*
X102850090Y-88144938D01*
X102850091Y-88144939D01*
X102850091Y-88144940D01*
X102853065Y-88150091D01*
X102899525Y-88230562D01*
X102969438Y-88300475D01*
X103055062Y-88349910D01*
X103150565Y-88375500D01*
X103150567Y-88375500D01*
X103249432Y-88375500D01*
X103249435Y-88375500D01*
X103344938Y-88349910D01*
X103430562Y-88300475D01*
X103500475Y-88230562D01*
X103549910Y-88144938D01*
X103575500Y-88049435D01*
X103575500Y-87950565D01*
X103549910Y-87855062D01*
X103500475Y-87769438D01*
X103430562Y-87699525D01*
X103344938Y-87650090D01*
X103249435Y-87624500D01*
X103150565Y-87624500D01*
X103055062Y-87650090D01*
X103055060Y-87650091D01*
X103055059Y-87650091D01*
X102969436Y-87699526D01*
X102899526Y-87769436D01*
X102850091Y-87855059D01*
X102850091Y-87855060D01*
X102850090Y-87855062D01*
X102824500Y-87950565D01*
X55500500Y-87950565D01*
X55500500Y-87250565D01*
X91224500Y-87250565D01*
X91224500Y-87349435D01*
X91250090Y-87444938D01*
X91299525Y-87530562D01*
X91369438Y-87600475D01*
X91455062Y-87649910D01*
X91550565Y-87675500D01*
X91550567Y-87675500D01*
X91649432Y-87675500D01*
X91649435Y-87675500D01*
X91744938Y-87649910D01*
X91830562Y-87600475D01*
X91900475Y-87530562D01*
X91949910Y-87444938D01*
X91975500Y-87349435D01*
X91975500Y-87250565D01*
X91949910Y-87155062D01*
X91900475Y-87069438D01*
X91830562Y-86999525D01*
X91744938Y-86950090D01*
X91649435Y-86924500D01*
X91550565Y-86924500D01*
X91455062Y-86950090D01*
X91455060Y-86950091D01*
X91455059Y-86950091D01*
X91369436Y-86999526D01*
X91299526Y-87069436D01*
X91250091Y-87155059D01*
X91250091Y-87155060D01*
X91250090Y-87155062D01*
X91224500Y-87250565D01*
X55500500Y-87250565D01*
X55500500Y-85450565D01*
X57024500Y-85450565D01*
X57024500Y-85549435D01*
X57050090Y-85644938D01*
X57050091Y-85644939D01*
X57050091Y-85644940D01*
X57063337Y-85667882D01*
X57099525Y-85730562D01*
X57169438Y-85800475D01*
X57255062Y-85849910D01*
X57350565Y-85875500D01*
X57350567Y-85875500D01*
X57449432Y-85875500D01*
X57449435Y-85875500D01*
X57544938Y-85849910D01*
X57630562Y-85800475D01*
X57700475Y-85730562D01*
X57749910Y-85644938D01*
X57775500Y-85549435D01*
X57775500Y-85450565D01*
X57749910Y-85355062D01*
X57700475Y-85269438D01*
X57630562Y-85199525D01*
X57545761Y-85150565D01*
X115324500Y-85150565D01*
X115324500Y-85249435D01*
X115350090Y-85344938D01*
X115350091Y-85344939D01*
X115350091Y-85344940D01*
X115352686Y-85349435D01*
X115399525Y-85430562D01*
X115469438Y-85500475D01*
X115555062Y-85549910D01*
X115650565Y-85575500D01*
X115650567Y-85575500D01*
X115749432Y-85575500D01*
X115749435Y-85575500D01*
X115844938Y-85549910D01*
X115930562Y-85500475D01*
X116000475Y-85430562D01*
X116049910Y-85344938D01*
X116075500Y-85249435D01*
X116075500Y-85150565D01*
X117224500Y-85150565D01*
X117224500Y-85249435D01*
X117250090Y-85344938D01*
X117250091Y-85344939D01*
X117250091Y-85344940D01*
X117252686Y-85349435D01*
X117299525Y-85430562D01*
X117369438Y-85500475D01*
X117455062Y-85549910D01*
X117550565Y-85575500D01*
X117550567Y-85575500D01*
X117649432Y-85575500D01*
X117649435Y-85575500D01*
X117744938Y-85549910D01*
X117830562Y-85500475D01*
X117900475Y-85430562D01*
X117949910Y-85344938D01*
X117975500Y-85249435D01*
X117975500Y-85150565D01*
X121024500Y-85150565D01*
X121024500Y-85249435D01*
X121050090Y-85344938D01*
X121050091Y-85344939D01*
X121050091Y-85344940D01*
X121052686Y-85349435D01*
X121099525Y-85430562D01*
X121169438Y-85500475D01*
X121255062Y-85549910D01*
X121350565Y-85575500D01*
X121350567Y-85575500D01*
X121449432Y-85575500D01*
X121449435Y-85575500D01*
X121544938Y-85549910D01*
X121630562Y-85500475D01*
X121700475Y-85430562D01*
X121749910Y-85344938D01*
X121775500Y-85249435D01*
X121775500Y-85150565D01*
X122924500Y-85150565D01*
X122924500Y-85249435D01*
X122950090Y-85344938D01*
X122950091Y-85344939D01*
X122950091Y-85344940D01*
X122952686Y-85349435D01*
X122999525Y-85430562D01*
X123069438Y-85500475D01*
X123155062Y-85549910D01*
X123250565Y-85575500D01*
X123250567Y-85575500D01*
X123349432Y-85575500D01*
X123349435Y-85575500D01*
X123444938Y-85549910D01*
X123530562Y-85500475D01*
X123600475Y-85430562D01*
X123649910Y-85344938D01*
X123675197Y-85250565D01*
X126724500Y-85250565D01*
X126724500Y-85349435D01*
X126750090Y-85444938D01*
X126799525Y-85530562D01*
X126869438Y-85600475D01*
X126955062Y-85649910D01*
X127050565Y-85675500D01*
X127050567Y-85675500D01*
X127149432Y-85675500D01*
X127149435Y-85675500D01*
X127244938Y-85649910D01*
X127330562Y-85600475D01*
X127400475Y-85530562D01*
X127449910Y-85444938D01*
X127475500Y-85349435D01*
X127475500Y-85250565D01*
X127449910Y-85155062D01*
X127447314Y-85150565D01*
X128624500Y-85150565D01*
X128624500Y-85249435D01*
X128650090Y-85344938D01*
X128650091Y-85344939D01*
X128650091Y-85344940D01*
X128652686Y-85349435D01*
X128699525Y-85430562D01*
X128769438Y-85500475D01*
X128855062Y-85549910D01*
X128950565Y-85575500D01*
X128950567Y-85575500D01*
X129049432Y-85575500D01*
X129049435Y-85575500D01*
X129144938Y-85549910D01*
X129230562Y-85500475D01*
X129300475Y-85430562D01*
X129349910Y-85344938D01*
X129375500Y-85249435D01*
X129375500Y-85150565D01*
X132424500Y-85150565D01*
X132424500Y-85249435D01*
X132450090Y-85344938D01*
X132450091Y-85344939D01*
X132450091Y-85344940D01*
X132452686Y-85349435D01*
X132499525Y-85430562D01*
X132569438Y-85500475D01*
X132655062Y-85549910D01*
X132750565Y-85575500D01*
X132750567Y-85575500D01*
X132849432Y-85575500D01*
X132849435Y-85575500D01*
X132944938Y-85549910D01*
X133030562Y-85500475D01*
X133100475Y-85430562D01*
X133149910Y-85344938D01*
X133175500Y-85249435D01*
X133175500Y-85150565D01*
X134324500Y-85150565D01*
X134324500Y-85249435D01*
X134350090Y-85344938D01*
X134350091Y-85344939D01*
X134350091Y-85344940D01*
X134352686Y-85349435D01*
X134399525Y-85430562D01*
X134469438Y-85500475D01*
X134555062Y-85549910D01*
X134650565Y-85575500D01*
X134650567Y-85575500D01*
X134749432Y-85575500D01*
X134749435Y-85575500D01*
X134844938Y-85549910D01*
X134930562Y-85500475D01*
X135000475Y-85430562D01*
X135049910Y-85344938D01*
X135075500Y-85249435D01*
X135075500Y-85150565D01*
X138324500Y-85150565D01*
X138324500Y-85249435D01*
X138350090Y-85344938D01*
X138350091Y-85344939D01*
X138350091Y-85344940D01*
X138352686Y-85349435D01*
X138399525Y-85430562D01*
X138469438Y-85500475D01*
X138555062Y-85549910D01*
X138650565Y-85575500D01*
X138650567Y-85575500D01*
X138749432Y-85575500D01*
X138749435Y-85575500D01*
X138844938Y-85549910D01*
X138930562Y-85500475D01*
X139000475Y-85430562D01*
X139049910Y-85344938D01*
X139075500Y-85249435D01*
X139075500Y-85150565D01*
X140224500Y-85150565D01*
X140224500Y-85249435D01*
X140250090Y-85344938D01*
X140250091Y-85344939D01*
X140250091Y-85344940D01*
X140252686Y-85349435D01*
X140299525Y-85430562D01*
X140369438Y-85500475D01*
X140455062Y-85549910D01*
X140550565Y-85575500D01*
X140550567Y-85575500D01*
X140649432Y-85575500D01*
X140649435Y-85575500D01*
X140744938Y-85549910D01*
X140830562Y-85500475D01*
X140900475Y-85430562D01*
X140949910Y-85344938D01*
X140975500Y-85249435D01*
X140975500Y-85150565D01*
X144024500Y-85150565D01*
X144024500Y-85249435D01*
X144050090Y-85344938D01*
X144050091Y-85344939D01*
X144050091Y-85344940D01*
X144052686Y-85349435D01*
X144099525Y-85430562D01*
X144169438Y-85500475D01*
X144255062Y-85549910D01*
X144350565Y-85575500D01*
X144350567Y-85575500D01*
X144449432Y-85575500D01*
X144449435Y-85575500D01*
X144544938Y-85549910D01*
X144630562Y-85500475D01*
X144700475Y-85430562D01*
X144749910Y-85344938D01*
X144775500Y-85249435D01*
X144775500Y-85150565D01*
X145924500Y-85150565D01*
X145924500Y-85249435D01*
X145950090Y-85344938D01*
X145950091Y-85344939D01*
X145950091Y-85344940D01*
X145952686Y-85349435D01*
X145999525Y-85430562D01*
X146069438Y-85500475D01*
X146155062Y-85549910D01*
X146250565Y-85575500D01*
X146250567Y-85575500D01*
X146349432Y-85575500D01*
X146349435Y-85575500D01*
X146444938Y-85549910D01*
X146530562Y-85500475D01*
X146600475Y-85430562D01*
X146649910Y-85344938D01*
X146675197Y-85250565D01*
X149924500Y-85250565D01*
X149924500Y-85349435D01*
X149950090Y-85444938D01*
X149999525Y-85530562D01*
X150069438Y-85600475D01*
X150155062Y-85649910D01*
X150250565Y-85675500D01*
X150250567Y-85675500D01*
X150349432Y-85675500D01*
X150349435Y-85675500D01*
X150444938Y-85649910D01*
X150530562Y-85600475D01*
X150600475Y-85530562D01*
X150649910Y-85444938D01*
X150675500Y-85349435D01*
X150675500Y-85250565D01*
X150649910Y-85155062D01*
X150647314Y-85150565D01*
X151924500Y-85150565D01*
X151924500Y-85249435D01*
X151950090Y-85344938D01*
X151950091Y-85344939D01*
X151950091Y-85344940D01*
X151952686Y-85349435D01*
X151999525Y-85430562D01*
X152069438Y-85500475D01*
X152155062Y-85549910D01*
X152250565Y-85575500D01*
X152250567Y-85575500D01*
X152349432Y-85575500D01*
X152349435Y-85575500D01*
X152444938Y-85549910D01*
X152530562Y-85500475D01*
X152600475Y-85430562D01*
X152649910Y-85344938D01*
X152675500Y-85249435D01*
X152675500Y-85150565D01*
X155724500Y-85150565D01*
X155724500Y-85249435D01*
X155750090Y-85344938D01*
X155750091Y-85344939D01*
X155750091Y-85344940D01*
X155752686Y-85349435D01*
X155799525Y-85430562D01*
X155869438Y-85500475D01*
X155955062Y-85549910D01*
X156050565Y-85575500D01*
X156050567Y-85575500D01*
X156149432Y-85575500D01*
X156149435Y-85575500D01*
X156244938Y-85549910D01*
X156330562Y-85500475D01*
X156400475Y-85430562D01*
X156449910Y-85344938D01*
X156475500Y-85249435D01*
X156475500Y-85150565D01*
X157624500Y-85150565D01*
X157624500Y-85249435D01*
X157650090Y-85344938D01*
X157650091Y-85344939D01*
X157650091Y-85344940D01*
X157652686Y-85349435D01*
X157699525Y-85430562D01*
X157769438Y-85500475D01*
X157855062Y-85549910D01*
X157950565Y-85575500D01*
X157950567Y-85575500D01*
X158049432Y-85575500D01*
X158049435Y-85575500D01*
X158144938Y-85549910D01*
X158230562Y-85500475D01*
X158300475Y-85430562D01*
X158349910Y-85344938D01*
X158375500Y-85249435D01*
X158375500Y-85150565D01*
X158349910Y-85055062D01*
X158300475Y-84969438D01*
X158230562Y-84899525D01*
X158144938Y-84850090D01*
X158049435Y-84824500D01*
X157950565Y-84824500D01*
X157855062Y-84850090D01*
X157855060Y-84850091D01*
X157855059Y-84850091D01*
X157769436Y-84899526D01*
X157699526Y-84969436D01*
X157650091Y-85055059D01*
X157650091Y-85055060D01*
X157650090Y-85055062D01*
X157624500Y-85150565D01*
X156475500Y-85150565D01*
X156449910Y-85055062D01*
X156400475Y-84969438D01*
X156330562Y-84899525D01*
X156244938Y-84850090D01*
X156149435Y-84824500D01*
X156050565Y-84824500D01*
X155955062Y-84850090D01*
X155955060Y-84850091D01*
X155955059Y-84850091D01*
X155869436Y-84899526D01*
X155799526Y-84969436D01*
X155750091Y-85055059D01*
X155750091Y-85055060D01*
X155750090Y-85055062D01*
X155724500Y-85150565D01*
X152675500Y-85150565D01*
X152649910Y-85055062D01*
X152600475Y-84969438D01*
X152530562Y-84899525D01*
X152444938Y-84850090D01*
X152349435Y-84824500D01*
X152250565Y-84824500D01*
X152155062Y-84850090D01*
X152155060Y-84850091D01*
X152155059Y-84850091D01*
X152069436Y-84899526D01*
X151999526Y-84969436D01*
X151950091Y-85055059D01*
X151950091Y-85055060D01*
X151950090Y-85055062D01*
X151924500Y-85150565D01*
X150647314Y-85150565D01*
X150600475Y-85069438D01*
X150530562Y-84999525D01*
X150444938Y-84950090D01*
X150349435Y-84924500D01*
X150250565Y-84924500D01*
X150155062Y-84950090D01*
X150155060Y-84950091D01*
X150155059Y-84950091D01*
X150069436Y-84999526D01*
X149999526Y-85069436D01*
X149950091Y-85155059D01*
X149950091Y-85155060D01*
X149950090Y-85155062D01*
X149924500Y-85250565D01*
X146675197Y-85250565D01*
X146675500Y-85249435D01*
X146675500Y-85150565D01*
X146649910Y-85055062D01*
X146600475Y-84969438D01*
X146530562Y-84899525D01*
X146444938Y-84850090D01*
X146349435Y-84824500D01*
X146250565Y-84824500D01*
X146155062Y-84850090D01*
X146155060Y-84850091D01*
X146155059Y-84850091D01*
X146069436Y-84899526D01*
X145999526Y-84969436D01*
X145950091Y-85055059D01*
X145950091Y-85055060D01*
X145950090Y-85055062D01*
X145924500Y-85150565D01*
X144775500Y-85150565D01*
X144749910Y-85055062D01*
X144700475Y-84969438D01*
X144630562Y-84899525D01*
X144544938Y-84850090D01*
X144449435Y-84824500D01*
X144350565Y-84824500D01*
X144255062Y-84850090D01*
X144255060Y-84850091D01*
X144255059Y-84850091D01*
X144169436Y-84899526D01*
X144099526Y-84969436D01*
X144050091Y-85055059D01*
X144050091Y-85055060D01*
X144050090Y-85055062D01*
X144024500Y-85150565D01*
X140975500Y-85150565D01*
X140949910Y-85055062D01*
X140900475Y-84969438D01*
X140830562Y-84899525D01*
X140744938Y-84850090D01*
X140649435Y-84824500D01*
X140550565Y-84824500D01*
X140455062Y-84850090D01*
X140455060Y-84850091D01*
X140455059Y-84850091D01*
X140369436Y-84899526D01*
X140299526Y-84969436D01*
X140250091Y-85055059D01*
X140250091Y-85055060D01*
X140250090Y-85055062D01*
X140224500Y-85150565D01*
X139075500Y-85150565D01*
X139049910Y-85055062D01*
X139000475Y-84969438D01*
X138930562Y-84899525D01*
X138844938Y-84850090D01*
X138749435Y-84824500D01*
X138650565Y-84824500D01*
X138555062Y-84850090D01*
X138555060Y-84850091D01*
X138555059Y-84850091D01*
X138469436Y-84899526D01*
X138399526Y-84969436D01*
X138350091Y-85055059D01*
X138350091Y-85055060D01*
X138350090Y-85055062D01*
X138324500Y-85150565D01*
X135075500Y-85150565D01*
X135049910Y-85055062D01*
X135000475Y-84969438D01*
X134930562Y-84899525D01*
X134844938Y-84850090D01*
X134749435Y-84824500D01*
X134650565Y-84824500D01*
X134555062Y-84850090D01*
X134555060Y-84850091D01*
X134555059Y-84850091D01*
X134469436Y-84899526D01*
X134399526Y-84969436D01*
X134350091Y-85055059D01*
X134350091Y-85055060D01*
X134350090Y-85055062D01*
X134324500Y-85150565D01*
X133175500Y-85150565D01*
X133149910Y-85055062D01*
X133100475Y-84969438D01*
X133030562Y-84899525D01*
X132944938Y-84850090D01*
X132849435Y-84824500D01*
X132750565Y-84824500D01*
X132655062Y-84850090D01*
X132655060Y-84850091D01*
X132655059Y-84850091D01*
X132569436Y-84899526D01*
X132499526Y-84969436D01*
X132450091Y-85055059D01*
X132450091Y-85055060D01*
X132450090Y-85055062D01*
X132424500Y-85150565D01*
X129375500Y-85150565D01*
X129349910Y-85055062D01*
X129300475Y-84969438D01*
X129230562Y-84899525D01*
X129144938Y-84850090D01*
X129049435Y-84824500D01*
X128950565Y-84824500D01*
X128855062Y-84850090D01*
X128855060Y-84850091D01*
X128855059Y-84850091D01*
X128769436Y-84899526D01*
X128699526Y-84969436D01*
X128650091Y-85055059D01*
X128650091Y-85055060D01*
X128650090Y-85055062D01*
X128624500Y-85150565D01*
X127447314Y-85150565D01*
X127400475Y-85069438D01*
X127330562Y-84999525D01*
X127244938Y-84950090D01*
X127149435Y-84924500D01*
X127050565Y-84924500D01*
X126955062Y-84950090D01*
X126955060Y-84950091D01*
X126955059Y-84950091D01*
X126869436Y-84999526D01*
X126799526Y-85069436D01*
X126750091Y-85155059D01*
X126750091Y-85155060D01*
X126750090Y-85155062D01*
X126724500Y-85250565D01*
X123675197Y-85250565D01*
X123675500Y-85249435D01*
X123675500Y-85150565D01*
X123649910Y-85055062D01*
X123600475Y-84969438D01*
X123530562Y-84899525D01*
X123444938Y-84850090D01*
X123349435Y-84824500D01*
X123250565Y-84824500D01*
X123155062Y-84850090D01*
X123155060Y-84850091D01*
X123155059Y-84850091D01*
X123069436Y-84899526D01*
X122999526Y-84969436D01*
X122950091Y-85055059D01*
X122950091Y-85055060D01*
X122950090Y-85055062D01*
X122924500Y-85150565D01*
X121775500Y-85150565D01*
X121749910Y-85055062D01*
X121700475Y-84969438D01*
X121630562Y-84899525D01*
X121544938Y-84850090D01*
X121449435Y-84824500D01*
X121350565Y-84824500D01*
X121255062Y-84850090D01*
X121255060Y-84850091D01*
X121255059Y-84850091D01*
X121169436Y-84899526D01*
X121099526Y-84969436D01*
X121050091Y-85055059D01*
X121050091Y-85055060D01*
X121050090Y-85055062D01*
X121024500Y-85150565D01*
X117975500Y-85150565D01*
X117949910Y-85055062D01*
X117900475Y-84969438D01*
X117830562Y-84899525D01*
X117744938Y-84850090D01*
X117649435Y-84824500D01*
X117550565Y-84824500D01*
X117455062Y-84850090D01*
X117455060Y-84850091D01*
X117455059Y-84850091D01*
X117369436Y-84899526D01*
X117299526Y-84969436D01*
X117250091Y-85055059D01*
X117250091Y-85055060D01*
X117250090Y-85055062D01*
X117224500Y-85150565D01*
X116075500Y-85150565D01*
X116049910Y-85055062D01*
X116000475Y-84969438D01*
X115930562Y-84899525D01*
X115844938Y-84850090D01*
X115749435Y-84824500D01*
X115650565Y-84824500D01*
X115555062Y-84850090D01*
X115555060Y-84850091D01*
X115555059Y-84850091D01*
X115469436Y-84899526D01*
X115399526Y-84969436D01*
X115350091Y-85055059D01*
X115350091Y-85055060D01*
X115350090Y-85055062D01*
X115324500Y-85150565D01*
X57545761Y-85150565D01*
X57544938Y-85150090D01*
X57449435Y-85124500D01*
X57350565Y-85124500D01*
X57255062Y-85150090D01*
X57255060Y-85150091D01*
X57255059Y-85150091D01*
X57169436Y-85199526D01*
X57099526Y-85269436D01*
X57050091Y-85355059D01*
X57050091Y-85355060D01*
X57050090Y-85355062D01*
X57024500Y-85450565D01*
X55500500Y-85450565D01*
X55500500Y-84250565D01*
X86124500Y-84250565D01*
X86124500Y-84349435D01*
X86150090Y-84444938D01*
X86199525Y-84530562D01*
X86269438Y-84600475D01*
X86355062Y-84649910D01*
X86450565Y-84675500D01*
X86450567Y-84675500D01*
X86549432Y-84675500D01*
X86549435Y-84675500D01*
X86644938Y-84649910D01*
X86730562Y-84600475D01*
X86800475Y-84530562D01*
X86849910Y-84444938D01*
X86875500Y-84349435D01*
X86875500Y-84250565D01*
X86849910Y-84155062D01*
X86800475Y-84069438D01*
X86730562Y-83999525D01*
X86644938Y-83950090D01*
X86549435Y-83924500D01*
X86450565Y-83924500D01*
X86355062Y-83950090D01*
X86355060Y-83950091D01*
X86355059Y-83950091D01*
X86269436Y-83999526D01*
X86199526Y-84069436D01*
X86150091Y-84155059D01*
X86150091Y-84155060D01*
X86150090Y-84155062D01*
X86124500Y-84250565D01*
X55500500Y-84250565D01*
X55500500Y-83389941D01*
X86763876Y-83389941D01*
X86763876Y-83488811D01*
X86789466Y-83584314D01*
X86838901Y-83669938D01*
X86908814Y-83739851D01*
X86994438Y-83789286D01*
X87089941Y-83814876D01*
X87089943Y-83814876D01*
X87188808Y-83814876D01*
X87188811Y-83814876D01*
X87284314Y-83789286D01*
X87369938Y-83739851D01*
X87439851Y-83669938D01*
X87489286Y-83584314D01*
X87514876Y-83488811D01*
X87514876Y-83389941D01*
X87489286Y-83294438D01*
X87439851Y-83208814D01*
X87369938Y-83138901D01*
X87284314Y-83089466D01*
X87188811Y-83063876D01*
X87089941Y-83063876D01*
X86994438Y-83089466D01*
X86994436Y-83089467D01*
X86994435Y-83089467D01*
X86908812Y-83138902D01*
X86838902Y-83208812D01*
X86789467Y-83294435D01*
X86789467Y-83294436D01*
X86789466Y-83294438D01*
X86763876Y-83389941D01*
X55500500Y-83389941D01*
X55500500Y-82581937D01*
X84593128Y-82581937D01*
X84593128Y-82680807D01*
X84618718Y-82776310D01*
X84668153Y-82861934D01*
X84738066Y-82931847D01*
X84823690Y-82981282D01*
X84919193Y-83006872D01*
X84919195Y-83006872D01*
X85018060Y-83006872D01*
X85018063Y-83006872D01*
X85113566Y-82981282D01*
X85199190Y-82931847D01*
X85269103Y-82861934D01*
X85318538Y-82776310D01*
X85344128Y-82680807D01*
X85344128Y-82581937D01*
X85330638Y-82531591D01*
X85332301Y-82461744D01*
X85371463Y-82403881D01*
X85435692Y-82376377D01*
X85450413Y-82375500D01*
X85549432Y-82375500D01*
X85549435Y-82375500D01*
X85644938Y-82349910D01*
X85730562Y-82300475D01*
X85800475Y-82230562D01*
X85849910Y-82144938D01*
X85875500Y-82049435D01*
X85875500Y-81950565D01*
X85849910Y-81855062D01*
X85800475Y-81769438D01*
X85730562Y-81699525D01*
X85644938Y-81650090D01*
X85549435Y-81624500D01*
X85450565Y-81624500D01*
X85355062Y-81650090D01*
X85355060Y-81650091D01*
X85355059Y-81650091D01*
X85269436Y-81699526D01*
X85199526Y-81769436D01*
X85150091Y-81855059D01*
X85150091Y-81855060D01*
X85150090Y-81855062D01*
X85124500Y-81950565D01*
X85124500Y-81950567D01*
X85124500Y-82049434D01*
X85137990Y-82099779D01*
X85136327Y-82169628D01*
X85097165Y-82227491D01*
X85032936Y-82254995D01*
X85018215Y-82255872D01*
X85018063Y-82255872D01*
X84919193Y-82255872D01*
X84823690Y-82281462D01*
X84823688Y-82281463D01*
X84823687Y-82281463D01*
X84738064Y-82330898D01*
X84668154Y-82400808D01*
X84618719Y-82486431D01*
X84618719Y-82486432D01*
X84618718Y-82486434D01*
X84593128Y-82581937D01*
X55500500Y-82581937D01*
X55500500Y-81070000D01*
X56301196Y-81070000D01*
X57140382Y-81070000D01*
X57089936Y-81120446D01*
X57047149Y-81194555D01*
X57025000Y-81277213D01*
X57025000Y-81362787D01*
X57047149Y-81445445D01*
X57089936Y-81519554D01*
X57140382Y-81570000D01*
X56301196Y-81570000D01*
X56301469Y-81571726D01*
X56353760Y-81732659D01*
X56430578Y-81883423D01*
X56530038Y-82020316D01*
X56530038Y-82020317D01*
X56649682Y-82139961D01*
X56786576Y-82239421D01*
X56937340Y-82316239D01*
X57098273Y-82368530D01*
X57265391Y-82395000D01*
X57400000Y-82395000D01*
X57400000Y-81645000D01*
X57900000Y-81645000D01*
X57900000Y-82395000D01*
X58034609Y-82395000D01*
X58201726Y-82368530D01*
X58362659Y-82316239D01*
X58513423Y-82239421D01*
X58650316Y-82139961D01*
X58650317Y-82139961D01*
X58769961Y-82020317D01*
X58769961Y-82020316D01*
X58869421Y-81883423D01*
X58946239Y-81732659D01*
X58998530Y-81571726D01*
X58998804Y-81570000D01*
X58159618Y-81570000D01*
X58210064Y-81519554D01*
X58252851Y-81445445D01*
X58275000Y-81362787D01*
X58275000Y-81277213D01*
X58252851Y-81194555D01*
X58210064Y-81120446D01*
X58159618Y-81070000D01*
X58998804Y-81070000D01*
X60101196Y-81070000D01*
X60940382Y-81070000D01*
X60889936Y-81120446D01*
X60847149Y-81194555D01*
X60825000Y-81277213D01*
X60825000Y-81362787D01*
X60847149Y-81445445D01*
X60889936Y-81519554D01*
X60940382Y-81570000D01*
X60101196Y-81570000D01*
X60101469Y-81571726D01*
X60153760Y-81732659D01*
X60230578Y-81883423D01*
X60330038Y-82020316D01*
X60330038Y-82020317D01*
X60449682Y-82139961D01*
X60586576Y-82239421D01*
X60737340Y-82316239D01*
X60898273Y-82368530D01*
X61065391Y-82395000D01*
X61200000Y-82395000D01*
X61200000Y-81645000D01*
X61700000Y-81645000D01*
X61700000Y-82395000D01*
X61834609Y-82395000D01*
X62001726Y-82368530D01*
X62162659Y-82316239D01*
X62313423Y-82239421D01*
X62450316Y-82139961D01*
X62450317Y-82139961D01*
X62569961Y-82020317D01*
X62569961Y-82020316D01*
X62669421Y-81883423D01*
X62686163Y-81850565D01*
X81724500Y-81850565D01*
X81724500Y-81949435D01*
X81750090Y-82044938D01*
X81750091Y-82044939D01*
X81750091Y-82044940D01*
X81752686Y-82049434D01*
X81799525Y-82130562D01*
X81869438Y-82200475D01*
X81955062Y-82249910D01*
X82050565Y-82275500D01*
X82050567Y-82275500D01*
X82149432Y-82275500D01*
X82149435Y-82275500D01*
X82244938Y-82249910D01*
X82330562Y-82200475D01*
X82400475Y-82130562D01*
X82449910Y-82044938D01*
X82475500Y-81949435D01*
X82475500Y-81850565D01*
X82449910Y-81755062D01*
X82400475Y-81669438D01*
X82330562Y-81599525D01*
X82244938Y-81550090D01*
X82149435Y-81524500D01*
X82050565Y-81524500D01*
X81955062Y-81550090D01*
X81955060Y-81550091D01*
X81955059Y-81550091D01*
X81869436Y-81599526D01*
X81799526Y-81669436D01*
X81750091Y-81755059D01*
X81750091Y-81755060D01*
X81750090Y-81755062D01*
X81724500Y-81850565D01*
X62686163Y-81850565D01*
X62718989Y-81786143D01*
X62718990Y-81786141D01*
X62746238Y-81732662D01*
X62798530Y-81571726D01*
X62798804Y-81570000D01*
X61959618Y-81570000D01*
X62010064Y-81519554D01*
X62052851Y-81445445D01*
X62075000Y-81362787D01*
X62075000Y-81277213D01*
X62052851Y-81194555D01*
X62010064Y-81120446D01*
X61959618Y-81070000D01*
X62798804Y-81070000D01*
X62798530Y-81068273D01*
X62746239Y-80907338D01*
X62741855Y-80898734D01*
X62741854Y-80898733D01*
X62717311Y-80850565D01*
X63124500Y-80850565D01*
X63124500Y-80949435D01*
X63150090Y-81044938D01*
X63199525Y-81130562D01*
X63269438Y-81200475D01*
X63355062Y-81249910D01*
X63450565Y-81275500D01*
X63450567Y-81275500D01*
X63549432Y-81275500D01*
X63549435Y-81275500D01*
X63644938Y-81249910D01*
X63730562Y-81200475D01*
X63800475Y-81130562D01*
X63849910Y-81044938D01*
X63875500Y-80949435D01*
X63875500Y-80850565D01*
X63849910Y-80755062D01*
X63800475Y-80669438D01*
X63730562Y-80599525D01*
X63644938Y-80550090D01*
X63549435Y-80524500D01*
X63450565Y-80524500D01*
X63355062Y-80550090D01*
X63355060Y-80550091D01*
X63355059Y-80550091D01*
X63269436Y-80599526D01*
X63199526Y-80669436D01*
X63150091Y-80755059D01*
X63150091Y-80755060D01*
X63150090Y-80755062D01*
X63124500Y-80850565D01*
X62717311Y-80850565D01*
X62669421Y-80756576D01*
X62569961Y-80619683D01*
X62569961Y-80619682D01*
X62450317Y-80500038D01*
X62382224Y-80450565D01*
X108324500Y-80450565D01*
X108324500Y-80549435D01*
X108350090Y-80644938D01*
X108399525Y-80730562D01*
X108469438Y-80800475D01*
X108555062Y-80849910D01*
X108650565Y-80875500D01*
X108650567Y-80875500D01*
X108749432Y-80875500D01*
X108749435Y-80875500D01*
X108844938Y-80849910D01*
X108930562Y-80800475D01*
X109000475Y-80730562D01*
X109049910Y-80644938D01*
X109075500Y-80549435D01*
X109075500Y-80450565D01*
X109049910Y-80355062D01*
X109000475Y-80269438D01*
X108930562Y-80199525D01*
X108844938Y-80150090D01*
X108749435Y-80124500D01*
X108650565Y-80124500D01*
X108555062Y-80150090D01*
X108555060Y-80150091D01*
X108555059Y-80150091D01*
X108469436Y-80199526D01*
X108399526Y-80269436D01*
X108350091Y-80355059D01*
X108350091Y-80355060D01*
X108350090Y-80355062D01*
X108324500Y-80450565D01*
X62382224Y-80450565D01*
X62313423Y-80400578D01*
X62162659Y-80323760D01*
X62001726Y-80271469D01*
X61834609Y-80245000D01*
X61700000Y-80245000D01*
X61700000Y-80995000D01*
X61200000Y-80995000D01*
X61200000Y-80245000D01*
X61065391Y-80245000D01*
X60898273Y-80271469D01*
X60737340Y-80323760D01*
X60586576Y-80400578D01*
X60449683Y-80500038D01*
X60449682Y-80500038D01*
X60330038Y-80619682D01*
X60330038Y-80619683D01*
X60230578Y-80756576D01*
X60153760Y-80907340D01*
X60101469Y-81068273D01*
X60101196Y-81070000D01*
X58998804Y-81070000D01*
X58998530Y-81068273D01*
X58946239Y-80907340D01*
X58869421Y-80756576D01*
X58769961Y-80619683D01*
X58769961Y-80619682D01*
X58650317Y-80500038D01*
X58513423Y-80400578D01*
X58362659Y-80323760D01*
X58201726Y-80271469D01*
X58034609Y-80245000D01*
X57900000Y-80245000D01*
X57900000Y-80995000D01*
X57400000Y-80995000D01*
X57400000Y-80245000D01*
X57265391Y-80245000D01*
X57098273Y-80271469D01*
X56937340Y-80323760D01*
X56786576Y-80400578D01*
X56649683Y-80500038D01*
X56649682Y-80500038D01*
X56530038Y-80619682D01*
X56530038Y-80619683D01*
X56430578Y-80756576D01*
X56353760Y-80907340D01*
X56301469Y-81068273D01*
X56301196Y-81070000D01*
X55500500Y-81070000D01*
X55500500Y-78150565D01*
X60224500Y-78150565D01*
X60224500Y-78249435D01*
X60250090Y-78344938D01*
X60250091Y-78344939D01*
X60250091Y-78344940D01*
X60274952Y-78388000D01*
X60291425Y-78455900D01*
X60274952Y-78512000D01*
X60250091Y-78555059D01*
X60250091Y-78555060D01*
X60250090Y-78555062D01*
X60224500Y-78650565D01*
X60224500Y-78749435D01*
X60250090Y-78844938D01*
X60299525Y-78930562D01*
X60369438Y-79000475D01*
X60455062Y-79049910D01*
X60550565Y-79075500D01*
X60550567Y-79075500D01*
X60649432Y-79075500D01*
X60649435Y-79075500D01*
X60744938Y-79049910D01*
X60830562Y-79000475D01*
X60900475Y-78930562D01*
X60949910Y-78844938D01*
X60975500Y-78749435D01*
X60975500Y-78650565D01*
X60949910Y-78555062D01*
X60947314Y-78550565D01*
X62224500Y-78550565D01*
X62224500Y-78649435D01*
X62250090Y-78744938D01*
X62250091Y-78744939D01*
X62250091Y-78744940D01*
X62252686Y-78749435D01*
X62299525Y-78830562D01*
X62369438Y-78900475D01*
X62455062Y-78949910D01*
X62550565Y-78975500D01*
X62550567Y-78975500D01*
X62649432Y-78975500D01*
X62649435Y-78975500D01*
X62744938Y-78949910D01*
X62830562Y-78900475D01*
X62900475Y-78830562D01*
X62915862Y-78803911D01*
X82377846Y-78803911D01*
X82377846Y-78902781D01*
X82403436Y-78998284D01*
X82452871Y-79083908D01*
X82522784Y-79153821D01*
X82608408Y-79203256D01*
X82703911Y-79228846D01*
X82703913Y-79228846D01*
X82802778Y-79228846D01*
X82802781Y-79228846D01*
X82898284Y-79203256D01*
X82983908Y-79153821D01*
X83053821Y-79083908D01*
X83103256Y-78998284D01*
X83128846Y-78902781D01*
X83128846Y-78803911D01*
X83103256Y-78708408D01*
X83053821Y-78622784D01*
X82983908Y-78552871D01*
X82898284Y-78503436D01*
X82802781Y-78477846D01*
X82703911Y-78477846D01*
X82608408Y-78503436D01*
X82608406Y-78503437D01*
X82608405Y-78503437D01*
X82522782Y-78552872D01*
X82452872Y-78622782D01*
X82403437Y-78708405D01*
X82403437Y-78708406D01*
X82403436Y-78708408D01*
X82377846Y-78803911D01*
X62915862Y-78803911D01*
X62949910Y-78744938D01*
X62975500Y-78649435D01*
X62975500Y-78550565D01*
X62949910Y-78455062D01*
X62900475Y-78369438D01*
X62830562Y-78299525D01*
X62744938Y-78250090D01*
X62649435Y-78224500D01*
X62550565Y-78224500D01*
X62455062Y-78250090D01*
X62455060Y-78250091D01*
X62455059Y-78250091D01*
X62369436Y-78299526D01*
X62299526Y-78369436D01*
X62250091Y-78455059D01*
X62250091Y-78455060D01*
X62250090Y-78455062D01*
X62224500Y-78550565D01*
X60947314Y-78550565D01*
X60922159Y-78506996D01*
X60919756Y-78501765D01*
X60915506Y-78472677D01*
X60908574Y-78444102D01*
X60910416Y-78437827D01*
X60909657Y-78432630D01*
X60916128Y-78418373D01*
X60925046Y-78388002D01*
X60949910Y-78344938D01*
X60975500Y-78249435D01*
X60975500Y-78150565D01*
X60949910Y-78055062D01*
X60900475Y-77969438D01*
X60830562Y-77899525D01*
X60744938Y-77850090D01*
X60649435Y-77824500D01*
X60550565Y-77824500D01*
X60455062Y-77850090D01*
X60455060Y-77850091D01*
X60455059Y-77850091D01*
X60369436Y-77899526D01*
X60299526Y-77969436D01*
X60250091Y-78055059D01*
X60250091Y-78055060D01*
X60250090Y-78055062D01*
X60224500Y-78150565D01*
X55500500Y-78150565D01*
X55500500Y-77550565D01*
X83824500Y-77550565D01*
X83824500Y-77649435D01*
X83850090Y-77744938D01*
X83899525Y-77830562D01*
X83969438Y-77900475D01*
X84055062Y-77949910D01*
X84150565Y-77975500D01*
X84150567Y-77975500D01*
X84249432Y-77975500D01*
X84249435Y-77975500D01*
X84344938Y-77949910D01*
X84430562Y-77900475D01*
X84500475Y-77830562D01*
X84549910Y-77744938D01*
X84575500Y-77649435D01*
X84575500Y-77550565D01*
X84549910Y-77455062D01*
X84547314Y-77450565D01*
X86824500Y-77450565D01*
X86824500Y-77549435D01*
X86850090Y-77644938D01*
X86850091Y-77644939D01*
X86850091Y-77644940D01*
X86852686Y-77649435D01*
X86899525Y-77730562D01*
X86969438Y-77800475D01*
X87055062Y-77849910D01*
X87150565Y-77875500D01*
X87150567Y-77875500D01*
X87249432Y-77875500D01*
X87249435Y-77875500D01*
X87344938Y-77849910D01*
X87430562Y-77800475D01*
X87500475Y-77730562D01*
X87549910Y-77644938D01*
X87575500Y-77549435D01*
X87575500Y-77450565D01*
X87549910Y-77355062D01*
X87500475Y-77269438D01*
X87430562Y-77199525D01*
X87344938Y-77150090D01*
X87249435Y-77124500D01*
X87150565Y-77124500D01*
X87055062Y-77150090D01*
X87055060Y-77150091D01*
X87055059Y-77150091D01*
X86969436Y-77199526D01*
X86899526Y-77269436D01*
X86850091Y-77355059D01*
X86850091Y-77355060D01*
X86850090Y-77355062D01*
X86824500Y-77450565D01*
X84547314Y-77450565D01*
X84500475Y-77369438D01*
X84430562Y-77299525D01*
X84344938Y-77250090D01*
X84249435Y-77224500D01*
X84150565Y-77224500D01*
X84055062Y-77250090D01*
X84055060Y-77250091D01*
X84055059Y-77250091D01*
X83969436Y-77299526D01*
X83899526Y-77369436D01*
X83850091Y-77455059D01*
X83850091Y-77455060D01*
X83850090Y-77455062D01*
X83824500Y-77550565D01*
X55500500Y-77550565D01*
X55500500Y-75150565D01*
X60224500Y-75150565D01*
X60224500Y-75249435D01*
X60250090Y-75344938D01*
X60250091Y-75344939D01*
X60250091Y-75344940D01*
X60274952Y-75388000D01*
X60291425Y-75455900D01*
X60274952Y-75512000D01*
X60250091Y-75555059D01*
X60250091Y-75555060D01*
X60250090Y-75555062D01*
X60224500Y-75650565D01*
X60224500Y-75749435D01*
X60250090Y-75844938D01*
X60299525Y-75930562D01*
X60369438Y-76000475D01*
X60455062Y-76049910D01*
X60550565Y-76075500D01*
X60550567Y-76075500D01*
X60649432Y-76075500D01*
X60649435Y-76075500D01*
X60744938Y-76049910D01*
X60830562Y-76000475D01*
X60900475Y-75930562D01*
X60949910Y-75844938D01*
X60975500Y-75749435D01*
X60975500Y-75650565D01*
X60949910Y-75555062D01*
X60925047Y-75511998D01*
X60908574Y-75444102D01*
X60914441Y-75411875D01*
X60918478Y-75399378D01*
X60949910Y-75344938D01*
X60975197Y-75250565D01*
X62224500Y-75250565D01*
X62224500Y-75349435D01*
X62250090Y-75444938D01*
X62250091Y-75444939D01*
X62250091Y-75444940D01*
X62256419Y-75455900D01*
X62299525Y-75530562D01*
X62369438Y-75600475D01*
X62455062Y-75649910D01*
X62550565Y-75675500D01*
X62550567Y-75675500D01*
X62649432Y-75675500D01*
X62649435Y-75675500D01*
X62744938Y-75649910D01*
X62830562Y-75600475D01*
X62900475Y-75530562D01*
X62949910Y-75444938D01*
X62975500Y-75349435D01*
X62975500Y-75250565D01*
X62949910Y-75155062D01*
X62900475Y-75069438D01*
X62830562Y-74999525D01*
X62744938Y-74950090D01*
X62649435Y-74924500D01*
X62550565Y-74924500D01*
X62455062Y-74950090D01*
X62455060Y-74950091D01*
X62455059Y-74950091D01*
X62369436Y-74999526D01*
X62299526Y-75069436D01*
X62250091Y-75155059D01*
X62250091Y-75155060D01*
X62250090Y-75155062D01*
X62224500Y-75250565D01*
X60975197Y-75250565D01*
X60975500Y-75249435D01*
X60975500Y-75150565D01*
X60949910Y-75055062D01*
X60900475Y-74969438D01*
X60830562Y-74899525D01*
X60744938Y-74850090D01*
X60649435Y-74824500D01*
X60550565Y-74824500D01*
X60455062Y-74850090D01*
X60455060Y-74850091D01*
X60455059Y-74850091D01*
X60369436Y-74899526D01*
X60299526Y-74969436D01*
X60250091Y-75055059D01*
X60250091Y-75055060D01*
X60250090Y-75055062D01*
X60224500Y-75150565D01*
X55500500Y-75150565D01*
X55500500Y-72430000D01*
X56301196Y-72430000D01*
X57140382Y-72430000D01*
X57089936Y-72480446D01*
X57047149Y-72554555D01*
X57025000Y-72637213D01*
X57025000Y-72722787D01*
X57047149Y-72805445D01*
X57089936Y-72879554D01*
X57140382Y-72930000D01*
X56301196Y-72930000D01*
X56301469Y-72931726D01*
X56353760Y-73092659D01*
X56430578Y-73243423D01*
X56530038Y-73380316D01*
X56530038Y-73380317D01*
X56649682Y-73499961D01*
X56786576Y-73599421D01*
X56937340Y-73676239D01*
X57098273Y-73728530D01*
X57265391Y-73755000D01*
X57400000Y-73755000D01*
X57400000Y-73005000D01*
X57900000Y-73005000D01*
X57900000Y-73755000D01*
X58034609Y-73755000D01*
X58201726Y-73728530D01*
X58362659Y-73676239D01*
X58513423Y-73599421D01*
X58650316Y-73499961D01*
X58650317Y-73499961D01*
X58769961Y-73380317D01*
X58769961Y-73380316D01*
X58869421Y-73243423D01*
X58946239Y-73092659D01*
X58998530Y-72931726D01*
X58998804Y-72930000D01*
X58159618Y-72930000D01*
X58210064Y-72879554D01*
X58252851Y-72805445D01*
X58275000Y-72722787D01*
X58275000Y-72637213D01*
X58252851Y-72554555D01*
X58210064Y-72480446D01*
X58159618Y-72430000D01*
X58998804Y-72430000D01*
X60101196Y-72430000D01*
X60940382Y-72430000D01*
X60889936Y-72480446D01*
X60847149Y-72554555D01*
X60825000Y-72637213D01*
X60825000Y-72722787D01*
X60847149Y-72805445D01*
X60889936Y-72879554D01*
X60940382Y-72930000D01*
X60101196Y-72930000D01*
X60101469Y-72931726D01*
X60153760Y-73092659D01*
X60230578Y-73243423D01*
X60330038Y-73380316D01*
X60330038Y-73380317D01*
X60449682Y-73499961D01*
X60586576Y-73599421D01*
X60737340Y-73676239D01*
X60898273Y-73728530D01*
X61065391Y-73755000D01*
X61200000Y-73755000D01*
X61200000Y-73005000D01*
X61700000Y-73005000D01*
X61700000Y-73755000D01*
X61834609Y-73755000D01*
X62001726Y-73728530D01*
X62162659Y-73676239D01*
X62313423Y-73599421D01*
X62450316Y-73499961D01*
X62450317Y-73499961D01*
X62569961Y-73380317D01*
X62569961Y-73380316D01*
X62669421Y-73243423D01*
X62746239Y-73092659D01*
X62759917Y-73050565D01*
X63124500Y-73050565D01*
X63124500Y-73149435D01*
X63150090Y-73244938D01*
X63199525Y-73330562D01*
X63269438Y-73400475D01*
X63355062Y-73449910D01*
X63450565Y-73475500D01*
X63450567Y-73475500D01*
X63549432Y-73475500D01*
X63549435Y-73475500D01*
X63644938Y-73449910D01*
X63730562Y-73400475D01*
X63800475Y-73330562D01*
X63849910Y-73244938D01*
X63875500Y-73149435D01*
X63875500Y-73050565D01*
X63849910Y-72955062D01*
X63800475Y-72869438D01*
X63730562Y-72799525D01*
X63644938Y-72750090D01*
X63549435Y-72724500D01*
X63450565Y-72724500D01*
X63355062Y-72750090D01*
X63355060Y-72750091D01*
X63355059Y-72750091D01*
X63269436Y-72799526D01*
X63199526Y-72869436D01*
X63150091Y-72955059D01*
X63150091Y-72955060D01*
X63150090Y-72955062D01*
X63124500Y-73050565D01*
X62759917Y-73050565D01*
X62775008Y-73004120D01*
X62775008Y-73004119D01*
X62798531Y-72931724D01*
X62798804Y-72930000D01*
X61959618Y-72930000D01*
X62010064Y-72879554D01*
X62052851Y-72805445D01*
X62075000Y-72722787D01*
X62075000Y-72637213D01*
X62052851Y-72554555D01*
X62010064Y-72480446D01*
X61980183Y-72450565D01*
X108324500Y-72450565D01*
X108324500Y-72549435D01*
X108350090Y-72644938D01*
X108399525Y-72730562D01*
X108469438Y-72800475D01*
X108555062Y-72849910D01*
X108650565Y-72875500D01*
X108650567Y-72875500D01*
X108749432Y-72875500D01*
X108749435Y-72875500D01*
X108844938Y-72849910D01*
X108930562Y-72800475D01*
X109000475Y-72730562D01*
X109049910Y-72644938D01*
X109075500Y-72549435D01*
X109075500Y-72450565D01*
X109049910Y-72355062D01*
X109000475Y-72269438D01*
X108930562Y-72199525D01*
X108844938Y-72150090D01*
X108749435Y-72124500D01*
X108650565Y-72124500D01*
X108555062Y-72150090D01*
X108555060Y-72150091D01*
X108555059Y-72150091D01*
X108469436Y-72199526D01*
X108399526Y-72269436D01*
X108350091Y-72355059D01*
X108350091Y-72355060D01*
X108350090Y-72355062D01*
X108324500Y-72450565D01*
X61980183Y-72450565D01*
X61959618Y-72430000D01*
X62798804Y-72430000D01*
X62798530Y-72428272D01*
X62746239Y-72267340D01*
X62669421Y-72116576D01*
X62569961Y-71979683D01*
X62569961Y-71979682D01*
X62450317Y-71860038D01*
X62313423Y-71760578D01*
X62162659Y-71683760D01*
X62001726Y-71631469D01*
X61834609Y-71605000D01*
X61700000Y-71605000D01*
X61700000Y-72355000D01*
X61200000Y-72355000D01*
X61200000Y-71605000D01*
X61065391Y-71605000D01*
X60898273Y-71631469D01*
X60737340Y-71683760D01*
X60586576Y-71760578D01*
X60449683Y-71860038D01*
X60449682Y-71860038D01*
X60330038Y-71979682D01*
X60330038Y-71979683D01*
X60230578Y-72116576D01*
X60153760Y-72267340D01*
X60101469Y-72428273D01*
X60101196Y-72430000D01*
X58998804Y-72430000D01*
X58998530Y-72428273D01*
X58946239Y-72267340D01*
X58869421Y-72116576D01*
X58769961Y-71979683D01*
X58769961Y-71979682D01*
X58650317Y-71860038D01*
X58513423Y-71760578D01*
X58362659Y-71683760D01*
X58201726Y-71631469D01*
X58034609Y-71605000D01*
X57900000Y-71605000D01*
X57900000Y-72355000D01*
X57400000Y-72355000D01*
X57400000Y-71605000D01*
X57265391Y-71605000D01*
X57098273Y-71631469D01*
X56937340Y-71683760D01*
X56786576Y-71760578D01*
X56649683Y-71860038D01*
X56649682Y-71860038D01*
X56530038Y-71979682D01*
X56530038Y-71979683D01*
X56430578Y-72116576D01*
X56353760Y-72267340D01*
X56301469Y-72428273D01*
X56301196Y-72430000D01*
X55500500Y-72430000D01*
X55500500Y-71250565D01*
X77624500Y-71250565D01*
X77624500Y-71349435D01*
X77650090Y-71444938D01*
X77699525Y-71530562D01*
X77769438Y-71600475D01*
X77855062Y-71649910D01*
X77950565Y-71675500D01*
X77950567Y-71675500D01*
X78049432Y-71675500D01*
X78049435Y-71675500D01*
X78144938Y-71649910D01*
X78230562Y-71600475D01*
X78300475Y-71530562D01*
X78349910Y-71444938D01*
X78375500Y-71349435D01*
X78375500Y-71250565D01*
X78349910Y-71155062D01*
X78300475Y-71069438D01*
X78230562Y-70999525D01*
X78144938Y-70950090D01*
X78049435Y-70924500D01*
X77950565Y-70924500D01*
X77855062Y-70950090D01*
X77855060Y-70950091D01*
X77855059Y-70950091D01*
X77769436Y-70999526D01*
X77699526Y-71069436D01*
X77650091Y-71155059D01*
X77650091Y-71155060D01*
X77650090Y-71155062D01*
X77624500Y-71250565D01*
X55500500Y-71250565D01*
X55500500Y-70850565D01*
X97424500Y-70850565D01*
X97424500Y-70949435D01*
X97450090Y-71044938D01*
X97499525Y-71130562D01*
X97569438Y-71200475D01*
X97655062Y-71249910D01*
X97750565Y-71275500D01*
X97750567Y-71275500D01*
X97849432Y-71275500D01*
X97849435Y-71275500D01*
X97944938Y-71249910D01*
X98030562Y-71200475D01*
X98080472Y-71150565D01*
X115324500Y-71150565D01*
X115324500Y-71249435D01*
X115350090Y-71344938D01*
X115350091Y-71344939D01*
X115350091Y-71344940D01*
X115352686Y-71349435D01*
X115399525Y-71430562D01*
X115469438Y-71500475D01*
X115555062Y-71549910D01*
X115650565Y-71575500D01*
X115650567Y-71575500D01*
X115749432Y-71575500D01*
X115749435Y-71575500D01*
X115844938Y-71549910D01*
X115930562Y-71500475D01*
X116000475Y-71430562D01*
X116049910Y-71344938D01*
X116075500Y-71249435D01*
X116075500Y-71150565D01*
X117224500Y-71150565D01*
X117224500Y-71249435D01*
X117250090Y-71344938D01*
X117250091Y-71344939D01*
X117250091Y-71344940D01*
X117252686Y-71349435D01*
X117299525Y-71430562D01*
X117369438Y-71500475D01*
X117455062Y-71549910D01*
X117550565Y-71575500D01*
X117550567Y-71575500D01*
X117649432Y-71575500D01*
X117649435Y-71575500D01*
X117744938Y-71549910D01*
X117830562Y-71500475D01*
X117900475Y-71430562D01*
X117949910Y-71344938D01*
X117975500Y-71249435D01*
X117975500Y-71150565D01*
X121024500Y-71150565D01*
X121024500Y-71249435D01*
X121050090Y-71344938D01*
X121050091Y-71344939D01*
X121050091Y-71344940D01*
X121052686Y-71349435D01*
X121099525Y-71430562D01*
X121169438Y-71500475D01*
X121255062Y-71549910D01*
X121350565Y-71575500D01*
X121350567Y-71575500D01*
X121449432Y-71575500D01*
X121449435Y-71575500D01*
X121544938Y-71549910D01*
X121630562Y-71500475D01*
X121700475Y-71430562D01*
X121749910Y-71344938D01*
X121775500Y-71249435D01*
X121775500Y-71150565D01*
X122924500Y-71150565D01*
X122924500Y-71249435D01*
X122950090Y-71344938D01*
X122950091Y-71344939D01*
X122950091Y-71344940D01*
X122952686Y-71349435D01*
X122999525Y-71430562D01*
X123069438Y-71500475D01*
X123155062Y-71549910D01*
X123250565Y-71575500D01*
X123250567Y-71575500D01*
X123349432Y-71575500D01*
X123349435Y-71575500D01*
X123444938Y-71549910D01*
X123530562Y-71500475D01*
X123600475Y-71430562D01*
X123649910Y-71344938D01*
X123675500Y-71249435D01*
X123675500Y-71150565D01*
X126724500Y-71150565D01*
X126724500Y-71249435D01*
X126750090Y-71344938D01*
X126750091Y-71344939D01*
X126750091Y-71344940D01*
X126752686Y-71349435D01*
X126799525Y-71430562D01*
X126869438Y-71500475D01*
X126955062Y-71549910D01*
X127050565Y-71575500D01*
X127050567Y-71575500D01*
X127149432Y-71575500D01*
X127149435Y-71575500D01*
X127244938Y-71549910D01*
X127330562Y-71500475D01*
X127400475Y-71430562D01*
X127449910Y-71344938D01*
X127475500Y-71249435D01*
X127475500Y-71150565D01*
X128624500Y-71150565D01*
X128624500Y-71249435D01*
X128650090Y-71344938D01*
X128650091Y-71344939D01*
X128650091Y-71344940D01*
X128652686Y-71349435D01*
X128699525Y-71430562D01*
X128769438Y-71500475D01*
X128855062Y-71549910D01*
X128950565Y-71575500D01*
X128950567Y-71575500D01*
X129049432Y-71575500D01*
X129049435Y-71575500D01*
X129144938Y-71549910D01*
X129230562Y-71500475D01*
X129300475Y-71430562D01*
X129349910Y-71344938D01*
X129375500Y-71249435D01*
X129375500Y-71150565D01*
X132424500Y-71150565D01*
X132424500Y-71249435D01*
X132450090Y-71344938D01*
X132450091Y-71344939D01*
X132450091Y-71344940D01*
X132452686Y-71349435D01*
X132499525Y-71430562D01*
X132569438Y-71500475D01*
X132655062Y-71549910D01*
X132750565Y-71575500D01*
X132750567Y-71575500D01*
X132849432Y-71575500D01*
X132849435Y-71575500D01*
X132944938Y-71549910D01*
X133030562Y-71500475D01*
X133100475Y-71430562D01*
X133149910Y-71344938D01*
X133175500Y-71249435D01*
X133175500Y-71150565D01*
X134324500Y-71150565D01*
X134324500Y-71249435D01*
X134350090Y-71344938D01*
X134350091Y-71344939D01*
X134350091Y-71344940D01*
X134352686Y-71349435D01*
X134399525Y-71430562D01*
X134469438Y-71500475D01*
X134555062Y-71549910D01*
X134650565Y-71575500D01*
X134650567Y-71575500D01*
X134749432Y-71575500D01*
X134749435Y-71575500D01*
X134844938Y-71549910D01*
X134930562Y-71500475D01*
X135000475Y-71430562D01*
X135049910Y-71344938D01*
X135075500Y-71249435D01*
X135075500Y-71150565D01*
X138324500Y-71150565D01*
X138324500Y-71249435D01*
X138350090Y-71344938D01*
X138350091Y-71344939D01*
X138350091Y-71344940D01*
X138352686Y-71349435D01*
X138399525Y-71430562D01*
X138469438Y-71500475D01*
X138555062Y-71549910D01*
X138650565Y-71575500D01*
X138650567Y-71575500D01*
X138749432Y-71575500D01*
X138749435Y-71575500D01*
X138844938Y-71549910D01*
X138930562Y-71500475D01*
X139000475Y-71430562D01*
X139049910Y-71344938D01*
X139075500Y-71249435D01*
X139075500Y-71150565D01*
X140224500Y-71150565D01*
X140224500Y-71249435D01*
X140250090Y-71344938D01*
X140250091Y-71344939D01*
X140250091Y-71344940D01*
X140252686Y-71349435D01*
X140299525Y-71430562D01*
X140369438Y-71500475D01*
X140455062Y-71549910D01*
X140550565Y-71575500D01*
X140550567Y-71575500D01*
X140649432Y-71575500D01*
X140649435Y-71575500D01*
X140744938Y-71549910D01*
X140830562Y-71500475D01*
X140900475Y-71430562D01*
X140949910Y-71344938D01*
X140975500Y-71249435D01*
X140975500Y-71150565D01*
X144024500Y-71150565D01*
X144024500Y-71249435D01*
X144050090Y-71344938D01*
X144050091Y-71344939D01*
X144050091Y-71344940D01*
X144052686Y-71349435D01*
X144099525Y-71430562D01*
X144169438Y-71500475D01*
X144255062Y-71549910D01*
X144350565Y-71575500D01*
X144350567Y-71575500D01*
X144449432Y-71575500D01*
X144449435Y-71575500D01*
X144544938Y-71549910D01*
X144630562Y-71500475D01*
X144700475Y-71430562D01*
X144749910Y-71344938D01*
X144775500Y-71249435D01*
X144775500Y-71150565D01*
X145924500Y-71150565D01*
X145924500Y-71249435D01*
X145950090Y-71344938D01*
X145950091Y-71344939D01*
X145950091Y-71344940D01*
X145952686Y-71349435D01*
X145999525Y-71430562D01*
X146069438Y-71500475D01*
X146155062Y-71549910D01*
X146250565Y-71575500D01*
X146250567Y-71575500D01*
X146349432Y-71575500D01*
X146349435Y-71575500D01*
X146444938Y-71549910D01*
X146530562Y-71500475D01*
X146600475Y-71430562D01*
X146649910Y-71344938D01*
X146675500Y-71249435D01*
X146675500Y-71150565D01*
X150024500Y-71150565D01*
X150024500Y-71249435D01*
X150050090Y-71344938D01*
X150050091Y-71344939D01*
X150050091Y-71344940D01*
X150052686Y-71349435D01*
X150099525Y-71430562D01*
X150169438Y-71500475D01*
X150255062Y-71549910D01*
X150350565Y-71575500D01*
X150350567Y-71575500D01*
X150449432Y-71575500D01*
X150449435Y-71575500D01*
X150544938Y-71549910D01*
X150630562Y-71500475D01*
X150700475Y-71430562D01*
X150749910Y-71344938D01*
X150775500Y-71249435D01*
X150775500Y-71150565D01*
X151924500Y-71150565D01*
X151924500Y-71249435D01*
X151950090Y-71344938D01*
X151950091Y-71344939D01*
X151950091Y-71344940D01*
X151952686Y-71349435D01*
X151999525Y-71430562D01*
X152069438Y-71500475D01*
X152155062Y-71549910D01*
X152250565Y-71575500D01*
X152250567Y-71575500D01*
X152349432Y-71575500D01*
X152349435Y-71575500D01*
X152444938Y-71549910D01*
X152530562Y-71500475D01*
X152600475Y-71430562D01*
X152649910Y-71344938D01*
X152675500Y-71249435D01*
X152675500Y-71150565D01*
X155724500Y-71150565D01*
X155724500Y-71249435D01*
X155750090Y-71344938D01*
X155750091Y-71344939D01*
X155750091Y-71344940D01*
X155752686Y-71349435D01*
X155799525Y-71430562D01*
X155869438Y-71500475D01*
X155955062Y-71549910D01*
X156050565Y-71575500D01*
X156050567Y-71575500D01*
X156149432Y-71575500D01*
X156149435Y-71575500D01*
X156244938Y-71549910D01*
X156330562Y-71500475D01*
X156400475Y-71430562D01*
X156449910Y-71344938D01*
X156475500Y-71249435D01*
X156475500Y-71150565D01*
X157624500Y-71150565D01*
X157624500Y-71249435D01*
X157650090Y-71344938D01*
X157650091Y-71344939D01*
X157650091Y-71344940D01*
X157652686Y-71349435D01*
X157699525Y-71430562D01*
X157769438Y-71500475D01*
X157855062Y-71549910D01*
X157950565Y-71575500D01*
X157950567Y-71575500D01*
X158049432Y-71575500D01*
X158049435Y-71575500D01*
X158144938Y-71549910D01*
X158230562Y-71500475D01*
X158300475Y-71430562D01*
X158349910Y-71344938D01*
X158375500Y-71249435D01*
X158375500Y-71150565D01*
X158349910Y-71055062D01*
X158300475Y-70969438D01*
X158230562Y-70899525D01*
X158144938Y-70850090D01*
X158049435Y-70824500D01*
X157950565Y-70824500D01*
X157855062Y-70850090D01*
X157855060Y-70850091D01*
X157855059Y-70850091D01*
X157769436Y-70899526D01*
X157699526Y-70969436D01*
X157650091Y-71055059D01*
X157650091Y-71055060D01*
X157650090Y-71055062D01*
X157624500Y-71150565D01*
X156475500Y-71150565D01*
X156449910Y-71055062D01*
X156400475Y-70969438D01*
X156330562Y-70899525D01*
X156244938Y-70850090D01*
X156149435Y-70824500D01*
X156050565Y-70824500D01*
X155955062Y-70850090D01*
X155955060Y-70850091D01*
X155955059Y-70850091D01*
X155869436Y-70899526D01*
X155799526Y-70969436D01*
X155750091Y-71055059D01*
X155750091Y-71055060D01*
X155750090Y-71055062D01*
X155724500Y-71150565D01*
X152675500Y-71150565D01*
X152649910Y-71055062D01*
X152600475Y-70969438D01*
X152530562Y-70899525D01*
X152444938Y-70850090D01*
X152349435Y-70824500D01*
X152250565Y-70824500D01*
X152155062Y-70850090D01*
X152155060Y-70850091D01*
X152155059Y-70850091D01*
X152069436Y-70899526D01*
X151999526Y-70969436D01*
X151950091Y-71055059D01*
X151950091Y-71055060D01*
X151950090Y-71055062D01*
X151924500Y-71150565D01*
X150775500Y-71150565D01*
X150749910Y-71055062D01*
X150700475Y-70969438D01*
X150630562Y-70899525D01*
X150544938Y-70850090D01*
X150449435Y-70824500D01*
X150350565Y-70824500D01*
X150255062Y-70850090D01*
X150255060Y-70850091D01*
X150255059Y-70850091D01*
X150169436Y-70899526D01*
X150099526Y-70969436D01*
X150050091Y-71055059D01*
X150050091Y-71055060D01*
X150050090Y-71055062D01*
X150024500Y-71150565D01*
X146675500Y-71150565D01*
X146649910Y-71055062D01*
X146600475Y-70969438D01*
X146530562Y-70899525D01*
X146444938Y-70850090D01*
X146349435Y-70824500D01*
X146250565Y-70824500D01*
X146155062Y-70850090D01*
X146155060Y-70850091D01*
X146155059Y-70850091D01*
X146069436Y-70899526D01*
X145999526Y-70969436D01*
X145950091Y-71055059D01*
X145950091Y-71055060D01*
X145950090Y-71055062D01*
X145924500Y-71150565D01*
X144775500Y-71150565D01*
X144749910Y-71055062D01*
X144700475Y-70969438D01*
X144630562Y-70899525D01*
X144544938Y-70850090D01*
X144449435Y-70824500D01*
X144350565Y-70824500D01*
X144255062Y-70850090D01*
X144255060Y-70850091D01*
X144255059Y-70850091D01*
X144169436Y-70899526D01*
X144099526Y-70969436D01*
X144050091Y-71055059D01*
X144050091Y-71055060D01*
X144050090Y-71055062D01*
X144024500Y-71150565D01*
X140975500Y-71150565D01*
X140949910Y-71055062D01*
X140900475Y-70969438D01*
X140830562Y-70899525D01*
X140744938Y-70850090D01*
X140649435Y-70824500D01*
X140550565Y-70824500D01*
X140455062Y-70850090D01*
X140455060Y-70850091D01*
X140455059Y-70850091D01*
X140369436Y-70899526D01*
X140299526Y-70969436D01*
X140250091Y-71055059D01*
X140250091Y-71055060D01*
X140250090Y-71055062D01*
X140224500Y-71150565D01*
X139075500Y-71150565D01*
X139049910Y-71055062D01*
X139000475Y-70969438D01*
X138930562Y-70899525D01*
X138844938Y-70850090D01*
X138749435Y-70824500D01*
X138650565Y-70824500D01*
X138555062Y-70850090D01*
X138555060Y-70850091D01*
X138555059Y-70850091D01*
X138469436Y-70899526D01*
X138399526Y-70969436D01*
X138350091Y-71055059D01*
X138350091Y-71055060D01*
X138350090Y-71055062D01*
X138324500Y-71150565D01*
X135075500Y-71150565D01*
X135049910Y-71055062D01*
X135000475Y-70969438D01*
X134930562Y-70899525D01*
X134844938Y-70850090D01*
X134749435Y-70824500D01*
X134650565Y-70824500D01*
X134555062Y-70850090D01*
X134555060Y-70850091D01*
X134555059Y-70850091D01*
X134469436Y-70899526D01*
X134399526Y-70969436D01*
X134350091Y-71055059D01*
X134350091Y-71055060D01*
X134350090Y-71055062D01*
X134324500Y-71150565D01*
X133175500Y-71150565D01*
X133149910Y-71055062D01*
X133100475Y-70969438D01*
X133030562Y-70899525D01*
X132944938Y-70850090D01*
X132849435Y-70824500D01*
X132750565Y-70824500D01*
X132655062Y-70850090D01*
X132655060Y-70850091D01*
X132655059Y-70850091D01*
X132569436Y-70899526D01*
X132499526Y-70969436D01*
X132450091Y-71055059D01*
X132450091Y-71055060D01*
X132450090Y-71055062D01*
X132424500Y-71150565D01*
X129375500Y-71150565D01*
X129349910Y-71055062D01*
X129300475Y-70969438D01*
X129230562Y-70899525D01*
X129144938Y-70850090D01*
X129049435Y-70824500D01*
X128950565Y-70824500D01*
X128855062Y-70850090D01*
X128855060Y-70850091D01*
X128855059Y-70850091D01*
X128769436Y-70899526D01*
X128699526Y-70969436D01*
X128650091Y-71055059D01*
X128650091Y-71055060D01*
X128650090Y-71055062D01*
X128624500Y-71150565D01*
X127475500Y-71150565D01*
X127449910Y-71055062D01*
X127400475Y-70969438D01*
X127330562Y-70899525D01*
X127244938Y-70850090D01*
X127149435Y-70824500D01*
X127050565Y-70824500D01*
X126955062Y-70850090D01*
X126955060Y-70850091D01*
X126955059Y-70850091D01*
X126869436Y-70899526D01*
X126799526Y-70969436D01*
X126750091Y-71055059D01*
X126750091Y-71055060D01*
X126750090Y-71055062D01*
X126724500Y-71150565D01*
X123675500Y-71150565D01*
X123649910Y-71055062D01*
X123600475Y-70969438D01*
X123530562Y-70899525D01*
X123444938Y-70850090D01*
X123349435Y-70824500D01*
X123250565Y-70824500D01*
X123155062Y-70850090D01*
X123155060Y-70850091D01*
X123155059Y-70850091D01*
X123069436Y-70899526D01*
X122999526Y-70969436D01*
X122950091Y-71055059D01*
X122950091Y-71055060D01*
X122950090Y-71055062D01*
X122924500Y-71150565D01*
X121775500Y-71150565D01*
X121749910Y-71055062D01*
X121700475Y-70969438D01*
X121630562Y-70899525D01*
X121544938Y-70850090D01*
X121449435Y-70824500D01*
X121350565Y-70824500D01*
X121255062Y-70850090D01*
X121255060Y-70850091D01*
X121255059Y-70850091D01*
X121169436Y-70899526D01*
X121099526Y-70969436D01*
X121050091Y-71055059D01*
X121050091Y-71055060D01*
X121050090Y-71055062D01*
X121024500Y-71150565D01*
X117975500Y-71150565D01*
X117949910Y-71055062D01*
X117900475Y-70969438D01*
X117830562Y-70899525D01*
X117744938Y-70850090D01*
X117649435Y-70824500D01*
X117550565Y-70824500D01*
X117455062Y-70850090D01*
X117455060Y-70850091D01*
X117455059Y-70850091D01*
X117369436Y-70899526D01*
X117299526Y-70969436D01*
X117250091Y-71055059D01*
X117250091Y-71055060D01*
X117250090Y-71055062D01*
X117224500Y-71150565D01*
X116075500Y-71150565D01*
X116049910Y-71055062D01*
X116000475Y-70969438D01*
X115930562Y-70899525D01*
X115844938Y-70850090D01*
X115749435Y-70824500D01*
X115650565Y-70824500D01*
X115555062Y-70850090D01*
X115555060Y-70850091D01*
X115555059Y-70850091D01*
X115469436Y-70899526D01*
X115399526Y-70969436D01*
X115350091Y-71055059D01*
X115350091Y-71055060D01*
X115350090Y-71055062D01*
X115324500Y-71150565D01*
X98080472Y-71150565D01*
X98100475Y-71130562D01*
X98149910Y-71044938D01*
X98175500Y-70949435D01*
X98175500Y-70850565D01*
X98149910Y-70755062D01*
X98100475Y-70669438D01*
X98030562Y-70599525D01*
X97944938Y-70550090D01*
X97849435Y-70524500D01*
X97750565Y-70524500D01*
X97655062Y-70550090D01*
X97655060Y-70550091D01*
X97655059Y-70550091D01*
X97569436Y-70599526D01*
X97499526Y-70669436D01*
X97450091Y-70755059D01*
X97450091Y-70755060D01*
X97450090Y-70755062D01*
X97424500Y-70850565D01*
X55500500Y-70850565D01*
X55500500Y-68006959D01*
X55501280Y-67993077D01*
X55501320Y-67992717D01*
X55511459Y-67902727D01*
X55517635Y-67875668D01*
X55545353Y-67796457D01*
X55557393Y-67771453D01*
X55602046Y-67700389D01*
X55619351Y-67678690D01*
X55678690Y-67619351D01*
X55700389Y-67602046D01*
X55771453Y-67557393D01*
X55796457Y-67545353D01*
X55875668Y-67517635D01*
X55902729Y-67511459D01*
X55978753Y-67502893D01*
X55993078Y-67501280D01*
X56006960Y-67500500D01*
X56065892Y-67500500D01*
X159934108Y-67500500D01*
X159993040Y-67500500D01*
X160006922Y-67501280D01*
G37*
%TD.AperFunction*%
%TD*%
M02*
