M48
; DRILL file KiCad 10.0.3 date 2026-10-06T22:22:38
; FORMAT={-:-/ absolute / metric / decimal}
; #@! TF.CreationDate,2026-10-06T22:22:38-07:00
; #@! TF.GenerationSoftware,Kicad,Pcbnew,10.0.3
; #@! TF.FileFunction,Plated,1,4,PTH
FMAT,2
METRIC
; #@! TA.AperFunction,Plated,PTH,ViaDrill
T1C0.200
; #@! TA.AperFunction,Plated,PTH,ComponentDrill
T2C0.650
%
G90
G05
T1
X56.1Y-81.3
X56.4Y-72.7
X56.637Y-105.5
X56.637Y-106.1
X56.637Y-106.7
X56.637Y-107.3
X56.637Y-107.9
X56.637Y-108.5
X56.637Y-109.1
X56.938Y-105.0
X56.938Y-109.6
X57.4Y-85.5
X57.4Y-91.0
X57.438Y-104.9
X57.637Y-109.7
X57.7Y-71.7
X57.7Y-73.7
X57.7Y-80.2
X57.7Y-82.5
X57.938Y-104.9
X58.237Y-109.7
X58.537Y-104.9
X59.0Y-72.7
X59.1Y-81.3
X60.0Y-81.3
X60.1Y-72.7
X60.2Y-79.8
X60.3Y-74.2
X60.6Y-75.2
X60.6Y-75.7
X60.6Y-78.2
X60.6Y-78.7
X61.5Y-71.8
X61.5Y-73.5
X61.5Y-82.5
X62.6Y-74.2
X62.6Y-75.3
X62.6Y-78.6
X62.6Y-79.7
X62.7Y-72.7
X62.9Y-81.3
X63.5Y-73.1
X63.5Y-80.9
X65.0Y-77.0
X65.5Y-73.7
X65.5Y-80.2
X65.9Y-75.2
X65.9Y-78.7
X78.0Y-71.3
X78.0Y-90.6
X80.6Y-83.4
X80.7Y-76.5
X81.9Y-79.3
X82.1Y-81.9
X82.3Y-76.3
X82.753Y-78.853
X84.2Y-77.6
X84.969Y-82.631
X85.5Y-82.0
X86.5Y-84.3
X87.139Y-83.439
X87.2Y-77.5
X87.9Y-78.3
X88.7Y-69.1
X89.0Y-91.2
X90.5Y-88.4
X90.6Y-89.6
X90.837Y-105.9
X90.837Y-106.4
X90.837Y-106.9
X90.837Y-107.4
X90.837Y-107.9
X90.837Y-108.4
X90.837Y-108.9
X91.6Y-87.3
X91.8Y-89.7
X91.938Y-103.5
X92.7Y-87.5
X97.8Y-70.9
X98.71Y-91.81
X99.2Y-79.0
X99.3Y-70.9
X99.6Y-89.9
X100.2Y-77.7
X100.5Y-73.9
X101.8Y-109.9
X101.8Y-111.0
X103.0Y-107.6
X103.2Y-88.0
X104.2Y-105.9
X104.8Y-113.0
X105.4Y-111.3
X105.7Y-104.5
X105.8Y-87.7
X106.3Y-105.0
X106.3Y-108.1
X106.41Y-94.4
X106.95Y-106.55
X107.7Y-90.7
X108.7Y-72.5
X108.7Y-80.5
X111.5Y-72.5
X111.6Y-80.5
X112.3Y-100.6
X112.4Y-113.0
X112.9Y-115.0
X113.0Y-111.3
X114.5Y-110.2
X115.05Y-108.95
X115.7Y-71.2
X115.7Y-85.2
X116.9Y-112.4
X117.0Y-115.4
X117.6Y-71.2
X117.6Y-85.2
X118.2Y-116.4
X118.4Y-110.8
X118.9Y-68.8
X118.9Y-71.2
X118.9Y-82.8
X118.9Y-85.2
X119.3Y-68.8
X119.3Y-71.2
X119.3Y-82.8
X119.3Y-85.2
X119.7Y-68.8
X119.7Y-71.2
X119.7Y-82.8
X119.7Y-85.2
X119.9Y-91.4
X120.1Y-68.8
X120.1Y-71.2
X120.1Y-82.8
X120.1Y-85.2
X120.1Y-95.6
X120.6Y-90.7
X120.8Y-96.3
X121.3Y-90.0
X121.4Y-71.2
X121.4Y-85.2
X121.5Y-97.0
X122.0Y-89.3
X122.2Y-97.7
X122.7Y-88.6
X122.9Y-98.4
X123.3Y-71.2
X123.3Y-85.2
X123.4Y-95.4
X124.201Y-90.599
X124.74Y-89.581
X124.74Y-90.061
X126.9Y-91.2
X127.0Y-98.7
X127.1Y-71.2
X127.1Y-85.3
X127.4Y-88.4
X127.7Y-91.9
X127.7Y-98.0
X128.4Y-97.3
X128.5Y-89.4
X129.0Y-71.2
X129.0Y-85.2
X129.1Y-96.6
X129.8Y-95.9
X130.0Y-89.6
X130.3Y-68.7
X130.3Y-71.2
X130.3Y-82.8
X130.3Y-85.2
X130.5Y-95.2
X130.697Y-71.197
X130.7Y-68.7
X130.7Y-82.8
X130.7Y-85.2
X131.1Y-68.7
X131.1Y-71.2
X131.1Y-82.8
X131.1Y-85.2
X131.5Y-68.7
X131.5Y-71.2
X131.5Y-82.8
X131.5Y-85.2
X132.8Y-71.2
X132.8Y-85.2
X134.7Y-71.2
X134.7Y-85.2
X138.7Y-71.2
X138.7Y-85.2
X140.6Y-71.2
X140.6Y-85.2
X141.9Y-68.7
X141.9Y-71.2
X141.9Y-82.8
X141.9Y-85.2
X142.3Y-68.7
X142.3Y-71.2
X142.3Y-82.8
X142.3Y-85.2
X142.7Y-68.7
X142.7Y-71.2
X142.7Y-82.8
X142.7Y-85.2
X143.1Y-68.7
X143.1Y-71.2
X143.1Y-82.8
X143.1Y-85.2
X144.1Y-95.4
X144.2Y-91.5
X144.4Y-71.2
X144.4Y-85.2
X144.8Y-96.1
X144.9Y-90.8
X145.5Y-96.8
X145.6Y-90.0
X146.3Y-71.2
X146.3Y-85.2
X146.3Y-97.6
X146.4Y-89.3
X147.0Y-98.4
X147.1Y-88.5
X147.6Y-95.4
X148.6Y-90.5
X149.1Y-90.2
X149.5Y-89.8
X150.3Y-85.3
X150.4Y-71.2
X150.8Y-99.4
X151.2Y-91.2
X151.5Y-98.7
X151.689Y-88.564
X151.9Y-92.18
X152.2Y-98.0
X152.3Y-71.2
X152.3Y-85.2
X152.789Y-89.564
X152.9Y-97.3
X153.6Y-68.7
X153.6Y-71.2
X153.6Y-96.6
X153.7Y-82.7
X153.7Y-85.3
X154.0Y-68.7
X154.0Y-71.2
X154.1Y-82.7
X154.1Y-85.3
X154.3Y-95.9
X154.389Y-89.864
X154.4Y-68.7
X154.4Y-71.2
X154.5Y-82.7
X154.5Y-85.3
X154.689Y-91.464
X154.8Y-68.7
X154.8Y-71.2
X154.9Y-82.7
X154.9Y-85.3
X156.1Y-71.2
X156.1Y-85.2
X158.0Y-71.2
X158.0Y-85.2
X158.6Y-107.9
T2
G00X57.35Y-72.68
M15
G01X57.95Y-72.68
M16
G05
G00X57.35Y-81.32
M15
G01X57.95Y-81.32
M16
G05
G00X61.15Y-72.68
M15
G01X61.75Y-72.68
M16
G05
G00X61.15Y-81.32
M15
G01X61.75Y-81.32
M16
G05
M30
