%TF.GenerationSoftware,KiCad,Pcbnew,10.0.3*%
%TF.CreationDate,2026-10-06T21:15:30-07:00*%
%TF.ProjectId,business_card,62757369-6e65-4737-935f-636172642e6b,rev?*%
%TF.SameCoordinates,Original*%
%TF.FileFunction,Profile,NP*%
%FSLAX46Y46*%
G04 Gerber Fmt 4.6, Leading zero omitted, Abs format (unit mm)*
G04 Created by KiCad (PCBNEW 10.0.3) date 2026-10-06 21:15:30*
%MOMM*%
%LPD*%
G01*
G04 APERTURE LIST*
%TA.AperFunction,Profile*%
%ADD10C,0.050000*%
%TD*%
%TA.AperFunction,Profile*%
%ADD11C,0.010000*%
%TD*%
G04 APERTURE END LIST*
D10*
X55000000Y-68000000D02*
G75*
G02*
X56000000Y-67000000I1000000J0D01*
G01*
X55000000Y-127700000D02*
X55000000Y-68000000D01*
X56000000Y-67000000D02*
X160000000Y-67000000D01*
X56000000Y-128700000D02*
G75*
G02*
X55000000Y-127700000I0J1000000D01*
G01*
X160000000Y-67000000D02*
G75*
G02*
X161000000Y-68000000I0J-1000000D01*
G01*
X160000000Y-128700000D02*
X56000000Y-128700000D01*
X161000000Y-68000000D02*
X161000000Y-127700000D01*
X161000000Y-127700000D02*
G75*
G02*
X160000000Y-128700000I-1000000J0D01*
G01*
%TO.C,BT1*%
D11*
X59295000Y-103615000D02*
X59295000Y-105545000D01*
X59295000Y-105545000D02*
X60400000Y-105545000D01*
X59295000Y-109055000D02*
X59295000Y-110985000D01*
X59295000Y-110985000D02*
X63006400Y-110985000D01*
X60400000Y-105545000D02*
X60400000Y-109055000D01*
X60400000Y-109055000D02*
X59295000Y-109055000D01*
X63006400Y-103615000D02*
X59295000Y-103615000D01*
X84793600Y-110985000D02*
X88505000Y-110985000D01*
X87400000Y-105545000D02*
X88505000Y-105545000D01*
X87400000Y-109055000D02*
X87400000Y-105545000D01*
X88505000Y-103615000D02*
X84793600Y-103615000D01*
X88505000Y-105545000D02*
X88505000Y-103615000D01*
X88505000Y-109055000D02*
X87400000Y-109055000D01*
X88505000Y-110985000D02*
X88505000Y-109055000D01*
X63006400Y-103615000D02*
G75*
G02*
X84793600Y-103615000I10893600J-3685160D01*
G01*
X84793600Y-110985000D02*
G75*
G02*
X63006400Y-110985000I-10893600J3685160D01*
G01*
%TD*%
M02*
