%TF.GenerationSoftware,KiCad,Pcbnew,10.0.3*%
%TF.CreationDate,2026-10-06T22:12:45-07:00*%
%TF.ProjectId,business_card,62757369-6e65-4737-935f-636172642e6b,rev?*%
%TF.SameCoordinates,Original*%
%TF.FileFunction,Copper,L1,Top*%
%TF.FilePolarity,Positive*%
%FSLAX46Y46*%
G04 Gerber Fmt 4.6, Leading zero omitted, Abs format (unit mm)*
G04 Created by KiCad (PCBNEW 10.0.3) date 2026-10-06 22:12:45*
%MOMM*%
%LPD*%
G01*
G04 APERTURE LIST*
%TA.AperFunction,ComponentPad*%
%ADD10O,1.750000X1.150000*%
%TD*%
%TA.AperFunction,ViaPad*%
%ADD11C,0.350000*%
%TD*%
%TA.AperFunction,Conductor*%
%ADD12C,0.150000*%
%TD*%
G04 APERTURE END LIST*
D10*
%TO.P,J1,SH1,SHIELD_SH1*%
%TO.N,GND*%
X61450000Y-81320000D03*
%TO.P,J1,SH2,SHIELD_SH2*%
X61450000Y-72680000D03*
%TO.P,J1,SH3,SHIELD_SH3*%
X57650000Y-81320000D03*
%TO.P,J1,SH4,SHIELD_SH4*%
X57650000Y-72680000D03*
%TD*%
D11*
%TO.N,+5V*%
X78000000Y-71300000D03*
%TO.N,GND*%
X78000000Y-90600000D03*
%TO.N,+5V*%
X114500000Y-110200000D03*
%TO.N,GND*%
X61500000Y-82500000D03*
X131100000Y-68700000D03*
X119300000Y-85200000D03*
X119300000Y-82800000D03*
X91800000Y-89700000D03*
X119700000Y-71200000D03*
X117000000Y-115400000D03*
X57700000Y-71700000D03*
X154100000Y-85300000D03*
X142300000Y-85200000D03*
X154388979Y-89863711D03*
X65900000Y-75200000D03*
X130700000Y-68700000D03*
X123400000Y-95400000D03*
X106300000Y-108100000D03*
X91937500Y-103500000D03*
X130300000Y-71200000D03*
X142300000Y-82800000D03*
X103000000Y-107600000D03*
X118900000Y-85200000D03*
X131500000Y-68700000D03*
X65500000Y-80200000D03*
X59100000Y-81300000D03*
X119700000Y-85200000D03*
X62600000Y-79700000D03*
X119300000Y-68800000D03*
X154500000Y-82700000D03*
X82300000Y-76300000D03*
X141900000Y-82800000D03*
X143100000Y-82800000D03*
X57637500Y-109700000D03*
X57700000Y-82500000D03*
X99600000Y-89900000D03*
X154000000Y-68700000D03*
X148600000Y-90500000D03*
X118400000Y-110800000D03*
X56637500Y-107900000D03*
X120100000Y-71200000D03*
X60000000Y-81300000D03*
X130300000Y-82800000D03*
X118900000Y-82800000D03*
X154900000Y-85300000D03*
X120100000Y-82800000D03*
X142300000Y-71200000D03*
X56637500Y-108500000D03*
X143100000Y-68700000D03*
X61500000Y-71800000D03*
X56637500Y-105500000D03*
X61500000Y-73500000D03*
X99200000Y-79000000D03*
X131500000Y-82800000D03*
X56637500Y-106100000D03*
X60100000Y-72700000D03*
X131100000Y-85200000D03*
X106410000Y-94400000D03*
X57700000Y-80200000D03*
X115050000Y-108950000D03*
X56937500Y-105000000D03*
X142700000Y-71200000D03*
X88700000Y-69100000D03*
X154000000Y-71200000D03*
X56100000Y-81300000D03*
X151688979Y-88563711D03*
X131100000Y-82800000D03*
X100200000Y-77700000D03*
X154500000Y-85300000D03*
X59000000Y-72700000D03*
X57400000Y-91000000D03*
X60300000Y-74200000D03*
X153600000Y-71200000D03*
X130700000Y-82800000D03*
X143100000Y-85200000D03*
X111500000Y-72500000D03*
X119700000Y-82800000D03*
X56637500Y-109100000D03*
X104800000Y-113000000D03*
X113000000Y-111300000D03*
X141900000Y-85200000D03*
X127400000Y-88400000D03*
X118900000Y-71200000D03*
X62700000Y-72700000D03*
X141900000Y-68700000D03*
X101800000Y-111000000D03*
X154100000Y-82700000D03*
X130700000Y-85200000D03*
X80600000Y-83400000D03*
X131500000Y-71200000D03*
X118900000Y-68800000D03*
X142700000Y-85200000D03*
X154400000Y-71200000D03*
X57437500Y-104900000D03*
X101800000Y-109900000D03*
X56637500Y-107300000D03*
X130300000Y-68700000D03*
X142300000Y-68700000D03*
X130000000Y-89600000D03*
X130300000Y-85200000D03*
X131500000Y-85200000D03*
X154400000Y-68700000D03*
X130696999Y-71197048D03*
X131100000Y-71200000D03*
X105800000Y-87700000D03*
X65000000Y-77000000D03*
X119300000Y-71200000D03*
X154900000Y-82700000D03*
X153700000Y-85300000D03*
X153700000Y-82700000D03*
X141900000Y-71200000D03*
X57937500Y-104900000D03*
X147600000Y-95400000D03*
X60200000Y-79800000D03*
X92700000Y-87500000D03*
X112900000Y-115000000D03*
X65900000Y-78700000D03*
X120100000Y-85200000D03*
X89000000Y-91200000D03*
X81900000Y-79300000D03*
X65500000Y-73700000D03*
X58537500Y-104900000D03*
X154800000Y-68700000D03*
X120100000Y-68800000D03*
X111600000Y-80500000D03*
X80700000Y-76500000D03*
X99300000Y-70900000D03*
X58237500Y-109700000D03*
X143100000Y-71200000D03*
X62900000Y-81300000D03*
X154800000Y-71200000D03*
X104200000Y-105900000D03*
X153600000Y-68700000D03*
X142700000Y-82800000D03*
X57700000Y-73700000D03*
X56400000Y-72700000D03*
X56637500Y-106700000D03*
X62600000Y-74200000D03*
X87900000Y-78300000D03*
X100500000Y-73900000D03*
X56937500Y-109600000D03*
X119700000Y-68800000D03*
X142700000Y-68700000D03*
%TO.N,Net-(LED4-G)*%
X123300000Y-71200000D03*
X120600000Y-90700000D03*
%TO.N,+5V*%
X118200000Y-116400000D03*
X128500000Y-89400000D03*
X60600000Y-75200000D03*
X116900000Y-112400000D03*
X158600000Y-107900000D03*
X57400000Y-85500000D03*
X151900000Y-92180000D03*
X63500000Y-80900000D03*
X108700000Y-80500000D03*
X154688979Y-91463711D03*
X107700000Y-90700000D03*
X97800000Y-70900000D03*
X151200000Y-91200000D03*
X84200000Y-77600000D03*
X152788979Y-89563711D03*
X90600000Y-89600000D03*
X63500000Y-73100000D03*
X86500000Y-84300000D03*
X124201248Y-90598754D03*
X62600000Y-78600000D03*
X62600000Y-75300000D03*
X126900000Y-91200000D03*
X60600000Y-78700000D03*
X127700000Y-91900000D03*
X82753346Y-78853346D03*
X87139376Y-83439376D03*
X60600000Y-75700000D03*
X60600000Y-78200000D03*
X108700000Y-72500000D03*
X112300000Y-100600000D03*
X103200000Y-88000000D03*
%TO.N,RTC_CLK*%
X82100000Y-81900000D03*
%TO.N,I2C.SCL*%
X106300000Y-105000000D03*
X91600000Y-87300000D03*
X124740000Y-90061179D03*
X149100000Y-90200000D03*
X84968628Y-82631372D03*
%TO.N,I2C.SDA*%
X90500000Y-88400000D03*
X124740000Y-89581176D03*
X149500000Y-89800000D03*
X105700000Y-104500000D03*
X85500000Y-82000000D03*
%TO.N,Net-(LED4-E)*%
X123300000Y-85200000D03*
X122000000Y-89300000D03*
%TO.N,Net-(LED4-D)*%
X122700000Y-88600000D03*
X121400000Y-85200000D03*
%TO.N,Net-(LED4-C-Pad4)*%
X120100000Y-95600000D03*
X117600000Y-85200000D03*
%TO.N,Net-(LED4-DP)*%
X119900000Y-91400000D03*
X115700000Y-85200000D03*
%TO.N,Net-(LED4-B)*%
X115700000Y-71200000D03*
X120800000Y-96300000D03*
%TO.N,Net-(LED4-A)*%
X117600000Y-71200000D03*
X121500000Y-97000000D03*
%TO.N,Net-(LED4-F)*%
X121400000Y-71200000D03*
X121300000Y-90000000D03*
%TO.N,Net-(LED1-D)*%
X152200000Y-98000000D03*
X156100000Y-85200000D03*
%TO.N,Net-(LED2-B)*%
X138700000Y-71200000D03*
X144800000Y-96100000D03*
%TO.N,Net-(LED3-F)*%
X127000000Y-98700000D03*
X132800000Y-71200000D03*
%TO.N,Net-(LED3-B)*%
X127100000Y-71200000D03*
X129800000Y-95900000D03*
%TO.N,Net-(LED2-E)*%
X146300000Y-85200000D03*
X144900000Y-90800000D03*
%TO.N,Net-(LED2-D)*%
X144400000Y-85200000D03*
X144200000Y-91500000D03*
%TO.N,Net-(LED2-C-Pad4)*%
X140600000Y-85200000D03*
X144100000Y-95400000D03*
%TO.N,Net-(LED2-DP)*%
X147100000Y-88500000D03*
X138700000Y-85200000D03*
%TO.N,Net-(LED2-A)*%
X140600000Y-71200000D03*
X145500000Y-96800000D03*
%TO.N,Net-(LED2-F)*%
X145600000Y-90000000D03*
X144400000Y-71200000D03*
%TO.N,Net-(LED2-G)*%
X146400000Y-89300000D03*
X146300000Y-71200000D03*
%TO.N,+BATT*%
X90837500Y-106900000D03*
X90837500Y-105900000D03*
X90837500Y-107400000D03*
X106950000Y-106550000D03*
X105400000Y-111300000D03*
X90837500Y-108400000D03*
X90837500Y-107900000D03*
X112400000Y-113000000D03*
X90837500Y-106400000D03*
X90837500Y-108900000D03*
%TO.N,Net-(LED3-E)*%
X127700000Y-98000000D03*
X134700000Y-85200000D03*
%TO.N,Net-(LED1-E)*%
X151500000Y-98700000D03*
X158000000Y-85200000D03*
%TO.N,Net-(LED1-C-Pad4)*%
X152300000Y-85200000D03*
X152900000Y-97300000D03*
%TO.N,Net-(LED1-DP)*%
X146300000Y-97600000D03*
X150300000Y-85300000D03*
%TO.N,Net-(LED1-B)*%
X150400000Y-71200000D03*
X153600000Y-96600000D03*
%TO.N,Net-(LED1-A)*%
X154300000Y-95900000D03*
X152300000Y-71200000D03*
%TO.N,Net-(LED1-F)*%
X156100000Y-71200000D03*
X150800000Y-99400000D03*
%TO.N,Net-(LED1-G)*%
X147000000Y-98400000D03*
X158000000Y-71200000D03*
%TO.N,Net-(LED3-D)*%
X128400000Y-97300000D03*
X132800000Y-85200000D03*
%TO.N,Net-(LED3-C-Pad4)*%
X129000000Y-85200000D03*
X129100000Y-96600000D03*
%TO.N,Net-(LED3-DP)*%
X122200000Y-97700000D03*
X127100000Y-85300000D03*
%TO.N,Net-(LED3-A)*%
X129000000Y-71200000D03*
X130500000Y-95200000D03*
%TO.N,Net-(LED3-G)*%
X134700000Y-71200000D03*
X122900000Y-98400000D03*
%TO.N,/MCU/MODE*%
X87200000Y-77500000D03*
X98710000Y-91810000D03*
%TD*%
%TO.N,I2C.SCL*%
D12*
X85631372Y-82631372D02*
X84968628Y-82631372D01*
X91600000Y-87300000D02*
X90300000Y-87300000D01*
X90300000Y-87300000D02*
X85631372Y-82631372D01*
%TO.N,I2C.SDA*%
X89900000Y-90300000D02*
X104100000Y-104500000D01*
X90500000Y-88400000D02*
X89900000Y-89000000D01*
X89900000Y-89000000D02*
X89900000Y-90300000D01*
X104100000Y-104500000D02*
X105700000Y-104500000D01*
%TO.N,Net-(LED4-E)*%
X122537402Y-89300000D02*
X123300000Y-88537402D01*
X123300000Y-88537402D02*
X123300000Y-85200000D01*
X122000000Y-89300000D02*
X122537402Y-89300000D01*
%TO.N,Net-(LED4-D)*%
X122700000Y-88600000D02*
X121400000Y-87300000D01*
X121400000Y-87300000D02*
X121400000Y-85200000D01*
%TO.N,Net-(LED4-C-Pad4)*%
X117600000Y-93100000D02*
X117600000Y-85200000D01*
X120100000Y-95600000D02*
X117600000Y-93100000D01*
%TO.N,Net-(LED4-DP)*%
X117757402Y-84820000D02*
X116080000Y-84820000D01*
X116080000Y-84820000D02*
X115700000Y-85200000D01*
X119900000Y-86962598D02*
X117757402Y-84820000D01*
X119900000Y-91400000D02*
X119900000Y-86962598D01*
%TO.N,Net-(LED4-B)*%
X125120000Y-91980000D02*
X125120000Y-80620000D01*
X125120000Y-80620000D02*
X115700000Y-71200000D01*
X120800000Y-96300000D02*
X125120000Y-91980000D01*
%TO.N,Net-(LED4-A)*%
X121500000Y-96600000D02*
X125400000Y-92700000D01*
X125400000Y-92700000D02*
X125400000Y-79000000D01*
X121500000Y-97000000D02*
X121500000Y-96600000D01*
X125400000Y-79000000D02*
X117600000Y-71200000D01*
%TO.N,Net-(LED4-F)*%
X120480000Y-80480000D02*
X113800000Y-73800000D01*
X113800000Y-73800000D02*
X113800000Y-71300000D01*
X120000000Y-69800000D02*
X121400000Y-71200000D01*
X121300000Y-90000000D02*
X120480000Y-89180000D01*
X113800000Y-71300000D02*
X115300000Y-69800000D01*
X115300000Y-69800000D02*
X120000000Y-69800000D01*
X120480000Y-89180000D02*
X120480000Y-80480000D01*
%TO.N,Net-(LED1-D)*%
X156100000Y-97100000D02*
X156100000Y-85200000D01*
X155200000Y-98000000D02*
X156100000Y-97100000D01*
X152200000Y-98000000D02*
X155200000Y-98000000D01*
%TO.N,Net-(LED2-B)*%
X147800000Y-80300000D02*
X138700000Y-71200000D01*
X144800000Y-96100000D02*
X147800000Y-93100000D01*
X147800000Y-93100000D02*
X147800000Y-80300000D01*
%TO.N,Net-(LED3-F)*%
X136280000Y-74680000D02*
X132800000Y-71200000D01*
X136280000Y-90353382D02*
X136280000Y-74680000D01*
X127933382Y-98700000D02*
X136280000Y-90353382D01*
X127000000Y-98700000D02*
X127933382Y-98700000D01*
%TO.N,Net-(LED3-B)*%
X134710588Y-90452010D02*
X134852010Y-90452010D01*
X135700000Y-89604020D02*
X135700000Y-79800000D01*
X134852010Y-90452010D02*
X135700000Y-89604020D01*
X135700000Y-79800000D02*
X127100000Y-71200000D01*
X129800000Y-95900000D02*
X129800000Y-95362598D01*
X129800000Y-95362598D02*
X134710588Y-90452010D01*
%TO.N,Net-(LED2-E)*%
X144900000Y-86600000D02*
X146300000Y-85200000D01*
X144900000Y-90800000D02*
X144900000Y-86600000D01*
%TO.N,Net-(LED2-D)*%
X144200000Y-85400000D02*
X144400000Y-85200000D01*
X144200000Y-91500000D02*
X144200000Y-85400000D01*
%TO.N,Net-(LED2-C-Pad4)*%
X144100000Y-95400000D02*
X140600000Y-91900000D01*
X140600000Y-91900000D02*
X140600000Y-85200000D01*
%TO.N,Net-(LED2-DP)*%
X147100000Y-85100000D02*
X146400000Y-84400000D01*
X139500000Y-84400000D02*
X138700000Y-85200000D01*
X146400000Y-84400000D02*
X139500000Y-84400000D01*
X147100000Y-88500000D02*
X147100000Y-85100000D01*
%TO.N,Net-(LED2-A)*%
X145500000Y-96800000D02*
X148100000Y-94200000D01*
X148100000Y-78700000D02*
X140600000Y-71200000D01*
X148100000Y-94200000D02*
X148100000Y-78700000D01*
%TO.N,Net-(LED3-E)*%
X129000000Y-84400000D02*
X133900000Y-84400000D01*
X133900000Y-84400000D02*
X134700000Y-85200000D01*
X128120000Y-85280000D02*
X129000000Y-84400000D01*
X127700000Y-98000000D02*
X127700000Y-93800000D01*
X127700000Y-93800000D02*
X128120000Y-93380000D01*
X128120000Y-93380000D02*
X128120000Y-85280000D01*
%TO.N,Net-(LED1-E)*%
X151500000Y-98700000D02*
X155000000Y-98700000D01*
X155000000Y-98700000D02*
X158000000Y-95700000D01*
X158000000Y-95700000D02*
X158000000Y-85200000D01*
%TO.N,Net-(LED1-C-Pad4)*%
X152900000Y-97300000D02*
X153437402Y-97300000D01*
X155700000Y-95037402D02*
X155700000Y-88600000D01*
X155700000Y-88600000D02*
X152300000Y-85200000D01*
X153437402Y-97300000D02*
X155700000Y-95037402D01*
%TO.N,Net-(LED1-DP)*%
X146300000Y-97600000D02*
X150300000Y-93600000D01*
X150300000Y-93600000D02*
X150300000Y-85300000D01*
%TO.N,Net-(LED1-B)*%
X153600000Y-96600000D02*
X153600000Y-87800000D01*
X150400000Y-84600000D02*
X150400000Y-71200000D01*
X153600000Y-87800000D02*
X150400000Y-84600000D01*
%TO.N,Net-(LED1-A)*%
X155100000Y-95100000D02*
X155100000Y-88800000D01*
X155100000Y-88800000D02*
X151100000Y-84800000D01*
X154300000Y-95900000D02*
X155100000Y-95100000D01*
X151100000Y-72400000D02*
X152300000Y-71200000D01*
X151100000Y-84800000D02*
X151100000Y-72400000D01*
%TO.N,Net-(LED1-F)*%
X158380000Y-96220000D02*
X158380000Y-73480000D01*
X158380000Y-73480000D02*
X156100000Y-71200000D01*
X155200000Y-99400000D02*
X158380000Y-96220000D01*
X150800000Y-99400000D02*
X155200000Y-99400000D01*
%TO.N,Net-(LED1-G)*%
X155215980Y-99780000D02*
X158900000Y-96095980D01*
X158900000Y-72100000D02*
X158000000Y-71200000D01*
X158900000Y-96095980D02*
X158900000Y-72100000D01*
X147000000Y-98400000D02*
X148380000Y-99780000D01*
X148380000Y-99780000D02*
X155215980Y-99780000D01*
%TO.N,Net-(LED3-D)*%
X129380000Y-88620000D02*
X132800000Y-85200000D01*
X129480000Y-96442598D02*
X129380000Y-96342598D01*
X128937402Y-97300000D02*
X129480000Y-96757402D01*
X129380000Y-96342598D02*
X129380000Y-88620000D01*
X129480000Y-96757402D02*
X129480000Y-96442598D01*
X128400000Y-97300000D02*
X128937402Y-97300000D01*
%TO.N,Net-(LED3-C-Pad4)*%
X129100000Y-96600000D02*
X129100000Y-85300000D01*
X129100000Y-85300000D02*
X129000000Y-85200000D01*
%TO.N,Net-(LED3-DP)*%
X125700000Y-94200000D02*
X125700000Y-86700000D01*
X122200000Y-97700000D02*
X125700000Y-94200000D01*
X125700000Y-86700000D02*
X127100000Y-85300000D01*
%TO.N,Net-(LED3-A)*%
X136000000Y-89700000D02*
X136000000Y-78200000D01*
X136000000Y-78200000D02*
X129000000Y-71200000D01*
X130500000Y-95200000D02*
X136000000Y-89700000D01*
%TO.N,Net-(LED3-G)*%
X122900000Y-98400000D02*
X123580000Y-99080000D01*
X123580000Y-99080000D02*
X128120000Y-99080000D01*
X128120000Y-99080000D02*
X136600000Y-90600000D01*
X136600000Y-73100000D02*
X134700000Y-71200000D01*
X136600000Y-90600000D02*
X136600000Y-73100000D01*
%TO.N,/MCU/MODE*%
X96362598Y-89462598D02*
X96362598Y-87300000D01*
X87200000Y-78137402D02*
X87200000Y-77500000D01*
X96362598Y-87300000D02*
X87200000Y-78137402D01*
X98710000Y-91810000D02*
X96362598Y-89462598D01*
%TD*%
%TA.AperFunction,Conductor*%
%TO.N,GND*%
G36*
X154080703Y-88170764D02*
G01*
X154087181Y-88176796D01*
X154788181Y-88877796D01*
X154821666Y-88939119D01*
X154824500Y-88965477D01*
X154824500Y-90964211D01*
X154804815Y-91031250D01*
X154752011Y-91077005D01*
X154700500Y-91088211D01*
X154639544Y-91088211D01*
X154544041Y-91113801D01*
X154544039Y-91113802D01*
X154544038Y-91113802D01*
X154458415Y-91163237D01*
X154388505Y-91233147D01*
X154339070Y-91318770D01*
X154339070Y-91318771D01*
X154339069Y-91318773D01*
X154313479Y-91414276D01*
X154313479Y-91513146D01*
X154339069Y-91608649D01*
X154388504Y-91694273D01*
X154458417Y-91764186D01*
X154544041Y-91813621D01*
X154639544Y-91839211D01*
X154639546Y-91839211D01*
X154700500Y-91839211D01*
X154767539Y-91858896D01*
X154813294Y-91911700D01*
X154824500Y-91963211D01*
X154824500Y-94934523D01*
X154804815Y-95001562D01*
X154788181Y-95022204D01*
X154321003Y-95489381D01*
X154259680Y-95522866D01*
X154251053Y-95524369D01*
X154239115Y-95527568D01*
X154155062Y-95550090D01*
X154155060Y-95550091D01*
X154155059Y-95550091D01*
X154104995Y-95578996D01*
X154069438Y-95599525D01*
X154069436Y-95599526D01*
X154062400Y-95603589D01*
X154060773Y-95600771D01*
X154009766Y-95620466D01*
X153941327Y-95606399D01*
X153891357Y-95557565D01*
X153875500Y-95496892D01*
X153875500Y-88264477D01*
X153895185Y-88197438D01*
X153947989Y-88151683D01*
X154017147Y-88141739D01*
X154080703Y-88170764D01*
G37*
%TD.AperFunction*%
%TA.AperFunction,Conductor*%
G36*
X132563141Y-84695185D02*
G01*
X132608896Y-84747989D01*
X132618840Y-84817147D01*
X132589815Y-84880703D01*
X132571585Y-84897878D01*
X132569436Y-84899526D01*
X132499526Y-84969436D01*
X132450091Y-85055059D01*
X132450091Y-85055060D01*
X132450090Y-85055062D01*
X132424500Y-85150565D01*
X132424500Y-85150567D01*
X132422397Y-85158416D01*
X132420879Y-85158009D01*
X132396366Y-85213410D01*
X132389381Y-85221002D01*
X129587181Y-88023203D01*
X129525858Y-88056688D01*
X129456166Y-88051704D01*
X129400233Y-88009832D01*
X129375816Y-87944368D01*
X129375500Y-87935522D01*
X129375500Y-85150567D01*
X129375500Y-85150565D01*
X129349910Y-85055062D01*
X129300475Y-84969438D01*
X129230562Y-84899525D01*
X129230560Y-84899524D01*
X129228415Y-84897878D01*
X129227061Y-84896024D01*
X129224815Y-84893778D01*
X129225165Y-84893427D01*
X129187210Y-84841452D01*
X129183053Y-84771706D01*
X129217263Y-84710785D01*
X129278979Y-84678030D01*
X129303898Y-84675500D01*
X132496102Y-84675500D01*
X132563141Y-84695185D01*
G37*
%TD.AperFunction*%
%TA.AperFunction,Conductor*%
G36*
X160006922Y-67501280D02*
G01*
X160023878Y-67503190D01*
X160097268Y-67511458D01*
X160124333Y-67517636D01*
X160203539Y-67545351D01*
X160228549Y-67557395D01*
X160299606Y-67602043D01*
X160321313Y-67619355D01*
X160380644Y-67678686D01*
X160397957Y-67700395D01*
X160442602Y-67771447D01*
X160454649Y-67796464D01*
X160482362Y-67875662D01*
X160488541Y-67902734D01*
X160498720Y-67993076D01*
X160499500Y-68006959D01*
X160499500Y-127693040D01*
X160498720Y-127706923D01*
X160488541Y-127797265D01*
X160482362Y-127824337D01*
X160454649Y-127903535D01*
X160442602Y-127928552D01*
X160397957Y-127999604D01*
X160380644Y-128021313D01*
X160321313Y-128080644D01*
X160299604Y-128097957D01*
X160228552Y-128142602D01*
X160203535Y-128154649D01*
X160124337Y-128182362D01*
X160097265Y-128188541D01*
X160006923Y-128198720D01*
X159993040Y-128199500D01*
X56006960Y-128199500D01*
X55993077Y-128198720D01*
X55902734Y-128188541D01*
X55875662Y-128182362D01*
X55796464Y-128154649D01*
X55771447Y-128142602D01*
X55700395Y-128097957D01*
X55678686Y-128080644D01*
X55619355Y-128021313D01*
X55602042Y-127999604D01*
X55557397Y-127928552D01*
X55545351Y-127903539D01*
X55517636Y-127824333D01*
X55511458Y-127797268D01*
X55501280Y-127706922D01*
X55500500Y-127693040D01*
X55500500Y-103549108D01*
X58794500Y-103549108D01*
X58794500Y-105610891D01*
X58828608Y-105738187D01*
X58838350Y-105755060D01*
X58894500Y-105852314D01*
X58987686Y-105945500D01*
X59101814Y-106011392D01*
X59229108Y-106045500D01*
X59775500Y-106045500D01*
X59842539Y-106065185D01*
X59888294Y-106117989D01*
X59899500Y-106169500D01*
X59899500Y-108430500D01*
X59879815Y-108497539D01*
X59827011Y-108543294D01*
X59775500Y-108554500D01*
X59229108Y-108554500D01*
X59101812Y-108588608D01*
X58987686Y-108654500D01*
X58987683Y-108654502D01*
X58894502Y-108747683D01*
X58894500Y-108747686D01*
X58828608Y-108861812D01*
X58805131Y-108949432D01*
X58794500Y-108989108D01*
X58794500Y-110919108D01*
X58794500Y-111050892D01*
X58811554Y-111114539D01*
X58828608Y-111178187D01*
X58829908Y-111180438D01*
X58894500Y-111292314D01*
X58987686Y-111385500D01*
X59101814Y-111451392D01*
X59229108Y-111485500D01*
X62564786Y-111485500D01*
X62631825Y-111505185D01*
X62677580Y-111557989D01*
X62679812Y-111563186D01*
X62894727Y-112096959D01*
X63183573Y-112711548D01*
X63366375Y-113049435D01*
X63506712Y-113308829D01*
X63506714Y-113308832D01*
X63756285Y-113713624D01*
X63863097Y-113886869D01*
X64251600Y-114443841D01*
X64670973Y-114977955D01*
X65119876Y-115487502D01*
X65263348Y-115632885D01*
X65596872Y-115970853D01*
X65596881Y-115970861D01*
X66100424Y-116426450D01*
X66100432Y-116426457D01*
X66628951Y-116852862D01*
X66628964Y-116852872D01*
X67180722Y-117248693D01*
X67180734Y-117248701D01*
X67754015Y-117612708D01*
X68346960Y-117943718D01*
X68346968Y-117943721D01*
X68346970Y-117943723D01*
X68346975Y-117943726D01*
X68957678Y-118240673D01*
X69375358Y-118415303D01*
X69584200Y-118502619D01*
X70224536Y-118728722D01*
X70224540Y-118728724D01*
X70876613Y-118918252D01*
X70876616Y-118918252D01*
X70876631Y-118918257D01*
X71538399Y-119070618D01*
X72207724Y-119185318D01*
X72882464Y-119261989D01*
X73560459Y-119300386D01*
X73560470Y-119300386D01*
X74239530Y-119300386D01*
X74239541Y-119300386D01*
X74917536Y-119261989D01*
X75592276Y-119185318D01*
X76261601Y-119070618D01*
X76923369Y-118918257D01*
X77045264Y-118882827D01*
X77575459Y-118728724D01*
X77575460Y-118728723D01*
X77575465Y-118728722D01*
X78215800Y-118502619D01*
X78842326Y-118240671D01*
X79453040Y-117943718D01*
X80045985Y-117612708D01*
X80619266Y-117248701D01*
X81171048Y-116852863D01*
X81699566Y-116426458D01*
X81702869Y-116423470D01*
X81783448Y-116350565D01*
X117824500Y-116350565D01*
X117824500Y-116449435D01*
X117850090Y-116544938D01*
X117899525Y-116630562D01*
X117969438Y-116700475D01*
X118055062Y-116749910D01*
X118150565Y-116775500D01*
X118150567Y-116775500D01*
X118249432Y-116775500D01*
X118249435Y-116775500D01*
X118344938Y-116749910D01*
X118430562Y-116700475D01*
X118500475Y-116630562D01*
X118549910Y-116544938D01*
X118575500Y-116449435D01*
X118575500Y-116350565D01*
X118549910Y-116255062D01*
X118500475Y-116169438D01*
X118430562Y-116099525D01*
X118344938Y-116050090D01*
X118249435Y-116024500D01*
X118150565Y-116024500D01*
X118055062Y-116050090D01*
X118055060Y-116050091D01*
X118055059Y-116050091D01*
X117969436Y-116099526D01*
X117899526Y-116169436D01*
X117850091Y-116255059D01*
X117850091Y-116255060D01*
X117850090Y-116255062D01*
X117824500Y-116350565D01*
X81783448Y-116350565D01*
X81894059Y-116250488D01*
X82203118Y-115970861D01*
X82203127Y-115970853D01*
X82203128Y-115970852D01*
X82680124Y-115487502D01*
X83129027Y-114977955D01*
X83548400Y-114443841D01*
X83936903Y-113886869D01*
X84293292Y-113308822D01*
X84487115Y-112950565D01*
X112024500Y-112950565D01*
X112024500Y-113049435D01*
X112050090Y-113144938D01*
X112099525Y-113230562D01*
X112169438Y-113300475D01*
X112255062Y-113349910D01*
X112350565Y-113375500D01*
X112350567Y-113375500D01*
X112449432Y-113375500D01*
X112449435Y-113375500D01*
X112544938Y-113349910D01*
X112630562Y-113300475D01*
X112700475Y-113230562D01*
X112749910Y-113144938D01*
X112775500Y-113049435D01*
X112775500Y-112950565D01*
X112749910Y-112855062D01*
X112700475Y-112769438D01*
X112630562Y-112699525D01*
X112544938Y-112650090D01*
X112449435Y-112624500D01*
X112350565Y-112624500D01*
X112255062Y-112650090D01*
X112255060Y-112650091D01*
X112255059Y-112650091D01*
X112169436Y-112699526D01*
X112099526Y-112769436D01*
X112050091Y-112855059D01*
X112050091Y-112855060D01*
X112050090Y-112855062D01*
X112024500Y-112950565D01*
X84487115Y-112950565D01*
X84616427Y-112711548D01*
X84786083Y-112350565D01*
X116524500Y-112350565D01*
X116524500Y-112449435D01*
X116550090Y-112544938D01*
X116599525Y-112630562D01*
X116669438Y-112700475D01*
X116755062Y-112749910D01*
X116850565Y-112775500D01*
X116850567Y-112775500D01*
X116949432Y-112775500D01*
X116949435Y-112775500D01*
X117044938Y-112749910D01*
X117130562Y-112700475D01*
X117200475Y-112630562D01*
X117249910Y-112544938D01*
X117275500Y-112449435D01*
X117275500Y-112350565D01*
X117249910Y-112255062D01*
X117200475Y-112169438D01*
X117130562Y-112099525D01*
X117044938Y-112050090D01*
X116949435Y-112024500D01*
X116850565Y-112024500D01*
X116755062Y-112050090D01*
X116755060Y-112050091D01*
X116755059Y-112050091D01*
X116669436Y-112099526D01*
X116599526Y-112169436D01*
X116550091Y-112255059D01*
X116550091Y-112255060D01*
X116550090Y-112255062D01*
X116524500Y-112350565D01*
X84786083Y-112350565D01*
X84814691Y-112289695D01*
X84871210Y-112169436D01*
X84905273Y-112096959D01*
X85120188Y-111563186D01*
X85163487Y-111508351D01*
X85229559Y-111485629D01*
X85235214Y-111485500D01*
X88570890Y-111485500D01*
X88570892Y-111485500D01*
X88698186Y-111451392D01*
X88812314Y-111385500D01*
X88905500Y-111292314D01*
X88929604Y-111250565D01*
X105024500Y-111250565D01*
X105024500Y-111349435D01*
X105050090Y-111444938D01*
X105099525Y-111530562D01*
X105169438Y-111600475D01*
X105255062Y-111649910D01*
X105350565Y-111675500D01*
X105350567Y-111675500D01*
X105449432Y-111675500D01*
X105449435Y-111675500D01*
X105544938Y-111649910D01*
X105630562Y-111600475D01*
X105700475Y-111530562D01*
X105749910Y-111444938D01*
X105775500Y-111349435D01*
X105775500Y-111250565D01*
X105749910Y-111155062D01*
X105700475Y-111069438D01*
X105630562Y-110999525D01*
X105544938Y-110950090D01*
X105449435Y-110924500D01*
X105350565Y-110924500D01*
X105255062Y-110950090D01*
X105255060Y-110950091D01*
X105255059Y-110950091D01*
X105169436Y-110999526D01*
X105099526Y-111069436D01*
X105050091Y-111155059D01*
X105050091Y-111155060D01*
X105050090Y-111155062D01*
X105024500Y-111250565D01*
X88929604Y-111250565D01*
X88971392Y-111178186D01*
X89005500Y-111050892D01*
X89005500Y-110150565D01*
X114124500Y-110150565D01*
X114124500Y-110249435D01*
X114150090Y-110344938D01*
X114199525Y-110430562D01*
X114269438Y-110500475D01*
X114355062Y-110549910D01*
X114450565Y-110575500D01*
X114450567Y-110575500D01*
X114549432Y-110575500D01*
X114549435Y-110575500D01*
X114644938Y-110549910D01*
X114730562Y-110500475D01*
X114800475Y-110430562D01*
X114849910Y-110344938D01*
X114875500Y-110249435D01*
X114875500Y-110150565D01*
X114849910Y-110055062D01*
X114800475Y-109969438D01*
X114730562Y-109899525D01*
X114644938Y-109850090D01*
X114549435Y-109824500D01*
X114450565Y-109824500D01*
X114355062Y-109850090D01*
X114355060Y-109850091D01*
X114355059Y-109850091D01*
X114269436Y-109899526D01*
X114199526Y-109969436D01*
X114150091Y-110055059D01*
X114150091Y-110055060D01*
X114150090Y-110055062D01*
X114124500Y-110150565D01*
X89005500Y-110150565D01*
X89005500Y-108989108D01*
X88971392Y-108861814D01*
X88905500Y-108747686D01*
X88812314Y-108654500D01*
X88755250Y-108621554D01*
X88698187Y-108588608D01*
X88634539Y-108571554D01*
X88570892Y-108554500D01*
X88570891Y-108554500D01*
X88024500Y-108554500D01*
X87957461Y-108534815D01*
X87911706Y-108482011D01*
X87900500Y-108430500D01*
X87900500Y-106169500D01*
X87920185Y-106102461D01*
X87972989Y-106056706D01*
X88024500Y-106045500D01*
X88570890Y-106045500D01*
X88570892Y-106045500D01*
X88698186Y-106011392D01*
X88812314Y-105945500D01*
X88905500Y-105852314D01*
X88906510Y-105850565D01*
X90462000Y-105850565D01*
X90462000Y-105949435D01*
X90487590Y-106044938D01*
X90487591Y-106044939D01*
X90487591Y-106044940D01*
X90512452Y-106088000D01*
X90528925Y-106155900D01*
X90512452Y-106212000D01*
X90487591Y-106255059D01*
X90487591Y-106255060D01*
X90487590Y-106255062D01*
X90462000Y-106350565D01*
X90462000Y-106449435D01*
X90487590Y-106544938D01*
X90487591Y-106544939D01*
X90487591Y-106544940D01*
X90512452Y-106588000D01*
X90528925Y-106655900D01*
X90512452Y-106712000D01*
X90487591Y-106755059D01*
X90487591Y-106755060D01*
X90487590Y-106755062D01*
X90462000Y-106850565D01*
X90462000Y-106949435D01*
X90487590Y-107044938D01*
X90487591Y-107044939D01*
X90487591Y-107044940D01*
X90512452Y-107088000D01*
X90528925Y-107155900D01*
X90512452Y-107212000D01*
X90487591Y-107255059D01*
X90487591Y-107255060D01*
X90487590Y-107255062D01*
X90462000Y-107350565D01*
X90462000Y-107449435D01*
X90487590Y-107544938D01*
X90487591Y-107544939D01*
X90487591Y-107544940D01*
X90512452Y-107588000D01*
X90528925Y-107655900D01*
X90512452Y-107712000D01*
X90487591Y-107755059D01*
X90487591Y-107755060D01*
X90487590Y-107755062D01*
X90462000Y-107850565D01*
X90462000Y-107949435D01*
X90487590Y-108044938D01*
X90487591Y-108044939D01*
X90487591Y-108044940D01*
X90512452Y-108088000D01*
X90528925Y-108155900D01*
X90512452Y-108212000D01*
X90487591Y-108255059D01*
X90487591Y-108255060D01*
X90487590Y-108255062D01*
X90462000Y-108350565D01*
X90462000Y-108449435D01*
X90487590Y-108544938D01*
X90487591Y-108544939D01*
X90487591Y-108544940D01*
X90512452Y-108588000D01*
X90528925Y-108655900D01*
X90512452Y-108712000D01*
X90487591Y-108755059D01*
X90487591Y-108755060D01*
X90487590Y-108755062D01*
X90462000Y-108850565D01*
X90462000Y-108949435D01*
X90487590Y-109044938D01*
X90537025Y-109130562D01*
X90606938Y-109200475D01*
X90692562Y-109249910D01*
X90788065Y-109275500D01*
X90788067Y-109275500D01*
X90886932Y-109275500D01*
X90886935Y-109275500D01*
X90982438Y-109249910D01*
X91068062Y-109200475D01*
X91137975Y-109130562D01*
X91187410Y-109044938D01*
X91213000Y-108949435D01*
X91213000Y-108850565D01*
X91187410Y-108755062D01*
X91162547Y-108711998D01*
X91146074Y-108644102D01*
X91162546Y-108588002D01*
X91187410Y-108544938D01*
X91213000Y-108449435D01*
X91213000Y-108350565D01*
X91187410Y-108255062D01*
X91162547Y-108211998D01*
X91146074Y-108144102D01*
X91162546Y-108088002D01*
X91187410Y-108044938D01*
X91213000Y-107949435D01*
X91213000Y-107850565D01*
X158224500Y-107850565D01*
X158224500Y-107949435D01*
X158250090Y-108044938D01*
X158299525Y-108130562D01*
X158369438Y-108200475D01*
X158455062Y-108249910D01*
X158550565Y-108275500D01*
X158550567Y-108275500D01*
X158649432Y-108275500D01*
X158649435Y-108275500D01*
X158744938Y-108249910D01*
X158830562Y-108200475D01*
X158900475Y-108130562D01*
X158949910Y-108044938D01*
X158975500Y-107949435D01*
X158975500Y-107850565D01*
X158949910Y-107755062D01*
X158900475Y-107669438D01*
X158830562Y-107599525D01*
X158744938Y-107550090D01*
X158649435Y-107524500D01*
X158550565Y-107524500D01*
X158455062Y-107550090D01*
X158455060Y-107550091D01*
X158455059Y-107550091D01*
X158369436Y-107599526D01*
X158299526Y-107669436D01*
X158250091Y-107755059D01*
X158250091Y-107755060D01*
X158250090Y-107755062D01*
X158224500Y-107850565D01*
X91213000Y-107850565D01*
X91187410Y-107755062D01*
X91156690Y-107701855D01*
X91152841Y-107690808D01*
X91151662Y-107667136D01*
X91146074Y-107644102D01*
X91149871Y-107631167D01*
X91149367Y-107621024D01*
X91156492Y-107608621D01*
X91162546Y-107588002D01*
X91187410Y-107544938D01*
X91213000Y-107449435D01*
X91213000Y-107350565D01*
X91187410Y-107255062D01*
X91162547Y-107211998D01*
X91146074Y-107144102D01*
X91162546Y-107088002D01*
X91187410Y-107044938D01*
X91213000Y-106949435D01*
X91213000Y-106850565D01*
X91187410Y-106755062D01*
X91162547Y-106711998D01*
X91146074Y-106644102D01*
X91154031Y-106605925D01*
X91157565Y-106596630D01*
X91187410Y-106544938D01*
X91199300Y-106500565D01*
X106574500Y-106500565D01*
X106574500Y-106599435D01*
X106600090Y-106694938D01*
X106649525Y-106780562D01*
X106719438Y-106850475D01*
X106805062Y-106899910D01*
X106900565Y-106925500D01*
X106900567Y-106925500D01*
X106999432Y-106925500D01*
X106999435Y-106925500D01*
X107094938Y-106899910D01*
X107180562Y-106850475D01*
X107250475Y-106780562D01*
X107299910Y-106694938D01*
X107325500Y-106599435D01*
X107325500Y-106500565D01*
X107299910Y-106405062D01*
X107250475Y-106319438D01*
X107180562Y-106249525D01*
X107094938Y-106200090D01*
X106999435Y-106174500D01*
X106900565Y-106174500D01*
X106805062Y-106200090D01*
X106805060Y-106200091D01*
X106805059Y-106200091D01*
X106719436Y-106249526D01*
X106649526Y-106319436D01*
X106600091Y-106405059D01*
X106600091Y-106405060D01*
X106600090Y-106405062D01*
X106574500Y-106500565D01*
X91199300Y-106500565D01*
X91213000Y-106449435D01*
X91213000Y-106350565D01*
X91187410Y-106255062D01*
X91162547Y-106211998D01*
X91146074Y-106144102D01*
X91162546Y-106088002D01*
X91187410Y-106044938D01*
X91213000Y-105949435D01*
X91213000Y-105850565D01*
X91187410Y-105755062D01*
X91137975Y-105669438D01*
X91068062Y-105599525D01*
X90982438Y-105550090D01*
X90886935Y-105524500D01*
X90788065Y-105524500D01*
X90692562Y-105550090D01*
X90692560Y-105550091D01*
X90692559Y-105550091D01*
X90606936Y-105599526D01*
X90537026Y-105669436D01*
X90487591Y-105755059D01*
X90487591Y-105755060D01*
X90487590Y-105755062D01*
X90462000Y-105850565D01*
X88906510Y-105850565D01*
X88971392Y-105738186D01*
X89005500Y-105610892D01*
X89005500Y-103549108D01*
X88971392Y-103421814D01*
X88905500Y-103307686D01*
X88812314Y-103214500D01*
X88755250Y-103181554D01*
X88698187Y-103148608D01*
X88634539Y-103131554D01*
X88570892Y-103114500D01*
X88570891Y-103114500D01*
X85235214Y-103114500D01*
X85168175Y-103094815D01*
X85122420Y-103042011D01*
X85120188Y-103036814D01*
X85119884Y-103036059D01*
X84905273Y-102503041D01*
X84616427Y-101888452D01*
X84293292Y-101291178D01*
X83936903Y-100713131D01*
X83548400Y-100156159D01*
X83129027Y-99622045D01*
X82680124Y-99112498D01*
X82416081Y-98844938D01*
X82203127Y-98629146D01*
X82203118Y-98629138D01*
X81699575Y-98173549D01*
X81699567Y-98173542D01*
X81171048Y-97747137D01*
X81171035Y-97747127D01*
X80619277Y-97351306D01*
X80619262Y-97351296D01*
X80045985Y-96987292D01*
X79799039Y-96849435D01*
X79453040Y-96656282D01*
X79453038Y-96656281D01*
X79453029Y-96656276D01*
X79453024Y-96656273D01*
X78842321Y-96359326D01*
X78215801Y-96097381D01*
X77575466Y-95871278D01*
X77575459Y-95871275D01*
X76923386Y-95681747D01*
X76783041Y-95649435D01*
X76261601Y-95529382D01*
X76261588Y-95529379D01*
X75592310Y-95414687D01*
X75592263Y-95414680D01*
X74917555Y-95338013D01*
X74917549Y-95338012D01*
X74917536Y-95338011D01*
X74424569Y-95310092D01*
X74239545Y-95299614D01*
X74239541Y-95299614D01*
X73560459Y-95299614D01*
X73560454Y-95299614D01*
X73329173Y-95312712D01*
X72882464Y-95338011D01*
X72882452Y-95338012D01*
X72882444Y-95338013D01*
X72207736Y-95414680D01*
X72207689Y-95414687D01*
X71538412Y-95529379D01*
X71538411Y-95529379D01*
X70876613Y-95681747D01*
X70224540Y-95871275D01*
X70224533Y-95871278D01*
X69584198Y-96097381D01*
X68957678Y-96359326D01*
X68346975Y-96656273D01*
X68346970Y-96656276D01*
X67754014Y-96987292D01*
X67180737Y-97351296D01*
X67180722Y-97351306D01*
X66628964Y-97747127D01*
X66628951Y-97747137D01*
X66100432Y-98173542D01*
X66100424Y-98173549D01*
X65596881Y-98629138D01*
X65596872Y-98629146D01*
X65119871Y-99112503D01*
X65119864Y-99112511D01*
X64670972Y-99622046D01*
X64670958Y-99622063D01*
X64251616Y-100156138D01*
X64251593Y-100156169D01*
X63863097Y-100713130D01*
X63506714Y-101291167D01*
X63506712Y-101291170D01*
X63183572Y-101888453D01*
X63136731Y-101988119D01*
X62894727Y-102503041D01*
X62681774Y-103031940D01*
X62679812Y-103036814D01*
X62636513Y-103091649D01*
X62570441Y-103114371D01*
X62564786Y-103114500D01*
X59229108Y-103114500D01*
X59101812Y-103148608D01*
X58987686Y-103214500D01*
X58987683Y-103214502D01*
X58894502Y-103307683D01*
X58894500Y-103307686D01*
X58828608Y-103421812D01*
X58794500Y-103549108D01*
X55500500Y-103549108D01*
X55500500Y-88945200D01*
X89624500Y-88945200D01*
X89624500Y-90354800D01*
X89645873Y-90406399D01*
X89653371Y-90424499D01*
X89653371Y-90424500D01*
X89666443Y-90456059D01*
X103943944Y-104733560D01*
X104022257Y-104765997D01*
X104045200Y-104775500D01*
X105394798Y-104775500D01*
X105461837Y-104795185D01*
X105469007Y-104800226D01*
X105469437Y-104800474D01*
X105469438Y-104800475D01*
X105555062Y-104849910D01*
X105650565Y-104875500D01*
X105650567Y-104875500D01*
X105749432Y-104875500D01*
X105749435Y-104875500D01*
X105768408Y-104870416D01*
X105838256Y-104872079D01*
X105896119Y-104911241D01*
X105923623Y-104975470D01*
X105924500Y-104990191D01*
X105924500Y-105049435D01*
X105950090Y-105144938D01*
X105999525Y-105230562D01*
X106069438Y-105300475D01*
X106155062Y-105349910D01*
X106250565Y-105375500D01*
X106250567Y-105375500D01*
X106349432Y-105375500D01*
X106349435Y-105375500D01*
X106444938Y-105349910D01*
X106530562Y-105300475D01*
X106600475Y-105230562D01*
X106649910Y-105144938D01*
X106675500Y-105049435D01*
X106675500Y-104950565D01*
X106649910Y-104855062D01*
X106600475Y-104769438D01*
X106530562Y-104699525D01*
X106444938Y-104650090D01*
X106349435Y-104624500D01*
X106250565Y-104624500D01*
X106231590Y-104629584D01*
X106161740Y-104627919D01*
X106103879Y-104588754D01*
X106076376Y-104524525D01*
X106075500Y-104509808D01*
X106075500Y-104450567D01*
X106075500Y-104450565D01*
X106049910Y-104355062D01*
X106000475Y-104269438D01*
X105930562Y-104199525D01*
X105844938Y-104150090D01*
X105749435Y-104124500D01*
X105650565Y-104124500D01*
X105555062Y-104150090D01*
X105555060Y-104150091D01*
X105555059Y-104150091D01*
X105504593Y-104179228D01*
X105469438Y-104199525D01*
X105469436Y-104199526D01*
X105462400Y-104203589D01*
X105461615Y-104202229D01*
X105405107Y-104224071D01*
X105394798Y-104224500D01*
X104265478Y-104224500D01*
X104198439Y-104204815D01*
X104177797Y-104188181D01*
X100540181Y-100550565D01*
X111924500Y-100550565D01*
X111924500Y-100649435D01*
X111950090Y-100744938D01*
X111999525Y-100830562D01*
X112069438Y-100900475D01*
X112155062Y-100949910D01*
X112250565Y-100975500D01*
X112250567Y-100975500D01*
X112349432Y-100975500D01*
X112349435Y-100975500D01*
X112444938Y-100949910D01*
X112530562Y-100900475D01*
X112600475Y-100830562D01*
X112649910Y-100744938D01*
X112675500Y-100649435D01*
X112675500Y-100550565D01*
X112649910Y-100455062D01*
X112600475Y-100369438D01*
X112530562Y-100299525D01*
X112444938Y-100250090D01*
X112349435Y-100224500D01*
X112250565Y-100224500D01*
X112155062Y-100250090D01*
X112155060Y-100250091D01*
X112155059Y-100250091D01*
X112069436Y-100299526D01*
X111999526Y-100369436D01*
X111950091Y-100455059D01*
X111950091Y-100455060D01*
X111950090Y-100455062D01*
X111924500Y-100550565D01*
X100540181Y-100550565D01*
X98340181Y-98350565D01*
X122524500Y-98350565D01*
X122524500Y-98449435D01*
X122550090Y-98544938D01*
X122550091Y-98544939D01*
X122550091Y-98544940D01*
X122563337Y-98567882D01*
X122599525Y-98630562D01*
X122669438Y-98700475D01*
X122755062Y-98749910D01*
X122850565Y-98775500D01*
X122850568Y-98775500D01*
X122858416Y-98777603D01*
X122858008Y-98779123D01*
X122913396Y-98803620D01*
X122921003Y-98810618D01*
X123423938Y-99313555D01*
X123423939Y-99313555D01*
X123423941Y-99313557D01*
X123453595Y-99325839D01*
X123453597Y-99325841D01*
X123453598Y-99325841D01*
X123474570Y-99334527D01*
X123525200Y-99355500D01*
X123525203Y-99355500D01*
X128174799Y-99355500D01*
X128174800Y-99355500D01*
X128276058Y-99313557D01*
X128353557Y-99236058D01*
X130039050Y-97550565D01*
X145924500Y-97550565D01*
X145924500Y-97649435D01*
X145950090Y-97744938D01*
X145950091Y-97744939D01*
X145950091Y-97744940D01*
X145952686Y-97749435D01*
X145999525Y-97830562D01*
X146069438Y-97900475D01*
X146155062Y-97949910D01*
X146250565Y-97975500D01*
X146250567Y-97975500D01*
X146349432Y-97975500D01*
X146349435Y-97975500D01*
X146444938Y-97949910D01*
X146530562Y-97900475D01*
X146600475Y-97830562D01*
X146649910Y-97744938D01*
X146675500Y-97649435D01*
X146675500Y-97649432D01*
X146677603Y-97641584D01*
X146679122Y-97641991D01*
X146703619Y-97586604D01*
X146710606Y-97579008D01*
X150533557Y-93756059D01*
X150545841Y-93726400D01*
X150575500Y-93654800D01*
X150575500Y-92130565D01*
X151524500Y-92130565D01*
X151524500Y-92229435D01*
X151550090Y-92324938D01*
X151599525Y-92410562D01*
X151669438Y-92480475D01*
X151755062Y-92529910D01*
X151850565Y-92555500D01*
X151850567Y-92555500D01*
X151949432Y-92555500D01*
X151949435Y-92555500D01*
X152044938Y-92529910D01*
X152130562Y-92480475D01*
X152200475Y-92410562D01*
X152249910Y-92324938D01*
X152275500Y-92229435D01*
X152275500Y-92130565D01*
X152249910Y-92035062D01*
X152200475Y-91949438D01*
X152130562Y-91879525D01*
X152044938Y-91830090D01*
X151949435Y-91804500D01*
X151850565Y-91804500D01*
X151755062Y-91830090D01*
X151755060Y-91830091D01*
X151755059Y-91830091D01*
X151669436Y-91879526D01*
X151599526Y-91949436D01*
X151550091Y-92035059D01*
X151550091Y-92035060D01*
X151550090Y-92035062D01*
X151524500Y-92130565D01*
X150575500Y-92130565D01*
X150575500Y-91150565D01*
X150824500Y-91150565D01*
X150824500Y-91249435D01*
X150850090Y-91344938D01*
X150899525Y-91430562D01*
X150969438Y-91500475D01*
X151055062Y-91549910D01*
X151150565Y-91575500D01*
X151150567Y-91575500D01*
X151249432Y-91575500D01*
X151249435Y-91575500D01*
X151344938Y-91549910D01*
X151430562Y-91500475D01*
X151500475Y-91430562D01*
X151549910Y-91344938D01*
X151575500Y-91249435D01*
X151575500Y-91150565D01*
X151549910Y-91055062D01*
X151500475Y-90969438D01*
X151430562Y-90899525D01*
X151344938Y-90850090D01*
X151249435Y-90824500D01*
X151150565Y-90824500D01*
X151055062Y-90850090D01*
X151055060Y-90850091D01*
X151055059Y-90850091D01*
X150969436Y-90899526D01*
X150899526Y-90969436D01*
X150850091Y-91055059D01*
X150850091Y-91055060D01*
X150850090Y-91055062D01*
X150824500Y-91150565D01*
X150575500Y-91150565D01*
X150575500Y-85605201D01*
X150595185Y-85538162D01*
X150600226Y-85530991D01*
X150600471Y-85530565D01*
X150600475Y-85530562D01*
X150644298Y-85454657D01*
X150694862Y-85406445D01*
X150763469Y-85393221D01*
X150828334Y-85419189D01*
X150839364Y-85428979D01*
X153288181Y-87877796D01*
X153321666Y-87939119D01*
X153324500Y-87965477D01*
X153324500Y-89277487D01*
X153304815Y-89344526D01*
X153252011Y-89390281D01*
X153182853Y-89400225D01*
X153119297Y-89371200D01*
X153093114Y-89339489D01*
X153089454Y-89333149D01*
X153019541Y-89263236D01*
X152933917Y-89213801D01*
X152838414Y-89188211D01*
X152739544Y-89188211D01*
X152644041Y-89213801D01*
X152644039Y-89213802D01*
X152644038Y-89213802D01*
X152558415Y-89263237D01*
X152488505Y-89333147D01*
X152439070Y-89418770D01*
X152439070Y-89418771D01*
X152439069Y-89418773D01*
X152413479Y-89514276D01*
X152413479Y-89613146D01*
X152439069Y-89708649D01*
X152439070Y-89708650D01*
X152439070Y-89708651D01*
X152449152Y-89726114D01*
X152488504Y-89794273D01*
X152558417Y-89864186D01*
X152644041Y-89913621D01*
X152739544Y-89939211D01*
X152739546Y-89939211D01*
X152838411Y-89939211D01*
X152838414Y-89939211D01*
X152933917Y-89913621D01*
X153019541Y-89864186D01*
X153089454Y-89794273D01*
X153093114Y-89787932D01*
X153143679Y-89739719D01*
X153212285Y-89726495D01*
X153277151Y-89752462D01*
X153317680Y-89809376D01*
X153324500Y-89849934D01*
X153324500Y-96294798D01*
X153304815Y-96361837D01*
X153299773Y-96369007D01*
X153250091Y-96455059D01*
X153250091Y-96455060D01*
X153250090Y-96455062D01*
X153224500Y-96550565D01*
X153224500Y-96649435D01*
X153250090Y-96744938D01*
X153298947Y-96829561D01*
X153315420Y-96897460D01*
X153292568Y-96963487D01*
X153237647Y-97006677D01*
X153168093Y-97013319D01*
X153129562Y-96998947D01*
X153044938Y-96950090D01*
X152949435Y-96924500D01*
X152850565Y-96924500D01*
X152755062Y-96950090D01*
X152755060Y-96950091D01*
X152755059Y-96950091D01*
X152669436Y-96999526D01*
X152599526Y-97069436D01*
X152550091Y-97155059D01*
X152550091Y-97155060D01*
X152550090Y-97155062D01*
X152524500Y-97250565D01*
X152524500Y-97349435D01*
X152550090Y-97444938D01*
X152598947Y-97529561D01*
X152615420Y-97597460D01*
X152592568Y-97663487D01*
X152537647Y-97706677D01*
X152468093Y-97713319D01*
X152429562Y-97698947D01*
X152344938Y-97650090D01*
X152249435Y-97624500D01*
X152150565Y-97624500D01*
X152055062Y-97650090D01*
X152055060Y-97650091D01*
X152055059Y-97650091D01*
X151969436Y-97699526D01*
X151899526Y-97769436D01*
X151850091Y-97855059D01*
X151850091Y-97855060D01*
X151850090Y-97855062D01*
X151824500Y-97950565D01*
X151824500Y-98049435D01*
X151850090Y-98144938D01*
X151898947Y-98229561D01*
X151915420Y-98297460D01*
X151892568Y-98363487D01*
X151837647Y-98406677D01*
X151768093Y-98413319D01*
X151729562Y-98398947D01*
X151644938Y-98350090D01*
X151549435Y-98324500D01*
X151450565Y-98324500D01*
X151355062Y-98350090D01*
X151355060Y-98350091D01*
X151355059Y-98350091D01*
X151269436Y-98399526D01*
X151199526Y-98469436D01*
X151150091Y-98555059D01*
X151150091Y-98555060D01*
X151150090Y-98555062D01*
X151124500Y-98650565D01*
X151124500Y-98749435D01*
X151150090Y-98844938D01*
X151198947Y-98929561D01*
X151215420Y-98997460D01*
X151192568Y-99063487D01*
X151137647Y-99106677D01*
X151068093Y-99113319D01*
X151029562Y-99098947D01*
X150944938Y-99050090D01*
X150849435Y-99024500D01*
X150750565Y-99024500D01*
X150655062Y-99050090D01*
X150655060Y-99050091D01*
X150655059Y-99050091D01*
X150569436Y-99099526D01*
X150499526Y-99169436D01*
X150450091Y-99255059D01*
X150450091Y-99255060D01*
X150450090Y-99255062D01*
X150424500Y-99350565D01*
X150424500Y-99350567D01*
X150424500Y-99380500D01*
X150404815Y-99447539D01*
X150352011Y-99493294D01*
X150300500Y-99504500D01*
X148545478Y-99504500D01*
X148478439Y-99484815D01*
X148457797Y-99468181D01*
X147410618Y-98421002D01*
X147377133Y-98359679D01*
X147375629Y-98351049D01*
X147375500Y-98350567D01*
X147375500Y-98350565D01*
X147349910Y-98255062D01*
X147300475Y-98169438D01*
X147230562Y-98099525D01*
X147144938Y-98050090D01*
X147049435Y-98024500D01*
X146950565Y-98024500D01*
X146855062Y-98050090D01*
X146855060Y-98050091D01*
X146855059Y-98050091D01*
X146769436Y-98099526D01*
X146699526Y-98169436D01*
X146650091Y-98255059D01*
X146650091Y-98255060D01*
X146650090Y-98255062D01*
X146624500Y-98350565D01*
X146624500Y-98449435D01*
X146650090Y-98544938D01*
X146650091Y-98544939D01*
X146650091Y-98544940D01*
X146663337Y-98567882D01*
X146699525Y-98630562D01*
X146769438Y-98700475D01*
X146855062Y-98749910D01*
X146950565Y-98775500D01*
X146950568Y-98775500D01*
X146958416Y-98777603D01*
X146958008Y-98779123D01*
X147013396Y-98803620D01*
X147021002Y-98810617D01*
X147657923Y-99447539D01*
X148223942Y-100013558D01*
X148223944Y-100013560D01*
X148302257Y-100045997D01*
X148325200Y-100055500D01*
X148325202Y-100055500D01*
X155270779Y-100055500D01*
X155270780Y-100055500D01*
X155372038Y-100013557D01*
X155449537Y-99936058D01*
X155449536Y-99936058D01*
X155508105Y-99877489D01*
X155508104Y-99877489D01*
X159133557Y-96252039D01*
X159154915Y-96200475D01*
X159175500Y-96150780D01*
X159175500Y-72045200D01*
X159133557Y-71943942D01*
X159133557Y-71943941D01*
X158410618Y-71221002D01*
X158377133Y-71159679D01*
X158375629Y-71151049D01*
X158375500Y-71150567D01*
X158375500Y-71150565D01*
X158349910Y-71055062D01*
X158300475Y-70969438D01*
X158230562Y-70899525D01*
X158144938Y-70850090D01*
X158049435Y-70824500D01*
X157950565Y-70824500D01*
X157855062Y-70850090D01*
X157855060Y-70850091D01*
X157855059Y-70850091D01*
X157769436Y-70899526D01*
X157699526Y-70969436D01*
X157650091Y-71055059D01*
X157650091Y-71055060D01*
X157650090Y-71055062D01*
X157624500Y-71150565D01*
X157624500Y-71249435D01*
X157650090Y-71344938D01*
X157650091Y-71344939D01*
X157650091Y-71344940D01*
X157652686Y-71349435D01*
X157699525Y-71430562D01*
X157769438Y-71500475D01*
X157855062Y-71549910D01*
X157950565Y-71575500D01*
X157950568Y-71575500D01*
X157958416Y-71577603D01*
X157958008Y-71579123D01*
X158013396Y-71603620D01*
X158021003Y-71610618D01*
X158588181Y-72177796D01*
X158621666Y-72239119D01*
X158624500Y-72265477D01*
X158624500Y-73035523D01*
X158604815Y-73102562D01*
X158552011Y-73148317D01*
X158482853Y-73158261D01*
X158419297Y-73129236D01*
X158412819Y-73123204D01*
X156510618Y-71221003D01*
X156477133Y-71159680D01*
X156475630Y-71151052D01*
X156475500Y-71150565D01*
X156449910Y-71055062D01*
X156400475Y-70969438D01*
X156330562Y-70899525D01*
X156244938Y-70850090D01*
X156149435Y-70824500D01*
X156050565Y-70824500D01*
X155955062Y-70850090D01*
X155955060Y-70850091D01*
X155955059Y-70850091D01*
X155869436Y-70899526D01*
X155799526Y-70969436D01*
X155750091Y-71055059D01*
X155750091Y-71055060D01*
X155750090Y-71055062D01*
X155724500Y-71150565D01*
X155724500Y-71249435D01*
X155750090Y-71344938D01*
X155750091Y-71344939D01*
X155750091Y-71344940D01*
X155752686Y-71349435D01*
X155799525Y-71430562D01*
X155869438Y-71500475D01*
X155955062Y-71549910D01*
X156050565Y-71575500D01*
X156050568Y-71575500D01*
X156058416Y-71577603D01*
X156058008Y-71579123D01*
X156113396Y-71603620D01*
X156121003Y-71610618D01*
X158068181Y-73557796D01*
X158101666Y-73619119D01*
X158104500Y-73645477D01*
X158104500Y-84700500D01*
X158084815Y-84767539D01*
X158032011Y-84813294D01*
X157980500Y-84824500D01*
X157950565Y-84824500D01*
X157855062Y-84850090D01*
X157855060Y-84850091D01*
X157855059Y-84850091D01*
X157769436Y-84899526D01*
X157699526Y-84969436D01*
X157650091Y-85055059D01*
X157650091Y-85055060D01*
X157650090Y-85055062D01*
X157624500Y-85150565D01*
X157624500Y-85249435D01*
X157650090Y-85344938D01*
X157650091Y-85344939D01*
X157650091Y-85344940D01*
X157652686Y-85349435D01*
X157699525Y-85430562D01*
X157699526Y-85430563D01*
X157703589Y-85437600D01*
X157702227Y-85438386D01*
X157724070Y-85494881D01*
X157724500Y-85505201D01*
X157724500Y-95534522D01*
X157704815Y-95601561D01*
X157688181Y-95622203D01*
X156587181Y-96723203D01*
X156525858Y-96756688D01*
X156456166Y-96751704D01*
X156400233Y-96709832D01*
X156375816Y-96644368D01*
X156375500Y-96635522D01*
X156375500Y-85505201D01*
X156395185Y-85438162D01*
X156400226Y-85430991D01*
X156400473Y-85430564D01*
X156400475Y-85430562D01*
X156449910Y-85344938D01*
X156475500Y-85249435D01*
X156475500Y-85150565D01*
X156449910Y-85055062D01*
X156400475Y-84969438D01*
X156330562Y-84899525D01*
X156244938Y-84850090D01*
X156149435Y-84824500D01*
X156050565Y-84824500D01*
X155955062Y-84850090D01*
X155955060Y-84850091D01*
X155955059Y-84850091D01*
X155869436Y-84899526D01*
X155799526Y-84969436D01*
X155750091Y-85055059D01*
X155750091Y-85055060D01*
X155750090Y-85055062D01*
X155724500Y-85150565D01*
X155724500Y-85249435D01*
X155750090Y-85344938D01*
X155750091Y-85344939D01*
X155750091Y-85344940D01*
X155752686Y-85349435D01*
X155799525Y-85430562D01*
X155799526Y-85430563D01*
X155803589Y-85437600D01*
X155802227Y-85438386D01*
X155824070Y-85494881D01*
X155824500Y-85505201D01*
X155824500Y-88035522D01*
X155804815Y-88102561D01*
X155752011Y-88148316D01*
X155682853Y-88158260D01*
X155619297Y-88129235D01*
X155612819Y-88123203D01*
X152710618Y-85221002D01*
X152677133Y-85159679D01*
X152675629Y-85151049D01*
X152675500Y-85150567D01*
X152675500Y-85150565D01*
X152649910Y-85055062D01*
X152600475Y-84969438D01*
X152530562Y-84899525D01*
X152444938Y-84850090D01*
X152349435Y-84824500D01*
X152250565Y-84824500D01*
X152155062Y-84850090D01*
X152155060Y-84850091D01*
X152155059Y-84850091D01*
X152069436Y-84899526D01*
X151999526Y-84969436D01*
X151955702Y-85045340D01*
X151905134Y-85093554D01*
X151836527Y-85106776D01*
X151771663Y-85080807D01*
X151760635Y-85071019D01*
X151411819Y-84722203D01*
X151378334Y-84660880D01*
X151375500Y-84634522D01*
X151375500Y-72565477D01*
X151395185Y-72498438D01*
X151411819Y-72477796D01*
X151844416Y-72045199D01*
X152278999Y-71610616D01*
X152340320Y-71577133D01*
X152348947Y-71575630D01*
X152349432Y-71575500D01*
X152349435Y-71575500D01*
X152444938Y-71549910D01*
X152530562Y-71500475D01*
X152600475Y-71430562D01*
X152649910Y-71344938D01*
X152675500Y-71249435D01*
X152675500Y-71150565D01*
X152649910Y-71055062D01*
X152600475Y-70969438D01*
X152530562Y-70899525D01*
X152444938Y-70850090D01*
X152349435Y-70824500D01*
X152250565Y-70824500D01*
X152155062Y-70850090D01*
X152155060Y-70850091D01*
X152155059Y-70850091D01*
X152069436Y-70899526D01*
X151999526Y-70969436D01*
X151950091Y-71055059D01*
X151950091Y-71055060D01*
X151950090Y-71055062D01*
X151924500Y-71150565D01*
X151924500Y-71150567D01*
X151922397Y-71158416D01*
X151920879Y-71158009D01*
X151896366Y-71213410D01*
X151889381Y-71221002D01*
X150943942Y-72166443D01*
X150887181Y-72223204D01*
X150825858Y-72256689D01*
X150756166Y-72251705D01*
X150700233Y-72209833D01*
X150675816Y-72144369D01*
X150675500Y-72135523D01*
X150675500Y-71505201D01*
X150695185Y-71438162D01*
X150700226Y-71430991D01*
X150700471Y-71430565D01*
X150700475Y-71430562D01*
X150749910Y-71344938D01*
X150775500Y-71249435D01*
X150775500Y-71150565D01*
X150749910Y-71055062D01*
X150700475Y-70969438D01*
X150630562Y-70899525D01*
X150544938Y-70850090D01*
X150449435Y-70824500D01*
X150350565Y-70824500D01*
X150255062Y-70850090D01*
X150255060Y-70850091D01*
X150255059Y-70850091D01*
X150169436Y-70899526D01*
X150099526Y-70969436D01*
X150050091Y-71055059D01*
X150050091Y-71055060D01*
X150050090Y-71055062D01*
X150024500Y-71150565D01*
X150024500Y-71249435D01*
X150050090Y-71344938D01*
X150050091Y-71344939D01*
X150050091Y-71344940D01*
X150052686Y-71349435D01*
X150099525Y-71430562D01*
X150099526Y-71430563D01*
X150103589Y-71437600D01*
X150102227Y-71438386D01*
X150124070Y-71494881D01*
X150124500Y-71505201D01*
X150124500Y-84654800D01*
X150166443Y-84756058D01*
X150166444Y-84756059D01*
X150171020Y-84760635D01*
X150204505Y-84821958D01*
X150199521Y-84891650D01*
X150157649Y-84947583D01*
X150145340Y-84955703D01*
X150069435Y-84999527D01*
X149999526Y-85069436D01*
X149950091Y-85155059D01*
X149950091Y-85155060D01*
X149950090Y-85155062D01*
X149924500Y-85250565D01*
X149924500Y-85349435D01*
X149950090Y-85444938D01*
X149999525Y-85530562D01*
X149999526Y-85530563D01*
X150003589Y-85537600D01*
X150002227Y-85538386D01*
X150024070Y-85594881D01*
X150024500Y-85605201D01*
X150024500Y-89496101D01*
X150004815Y-89563140D01*
X149952011Y-89608895D01*
X149882853Y-89618839D01*
X149819297Y-89589814D01*
X149802126Y-89571590D01*
X149800473Y-89569436D01*
X149730563Y-89499526D01*
X149730562Y-89499525D01*
X149644938Y-89450090D01*
X149549435Y-89424500D01*
X149450565Y-89424500D01*
X149355062Y-89450090D01*
X149355060Y-89450091D01*
X149355059Y-89450091D01*
X149269436Y-89499526D01*
X149199526Y-89569436D01*
X149150091Y-89655059D01*
X149150090Y-89655060D01*
X149137842Y-89700771D01*
X149128094Y-89737154D01*
X149127405Y-89739724D01*
X149091039Y-89799384D01*
X149039724Y-89827404D01*
X149027938Y-89830563D01*
X148955060Y-89850090D01*
X148955059Y-89850091D01*
X148869436Y-89899526D01*
X148799526Y-89969436D01*
X148750091Y-90055059D01*
X148750091Y-90055060D01*
X148750090Y-90055062D01*
X148724500Y-90150565D01*
X148724500Y-90249435D01*
X148750090Y-90344938D01*
X148750091Y-90344939D01*
X148750091Y-90344940D01*
X148753065Y-90350091D01*
X148799525Y-90430562D01*
X148869438Y-90500475D01*
X148955062Y-90549910D01*
X149050565Y-90575500D01*
X149050567Y-90575500D01*
X149149432Y-90575500D01*
X149149435Y-90575500D01*
X149244938Y-90549910D01*
X149330562Y-90500475D01*
X149400475Y-90430562D01*
X149449910Y-90344938D01*
X149472596Y-90260272D01*
X149508958Y-90200616D01*
X149560271Y-90172596D01*
X149644938Y-90149910D01*
X149730562Y-90100475D01*
X149800475Y-90030562D01*
X149800478Y-90030555D01*
X149802122Y-90028415D01*
X149803975Y-90027061D01*
X149806222Y-90024815D01*
X149806572Y-90025165D01*
X149858548Y-89987210D01*
X149928294Y-89983053D01*
X149989215Y-90017263D01*
X150021970Y-90078979D01*
X150024500Y-90103898D01*
X150024500Y-93434522D01*
X150004815Y-93501561D01*
X149988181Y-93522203D01*
X146321003Y-97189381D01*
X146259680Y-97222866D01*
X146251053Y-97224369D01*
X146218283Y-97233149D01*
X146155062Y-97250090D01*
X146155060Y-97250091D01*
X146155059Y-97250091D01*
X146069436Y-97299526D01*
X145999526Y-97369436D01*
X145950091Y-97455059D01*
X145950091Y-97455060D01*
X145950090Y-97455062D01*
X145924500Y-97550565D01*
X130039050Y-97550565D01*
X136833557Y-90756058D01*
X136845382Y-90727510D01*
X136875500Y-90654800D01*
X136875500Y-73045200D01*
X136858849Y-73005000D01*
X136833560Y-72943944D01*
X135110618Y-71221002D01*
X135077133Y-71159679D01*
X135075629Y-71151049D01*
X135075500Y-71150567D01*
X135075500Y-71150565D01*
X138324500Y-71150565D01*
X138324500Y-71249435D01*
X138350090Y-71344938D01*
X138350091Y-71344939D01*
X138350091Y-71344940D01*
X138352686Y-71349435D01*
X138399525Y-71430562D01*
X138469438Y-71500475D01*
X138555062Y-71549910D01*
X138650565Y-71575500D01*
X138650568Y-71575500D01*
X138658416Y-71577603D01*
X138658008Y-71579123D01*
X138713396Y-71603620D01*
X138721003Y-71610618D01*
X147488181Y-80377796D01*
X147521666Y-80439119D01*
X147524500Y-80465477D01*
X147524500Y-84835522D01*
X147504815Y-84902561D01*
X147452011Y-84948316D01*
X147382853Y-84958260D01*
X147319297Y-84929235D01*
X147312819Y-84923203D01*
X146556059Y-84166444D01*
X146556058Y-84166443D01*
X146528582Y-84155062D01*
X146454800Y-84124500D01*
X139554800Y-84124500D01*
X139445200Y-84124500D01*
X139445199Y-84124500D01*
X139343940Y-84166444D01*
X138721003Y-84789381D01*
X138659680Y-84822866D01*
X138651053Y-84824369D01*
X138618283Y-84833149D01*
X138555062Y-84850090D01*
X138555060Y-84850091D01*
X138555059Y-84850091D01*
X138469436Y-84899526D01*
X138399526Y-84969436D01*
X138350091Y-85055059D01*
X138350091Y-85055060D01*
X138350090Y-85055062D01*
X138324500Y-85150565D01*
X138324500Y-85249435D01*
X138350090Y-85344938D01*
X138350091Y-85344939D01*
X138350091Y-85344940D01*
X138363337Y-85367882D01*
X138399525Y-85430562D01*
X138469438Y-85500475D01*
X138555062Y-85549910D01*
X138650565Y-85575500D01*
X138650567Y-85575500D01*
X138749432Y-85575500D01*
X138749435Y-85575500D01*
X138844938Y-85549910D01*
X138930562Y-85500475D01*
X139000475Y-85430562D01*
X139049910Y-85344938D01*
X139075500Y-85249435D01*
X139075500Y-85249432D01*
X139077603Y-85241584D01*
X139079122Y-85241991D01*
X139103619Y-85186604D01*
X139110606Y-85179008D01*
X139577796Y-84711819D01*
X139639119Y-84678334D01*
X139665477Y-84675500D01*
X140296102Y-84675500D01*
X140363141Y-84695185D01*
X140408896Y-84747989D01*
X140418840Y-84817147D01*
X140389815Y-84880703D01*
X140371585Y-84897878D01*
X140369436Y-84899526D01*
X140299526Y-84969436D01*
X140250091Y-85055059D01*
X140250091Y-85055060D01*
X140250090Y-85055062D01*
X140224500Y-85150565D01*
X140224500Y-85249435D01*
X140250090Y-85344938D01*
X140250091Y-85344939D01*
X140250091Y-85344940D01*
X140252686Y-85349435D01*
X140299525Y-85430562D01*
X140299526Y-85430563D01*
X140303589Y-85437600D01*
X140302227Y-85438386D01*
X140324070Y-85494881D01*
X140324500Y-85505201D01*
X140324500Y-91954800D01*
X140349846Y-92015989D01*
X140366443Y-92056058D01*
X143689381Y-95378996D01*
X143722866Y-95440319D01*
X143724369Y-95448943D01*
X143724500Y-95449431D01*
X143724500Y-95449435D01*
X143750090Y-95544938D01*
X143750091Y-95544939D01*
X143750091Y-95544940D01*
X143753065Y-95550091D01*
X143799525Y-95630562D01*
X143869438Y-95700475D01*
X143955062Y-95749910D01*
X144050565Y-95775500D01*
X144050567Y-95775500D01*
X144149432Y-95775500D01*
X144149435Y-95775500D01*
X144244938Y-95749910D01*
X144329562Y-95701052D01*
X144388462Y-95686761D01*
X144386680Y-95668093D01*
X144391017Y-95656463D01*
X144391285Y-95650927D01*
X144395054Y-95645640D01*
X144401051Y-95629564D01*
X144449910Y-95544938D01*
X144475500Y-95449435D01*
X144475500Y-95350565D01*
X144449910Y-95255062D01*
X144400475Y-95169438D01*
X144330562Y-95099525D01*
X144244938Y-95050090D01*
X144149435Y-95024500D01*
X144149432Y-95024500D01*
X144141584Y-95022397D01*
X144141990Y-95020879D01*
X144086590Y-94996368D01*
X144078997Y-94989381D01*
X140911819Y-91822203D01*
X140878334Y-91760880D01*
X140875500Y-91734522D01*
X140875500Y-85505201D01*
X140895185Y-85438162D01*
X140900226Y-85430991D01*
X140900473Y-85430564D01*
X140900475Y-85430562D01*
X140949910Y-85344938D01*
X140975500Y-85249435D01*
X140975500Y-85150565D01*
X140949910Y-85055062D01*
X140900475Y-84969438D01*
X140830562Y-84899525D01*
X140830560Y-84899524D01*
X140828415Y-84897878D01*
X140827061Y-84896024D01*
X140824815Y-84893778D01*
X140825165Y-84893427D01*
X140787210Y-84841452D01*
X140783053Y-84771706D01*
X140817263Y-84710785D01*
X140878979Y-84678030D01*
X140903898Y-84675500D01*
X144096102Y-84675500D01*
X144163141Y-84695185D01*
X144208896Y-84747989D01*
X144218840Y-84817147D01*
X144189815Y-84880703D01*
X144171585Y-84897878D01*
X144169436Y-84899526D01*
X144099526Y-84969436D01*
X144050091Y-85055059D01*
X144050091Y-85055060D01*
X144050090Y-85055062D01*
X144024500Y-85150565D01*
X144024500Y-85150567D01*
X144022397Y-85158416D01*
X144020879Y-85158009D01*
X143996368Y-85213410D01*
X143989383Y-85221002D01*
X143966443Y-85243942D01*
X143924500Y-85345199D01*
X143924500Y-91194798D01*
X143904815Y-91261837D01*
X143899773Y-91269007D01*
X143850091Y-91355059D01*
X143850091Y-91355060D01*
X143850090Y-91355062D01*
X143824500Y-91450565D01*
X143824500Y-91549435D01*
X143850090Y-91644938D01*
X143899525Y-91730562D01*
X143969438Y-91800475D01*
X144055062Y-91849910D01*
X144150565Y-91875500D01*
X144150567Y-91875500D01*
X144249432Y-91875500D01*
X144249435Y-91875500D01*
X144344938Y-91849910D01*
X144430562Y-91800475D01*
X144500475Y-91730562D01*
X144549910Y-91644938D01*
X144575500Y-91549435D01*
X144575500Y-91450565D01*
X144549910Y-91355062D01*
X144501050Y-91270435D01*
X144484579Y-91202540D01*
X144507431Y-91136513D01*
X144562352Y-91093322D01*
X144631905Y-91086680D01*
X144670432Y-91101049D01*
X144755062Y-91149910D01*
X144850565Y-91175500D01*
X144850567Y-91175500D01*
X144949432Y-91175500D01*
X144949435Y-91175500D01*
X145044938Y-91149910D01*
X145130562Y-91100475D01*
X145200475Y-91030562D01*
X145249910Y-90944938D01*
X145275500Y-90849435D01*
X145275500Y-90750565D01*
X145249910Y-90655062D01*
X145200475Y-90569438D01*
X145200473Y-90569436D01*
X145196411Y-90562400D01*
X145197770Y-90561615D01*
X145192878Y-90548959D01*
X145180523Y-90529733D01*
X145177606Y-90509445D01*
X145175929Y-90505107D01*
X145175500Y-90494798D01*
X145175500Y-90403107D01*
X145195185Y-90336068D01*
X145247989Y-90290313D01*
X145317147Y-90280369D01*
X145360994Y-90298845D01*
X145362400Y-90296411D01*
X145369436Y-90300473D01*
X145369438Y-90300475D01*
X145455062Y-90349910D01*
X145550565Y-90375500D01*
X145550567Y-90375500D01*
X145649432Y-90375500D01*
X145649435Y-90375500D01*
X145744938Y-90349910D01*
X145830562Y-90300475D01*
X145900475Y-90230562D01*
X145949910Y-90144938D01*
X145975500Y-90049435D01*
X145975500Y-89950565D01*
X145949910Y-89855062D01*
X145900475Y-89769438D01*
X145830562Y-89699525D01*
X145744938Y-89650090D01*
X145649435Y-89624500D01*
X145550565Y-89624500D01*
X145455062Y-89650090D01*
X145455060Y-89650091D01*
X145455059Y-89650091D01*
X145404593Y-89679228D01*
X145369438Y-89699525D01*
X145369436Y-89699526D01*
X145362400Y-89703589D01*
X145360773Y-89700771D01*
X145309766Y-89720466D01*
X145241327Y-89706399D01*
X145191357Y-89657565D01*
X145175500Y-89596892D01*
X145175500Y-89250565D01*
X146024500Y-89250565D01*
X146024500Y-89349435D01*
X146050090Y-89444938D01*
X146050091Y-89444939D01*
X146050091Y-89444940D01*
X146053065Y-89450091D01*
X146099525Y-89530562D01*
X146169438Y-89600475D01*
X146255062Y-89649910D01*
X146350565Y-89675500D01*
X146350567Y-89675500D01*
X146449432Y-89675500D01*
X146449435Y-89675500D01*
X146544938Y-89649910D01*
X146630562Y-89600475D01*
X146700475Y-89530562D01*
X146749910Y-89444938D01*
X146775500Y-89349435D01*
X146775500Y-89250565D01*
X146749910Y-89155062D01*
X146700475Y-89069438D01*
X146630562Y-88999525D01*
X146544938Y-88950090D01*
X146449435Y-88924500D01*
X146350565Y-88924500D01*
X146255062Y-88950090D01*
X146255060Y-88950091D01*
X146255059Y-88950091D01*
X146169436Y-88999526D01*
X146099526Y-89069436D01*
X146050091Y-89155059D01*
X146050091Y-89155060D01*
X146050090Y-89155062D01*
X146024500Y-89250565D01*
X145175500Y-89250565D01*
X145175500Y-86765477D01*
X145195185Y-86698438D01*
X145211819Y-86677796D01*
X145737910Y-86151705D01*
X146278998Y-85610616D01*
X146340319Y-85577133D01*
X146348954Y-85575627D01*
X146349428Y-85575500D01*
X146349435Y-85575500D01*
X146444938Y-85549910D01*
X146530562Y-85500475D01*
X146600475Y-85430562D01*
X146600478Y-85430555D01*
X146602122Y-85428415D01*
X146603975Y-85427061D01*
X146606222Y-85424815D01*
X146606572Y-85425165D01*
X146658548Y-85387210D01*
X146728294Y-85383053D01*
X146789215Y-85417263D01*
X146821970Y-85478979D01*
X146824500Y-85503898D01*
X146824500Y-88194798D01*
X146804815Y-88261837D01*
X146799773Y-88269007D01*
X146750091Y-88355059D01*
X146750091Y-88355060D01*
X146750090Y-88355062D01*
X146724500Y-88450565D01*
X146724500Y-88549435D01*
X146750090Y-88644938D01*
X146799525Y-88730562D01*
X146869438Y-88800475D01*
X146955062Y-88849910D01*
X147050565Y-88875500D01*
X147050567Y-88875500D01*
X147149432Y-88875500D01*
X147149435Y-88875500D01*
X147244938Y-88849910D01*
X147330562Y-88800475D01*
X147330563Y-88800473D01*
X147337600Y-88796411D01*
X147339233Y-88799240D01*
X147390148Y-88779540D01*
X147458597Y-88793559D01*
X147508600Y-88842359D01*
X147524500Y-88903107D01*
X147524500Y-92934522D01*
X147504815Y-93001561D01*
X147488181Y-93022203D01*
X144821003Y-95689381D01*
X144779333Y-95716848D01*
X144760183Y-95724500D01*
X144750565Y-95724500D01*
X144655062Y-95750090D01*
X144569438Y-95799525D01*
X144567449Y-95801513D01*
X144554450Y-95806708D01*
X144528181Y-95809199D01*
X144511536Y-95813237D01*
X144513319Y-95831905D01*
X144498947Y-95870439D01*
X144450091Y-95955059D01*
X144450091Y-95955060D01*
X144450090Y-95955062D01*
X144424500Y-96050565D01*
X144424500Y-96149435D01*
X144450090Y-96244938D01*
X144450091Y-96244939D01*
X144450091Y-96244940D01*
X144453339Y-96250565D01*
X144499525Y-96330562D01*
X144569438Y-96400475D01*
X144655062Y-96449910D01*
X144750565Y-96475500D01*
X144750567Y-96475500D01*
X144849432Y-96475500D01*
X144849435Y-96475500D01*
X144944938Y-96449910D01*
X145030562Y-96400475D01*
X145100475Y-96330562D01*
X145149910Y-96244938D01*
X145175500Y-96149435D01*
X145175500Y-96149432D01*
X145177603Y-96141584D01*
X145179122Y-96141991D01*
X145181103Y-96137512D01*
X145182117Y-96123343D01*
X145194954Y-96106193D01*
X145203619Y-96086604D01*
X145210606Y-96079008D01*
X147612819Y-93676796D01*
X147674142Y-93643311D01*
X147743834Y-93648295D01*
X147799767Y-93690167D01*
X147824184Y-93755631D01*
X147824500Y-93764477D01*
X147824500Y-94034522D01*
X147804815Y-94101561D01*
X147788181Y-94122203D01*
X145521003Y-96389381D01*
X145513057Y-96393719D01*
X145507632Y-96400967D01*
X145476748Y-96413545D01*
X145459680Y-96422866D01*
X145457300Y-96422695D01*
X145412722Y-96434639D01*
X145355062Y-96450090D01*
X145355060Y-96450091D01*
X145355059Y-96450091D01*
X145284575Y-96490785D01*
X145284573Y-96490786D01*
X145269438Y-96499525D01*
X145199525Y-96569438D01*
X145190786Y-96584573D01*
X145190785Y-96584575D01*
X145150091Y-96655059D01*
X145150091Y-96655060D01*
X145150090Y-96655062D01*
X145124500Y-96750565D01*
X145124500Y-96849435D01*
X145150090Y-96944938D01*
X145150091Y-96944939D01*
X145150091Y-96944940D01*
X145153065Y-96950091D01*
X145199525Y-97030562D01*
X145269438Y-97100475D01*
X145355062Y-97149910D01*
X145450565Y-97175500D01*
X145450567Y-97175500D01*
X145549432Y-97175500D01*
X145549435Y-97175500D01*
X145644938Y-97149910D01*
X145730562Y-97100475D01*
X145800475Y-97030562D01*
X145849910Y-96944938D01*
X145875500Y-96849435D01*
X145875500Y-96849432D01*
X145877603Y-96841584D01*
X145879122Y-96841991D01*
X145903619Y-96786604D01*
X145910606Y-96779008D01*
X148333557Y-94356059D01*
X148345841Y-94326400D01*
X148375500Y-94254800D01*
X148375500Y-78645200D01*
X148362115Y-78612886D01*
X148333558Y-78543942D01*
X141010618Y-71221002D01*
X140977133Y-71159679D01*
X140975629Y-71151049D01*
X140975500Y-71150567D01*
X140975500Y-71150565D01*
X144024500Y-71150565D01*
X144024500Y-71249435D01*
X144050090Y-71344938D01*
X144050091Y-71344939D01*
X144050091Y-71344940D01*
X144052686Y-71349435D01*
X144099525Y-71430562D01*
X144169438Y-71500475D01*
X144255062Y-71549910D01*
X144350565Y-71575500D01*
X144350567Y-71575500D01*
X144449432Y-71575500D01*
X144449435Y-71575500D01*
X144544938Y-71549910D01*
X144630562Y-71500475D01*
X144700475Y-71430562D01*
X144749910Y-71344938D01*
X144775500Y-71249435D01*
X144775500Y-71150565D01*
X145924500Y-71150565D01*
X145924500Y-71249435D01*
X145950090Y-71344938D01*
X145950091Y-71344939D01*
X145950091Y-71344940D01*
X145952686Y-71349435D01*
X145999525Y-71430562D01*
X146069438Y-71500475D01*
X146155062Y-71549910D01*
X146250565Y-71575500D01*
X146250567Y-71575500D01*
X146349432Y-71575500D01*
X146349435Y-71575500D01*
X146444938Y-71549910D01*
X146530562Y-71500475D01*
X146600475Y-71430562D01*
X146649910Y-71344938D01*
X146675500Y-71249435D01*
X146675500Y-71150565D01*
X146649910Y-71055062D01*
X146600475Y-70969438D01*
X146530562Y-70899525D01*
X146444938Y-70850090D01*
X146349435Y-70824500D01*
X146250565Y-70824500D01*
X146155062Y-70850090D01*
X146155060Y-70850091D01*
X146155059Y-70850091D01*
X146069436Y-70899526D01*
X145999526Y-70969436D01*
X145950091Y-71055059D01*
X145950091Y-71055060D01*
X145950090Y-71055062D01*
X145924500Y-71150565D01*
X144775500Y-71150565D01*
X144749910Y-71055062D01*
X144700475Y-70969438D01*
X144630562Y-70899525D01*
X144544938Y-70850090D01*
X144449435Y-70824500D01*
X144350565Y-70824500D01*
X144255062Y-70850090D01*
X144255060Y-70850091D01*
X144255059Y-70850091D01*
X144169436Y-70899526D01*
X144099526Y-70969436D01*
X144050091Y-71055059D01*
X144050091Y-71055060D01*
X144050090Y-71055062D01*
X144024500Y-71150565D01*
X140975500Y-71150565D01*
X140949910Y-71055062D01*
X140900475Y-70969438D01*
X140830562Y-70899525D01*
X140744938Y-70850090D01*
X140649435Y-70824500D01*
X140550565Y-70824500D01*
X140455062Y-70850090D01*
X140455060Y-70850091D01*
X140455059Y-70850091D01*
X140369436Y-70899526D01*
X140299526Y-70969436D01*
X140250091Y-71055059D01*
X140250091Y-71055060D01*
X140250090Y-71055062D01*
X140224500Y-71150565D01*
X140224500Y-71249435D01*
X140250090Y-71344938D01*
X140250091Y-71344939D01*
X140250091Y-71344940D01*
X140252686Y-71349435D01*
X140299525Y-71430562D01*
X140369438Y-71500475D01*
X140455062Y-71549910D01*
X140550565Y-71575500D01*
X140550568Y-71575500D01*
X140558416Y-71577603D01*
X140558008Y-71579123D01*
X140613396Y-71603620D01*
X140621003Y-71610618D01*
X147788181Y-78777796D01*
X147821666Y-78839119D01*
X147824500Y-78865477D01*
X147824500Y-79635522D01*
X147804815Y-79702561D01*
X147752011Y-79748316D01*
X147682853Y-79758260D01*
X147619297Y-79729235D01*
X147612819Y-79723203D01*
X139110618Y-71221002D01*
X139077133Y-71159679D01*
X139075629Y-71151049D01*
X139075500Y-71150567D01*
X139075500Y-71150565D01*
X139049910Y-71055062D01*
X139000475Y-70969438D01*
X138930562Y-70899525D01*
X138844938Y-70850090D01*
X138749435Y-70824500D01*
X138650565Y-70824500D01*
X138555062Y-70850090D01*
X138555060Y-70850091D01*
X138555059Y-70850091D01*
X138469436Y-70899526D01*
X138399526Y-70969436D01*
X138350091Y-71055059D01*
X138350091Y-71055060D01*
X138350090Y-71055062D01*
X138324500Y-71150565D01*
X135075500Y-71150565D01*
X135049910Y-71055062D01*
X135000475Y-70969438D01*
X134930562Y-70899525D01*
X134844938Y-70850090D01*
X134749435Y-70824500D01*
X134650565Y-70824500D01*
X134555062Y-70850090D01*
X134555060Y-70850091D01*
X134555059Y-70850091D01*
X134469436Y-70899526D01*
X134399526Y-70969436D01*
X134350091Y-71055059D01*
X134350091Y-71055060D01*
X134350090Y-71055062D01*
X134324500Y-71150565D01*
X134324500Y-71249435D01*
X134350090Y-71344938D01*
X134350091Y-71344939D01*
X134350091Y-71344940D01*
X134352686Y-71349435D01*
X134399525Y-71430562D01*
X134469438Y-71500475D01*
X134555062Y-71549910D01*
X134650565Y-71575500D01*
X134650568Y-71575500D01*
X134658416Y-71577603D01*
X134658008Y-71579123D01*
X134713396Y-71603620D01*
X134721003Y-71610618D01*
X136288181Y-73177796D01*
X136321666Y-73239119D01*
X136324500Y-73265477D01*
X136324500Y-74035522D01*
X136304815Y-74102561D01*
X136252011Y-74148316D01*
X136182853Y-74158260D01*
X136119297Y-74129235D01*
X136112819Y-74123203D01*
X133210618Y-71221002D01*
X133177133Y-71159679D01*
X133175629Y-71151049D01*
X133175500Y-71150567D01*
X133175500Y-71150565D01*
X133149910Y-71055062D01*
X133100475Y-70969438D01*
X133030562Y-70899525D01*
X132944938Y-70850090D01*
X132849435Y-70824500D01*
X132750565Y-70824500D01*
X132655062Y-70850090D01*
X132655060Y-70850091D01*
X132655059Y-70850091D01*
X132569436Y-70899526D01*
X132499526Y-70969436D01*
X132450091Y-71055059D01*
X132450091Y-71055060D01*
X132450090Y-71055062D01*
X132424500Y-71150565D01*
X132424500Y-71249435D01*
X132450090Y-71344938D01*
X132450091Y-71344939D01*
X132450091Y-71344940D01*
X132452686Y-71349435D01*
X132499525Y-71430562D01*
X132569438Y-71500475D01*
X132655062Y-71549910D01*
X132750565Y-71575500D01*
X132750568Y-71575500D01*
X132758416Y-71577603D01*
X132758008Y-71579123D01*
X132813396Y-71603620D01*
X132821003Y-71610618D01*
X135968181Y-74757796D01*
X136001666Y-74819119D01*
X136004500Y-74845477D01*
X136004500Y-77515523D01*
X135984815Y-77582562D01*
X135932011Y-77628317D01*
X135862853Y-77638261D01*
X135799297Y-77609236D01*
X135792819Y-77603204D01*
X129410618Y-71221003D01*
X129377133Y-71159680D01*
X129375630Y-71151052D01*
X129375500Y-71150565D01*
X129349910Y-71055062D01*
X129300475Y-70969438D01*
X129230562Y-70899525D01*
X129144938Y-70850090D01*
X129049435Y-70824500D01*
X128950565Y-70824500D01*
X128855062Y-70850090D01*
X128855060Y-70850091D01*
X128855059Y-70850091D01*
X128769436Y-70899526D01*
X128699526Y-70969436D01*
X128650091Y-71055059D01*
X128650091Y-71055060D01*
X128650090Y-71055062D01*
X128624500Y-71150565D01*
X128624500Y-71249435D01*
X128650090Y-71344938D01*
X128650091Y-71344939D01*
X128650091Y-71344940D01*
X128652686Y-71349435D01*
X128699525Y-71430562D01*
X128769438Y-71500475D01*
X128855062Y-71549910D01*
X128950565Y-71575500D01*
X128950568Y-71575500D01*
X128958416Y-71577603D01*
X128958008Y-71579123D01*
X129013396Y-71603620D01*
X129021003Y-71610618D01*
X135688181Y-78277796D01*
X135721666Y-78339119D01*
X135724500Y-78365477D01*
X135724500Y-79135522D01*
X135704815Y-79202561D01*
X135652011Y-79248316D01*
X135582853Y-79258260D01*
X135519297Y-79229235D01*
X135512819Y-79223203D01*
X127510618Y-71221002D01*
X127477133Y-71159679D01*
X127475629Y-71151049D01*
X127475500Y-71150567D01*
X127475500Y-71150565D01*
X127449910Y-71055062D01*
X127400475Y-70969438D01*
X127330562Y-70899525D01*
X127244938Y-70850090D01*
X127149435Y-70824500D01*
X127050565Y-70824500D01*
X126955062Y-70850090D01*
X126955060Y-70850091D01*
X126955059Y-70850091D01*
X126869436Y-70899526D01*
X126799526Y-70969436D01*
X126750091Y-71055059D01*
X126750091Y-71055060D01*
X126750090Y-71055062D01*
X126724500Y-71150565D01*
X126724500Y-71249435D01*
X126750090Y-71344938D01*
X126750091Y-71344939D01*
X126750091Y-71344940D01*
X126752686Y-71349435D01*
X126799525Y-71430562D01*
X126869438Y-71500475D01*
X126955062Y-71549910D01*
X127050565Y-71575500D01*
X127050568Y-71575500D01*
X127058416Y-71577603D01*
X127058008Y-71579123D01*
X127113396Y-71603620D01*
X127121003Y-71610618D01*
X135388181Y-79877796D01*
X135421666Y-79939119D01*
X135424500Y-79965477D01*
X135424500Y-89438543D01*
X135404815Y-89505582D01*
X135388181Y-89526224D01*
X134774214Y-90140191D01*
X134717834Y-90172494D01*
X134702439Y-90176510D01*
X134655788Y-90176510D01*
X134584311Y-90206117D01*
X134576429Y-90209381D01*
X134576424Y-90209383D01*
X134554529Y-90218452D01*
X129867181Y-94905801D01*
X129805858Y-94939286D01*
X129736166Y-94934302D01*
X129680233Y-94892430D01*
X129655816Y-94826966D01*
X129655500Y-94818120D01*
X129655500Y-88785477D01*
X129675185Y-88718438D01*
X129691819Y-88697796D01*
X131234556Y-87155059D01*
X132778999Y-85610616D01*
X132840320Y-85577133D01*
X132848947Y-85575630D01*
X132849432Y-85575500D01*
X132849435Y-85575500D01*
X132944938Y-85549910D01*
X133030562Y-85500475D01*
X133100475Y-85430562D01*
X133149910Y-85344938D01*
X133175500Y-85249435D01*
X133175500Y-85150565D01*
X133149910Y-85055062D01*
X133100475Y-84969438D01*
X133030562Y-84899525D01*
X133030560Y-84899524D01*
X133028415Y-84897878D01*
X133027061Y-84896024D01*
X133024815Y-84893778D01*
X133025165Y-84893427D01*
X132987210Y-84841452D01*
X132983053Y-84771706D01*
X133017263Y-84710785D01*
X133078979Y-84678030D01*
X133103898Y-84675500D01*
X133734523Y-84675500D01*
X133801562Y-84695185D01*
X133822204Y-84711819D01*
X134289381Y-85178996D01*
X134322866Y-85240319D01*
X134324369Y-85248943D01*
X134324500Y-85249431D01*
X134324500Y-85249435D01*
X134350090Y-85344938D01*
X134350091Y-85344939D01*
X134350091Y-85344940D01*
X134363337Y-85367882D01*
X134399525Y-85430562D01*
X134469438Y-85500475D01*
X134555062Y-85549910D01*
X134650565Y-85575500D01*
X134650567Y-85575500D01*
X134749432Y-85575500D01*
X134749435Y-85575500D01*
X134844938Y-85549910D01*
X134930562Y-85500475D01*
X135000475Y-85430562D01*
X135049910Y-85344938D01*
X135075500Y-85249435D01*
X135075500Y-85150565D01*
X135049910Y-85055062D01*
X135000475Y-84969438D01*
X134930562Y-84899525D01*
X134844938Y-84850090D01*
X134749435Y-84824500D01*
X134749432Y-84824500D01*
X134741584Y-84822397D01*
X134741990Y-84820879D01*
X134686591Y-84796369D01*
X134678996Y-84789381D01*
X134056059Y-84166444D01*
X134056058Y-84166443D01*
X134028582Y-84155062D01*
X133954800Y-84124500D01*
X128945200Y-84124500D01*
X128945199Y-84124500D01*
X128908309Y-84139781D01*
X128871418Y-84155062D01*
X128843942Y-84166443D01*
X128843940Y-84166444D01*
X127886444Y-85123940D01*
X127844500Y-85225199D01*
X127844500Y-91400500D01*
X127824815Y-91467539D01*
X127772011Y-91513294D01*
X127720500Y-91524500D01*
X127650565Y-91524500D01*
X127555062Y-91550090D01*
X127555060Y-91550091D01*
X127555059Y-91550091D01*
X127469436Y-91599526D01*
X127399526Y-91669436D01*
X127350091Y-91755059D01*
X127350091Y-91755060D01*
X127350090Y-91755062D01*
X127324500Y-91850565D01*
X127324500Y-91949435D01*
X127350090Y-92044938D01*
X127399525Y-92130562D01*
X127469438Y-92200475D01*
X127555062Y-92249910D01*
X127650565Y-92275500D01*
X127650567Y-92275500D01*
X127720500Y-92275500D01*
X127787539Y-92295185D01*
X127833294Y-92347989D01*
X127844500Y-92399500D01*
X127844500Y-93214522D01*
X127824815Y-93281561D01*
X127808181Y-93302203D01*
X127543942Y-93566443D01*
X127466444Y-93643940D01*
X127466443Y-93643941D01*
X127466443Y-93643942D01*
X127454159Y-93673596D01*
X127424500Y-93745199D01*
X127424500Y-97694798D01*
X127404815Y-97761837D01*
X127399773Y-97769007D01*
X127350091Y-97855059D01*
X127350091Y-97855060D01*
X127350090Y-97855062D01*
X127324500Y-97950565D01*
X127324500Y-98049435D01*
X127350090Y-98144938D01*
X127398947Y-98229561D01*
X127415420Y-98297460D01*
X127392568Y-98363487D01*
X127337647Y-98406677D01*
X127268093Y-98413319D01*
X127229562Y-98398947D01*
X127144938Y-98350090D01*
X127049435Y-98324500D01*
X126950565Y-98324500D01*
X126855062Y-98350090D01*
X126855060Y-98350091D01*
X126855059Y-98350091D01*
X126769436Y-98399526D01*
X126699526Y-98469436D01*
X126650091Y-98555059D01*
X126650091Y-98555060D01*
X126650090Y-98555062D01*
X126624500Y-98650565D01*
X126624500Y-98650567D01*
X126624500Y-98680500D01*
X126604815Y-98747539D01*
X126552011Y-98793294D01*
X126500500Y-98804500D01*
X123745478Y-98804500D01*
X123678439Y-98784815D01*
X123657797Y-98768181D01*
X123310618Y-98421002D01*
X123277133Y-98359679D01*
X123275629Y-98351049D01*
X123275500Y-98350567D01*
X123275500Y-98350565D01*
X123249910Y-98255062D01*
X123200475Y-98169438D01*
X123130562Y-98099525D01*
X123044938Y-98050090D01*
X122949435Y-98024500D01*
X122850565Y-98024500D01*
X122755062Y-98050090D01*
X122755060Y-98050091D01*
X122755059Y-98050091D01*
X122684575Y-98090785D01*
X122684573Y-98090786D01*
X122669438Y-98099525D01*
X122599525Y-98169438D01*
X122590786Y-98184573D01*
X122590785Y-98184575D01*
X122550091Y-98255059D01*
X122550091Y-98255060D01*
X122550090Y-98255062D01*
X122524500Y-98350565D01*
X98340181Y-98350565D01*
X90211819Y-90222203D01*
X90197115Y-90195275D01*
X90180523Y-90169457D01*
X90179631Y-90163256D01*
X90178334Y-90160880D01*
X90175500Y-90134522D01*
X90175500Y-90003107D01*
X90195185Y-89936068D01*
X90247989Y-89890313D01*
X90317147Y-89880369D01*
X90360994Y-89898845D01*
X90362400Y-89896411D01*
X90369436Y-89900473D01*
X90369438Y-89900475D01*
X90455062Y-89949910D01*
X90550565Y-89975500D01*
X90550567Y-89975500D01*
X90649432Y-89975500D01*
X90649435Y-89975500D01*
X90744938Y-89949910D01*
X90830562Y-89900475D01*
X90900475Y-89830562D01*
X90949910Y-89744938D01*
X90975500Y-89649435D01*
X90975500Y-89550565D01*
X90949910Y-89455062D01*
X90900475Y-89369438D01*
X90830562Y-89299525D01*
X90744938Y-89250090D01*
X90649435Y-89224500D01*
X90550565Y-89224500D01*
X90455062Y-89250090D01*
X90455060Y-89250091D01*
X90455059Y-89250091D01*
X90416146Y-89272558D01*
X90369438Y-89299525D01*
X90369436Y-89299526D01*
X90362400Y-89303589D01*
X90360948Y-89301075D01*
X90351011Y-89309686D01*
X90329778Y-89312739D01*
X90309766Y-89320466D01*
X90295883Y-89317612D01*
X90281853Y-89319630D01*
X90262337Y-89310717D01*
X90241327Y-89306399D01*
X90231191Y-89296493D01*
X90218297Y-89290605D01*
X90206699Y-89272558D01*
X90191357Y-89257565D01*
X90187445Y-89242598D01*
X90180523Y-89231827D01*
X90175500Y-89196892D01*
X90175500Y-89165477D01*
X90195185Y-89098438D01*
X90211819Y-89077796D01*
X90344416Y-88945199D01*
X90478998Y-88810616D01*
X90540320Y-88777133D01*
X90548947Y-88775630D01*
X90549432Y-88775500D01*
X90549435Y-88775500D01*
X90644938Y-88749910D01*
X90730562Y-88700475D01*
X90800475Y-88630562D01*
X90849910Y-88544938D01*
X90875500Y-88449435D01*
X90875500Y-88350565D01*
X90849910Y-88255062D01*
X90800475Y-88169438D01*
X90730562Y-88099525D01*
X90644938Y-88050090D01*
X90549435Y-88024500D01*
X90450565Y-88024500D01*
X90355062Y-88050090D01*
X90355060Y-88050091D01*
X90355059Y-88050091D01*
X90269436Y-88099526D01*
X90199526Y-88169436D01*
X90150091Y-88255059D01*
X90150091Y-88255060D01*
X90150090Y-88255062D01*
X90124500Y-88350565D01*
X90124500Y-88350567D01*
X90122397Y-88358416D01*
X90120879Y-88358009D01*
X90096366Y-88413410D01*
X90089381Y-88421002D01*
X89743942Y-88766443D01*
X89666444Y-88843940D01*
X89666443Y-88843941D01*
X89666443Y-88843942D01*
X89663972Y-88849908D01*
X89627019Y-88939119D01*
X89624500Y-88945200D01*
X55500500Y-88945200D01*
X55500500Y-85450565D01*
X57024500Y-85450565D01*
X57024500Y-85549435D01*
X57050090Y-85644938D01*
X57050091Y-85644939D01*
X57050091Y-85644940D01*
X57059667Y-85661526D01*
X57099525Y-85730562D01*
X57169438Y-85800475D01*
X57255062Y-85849910D01*
X57350565Y-85875500D01*
X57350567Y-85875500D01*
X57449432Y-85875500D01*
X57449435Y-85875500D01*
X57544938Y-85849910D01*
X57630562Y-85800475D01*
X57700475Y-85730562D01*
X57749910Y-85644938D01*
X57775500Y-85549435D01*
X57775500Y-85450565D01*
X57749910Y-85355062D01*
X57700475Y-85269438D01*
X57630562Y-85199525D01*
X57544938Y-85150090D01*
X57449435Y-85124500D01*
X57350565Y-85124500D01*
X57255062Y-85150090D01*
X57255060Y-85150091D01*
X57255059Y-85150091D01*
X57169436Y-85199526D01*
X57099526Y-85269436D01*
X57050091Y-85355059D01*
X57050091Y-85355060D01*
X57050090Y-85355062D01*
X57024500Y-85450565D01*
X55500500Y-85450565D01*
X55500500Y-82581937D01*
X84593128Y-82581937D01*
X84593128Y-82680807D01*
X84618718Y-82776310D01*
X84668153Y-82861934D01*
X84738066Y-82931847D01*
X84823690Y-82981282D01*
X84919193Y-83006872D01*
X84919195Y-83006872D01*
X85018060Y-83006872D01*
X85018063Y-83006872D01*
X85113566Y-82981282D01*
X85199190Y-82931847D01*
X85199191Y-82931845D01*
X85206228Y-82927783D01*
X85207012Y-82929142D01*
X85219668Y-82924250D01*
X85238895Y-82911895D01*
X85259182Y-82908978D01*
X85263521Y-82907301D01*
X85273830Y-82906872D01*
X85465895Y-82906872D01*
X85532934Y-82926557D01*
X85553576Y-82943191D01*
X86371020Y-83760635D01*
X86404505Y-83821958D01*
X86399521Y-83891650D01*
X86357649Y-83947583D01*
X86345340Y-83955703D01*
X86269435Y-83999527D01*
X86199526Y-84069436D01*
X86150091Y-84155059D01*
X86150091Y-84155060D01*
X86150090Y-84155062D01*
X86124500Y-84250565D01*
X86124500Y-84349435D01*
X86150090Y-84444938D01*
X86199525Y-84530562D01*
X86269438Y-84600475D01*
X86355062Y-84649910D01*
X86450565Y-84675500D01*
X86450567Y-84675500D01*
X86549432Y-84675500D01*
X86549435Y-84675500D01*
X86644938Y-84649910D01*
X86730562Y-84600475D01*
X86800475Y-84530562D01*
X86844298Y-84454657D01*
X86894862Y-84406445D01*
X86963469Y-84393221D01*
X87028334Y-84419189D01*
X87039364Y-84428979D01*
X90066443Y-87456058D01*
X90143942Y-87533557D01*
X90245200Y-87575500D01*
X91294798Y-87575500D01*
X91361837Y-87595185D01*
X91369007Y-87600226D01*
X91369437Y-87600474D01*
X91369438Y-87600475D01*
X91455062Y-87649910D01*
X91550565Y-87675500D01*
X91550567Y-87675500D01*
X91649432Y-87675500D01*
X91649435Y-87675500D01*
X91744938Y-87649910D01*
X91830562Y-87600475D01*
X91900475Y-87530562D01*
X91949910Y-87444938D01*
X91975500Y-87349435D01*
X91975500Y-87250565D01*
X91949910Y-87155062D01*
X91900475Y-87069438D01*
X91830562Y-86999525D01*
X91744938Y-86950090D01*
X91649435Y-86924500D01*
X91550565Y-86924500D01*
X91455062Y-86950090D01*
X91455060Y-86950091D01*
X91455059Y-86950091D01*
X91404593Y-86979228D01*
X91369438Y-86999525D01*
X91369436Y-86999526D01*
X91362400Y-87003589D01*
X91361615Y-87002229D01*
X91305107Y-87024071D01*
X91294798Y-87024500D01*
X90465477Y-87024500D01*
X90398438Y-87004815D01*
X90377796Y-86988181D01*
X87331752Y-83942137D01*
X87298267Y-83880814D01*
X87303251Y-83811122D01*
X87345123Y-83755189D01*
X87357415Y-83747081D01*
X87369938Y-83739851D01*
X87439851Y-83669938D01*
X87489286Y-83584314D01*
X87514876Y-83488811D01*
X87514876Y-83389941D01*
X87489286Y-83294438D01*
X87439851Y-83208814D01*
X87369938Y-83138901D01*
X87284314Y-83089466D01*
X87188811Y-83063876D01*
X87089941Y-83063876D01*
X86994438Y-83089466D01*
X86994436Y-83089467D01*
X86994435Y-83089467D01*
X86908812Y-83138902D01*
X86838902Y-83208812D01*
X86831681Y-83221320D01*
X86781113Y-83269535D01*
X86712506Y-83282756D01*
X86647642Y-83256787D01*
X86636614Y-83246999D01*
X85798007Y-82408391D01*
X85764522Y-82347068D01*
X85769506Y-82277376D01*
X85798008Y-82233028D01*
X85800475Y-82230562D01*
X85849910Y-82144938D01*
X85875500Y-82049435D01*
X85875500Y-81950565D01*
X85849910Y-81855062D01*
X85800475Y-81769438D01*
X85730562Y-81699525D01*
X85644938Y-81650090D01*
X85549435Y-81624500D01*
X85450565Y-81624500D01*
X85355062Y-81650090D01*
X85355060Y-81650091D01*
X85355059Y-81650091D01*
X85269436Y-81699526D01*
X85199526Y-81769436D01*
X85150091Y-81855059D01*
X85150091Y-81855060D01*
X85150090Y-81855062D01*
X85124500Y-81950565D01*
X85124500Y-81950567D01*
X85124500Y-82049434D01*
X85137990Y-82099779D01*
X85136327Y-82169628D01*
X85097165Y-82227491D01*
X85032936Y-82254995D01*
X85018215Y-82255872D01*
X85018063Y-82255872D01*
X84919193Y-82255872D01*
X84823690Y-82281462D01*
X84823688Y-82281463D01*
X84823687Y-82281463D01*
X84738064Y-82330898D01*
X84668154Y-82400808D01*
X84618719Y-82486431D01*
X84618719Y-82486432D01*
X84618718Y-82486434D01*
X84593128Y-82581937D01*
X55500500Y-82581937D01*
X55500500Y-81070000D01*
X56301196Y-81070000D01*
X57140382Y-81070000D01*
X57089936Y-81120446D01*
X57047149Y-81194555D01*
X57025000Y-81277213D01*
X57025000Y-81362787D01*
X57047149Y-81445445D01*
X57089936Y-81519554D01*
X57140382Y-81570000D01*
X56301196Y-81570000D01*
X56301469Y-81571726D01*
X56353760Y-81732659D01*
X56430578Y-81883423D01*
X56530038Y-82020316D01*
X56530038Y-82020317D01*
X56649682Y-82139961D01*
X56786576Y-82239421D01*
X56937340Y-82316239D01*
X57098273Y-82368530D01*
X57265391Y-82395000D01*
X57400000Y-82395000D01*
X57400000Y-81645000D01*
X57900000Y-81645000D01*
X57900000Y-82395000D01*
X58034609Y-82395000D01*
X58201726Y-82368530D01*
X58362659Y-82316239D01*
X58513423Y-82239421D01*
X58650316Y-82139961D01*
X58650317Y-82139961D01*
X58769961Y-82020317D01*
X58769961Y-82020316D01*
X58869421Y-81883423D01*
X58946239Y-81732659D01*
X58998530Y-81571726D01*
X58998804Y-81570000D01*
X58159618Y-81570000D01*
X58210064Y-81519554D01*
X58252851Y-81445445D01*
X58275000Y-81362787D01*
X58275000Y-81277213D01*
X58252851Y-81194555D01*
X58210064Y-81120446D01*
X58159618Y-81070000D01*
X58998804Y-81070000D01*
X60101196Y-81070000D01*
X60940382Y-81070000D01*
X60889936Y-81120446D01*
X60847149Y-81194555D01*
X60825000Y-81277213D01*
X60825000Y-81362787D01*
X60847149Y-81445445D01*
X60889936Y-81519554D01*
X60940382Y-81570000D01*
X60101196Y-81570000D01*
X60101469Y-81571726D01*
X60153760Y-81732659D01*
X60230578Y-81883423D01*
X60330038Y-82020316D01*
X60330038Y-82020317D01*
X60449682Y-82139961D01*
X60586576Y-82239421D01*
X60737340Y-82316239D01*
X60898273Y-82368530D01*
X61065391Y-82395000D01*
X61200000Y-82395000D01*
X61200000Y-81645000D01*
X61700000Y-81645000D01*
X61700000Y-82395000D01*
X61834609Y-82395000D01*
X62001726Y-82368530D01*
X62162659Y-82316239D01*
X62313423Y-82239421D01*
X62450316Y-82139961D01*
X62450317Y-82139961D01*
X62569961Y-82020317D01*
X62569961Y-82020316D01*
X62669421Y-81883423D01*
X62686163Y-81850565D01*
X81724500Y-81850565D01*
X81724500Y-81949435D01*
X81750090Y-82044938D01*
X81750091Y-82044939D01*
X81750091Y-82044940D01*
X81752686Y-82049434D01*
X81799525Y-82130562D01*
X81869438Y-82200475D01*
X81955062Y-82249910D01*
X82050565Y-82275500D01*
X82050567Y-82275500D01*
X82149432Y-82275500D01*
X82149435Y-82275500D01*
X82244938Y-82249910D01*
X82330562Y-82200475D01*
X82400475Y-82130562D01*
X82449910Y-82044938D01*
X82475500Y-81949435D01*
X82475500Y-81850565D01*
X82449910Y-81755062D01*
X82400475Y-81669438D01*
X82330562Y-81599525D01*
X82244938Y-81550090D01*
X82149435Y-81524500D01*
X82050565Y-81524500D01*
X81955062Y-81550090D01*
X81955060Y-81550091D01*
X81955059Y-81550091D01*
X81869436Y-81599526D01*
X81799526Y-81669436D01*
X81750091Y-81755059D01*
X81750091Y-81755060D01*
X81750090Y-81755062D01*
X81724500Y-81850565D01*
X62686163Y-81850565D01*
X62718989Y-81786143D01*
X62718990Y-81786141D01*
X62746238Y-81732662D01*
X62798530Y-81571726D01*
X62798804Y-81570000D01*
X61959618Y-81570000D01*
X62010064Y-81519554D01*
X62052851Y-81445445D01*
X62075000Y-81362787D01*
X62075000Y-81277213D01*
X62052851Y-81194555D01*
X62010064Y-81120446D01*
X61959618Y-81070000D01*
X62798804Y-81070000D01*
X62798530Y-81068273D01*
X62746239Y-80907338D01*
X62741855Y-80898734D01*
X62741854Y-80898733D01*
X62717311Y-80850565D01*
X63124500Y-80850565D01*
X63124500Y-80949435D01*
X63150090Y-81044938D01*
X63199525Y-81130562D01*
X63269438Y-81200475D01*
X63355062Y-81249910D01*
X63450565Y-81275500D01*
X63450567Y-81275500D01*
X63549432Y-81275500D01*
X63549435Y-81275500D01*
X63644938Y-81249910D01*
X63730562Y-81200475D01*
X63800475Y-81130562D01*
X63849910Y-81044938D01*
X63875500Y-80949435D01*
X63875500Y-80850565D01*
X63849910Y-80755062D01*
X63800475Y-80669438D01*
X63730562Y-80599525D01*
X63644938Y-80550090D01*
X63549435Y-80524500D01*
X63450565Y-80524500D01*
X63355062Y-80550090D01*
X63355060Y-80550091D01*
X63355059Y-80550091D01*
X63269436Y-80599526D01*
X63199526Y-80669436D01*
X63150091Y-80755059D01*
X63150091Y-80755060D01*
X63150090Y-80755062D01*
X63124500Y-80850565D01*
X62717311Y-80850565D01*
X62669421Y-80756576D01*
X62569961Y-80619683D01*
X62569961Y-80619682D01*
X62450317Y-80500038D01*
X62313423Y-80400578D01*
X62162659Y-80323760D01*
X62001726Y-80271469D01*
X61834609Y-80245000D01*
X61700000Y-80245000D01*
X61700000Y-80995000D01*
X61200000Y-80995000D01*
X61200000Y-80245000D01*
X61065391Y-80245000D01*
X60898273Y-80271469D01*
X60737340Y-80323760D01*
X60586576Y-80400578D01*
X60449683Y-80500038D01*
X60449682Y-80500038D01*
X60330038Y-80619682D01*
X60330038Y-80619683D01*
X60230578Y-80756576D01*
X60153760Y-80907340D01*
X60101469Y-81068273D01*
X60101196Y-81070000D01*
X58998804Y-81070000D01*
X58998530Y-81068273D01*
X58946239Y-80907340D01*
X58869421Y-80756576D01*
X58769961Y-80619683D01*
X58769961Y-80619682D01*
X58650317Y-80500038D01*
X58513423Y-80400578D01*
X58362659Y-80323760D01*
X58201726Y-80271469D01*
X58034609Y-80245000D01*
X57900000Y-80245000D01*
X57900000Y-80995000D01*
X57400000Y-80995000D01*
X57400000Y-80245000D01*
X57265391Y-80245000D01*
X57098273Y-80271469D01*
X56937340Y-80323760D01*
X56786576Y-80400578D01*
X56649683Y-80500038D01*
X56649682Y-80500038D01*
X56530038Y-80619682D01*
X56530038Y-80619683D01*
X56430578Y-80756576D01*
X56353760Y-80907340D01*
X56301469Y-81068273D01*
X56301196Y-81070000D01*
X55500500Y-81070000D01*
X55500500Y-78150565D01*
X60224500Y-78150565D01*
X60224500Y-78249435D01*
X60250090Y-78344938D01*
X60250091Y-78344939D01*
X60250091Y-78344940D01*
X60274952Y-78388000D01*
X60291425Y-78455900D01*
X60274952Y-78512000D01*
X60250091Y-78555059D01*
X60250091Y-78555060D01*
X60250090Y-78555062D01*
X60224500Y-78650565D01*
X60224500Y-78749435D01*
X60250090Y-78844938D01*
X60299525Y-78930562D01*
X60369438Y-79000475D01*
X60455062Y-79049910D01*
X60550565Y-79075500D01*
X60550567Y-79075500D01*
X60649432Y-79075500D01*
X60649435Y-79075500D01*
X60744938Y-79049910D01*
X60830562Y-79000475D01*
X60900475Y-78930562D01*
X60949910Y-78844938D01*
X60975500Y-78749435D01*
X60975500Y-78650565D01*
X60949910Y-78555062D01*
X60947314Y-78550565D01*
X62224500Y-78550565D01*
X62224500Y-78649435D01*
X62250090Y-78744938D01*
X62250091Y-78744939D01*
X62250091Y-78744940D01*
X62252686Y-78749435D01*
X62299525Y-78830562D01*
X62369438Y-78900475D01*
X62455062Y-78949910D01*
X62550565Y-78975500D01*
X62550567Y-78975500D01*
X62649432Y-78975500D01*
X62649435Y-78975500D01*
X62744938Y-78949910D01*
X62830562Y-78900475D01*
X62900475Y-78830562D01*
X62915862Y-78803911D01*
X82377846Y-78803911D01*
X82377846Y-78902781D01*
X82403436Y-78998284D01*
X82452871Y-79083908D01*
X82522784Y-79153821D01*
X82608408Y-79203256D01*
X82703911Y-79228846D01*
X82703913Y-79228846D01*
X82802778Y-79228846D01*
X82802781Y-79228846D01*
X82898284Y-79203256D01*
X82983908Y-79153821D01*
X83053821Y-79083908D01*
X83103256Y-78998284D01*
X83128846Y-78902781D01*
X83128846Y-78803911D01*
X83103256Y-78708408D01*
X83053821Y-78622784D01*
X82983908Y-78552871D01*
X82898284Y-78503436D01*
X82802781Y-78477846D01*
X82703911Y-78477846D01*
X82608408Y-78503436D01*
X82608406Y-78503437D01*
X82608405Y-78503437D01*
X82522782Y-78552872D01*
X82452872Y-78622782D01*
X82403437Y-78708405D01*
X82403437Y-78708406D01*
X82403436Y-78708408D01*
X82377846Y-78803911D01*
X62915862Y-78803911D01*
X62949910Y-78744938D01*
X62975500Y-78649435D01*
X62975500Y-78550565D01*
X62949910Y-78455062D01*
X62900475Y-78369438D01*
X62830562Y-78299525D01*
X62744938Y-78250090D01*
X62649435Y-78224500D01*
X62550565Y-78224500D01*
X62455062Y-78250090D01*
X62455060Y-78250091D01*
X62455059Y-78250091D01*
X62369436Y-78299526D01*
X62299526Y-78369436D01*
X62250091Y-78455059D01*
X62250091Y-78455060D01*
X62250090Y-78455062D01*
X62224500Y-78550565D01*
X60947314Y-78550565D01*
X60922159Y-78506996D01*
X60919756Y-78501765D01*
X60915506Y-78472677D01*
X60908574Y-78444102D01*
X60910416Y-78437827D01*
X60909657Y-78432630D01*
X60916128Y-78418373D01*
X60925046Y-78388002D01*
X60949910Y-78344938D01*
X60975500Y-78249435D01*
X60975500Y-78150565D01*
X60949910Y-78055062D01*
X60900475Y-77969438D01*
X60830562Y-77899525D01*
X60744938Y-77850090D01*
X60649435Y-77824500D01*
X60550565Y-77824500D01*
X60455062Y-77850090D01*
X60455060Y-77850091D01*
X60455059Y-77850091D01*
X60369436Y-77899526D01*
X60299526Y-77969436D01*
X60250091Y-78055059D01*
X60250091Y-78055060D01*
X60250090Y-78055062D01*
X60224500Y-78150565D01*
X55500500Y-78150565D01*
X55500500Y-77550565D01*
X83824500Y-77550565D01*
X83824500Y-77649435D01*
X83850090Y-77744938D01*
X83899525Y-77830562D01*
X83969438Y-77900475D01*
X84055062Y-77949910D01*
X84150565Y-77975500D01*
X84150567Y-77975500D01*
X84249432Y-77975500D01*
X84249435Y-77975500D01*
X84344938Y-77949910D01*
X84430562Y-77900475D01*
X84500475Y-77830562D01*
X84549910Y-77744938D01*
X84575500Y-77649435D01*
X84575500Y-77550565D01*
X84549910Y-77455062D01*
X84547314Y-77450565D01*
X86824500Y-77450565D01*
X86824500Y-77549435D01*
X86850090Y-77644938D01*
X86850091Y-77644939D01*
X86850091Y-77644940D01*
X86852686Y-77649435D01*
X86899525Y-77730562D01*
X86899526Y-77730563D01*
X86903589Y-77737600D01*
X86902227Y-77738386D01*
X86924070Y-77794881D01*
X86924500Y-77805201D01*
X86924500Y-78192202D01*
X86966443Y-78293460D01*
X86966444Y-78293461D01*
X96050779Y-87377796D01*
X96084264Y-87439119D01*
X96087098Y-87465477D01*
X96087098Y-89517398D01*
X96121509Y-89600473D01*
X96122669Y-89603272D01*
X96122669Y-89603273D01*
X96129041Y-89618657D01*
X98299381Y-91788996D01*
X98332866Y-91850319D01*
X98334369Y-91858943D01*
X98334500Y-91859431D01*
X98334500Y-91859435D01*
X98360090Y-91954938D01*
X98409525Y-92040562D01*
X98479438Y-92110475D01*
X98565062Y-92159910D01*
X98660565Y-92185500D01*
X98660567Y-92185500D01*
X98759432Y-92185500D01*
X98759435Y-92185500D01*
X98854938Y-92159910D01*
X98940562Y-92110475D01*
X99010475Y-92040562D01*
X99059910Y-91954938D01*
X99085500Y-91859435D01*
X99085500Y-91760565D01*
X99059910Y-91665062D01*
X99010475Y-91579438D01*
X98940562Y-91509525D01*
X98854938Y-91460090D01*
X98759435Y-91434500D01*
X98759432Y-91434500D01*
X98751584Y-91432397D01*
X98751990Y-91430879D01*
X98696590Y-91406368D01*
X98688997Y-91399381D01*
X97940181Y-90650565D01*
X107324500Y-90650565D01*
X107324500Y-90749435D01*
X107350090Y-90844938D01*
X107350091Y-90844939D01*
X107350091Y-90844940D01*
X107353065Y-90850091D01*
X107399525Y-90930562D01*
X107469438Y-91000475D01*
X107555062Y-91049910D01*
X107650565Y-91075500D01*
X107650567Y-91075500D01*
X107749432Y-91075500D01*
X107749435Y-91075500D01*
X107844938Y-91049910D01*
X107930562Y-91000475D01*
X108000475Y-90930562D01*
X108049910Y-90844938D01*
X108075500Y-90749435D01*
X108075500Y-90650565D01*
X108049910Y-90555062D01*
X108000475Y-90469438D01*
X107930562Y-90399525D01*
X107844938Y-90350090D01*
X107749435Y-90324500D01*
X107650565Y-90324500D01*
X107555062Y-90350090D01*
X107555060Y-90350091D01*
X107555059Y-90350091D01*
X107469436Y-90399526D01*
X107399526Y-90469436D01*
X107350091Y-90555059D01*
X107350091Y-90555060D01*
X107350090Y-90555062D01*
X107324500Y-90650565D01*
X97940181Y-90650565D01*
X96674417Y-89384801D01*
X96640932Y-89323478D01*
X96638098Y-89297120D01*
X96638098Y-87950565D01*
X102824500Y-87950565D01*
X102824500Y-88049435D01*
X102850090Y-88144938D01*
X102899525Y-88230562D01*
X102969438Y-88300475D01*
X103055062Y-88349910D01*
X103150565Y-88375500D01*
X103150567Y-88375500D01*
X103249432Y-88375500D01*
X103249435Y-88375500D01*
X103344938Y-88349910D01*
X103430562Y-88300475D01*
X103500475Y-88230562D01*
X103549910Y-88144938D01*
X103575500Y-88049435D01*
X103575500Y-87950565D01*
X103549910Y-87855062D01*
X103500475Y-87769438D01*
X103430562Y-87699525D01*
X103344938Y-87650090D01*
X103249435Y-87624500D01*
X103150565Y-87624500D01*
X103055062Y-87650090D01*
X103055060Y-87650091D01*
X103055059Y-87650091D01*
X102969436Y-87699526D01*
X102899526Y-87769436D01*
X102850091Y-87855059D01*
X102850091Y-87855060D01*
X102850090Y-87855062D01*
X102824500Y-87950565D01*
X96638098Y-87950565D01*
X96638098Y-87245201D01*
X96638098Y-87245200D01*
X96596155Y-87143942D01*
X96596155Y-87143941D01*
X89902779Y-80450565D01*
X108324500Y-80450565D01*
X108324500Y-80549435D01*
X108350090Y-80644938D01*
X108399525Y-80730562D01*
X108469438Y-80800475D01*
X108555062Y-80849910D01*
X108650565Y-80875500D01*
X108650567Y-80875500D01*
X108749432Y-80875500D01*
X108749435Y-80875500D01*
X108844938Y-80849910D01*
X108930562Y-80800475D01*
X109000475Y-80730562D01*
X109049910Y-80644938D01*
X109075500Y-80549435D01*
X109075500Y-80450565D01*
X109049910Y-80355062D01*
X109000475Y-80269438D01*
X108930562Y-80199525D01*
X108844938Y-80150090D01*
X108749435Y-80124500D01*
X108650565Y-80124500D01*
X108555062Y-80150090D01*
X108555060Y-80150091D01*
X108555059Y-80150091D01*
X108469436Y-80199526D01*
X108399526Y-80269436D01*
X108350091Y-80355059D01*
X108350091Y-80355060D01*
X108350090Y-80355062D01*
X108324500Y-80450565D01*
X89902779Y-80450565D01*
X87511819Y-78059605D01*
X87497115Y-78032677D01*
X87480523Y-78006859D01*
X87479631Y-78000658D01*
X87478334Y-77998282D01*
X87475500Y-77971924D01*
X87475500Y-77805201D01*
X87495185Y-77738162D01*
X87500226Y-77730991D01*
X87500471Y-77730565D01*
X87500475Y-77730562D01*
X87549910Y-77644938D01*
X87575500Y-77549435D01*
X87575500Y-77450565D01*
X87549910Y-77355062D01*
X87500475Y-77269438D01*
X87430562Y-77199525D01*
X87344938Y-77150090D01*
X87249435Y-77124500D01*
X87150565Y-77124500D01*
X87055062Y-77150090D01*
X87055060Y-77150091D01*
X87055059Y-77150091D01*
X86969436Y-77199526D01*
X86899526Y-77269436D01*
X86850091Y-77355059D01*
X86850091Y-77355060D01*
X86850090Y-77355062D01*
X86824500Y-77450565D01*
X84547314Y-77450565D01*
X84500475Y-77369438D01*
X84430562Y-77299525D01*
X84344938Y-77250090D01*
X84249435Y-77224500D01*
X84150565Y-77224500D01*
X84055062Y-77250090D01*
X84055060Y-77250091D01*
X84055059Y-77250091D01*
X83969436Y-77299526D01*
X83899526Y-77369436D01*
X83850091Y-77455059D01*
X83850091Y-77455060D01*
X83850090Y-77455062D01*
X83824500Y-77550565D01*
X55500500Y-77550565D01*
X55500500Y-75150565D01*
X60224500Y-75150565D01*
X60224500Y-75249435D01*
X60250090Y-75344938D01*
X60250091Y-75344939D01*
X60250091Y-75344940D01*
X60274952Y-75388000D01*
X60291425Y-75455900D01*
X60274952Y-75512000D01*
X60250091Y-75555059D01*
X60250091Y-75555060D01*
X60250090Y-75555062D01*
X60224500Y-75650565D01*
X60224500Y-75749435D01*
X60250090Y-75844938D01*
X60299525Y-75930562D01*
X60369438Y-76000475D01*
X60455062Y-76049910D01*
X60550565Y-76075500D01*
X60550567Y-76075500D01*
X60649432Y-76075500D01*
X60649435Y-76075500D01*
X60744938Y-76049910D01*
X60830562Y-76000475D01*
X60900475Y-75930562D01*
X60949910Y-75844938D01*
X60975500Y-75749435D01*
X60975500Y-75650565D01*
X60949910Y-75555062D01*
X60925047Y-75511998D01*
X60908574Y-75444102D01*
X60914441Y-75411875D01*
X60918478Y-75399378D01*
X60949910Y-75344938D01*
X60975197Y-75250565D01*
X62224500Y-75250565D01*
X62224500Y-75349435D01*
X62250090Y-75444938D01*
X62250091Y-75444939D01*
X62250091Y-75444940D01*
X62256419Y-75455900D01*
X62299525Y-75530562D01*
X62369438Y-75600475D01*
X62455062Y-75649910D01*
X62550565Y-75675500D01*
X62550567Y-75675500D01*
X62649432Y-75675500D01*
X62649435Y-75675500D01*
X62744938Y-75649910D01*
X62830562Y-75600475D01*
X62900475Y-75530562D01*
X62949910Y-75444938D01*
X62975500Y-75349435D01*
X62975500Y-75250565D01*
X62949910Y-75155062D01*
X62900475Y-75069438D01*
X62830562Y-74999525D01*
X62744938Y-74950090D01*
X62649435Y-74924500D01*
X62550565Y-74924500D01*
X62455062Y-74950090D01*
X62455060Y-74950091D01*
X62455059Y-74950091D01*
X62369436Y-74999526D01*
X62299526Y-75069436D01*
X62250091Y-75155059D01*
X62250091Y-75155060D01*
X62250090Y-75155062D01*
X62224500Y-75250565D01*
X60975197Y-75250565D01*
X60975500Y-75249435D01*
X60975500Y-75150565D01*
X60949910Y-75055062D01*
X60900475Y-74969438D01*
X60830562Y-74899525D01*
X60744938Y-74850090D01*
X60649435Y-74824500D01*
X60550565Y-74824500D01*
X60455062Y-74850090D01*
X60455060Y-74850091D01*
X60455059Y-74850091D01*
X60369436Y-74899526D01*
X60299526Y-74969436D01*
X60250091Y-75055059D01*
X60250091Y-75055060D01*
X60250090Y-75055062D01*
X60224500Y-75150565D01*
X55500500Y-75150565D01*
X55500500Y-72430000D01*
X56301196Y-72430000D01*
X57140382Y-72430000D01*
X57089936Y-72480446D01*
X57047149Y-72554555D01*
X57025000Y-72637213D01*
X57025000Y-72722787D01*
X57047149Y-72805445D01*
X57089936Y-72879554D01*
X57140382Y-72930000D01*
X56301196Y-72930000D01*
X56301469Y-72931726D01*
X56353760Y-73092659D01*
X56430578Y-73243423D01*
X56530038Y-73380316D01*
X56530038Y-73380317D01*
X56649682Y-73499961D01*
X56786576Y-73599421D01*
X56937340Y-73676239D01*
X57098273Y-73728530D01*
X57265391Y-73755000D01*
X57400000Y-73755000D01*
X57400000Y-73005000D01*
X57900000Y-73005000D01*
X57900000Y-73755000D01*
X58034609Y-73755000D01*
X58201726Y-73728530D01*
X58362659Y-73676239D01*
X58513423Y-73599421D01*
X58650316Y-73499961D01*
X58650317Y-73499961D01*
X58769961Y-73380317D01*
X58769961Y-73380316D01*
X58869421Y-73243423D01*
X58946239Y-73092659D01*
X58998530Y-72931726D01*
X58998804Y-72930000D01*
X58159618Y-72930000D01*
X58210064Y-72879554D01*
X58252851Y-72805445D01*
X58275000Y-72722787D01*
X58275000Y-72637213D01*
X58252851Y-72554555D01*
X58210064Y-72480446D01*
X58159618Y-72430000D01*
X58998804Y-72430000D01*
X60101196Y-72430000D01*
X60940382Y-72430000D01*
X60889936Y-72480446D01*
X60847149Y-72554555D01*
X60825000Y-72637213D01*
X60825000Y-72722787D01*
X60847149Y-72805445D01*
X60889936Y-72879554D01*
X60940382Y-72930000D01*
X60101196Y-72930000D01*
X60101469Y-72931726D01*
X60153760Y-73092659D01*
X60230578Y-73243423D01*
X60330038Y-73380316D01*
X60330038Y-73380317D01*
X60449682Y-73499961D01*
X60586576Y-73599421D01*
X60737340Y-73676239D01*
X60898273Y-73728530D01*
X61065391Y-73755000D01*
X61200000Y-73755000D01*
X61200000Y-73005000D01*
X61700000Y-73005000D01*
X61700000Y-73755000D01*
X61834609Y-73755000D01*
X62001726Y-73728530D01*
X62162659Y-73676239D01*
X62313423Y-73599421D01*
X62450316Y-73499961D01*
X62450317Y-73499961D01*
X62569961Y-73380317D01*
X62569961Y-73380316D01*
X62669421Y-73243423D01*
X62746239Y-73092659D01*
X62759917Y-73050565D01*
X63124500Y-73050565D01*
X63124500Y-73149435D01*
X63150090Y-73244938D01*
X63199525Y-73330562D01*
X63269438Y-73400475D01*
X63355062Y-73449910D01*
X63450565Y-73475500D01*
X63450567Y-73475500D01*
X63549432Y-73475500D01*
X63549435Y-73475500D01*
X63644938Y-73449910D01*
X63730562Y-73400475D01*
X63800475Y-73330562D01*
X63849910Y-73244938D01*
X63875500Y-73149435D01*
X63875500Y-73050565D01*
X63849910Y-72955062D01*
X63800475Y-72869438D01*
X63730562Y-72799525D01*
X63644938Y-72750090D01*
X63549435Y-72724500D01*
X63450565Y-72724500D01*
X63355062Y-72750090D01*
X63355060Y-72750091D01*
X63355059Y-72750091D01*
X63269436Y-72799526D01*
X63199526Y-72869436D01*
X63150091Y-72955059D01*
X63150091Y-72955060D01*
X63150090Y-72955062D01*
X63124500Y-73050565D01*
X62759917Y-73050565D01*
X62775008Y-73004120D01*
X62775008Y-73004119D01*
X62798531Y-72931724D01*
X62798804Y-72930000D01*
X61959618Y-72930000D01*
X62010064Y-72879554D01*
X62052851Y-72805445D01*
X62075000Y-72722787D01*
X62075000Y-72637213D01*
X62052851Y-72554555D01*
X62010064Y-72480446D01*
X61980183Y-72450565D01*
X108324500Y-72450565D01*
X108324500Y-72549435D01*
X108350090Y-72644938D01*
X108399525Y-72730562D01*
X108469438Y-72800475D01*
X108555062Y-72849910D01*
X108650565Y-72875500D01*
X108650567Y-72875500D01*
X108749432Y-72875500D01*
X108749435Y-72875500D01*
X108844938Y-72849910D01*
X108930562Y-72800475D01*
X109000475Y-72730562D01*
X109049910Y-72644938D01*
X109075500Y-72549435D01*
X109075500Y-72450565D01*
X109049910Y-72355062D01*
X109000475Y-72269438D01*
X108930562Y-72199525D01*
X108844938Y-72150090D01*
X108749435Y-72124500D01*
X108650565Y-72124500D01*
X108555062Y-72150090D01*
X108555060Y-72150091D01*
X108555059Y-72150091D01*
X108469436Y-72199526D01*
X108399526Y-72269436D01*
X108350091Y-72355059D01*
X108350091Y-72355060D01*
X108350090Y-72355062D01*
X108324500Y-72450565D01*
X61980183Y-72450565D01*
X61959618Y-72430000D01*
X62798804Y-72430000D01*
X62798530Y-72428272D01*
X62746239Y-72267340D01*
X62669421Y-72116576D01*
X62569961Y-71979683D01*
X62569961Y-71979682D01*
X62450317Y-71860038D01*
X62313423Y-71760578D01*
X62162659Y-71683760D01*
X62001726Y-71631469D01*
X61834609Y-71605000D01*
X61700000Y-71605000D01*
X61700000Y-72355000D01*
X61200000Y-72355000D01*
X61200000Y-71605000D01*
X61065391Y-71605000D01*
X60898273Y-71631469D01*
X60737340Y-71683760D01*
X60586576Y-71760578D01*
X60449683Y-71860038D01*
X60449682Y-71860038D01*
X60330038Y-71979682D01*
X60330038Y-71979683D01*
X60230578Y-72116576D01*
X60153760Y-72267340D01*
X60101469Y-72428273D01*
X60101196Y-72430000D01*
X58998804Y-72430000D01*
X58998530Y-72428273D01*
X58946239Y-72267340D01*
X58869421Y-72116576D01*
X58769961Y-71979683D01*
X58769961Y-71979682D01*
X58650317Y-71860038D01*
X58513423Y-71760578D01*
X58362659Y-71683760D01*
X58201726Y-71631469D01*
X58034609Y-71605000D01*
X57900000Y-71605000D01*
X57900000Y-72355000D01*
X57400000Y-72355000D01*
X57400000Y-71605000D01*
X57265391Y-71605000D01*
X57098273Y-71631469D01*
X56937340Y-71683760D01*
X56786576Y-71760578D01*
X56649683Y-71860038D01*
X56649682Y-71860038D01*
X56530038Y-71979682D01*
X56530038Y-71979683D01*
X56430578Y-72116576D01*
X56353760Y-72267340D01*
X56301469Y-72428273D01*
X56301196Y-72430000D01*
X55500500Y-72430000D01*
X55500500Y-71250565D01*
X77624500Y-71250565D01*
X77624500Y-71349435D01*
X77650090Y-71444938D01*
X77699525Y-71530562D01*
X77769438Y-71600475D01*
X77855062Y-71649910D01*
X77950565Y-71675500D01*
X77950567Y-71675500D01*
X78049432Y-71675500D01*
X78049435Y-71675500D01*
X78144938Y-71649910D01*
X78230562Y-71600475D01*
X78300475Y-71530562D01*
X78349910Y-71444938D01*
X78375500Y-71349435D01*
X78375500Y-71250565D01*
X78349910Y-71155062D01*
X78300475Y-71069438D01*
X78230562Y-70999525D01*
X78144938Y-70950090D01*
X78049435Y-70924500D01*
X77950565Y-70924500D01*
X77855062Y-70950090D01*
X77855060Y-70950091D01*
X77855059Y-70950091D01*
X77769436Y-70999526D01*
X77699526Y-71069436D01*
X77650091Y-71155059D01*
X77650091Y-71155060D01*
X77650090Y-71155062D01*
X77624500Y-71250565D01*
X55500500Y-71250565D01*
X55500500Y-70850565D01*
X97424500Y-70850565D01*
X97424500Y-70949435D01*
X97450090Y-71044938D01*
X97499525Y-71130562D01*
X97569438Y-71200475D01*
X97655062Y-71249910D01*
X97750565Y-71275500D01*
X97750567Y-71275500D01*
X97849432Y-71275500D01*
X97849435Y-71275500D01*
X97944938Y-71249910D01*
X97953096Y-71245200D01*
X113524500Y-71245200D01*
X113524500Y-73854800D01*
X113566443Y-73956058D01*
X113566444Y-73956059D01*
X120168181Y-80557796D01*
X120201666Y-80619119D01*
X120204500Y-80645477D01*
X120204500Y-86578120D01*
X120184815Y-86645159D01*
X120132011Y-86690914D01*
X120062853Y-86700858D01*
X119999297Y-86671833D01*
X119992819Y-86665801D01*
X117913461Y-84586444D01*
X117913457Y-84586441D01*
X117897955Y-84580020D01*
X117812202Y-84544500D01*
X116025200Y-84544500D01*
X116025197Y-84544500D01*
X115972225Y-84566443D01*
X115972224Y-84566443D01*
X115923943Y-84586440D01*
X115923941Y-84586442D01*
X115721003Y-84789381D01*
X115659680Y-84822866D01*
X115651053Y-84824369D01*
X115618283Y-84833149D01*
X115555062Y-84850090D01*
X115555060Y-84850091D01*
X115555059Y-84850091D01*
X115469436Y-84899526D01*
X115399526Y-84969436D01*
X115350091Y-85055059D01*
X115350091Y-85055060D01*
X115350090Y-85055062D01*
X115324500Y-85150565D01*
X115324500Y-85249435D01*
X115350090Y-85344938D01*
X115350091Y-85344939D01*
X115350091Y-85344940D01*
X115363337Y-85367882D01*
X115399525Y-85430562D01*
X115469438Y-85500475D01*
X115555062Y-85549910D01*
X115650565Y-85575500D01*
X115650567Y-85575500D01*
X115749432Y-85575500D01*
X115749435Y-85575500D01*
X115844938Y-85549910D01*
X115930562Y-85500475D01*
X116000475Y-85430562D01*
X116049910Y-85344938D01*
X116075500Y-85249435D01*
X116075500Y-85249432D01*
X116077603Y-85241584D01*
X116079123Y-85241991D01*
X116084606Y-85229593D01*
X116089468Y-85207249D01*
X116101738Y-85190859D01*
X116103620Y-85186604D01*
X116110620Y-85178995D01*
X116157800Y-85131817D01*
X116219123Y-85098333D01*
X116245479Y-85095500D01*
X117100500Y-85095500D01*
X117167539Y-85115185D01*
X117213294Y-85167989D01*
X117224500Y-85219500D01*
X117224500Y-85249435D01*
X117250090Y-85344938D01*
X117250091Y-85344939D01*
X117250091Y-85344940D01*
X117252686Y-85349435D01*
X117299525Y-85430562D01*
X117299526Y-85430563D01*
X117303589Y-85437600D01*
X117302227Y-85438386D01*
X117324070Y-85494881D01*
X117324500Y-85505201D01*
X117324500Y-93154799D01*
X117353140Y-93223942D01*
X117366440Y-93256052D01*
X117366441Y-93256054D01*
X117366443Y-93256058D01*
X117366445Y-93256060D01*
X119689381Y-95578996D01*
X119722866Y-95640319D01*
X119724369Y-95648943D01*
X119724500Y-95649431D01*
X119724500Y-95649435D01*
X119750090Y-95744938D01*
X119750091Y-95744939D01*
X119750091Y-95744940D01*
X119755935Y-95755062D01*
X119799525Y-95830562D01*
X119869438Y-95900475D01*
X119955062Y-95949910D01*
X120050565Y-95975500D01*
X120050567Y-95975500D01*
X120149432Y-95975500D01*
X120149435Y-95975500D01*
X120244938Y-95949910D01*
X120330562Y-95900475D01*
X120400475Y-95830562D01*
X120449910Y-95744938D01*
X120475500Y-95649435D01*
X120475500Y-95550565D01*
X120449910Y-95455062D01*
X120400475Y-95369438D01*
X120330562Y-95299525D01*
X120244938Y-95250090D01*
X120149435Y-95224500D01*
X120149432Y-95224500D01*
X120141584Y-95222397D01*
X120141990Y-95220879D01*
X120086591Y-95196369D01*
X120078996Y-95189381D01*
X117911819Y-93022204D01*
X117878334Y-92960881D01*
X117875500Y-92934523D01*
X117875500Y-85627075D01*
X117895185Y-85560036D01*
X117947989Y-85514281D01*
X118017147Y-85504337D01*
X118080703Y-85533362D01*
X118087181Y-85539394D01*
X119588181Y-87040394D01*
X119621666Y-87101717D01*
X119624500Y-87128075D01*
X119624500Y-91094798D01*
X119604815Y-91161837D01*
X119599773Y-91169007D01*
X119550091Y-91255059D01*
X119550091Y-91255060D01*
X119550090Y-91255062D01*
X119524500Y-91350565D01*
X119524500Y-91449435D01*
X119550090Y-91544938D01*
X119550091Y-91544939D01*
X119550091Y-91544940D01*
X119553065Y-91550091D01*
X119599525Y-91630562D01*
X119669438Y-91700475D01*
X119755062Y-91749910D01*
X119850565Y-91775500D01*
X119850567Y-91775500D01*
X119949432Y-91775500D01*
X119949435Y-91775500D01*
X120044938Y-91749910D01*
X120130562Y-91700475D01*
X120200475Y-91630562D01*
X120249910Y-91544938D01*
X120275500Y-91449435D01*
X120275500Y-91350565D01*
X120249910Y-91255062D01*
X120201050Y-91170435D01*
X120184579Y-91102540D01*
X120207431Y-91036513D01*
X120262352Y-90993322D01*
X120331905Y-90986680D01*
X120370432Y-91001049D01*
X120455062Y-91049910D01*
X120550565Y-91075500D01*
X120550567Y-91075500D01*
X120649432Y-91075500D01*
X120649435Y-91075500D01*
X120744938Y-91049910D01*
X120830562Y-91000475D01*
X120900475Y-90930562D01*
X120949910Y-90844938D01*
X120975500Y-90749435D01*
X120975500Y-90650565D01*
X120949910Y-90555062D01*
X120900475Y-90469438D01*
X120830562Y-90399525D01*
X120744938Y-90350090D01*
X120649435Y-90324500D01*
X120550565Y-90324500D01*
X120455062Y-90350090D01*
X120455060Y-90350091D01*
X120455059Y-90350091D01*
X120404593Y-90379228D01*
X120369438Y-90399525D01*
X120369436Y-90399526D01*
X120362400Y-90403589D01*
X120360773Y-90400771D01*
X120309766Y-90420466D01*
X120241327Y-90406399D01*
X120191357Y-90357565D01*
X120175500Y-90296892D01*
X120175500Y-89564477D01*
X120195185Y-89497438D01*
X120247989Y-89451683D01*
X120317147Y-89441739D01*
X120380703Y-89470764D01*
X120387181Y-89476796D01*
X120889381Y-89978996D01*
X120922866Y-90040319D01*
X120924369Y-90048943D01*
X120924500Y-90049431D01*
X120924500Y-90049435D01*
X120950090Y-90144938D01*
X120950091Y-90144939D01*
X120950091Y-90144940D01*
X120953339Y-90150565D01*
X120999525Y-90230562D01*
X121069438Y-90300475D01*
X121155062Y-90349910D01*
X121250565Y-90375500D01*
X121250567Y-90375500D01*
X121349432Y-90375500D01*
X121349435Y-90375500D01*
X121444938Y-90349910D01*
X121530562Y-90300475D01*
X121600475Y-90230562D01*
X121649910Y-90144938D01*
X121675500Y-90049435D01*
X121675500Y-89950565D01*
X121649910Y-89855062D01*
X121600475Y-89769438D01*
X121530562Y-89699525D01*
X121444938Y-89650090D01*
X121349435Y-89624500D01*
X121349432Y-89624500D01*
X121341584Y-89622397D01*
X121341990Y-89620879D01*
X121286590Y-89596368D01*
X121278997Y-89589381D01*
X120791819Y-89102203D01*
X120758334Y-89040880D01*
X120755500Y-89014522D01*
X120755500Y-85150565D01*
X121024500Y-85150565D01*
X121024500Y-85249435D01*
X121050090Y-85344938D01*
X121050091Y-85344939D01*
X121050091Y-85344940D01*
X121052686Y-85349435D01*
X121099525Y-85430562D01*
X121099526Y-85430563D01*
X121103589Y-85437600D01*
X121102227Y-85438386D01*
X121124070Y-85494881D01*
X121124500Y-85505201D01*
X121124500Y-87354800D01*
X121149846Y-87415989D01*
X121166443Y-87456058D01*
X122289381Y-88578996D01*
X122316848Y-88620666D01*
X122324500Y-88639815D01*
X122324500Y-88649435D01*
X122350090Y-88744938D01*
X122399525Y-88830562D01*
X122401514Y-88832551D01*
X122406708Y-88845549D01*
X122409199Y-88871817D01*
X122415420Y-88897460D01*
X122412445Y-88906053D01*
X122413304Y-88915106D01*
X122401199Y-88938547D01*
X122392568Y-88963487D01*
X122385418Y-88969109D01*
X122381247Y-88977188D01*
X122358388Y-88990365D01*
X122337647Y-89006677D01*
X122328595Y-89007541D01*
X122320716Y-89012084D01*
X122294355Y-89010811D01*
X122268093Y-89013319D01*
X122256463Y-89008981D01*
X122250927Y-89008714D01*
X122245641Y-89004945D01*
X122229562Y-88998947D01*
X122144938Y-88950090D01*
X122049435Y-88924500D01*
X121950565Y-88924500D01*
X121855062Y-88950090D01*
X121855060Y-88950091D01*
X121855059Y-88950091D01*
X121769436Y-88999526D01*
X121699526Y-89069436D01*
X121650091Y-89155059D01*
X121650091Y-89155060D01*
X121650090Y-89155062D01*
X121624500Y-89250565D01*
X121624500Y-89349435D01*
X121650090Y-89444938D01*
X121650091Y-89444939D01*
X121650091Y-89444940D01*
X121653065Y-89450091D01*
X121699525Y-89530562D01*
X121769438Y-89600475D01*
X121855062Y-89649910D01*
X121950565Y-89675500D01*
X121950567Y-89675500D01*
X122049432Y-89675500D01*
X122049435Y-89675500D01*
X122144938Y-89649910D01*
X122230562Y-89600475D01*
X122230563Y-89600473D01*
X122237600Y-89596411D01*
X122238384Y-89597770D01*
X122294893Y-89575929D01*
X122305202Y-89575500D01*
X122592201Y-89575500D01*
X122592202Y-89575500D01*
X122693460Y-89533557D01*
X122770959Y-89456058D01*
X122770958Y-89456058D01*
X122829527Y-89397489D01*
X123533557Y-88693461D01*
X123551793Y-88649435D01*
X123575500Y-88592202D01*
X123575500Y-85505201D01*
X123595185Y-85438162D01*
X123600226Y-85430991D01*
X123600473Y-85430564D01*
X123600475Y-85430562D01*
X123649910Y-85344938D01*
X123675500Y-85249435D01*
X123675500Y-85150565D01*
X123649910Y-85055062D01*
X123600475Y-84969438D01*
X123530562Y-84899525D01*
X123444938Y-84850090D01*
X123349435Y-84824500D01*
X123250565Y-84824500D01*
X123155062Y-84850090D01*
X123155060Y-84850091D01*
X123155059Y-84850091D01*
X123069436Y-84899526D01*
X122999526Y-84969436D01*
X122950091Y-85055059D01*
X122950091Y-85055060D01*
X122950090Y-85055062D01*
X122924500Y-85150565D01*
X122924500Y-85249435D01*
X122950090Y-85344938D01*
X122950091Y-85344939D01*
X122950091Y-85344940D01*
X122952686Y-85349435D01*
X122999525Y-85430562D01*
X122999526Y-85430563D01*
X123003589Y-85437600D01*
X123002227Y-85438386D01*
X123024070Y-85494881D01*
X123024500Y-85505201D01*
X123024500Y-88138985D01*
X123004815Y-88206024D01*
X122952011Y-88251779D01*
X122882853Y-88261723D01*
X122867219Y-88258435D01*
X122852092Y-88254220D01*
X122844938Y-88250090D01*
X122749435Y-88224500D01*
X122745421Y-88224500D01*
X122733397Y-88221150D01*
X122710870Y-88207110D01*
X122686590Y-88196368D01*
X122678997Y-88189381D01*
X121711819Y-87222203D01*
X121678334Y-87160880D01*
X121675500Y-87134522D01*
X121675500Y-85505201D01*
X121695185Y-85438162D01*
X121700226Y-85430991D01*
X121700473Y-85430564D01*
X121700475Y-85430562D01*
X121749910Y-85344938D01*
X121775500Y-85249435D01*
X121775500Y-85150565D01*
X121749910Y-85055062D01*
X121700475Y-84969438D01*
X121630562Y-84899525D01*
X121544938Y-84850090D01*
X121449435Y-84824500D01*
X121350565Y-84824500D01*
X121255062Y-84850090D01*
X121255060Y-84850091D01*
X121255059Y-84850091D01*
X121169436Y-84899526D01*
X121099526Y-84969436D01*
X121050091Y-85055059D01*
X121050091Y-85055060D01*
X121050090Y-85055062D01*
X121024500Y-85150565D01*
X120755500Y-85150565D01*
X120755500Y-80425201D01*
X120755499Y-80425198D01*
X120738439Y-80384011D01*
X120738438Y-80384009D01*
X120713558Y-80323942D01*
X114111819Y-73722203D01*
X114078334Y-73660880D01*
X114075500Y-73634522D01*
X114075500Y-71465477D01*
X114095185Y-71398438D01*
X114111819Y-71377796D01*
X114339050Y-71150565D01*
X115324500Y-71150565D01*
X115324500Y-71249435D01*
X115350090Y-71344938D01*
X115350091Y-71344939D01*
X115350091Y-71344940D01*
X115352686Y-71349435D01*
X115399525Y-71430562D01*
X115469438Y-71500475D01*
X115555062Y-71549910D01*
X115650565Y-71575500D01*
X115650568Y-71575500D01*
X115658416Y-71577603D01*
X115658008Y-71579123D01*
X115713396Y-71603620D01*
X115721003Y-71610618D01*
X124808181Y-80697796D01*
X124841666Y-80759119D01*
X124844500Y-80785477D01*
X124844500Y-89081676D01*
X124824815Y-89148715D01*
X124772011Y-89194470D01*
X124720500Y-89205676D01*
X124690565Y-89205676D01*
X124595062Y-89231266D01*
X124595060Y-89231267D01*
X124595059Y-89231267D01*
X124509436Y-89280702D01*
X124439526Y-89350612D01*
X124390091Y-89436235D01*
X124390091Y-89436236D01*
X124390090Y-89436238D01*
X124364500Y-89531741D01*
X124364500Y-89630611D01*
X124390090Y-89726114D01*
X124390091Y-89726115D01*
X124390091Y-89726116D01*
X124409179Y-89759177D01*
X124425652Y-89827077D01*
X124409180Y-89883176D01*
X124390090Y-89916240D01*
X124390090Y-89916241D01*
X124364500Y-90011744D01*
X124364500Y-90011746D01*
X124364500Y-90099254D01*
X124344815Y-90166293D01*
X124292011Y-90212048D01*
X124240500Y-90223254D01*
X124151813Y-90223254D01*
X124056310Y-90248844D01*
X124056308Y-90248845D01*
X124056307Y-90248845D01*
X123970684Y-90298280D01*
X123900774Y-90368190D01*
X123851339Y-90453813D01*
X123851339Y-90453814D01*
X123851338Y-90453816D01*
X123825748Y-90549319D01*
X123825748Y-90648189D01*
X123851338Y-90743692D01*
X123851339Y-90743693D01*
X123851339Y-90743694D01*
X123858478Y-90756059D01*
X123900773Y-90829316D01*
X123970686Y-90899229D01*
X124056310Y-90948664D01*
X124151813Y-90974254D01*
X124151815Y-90974254D01*
X124250680Y-90974254D01*
X124250683Y-90974254D01*
X124346186Y-90948664D01*
X124431810Y-90899229D01*
X124501723Y-90829316D01*
X124551158Y-90743692D01*
X124576748Y-90648189D01*
X124576748Y-90560679D01*
X124579298Y-90551993D01*
X124578010Y-90543032D01*
X124588988Y-90518991D01*
X124596433Y-90493640D01*
X124603273Y-90487712D01*
X124607035Y-90479476D01*
X124629269Y-90465186D01*
X124649237Y-90447885D01*
X124659751Y-90445597D01*
X124665813Y-90441702D01*
X124700748Y-90436679D01*
X124720500Y-90436679D01*
X124787539Y-90456364D01*
X124833294Y-90509168D01*
X124844500Y-90560679D01*
X124844500Y-91814522D01*
X124824815Y-91881561D01*
X124808181Y-91902203D01*
X120821003Y-95889381D01*
X120759680Y-95922866D01*
X120751053Y-95924369D01*
X120718283Y-95933149D01*
X120655062Y-95950090D01*
X120655060Y-95950091D01*
X120655059Y-95950091D01*
X120584575Y-95990785D01*
X120584573Y-95990786D01*
X120569438Y-95999525D01*
X120499525Y-96069438D01*
X120490786Y-96084573D01*
X120490785Y-96084575D01*
X120450091Y-96155059D01*
X120450091Y-96155060D01*
X120450090Y-96155062D01*
X120424500Y-96250565D01*
X120424500Y-96349435D01*
X120450090Y-96444938D01*
X120450091Y-96444939D01*
X120450091Y-96444940D01*
X120453065Y-96450091D01*
X120499525Y-96530562D01*
X120569438Y-96600475D01*
X120655062Y-96649910D01*
X120750565Y-96675500D01*
X120750567Y-96675500D01*
X120849432Y-96675500D01*
X120849435Y-96675500D01*
X120944938Y-96649910D01*
X121029562Y-96601052D01*
X121097459Y-96584579D01*
X121163486Y-96607431D01*
X121206677Y-96662351D01*
X121213319Y-96731905D01*
X121198947Y-96770439D01*
X121150091Y-96855059D01*
X121150091Y-96855060D01*
X121150090Y-96855062D01*
X121124500Y-96950565D01*
X121124500Y-97049435D01*
X121150090Y-97144938D01*
X121150091Y-97144939D01*
X121150091Y-97144940D01*
X121155933Y-97155059D01*
X121199525Y-97230562D01*
X121269438Y-97300475D01*
X121355062Y-97349910D01*
X121450565Y-97375500D01*
X121450567Y-97375500D01*
X121549432Y-97375500D01*
X121549435Y-97375500D01*
X121644938Y-97349910D01*
X121729562Y-97301052D01*
X121788462Y-97286761D01*
X121786680Y-97268093D01*
X121791017Y-97256463D01*
X121791285Y-97250927D01*
X121795054Y-97245640D01*
X121801051Y-97229564D01*
X121849910Y-97144938D01*
X121875500Y-97049435D01*
X121875500Y-96950565D01*
X121849910Y-96855062D01*
X121818657Y-96800931D01*
X121802184Y-96733033D01*
X121825036Y-96667006D01*
X121838357Y-96651257D01*
X125212819Y-93276796D01*
X125274142Y-93243311D01*
X125343834Y-93248295D01*
X125399767Y-93290167D01*
X125424184Y-93355631D01*
X125424500Y-93364477D01*
X125424500Y-94034522D01*
X125404815Y-94101561D01*
X125388181Y-94122203D01*
X122221003Y-97289381D01*
X122179333Y-97316848D01*
X122160183Y-97324500D01*
X122150565Y-97324500D01*
X122055062Y-97350090D01*
X121969438Y-97399525D01*
X121967449Y-97401513D01*
X121954450Y-97406708D01*
X121928181Y-97409199D01*
X121911536Y-97413237D01*
X121913319Y-97431905D01*
X121898947Y-97470439D01*
X121850091Y-97555059D01*
X121850091Y-97555060D01*
X121850090Y-97555062D01*
X121824500Y-97650565D01*
X121824500Y-97749435D01*
X121850090Y-97844938D01*
X121899525Y-97930562D01*
X121969438Y-98000475D01*
X122055062Y-98049910D01*
X122150565Y-98075500D01*
X122150567Y-98075500D01*
X122249432Y-98075500D01*
X122249435Y-98075500D01*
X122344938Y-98049910D01*
X122430562Y-98000475D01*
X122500475Y-97930562D01*
X122549910Y-97844938D01*
X122575500Y-97749435D01*
X122575500Y-97749432D01*
X122577603Y-97741584D01*
X122579122Y-97741991D01*
X122603619Y-97686604D01*
X122610606Y-97679008D01*
X125933557Y-94356059D01*
X125945841Y-94326400D01*
X125975500Y-94254800D01*
X125975500Y-91150565D01*
X126524500Y-91150565D01*
X126524500Y-91249435D01*
X126550090Y-91344938D01*
X126599525Y-91430562D01*
X126669438Y-91500475D01*
X126755062Y-91549910D01*
X126850565Y-91575500D01*
X126850567Y-91575500D01*
X126949432Y-91575500D01*
X126949435Y-91575500D01*
X127044938Y-91549910D01*
X127130562Y-91500475D01*
X127200475Y-91430562D01*
X127249910Y-91344938D01*
X127275500Y-91249435D01*
X127275500Y-91150565D01*
X127249910Y-91055062D01*
X127200475Y-90969438D01*
X127130562Y-90899525D01*
X127044938Y-90850090D01*
X126949435Y-90824500D01*
X126850565Y-90824500D01*
X126755062Y-90850090D01*
X126755060Y-90850091D01*
X126755059Y-90850091D01*
X126669436Y-90899526D01*
X126599526Y-90969436D01*
X126550091Y-91055059D01*
X126550091Y-91055060D01*
X126550090Y-91055062D01*
X126524500Y-91150565D01*
X125975500Y-91150565D01*
X125975500Y-86865477D01*
X125995185Y-86798438D01*
X126011819Y-86777796D01*
X126454730Y-86334885D01*
X127078998Y-85710616D01*
X127140319Y-85677133D01*
X127148954Y-85675627D01*
X127149428Y-85675500D01*
X127149435Y-85675500D01*
X127244938Y-85649910D01*
X127330562Y-85600475D01*
X127400475Y-85530562D01*
X127449910Y-85444938D01*
X127475500Y-85349435D01*
X127475500Y-85250565D01*
X127449910Y-85155062D01*
X127400475Y-85069438D01*
X127330562Y-84999525D01*
X127244938Y-84950090D01*
X127149435Y-84924500D01*
X127050565Y-84924500D01*
X126955062Y-84950090D01*
X126955060Y-84950091D01*
X126955059Y-84950091D01*
X126869436Y-84999526D01*
X126799526Y-85069436D01*
X126750091Y-85155059D01*
X126750091Y-85155060D01*
X126750090Y-85155062D01*
X126724500Y-85250565D01*
X126724500Y-85250567D01*
X126722397Y-85258416D01*
X126720879Y-85258009D01*
X126696368Y-85313410D01*
X126689381Y-85321003D01*
X125887181Y-86123204D01*
X125825858Y-86156689D01*
X125756167Y-86151705D01*
X125700233Y-86109833D01*
X125675816Y-86044369D01*
X125675500Y-86035523D01*
X125675500Y-78945202D01*
X125675500Y-78945200D01*
X125669437Y-78930562D01*
X125633558Y-78843942D01*
X118010618Y-71221002D01*
X117977133Y-71159679D01*
X117975629Y-71151049D01*
X117975500Y-71150567D01*
X117975500Y-71150565D01*
X117949910Y-71055062D01*
X117900475Y-70969438D01*
X117830562Y-70899525D01*
X117744938Y-70850090D01*
X117649435Y-70824500D01*
X117550565Y-70824500D01*
X117455062Y-70850090D01*
X117455060Y-70850091D01*
X117455059Y-70850091D01*
X117369436Y-70899526D01*
X117299526Y-70969436D01*
X117250091Y-71055059D01*
X117250091Y-71055060D01*
X117250090Y-71055062D01*
X117224500Y-71150565D01*
X117224500Y-71249435D01*
X117250090Y-71344938D01*
X117250091Y-71344939D01*
X117250091Y-71344940D01*
X117252686Y-71349435D01*
X117299525Y-71430562D01*
X117369438Y-71500475D01*
X117455062Y-71549910D01*
X117550565Y-71575500D01*
X117550568Y-71575500D01*
X117558416Y-71577603D01*
X117558008Y-71579123D01*
X117613396Y-71603620D01*
X117621003Y-71610618D01*
X125088181Y-79077796D01*
X125121666Y-79139119D01*
X125124500Y-79165477D01*
X125124500Y-79935522D01*
X125104815Y-80002561D01*
X125052011Y-80048316D01*
X124982853Y-80058260D01*
X124919297Y-80029235D01*
X124912819Y-80023203D01*
X116110618Y-71221002D01*
X116077133Y-71159679D01*
X116075629Y-71151049D01*
X116075500Y-71150567D01*
X116075500Y-71150565D01*
X116049910Y-71055062D01*
X116000475Y-70969438D01*
X115930562Y-70899525D01*
X115844938Y-70850090D01*
X115749435Y-70824500D01*
X115650565Y-70824500D01*
X115555062Y-70850090D01*
X115555060Y-70850091D01*
X115555059Y-70850091D01*
X115469436Y-70899526D01*
X115399526Y-70969436D01*
X115350091Y-71055059D01*
X115350091Y-71055060D01*
X115350090Y-71055062D01*
X115324500Y-71150565D01*
X114339050Y-71150565D01*
X115377797Y-70111819D01*
X115439120Y-70078334D01*
X115465478Y-70075500D01*
X119834523Y-70075500D01*
X119901562Y-70095185D01*
X119922204Y-70111819D01*
X120989381Y-71178996D01*
X121022866Y-71240319D01*
X121024369Y-71248943D01*
X121024500Y-71249431D01*
X121024500Y-71249435D01*
X121050090Y-71344938D01*
X121050091Y-71344939D01*
X121050091Y-71344940D01*
X121052686Y-71349435D01*
X121099525Y-71430562D01*
X121169438Y-71500475D01*
X121255062Y-71549910D01*
X121350565Y-71575500D01*
X121350567Y-71575500D01*
X121449432Y-71575500D01*
X121449435Y-71575500D01*
X121544938Y-71549910D01*
X121630562Y-71500475D01*
X121700475Y-71430562D01*
X121749910Y-71344938D01*
X121775500Y-71249435D01*
X121775500Y-71150565D01*
X122924500Y-71150565D01*
X122924500Y-71249435D01*
X122950090Y-71344938D01*
X122950091Y-71344939D01*
X122950091Y-71344940D01*
X122952686Y-71349435D01*
X122999525Y-71430562D01*
X123069438Y-71500475D01*
X123155062Y-71549910D01*
X123250565Y-71575500D01*
X123250567Y-71575500D01*
X123349432Y-71575500D01*
X123349435Y-71575500D01*
X123444938Y-71549910D01*
X123530562Y-71500475D01*
X123600475Y-71430562D01*
X123649910Y-71344938D01*
X123675500Y-71249435D01*
X123675500Y-71150565D01*
X123649910Y-71055062D01*
X123600475Y-70969438D01*
X123530562Y-70899525D01*
X123444938Y-70850090D01*
X123349435Y-70824500D01*
X123250565Y-70824500D01*
X123155062Y-70850090D01*
X123155060Y-70850091D01*
X123155059Y-70850091D01*
X123069436Y-70899526D01*
X122999526Y-70969436D01*
X122950091Y-71055059D01*
X122950091Y-71055060D01*
X122950090Y-71055062D01*
X122924500Y-71150565D01*
X121775500Y-71150565D01*
X121749910Y-71055062D01*
X121700475Y-70969438D01*
X121630562Y-70899525D01*
X121544938Y-70850090D01*
X121449435Y-70824500D01*
X121449432Y-70824500D01*
X121441584Y-70822397D01*
X121441990Y-70820879D01*
X121386591Y-70796369D01*
X121378996Y-70789381D01*
X120156059Y-69566444D01*
X120156058Y-69566443D01*
X120054800Y-69524500D01*
X115245200Y-69524500D01*
X115245198Y-69524500D01*
X115173599Y-69554158D01*
X115143939Y-69566443D01*
X113643942Y-71066443D01*
X113566444Y-71143940D01*
X113566443Y-71143941D01*
X113566443Y-71143942D01*
X113559924Y-71159680D01*
X113526522Y-71240319D01*
X113524500Y-71245200D01*
X97953096Y-71245200D01*
X98030562Y-71200475D01*
X98100475Y-71130562D01*
X98149910Y-71044938D01*
X98175500Y-70949435D01*
X98175500Y-70850565D01*
X98149910Y-70755062D01*
X98100475Y-70669438D01*
X98030562Y-70599525D01*
X97944938Y-70550090D01*
X97849435Y-70524500D01*
X97750565Y-70524500D01*
X97655062Y-70550090D01*
X97655060Y-70550091D01*
X97655059Y-70550091D01*
X97569436Y-70599526D01*
X97499526Y-70669436D01*
X97450091Y-70755059D01*
X97450091Y-70755060D01*
X97450090Y-70755062D01*
X97424500Y-70850565D01*
X55500500Y-70850565D01*
X55500500Y-68006959D01*
X55501280Y-67993077D01*
X55501320Y-67992717D01*
X55511459Y-67902727D01*
X55517635Y-67875668D01*
X55545353Y-67796457D01*
X55557393Y-67771453D01*
X55602046Y-67700389D01*
X55619351Y-67678690D01*
X55678690Y-67619351D01*
X55700389Y-67602046D01*
X55771453Y-67557393D01*
X55796457Y-67545353D01*
X55875668Y-67517635D01*
X55902729Y-67511459D01*
X55978753Y-67502893D01*
X55993078Y-67501280D01*
X56006960Y-67500500D01*
X56065892Y-67500500D01*
X159934108Y-67500500D01*
X159993040Y-67500500D01*
X160006922Y-67501280D01*
G37*
%TD.AperFunction*%
%TD*%
M02*
