%TF.GenerationSoftware,KiCad,Pcbnew,10.0.3*%
%TF.CreationDate,2026-10-06T22:12:45-07:00*%
%TF.ProjectId,business_card,62757369-6e65-4737-935f-636172642e6b,rev?*%
%TF.SameCoordinates,Original*%
%TF.FileFunction,Soldermask,Bot*%
%TF.FilePolarity,Negative*%
%FSLAX46Y46*%
G04 Gerber Fmt 4.6, Leading zero omitted, Abs format (unit mm)*
G04 Created by KiCad (PCBNEW 10.0.3) date 2026-10-06 22:12:45*
%MOMM*%
%LPD*%
G01*
G04 APERTURE LIST*
G04 Aperture macros list*
%AMRoundRect*
0 Rectangle with rounded corners*
0 $1 Rounding radius*
0 $2 $3 $4 $5 $6 $7 $8 $9 X,Y pos of 4 corners*
0 Add a 4 corners polygon primitive as box body*
4,1,4,$2,$3,$4,$5,$6,$7,$8,$9,$2,$3,0*
0 Add four circle primitives for the rounded corners*
1,1,$1+$1,$2,$3*
1,1,$1+$1,$4,$5*
1,1,$1+$1,$6,$7*
1,1,$1+$1,$8,$9*
0 Add four rect primitives between the rounded corners*
20,1,$1+$1,$2,$3,$4,$5,0*
20,1,$1+$1,$4,$5,$6,$7,0*
20,1,$1+$1,$6,$7,$8,$9,0*
20,1,$1+$1,$8,$9,$2,$3,0*%
%AMRotRect*
0 Rectangle, with rotation*
0 The origin of the aperture is its center*
0 $1 length*
0 $2 width*
0 $3 Rotation angle, in degrees counterclockwise*
0 Add horizontal line*
21,1,$1,$2,0,0,$3*%
G04 Aperture macros list end*
%ADD10C,2.500000*%
%ADD11RoundRect,0.135000X0.185000X-0.135000X0.185000X0.135000X-0.185000X0.135000X-0.185000X-0.135000X0*%
%ADD12RoundRect,0.135000X0.226274X0.035355X0.035355X0.226274X-0.226274X-0.035355X-0.035355X-0.226274X0*%
%ADD13RoundRect,0.225000X0.335876X0.017678X0.017678X0.335876X-0.335876X-0.017678X-0.017678X-0.335876X0*%
%ADD14RoundRect,0.225000X-0.225000X-0.250000X0.225000X-0.250000X0.225000X0.250000X-0.225000X0.250000X0*%
%ADD15R,0.650001X0.900001*%
%ADD16RotRect,0.711200X0.228600X225.000000*%
%ADD17R,1.548400X1.881000*%
%ADD18R,1.000000X2.510000*%
%ADD19RoundRect,0.135000X-0.185000X0.135000X-0.185000X-0.135000X0.185000X-0.135000X0.185000X0.135000X0*%
%ADD20RoundRect,0.135000X-0.226274X-0.035355X-0.035355X-0.226274X0.226274X0.035355X0.035355X0.226274X0*%
%ADD21RoundRect,0.135000X-0.035355X0.226274X-0.226274X0.035355X0.035355X-0.226274X0.226274X-0.035355X0*%
%ADD22RoundRect,0.135000X0.135000X0.185000X-0.135000X0.185000X-0.135000X-0.185000X0.135000X-0.185000X0*%
%ADD23RoundRect,0.140000X-0.021213X0.219203X-0.219203X0.021213X0.021213X-0.219203X0.219203X-0.021213X0*%
%ADD24RoundRect,0.225000X0.250000X-0.225000X0.250000X0.225000X-0.250000X0.225000X-0.250000X-0.225000X0*%
%ADD25RoundRect,0.140000X0.021213X-0.219203X0.219203X-0.021213X-0.021213X0.219203X-0.219203X0.021213X0*%
%ADD26RoundRect,0.135000X-0.135000X-0.185000X0.135000X-0.185000X0.135000X0.185000X-0.135000X0.185000X0*%
%ADD27RoundRect,0.150000X-0.150000X-0.200000X0.150000X-0.200000X0.150000X0.200000X-0.150000X0.200000X0*%
%ADD28R,1.168400X0.533400*%
%ADD29RotRect,0.762000X0.254000X45.000000*%
%ADD30RotRect,1.600200X1.600200X45.000000*%
%ADD31RoundRect,0.102000X1.537500X1.755000X-1.537500X1.755000X-1.537500X-1.755000X1.537500X-1.755000X0*%
%ADD32RotRect,0.533400X1.168400X135.000000*%
%ADD33RoundRect,0.140000X0.219203X0.021213X0.021213X0.219203X-0.219203X-0.021213X-0.021213X-0.219203X0*%
%ADD34RotRect,0.254000X0.812800X45.000000*%
%ADD35RotRect,0.254000X0.812800X135.000000*%
%ADD36RotRect,2.260600X2.260600X135.000000*%
%ADD37RoundRect,0.140000X0.170000X-0.140000X0.170000X0.140000X-0.170000X0.140000X-0.170000X-0.140000X0*%
%ADD38RoundRect,0.102000X0.405000X0.465000X-0.405000X0.465000X-0.405000X-0.465000X0.405000X-0.465000X0*%
%ADD39RoundRect,0.102000X-0.405000X-0.465000X0.405000X-0.465000X0.405000X0.465000X-0.405000X0.465000X0*%
%ADD40R,0.660400X1.346200*%
%ADD41RoundRect,0.102000X-0.465000X0.405000X-0.465000X-0.405000X0.465000X-0.405000X0.465000X0.405000X0*%
%ADD42RoundRect,0.102000X0.600000X-0.350000X0.600000X0.350000X-0.600000X0.350000X-0.600000X-0.350000X0*%
%ADD43RoundRect,0.102000X0.600000X-0.380000X0.600000X0.380000X-0.600000X0.380000X-0.600000X-0.380000X0*%
%ADD44RoundRect,0.102000X0.600000X-0.400000X0.600000X0.400000X-0.600000X0.400000X-0.600000X-0.400000X0*%
%ADD45O,1.954000X1.354000*%
%ADD46RoundRect,0.225000X0.017678X-0.335876X0.335876X-0.017678X-0.017678X0.335876X-0.335876X0.017678X0*%
%ADD47RoundRect,0.102000X0.465000X-0.405000X0.465000X0.405000X-0.465000X0.405000X-0.465000X-0.405000X0*%
%ADD48RoundRect,0.140000X-0.140000X-0.170000X0.140000X-0.170000X0.140000X0.170000X-0.140000X0.170000X0*%
%ADD49RoundRect,0.135000X0.035355X-0.226274X0.226274X-0.035355X-0.035355X0.226274X-0.226274X0.035355X0*%
%ADD50RotRect,1.473200X0.558800X45.000000*%
%ADD51RotRect,0.203200X0.762000X135.000000*%
%ADD52RotRect,0.203200X0.762000X225.000000*%
%ADD53RotRect,1.803400X1.803400X225.000000*%
%ADD54RoundRect,0.102000X0.601041X-0.035355X-0.035355X0.601041X-0.601041X0.035355X0.035355X-0.601041X0*%
G04 APERTURE END LIST*
D10*
%TO.C,TP5*%
X75975000Y-90675000D03*
%TD*%
%TO.C,TP4*%
X75900000Y-76100000D03*
%TD*%
%TO.C,TP3*%
X75900000Y-85800000D03*
%TD*%
%TO.C,TP2*%
X75900000Y-80900000D03*
%TD*%
%TO.C,TP1*%
X76000000Y-71300000D03*
%TD*%
D11*
%TO.C,R48*%
X99700000Y-80510000D03*
X99700000Y-79490000D03*
%TD*%
D12*
%TO.C,R41*%
X121721248Y-91821248D03*
X121000000Y-91100000D03*
%TD*%
D13*
%TO.C,C14*%
X82348008Y-78148008D03*
X81251992Y-77051992D03*
%TD*%
D12*
%TO.C,R6*%
X107221248Y-103721248D03*
X106500000Y-103000000D03*
%TD*%
D14*
%TO.C,C13*%
X63625000Y-75200000D03*
X65175000Y-75200000D03*
%TD*%
D15*
%TO.C,U5*%
X97900001Y-73900000D03*
X98850002Y-73900000D03*
X99800000Y-73900000D03*
X99800000Y-76300000D03*
X97900001Y-76300000D03*
%TD*%
D16*
%TO.C,U6*%
X91892894Y-87592894D03*
X92246447Y-87946447D03*
X92600000Y-88300000D03*
X91468488Y-89431512D03*
X91114935Y-89077959D03*
X90761382Y-88724406D03*
%TD*%
D17*
%TO.C,LED4*%
X123300000Y-84022399D03*
X121399999Y-84022399D03*
X119500000Y-84022399D03*
X117600001Y-84022399D03*
X115700000Y-84022399D03*
X115700000Y-69977601D03*
X117600001Y-69977601D03*
X119500000Y-69977601D03*
X121399999Y-69977601D03*
X123300000Y-69977601D03*
%TD*%
D18*
%TO.C,J2*%
X82330000Y-72355000D03*
X84870000Y-69045000D03*
%TD*%
D11*
%TO.C,R47*%
X99800000Y-72500000D03*
X99800000Y-71480000D03*
%TD*%
D19*
%TO.C,R45*%
X97800000Y-71490000D03*
X97800000Y-72510000D03*
%TD*%
D20*
%TO.C,R14*%
X151078752Y-96878752D03*
X151800000Y-97600000D03*
%TD*%
D21*
%TO.C,R28*%
X145960624Y-95039376D03*
X145239376Y-95760624D03*
%TD*%
D20*
%TO.C,R24*%
X125900000Y-97600000D03*
X126621248Y-98321248D03*
%TD*%
%TO.C,R20*%
X128700000Y-94800000D03*
X129421248Y-95521248D03*
%TD*%
D14*
%TO.C,C17*%
X97925000Y-77700000D03*
X99475000Y-77700000D03*
%TD*%
D22*
%TO.C,R46*%
X96610000Y-73900000D03*
X95590000Y-73900000D03*
%TD*%
D23*
%TO.C,C21*%
X90100000Y-90100000D03*
X89421178Y-90778822D03*
%TD*%
D17*
%TO.C,LED2*%
X146300000Y-84000000D03*
X144399999Y-84000000D03*
X142500000Y-84000000D03*
X140600001Y-84000000D03*
X138700000Y-84000000D03*
X138700000Y-69955202D03*
X140600001Y-69955202D03*
X142500000Y-69955202D03*
X144399999Y-69955202D03*
X146300000Y-69955202D03*
%TD*%
D24*
%TO.C,C11*%
X91937500Y-105875000D03*
X91937500Y-104325000D03*
%TD*%
D22*
%TO.C,R53*%
X97255000Y-80495000D03*
X96235000Y-80495000D03*
%TD*%
D25*
%TO.C,C10*%
X125960589Y-89139411D03*
X126639411Y-88460589D03*
%TD*%
D21*
%TO.C,R52*%
X119960624Y-105439376D03*
X119239376Y-106160624D03*
%TD*%
D12*
%TO.C,R30*%
X145300000Y-92600000D03*
X144578752Y-91878752D03*
%TD*%
D26*
%TO.C,R2*%
X63390000Y-77500000D03*
X64410000Y-77500000D03*
%TD*%
D27*
%TO.C,D2*%
X64900000Y-73700000D03*
X63500000Y-73700000D03*
%TD*%
D26*
%TO.C,R1*%
X63390000Y-76500000D03*
X64410000Y-76500000D03*
%TD*%
D28*
%TO.C,Q3*%
X104900000Y-89600000D03*
X104900000Y-87699998D03*
X106932000Y-88649999D03*
%TD*%
D29*
%TO.C,U2*%
X104524542Y-108236119D03*
X104170988Y-107882565D03*
X103817435Y-107529012D03*
X103463881Y-107175458D03*
X105475458Y-105163881D03*
X105829012Y-105517435D03*
X106182565Y-105870988D03*
X106536119Y-106224542D03*
D30*
X105000000Y-106700000D03*
%TD*%
D20*
%TO.C,R51*%
X115239376Y-109939376D03*
X115960624Y-110660624D03*
%TD*%
D23*
%TO.C,C4*%
X105939411Y-111860589D03*
X105260589Y-112539411D03*
%TD*%
D20*
%TO.C,R23*%
X126600000Y-96900000D03*
X127321248Y-97621248D03*
%TD*%
D31*
%TO.C,BT1*%
X58862500Y-107300000D03*
X88937500Y-107300000D03*
%TD*%
D32*
%TO.C,Q1*%
X117243505Y-109443505D03*
X115900000Y-108100000D03*
X118008593Y-107334912D03*
%TD*%
D33*
%TO.C,C2*%
X83439411Y-77439411D03*
X82760589Y-76760589D03*
%TD*%
D17*
%TO.C,LED1*%
X158000000Y-84000000D03*
X156099999Y-84000000D03*
X154200000Y-84000000D03*
X152300001Y-84000000D03*
X150400000Y-84000000D03*
X150400000Y-69955202D03*
X152300001Y-69955202D03*
X154200000Y-69955202D03*
X156099999Y-69955202D03*
X158000000Y-69955202D03*
%TD*%
D25*
%TO.C,C22*%
X117260589Y-111939411D03*
X117939411Y-111260589D03*
%TD*%
D34*
%TO.C,U4*%
X127368212Y-93847958D03*
X127014570Y-94201600D03*
X126660927Y-94555243D03*
X126307285Y-94908885D03*
X125953642Y-95262528D03*
X125600000Y-95616170D03*
D35*
X124620254Y-95616170D03*
X124266612Y-95262528D03*
X123912969Y-94908885D03*
X123559327Y-94555243D03*
X123205684Y-94201600D03*
X122852042Y-93847958D03*
D34*
X122852042Y-92868212D03*
X123205684Y-92514570D03*
X123559327Y-92160927D03*
X123912969Y-91807285D03*
X124266612Y-91453642D03*
X124620254Y-91100000D03*
D35*
X125600000Y-91100000D03*
X125953642Y-91453642D03*
X126307285Y-91807285D03*
X126660927Y-92160927D03*
X127014570Y-92514570D03*
X127368212Y-92868212D03*
D36*
X125110127Y-93358085D03*
%TD*%
D21*
%TO.C,R29*%
X145260624Y-94339376D03*
X144539376Y-95060624D03*
%TD*%
D12*
%TO.C,R42*%
X121021248Y-92521248D03*
X120300000Y-91800000D03*
%TD*%
D25*
%TO.C,C9*%
X126660589Y-89839411D03*
X127339411Y-89160589D03*
%TD*%
D21*
%TO.C,R36*%
X121960624Y-95139376D03*
X121239376Y-95860624D03*
%TD*%
D25*
%TO.C,C23*%
X116260589Y-116839411D03*
X116939411Y-116160589D03*
%TD*%
D21*
%TO.C,R5*%
X111360624Y-100739376D03*
X110639376Y-101460624D03*
%TD*%
D17*
%TO.C,LED3*%
X134700000Y-84000000D03*
X132799999Y-84000000D03*
X130900000Y-84000000D03*
X129000001Y-84000000D03*
X127100000Y-84000000D03*
X127100000Y-69955202D03*
X129000001Y-69955202D03*
X130900000Y-69955202D03*
X132799999Y-69955202D03*
X134700000Y-69955202D03*
%TD*%
D20*
%TO.C,R21*%
X128000000Y-95500000D03*
X128721248Y-96221248D03*
%TD*%
D21*
%TO.C,R27*%
X146660624Y-95739376D03*
X145939376Y-96460624D03*
%TD*%
D27*
%TO.C,D3*%
X110900000Y-72500000D03*
X109500000Y-72500000D03*
%TD*%
D37*
%TO.C,C20*%
X98700000Y-80500000D03*
X98700000Y-79540000D03*
%TD*%
D38*
%TO.C,D9*%
X104000000Y-94400000D03*
X105620000Y-94400000D03*
%TD*%
D12*
%TO.C,R32*%
X146739376Y-91139376D03*
X146018128Y-90418128D03*
%TD*%
D20*
%TO.C,R11*%
X153178752Y-94778752D03*
X153900000Y-95500000D03*
%TD*%
D39*
%TO.C,D8*%
X105620000Y-92700000D03*
X104000000Y-92700000D03*
%TD*%
D40*
%TO.C,SW2*%
X107776600Y-80500000D03*
X101223400Y-80500000D03*
%TD*%
D21*
%TO.C,R43*%
X86160624Y-77139376D03*
X85439376Y-77860624D03*
%TD*%
D19*
%TO.C,R54*%
X57400000Y-89390000D03*
X57400000Y-90410000D03*
%TD*%
D21*
%TO.C,R7*%
X154245619Y-91845549D03*
X153524371Y-92566797D03*
%TD*%
D41*
%TO.C,D5*%
X158600000Y-107110000D03*
X158600000Y-105490000D03*
%TD*%
D42*
%TO.C,J1*%
X61530000Y-77500000D03*
D43*
X61530000Y-75480000D03*
D44*
X61530000Y-74250000D03*
D42*
X61530000Y-76500000D03*
D43*
X61530000Y-78520000D03*
D44*
X61530000Y-79750000D03*
D45*
X61450000Y-81320000D03*
X61450000Y-72680000D03*
X57650000Y-81320000D03*
X57650000Y-72680000D03*
%TD*%
D12*
%TO.C,R31*%
X146000000Y-91900000D03*
X145278752Y-91178752D03*
%TD*%
D20*
%TO.C,R22*%
X127300000Y-96200000D03*
X128021248Y-96921248D03*
%TD*%
%TO.C,R19*%
X129400000Y-94100000D03*
X130121248Y-94821248D03*
%TD*%
D21*
%TO.C,R57*%
X86821248Y-77878752D03*
X86100000Y-78600000D03*
%TD*%
D46*
%TO.C,C5*%
X152788979Y-91463711D03*
X153884995Y-90367695D03*
%TD*%
D47*
%TO.C,D6*%
X57400000Y-86340000D03*
X57400000Y-87960000D03*
%TD*%
D48*
%TO.C,C15*%
X87120000Y-69100000D03*
X88080000Y-69100000D03*
%TD*%
D12*
%TO.C,R38*%
X123821248Y-89721248D03*
X123100000Y-89000000D03*
%TD*%
D23*
%TO.C,C3*%
X107439411Y-107060589D03*
X106760589Y-107739411D03*
%TD*%
D12*
%TO.C,R33*%
X147500000Y-90400000D03*
X146778752Y-89678752D03*
%TD*%
D26*
%TO.C,R60*%
X101300000Y-94400000D03*
X102320000Y-94400000D03*
%TD*%
D21*
%TO.C,R10*%
X128060624Y-89839376D03*
X127339376Y-90560624D03*
%TD*%
D49*
%TO.C,R44*%
X84739376Y-77160624D03*
X85460624Y-76439376D03*
%TD*%
D27*
%TO.C,D4*%
X110900000Y-80500000D03*
X109500000Y-80500000D03*
%TD*%
D50*
%TO.C,U7*%
X114327608Y-114915896D03*
X113655856Y-114244144D03*
X112984104Y-113572392D03*
X114672392Y-111884104D03*
X116015896Y-113227608D03*
%TD*%
D34*
%TO.C,U3*%
X151558085Y-93889873D03*
X151204443Y-94243515D03*
X150850800Y-94597158D03*
X150497158Y-94950800D03*
X150143515Y-95304443D03*
X149789873Y-95658085D03*
D35*
X148810127Y-95658085D03*
X148456485Y-95304443D03*
X148102842Y-94950800D03*
X147749200Y-94597158D03*
X147395557Y-94243515D03*
X147041915Y-93889873D03*
D34*
X147041915Y-92910127D03*
X147395557Y-92556485D03*
X147749200Y-92202842D03*
X148102842Y-91849200D03*
X148456485Y-91495557D03*
X148810127Y-91141915D03*
D35*
X149789873Y-91141915D03*
X150143515Y-91495557D03*
X150497158Y-91849200D03*
X150850800Y-92202842D03*
X151204443Y-92556485D03*
X151558085Y-92910127D03*
D36*
X149300000Y-93400000D03*
%TD*%
D46*
%TO.C,C8*%
X128400000Y-91200000D03*
X129496016Y-90103984D03*
%TD*%
D21*
%TO.C,R8*%
X152414212Y-90000000D03*
X151692964Y-90721248D03*
%TD*%
%TO.C,R37*%
X121260624Y-94439376D03*
X120539376Y-95160624D03*
%TD*%
D22*
%TO.C,R59*%
X107710000Y-91300000D03*
X106690000Y-91300000D03*
%TD*%
D25*
%TO.C,C18*%
X86760589Y-79339411D03*
X87439411Y-78660589D03*
%TD*%
D12*
%TO.C,R40*%
X122421248Y-91121248D03*
X121700000Y-90400000D03*
%TD*%
D20*
%TO.C,R16*%
X149678752Y-98278752D03*
X150400000Y-99000000D03*
%TD*%
D12*
%TO.C,R4*%
X86760624Y-83060624D03*
X86039376Y-82339376D03*
%TD*%
D20*
%TO.C,R15*%
X150378752Y-97578752D03*
X151100000Y-98300000D03*
%TD*%
D12*
%TO.C,R3*%
X86060624Y-83760624D03*
X85339376Y-83039376D03*
%TD*%
D21*
%TO.C,R18*%
X147421248Y-96478752D03*
X146700000Y-97200000D03*
%TD*%
D25*
%TO.C,C24*%
X111860589Y-112439411D03*
X112539411Y-111760589D03*
%TD*%
D12*
%TO.C,R39*%
X123121248Y-90421248D03*
X122400000Y-89700000D03*
%TD*%
D23*
%TO.C,C16*%
X81639411Y-82360589D03*
X80960589Y-83039411D03*
%TD*%
D11*
%TO.C,R56*%
X98700000Y-90910000D03*
X98700000Y-89890000D03*
%TD*%
D21*
%TO.C,R35*%
X122660624Y-95839376D03*
X121939376Y-96560624D03*
%TD*%
D51*
%TO.C,U1*%
X84468628Y-78988422D03*
X84751472Y-79271266D03*
X85034314Y-79554108D03*
X85317156Y-79836950D03*
X85600000Y-80119794D03*
D52*
X85600000Y-81000000D03*
X85317156Y-81282844D03*
X85034314Y-81565686D03*
X84751472Y-81848528D03*
X84468628Y-82131372D03*
D51*
X83588422Y-82131372D03*
X83305578Y-81848528D03*
X83022736Y-81565686D03*
X82739894Y-81282844D03*
X82457050Y-81000000D03*
D52*
X82457050Y-80119794D03*
X82739894Y-79836950D03*
X83022736Y-79554108D03*
X83305578Y-79271266D03*
X83588422Y-78988422D03*
D53*
X84028525Y-80559897D03*
%TD*%
D14*
%TO.C,C12*%
X63625000Y-78700000D03*
X65175000Y-78700000D03*
%TD*%
D25*
%TO.C,C7*%
X150292893Y-89292893D03*
X150971715Y-88614071D03*
%TD*%
D54*
%TO.C,Y1*%
X103700000Y-111800000D03*
X102391853Y-110491853D03*
X103417158Y-109466548D03*
X104725305Y-110774695D03*
%TD*%
D20*
%TO.C,R13*%
X151778752Y-96178752D03*
X152500000Y-96900000D03*
%TD*%
D19*
%TO.C,R58*%
X103200000Y-88590000D03*
X103200000Y-89610000D03*
%TD*%
D27*
%TO.C,D1*%
X64900000Y-80200000D03*
X63500000Y-80200000D03*
%TD*%
D20*
%TO.C,R12*%
X152478752Y-95478752D03*
X153200000Y-96200000D03*
%TD*%
D21*
%TO.C,R17*%
X148160624Y-97239376D03*
X147439376Y-97960624D03*
%TD*%
D25*
%TO.C,C6*%
X151000000Y-90000000D03*
X151678822Y-89321178D03*
%TD*%
D49*
%TO.C,R50*%
X115478752Y-116121248D03*
X116200000Y-115400000D03*
%TD*%
D21*
%TO.C,R49*%
X117721248Y-116878752D03*
X117000000Y-117600000D03*
%TD*%
D40*
%TO.C,SW1*%
X107776600Y-72500000D03*
X101223400Y-72500000D03*
%TD*%
D28*
%TO.C,Q2*%
X100500000Y-91800000D03*
X100500000Y-89899998D03*
X102532000Y-90849999D03*
%TD*%
D37*
%TO.C,C19*%
X98800000Y-72480000D03*
X98800000Y-71520000D03*
%TD*%
D21*
%TO.C,R25*%
X124060624Y-97239376D03*
X123339376Y-97960624D03*
%TD*%
%TO.C,R26*%
X123360624Y-96539376D03*
X122639376Y-97260624D03*
%TD*%
D12*
%TO.C,R34*%
X148239376Y-89639376D03*
X147518128Y-88918128D03*
%TD*%
D21*
%TO.C,R9*%
X129860624Y-91639376D03*
X129139376Y-92360624D03*
%TD*%
M02*
