%TF.GenerationSoftware,KiCad,Pcbnew,10.0.3*%
%TF.CreationDate,2026-10-06T22:12:45-07:00*%
%TF.ProjectId,business_card,62757369-6e65-4737-935f-636172642e6b,rev?*%
%TF.SameCoordinates,Original*%
%TF.FileFunction,Legend,Top*%
%TF.FilePolarity,Positive*%
%FSLAX46Y46*%
G04 Gerber Fmt 4.6, Leading zero omitted, Abs format (unit mm)*
G04 Created by KiCad (PCBNEW 10.0.3) date 2026-10-06 22:12:45*
%MOMM*%
%LPD*%
G01*
G04 APERTURE LIST*
%ADD10C,0.200000*%
%ADD11C,0.400000*%
%ADD12C,0.000000*%
G04 APERTURE END LIST*
D10*
X143293482Y-101214838D02*
X143198244Y-101167219D01*
X143198244Y-101167219D02*
X143055387Y-101167219D01*
X143055387Y-101167219D02*
X142912530Y-101214838D01*
X142912530Y-101214838D02*
X142817292Y-101310076D01*
X142817292Y-101310076D02*
X142769673Y-101405314D01*
X142769673Y-101405314D02*
X142722054Y-101595790D01*
X142722054Y-101595790D02*
X142722054Y-101738647D01*
X142722054Y-101738647D02*
X142769673Y-101929123D01*
X142769673Y-101929123D02*
X142817292Y-102024361D01*
X142817292Y-102024361D02*
X142912530Y-102119600D01*
X142912530Y-102119600D02*
X143055387Y-102167219D01*
X143055387Y-102167219D02*
X143150625Y-102167219D01*
X143150625Y-102167219D02*
X143293482Y-102119600D01*
X143293482Y-102119600D02*
X143341101Y-102071980D01*
X143341101Y-102071980D02*
X143341101Y-101738647D01*
X143341101Y-101738647D02*
X143150625Y-101738647D01*
X143769673Y-102167219D02*
X143769673Y-101500552D01*
X143769673Y-101167219D02*
X143722054Y-101214838D01*
X143722054Y-101214838D02*
X143769673Y-101262457D01*
X143769673Y-101262457D02*
X143817292Y-101214838D01*
X143817292Y-101214838D02*
X143769673Y-101167219D01*
X143769673Y-101167219D02*
X143769673Y-101262457D01*
X144103006Y-101500552D02*
X144483958Y-101500552D01*
X144245863Y-101167219D02*
X144245863Y-102024361D01*
X144245863Y-102024361D02*
X144293482Y-102119600D01*
X144293482Y-102119600D02*
X144388720Y-102167219D01*
X144388720Y-102167219D02*
X144483958Y-102167219D01*
X144817292Y-102167219D02*
X144817292Y-101167219D01*
X144817292Y-101643409D02*
X145388720Y-101643409D01*
X145388720Y-102167219D02*
X145388720Y-101167219D01*
X146293482Y-101500552D02*
X146293482Y-102167219D01*
X145864911Y-101500552D02*
X145864911Y-102024361D01*
X145864911Y-102024361D02*
X145912530Y-102119600D01*
X145912530Y-102119600D02*
X146007768Y-102167219D01*
X146007768Y-102167219D02*
X146150625Y-102167219D01*
X146150625Y-102167219D02*
X146245863Y-102119600D01*
X146245863Y-102119600D02*
X146293482Y-102071980D01*
X146769673Y-102167219D02*
X146769673Y-101167219D01*
X146769673Y-101548171D02*
X146864911Y-101500552D01*
X146864911Y-101500552D02*
X147055387Y-101500552D01*
X147055387Y-101500552D02*
X147150625Y-101548171D01*
X147150625Y-101548171D02*
X147198244Y-101595790D01*
X147198244Y-101595790D02*
X147245863Y-101691028D01*
X147245863Y-101691028D02*
X147245863Y-101976742D01*
X147245863Y-101976742D02*
X147198244Y-102071980D01*
X147198244Y-102071980D02*
X147150625Y-102119600D01*
X147150625Y-102119600D02*
X147055387Y-102167219D01*
X147055387Y-102167219D02*
X146864911Y-102167219D01*
X146864911Y-102167219D02*
X146769673Y-102119600D01*
D11*
X122336840Y-75303345D02*
X123289221Y-75303345D01*
X122146364Y-75874774D02*
X122813030Y-73874774D01*
X122813030Y-73874774D02*
X123479697Y-75874774D01*
X125003507Y-75874774D02*
X125003507Y-73874774D01*
X125003507Y-75779536D02*
X124813031Y-75874774D01*
X124813031Y-75874774D02*
X124432078Y-75874774D01*
X124432078Y-75874774D02*
X124241602Y-75779536D01*
X124241602Y-75779536D02*
X124146364Y-75684297D01*
X124146364Y-75684297D02*
X124051126Y-75493821D01*
X124051126Y-75493821D02*
X124051126Y-74922393D01*
X124051126Y-74922393D02*
X124146364Y-74731916D01*
X124146364Y-74731916D02*
X124241602Y-74636678D01*
X124241602Y-74636678D02*
X124432078Y-74541440D01*
X124432078Y-74541440D02*
X124813031Y-74541440D01*
X124813031Y-74541440D02*
X125003507Y-74636678D01*
X126813031Y-75874774D02*
X126813031Y-74827155D01*
X126813031Y-74827155D02*
X126717793Y-74636678D01*
X126717793Y-74636678D02*
X126527317Y-74541440D01*
X126527317Y-74541440D02*
X126146364Y-74541440D01*
X126146364Y-74541440D02*
X125955888Y-74636678D01*
X126813031Y-75779536D02*
X126622555Y-75874774D01*
X126622555Y-75874774D02*
X126146364Y-75874774D01*
X126146364Y-75874774D02*
X125955888Y-75779536D01*
X125955888Y-75779536D02*
X125860650Y-75589059D01*
X125860650Y-75589059D02*
X125860650Y-75398583D01*
X125860650Y-75398583D02*
X125955888Y-75208107D01*
X125955888Y-75208107D02*
X126146364Y-75112869D01*
X126146364Y-75112869D02*
X126622555Y-75112869D01*
X126622555Y-75112869D02*
X126813031Y-75017631D01*
X127765412Y-75874774D02*
X127765412Y-74541440D01*
X127765412Y-74731916D02*
X127860650Y-74636678D01*
X127860650Y-74636678D02*
X128051126Y-74541440D01*
X128051126Y-74541440D02*
X128336841Y-74541440D01*
X128336841Y-74541440D02*
X128527317Y-74636678D01*
X128527317Y-74636678D02*
X128622555Y-74827155D01*
X128622555Y-74827155D02*
X128622555Y-75874774D01*
X128622555Y-74827155D02*
X128717793Y-74636678D01*
X128717793Y-74636678D02*
X128908269Y-74541440D01*
X128908269Y-74541440D02*
X129193983Y-74541440D01*
X129193983Y-74541440D02*
X129384460Y-74636678D01*
X129384460Y-74636678D02*
X129479698Y-74827155D01*
X129479698Y-74827155D02*
X129479698Y-75874774D01*
X131955889Y-75874774D02*
X131955889Y-73874774D01*
X131955889Y-74827155D02*
X133098746Y-74827155D01*
X133098746Y-75874774D02*
X133098746Y-73874774D01*
X134908270Y-75874774D02*
X134908270Y-74827155D01*
X134908270Y-74827155D02*
X134813032Y-74636678D01*
X134813032Y-74636678D02*
X134622556Y-74541440D01*
X134622556Y-74541440D02*
X134241603Y-74541440D01*
X134241603Y-74541440D02*
X134051127Y-74636678D01*
X134908270Y-75779536D02*
X134717794Y-75874774D01*
X134717794Y-75874774D02*
X134241603Y-75874774D01*
X134241603Y-75874774D02*
X134051127Y-75779536D01*
X134051127Y-75779536D02*
X133955889Y-75589059D01*
X133955889Y-75589059D02*
X133955889Y-75398583D01*
X133955889Y-75398583D02*
X134051127Y-75208107D01*
X134051127Y-75208107D02*
X134241603Y-75112869D01*
X134241603Y-75112869D02*
X134717794Y-75112869D01*
X134717794Y-75112869D02*
X134908270Y-75017631D01*
X136717794Y-74541440D02*
X136717794Y-76160488D01*
X136717794Y-76160488D02*
X136622556Y-76350964D01*
X136622556Y-76350964D02*
X136527318Y-76446202D01*
X136527318Y-76446202D02*
X136336841Y-76541440D01*
X136336841Y-76541440D02*
X136051127Y-76541440D01*
X136051127Y-76541440D02*
X135860651Y-76446202D01*
X136717794Y-75779536D02*
X136527318Y-75874774D01*
X136527318Y-75874774D02*
X136146365Y-75874774D01*
X136146365Y-75874774D02*
X135955889Y-75779536D01*
X135955889Y-75779536D02*
X135860651Y-75684297D01*
X135860651Y-75684297D02*
X135765413Y-75493821D01*
X135765413Y-75493821D02*
X135765413Y-74922393D01*
X135765413Y-74922393D02*
X135860651Y-74731916D01*
X135860651Y-74731916D02*
X135955889Y-74636678D01*
X135955889Y-74636678D02*
X136146365Y-74541440D01*
X136146365Y-74541440D02*
X136527318Y-74541440D01*
X136527318Y-74541440D02*
X136717794Y-74636678D01*
X138432080Y-75779536D02*
X138241604Y-75874774D01*
X138241604Y-75874774D02*
X137860651Y-75874774D01*
X137860651Y-75874774D02*
X137670175Y-75779536D01*
X137670175Y-75779536D02*
X137574937Y-75589059D01*
X137574937Y-75589059D02*
X137574937Y-74827155D01*
X137574937Y-74827155D02*
X137670175Y-74636678D01*
X137670175Y-74636678D02*
X137860651Y-74541440D01*
X137860651Y-74541440D02*
X138241604Y-74541440D01*
X138241604Y-74541440D02*
X138432080Y-74636678D01*
X138432080Y-74636678D02*
X138527318Y-74827155D01*
X138527318Y-74827155D02*
X138527318Y-75017631D01*
X138527318Y-75017631D02*
X137574937Y-75208107D01*
X139384461Y-74541440D02*
X139384461Y-75874774D01*
X139384461Y-74731916D02*
X139479699Y-74636678D01*
X139479699Y-74636678D02*
X139670175Y-74541440D01*
X139670175Y-74541440D02*
X139955890Y-74541440D01*
X139955890Y-74541440D02*
X140146366Y-74636678D01*
X140146366Y-74636678D02*
X140241604Y-74827155D01*
X140241604Y-74827155D02*
X140241604Y-75874774D01*
X142051128Y-74541440D02*
X142051128Y-76160488D01*
X142051128Y-76160488D02*
X141955890Y-76350964D01*
X141955890Y-76350964D02*
X141860652Y-76446202D01*
X141860652Y-76446202D02*
X141670175Y-76541440D01*
X141670175Y-76541440D02*
X141384461Y-76541440D01*
X141384461Y-76541440D02*
X141193985Y-76446202D01*
X142051128Y-75779536D02*
X141860652Y-75874774D01*
X141860652Y-75874774D02*
X141479699Y-75874774D01*
X141479699Y-75874774D02*
X141289223Y-75779536D01*
X141289223Y-75779536D02*
X141193985Y-75684297D01*
X141193985Y-75684297D02*
X141098747Y-75493821D01*
X141098747Y-75493821D02*
X141098747Y-74922393D01*
X141098747Y-74922393D02*
X141193985Y-74731916D01*
X141193985Y-74731916D02*
X141289223Y-74636678D01*
X141289223Y-74636678D02*
X141479699Y-74541440D01*
X141479699Y-74541440D02*
X141860652Y-74541440D01*
X141860652Y-74541440D02*
X142051128Y-74636678D01*
X143003509Y-75874774D02*
X143003509Y-74541440D01*
X143003509Y-74922393D02*
X143098747Y-74731916D01*
X143098747Y-74731916D02*
X143193985Y-74636678D01*
X143193985Y-74636678D02*
X143384461Y-74541440D01*
X143384461Y-74541440D02*
X143574938Y-74541440D01*
X145098747Y-74541440D02*
X145098747Y-75874774D01*
X144241604Y-74541440D02*
X144241604Y-75589059D01*
X144241604Y-75589059D02*
X144336842Y-75779536D01*
X144336842Y-75779536D02*
X144527318Y-75874774D01*
X144527318Y-75874774D02*
X144813033Y-75874774D01*
X144813033Y-75874774D02*
X145003509Y-75779536D01*
X145003509Y-75779536D02*
X145098747Y-75684297D01*
X146051128Y-75874774D02*
X146051128Y-73874774D01*
X146051128Y-74636678D02*
X146241604Y-74541440D01*
X146241604Y-74541440D02*
X146622557Y-74541440D01*
X146622557Y-74541440D02*
X146813033Y-74636678D01*
X146813033Y-74636678D02*
X146908271Y-74731916D01*
X146908271Y-74731916D02*
X147003509Y-74922393D01*
X147003509Y-74922393D02*
X147003509Y-75493821D01*
X147003509Y-75493821D02*
X146908271Y-75684297D01*
X146908271Y-75684297D02*
X146813033Y-75779536D01*
X146813033Y-75779536D02*
X146622557Y-75874774D01*
X146622557Y-75874774D02*
X146241604Y-75874774D01*
X146241604Y-75874774D02*
X146051128Y-75779536D01*
X148622557Y-75779536D02*
X148432081Y-75874774D01*
X148432081Y-75874774D02*
X148051128Y-75874774D01*
X148051128Y-75874774D02*
X147860652Y-75779536D01*
X147860652Y-75779536D02*
X147765414Y-75589059D01*
X147765414Y-75589059D02*
X147765414Y-74827155D01*
X147765414Y-74827155D02*
X147860652Y-74636678D01*
X147860652Y-74636678D02*
X148051128Y-74541440D01*
X148051128Y-74541440D02*
X148432081Y-74541440D01*
X148432081Y-74541440D02*
X148622557Y-74636678D01*
X148622557Y-74636678D02*
X148717795Y-74827155D01*
X148717795Y-74827155D02*
X148717795Y-75017631D01*
X148717795Y-75017631D02*
X147765414Y-75208107D01*
X149574938Y-75874774D02*
X149574938Y-74541440D01*
X149574938Y-74922393D02*
X149670176Y-74731916D01*
X149670176Y-74731916D02*
X149765414Y-74636678D01*
X149765414Y-74636678D02*
X149955890Y-74541440D01*
X149955890Y-74541440D02*
X150146367Y-74541440D01*
X122622555Y-79094662D02*
X122622555Y-77094662D01*
X122622555Y-78047043D02*
X123765412Y-78047043D01*
X123765412Y-79094662D02*
X123765412Y-77094662D01*
X125574936Y-79094662D02*
X125574936Y-78047043D01*
X125574936Y-78047043D02*
X125479698Y-77856566D01*
X125479698Y-77856566D02*
X125289222Y-77761328D01*
X125289222Y-77761328D02*
X124908269Y-77761328D01*
X124908269Y-77761328D02*
X124717793Y-77856566D01*
X125574936Y-78999424D02*
X125384460Y-79094662D01*
X125384460Y-79094662D02*
X124908269Y-79094662D01*
X124908269Y-79094662D02*
X124717793Y-78999424D01*
X124717793Y-78999424D02*
X124622555Y-78808947D01*
X124622555Y-78808947D02*
X124622555Y-78618471D01*
X124622555Y-78618471D02*
X124717793Y-78427995D01*
X124717793Y-78427995D02*
X124908269Y-78332757D01*
X124908269Y-78332757D02*
X125384460Y-78332757D01*
X125384460Y-78332757D02*
X125574936Y-78237519D01*
X126527317Y-79094662D02*
X126527317Y-77761328D01*
X126527317Y-78142281D02*
X126622555Y-77951804D01*
X126622555Y-77951804D02*
X126717793Y-77856566D01*
X126717793Y-77856566D02*
X126908269Y-77761328D01*
X126908269Y-77761328D02*
X127098746Y-77761328D01*
X128622555Y-79094662D02*
X128622555Y-77094662D01*
X128622555Y-78999424D02*
X128432079Y-79094662D01*
X128432079Y-79094662D02*
X128051126Y-79094662D01*
X128051126Y-79094662D02*
X127860650Y-78999424D01*
X127860650Y-78999424D02*
X127765412Y-78904185D01*
X127765412Y-78904185D02*
X127670174Y-78713709D01*
X127670174Y-78713709D02*
X127670174Y-78142281D01*
X127670174Y-78142281D02*
X127765412Y-77951804D01*
X127765412Y-77951804D02*
X127860650Y-77856566D01*
X127860650Y-77856566D02*
X128051126Y-77761328D01*
X128051126Y-77761328D02*
X128432079Y-77761328D01*
X128432079Y-77761328D02*
X128622555Y-77856566D01*
X129384460Y-77761328D02*
X129765412Y-79094662D01*
X129765412Y-79094662D02*
X130146365Y-78142281D01*
X130146365Y-78142281D02*
X130527317Y-79094662D01*
X130527317Y-79094662D02*
X130908269Y-77761328D01*
X132527317Y-79094662D02*
X132527317Y-78047043D01*
X132527317Y-78047043D02*
X132432079Y-77856566D01*
X132432079Y-77856566D02*
X132241603Y-77761328D01*
X132241603Y-77761328D02*
X131860650Y-77761328D01*
X131860650Y-77761328D02*
X131670174Y-77856566D01*
X132527317Y-78999424D02*
X132336841Y-79094662D01*
X132336841Y-79094662D02*
X131860650Y-79094662D01*
X131860650Y-79094662D02*
X131670174Y-78999424D01*
X131670174Y-78999424D02*
X131574936Y-78808947D01*
X131574936Y-78808947D02*
X131574936Y-78618471D01*
X131574936Y-78618471D02*
X131670174Y-78427995D01*
X131670174Y-78427995D02*
X131860650Y-78332757D01*
X131860650Y-78332757D02*
X132336841Y-78332757D01*
X132336841Y-78332757D02*
X132527317Y-78237519D01*
X133479698Y-79094662D02*
X133479698Y-77761328D01*
X133479698Y-78142281D02*
X133574936Y-77951804D01*
X133574936Y-77951804D02*
X133670174Y-77856566D01*
X133670174Y-77856566D02*
X133860650Y-77761328D01*
X133860650Y-77761328D02*
X134051127Y-77761328D01*
X135479698Y-78999424D02*
X135289222Y-79094662D01*
X135289222Y-79094662D02*
X134908269Y-79094662D01*
X134908269Y-79094662D02*
X134717793Y-78999424D01*
X134717793Y-78999424D02*
X134622555Y-78808947D01*
X134622555Y-78808947D02*
X134622555Y-78047043D01*
X134622555Y-78047043D02*
X134717793Y-77856566D01*
X134717793Y-77856566D02*
X134908269Y-77761328D01*
X134908269Y-77761328D02*
X135289222Y-77761328D01*
X135289222Y-77761328D02*
X135479698Y-77856566D01*
X135479698Y-77856566D02*
X135574936Y-78047043D01*
X135574936Y-78047043D02*
X135574936Y-78237519D01*
X135574936Y-78237519D02*
X134622555Y-78427995D01*
X137955889Y-78047043D02*
X138622556Y-78047043D01*
X138908270Y-79094662D02*
X137955889Y-79094662D01*
X137955889Y-79094662D02*
X137955889Y-77094662D01*
X137955889Y-77094662D02*
X138908270Y-77094662D01*
X139765413Y-77761328D02*
X139765413Y-79094662D01*
X139765413Y-77951804D02*
X139860651Y-77856566D01*
X139860651Y-77856566D02*
X140051127Y-77761328D01*
X140051127Y-77761328D02*
X140336842Y-77761328D01*
X140336842Y-77761328D02*
X140527318Y-77856566D01*
X140527318Y-77856566D02*
X140622556Y-78047043D01*
X140622556Y-78047043D02*
X140622556Y-79094662D01*
X142432080Y-77761328D02*
X142432080Y-79380376D01*
X142432080Y-79380376D02*
X142336842Y-79570852D01*
X142336842Y-79570852D02*
X142241604Y-79666090D01*
X142241604Y-79666090D02*
X142051127Y-79761328D01*
X142051127Y-79761328D02*
X141765413Y-79761328D01*
X141765413Y-79761328D02*
X141574937Y-79666090D01*
X142432080Y-78999424D02*
X142241604Y-79094662D01*
X142241604Y-79094662D02*
X141860651Y-79094662D01*
X141860651Y-79094662D02*
X141670175Y-78999424D01*
X141670175Y-78999424D02*
X141574937Y-78904185D01*
X141574937Y-78904185D02*
X141479699Y-78713709D01*
X141479699Y-78713709D02*
X141479699Y-78142281D01*
X141479699Y-78142281D02*
X141574937Y-77951804D01*
X141574937Y-77951804D02*
X141670175Y-77856566D01*
X141670175Y-77856566D02*
X141860651Y-77761328D01*
X141860651Y-77761328D02*
X142241604Y-77761328D01*
X142241604Y-77761328D02*
X142432080Y-77856566D01*
X143384461Y-79094662D02*
X143384461Y-77761328D01*
X143384461Y-77094662D02*
X143289223Y-77189900D01*
X143289223Y-77189900D02*
X143384461Y-77285138D01*
X143384461Y-77285138D02*
X143479699Y-77189900D01*
X143479699Y-77189900D02*
X143384461Y-77094662D01*
X143384461Y-77094662D02*
X143384461Y-77285138D01*
X144336842Y-77761328D02*
X144336842Y-79094662D01*
X144336842Y-77951804D02*
X144432080Y-77856566D01*
X144432080Y-77856566D02*
X144622556Y-77761328D01*
X144622556Y-77761328D02*
X144908271Y-77761328D01*
X144908271Y-77761328D02*
X145098747Y-77856566D01*
X145098747Y-77856566D02*
X145193985Y-78047043D01*
X145193985Y-78047043D02*
X145193985Y-79094662D01*
X146908271Y-78999424D02*
X146717795Y-79094662D01*
X146717795Y-79094662D02*
X146336842Y-79094662D01*
X146336842Y-79094662D02*
X146146366Y-78999424D01*
X146146366Y-78999424D02*
X146051128Y-78808947D01*
X146051128Y-78808947D02*
X146051128Y-78047043D01*
X146051128Y-78047043D02*
X146146366Y-77856566D01*
X146146366Y-77856566D02*
X146336842Y-77761328D01*
X146336842Y-77761328D02*
X146717795Y-77761328D01*
X146717795Y-77761328D02*
X146908271Y-77856566D01*
X146908271Y-77856566D02*
X147003509Y-78047043D01*
X147003509Y-78047043D02*
X147003509Y-78237519D01*
X147003509Y-78237519D02*
X146051128Y-78427995D01*
X148622557Y-78999424D02*
X148432081Y-79094662D01*
X148432081Y-79094662D02*
X148051128Y-79094662D01*
X148051128Y-79094662D02*
X147860652Y-78999424D01*
X147860652Y-78999424D02*
X147765414Y-78808947D01*
X147765414Y-78808947D02*
X147765414Y-78047043D01*
X147765414Y-78047043D02*
X147860652Y-77856566D01*
X147860652Y-77856566D02*
X148051128Y-77761328D01*
X148051128Y-77761328D02*
X148432081Y-77761328D01*
X148432081Y-77761328D02*
X148622557Y-77856566D01*
X148622557Y-77856566D02*
X148717795Y-78047043D01*
X148717795Y-78047043D02*
X148717795Y-78237519D01*
X148717795Y-78237519D02*
X147765414Y-78427995D01*
X149574938Y-79094662D02*
X149574938Y-77761328D01*
X149574938Y-78142281D02*
X149670176Y-77951804D01*
X149670176Y-77951804D02*
X149765414Y-77856566D01*
X149765414Y-77856566D02*
X149955890Y-77761328D01*
X149955890Y-77761328D02*
X150146367Y-77761328D01*
X95765409Y-82219312D02*
X96051123Y-82314550D01*
X96051123Y-82314550D02*
X96527314Y-82314550D01*
X96527314Y-82314550D02*
X96717790Y-82219312D01*
X96717790Y-82219312D02*
X96813028Y-82124073D01*
X96813028Y-82124073D02*
X96908266Y-81933597D01*
X96908266Y-81933597D02*
X96908266Y-81743121D01*
X96908266Y-81743121D02*
X96813028Y-81552645D01*
X96813028Y-81552645D02*
X96717790Y-81457407D01*
X96717790Y-81457407D02*
X96527314Y-81362169D01*
X96527314Y-81362169D02*
X96146361Y-81266931D01*
X96146361Y-81266931D02*
X95955885Y-81171692D01*
X95955885Y-81171692D02*
X95860647Y-81076454D01*
X95860647Y-81076454D02*
X95765409Y-80885978D01*
X95765409Y-80885978D02*
X95765409Y-80695502D01*
X95765409Y-80695502D02*
X95860647Y-80505026D01*
X95860647Y-80505026D02*
X95955885Y-80409788D01*
X95955885Y-80409788D02*
X96146361Y-80314550D01*
X96146361Y-80314550D02*
X96622552Y-80314550D01*
X96622552Y-80314550D02*
X96908266Y-80409788D01*
X98622552Y-82219312D02*
X98432076Y-82314550D01*
X98432076Y-82314550D02*
X98051123Y-82314550D01*
X98051123Y-82314550D02*
X97860647Y-82219312D01*
X97860647Y-82219312D02*
X97765409Y-82124073D01*
X97765409Y-82124073D02*
X97670171Y-81933597D01*
X97670171Y-81933597D02*
X97670171Y-81362169D01*
X97670171Y-81362169D02*
X97765409Y-81171692D01*
X97765409Y-81171692D02*
X97860647Y-81076454D01*
X97860647Y-81076454D02*
X98051123Y-80981216D01*
X98051123Y-80981216D02*
X98432076Y-80981216D01*
X98432076Y-80981216D02*
X98622552Y-81076454D01*
X99479695Y-82314550D02*
X99479695Y-80314550D01*
X100336838Y-82314550D02*
X100336838Y-81266931D01*
X100336838Y-81266931D02*
X100241600Y-81076454D01*
X100241600Y-81076454D02*
X100051124Y-80981216D01*
X100051124Y-80981216D02*
X99765409Y-80981216D01*
X99765409Y-80981216D02*
X99574933Y-81076454D01*
X99574933Y-81076454D02*
X99479695Y-81171692D01*
X101098743Y-80981216D02*
X101479695Y-82314550D01*
X101479695Y-82314550D02*
X101860648Y-81362169D01*
X101860648Y-81362169D02*
X102241600Y-82314550D01*
X102241600Y-82314550D02*
X102622552Y-80981216D01*
X104146362Y-82219312D02*
X103955886Y-82314550D01*
X103955886Y-82314550D02*
X103574933Y-82314550D01*
X103574933Y-82314550D02*
X103384457Y-82219312D01*
X103384457Y-82219312D02*
X103289219Y-82028835D01*
X103289219Y-82028835D02*
X103289219Y-81266931D01*
X103289219Y-81266931D02*
X103384457Y-81076454D01*
X103384457Y-81076454D02*
X103574933Y-80981216D01*
X103574933Y-80981216D02*
X103955886Y-80981216D01*
X103955886Y-80981216D02*
X104146362Y-81076454D01*
X104146362Y-81076454D02*
X104241600Y-81266931D01*
X104241600Y-81266931D02*
X104241600Y-81457407D01*
X104241600Y-81457407D02*
X103289219Y-81647883D01*
X105098743Y-82314550D02*
X105098743Y-80981216D01*
X105098743Y-80314550D02*
X105003505Y-80409788D01*
X105003505Y-80409788D02*
X105098743Y-80505026D01*
X105098743Y-80505026D02*
X105193981Y-80409788D01*
X105193981Y-80409788D02*
X105098743Y-80314550D01*
X105098743Y-80314550D02*
X105098743Y-80505026D01*
X105765410Y-80981216D02*
X106527314Y-80981216D01*
X106051124Y-80314550D02*
X106051124Y-82028835D01*
X106051124Y-82028835D02*
X106146362Y-82219312D01*
X106146362Y-82219312D02*
X106336838Y-82314550D01*
X106336838Y-82314550D02*
X106527314Y-82314550D01*
X107003505Y-80981216D02*
X108051124Y-80981216D01*
X108051124Y-80981216D02*
X107003505Y-82314550D01*
X107003505Y-82314550D02*
X108051124Y-82314550D01*
X109574934Y-82219312D02*
X109384458Y-82314550D01*
X109384458Y-82314550D02*
X109003505Y-82314550D01*
X109003505Y-82314550D02*
X108813029Y-82219312D01*
X108813029Y-82219312D02*
X108717791Y-82028835D01*
X108717791Y-82028835D02*
X108717791Y-81266931D01*
X108717791Y-81266931D02*
X108813029Y-81076454D01*
X108813029Y-81076454D02*
X109003505Y-80981216D01*
X109003505Y-80981216D02*
X109384458Y-80981216D01*
X109384458Y-80981216D02*
X109574934Y-81076454D01*
X109574934Y-81076454D02*
X109670172Y-81266931D01*
X109670172Y-81266931D02*
X109670172Y-81457407D01*
X109670172Y-81457407D02*
X108717791Y-81647883D01*
X110527315Y-82314550D02*
X110527315Y-80981216D01*
X110527315Y-81362169D02*
X110622553Y-81171692D01*
X110622553Y-81171692D02*
X110717791Y-81076454D01*
X110717791Y-81076454D02*
X110908267Y-80981216D01*
X110908267Y-80981216D02*
X111098744Y-80981216D01*
X113289220Y-81266931D02*
X113955887Y-81266931D01*
X114241601Y-82314550D02*
X113289220Y-82314550D01*
X113289220Y-82314550D02*
X113289220Y-80314550D01*
X113289220Y-80314550D02*
X114241601Y-80314550D01*
X115098744Y-80981216D02*
X115098744Y-82314550D01*
X115098744Y-81171692D02*
X115193982Y-81076454D01*
X115193982Y-81076454D02*
X115384458Y-80981216D01*
X115384458Y-80981216D02*
X115670173Y-80981216D01*
X115670173Y-80981216D02*
X115860649Y-81076454D01*
X115860649Y-81076454D02*
X115955887Y-81266931D01*
X115955887Y-81266931D02*
X115955887Y-82314550D01*
X117765411Y-80981216D02*
X117765411Y-82600264D01*
X117765411Y-82600264D02*
X117670173Y-82790740D01*
X117670173Y-82790740D02*
X117574935Y-82885978D01*
X117574935Y-82885978D02*
X117384458Y-82981216D01*
X117384458Y-82981216D02*
X117098744Y-82981216D01*
X117098744Y-82981216D02*
X116908268Y-82885978D01*
X117765411Y-82219312D02*
X117574935Y-82314550D01*
X117574935Y-82314550D02*
X117193982Y-82314550D01*
X117193982Y-82314550D02*
X117003506Y-82219312D01*
X117003506Y-82219312D02*
X116908268Y-82124073D01*
X116908268Y-82124073D02*
X116813030Y-81933597D01*
X116813030Y-81933597D02*
X116813030Y-81362169D01*
X116813030Y-81362169D02*
X116908268Y-81171692D01*
X116908268Y-81171692D02*
X117003506Y-81076454D01*
X117003506Y-81076454D02*
X117193982Y-80981216D01*
X117193982Y-80981216D02*
X117574935Y-80981216D01*
X117574935Y-80981216D02*
X117765411Y-81076454D01*
X118717792Y-82314550D02*
X118717792Y-80981216D01*
X118717792Y-80314550D02*
X118622554Y-80409788D01*
X118622554Y-80409788D02*
X118717792Y-80505026D01*
X118717792Y-80505026D02*
X118813030Y-80409788D01*
X118813030Y-80409788D02*
X118717792Y-80314550D01*
X118717792Y-80314550D02*
X118717792Y-80505026D01*
X119670173Y-80981216D02*
X119670173Y-82314550D01*
X119670173Y-81171692D02*
X119765411Y-81076454D01*
X119765411Y-81076454D02*
X119955887Y-80981216D01*
X119955887Y-80981216D02*
X120241602Y-80981216D01*
X120241602Y-80981216D02*
X120432078Y-81076454D01*
X120432078Y-81076454D02*
X120527316Y-81266931D01*
X120527316Y-81266931D02*
X120527316Y-82314550D01*
X122241602Y-82219312D02*
X122051126Y-82314550D01*
X122051126Y-82314550D02*
X121670173Y-82314550D01*
X121670173Y-82314550D02*
X121479697Y-82219312D01*
X121479697Y-82219312D02*
X121384459Y-82028835D01*
X121384459Y-82028835D02*
X121384459Y-81266931D01*
X121384459Y-81266931D02*
X121479697Y-81076454D01*
X121479697Y-81076454D02*
X121670173Y-80981216D01*
X121670173Y-80981216D02*
X122051126Y-80981216D01*
X122051126Y-80981216D02*
X122241602Y-81076454D01*
X122241602Y-81076454D02*
X122336840Y-81266931D01*
X122336840Y-81266931D02*
X122336840Y-81457407D01*
X122336840Y-81457407D02*
X121384459Y-81647883D01*
X123955888Y-82219312D02*
X123765412Y-82314550D01*
X123765412Y-82314550D02*
X123384459Y-82314550D01*
X123384459Y-82314550D02*
X123193983Y-82219312D01*
X123193983Y-82219312D02*
X123098745Y-82028835D01*
X123098745Y-82028835D02*
X123098745Y-81266931D01*
X123098745Y-81266931D02*
X123193983Y-81076454D01*
X123193983Y-81076454D02*
X123384459Y-80981216D01*
X123384459Y-80981216D02*
X123765412Y-80981216D01*
X123765412Y-80981216D02*
X123955888Y-81076454D01*
X123955888Y-81076454D02*
X124051126Y-81266931D01*
X124051126Y-81266931D02*
X124051126Y-81457407D01*
X124051126Y-81457407D02*
X123098745Y-81647883D01*
X124908269Y-82314550D02*
X124908269Y-80981216D01*
X124908269Y-81362169D02*
X125003507Y-81171692D01*
X125003507Y-81171692D02*
X125098745Y-81076454D01*
X125098745Y-81076454D02*
X125289221Y-80981216D01*
X125289221Y-80981216D02*
X125479698Y-80981216D01*
X126146364Y-82314550D02*
X126146364Y-80981216D01*
X126146364Y-80314550D02*
X126051126Y-80409788D01*
X126051126Y-80409788D02*
X126146364Y-80505026D01*
X126146364Y-80505026D02*
X126241602Y-80409788D01*
X126241602Y-80409788D02*
X126146364Y-80314550D01*
X126146364Y-80314550D02*
X126146364Y-80505026D01*
X127098745Y-80981216D02*
X127098745Y-82314550D01*
X127098745Y-81171692D02*
X127193983Y-81076454D01*
X127193983Y-81076454D02*
X127384459Y-80981216D01*
X127384459Y-80981216D02*
X127670174Y-80981216D01*
X127670174Y-80981216D02*
X127860650Y-81076454D01*
X127860650Y-81076454D02*
X127955888Y-81266931D01*
X127955888Y-81266931D02*
X127955888Y-82314550D01*
X129765412Y-80981216D02*
X129765412Y-82600264D01*
X129765412Y-82600264D02*
X129670174Y-82790740D01*
X129670174Y-82790740D02*
X129574936Y-82885978D01*
X129574936Y-82885978D02*
X129384459Y-82981216D01*
X129384459Y-82981216D02*
X129098745Y-82981216D01*
X129098745Y-82981216D02*
X128908269Y-82885978D01*
X129765412Y-82219312D02*
X129574936Y-82314550D01*
X129574936Y-82314550D02*
X129193983Y-82314550D01*
X129193983Y-82314550D02*
X129003507Y-82219312D01*
X129003507Y-82219312D02*
X128908269Y-82124073D01*
X128908269Y-82124073D02*
X128813031Y-81933597D01*
X128813031Y-81933597D02*
X128813031Y-81362169D01*
X128813031Y-81362169D02*
X128908269Y-81171692D01*
X128908269Y-81171692D02*
X129003507Y-81076454D01*
X129003507Y-81076454D02*
X129193983Y-80981216D01*
X129193983Y-80981216D02*
X129574936Y-80981216D01*
X129574936Y-80981216D02*
X129765412Y-81076454D01*
X133193984Y-82314550D02*
X132241603Y-82314550D01*
X132241603Y-82314550D02*
X132241603Y-80314550D01*
X134717794Y-82314550D02*
X134717794Y-81266931D01*
X134717794Y-81266931D02*
X134622556Y-81076454D01*
X134622556Y-81076454D02*
X134432080Y-80981216D01*
X134432080Y-80981216D02*
X134051127Y-80981216D01*
X134051127Y-80981216D02*
X133860651Y-81076454D01*
X134717794Y-82219312D02*
X134527318Y-82314550D01*
X134527318Y-82314550D02*
X134051127Y-82314550D01*
X134051127Y-82314550D02*
X133860651Y-82219312D01*
X133860651Y-82219312D02*
X133765413Y-82028835D01*
X133765413Y-82028835D02*
X133765413Y-81838359D01*
X133765413Y-81838359D02*
X133860651Y-81647883D01*
X133860651Y-81647883D02*
X134051127Y-81552645D01*
X134051127Y-81552645D02*
X134527318Y-81552645D01*
X134527318Y-81552645D02*
X134717794Y-81457407D01*
X135670175Y-82314550D02*
X135670175Y-80314550D01*
X135670175Y-81076454D02*
X135860651Y-80981216D01*
X135860651Y-80981216D02*
X136241604Y-80981216D01*
X136241604Y-80981216D02*
X136432080Y-81076454D01*
X136432080Y-81076454D02*
X136527318Y-81171692D01*
X136527318Y-81171692D02*
X136622556Y-81362169D01*
X136622556Y-81362169D02*
X136622556Y-81933597D01*
X136622556Y-81933597D02*
X136527318Y-82124073D01*
X136527318Y-82124073D02*
X136432080Y-82219312D01*
X136432080Y-82219312D02*
X136241604Y-82314550D01*
X136241604Y-82314550D02*
X135860651Y-82314550D01*
X135860651Y-82314550D02*
X135670175Y-82219312D01*
X137765413Y-82314550D02*
X137574937Y-82219312D01*
X137574937Y-82219312D02*
X137479699Y-82124073D01*
X137479699Y-82124073D02*
X137384461Y-81933597D01*
X137384461Y-81933597D02*
X137384461Y-81362169D01*
X137384461Y-81362169D02*
X137479699Y-81171692D01*
X137479699Y-81171692D02*
X137574937Y-81076454D01*
X137574937Y-81076454D02*
X137765413Y-80981216D01*
X137765413Y-80981216D02*
X138051128Y-80981216D01*
X138051128Y-80981216D02*
X138241604Y-81076454D01*
X138241604Y-81076454D02*
X138336842Y-81171692D01*
X138336842Y-81171692D02*
X138432080Y-81362169D01*
X138432080Y-81362169D02*
X138432080Y-81933597D01*
X138432080Y-81933597D02*
X138336842Y-82124073D01*
X138336842Y-82124073D02*
X138241604Y-82219312D01*
X138241604Y-82219312D02*
X138051128Y-82314550D01*
X138051128Y-82314550D02*
X137765413Y-82314550D01*
X139289223Y-82314550D02*
X139289223Y-80981216D01*
X139289223Y-81362169D02*
X139384461Y-81171692D01*
X139384461Y-81171692D02*
X139479699Y-81076454D01*
X139479699Y-81076454D02*
X139670175Y-80981216D01*
X139670175Y-80981216D02*
X139860652Y-80981216D01*
X141384461Y-82314550D02*
X141384461Y-81266931D01*
X141384461Y-81266931D02*
X141289223Y-81076454D01*
X141289223Y-81076454D02*
X141098747Y-80981216D01*
X141098747Y-80981216D02*
X140717794Y-80981216D01*
X140717794Y-80981216D02*
X140527318Y-81076454D01*
X141384461Y-82219312D02*
X141193985Y-82314550D01*
X141193985Y-82314550D02*
X140717794Y-82314550D01*
X140717794Y-82314550D02*
X140527318Y-82219312D01*
X140527318Y-82219312D02*
X140432080Y-82028835D01*
X140432080Y-82028835D02*
X140432080Y-81838359D01*
X140432080Y-81838359D02*
X140527318Y-81647883D01*
X140527318Y-81647883D02*
X140717794Y-81552645D01*
X140717794Y-81552645D02*
X141193985Y-81552645D01*
X141193985Y-81552645D02*
X141384461Y-81457407D01*
X142051128Y-80981216D02*
X142813032Y-80981216D01*
X142336842Y-80314550D02*
X142336842Y-82028835D01*
X142336842Y-82028835D02*
X142432080Y-82219312D01*
X142432080Y-82219312D02*
X142622556Y-82314550D01*
X142622556Y-82314550D02*
X142813032Y-82314550D01*
X143765413Y-82314550D02*
X143574937Y-82219312D01*
X143574937Y-82219312D02*
X143479699Y-82124073D01*
X143479699Y-82124073D02*
X143384461Y-81933597D01*
X143384461Y-81933597D02*
X143384461Y-81362169D01*
X143384461Y-81362169D02*
X143479699Y-81171692D01*
X143479699Y-81171692D02*
X143574937Y-81076454D01*
X143574937Y-81076454D02*
X143765413Y-80981216D01*
X143765413Y-80981216D02*
X144051128Y-80981216D01*
X144051128Y-80981216D02*
X144241604Y-81076454D01*
X144241604Y-81076454D02*
X144336842Y-81171692D01*
X144336842Y-81171692D02*
X144432080Y-81362169D01*
X144432080Y-81362169D02*
X144432080Y-81933597D01*
X144432080Y-81933597D02*
X144336842Y-82124073D01*
X144336842Y-82124073D02*
X144241604Y-82219312D01*
X144241604Y-82219312D02*
X144051128Y-82314550D01*
X144051128Y-82314550D02*
X143765413Y-82314550D01*
X145289223Y-82314550D02*
X145289223Y-80981216D01*
X145289223Y-81362169D02*
X145384461Y-81171692D01*
X145384461Y-81171692D02*
X145479699Y-81076454D01*
X145479699Y-81076454D02*
X145670175Y-80981216D01*
X145670175Y-80981216D02*
X145860652Y-80981216D01*
X146527318Y-82314550D02*
X146527318Y-80981216D01*
X146527318Y-80314550D02*
X146432080Y-80409788D01*
X146432080Y-80409788D02*
X146527318Y-80505026D01*
X146527318Y-80505026D02*
X146622556Y-80409788D01*
X146622556Y-80409788D02*
X146527318Y-80314550D01*
X146527318Y-80314550D02*
X146527318Y-80505026D01*
X148241604Y-82219312D02*
X148051128Y-82314550D01*
X148051128Y-82314550D02*
X147670175Y-82314550D01*
X147670175Y-82314550D02*
X147479699Y-82219312D01*
X147479699Y-82219312D02*
X147384461Y-82028835D01*
X147384461Y-82028835D02*
X147384461Y-81266931D01*
X147384461Y-81266931D02*
X147479699Y-81076454D01*
X147479699Y-81076454D02*
X147670175Y-80981216D01*
X147670175Y-80981216D02*
X148051128Y-80981216D01*
X148051128Y-80981216D02*
X148241604Y-81076454D01*
X148241604Y-81076454D02*
X148336842Y-81266931D01*
X148336842Y-81266931D02*
X148336842Y-81457407D01*
X148336842Y-81457407D02*
X147384461Y-81647883D01*
X149098747Y-82219312D02*
X149289223Y-82314550D01*
X149289223Y-82314550D02*
X149670175Y-82314550D01*
X149670175Y-82314550D02*
X149860652Y-82219312D01*
X149860652Y-82219312D02*
X149955890Y-82028835D01*
X149955890Y-82028835D02*
X149955890Y-81933597D01*
X149955890Y-81933597D02*
X149860652Y-81743121D01*
X149860652Y-81743121D02*
X149670175Y-81647883D01*
X149670175Y-81647883D02*
X149384461Y-81647883D01*
X149384461Y-81647883D02*
X149193985Y-81552645D01*
X149193985Y-81552645D02*
X149098747Y-81362169D01*
X149098747Y-81362169D02*
X149098747Y-81266931D01*
X149098747Y-81266931D02*
X149193985Y-81076454D01*
X149193985Y-81076454D02*
X149384461Y-80981216D01*
X149384461Y-80981216D02*
X149670175Y-80981216D01*
X149670175Y-80981216D02*
X149860652Y-81076454D01*
X107003505Y-85534438D02*
X107003505Y-84486819D01*
X107003505Y-84486819D02*
X106908267Y-84296342D01*
X106908267Y-84296342D02*
X106717791Y-84201104D01*
X106717791Y-84201104D02*
X106336838Y-84201104D01*
X106336838Y-84201104D02*
X106146362Y-84296342D01*
X107003505Y-85439200D02*
X106813029Y-85534438D01*
X106813029Y-85534438D02*
X106336838Y-85534438D01*
X106336838Y-85534438D02*
X106146362Y-85439200D01*
X106146362Y-85439200D02*
X106051124Y-85248723D01*
X106051124Y-85248723D02*
X106051124Y-85058247D01*
X106051124Y-85058247D02*
X106146362Y-84867771D01*
X106146362Y-84867771D02*
X106336838Y-84772533D01*
X106336838Y-84772533D02*
X106813029Y-84772533D01*
X106813029Y-84772533D02*
X107003505Y-84677295D01*
X108813029Y-85534438D02*
X108813029Y-83534438D01*
X108813029Y-85439200D02*
X108622553Y-85534438D01*
X108622553Y-85534438D02*
X108241600Y-85534438D01*
X108241600Y-85534438D02*
X108051124Y-85439200D01*
X108051124Y-85439200D02*
X107955886Y-85343961D01*
X107955886Y-85343961D02*
X107860648Y-85153485D01*
X107860648Y-85153485D02*
X107860648Y-84582057D01*
X107860648Y-84582057D02*
X107955886Y-84391580D01*
X107955886Y-84391580D02*
X108051124Y-84296342D01*
X108051124Y-84296342D02*
X108241600Y-84201104D01*
X108241600Y-84201104D02*
X108622553Y-84201104D01*
X108622553Y-84201104D02*
X108813029Y-84296342D01*
X110622553Y-85534438D02*
X110622553Y-84486819D01*
X110622553Y-84486819D02*
X110527315Y-84296342D01*
X110527315Y-84296342D02*
X110336839Y-84201104D01*
X110336839Y-84201104D02*
X109955886Y-84201104D01*
X109955886Y-84201104D02*
X109765410Y-84296342D01*
X110622553Y-85439200D02*
X110432077Y-85534438D01*
X110432077Y-85534438D02*
X109955886Y-85534438D01*
X109955886Y-85534438D02*
X109765410Y-85439200D01*
X109765410Y-85439200D02*
X109670172Y-85248723D01*
X109670172Y-85248723D02*
X109670172Y-85058247D01*
X109670172Y-85058247D02*
X109765410Y-84867771D01*
X109765410Y-84867771D02*
X109955886Y-84772533D01*
X109955886Y-84772533D02*
X110432077Y-84772533D01*
X110432077Y-84772533D02*
X110622553Y-84677295D01*
X111574934Y-85534438D02*
X111574934Y-84201104D01*
X111574934Y-84391580D02*
X111670172Y-84296342D01*
X111670172Y-84296342D02*
X111860648Y-84201104D01*
X111860648Y-84201104D02*
X112146363Y-84201104D01*
X112146363Y-84201104D02*
X112336839Y-84296342D01*
X112336839Y-84296342D02*
X112432077Y-84486819D01*
X112432077Y-84486819D02*
X112432077Y-85534438D01*
X112432077Y-84486819D02*
X112527315Y-84296342D01*
X112527315Y-84296342D02*
X112717791Y-84201104D01*
X112717791Y-84201104D02*
X113003505Y-84201104D01*
X113003505Y-84201104D02*
X113193982Y-84296342D01*
X113193982Y-84296342D02*
X113289220Y-84486819D01*
X113289220Y-84486819D02*
X113289220Y-85534438D01*
X114241601Y-85534438D02*
X114241601Y-83534438D01*
X115098744Y-85534438D02*
X115098744Y-84486819D01*
X115098744Y-84486819D02*
X115003506Y-84296342D01*
X115003506Y-84296342D02*
X114813030Y-84201104D01*
X114813030Y-84201104D02*
X114527315Y-84201104D01*
X114527315Y-84201104D02*
X114336839Y-84296342D01*
X114336839Y-84296342D02*
X114241601Y-84391580D01*
X116908268Y-85534438D02*
X116908268Y-84486819D01*
X116908268Y-84486819D02*
X116813030Y-84296342D01*
X116813030Y-84296342D02*
X116622554Y-84201104D01*
X116622554Y-84201104D02*
X116241601Y-84201104D01*
X116241601Y-84201104D02*
X116051125Y-84296342D01*
X116908268Y-85439200D02*
X116717792Y-85534438D01*
X116717792Y-85534438D02*
X116241601Y-85534438D01*
X116241601Y-85534438D02*
X116051125Y-85439200D01*
X116051125Y-85439200D02*
X115955887Y-85248723D01*
X115955887Y-85248723D02*
X115955887Y-85058247D01*
X115955887Y-85058247D02*
X116051125Y-84867771D01*
X116051125Y-84867771D02*
X116241601Y-84772533D01*
X116241601Y-84772533D02*
X116717792Y-84772533D01*
X116717792Y-84772533D02*
X116908268Y-84677295D01*
X118717792Y-84201104D02*
X118717792Y-85820152D01*
X118717792Y-85820152D02*
X118622554Y-86010628D01*
X118622554Y-86010628D02*
X118527316Y-86105866D01*
X118527316Y-86105866D02*
X118336839Y-86201104D01*
X118336839Y-86201104D02*
X118051125Y-86201104D01*
X118051125Y-86201104D02*
X117860649Y-86105866D01*
X118717792Y-85439200D02*
X118527316Y-85534438D01*
X118527316Y-85534438D02*
X118146363Y-85534438D01*
X118146363Y-85534438D02*
X117955887Y-85439200D01*
X117955887Y-85439200D02*
X117860649Y-85343961D01*
X117860649Y-85343961D02*
X117765411Y-85153485D01*
X117765411Y-85153485D02*
X117765411Y-84582057D01*
X117765411Y-84582057D02*
X117860649Y-84391580D01*
X117860649Y-84391580D02*
X117955887Y-84296342D01*
X117955887Y-84296342D02*
X118146363Y-84201104D01*
X118146363Y-84201104D02*
X118527316Y-84201104D01*
X118527316Y-84201104D02*
X118717792Y-84296342D01*
X120432078Y-85439200D02*
X120241602Y-85534438D01*
X120241602Y-85534438D02*
X119860649Y-85534438D01*
X119860649Y-85534438D02*
X119670173Y-85439200D01*
X119670173Y-85439200D02*
X119574935Y-85248723D01*
X119574935Y-85248723D02*
X119574935Y-84486819D01*
X119574935Y-84486819D02*
X119670173Y-84296342D01*
X119670173Y-84296342D02*
X119860649Y-84201104D01*
X119860649Y-84201104D02*
X120241602Y-84201104D01*
X120241602Y-84201104D02*
X120432078Y-84296342D01*
X120432078Y-84296342D02*
X120527316Y-84486819D01*
X120527316Y-84486819D02*
X120527316Y-84677295D01*
X120527316Y-84677295D02*
X119574935Y-84867771D01*
X121384459Y-84201104D02*
X121384459Y-85534438D01*
X121384459Y-84391580D02*
X121479697Y-84296342D01*
X121479697Y-84296342D02*
X121670173Y-84201104D01*
X121670173Y-84201104D02*
X121955888Y-84201104D01*
X121955888Y-84201104D02*
X122146364Y-84296342D01*
X122146364Y-84296342D02*
X122241602Y-84486819D01*
X122241602Y-84486819D02*
X122241602Y-85534438D01*
X124051126Y-84201104D02*
X124051126Y-85820152D01*
X124051126Y-85820152D02*
X123955888Y-86010628D01*
X123955888Y-86010628D02*
X123860650Y-86105866D01*
X123860650Y-86105866D02*
X123670173Y-86201104D01*
X123670173Y-86201104D02*
X123384459Y-86201104D01*
X123384459Y-86201104D02*
X123193983Y-86105866D01*
X124051126Y-85439200D02*
X123860650Y-85534438D01*
X123860650Y-85534438D02*
X123479697Y-85534438D01*
X123479697Y-85534438D02*
X123289221Y-85439200D01*
X123289221Y-85439200D02*
X123193983Y-85343961D01*
X123193983Y-85343961D02*
X123098745Y-85153485D01*
X123098745Y-85153485D02*
X123098745Y-84582057D01*
X123098745Y-84582057D02*
X123193983Y-84391580D01*
X123193983Y-84391580D02*
X123289221Y-84296342D01*
X123289221Y-84296342D02*
X123479697Y-84201104D01*
X123479697Y-84201104D02*
X123860650Y-84201104D01*
X123860650Y-84201104D02*
X124051126Y-84296342D01*
X125003507Y-85534438D02*
X125003507Y-84201104D01*
X125003507Y-84582057D02*
X125098745Y-84391580D01*
X125098745Y-84391580D02*
X125193983Y-84296342D01*
X125193983Y-84296342D02*
X125384459Y-84201104D01*
X125384459Y-84201104D02*
X125574936Y-84201104D01*
X127098745Y-84201104D02*
X127098745Y-85534438D01*
X126241602Y-84201104D02*
X126241602Y-85248723D01*
X126241602Y-85248723D02*
X126336840Y-85439200D01*
X126336840Y-85439200D02*
X126527316Y-85534438D01*
X126527316Y-85534438D02*
X126813031Y-85534438D01*
X126813031Y-85534438D02*
X127003507Y-85439200D01*
X127003507Y-85439200D02*
X127098745Y-85343961D01*
X128051126Y-85534438D02*
X128051126Y-83534438D01*
X128051126Y-84296342D02*
X128241602Y-84201104D01*
X128241602Y-84201104D02*
X128622555Y-84201104D01*
X128622555Y-84201104D02*
X128813031Y-84296342D01*
X128813031Y-84296342D02*
X128908269Y-84391580D01*
X128908269Y-84391580D02*
X129003507Y-84582057D01*
X129003507Y-84582057D02*
X129003507Y-85153485D01*
X129003507Y-85153485D02*
X128908269Y-85343961D01*
X128908269Y-85343961D02*
X128813031Y-85439200D01*
X128813031Y-85439200D02*
X128622555Y-85534438D01*
X128622555Y-85534438D02*
X128241602Y-85534438D01*
X128241602Y-85534438D02*
X128051126Y-85439200D01*
X130622555Y-85439200D02*
X130432079Y-85534438D01*
X130432079Y-85534438D02*
X130051126Y-85534438D01*
X130051126Y-85534438D02*
X129860650Y-85439200D01*
X129860650Y-85439200D02*
X129765412Y-85248723D01*
X129765412Y-85248723D02*
X129765412Y-84486819D01*
X129765412Y-84486819D02*
X129860650Y-84296342D01*
X129860650Y-84296342D02*
X130051126Y-84201104D01*
X130051126Y-84201104D02*
X130432079Y-84201104D01*
X130432079Y-84201104D02*
X130622555Y-84296342D01*
X130622555Y-84296342D02*
X130717793Y-84486819D01*
X130717793Y-84486819D02*
X130717793Y-84677295D01*
X130717793Y-84677295D02*
X129765412Y-84867771D01*
X131574936Y-85534438D02*
X131574936Y-84201104D01*
X131574936Y-84582057D02*
X131670174Y-84391580D01*
X131670174Y-84391580D02*
X131765412Y-84296342D01*
X131765412Y-84296342D02*
X131955888Y-84201104D01*
X131955888Y-84201104D02*
X132146365Y-84201104D01*
X134051126Y-84582057D02*
X133955888Y-84486819D01*
X133955888Y-84486819D02*
X133765412Y-84391580D01*
X133765412Y-84391580D02*
X133574936Y-84391580D01*
X133574936Y-84391580D02*
X133384460Y-84486819D01*
X133384460Y-84486819D02*
X133289221Y-84582057D01*
X133289221Y-84582057D02*
X133193983Y-84772533D01*
X133193983Y-84772533D02*
X133193983Y-84963009D01*
X133193983Y-84963009D02*
X133289221Y-85153485D01*
X133289221Y-85153485D02*
X133384460Y-85248723D01*
X133384460Y-85248723D02*
X133574936Y-85343961D01*
X133574936Y-85343961D02*
X133765412Y-85343961D01*
X133765412Y-85343961D02*
X133955888Y-85248723D01*
X133955888Y-85248723D02*
X134051126Y-85153485D01*
X134051126Y-84391580D02*
X134051126Y-85153485D01*
X134051126Y-85153485D02*
X134146364Y-85248723D01*
X134146364Y-85248723D02*
X134241602Y-85248723D01*
X134241602Y-85248723D02*
X134432079Y-85153485D01*
X134432079Y-85153485D02*
X134527317Y-84963009D01*
X134527317Y-84963009D02*
X134527317Y-84486819D01*
X134527317Y-84486819D02*
X134336841Y-84201104D01*
X134336841Y-84201104D02*
X134051126Y-84010628D01*
X134051126Y-84010628D02*
X133670174Y-83915390D01*
X133670174Y-83915390D02*
X133289221Y-84010628D01*
X133289221Y-84010628D02*
X133003507Y-84201104D01*
X133003507Y-84201104D02*
X132813031Y-84486819D01*
X132813031Y-84486819D02*
X132717793Y-84867771D01*
X132717793Y-84867771D02*
X132813031Y-85248723D01*
X132813031Y-85248723D02*
X133003507Y-85534438D01*
X133003507Y-85534438D02*
X133289221Y-85724914D01*
X133289221Y-85724914D02*
X133670174Y-85820152D01*
X133670174Y-85820152D02*
X134051126Y-85724914D01*
X134051126Y-85724914D02*
X134336841Y-85534438D01*
X136241603Y-84201104D02*
X136241603Y-85820152D01*
X136241603Y-85820152D02*
X136146365Y-86010628D01*
X136146365Y-86010628D02*
X136051127Y-86105866D01*
X136051127Y-86105866D02*
X135860650Y-86201104D01*
X135860650Y-86201104D02*
X135574936Y-86201104D01*
X135574936Y-86201104D02*
X135384460Y-86105866D01*
X136241603Y-85439200D02*
X136051127Y-85534438D01*
X136051127Y-85534438D02*
X135670174Y-85534438D01*
X135670174Y-85534438D02*
X135479698Y-85439200D01*
X135479698Y-85439200D02*
X135384460Y-85343961D01*
X135384460Y-85343961D02*
X135289222Y-85153485D01*
X135289222Y-85153485D02*
X135289222Y-84582057D01*
X135289222Y-84582057D02*
X135384460Y-84391580D01*
X135384460Y-84391580D02*
X135479698Y-84296342D01*
X135479698Y-84296342D02*
X135670174Y-84201104D01*
X135670174Y-84201104D02*
X136051127Y-84201104D01*
X136051127Y-84201104D02*
X136241603Y-84296342D01*
X137193984Y-85534438D02*
X137193984Y-84201104D01*
X137193984Y-84391580D02*
X137289222Y-84296342D01*
X137289222Y-84296342D02*
X137479698Y-84201104D01*
X137479698Y-84201104D02*
X137765413Y-84201104D01*
X137765413Y-84201104D02*
X137955889Y-84296342D01*
X137955889Y-84296342D02*
X138051127Y-84486819D01*
X138051127Y-84486819D02*
X138051127Y-85534438D01*
X138051127Y-84486819D02*
X138146365Y-84296342D01*
X138146365Y-84296342D02*
X138336841Y-84201104D01*
X138336841Y-84201104D02*
X138622555Y-84201104D01*
X138622555Y-84201104D02*
X138813032Y-84296342D01*
X138813032Y-84296342D02*
X138908270Y-84486819D01*
X138908270Y-84486819D02*
X138908270Y-85534438D01*
X140717794Y-85534438D02*
X140717794Y-84486819D01*
X140717794Y-84486819D02*
X140622556Y-84296342D01*
X140622556Y-84296342D02*
X140432080Y-84201104D01*
X140432080Y-84201104D02*
X140051127Y-84201104D01*
X140051127Y-84201104D02*
X139860651Y-84296342D01*
X140717794Y-85439200D02*
X140527318Y-85534438D01*
X140527318Y-85534438D02*
X140051127Y-85534438D01*
X140051127Y-85534438D02*
X139860651Y-85439200D01*
X139860651Y-85439200D02*
X139765413Y-85248723D01*
X139765413Y-85248723D02*
X139765413Y-85058247D01*
X139765413Y-85058247D02*
X139860651Y-84867771D01*
X139860651Y-84867771D02*
X140051127Y-84772533D01*
X140051127Y-84772533D02*
X140527318Y-84772533D01*
X140527318Y-84772533D02*
X140717794Y-84677295D01*
X141670175Y-85534438D02*
X141670175Y-84201104D01*
X141670175Y-83534438D02*
X141574937Y-83629676D01*
X141574937Y-83629676D02*
X141670175Y-83724914D01*
X141670175Y-83724914D02*
X141765413Y-83629676D01*
X141765413Y-83629676D02*
X141670175Y-83534438D01*
X141670175Y-83534438D02*
X141670175Y-83724914D01*
X142908270Y-85534438D02*
X142717794Y-85439200D01*
X142717794Y-85439200D02*
X142622556Y-85248723D01*
X142622556Y-85248723D02*
X142622556Y-83534438D01*
X143670175Y-85343961D02*
X143765413Y-85439200D01*
X143765413Y-85439200D02*
X143670175Y-85534438D01*
X143670175Y-85534438D02*
X143574937Y-85439200D01*
X143574937Y-85439200D02*
X143670175Y-85343961D01*
X143670175Y-85343961D02*
X143670175Y-85534438D01*
X145479699Y-85439200D02*
X145289223Y-85534438D01*
X145289223Y-85534438D02*
X144908270Y-85534438D01*
X144908270Y-85534438D02*
X144717794Y-85439200D01*
X144717794Y-85439200D02*
X144622556Y-85343961D01*
X144622556Y-85343961D02*
X144527318Y-85153485D01*
X144527318Y-85153485D02*
X144527318Y-84582057D01*
X144527318Y-84582057D02*
X144622556Y-84391580D01*
X144622556Y-84391580D02*
X144717794Y-84296342D01*
X144717794Y-84296342D02*
X144908270Y-84201104D01*
X144908270Y-84201104D02*
X145289223Y-84201104D01*
X145289223Y-84201104D02*
X145479699Y-84296342D01*
X146622556Y-85534438D02*
X146432080Y-85439200D01*
X146432080Y-85439200D02*
X146336842Y-85343961D01*
X146336842Y-85343961D02*
X146241604Y-85153485D01*
X146241604Y-85153485D02*
X146241604Y-84582057D01*
X146241604Y-84582057D02*
X146336842Y-84391580D01*
X146336842Y-84391580D02*
X146432080Y-84296342D01*
X146432080Y-84296342D02*
X146622556Y-84201104D01*
X146622556Y-84201104D02*
X146908271Y-84201104D01*
X146908271Y-84201104D02*
X147098747Y-84296342D01*
X147098747Y-84296342D02*
X147193985Y-84391580D01*
X147193985Y-84391580D02*
X147289223Y-84582057D01*
X147289223Y-84582057D02*
X147289223Y-85153485D01*
X147289223Y-85153485D02*
X147193985Y-85343961D01*
X147193985Y-85343961D02*
X147098747Y-85439200D01*
X147098747Y-85439200D02*
X146908271Y-85534438D01*
X146908271Y-85534438D02*
X146622556Y-85534438D01*
X148146366Y-85534438D02*
X148146366Y-84201104D01*
X148146366Y-84391580D02*
X148241604Y-84296342D01*
X148241604Y-84296342D02*
X148432080Y-84201104D01*
X148432080Y-84201104D02*
X148717795Y-84201104D01*
X148717795Y-84201104D02*
X148908271Y-84296342D01*
X148908271Y-84296342D02*
X149003509Y-84486819D01*
X149003509Y-84486819D02*
X149003509Y-85534438D01*
X149003509Y-84486819D02*
X149098747Y-84296342D01*
X149098747Y-84296342D02*
X149289223Y-84201104D01*
X149289223Y-84201104D02*
X149574937Y-84201104D01*
X149574937Y-84201104D02*
X149765414Y-84296342D01*
X149765414Y-84296342D02*
X149860652Y-84486819D01*
X149860652Y-84486819D02*
X149860652Y-85534438D01*
D12*
%TO.C,G\u002A\u002A\u002A*%
G36*
X134791154Y-110069519D02*
G01*
X134791154Y-110448077D01*
X134412596Y-110448077D01*
X134034038Y-110448077D01*
X134034038Y-110069519D01*
X134034038Y-109690961D01*
X134412596Y-109690961D01*
X134791154Y-109690961D01*
X134791154Y-110069519D01*
G37*
G36*
X136305385Y-113855096D02*
G01*
X136305385Y-114233654D01*
X135548269Y-114233654D01*
X134791154Y-114233654D01*
X134791154Y-113855096D01*
X134791154Y-113476538D01*
X135548269Y-113476538D01*
X136305385Y-113476538D01*
X136305385Y-113855096D01*
G37*
G36*
X137062500Y-117640673D02*
G01*
X137062500Y-118019231D01*
X136683942Y-118019231D01*
X136305385Y-118019231D01*
X136305385Y-117640673D01*
X136305385Y-117262115D01*
X136683942Y-117262115D01*
X137062500Y-117262115D01*
X137062500Y-117640673D01*
G37*
G36*
X137819615Y-106283942D02*
G01*
X137819615Y-107419615D01*
X136683942Y-107419615D01*
X135548269Y-107419615D01*
X135548269Y-106283942D01*
X135548269Y-105148269D01*
X136683942Y-105148269D01*
X137819615Y-105148269D01*
X137819615Y-106283942D01*
G37*
G36*
X137819615Y-122940481D02*
G01*
X137819615Y-124076154D01*
X136683942Y-124076154D01*
X135548269Y-124076154D01*
X135548269Y-122940481D01*
X135548269Y-121804808D01*
X136683942Y-121804808D01*
X137819615Y-121804808D01*
X137819615Y-122940481D01*
G37*
G36*
X139333846Y-110069519D02*
G01*
X139333846Y-110448077D01*
X138955288Y-110448077D01*
X138576731Y-110448077D01*
X138576731Y-110069519D01*
X138576731Y-109690961D01*
X138955288Y-109690961D01*
X139333846Y-109690961D01*
X139333846Y-110069519D01*
G37*
G36*
X139333846Y-111583750D02*
G01*
X139333846Y-111962308D01*
X138955288Y-111962308D01*
X138576731Y-111962308D01*
X138576731Y-111583750D01*
X138576731Y-111205192D01*
X138955288Y-111205192D01*
X139333846Y-111205192D01*
X139333846Y-111583750D01*
G37*
G36*
X140848077Y-105526827D02*
G01*
X140848077Y-106662500D01*
X140469519Y-106662500D01*
X140090961Y-106662500D01*
X140090961Y-105526827D01*
X140090961Y-104391154D01*
X140469519Y-104391154D01*
X140848077Y-104391154D01*
X140848077Y-105526827D01*
G37*
G36*
X142362308Y-113097981D02*
G01*
X142362308Y-113476538D01*
X141983750Y-113476538D01*
X141605192Y-113476538D01*
X141605192Y-113097981D01*
X141605192Y-112719423D01*
X141983750Y-112719423D01*
X142362308Y-112719423D01*
X142362308Y-113097981D01*
G37*
G36*
X143876538Y-118397788D02*
G01*
X143876538Y-118776346D01*
X143497981Y-118776346D01*
X143119423Y-118776346D01*
X143119423Y-118397788D01*
X143119423Y-118019231D01*
X143497981Y-118019231D01*
X143876538Y-118019231D01*
X143876538Y-118397788D01*
G37*
G36*
X144633654Y-109312404D02*
G01*
X144633654Y-109690961D01*
X144255096Y-109690961D01*
X143876538Y-109690961D01*
X143876538Y-109312404D01*
X143876538Y-108933846D01*
X144255096Y-108933846D01*
X144633654Y-108933846D01*
X144633654Y-109312404D01*
G37*
G36*
X148419231Y-104391154D02*
G01*
X148419231Y-105148269D01*
X148040673Y-105148269D01*
X147662115Y-105148269D01*
X147662115Y-104391154D01*
X147662115Y-103634038D01*
X148040673Y-103634038D01*
X148419231Y-103634038D01*
X148419231Y-104391154D01*
G37*
G36*
X148419231Y-108555288D02*
G01*
X148419231Y-108933846D01*
X148040673Y-108933846D01*
X147662115Y-108933846D01*
X147662115Y-108555288D01*
X147662115Y-108176731D01*
X148040673Y-108176731D01*
X148419231Y-108176731D01*
X148419231Y-108555288D01*
G37*
G36*
X148419231Y-118397788D02*
G01*
X148419231Y-118776346D01*
X148040673Y-118776346D01*
X147662115Y-118776346D01*
X147662115Y-118397788D01*
X147662115Y-118019231D01*
X148040673Y-118019231D01*
X148419231Y-118019231D01*
X148419231Y-118397788D01*
G37*
G36*
X151447692Y-120669135D02*
G01*
X151447692Y-121047692D01*
X151069135Y-121047692D01*
X150690577Y-121047692D01*
X150690577Y-120669135D01*
X150690577Y-120290577D01*
X151069135Y-120290577D01*
X151447692Y-120290577D01*
X151447692Y-120669135D01*
G37*
G36*
X153719038Y-112340865D02*
G01*
X153719038Y-112719423D01*
X153340481Y-112719423D01*
X152961923Y-112719423D01*
X152961923Y-112340865D01*
X152961923Y-111962308D01*
X153340481Y-111962308D01*
X153719038Y-111962308D01*
X153719038Y-112340865D01*
G37*
G36*
X154476154Y-106283942D02*
G01*
X154476154Y-107419615D01*
X153340481Y-107419615D01*
X152204808Y-107419615D01*
X152204808Y-106283942D01*
X152204808Y-105148269D01*
X153340481Y-105148269D01*
X154476154Y-105148269D01*
X154476154Y-106283942D01*
G37*
G36*
X155233269Y-121426250D02*
G01*
X155233269Y-121804808D01*
X154854711Y-121804808D01*
X154476154Y-121804808D01*
X154476154Y-121426250D01*
X154476154Y-121047692D01*
X154854711Y-121047692D01*
X155233269Y-121047692D01*
X155233269Y-121426250D01*
G37*
G36*
X155990385Y-115369327D02*
G01*
X155990385Y-115747885D01*
X155611827Y-115747885D01*
X155233269Y-115747885D01*
X155233269Y-115369327D01*
X155233269Y-114990769D01*
X155611827Y-114990769D01*
X155990385Y-114990769D01*
X155990385Y-115369327D01*
G37*
G36*
X155990385Y-124454711D02*
G01*
X155990385Y-124833269D01*
X155611827Y-124833269D01*
X155233269Y-124833269D01*
X155233269Y-124454711D01*
X155233269Y-124076154D01*
X155611827Y-124076154D01*
X155990385Y-124076154D01*
X155990385Y-124454711D01*
G37*
G36*
X140090961Y-112719423D02*
G01*
X140090961Y-113476538D01*
X139333846Y-113476538D01*
X138576731Y-113476538D01*
X138576731Y-113097981D01*
X138576731Y-112719423D01*
X138955288Y-112719423D01*
X139333846Y-112719423D01*
X139333846Y-112340865D01*
X139333846Y-111962308D01*
X139712404Y-111962308D01*
X140090961Y-111962308D01*
X140090961Y-112719423D01*
G37*
G36*
X146147885Y-110069519D02*
G01*
X146147885Y-110448077D01*
X145769327Y-110448077D01*
X145390769Y-110448077D01*
X145390769Y-110826635D01*
X145390769Y-111205192D01*
X145012211Y-111205192D01*
X144633654Y-111205192D01*
X144633654Y-110448077D01*
X144633654Y-109690961D01*
X145390769Y-109690961D01*
X146147885Y-109690961D01*
X146147885Y-110069519D01*
G37*
G36*
X147662115Y-107798173D02*
G01*
X147662115Y-108176731D01*
X147283558Y-108176731D01*
X146905000Y-108176731D01*
X146905000Y-108555288D01*
X146905000Y-108933846D01*
X146526442Y-108933846D01*
X146147885Y-108933846D01*
X146147885Y-108176731D01*
X146147885Y-107419615D01*
X146905000Y-107419615D01*
X147662115Y-107419615D01*
X147662115Y-107798173D01*
G37*
G36*
X146147885Y-124454711D02*
G01*
X146147885Y-124833269D01*
X145012211Y-124833269D01*
X143876538Y-124833269D01*
X143876538Y-125211827D01*
X143876538Y-125590385D01*
X143497981Y-125590385D01*
X143119423Y-125590385D01*
X143119423Y-125211827D01*
X143119423Y-124833269D01*
X143497981Y-124833269D01*
X143876538Y-124833269D01*
X143876538Y-124454711D01*
X143876538Y-124076154D01*
X145012211Y-124076154D01*
X146147885Y-124076154D01*
X146147885Y-124454711D01*
G37*
G36*
X139333846Y-106283942D02*
G01*
X139333846Y-108933846D01*
X136683942Y-108933846D01*
X134034038Y-108933846D01*
X134034038Y-108176731D01*
X134791154Y-108176731D01*
X136683942Y-108176731D01*
X138576731Y-108176731D01*
X138576731Y-106283942D01*
X138576731Y-104391154D01*
X136683942Y-104391154D01*
X134791154Y-104391154D01*
X134791154Y-106283942D01*
X134791154Y-108176731D01*
X134034038Y-108176731D01*
X134034038Y-106283942D01*
X134034038Y-103634038D01*
X136683942Y-103634038D01*
X139333846Y-103634038D01*
X139333846Y-106283942D01*
G37*
G36*
X139333846Y-122940481D02*
G01*
X139333846Y-125590385D01*
X136683942Y-125590385D01*
X134034038Y-125590385D01*
X134034038Y-124833269D01*
X134791154Y-124833269D01*
X136683942Y-124833269D01*
X138576731Y-124833269D01*
X138576731Y-122940481D01*
X138576731Y-121047692D01*
X136683942Y-121047692D01*
X134791154Y-121047692D01*
X134791154Y-122940481D01*
X134791154Y-124833269D01*
X134034038Y-124833269D01*
X134034038Y-122940481D01*
X134034038Y-120290577D01*
X136683942Y-120290577D01*
X139333846Y-120290577D01*
X139333846Y-122940481D01*
G37*
G36*
X155990385Y-106283942D02*
G01*
X155990385Y-108933846D01*
X153340481Y-108933846D01*
X150690577Y-108933846D01*
X150690577Y-108176731D01*
X151447692Y-108176731D01*
X153340481Y-108176731D01*
X155233269Y-108176731D01*
X155233269Y-106283942D01*
X155233269Y-104391154D01*
X153340481Y-104391154D01*
X151447692Y-104391154D01*
X151447692Y-106283942D01*
X151447692Y-108176731D01*
X150690577Y-108176731D01*
X150690577Y-106283942D01*
X150690577Y-103634038D01*
X153340481Y-103634038D01*
X155990385Y-103634038D01*
X155990385Y-106283942D01*
G37*
G36*
X143876538Y-110826635D02*
G01*
X143876538Y-111205192D01*
X143497981Y-111205192D01*
X143119423Y-111205192D01*
X143119423Y-111583750D01*
X143119423Y-111962308D01*
X143497981Y-111962308D01*
X143876538Y-111962308D01*
X143876538Y-112340865D01*
X143876538Y-112719423D01*
X143119423Y-112719423D01*
X142362308Y-112719423D01*
X142362308Y-112340865D01*
X142362308Y-111962308D01*
X141983750Y-111962308D01*
X141605192Y-111962308D01*
X141605192Y-112340865D01*
X141605192Y-112719423D01*
X141226635Y-112719423D01*
X140848077Y-112719423D01*
X140848077Y-112340865D01*
X140848077Y-111962308D01*
X141226635Y-111962308D01*
X141605192Y-111962308D01*
X141605192Y-111583750D01*
X141605192Y-111205192D01*
X142362308Y-111205192D01*
X143119423Y-111205192D01*
X143119423Y-110826635D01*
X143119423Y-110448077D01*
X143497981Y-110448077D01*
X143876538Y-110448077D01*
X143876538Y-110826635D01*
G37*
G36*
X135548269Y-110826635D02*
G01*
X135548269Y-111205192D01*
X135926827Y-111205192D01*
X136305385Y-111205192D01*
X136305385Y-110826635D01*
X136305385Y-110448077D01*
X137062500Y-110448077D01*
X137819615Y-110448077D01*
X137819615Y-111962308D01*
X137819615Y-113476538D01*
X137441058Y-113476538D01*
X137062500Y-113476538D01*
X137062500Y-113097981D01*
X137062500Y-112719423D01*
X135548269Y-112719423D01*
X134034038Y-112719423D01*
X134034038Y-112340865D01*
X134034038Y-111962308D01*
X134412596Y-111962308D01*
X134791154Y-111962308D01*
X136305385Y-111962308D01*
X136683942Y-111962308D01*
X137062500Y-111962308D01*
X137062500Y-111583750D01*
X137062500Y-111205192D01*
X136683942Y-111205192D01*
X136305385Y-111205192D01*
X136305385Y-111583750D01*
X136305385Y-111962308D01*
X134791154Y-111962308D01*
X134791154Y-111583750D01*
X134791154Y-111205192D01*
X134791154Y-110448077D01*
X135169711Y-110448077D01*
X135548269Y-110448077D01*
X135548269Y-110826635D01*
G37*
G36*
X151447692Y-110069519D02*
G01*
X151447692Y-110448077D01*
X152204808Y-110448077D01*
X152961923Y-110448077D01*
X152961923Y-110069519D01*
X152961923Y-109690961D01*
X154097596Y-109690961D01*
X155233269Y-109690961D01*
X155233269Y-110448077D01*
X155233269Y-111205192D01*
X154476154Y-111205192D01*
X153719038Y-111205192D01*
X153719038Y-110826635D01*
X153719038Y-110448077D01*
X153340481Y-110448077D01*
X152961923Y-110448077D01*
X152961923Y-111205192D01*
X152961923Y-111962308D01*
X152583365Y-111962308D01*
X152204808Y-111962308D01*
X152204808Y-111583750D01*
X152204808Y-111205192D01*
X151826250Y-111205192D01*
X151447692Y-111205192D01*
X151447692Y-110826635D01*
X151447692Y-110448077D01*
X151069135Y-110448077D01*
X150690577Y-110448077D01*
X150690577Y-110826635D01*
X150690577Y-111205192D01*
X150312019Y-111205192D01*
X149933461Y-111205192D01*
X149933461Y-110448077D01*
X149933461Y-109690961D01*
X150690577Y-109690961D01*
X151447692Y-109690961D01*
X151447692Y-110069519D01*
G37*
G36*
X146147885Y-104391154D02*
G01*
X146147885Y-105148269D01*
X145769327Y-105148269D01*
X145390769Y-105148269D01*
X145390769Y-105526827D01*
X145390769Y-105905385D01*
X145769327Y-105905385D01*
X146147885Y-105905385D01*
X146147885Y-105526827D01*
X146147885Y-105148269D01*
X146526442Y-105148269D01*
X146905000Y-105148269D01*
X146905000Y-105526827D01*
X146905000Y-105905385D01*
X146526442Y-105905385D01*
X146147885Y-105905385D01*
X146147885Y-106662500D01*
X146147885Y-107419615D01*
X145769327Y-107419615D01*
X145390769Y-107419615D01*
X145390769Y-108176731D01*
X145390769Y-108933846D01*
X145012211Y-108933846D01*
X144633654Y-108933846D01*
X144633654Y-108555288D01*
X144633654Y-108176731D01*
X144255096Y-108176731D01*
X143876538Y-108176731D01*
X143876538Y-108555288D01*
X143876538Y-108933846D01*
X143497981Y-108933846D01*
X143119423Y-108933846D01*
X143119423Y-108555288D01*
X143119423Y-108176731D01*
X142740865Y-108176731D01*
X142362308Y-108176731D01*
X142362308Y-108933846D01*
X142362308Y-109690961D01*
X142740865Y-109690961D01*
X143119423Y-109690961D01*
X143119423Y-110069519D01*
X143119423Y-110448077D01*
X141983750Y-110448077D01*
X140848077Y-110448077D01*
X140848077Y-110826635D01*
X140848077Y-111205192D01*
X140469519Y-111205192D01*
X140090961Y-111205192D01*
X140090961Y-109690961D01*
X140090961Y-108176731D01*
X140469519Y-108176731D01*
X140848077Y-108176731D01*
X140848077Y-108933846D01*
X140848077Y-109690961D01*
X141226635Y-109690961D01*
X141605192Y-109690961D01*
X141605192Y-108933846D01*
X141605192Y-108176731D01*
X141983750Y-108176731D01*
X142362308Y-108176731D01*
X142362308Y-107798173D01*
X142362308Y-107419615D01*
X142740865Y-107419615D01*
X143119423Y-107419615D01*
X143119423Y-107041058D01*
X143119423Y-106662500D01*
X142740865Y-106662500D01*
X142362308Y-106662500D01*
X142362308Y-107041058D01*
X142362308Y-107419615D01*
X141983750Y-107419615D01*
X141605192Y-107419615D01*
X141605192Y-107041058D01*
X141605192Y-106662500D01*
X141605192Y-105905385D01*
X141983750Y-105905385D01*
X142362308Y-105905385D01*
X142362308Y-105148269D01*
X143119423Y-105148269D01*
X143497981Y-105148269D01*
X143876538Y-105148269D01*
X143876538Y-105905385D01*
X143876538Y-106662500D01*
X144255096Y-106662500D01*
X144633654Y-106662500D01*
X144633654Y-105905385D01*
X144633654Y-105148269D01*
X145012211Y-105148269D01*
X145390769Y-105148269D01*
X145390769Y-104769711D01*
X145390769Y-104391154D01*
X144255096Y-104391154D01*
X143119423Y-104391154D01*
X143119423Y-104769711D01*
X143119423Y-105148269D01*
X142362308Y-105148269D01*
X142362308Y-104769711D01*
X142362308Y-104391154D01*
X142740865Y-104391154D01*
X143119423Y-104391154D01*
X143119423Y-104012596D01*
X143119423Y-103634038D01*
X144633654Y-103634038D01*
X146147885Y-103634038D01*
X146147885Y-104391154D01*
G37*
G36*
X149933461Y-107419615D02*
G01*
X149933461Y-109690961D01*
X149554904Y-109690961D01*
X149176346Y-109690961D01*
X149176346Y-110448077D01*
X149176346Y-111205192D01*
X148419231Y-111205192D01*
X147662115Y-111205192D01*
X147662115Y-111583750D01*
X147662115Y-111962308D01*
X147283558Y-111962308D01*
X146905000Y-111962308D01*
X146905000Y-112340865D01*
X146905000Y-112719423D01*
X146147885Y-112719423D01*
X145390769Y-112719423D01*
X145390769Y-113476538D01*
X145390769Y-114233654D01*
X146147885Y-114233654D01*
X146905000Y-114233654D01*
X146905000Y-113855096D01*
X146905000Y-113476538D01*
X147662115Y-113476538D01*
X148419231Y-113476538D01*
X148419231Y-113855096D01*
X148419231Y-114233654D01*
X147662115Y-114233654D01*
X146905000Y-114233654D01*
X146905000Y-114990769D01*
X146905000Y-115747885D01*
X147283558Y-115747885D01*
X147662115Y-115747885D01*
X147662115Y-115369327D01*
X147662115Y-114990769D01*
X148419231Y-114990769D01*
X149176346Y-114990769D01*
X149176346Y-113476538D01*
X149176346Y-111962308D01*
X149933461Y-111962308D01*
X150690577Y-111962308D01*
X150690577Y-112340865D01*
X150690577Y-112719423D01*
X150312019Y-112719423D01*
X149933461Y-112719423D01*
X149933461Y-113476538D01*
X149933461Y-114233654D01*
X150312019Y-114233654D01*
X150690577Y-114233654D01*
X150690577Y-113476538D01*
X150690577Y-112719423D01*
X151447692Y-112719423D01*
X152204808Y-112719423D01*
X152204808Y-113097981D01*
X152204808Y-113476538D01*
X152583365Y-113476538D01*
X152961923Y-113476538D01*
X152961923Y-113855096D01*
X152961923Y-114233654D01*
X153719038Y-114233654D01*
X154476154Y-114233654D01*
X154476154Y-113855096D01*
X154476154Y-113476538D01*
X154854711Y-113476538D01*
X155233269Y-113476538D01*
X155233269Y-113097981D01*
X155233269Y-112719423D01*
X155611827Y-112719423D01*
X155990385Y-112719423D01*
X155990385Y-113476538D01*
X155990385Y-114233654D01*
X155233269Y-114233654D01*
X154476154Y-114233654D01*
X154476154Y-115369327D01*
X154476154Y-116505000D01*
X155233269Y-116505000D01*
X155990385Y-116505000D01*
X155990385Y-117262115D01*
X155990385Y-118019231D01*
X155611827Y-118019231D01*
X155233269Y-118019231D01*
X155233269Y-117640673D01*
X155233269Y-117262115D01*
X154476154Y-117262115D01*
X153719038Y-117262115D01*
X153719038Y-117640673D01*
X153719038Y-118019231D01*
X152961923Y-118019231D01*
X152204808Y-118019231D01*
X152204808Y-117640673D01*
X152204808Y-117262115D01*
X152961923Y-117262115D01*
X153340481Y-117262115D01*
X153719038Y-117262115D01*
X153719038Y-116883558D01*
X153719038Y-116505000D01*
X153340481Y-116505000D01*
X152961923Y-116505000D01*
X152961923Y-116883558D01*
X152961923Y-117262115D01*
X152204808Y-117262115D01*
X151447692Y-117262115D01*
X150690577Y-117262115D01*
X150690577Y-116883558D01*
X150690577Y-116505000D01*
X150312019Y-116505000D01*
X149933461Y-116505000D01*
X149933461Y-116126442D01*
X149933461Y-115747885D01*
X150312019Y-115747885D01*
X150690577Y-115747885D01*
X150690577Y-116126442D01*
X150690577Y-116505000D01*
X151069135Y-116505000D01*
X151447692Y-116505000D01*
X151447692Y-116126442D01*
X152204808Y-116126442D01*
X152204808Y-116505000D01*
X152583365Y-116505000D01*
X152961923Y-116505000D01*
X152961923Y-116126442D01*
X152961923Y-115747885D01*
X153340481Y-115747885D01*
X153719038Y-115747885D01*
X153719038Y-115369327D01*
X153719038Y-114990769D01*
X153340481Y-114990769D01*
X152961923Y-114990769D01*
X152961923Y-115369327D01*
X152961923Y-115747885D01*
X152583365Y-115747885D01*
X152204808Y-115747885D01*
X152204808Y-116126442D01*
X151447692Y-116126442D01*
X151447692Y-115747885D01*
X151447692Y-114990769D01*
X151826250Y-114990769D01*
X152204808Y-114990769D01*
X152204808Y-114612211D01*
X152204808Y-114233654D01*
X151447692Y-114233654D01*
X150690577Y-114233654D01*
X150690577Y-114612211D01*
X150690577Y-114990769D01*
X149933461Y-114990769D01*
X149176346Y-114990769D01*
X149176346Y-116505000D01*
X149176346Y-118019231D01*
X148797788Y-118019231D01*
X148419231Y-118019231D01*
X148419231Y-117640673D01*
X148419231Y-117262115D01*
X148040673Y-117262115D01*
X147662115Y-117262115D01*
X147662115Y-117640673D01*
X147662115Y-118019231D01*
X147283558Y-118019231D01*
X146905000Y-118019231D01*
X146905000Y-118397788D01*
X146905000Y-118776346D01*
X147283558Y-118776346D01*
X147662115Y-118776346D01*
X147662115Y-119154904D01*
X147662115Y-119533461D01*
X148040673Y-119533461D01*
X148419231Y-119533461D01*
X148419231Y-119154904D01*
X148419231Y-118776346D01*
X148797788Y-118776346D01*
X149176346Y-118776346D01*
X149176346Y-118397788D01*
X149176346Y-118019231D01*
X149554904Y-118019231D01*
X149933461Y-118019231D01*
X149933461Y-118397788D01*
X149933461Y-118776346D01*
X150312019Y-118776346D01*
X150690577Y-118776346D01*
X150690577Y-118397788D01*
X150690577Y-118019231D01*
X151069135Y-118019231D01*
X151447692Y-118019231D01*
X151447692Y-118397788D01*
X151447692Y-118776346D01*
X152204808Y-118776346D01*
X152961923Y-118776346D01*
X152961923Y-119154904D01*
X152961923Y-119533461D01*
X153340481Y-119533461D01*
X153719038Y-119533461D01*
X153719038Y-119154904D01*
X153719038Y-118776346D01*
X154854711Y-118776346D01*
X155990385Y-118776346D01*
X155990385Y-119154904D01*
X155990385Y-119533461D01*
X154854711Y-119533461D01*
X153719038Y-119533461D01*
X153719038Y-119912019D01*
X153719038Y-120290577D01*
X154097596Y-120290577D01*
X154476154Y-120290577D01*
X154476154Y-120669135D01*
X154476154Y-121047692D01*
X153719038Y-121047692D01*
X152961923Y-121047692D01*
X152961923Y-121426250D01*
X152961923Y-121804808D01*
X153340481Y-121804808D01*
X153719038Y-121804808D01*
X153719038Y-122183365D01*
X153719038Y-122561923D01*
X154476154Y-122561923D01*
X155233269Y-122561923D01*
X155233269Y-123319038D01*
X155233269Y-124076154D01*
X154854711Y-124076154D01*
X154476154Y-124076154D01*
X154476154Y-124833269D01*
X154476154Y-125590385D01*
X154097596Y-125590385D01*
X153719038Y-125590385D01*
X153719038Y-125211827D01*
X153719038Y-124833269D01*
X153340481Y-124833269D01*
X152961923Y-124833269D01*
X152961923Y-125211827D01*
X152961923Y-125590385D01*
X151826250Y-125590385D01*
X150690577Y-125590385D01*
X150690577Y-124833269D01*
X152204808Y-124833269D01*
X152583365Y-124833269D01*
X152961923Y-124833269D01*
X152961923Y-124454711D01*
X152961923Y-124076154D01*
X152583365Y-124076154D01*
X152204808Y-124076154D01*
X152204808Y-124454711D01*
X152204808Y-124833269D01*
X150690577Y-124833269D01*
X150690577Y-124454711D01*
X150690577Y-124076154D01*
X149554904Y-124076154D01*
X148419231Y-124076154D01*
X148419231Y-124454711D01*
X148419231Y-124833269D01*
X148797788Y-124833269D01*
X149176346Y-124833269D01*
X149176346Y-125211827D01*
X149176346Y-125590385D01*
X148419231Y-125590385D01*
X147662115Y-125590385D01*
X147662115Y-124833269D01*
X147662115Y-124076154D01*
X148040673Y-124076154D01*
X148419231Y-124076154D01*
X148419231Y-123697596D01*
X148419231Y-123319038D01*
X150690577Y-123319038D01*
X151826250Y-123319038D01*
X152961923Y-123319038D01*
X152961923Y-122940481D01*
X152961923Y-122561923D01*
X151826250Y-122561923D01*
X150690577Y-122561923D01*
X150690577Y-122940481D01*
X150690577Y-123319038D01*
X148419231Y-123319038D01*
X148040673Y-123319038D01*
X147662115Y-123319038D01*
X147662115Y-123697596D01*
X147662115Y-124076154D01*
X147283558Y-124076154D01*
X146905000Y-124076154D01*
X146905000Y-123697596D01*
X146905000Y-123319038D01*
X146526442Y-123319038D01*
X146147885Y-123319038D01*
X146147885Y-122940481D01*
X146147885Y-122561923D01*
X145769327Y-122561923D01*
X145390769Y-122561923D01*
X145390769Y-122183365D01*
X145390769Y-121804808D01*
X146147885Y-121804808D01*
X146905000Y-121804808D01*
X146905000Y-122183365D01*
X146905000Y-122561923D01*
X147662115Y-122561923D01*
X148419231Y-122561923D01*
X148419231Y-121804808D01*
X149933461Y-121804808D01*
X151069135Y-121804808D01*
X152204808Y-121804808D01*
X152204808Y-120669135D01*
X152204808Y-119533461D01*
X151069135Y-119533461D01*
X149933461Y-119533461D01*
X149933461Y-120669135D01*
X149933461Y-121804808D01*
X148419231Y-121804808D01*
X148419231Y-121426250D01*
X148419231Y-120669135D01*
X148419231Y-120290577D01*
X148797788Y-120290577D01*
X149176346Y-120290577D01*
X149176346Y-119912019D01*
X149176346Y-119533461D01*
X148797788Y-119533461D01*
X148419231Y-119533461D01*
X148419231Y-119912019D01*
X148419231Y-120290577D01*
X148040673Y-120290577D01*
X147662115Y-120290577D01*
X147662115Y-119912019D01*
X147662115Y-119533461D01*
X147283558Y-119533461D01*
X146905000Y-119533461D01*
X146905000Y-120290577D01*
X146905000Y-121047692D01*
X145769327Y-121047692D01*
X144633654Y-121047692D01*
X144633654Y-122183365D01*
X144633654Y-123319038D01*
X143876538Y-123319038D01*
X143119423Y-123319038D01*
X143119423Y-122940481D01*
X143119423Y-122561923D01*
X142740865Y-122561923D01*
X142362308Y-122561923D01*
X142362308Y-123697596D01*
X142362308Y-124833269D01*
X141605192Y-124833269D01*
X140848077Y-124833269D01*
X140848077Y-125211827D01*
X140848077Y-125590385D01*
X140469519Y-125590385D01*
X140090961Y-125590385D01*
X140090961Y-125211827D01*
X140090961Y-124833269D01*
X140469519Y-124833269D01*
X140848077Y-124833269D01*
X140848077Y-124454711D01*
X140848077Y-124076154D01*
X141226635Y-124076154D01*
X141605192Y-124076154D01*
X141605192Y-123697596D01*
X141605192Y-123319038D01*
X141226635Y-123319038D01*
X140848077Y-123319038D01*
X140848077Y-122183365D01*
X140848077Y-121047692D01*
X141983750Y-121047692D01*
X143119423Y-121047692D01*
X143119423Y-121804808D01*
X143119423Y-122561923D01*
X143497981Y-122561923D01*
X143876538Y-122561923D01*
X143876538Y-121426250D01*
X143876538Y-120290577D01*
X143497981Y-120290577D01*
X143119423Y-120290577D01*
X143119423Y-119912019D01*
X143119423Y-119533461D01*
X143876538Y-119533461D01*
X144633654Y-119533461D01*
X144633654Y-119912019D01*
X144633654Y-120290577D01*
X145390769Y-120290577D01*
X146147885Y-120290577D01*
X146147885Y-119533461D01*
X146147885Y-118776346D01*
X145390769Y-118776346D01*
X144633654Y-118776346D01*
X144633654Y-118397788D01*
X144633654Y-118019231D01*
X144255096Y-118019231D01*
X143876538Y-118019231D01*
X143876538Y-117640673D01*
X143876538Y-117262115D01*
X144633654Y-117262115D01*
X145390769Y-117262115D01*
X145390769Y-117640673D01*
X145390769Y-118019231D01*
X145769327Y-118019231D01*
X146147885Y-118019231D01*
X146147885Y-117262115D01*
X146147885Y-116505000D01*
X146526442Y-116505000D01*
X146905000Y-116505000D01*
X146905000Y-116883558D01*
X146905000Y-117262115D01*
X147283558Y-117262115D01*
X147662115Y-117262115D01*
X147662115Y-116883558D01*
X147662115Y-116505000D01*
X148040673Y-116505000D01*
X148419231Y-116505000D01*
X148419231Y-116126442D01*
X148419231Y-115747885D01*
X148040673Y-115747885D01*
X147662115Y-115747885D01*
X147662115Y-116126442D01*
X147662115Y-116505000D01*
X147283558Y-116505000D01*
X146905000Y-116505000D01*
X146905000Y-116126442D01*
X146905000Y-115747885D01*
X146526442Y-115747885D01*
X146147885Y-115747885D01*
X146147885Y-116126442D01*
X146147885Y-116505000D01*
X145390769Y-116505000D01*
X144633654Y-116505000D01*
X144633654Y-116126442D01*
X144633654Y-115747885D01*
X145390769Y-115747885D01*
X145769327Y-115747885D01*
X146147885Y-115747885D01*
X146147885Y-115369327D01*
X146147885Y-114990769D01*
X145769327Y-114990769D01*
X145390769Y-114990769D01*
X145390769Y-115369327D01*
X145390769Y-115747885D01*
X144633654Y-115747885D01*
X144255096Y-115747885D01*
X143876538Y-115747885D01*
X143876538Y-116505000D01*
X143876538Y-117262115D01*
X143497981Y-117262115D01*
X143119423Y-117262115D01*
X143119423Y-116883558D01*
X143119423Y-116505000D01*
X142740865Y-116505000D01*
X142362308Y-116505000D01*
X142362308Y-117640673D01*
X142362308Y-118776346D01*
X142740865Y-118776346D01*
X143119423Y-118776346D01*
X143119423Y-119154904D01*
X143119423Y-119533461D01*
X142740865Y-119533461D01*
X142362308Y-119533461D01*
X142362308Y-119912019D01*
X142362308Y-120290577D01*
X141983750Y-120290577D01*
X141605192Y-120290577D01*
X141605192Y-119912019D01*
X141605192Y-119533461D01*
X141226635Y-119533461D01*
X140848077Y-119533461D01*
X140848077Y-119912019D01*
X140848077Y-120290577D01*
X140469519Y-120290577D01*
X140090961Y-120290577D01*
X140090961Y-119912019D01*
X140090961Y-119533461D01*
X140469519Y-119533461D01*
X140848077Y-119533461D01*
X140848077Y-119154904D01*
X140848077Y-118776346D01*
X140090961Y-118776346D01*
X139333846Y-118776346D01*
X139333846Y-119154904D01*
X139333846Y-119533461D01*
X138955288Y-119533461D01*
X138576731Y-119533461D01*
X138576731Y-119154904D01*
X138576731Y-118776346D01*
X138955288Y-118776346D01*
X139333846Y-118776346D01*
X139333846Y-118397788D01*
X139333846Y-118019231D01*
X140090961Y-118019231D01*
X140469519Y-118019231D01*
X140848077Y-118019231D01*
X140848077Y-118397788D01*
X140848077Y-118776346D01*
X141226635Y-118776346D01*
X141605192Y-118776346D01*
X141605192Y-117640673D01*
X141605192Y-116505000D01*
X140848077Y-116505000D01*
X140090961Y-116505000D01*
X140090961Y-117262115D01*
X140090961Y-118019231D01*
X139333846Y-118019231D01*
X138955288Y-118019231D01*
X138576731Y-118019231D01*
X138576731Y-118397788D01*
X138576731Y-118776346D01*
X138198173Y-118776346D01*
X137819615Y-118776346D01*
X137819615Y-119154904D01*
X137819615Y-119533461D01*
X137062500Y-119533461D01*
X136305385Y-119533461D01*
X136305385Y-119154904D01*
X136305385Y-118776346D01*
X135926827Y-118776346D01*
X135548269Y-118776346D01*
X135548269Y-118397788D01*
X135548269Y-118019231D01*
X135926827Y-118019231D01*
X136305385Y-118019231D01*
X136305385Y-118397788D01*
X136305385Y-118776346D01*
X137062500Y-118776346D01*
X137819615Y-118776346D01*
X137819615Y-118397788D01*
X137819615Y-117640673D01*
X137819615Y-117262115D01*
X138576731Y-117262115D01*
X138955288Y-117262115D01*
X139333846Y-117262115D01*
X139333846Y-116883558D01*
X139333846Y-116505000D01*
X138955288Y-116505000D01*
X138576731Y-116505000D01*
X138576731Y-116883558D01*
X138576731Y-117262115D01*
X137819615Y-117262115D01*
X137819615Y-116883558D01*
X137819615Y-116505000D01*
X136683942Y-116505000D01*
X135548269Y-116505000D01*
X135548269Y-117262115D01*
X135548269Y-118019231D01*
X135169711Y-118019231D01*
X134791154Y-118019231D01*
X134791154Y-118776346D01*
X134791154Y-119533461D01*
X134412596Y-119533461D01*
X134034038Y-119533461D01*
X134034038Y-117640673D01*
X134034038Y-116505000D01*
X134791154Y-116505000D01*
X135169711Y-116505000D01*
X135548269Y-116505000D01*
X135548269Y-116126442D01*
X135548269Y-115747885D01*
X135169711Y-115747885D01*
X134791154Y-115747885D01*
X134791154Y-116126442D01*
X134791154Y-116505000D01*
X134034038Y-116505000D01*
X134034038Y-116126442D01*
X134034038Y-115747885D01*
X134412596Y-115747885D01*
X134791154Y-115747885D01*
X134791154Y-115369327D01*
X134791154Y-114990769D01*
X135548269Y-114990769D01*
X136305385Y-114990769D01*
X136305385Y-114612211D01*
X136305385Y-114233654D01*
X136683942Y-114233654D01*
X137062500Y-114233654D01*
X137062500Y-114612211D01*
X137062500Y-114990769D01*
X136683942Y-114990769D01*
X136305385Y-114990769D01*
X136305385Y-115369327D01*
X136305385Y-115747885D01*
X137062500Y-115747885D01*
X137819615Y-115747885D01*
X137819615Y-116126442D01*
X137819615Y-116505000D01*
X138198173Y-116505000D01*
X138576731Y-116505000D01*
X138576731Y-116126442D01*
X138576731Y-115747885D01*
X139333846Y-115747885D01*
X140090961Y-115747885D01*
X140090961Y-115369327D01*
X140090961Y-114990769D01*
X139333846Y-114990769D01*
X138576731Y-114990769D01*
X138576731Y-114612211D01*
X138576731Y-114233654D01*
X139333846Y-114233654D01*
X140090961Y-114233654D01*
X140090961Y-114612211D01*
X140090961Y-114990769D01*
X140848077Y-114990769D01*
X141605192Y-114990769D01*
X141605192Y-114612211D01*
X141605192Y-114233654D01*
X141983750Y-114233654D01*
X142362308Y-114233654D01*
X142362308Y-113855096D01*
X142362308Y-113476538D01*
X142740865Y-113476538D01*
X143119423Y-113476538D01*
X143119423Y-114233654D01*
X143119423Y-114990769D01*
X143497981Y-114990769D01*
X143876538Y-114990769D01*
X143876538Y-113855096D01*
X143876538Y-112719423D01*
X144255096Y-112719423D01*
X144633654Y-112719423D01*
X144633654Y-112340865D01*
X144633654Y-111962308D01*
X145769327Y-111962308D01*
X146905000Y-111962308D01*
X146905000Y-110826635D01*
X146905000Y-109690961D01*
X147283558Y-109690961D01*
X147662115Y-109690961D01*
X147662115Y-110069519D01*
X147662115Y-110448077D01*
X148040673Y-110448077D01*
X148419231Y-110448077D01*
X148419231Y-109690961D01*
X148419231Y-108933846D01*
X148797788Y-108933846D01*
X149176346Y-108933846D01*
X149176346Y-108176731D01*
X149176346Y-107419615D01*
X148419231Y-107419615D01*
X147662115Y-107419615D01*
X147662115Y-107041058D01*
X147662115Y-106662500D01*
X147283558Y-106662500D01*
X146905000Y-106662500D01*
X146905000Y-106283942D01*
X146905000Y-105905385D01*
X147283558Y-105905385D01*
X147662115Y-105905385D01*
X147662115Y-106283942D01*
X147662115Y-106662500D01*
X148419231Y-106662500D01*
X149176346Y-106662500D01*
X149176346Y-105905385D01*
X149176346Y-105148269D01*
X149554904Y-105148269D01*
X149933461Y-105148269D01*
X149933461Y-107419615D01*
G37*
%TD*%
M02*
